{
  "asset": {
    "generator": "UnityGltf 2.17.6, Unity 6000.0.29f1, URP",
    "version": "2.0"
  },
  "extensionsUsed": [
    "KHR_texture_transform"
  ],
  "scene": 0,
  "scenes": [
    {
      "nodes": [
        0
      ],
      "name": "base_invulnerableVFX_joint"
    }
  ],
  "accessors": [
    {
      "bufferView": 0,
      "componentType": 5126,
      "count": 32,
      "type": "VEC3",
      "max": [
        0.063352048397064209,
        -0.057019133120775223,
        0.018253020942211151
      ],
      "min": [
        -0.02357788011431694,
        -0.05701914057135582,
        -0.0686769112944603
      ]
    },
    {
      "bufferView": 1,
      "componentType": 5126,
      "count": 32,
      "type": "VEC3",
      "max": [
        0.0,
        1.0,
        -1.6292068494294654E-07
      ],
      "min": [
        0.0,
        1.0,
        -1.6292068494294654E-07
      ]
    },
    {
      "bufferView": 2,
      "componentType": 5126,
      "count": 32,
      "type": "VEC4",
      "max": [
        1.0,
        0.0,
        0.0,
        1.0
      ],
      "min": [
        1.0,
        0.0,
        0.0,
        1.0
      ]
    },
    {
      "bufferView": 3,
      "componentType": 5126,
      "count": 32,
      "type": "VEC2",
      "max": [
        0.98867934942245483,
        0.98058998584747314
      ],
      "min": [
        0.013849660754203796,
        0.0057600736618041992
      ]
    },
    {
      "bufferView": 4,
      "componentType": 5121,
      "count": 90,
      "type": "SCALAR",
      "max": [
        31.0
      ],
      "min": [
        0.0
      ]
    },
    {
      "bufferView": 5,
      "componentType": 5126,
      "count": 26,
      "type": "SCALAR",
      "max": [
        0.83333337306976318
      ],
      "min": [
        0.0
      ]
    },
    {
      "bufferView": 6,
      "componentType": 5126,
      "count": 26,
      "type": "VEC3",
      "max": [
        0.0,
        0.0,
        -0.027552878484129906
      ],
      "min": [
        0.0,
        0.0,
        -0.059824578464031219
      ]
    },
    {
      "bufferView": 7,
      "componentType": 5126,
      "count": 26,
      "type": "SCALAR",
      "max": [
        0.83333337306976318
      ],
      "min": [
        0.0
      ]
    },
    {
      "bufferView": 8,
      "componentType": 5126,
      "count": 26,
      "type": "VEC3",
      "max": [
        56.392051696777344,
        56.392051696777344,
        56.392051696777344
      ],
      "min": [
        26.510505676269531,
        26.510505676269531,
        26.510505676269531
      ]
    },
    {
      "bufferView": 9,
      "componentType": 5126,
      "count": 1,
      "type": "MAT4"
    },
    {
      "bufferView": 10,
      "componentType": 5123,
      "count": 32,
      "type": "VEC4",
      "max": [
        0.0,
        0.0,
        0.0,
        0.0
      ],
      "min": [
        0.0,
        0.0,
        0.0,
        0.0
      ]
    },
    {
      "bufferView": 11,
      "componentType": 5126,
      "count": 32,
      "type": "VEC4",
      "max": [
        1.0,
        0.0,
        0.0,
        0.0
      ],
      "min": [
        1.0,
        0.0,
        0.0,
        0.0
      ]
    }
  ],
  "animations": [
    {
      "channels": [
        {
          "sampler": 0,
          "target": {
            "node": 1,
            "path": "translation"
          }
        },
        {
          "sampler": 1,
          "target": {
            "node": 1,
            "path": "scale"
          }
        }
      ],
      "samplers": [
        {
          "input": 5,
          "interpolation": "LINEAR",
          "output": 6
        },
        {
          "input": 7,
          "interpolation": "LINEAR",
          "output": 8
        }
      ],
      "name": "Take 001"
    }
  ],
  "buffers": [
    {
      "uri": "base_invulnerableVFX_joint.bin",
      "byteLength": 3292
    }
  ],
  "bufferViews": [
    {
      "buffer": 0,
      "byteLength": 384,
      "byteStride": 12,
      "target": 34962
    },
    {
      "buffer": 0,
      "byteOffset": 384,
      "byteLength": 384,
      "byteStride": 12,
      "target": 34962
    },
    {
      "buffer": 0,
      "byteOffset": 768,
      "byteLength": 512,
      "target": 34962
    },
    {
      "buffer": 0,
      "byteOffset": 1280,
      "byteLength": 256,
      "target": 34962
    },
    {
      "buffer": 0,
      "byteOffset": 1536,
      "byteLength": 92,
      "target": 34963
    },
    {
      "buffer": 0,
      "byteOffset": 1628,
      "byteLength": 104
    },
    {
      "buffer": 0,
      "byteOffset": 1732,
      "byteLength": 312
    },
    {
      "buffer": 0,
      "byteOffset": 2044,
      "byteLength": 104
    },
    {
      "buffer": 0,
      "byteOffset": 2148,
      "byteLength": 312
    },
    {
      "buffer": 0,
      "byteOffset": 2460,
      "byteLength": 64
    },
    {
      "buffer": 0,
      "byteOffset": 2524,
      "byteLength": 256,
      "target": 34962
    },
    {
      "buffer": 0,
      "byteOffset": 2780,
      "byteLength": 512,
      "target": 34962
    }
  ],
  "images": [
    {
      "uri": "base_invulnerableVFX_txt.png",
      "name": "base_invulnerableVFX_txt"
    }
  ],
  "materials": [
    {
      "pbrMetallicRoughness": {
        "baseColorTexture": {
          "index": 0,
          "extensions": {
            "KHR_texture_transform": {
              "texCoord": 0
            }
          }
        },
        "metallicFactor": 0.0,
        "roughnessFactor": 0.5
      },
      "name": "Material.005"
    }
  ],
  "meshes": [
    {
      "primitives": [
        {
          "attributes": {
            "POSITION": 0,
            "NORMAL": 1,
            "TANGENT": 2,
            "TEXCOORD_0": 3,
            "JOINTS_0": 10,
            "WEIGHTS_0": 11
          },
          "indices": 4,
          "material": 0
        }
      ],
      "name": "base_invulnerableVFX_joint"
    }
  ],
  "nodes": [
    {
      "children": [
        1
      ],
      "skin": 0,
      "mesh": 0,
      "name": "base_invulnerableVFX_joint"
    },
    {
      "scale": [
        26.5115166,
        26.5115166,
        26.5115166
      ],
      "translation": [
        0.0,
        0.0,
        -0.0275529735
      ],
      "name": "base_invulnerableVFX_joint"
    }
  ],
  "samplers": [
    {
      "minFilter": 9987
    }
  ],
  "skins": [
    {
      "inverseBindMatrices": 9,
      "joints": [
        1
      ]
    }
  ],
  "textures": [
    {
      "sampler": 0,
      "source": 0,
      "name": "base_invulnerableVFX_txt"
    }
  ]
}