{
	"asset":{
		"generator":"Khronos glTF Blender I/O v4.2.69",
		"version":"2.0"
	},
	"extensionsUsed":[
		"KHR_materials_emissive_strength"
	],
	"scene":0,
	"scenes":[
		{
			"name":"Scene",
			"nodes":[
				16
			]
		}
	],
	"nodes":[
		{
			"name":"pasted__jont_Sphere1",
			"rotation":[
				0.9488644599914551,
				-0.19026416540145874,
				0.09752468019723892,
				0.23226018249988556
			],
			"scale":[
				1,
				1,
				1.0000001192092896
			],
			"translation":[
				138.28033447265625,
				116.05052185058594,
				-35.601810455322266
			]
		},
		{
			"name":"pasted__jont_Sphere2",
			"rotation":[
				-0.4688465893268585,
				-0.3350570499897003,
				0.8145269155502319,
				0.06682517379522324
			],
			"scale":[
				0.9999998807907104,
				0.9999998807907104,
				1
			],
			"translation":[
				-62.11092758178711,
				136.18646240234375,
				41.7752799987793
			]
		},
		{
			"name":"pasted__jont_Sphere3",
			"rotation":[
				-0.3194621205329895,
				0.15499275922775269,
				-0.1280246526002884,
				0.926029622554779
			],
			"scale":[
				0.9999999403953552,
				0.9999998807907104,
				1
			],
			"translation":[
				35.36805725097656,
				109.32615661621094,
				-4.062071323394775
			]
		},
		{
			"name":"pasted__jont_Sphere4",
			"rotation":[
				0.6678518652915955,
				0.3103010356426239,
				-0.6660426259040833,
				0.11863566190004349
			],
			"scale":[
				0.9999999403953552,
				1.0000001192092896,
				0.9999998807907104
			],
			"translation":[
				13.282252311706543,
				147.6951904296875,
				-63.38606262207031
			]
		},
		{
			"name":"pasted__jont_Sphere5",
			"rotation":[
				-0.4039127230644226,
				0.35923442244529724,
				0.47108951210975647,
				0.6970508098602295
			],
			"scale":[
				0.9999999403953552,
				1,
				0.9999998807907104
			],
			"translation":[
				96.3850326538086,
				84.24270629882812,
				110.86139678955078
			]
		},
		{
			"mesh":0,
			"name":"Bomb_Sphere",
			"skin":0
		},
		{
			"children":[
				5,
				0,
				1,
				2,
				3,
				4
			],
			"name":"pasted__jnt_Main",
			"rotation":[
				-0.011678453534841537,
				0.013543196953833103,
				0.12832462787628174,
				0.9915710687637329
			],
			"scale":[
				0.2965322732925415,
				0.2965322434902191,
				0.2965322434902191
			]
		},
		{
			"children":[
				6
			],
			"name":"transform1.001",
			"rotation":[
				0.011678452603518963,
				-0.013543196022510529,
				-0.12832461297512054,
				0.9915710091590881
			],
			"scale":[
				3.372314691543579,
				3.372314691543579,
				3.372314929962158
			],
			"translation":[
				2.7009856700897217,
				10.273825645446777,
				0.2830516993999481
			]
		},
		{
			"name":"jont_Sphere1",
			"rotation":[
				-0.39105063676834106,
				0.2803197503089905,
				0.8700196743011475,
				0.10754557698965073
			],
			"scale":[
				1.0000001192092896,
				1.000000238418579,
				1.000000238418579
			],
			"translation":[
				138.2803497314453,
				116.05052185058594,
				-35.60181427001953
			]
		},
		{
			"name":"jont_Sphere2",
			"rotation":[
				0.2074199765920639,
				0.8447900414466858,
				-0.38496968150138855,
				0.3083912432193756
			],
			"scale":[
				1,
				0.9999998807907104,
				0.9999999403953552
			],
			"translation":[
				-62.11092758178711,
				136.18646240234375,
				41.7752799987793
			]
		},
		{
			"name":"jont_Sphere3",
			"rotation":[
				-0.3194621503353119,
				0.15499275922775269,
				-0.12802466750144958,
				0.926029622554779
			],
			"scale":[
				1,
				0.9999999403953552,
				1
			],
			"translation":[
				35.36806106567383,
				109.32616424560547,
				-4.062071800231934
			]
		},
		{
			"name":"jont_Sphere4",
			"rotation":[
				0.1596107929944992,
				0.29584571719169617,
				-0.9412354230880737,
				0.032796330749988556
			],
			"scale":[
				1,
				1.000000238418579,
				1.0000001192092896
			],
			"translation":[
				13.282252311706543,
				147.6951904296875,
				-63.38606262207031
			]
		},
		{
			"name":"jont_Sphere5",
			"rotation":[
				0.7196743488311768,
				0.34777137637138367,
				-0.07896128296852112,
				0.5957256555557251
			],
			"scale":[
				1.0000009536743164,
				1.0000003576278687,
				0.9999999403953552
			],
			"translation":[
				96.3850326538086,
				84.2426986694336,
				110.86141204833984
			]
		},
		{
			"mesh":1,
			"name":"VFX_Bomb_Smoke",
			"skin":1
		},
		{
			"children":[
				7,
				13,
				8,
				9,
				10,
				11,
				12
			],
			"name":"jnt_Main",
			"rotation":[
				-0.011678453534841537,
				0.013543197885155678,
				0.12832461297512054,
				0.9915710687637329
			],
			"scale":[
				0.2965322732925415,
				0.2965322434902191,
				0.2965322434902191
			]
		},
		{
			"children":[
				14
			],
			"name":"Joints_bomb_vfx"
		},
		{
			"children":[
				15
			],
			"name":"Bomb_animation",
			"scale":[
				0.009999999776482582,
				0.009999999776482582,
				0.009999999776482582
			]
		}
	],
	"animations":[
		{
			"channels":[
				{
					"sampler":0,
					"target":{
						"node":8,
						"path":"translation"
					}
				},
				{
					"sampler":1,
					"target":{
						"node":8,
						"path":"rotation"
					}
				},
				{
					"sampler":2,
					"target":{
						"node":8,
						"path":"scale"
					}
				},
				{
					"sampler":3,
					"target":{
						"node":9,
						"path":"translation"
					}
				},
				{
					"sampler":4,
					"target":{
						"node":9,
						"path":"rotation"
					}
				},
				{
					"sampler":5,
					"target":{
						"node":9,
						"path":"scale"
					}
				},
				{
					"sampler":6,
					"target":{
						"node":10,
						"path":"translation"
					}
				},
				{
					"sampler":7,
					"target":{
						"node":10,
						"path":"rotation"
					}
				},
				{
					"sampler":8,
					"target":{
						"node":10,
						"path":"scale"
					}
				},
				{
					"sampler":9,
					"target":{
						"node":11,
						"path":"translation"
					}
				},
				{
					"sampler":10,
					"target":{
						"node":11,
						"path":"rotation"
					}
				},
				{
					"sampler":11,
					"target":{
						"node":11,
						"path":"scale"
					}
				},
				{
					"sampler":12,
					"target":{
						"node":12,
						"path":"translation"
					}
				},
				{
					"sampler":13,
					"target":{
						"node":12,
						"path":"rotation"
					}
				},
				{
					"sampler":14,
					"target":{
						"node":12,
						"path":"scale"
					}
				},
				{
					"sampler":15,
					"target":{
						"node":0,
						"path":"translation"
					}
				},
				{
					"sampler":16,
					"target":{
						"node":0,
						"path":"rotation"
					}
				},
				{
					"sampler":17,
					"target":{
						"node":0,
						"path":"scale"
					}
				},
				{
					"sampler":18,
					"target":{
						"node":1,
						"path":"translation"
					}
				},
				{
					"sampler":19,
					"target":{
						"node":1,
						"path":"rotation"
					}
				},
				{
					"sampler":20,
					"target":{
						"node":1,
						"path":"scale"
					}
				},
				{
					"sampler":21,
					"target":{
						"node":2,
						"path":"translation"
					}
				},
				{
					"sampler":22,
					"target":{
						"node":2,
						"path":"rotation"
					}
				},
				{
					"sampler":23,
					"target":{
						"node":2,
						"path":"scale"
					}
				},
				{
					"sampler":24,
					"target":{
						"node":3,
						"path":"translation"
					}
				},
				{
					"sampler":25,
					"target":{
						"node":3,
						"path":"rotation"
					}
				},
				{
					"sampler":26,
					"target":{
						"node":3,
						"path":"scale"
					}
				},
				{
					"sampler":27,
					"target":{
						"node":4,
						"path":"translation"
					}
				},
				{
					"sampler":28,
					"target":{
						"node":4,
						"path":"rotation"
					}
				},
				{
					"sampler":29,
					"target":{
						"node":4,
						"path":"scale"
					}
				}
			],
			"name":"Bomb_Main_Animation",
			"samplers":[
				{
					"input":16,
					"interpolation":"LINEAR",
					"output":17
				},
				{
					"input":18,
					"interpolation":"STEP",
					"output":19
				},
				{
					"input":16,
					"interpolation":"LINEAR",
					"output":20
				},
				{
					"input":16,
					"interpolation":"LINEAR",
					"output":21
				},
				{
					"input":18,
					"interpolation":"STEP",
					"output":22
				},
				{
					"input":16,
					"interpolation":"LINEAR",
					"output":23
				},
				{
					"input":16,
					"interpolation":"LINEAR",
					"output":24
				},
				{
					"input":18,
					"interpolation":"STEP",
					"output":25
				},
				{
					"input":16,
					"interpolation":"LINEAR",
					"output":26
				},
				{
					"input":16,
					"interpolation":"LINEAR",
					"output":27
				},
				{
					"input":18,
					"interpolation":"STEP",
					"output":28
				},
				{
					"input":16,
					"interpolation":"LINEAR",
					"output":29
				},
				{
					"input":16,
					"interpolation":"LINEAR",
					"output":30
				},
				{
					"input":18,
					"interpolation":"STEP",
					"output":31
				},
				{
					"input":16,
					"interpolation":"LINEAR",
					"output":32
				},
				{
					"input":16,
					"interpolation":"LINEAR",
					"output":33
				},
				{
					"input":18,
					"interpolation":"STEP",
					"output":34
				},
				{
					"input":16,
					"interpolation":"LINEAR",
					"output":35
				},
				{
					"input":16,
					"interpolation":"LINEAR",
					"output":36
				},
				{
					"input":18,
					"interpolation":"STEP",
					"output":37
				},
				{
					"input":16,
					"interpolation":"LINEAR",
					"output":38
				},
				{
					"input":16,
					"interpolation":"LINEAR",
					"output":39
				},
				{
					"input":18,
					"interpolation":"STEP",
					"output":40
				},
				{
					"input":16,
					"interpolation":"LINEAR",
					"output":41
				},
				{
					"input":16,
					"interpolation":"LINEAR",
					"output":42
				},
				{
					"input":18,
					"interpolation":"STEP",
					"output":43
				},
				{
					"input":16,
					"interpolation":"LINEAR",
					"output":44
				},
				{
					"input":16,
					"interpolation":"LINEAR",
					"output":45
				},
				{
					"input":18,
					"interpolation":"STEP",
					"output":46
				},
				{
					"input":16,
					"interpolation":"LINEAR",
					"output":47
				}
			]
		}
	],
	"materials":[
		{
			"emissiveFactor":[
				1,
				0.37400832772254944,
				0.37400832772254944
			],
			"emissiveTexture":{
				"index":0
			},
			"extensions":{
				"KHR_materials_emissive_strength":{
					"emissiveStrength":2.499596357345581
				}
			},
			"name":"smoke-material",
			"normalTexture":{
				"index":1
			},
			"pbrMetallicRoughness":{
				"baseColorTexture":{
					"index":2
				},
				"metallicRoughnessTexture":{
					"index":3
				}
			}
		}
	],
	"meshes":[
		{
			"name":"Bomb_Sphere",
			"primitives":[
				{
					"attributes":{
						"POSITION":0,
						"NORMAL":1,
						"TEXCOORD_0":2,
						"TANGENT":3,
						"JOINTS_0":4,
						"WEIGHTS_0":5
					},
					"indices":6,
					"material":0
				}
			]
		},
		{
			"name":"VFX_Bomb_Smoke",
			"primitives":[
				{
					"attributes":{
						"POSITION":8,
						"NORMAL":9,
						"TEXCOORD_0":10,
						"TANGENT":11,
						"JOINTS_0":12,
						"WEIGHTS_0":13
					},
					"indices":14,
					"material":0
				}
			]
		}
	],
	"textures":[
		{
			"sampler":0,
			"source":0
		},
		{
			"sampler":0,
			"source":1
		},
		{
			"sampler":0,
			"source":2
		},
		{
			"sampler":0,
			"source":3
		}
	],
	"images":[
		{
			"mimeType":"image/jpeg",
			"name":"Bomb_anim_Emissive",
			"uri":"Bomb_anim_Emissive.jpg"
		},
		{
			"mimeType":"image/jpeg",
			"name":"Bomb_anim_Normal",
			"uri":"Bomb_anim_Normal.jpg"
		},
		{
			"mimeType":"image/jpeg",
			"name":"Bomb_anim_Base_Color",
			"uri":"Bomb_anim_Base_Color.jpg"
		},
		{
			"mimeType":"image/jpeg",
			"name":"Bomb_anim_ORM",
			"uri":"Bomb_anim_ORM.jpg"
		}
	],
	"skins":[
		{
			"inverseBindMatrices":7,
			"joints":[
				0,
				1,
				2,
				3,
				4
			],
			"name":"pasted__jnt_Main"
		},
		{
			"inverseBindMatrices":15,
			"joints":[
				8,
				9,
				10,
				11,
				12
			],
			"name":"jnt_Main"
		}
	],
	"accessors":[
		{
			"bufferView":0,
			"componentType":5126,
			"count":850,
			"max":[
				1.0043668746948242,
				1.1814043521881104,
				1.0682673454284668
			],
			"min":[
				-1.030489444732666,
				-0.3783178925514221,
				-0.9486154317855835
			],
			"type":"VEC3"
		},
		{
			"bufferView":1,
			"componentType":5126,
			"count":850,
			"type":"VEC3"
		},
		{
			"bufferView":2,
			"componentType":5126,
			"count":850,
			"type":"VEC2"
		},
		{
			"bufferView":3,
			"componentType":5126,
			"count":850,
			"type":"VEC4"
		},
		{
			"bufferView":4,
			"componentType":5121,
			"count":850,
			"type":"VEC4"
		},
		{
			"bufferView":5,
			"componentType":5126,
			"count":850,
			"type":"VEC4"
		},
		{
			"bufferView":6,
			"componentType":5123,
			"count":4680,
			"type":"SCALAR"
		},
		{
			"bufferView":7,
			"componentType":5126,
			"count":5,
			"type":"MAT4"
		},
		{
			"bufferView":8,
			"componentType":5126,
			"count":2630,
			"max":[
				0.6538217067718506,
				0.8803247213363647,
				0.7219527363777161
			],
			"min":[
				-0.8105236291885376,
				-0.17053084075450897,
				-0.6916085481643677
			],
			"type":"VEC3"
		},
		{
			"bufferView":9,
			"componentType":5126,
			"count":2630,
			"type":"VEC3"
		},
		{
			"bufferView":10,
			"componentType":5126,
			"count":2630,
			"type":"VEC2"
		},
		{
			"bufferView":11,
			"componentType":5126,
			"count":2630,
			"type":"VEC4"
		},
		{
			"bufferView":12,
			"componentType":5121,
			"count":2630,
			"type":"VEC4"
		},
		{
			"bufferView":13,
			"componentType":5126,
			"count":2630,
			"type":"VEC4"
		},
		{
			"bufferView":14,
			"componentType":5123,
			"count":14520,
			"type":"SCALAR"
		},
		{
			"bufferView":15,
			"componentType":5126,
			"count":5,
			"type":"MAT4"
		},
		{
			"bufferView":16,
			"componentType":5126,
			"count":29,
			"max":[
				1.1666666666666667
			],
			"min":[
				0
			],
			"type":"SCALAR"
		},
		{
			"bufferView":17,
			"componentType":5126,
			"count":29,
			"type":"VEC3"
		},
		{
			"bufferView":18,
			"componentType":5126,
			"count":2,
			"max":[
				1.1666666666666667
			],
			"min":[
				0
			],
			"type":"SCALAR"
		},
		{
			"bufferView":19,
			"componentType":5126,
			"count":2,
			"type":"VEC4"
		},
		{
			"bufferView":20,
			"componentType":5126,
			"count":29,
			"type":"VEC3"
		},
		{
			"bufferView":21,
			"componentType":5126,
			"count":29,
			"type":"VEC3"
		},
		{
			"bufferView":22,
			"componentType":5126,
			"count":2,
			"type":"VEC4"
		},
		{
			"bufferView":23,
			"componentType":5126,
			"count":29,
			"type":"VEC3"
		},
		{
			"bufferView":24,
			"componentType":5126,
			"count":29,
			"type":"VEC3"
		},
		{
			"bufferView":25,
			"componentType":5126,
			"count":2,
			"type":"VEC4"
		},
		{
			"bufferView":26,
			"componentType":5126,
			"count":29,
			"type":"VEC3"
		},
		{
			"bufferView":27,
			"componentType":5126,
			"count":29,
			"type":"VEC3"
		},
		{
			"bufferView":28,
			"componentType":5126,
			"count":2,
			"type":"VEC4"
		},
		{
			"bufferView":29,
			"componentType":5126,
			"count":29,
			"type":"VEC3"
		},
		{
			"bufferView":30,
			"componentType":5126,
			"count":29,
			"type":"VEC3"
		},
		{
			"bufferView":31,
			"componentType":5126,
			"count":2,
			"type":"VEC4"
		},
		{
			"bufferView":32,
			"componentType":5126,
			"count":29,
			"type":"VEC3"
		},
		{
			"bufferView":33,
			"componentType":5126,
			"count":29,
			"type":"VEC3"
		},
		{
			"bufferView":34,
			"componentType":5126,
			"count":2,
			"type":"VEC4"
		},
		{
			"bufferView":35,
			"componentType":5126,
			"count":29,
			"type":"VEC3"
		},
		{
			"bufferView":36,
			"componentType":5126,
			"count":29,
			"type":"VEC3"
		},
		{
			"bufferView":37,
			"componentType":5126,
			"count":2,
			"type":"VEC4"
		},
		{
			"bufferView":38,
			"componentType":5126,
			"count":29,
			"type":"VEC3"
		},
		{
			"bufferView":39,
			"componentType":5126,
			"count":29,
			"type":"VEC3"
		},
		{
			"bufferView":40,
			"componentType":5126,
			"count":2,
			"type":"VEC4"
		},
		{
			"bufferView":41,
			"componentType":5126,
			"count":29,
			"type":"VEC3"
		},
		{
			"bufferView":42,
			"componentType":5126,
			"count":29,
			"type":"VEC3"
		},
		{
			"bufferView":43,
			"componentType":5126,
			"count":2,
			"type":"VEC4"
		},
		{
			"bufferView":44,
			"componentType":5126,
			"count":29,
			"type":"VEC3"
		},
		{
			"bufferView":45,
			"componentType":5126,
			"count":29,
			"type":"VEC3"
		},
		{
			"bufferView":46,
			"componentType":5126,
			"count":2,
			"type":"VEC4"
		},
		{
			"bufferView":47,
			"componentType":5126,
			"count":29,
			"type":"VEC3"
		}
	],
	"bufferViews":[
		{
			"buffer":0,
			"byteLength":10200,
			"byteOffset":0,
			"target":34962
		},
		{
			"buffer":0,
			"byteLength":10200,
			"byteOffset":10200,
			"target":34962
		},
		{
			"buffer":0,
			"byteLength":6800,
			"byteOffset":20400,
			"target":34962
		},
		{
			"buffer":0,
			"byteLength":13600,
			"byteOffset":27200,
			"target":34962
		},
		{
			"buffer":0,
			"byteLength":3400,
			"byteOffset":40800,
			"target":34962
		},
		{
			"buffer":0,
			"byteLength":13600,
			"byteOffset":44200,
			"target":34962
		},
		{
			"buffer":0,
			"byteLength":9360,
			"byteOffset":57800,
			"target":34963
		},
		{
			"buffer":0,
			"byteLength":320,
			"byteOffset":67160
		},
		{
			"buffer":0,
			"byteLength":31560,
			"byteOffset":67480,
			"target":34962
		},
		{
			"buffer":0,
			"byteLength":31560,
			"byteOffset":99040,
			"target":34962
		},
		{
			"buffer":0,
			"byteLength":21040,
			"byteOffset":130600,
			"target":34962
		},
		{
			"buffer":0,
			"byteLength":42080,
			"byteOffset":151640,
			"target":34962
		},
		{
			"buffer":0,
			"byteLength":10520,
			"byteOffset":193720,
			"target":34962
		},
		{
			"buffer":0,
			"byteLength":42080,
			"byteOffset":204240,
			"target":34962
		},
		{
			"buffer":0,
			"byteLength":29040,
			"byteOffset":246320,
			"target":34963
		},
		{
			"buffer":0,
			"byteLength":320,
			"byteOffset":275360
		},
		{
			"buffer":0,
			"byteLength":116,
			"byteOffset":275680
		},
		{
			"buffer":0,
			"byteLength":348,
			"byteOffset":275796
		},
		{
			"buffer":0,
			"byteLength":8,
			"byteOffset":276144
		},
		{
			"buffer":0,
			"byteLength":32,
			"byteOffset":276152
		},
		{
			"buffer":0,
			"byteLength":348,
			"byteOffset":276184
		},
		{
			"buffer":0,
			"byteLength":348,
			"byteOffset":276532
		},
		{
			"buffer":0,
			"byteLength":32,
			"byteOffset":276880
		},
		{
			"buffer":0,
			"byteLength":348,
			"byteOffset":276912
		},
		{
			"buffer":0,
			"byteLength":348,
			"byteOffset":277260
		},
		{
			"buffer":0,
			"byteLength":32,
			"byteOffset":277608
		},
		{
			"buffer":0,
			"byteLength":348,
			"byteOffset":277640
		},
		{
			"buffer":0,
			"byteLength":348,
			"byteOffset":277988
		},
		{
			"buffer":0,
			"byteLength":32,
			"byteOffset":278336
		},
		{
			"buffer":0,
			"byteLength":348,
			"byteOffset":278368
		},
		{
			"buffer":0,
			"byteLength":348,
			"byteOffset":278716
		},
		{
			"buffer":0,
			"byteLength":32,
			"byteOffset":279064
		},
		{
			"buffer":0,
			"byteLength":348,
			"byteOffset":279096
		},
		{
			"buffer":0,
			"byteLength":348,
			"byteOffset":279444
		},
		{
			"buffer":0,
			"byteLength":32,
			"byteOffset":279792
		},
		{
			"buffer":0,
			"byteLength":348,
			"byteOffset":279824
		},
		{
			"buffer":0,
			"byteLength":348,
			"byteOffset":280172
		},
		{
			"buffer":0,
			"byteLength":32,
			"byteOffset":280520
		},
		{
			"buffer":0,
			"byteLength":348,
			"byteOffset":280552
		},
		{
			"buffer":0,
			"byteLength":348,
			"byteOffset":280900
		},
		{
			"buffer":0,
			"byteLength":32,
			"byteOffset":281248
		},
		{
			"buffer":0,
			"byteLength":348,
			"byteOffset":281280
		},
		{
			"buffer":0,
			"byteLength":348,
			"byteOffset":281628
		},
		{
			"buffer":0,
			"byteLength":32,
			"byteOffset":281976
		},
		{
			"buffer":0,
			"byteLength":348,
			"byteOffset":282008
		},
		{
			"buffer":0,
			"byteLength":348,
			"byteOffset":282356
		},
		{
			"buffer":0,
			"byteLength":32,
			"byteOffset":282704
		},
		{
			"buffer":0,
			"byteLength":348,
			"byteOffset":282736
		}
	],
	"samplers":[
		{
			"magFilter":9729,
			"minFilter":9987
		}
	],
	"buffers":[
		{
			"byteLength":283084,
			"uri":"Bomb_animation.bin"
		}
	]
}
