{
	"asset":{
		"generator":"Khronos glTF Blender I/O v4.2.69",
		"version":"2.0"
	},
	"scene":0,
	"scenes":[
		{
			"name":"Scene",
			"nodes":[
				2
			]
		}
	],
	"nodes":[
		{
			"name":"Jnt_Wind",
			"rotation":[
				-8.557136332854043e-09,
				1.7114272665708086e-08,
				-2.928983286277023e-16,
				1
			]
		},
		{
			"mesh":0,
			"name":"VFX_Bomb_Wind_Top1",
			"skin":0
		},
		{
			"children":[
				1,
				0
			],
			"name":"Bomb_animation_wind",
			"scale":[
				0.009999999776482582,
				0.009999999776482582,
				0.009999999776482582
			]
		}
	],
	"animations":[
		{
			"channels":[
				{
					"sampler":0,
					"target":{
						"node":0,
						"path":"translation"
					}
				},
				{
					"sampler":1,
					"target":{
						"node":0,
						"path":"rotation"
					}
				},
				{
					"sampler":2,
					"target":{
						"node":0,
						"path":"scale"
					}
				}
			],
			"name":"Armature|Take 001|BaseLayer",
			"samplers":[
				{
					"input":8,
					"interpolation":"STEP",
					"output":9
				},
				{
					"input":8,
					"interpolation":"STEP",
					"output":10
				},
				{
					"input":8,
					"interpolation":"STEP",
					"output":11
				}
			]
		},
		{
			"channels":[
				{
					"sampler":0,
					"target":{
						"node":0,
						"path":"translation"
					}
				},
				{
					"sampler":1,
					"target":{
						"node":0,
						"path":"rotation"
					}
				},
				{
					"sampler":2,
					"target":{
						"node":0,
						"path":"scale"
					}
				}
			],
			"name":"Armature|Take 001|BaseLayer.001",
			"samplers":[
				{
					"input":8,
					"interpolation":"STEP",
					"output":12
				},
				{
					"input":8,
					"interpolation":"STEP",
					"output":13
				},
				{
					"input":8,
					"interpolation":"STEP",
					"output":14
				}
			]
		},
		{
			"channels":[
				{
					"sampler":0,
					"target":{
						"node":0,
						"path":"translation"
					}
				},
				{
					"sampler":1,
					"target":{
						"node":0,
						"path":"rotation"
					}
				},
				{
					"sampler":2,
					"target":{
						"node":0,
						"path":"scale"
					}
				}
			],
			"name":"Bomb_Main_Animation_jnt_Main",
			"samplers":[
				{
					"input":15,
					"interpolation":"STEP",
					"output":16
				},
				{
					"input":15,
					"interpolation":"STEP",
					"output":17
				},
				{
					"input":15,
					"interpolation":"STEP",
					"output":18
				}
			]
		},
		{
			"channels":[
				{
					"sampler":0,
					"target":{
						"node":0,
						"path":"translation"
					}
				},
				{
					"sampler":1,
					"target":{
						"node":0,
						"path":"rotation"
					}
				},
				{
					"sampler":2,
					"target":{
						"node":0,
						"path":"scale"
					}
				}
			],
			"name":"Bomb_Main_Animation_pasted__jnt_Main",
			"samplers":[
				{
					"input":15,
					"interpolation":"STEP",
					"output":19
				},
				{
					"input":15,
					"interpolation":"STEP",
					"output":20
				},
				{
					"input":15,
					"interpolation":"STEP",
					"output":21
				}
			]
		},
		{
			"channels":[
				{
					"sampler":0,
					"target":{
						"node":0,
						"path":"translation"
					}
				},
				{
					"sampler":1,
					"target":{
						"node":0,
						"path":"rotation"
					}
				},
				{
					"sampler":2,
					"target":{
						"node":0,
						"path":"scale"
					}
				}
			],
			"name":"Bomb_Single_animaiton_pasted__jnt_Main.001",
			"samplers":[
				{
					"input":15,
					"interpolation":"STEP",
					"output":22
				},
				{
					"input":15,
					"interpolation":"STEP",
					"output":23
				},
				{
					"input":15,
					"interpolation":"STEP",
					"output":24
				}
			]
		},
		{
			"channels":[
				{
					"sampler":0,
					"target":{
						"node":0,
						"path":"translation"
					}
				},
				{
					"sampler":1,
					"target":{
						"node":0,
						"path":"rotation"
					}
				},
				{
					"sampler":2,
					"target":{
						"node":0,
						"path":"scale"
					}
				}
			],
			"name":"Bomb_Single_animaiton_pasted__pasted__jnt_Main",
			"samplers":[
				{
					"input":15,
					"interpolation":"STEP",
					"output":25
				},
				{
					"input":15,
					"interpolation":"STEP",
					"output":26
				},
				{
					"input":15,
					"interpolation":"STEP",
					"output":27
				}
			]
		},
		{
			"channels":[
				{
					"sampler":0,
					"target":{
						"node":0,
						"path":"translation"
					}
				},
				{
					"sampler":1,
					"target":{
						"node":0,
						"path":"rotation"
					}
				},
				{
					"sampler":2,
					"target":{
						"node":0,
						"path":"scale"
					}
				}
			],
			"name":"Bomb_Wind_Expande",
			"samplers":[
				{
					"input":28,
					"interpolation":"STEP",
					"output":29
				},
				{
					"input":28,
					"interpolation":"STEP",
					"output":30
				},
				{
					"input":31,
					"interpolation":"LINEAR",
					"output":32
				}
			]
		}
	],
	"materials":[
		{
			"alphaMode":"BLEND",
			"emissiveFactor":[
				1,
				1,
				1
			],
			"emissiveTexture":{
				"index":0
			},
			"name":"M_Bomb_Wind.001",
			"pbrMetallicRoughness":{
				"baseColorTexture":{
					"index":1
				},
				"metallicFactor":0,
				"roughnessFactor":0.8585786819458008
			}
		}
	],
	"meshes":[
		{
			"name":"VFX_Bomb_Wind_Top1",
			"primitives":[
				{
					"attributes":{
						"POSITION":0,
						"NORMAL":1,
						"TEXCOORD_0":2,
						"TANGENT":3,
						"JOINTS_0":4,
						"WEIGHTS_0":5
					},
					"indices":6,
					"material":0
				}
			]
		}
	],
	"textures":[
		{
			"sampler":0,
			"source":0
		},
		{
			"sampler":0,
			"source":1
		}
	],
	"images":[
		{
			"mimeType":"image/jpeg",
			"name":"Bomb_Wind_Emissive",
			"uri":"Bomb_Wind_Emissive.jpg"
		},
		{
			"mimeType":"image/png",
			"name":"Bomb_Wind",
			"uri":"Bomb_Wind.png"
		}
	],
	"skins":[
		{
			"inverseBindMatrices":7,
			"joints":[
				0
			],
			"name":"Bomb_animation_wind"
		}
	],
	"accessors":[
		{
			"bufferView":0,
			"componentType":5126,
			"count":339,
			"max":[
				1.0241378545761108,
				0.9101742506027222,
				1.0241154432296753
			],
			"min":[
				-1.0241376161575317,
				-0.0008438406512141228,
				-1.0241142511367798
			],
			"type":"VEC3"
		},
		{
			"bufferView":1,
			"componentType":5126,
			"count":339,
			"type":"VEC3"
		},
		{
			"bufferView":2,
			"componentType":5126,
			"count":339,
			"type":"VEC2"
		},
		{
			"bufferView":3,
			"componentType":5126,
			"count":339,
			"type":"VEC4"
		},
		{
			"bufferView":4,
			"componentType":5121,
			"count":339,
			"type":"VEC4"
		},
		{
			"bufferView":5,
			"componentType":5126,
			"count":339,
			"type":"VEC4"
		},
		{
			"bufferView":6,
			"componentType":5123,
			"count":960,
			"type":"SCALAR"
		},
		{
			"bufferView":7,
			"componentType":5126,
			"count":1,
			"type":"MAT4"
		},
		{
			"bufferView":8,
			"componentType":5126,
			"count":2,
			"max":[
				1.5
			],
			"min":[
				0.08333333333333333
			],
			"type":"SCALAR"
		},
		{
			"bufferView":9,
			"componentType":5126,
			"count":2,
			"type":"VEC3"
		},
		{
			"bufferView":10,
			"componentType":5126,
			"count":2,
			"type":"VEC4"
		},
		{
			"bufferView":11,
			"componentType":5126,
			"count":2,
			"type":"VEC3"
		},
		{
			"bufferView":12,
			"componentType":5126,
			"count":2,
			"type":"VEC3"
		},
		{
			"bufferView":13,
			"componentType":5126,
			"count":2,
			"type":"VEC4"
		},
		{
			"bufferView":14,
			"componentType":5126,
			"count":2,
			"type":"VEC3"
		},
		{
			"bufferView":15,
			"componentType":5126,
			"count":2,
			"max":[
				1.1666666666666667
			],
			"min":[
				0
			],
			"type":"SCALAR"
		},
		{
			"bufferView":16,
			"componentType":5126,
			"count":2,
			"type":"VEC3"
		},
		{
			"bufferView":17,
			"componentType":5126,
			"count":2,
			"type":"VEC4"
		},
		{
			"bufferView":18,
			"componentType":5126,
			"count":2,
			"type":"VEC3"
		},
		{
			"bufferView":19,
			"componentType":5126,
			"count":2,
			"type":"VEC3"
		},
		{
			"bufferView":20,
			"componentType":5126,
			"count":2,
			"type":"VEC4"
		},
		{
			"bufferView":21,
			"componentType":5126,
			"count":2,
			"type":"VEC3"
		},
		{
			"bufferView":22,
			"componentType":5126,
			"count":2,
			"type":"VEC3"
		},
		{
			"bufferView":23,
			"componentType":5126,
			"count":2,
			"type":"VEC4"
		},
		{
			"bufferView":24,
			"componentType":5126,
			"count":2,
			"type":"VEC3"
		},
		{
			"bufferView":25,
			"componentType":5126,
			"count":2,
			"type":"VEC3"
		},
		{
			"bufferView":26,
			"componentType":5126,
			"count":2,
			"type":"VEC4"
		},
		{
			"bufferView":27,
			"componentType":5126,
			"count":2,
			"type":"VEC3"
		},
		{
			"bufferView":28,
			"componentType":5126,
			"count":2,
			"max":[
				0.7916666666666666
			],
			"min":[
				0
			],
			"type":"SCALAR"
		},
		{
			"bufferView":29,
			"componentType":5126,
			"count":2,
			"type":"VEC3"
		},
		{
			"bufferView":30,
			"componentType":5126,
			"count":2,
			"type":"VEC4"
		},
		{
			"bufferView":31,
			"componentType":5126,
			"count":20,
			"max":[
				0.7916666666666666
			],
			"min":[
				0
			],
			"type":"SCALAR"
		},
		{
			"bufferView":32,
			"componentType":5126,
			"count":20,
			"type":"VEC3"
		}
	],
	"bufferViews":[
		{
			"buffer":0,
			"byteLength":4068,
			"byteOffset":0,
			"target":34962
		},
		{
			"buffer":0,
			"byteLength":4068,
			"byteOffset":4068,
			"target":34962
		},
		{
			"buffer":0,
			"byteLength":2712,
			"byteOffset":8136,
			"target":34962
		},
		{
			"buffer":0,
			"byteLength":5424,
			"byteOffset":10848,
			"target":34962
		},
		{
			"buffer":0,
			"byteLength":1356,
			"byteOffset":16272,
			"target":34962
		},
		{
			"buffer":0,
			"byteLength":5424,
			"byteOffset":17628,
			"target":34962
		},
		{
			"buffer":0,
			"byteLength":1920,
			"byteOffset":23052,
			"target":34963
		},
		{
			"buffer":0,
			"byteLength":64,
			"byteOffset":24972
		},
		{
			"buffer":0,
			"byteLength":8,
			"byteOffset":25036
		},
		{
			"buffer":0,
			"byteLength":24,
			"byteOffset":25044
		},
		{
			"buffer":0,
			"byteLength":32,
			"byteOffset":25068
		},
		{
			"buffer":0,
			"byteLength":24,
			"byteOffset":25100
		},
		{
			"buffer":0,
			"byteLength":24,
			"byteOffset":25124
		},
		{
			"buffer":0,
			"byteLength":32,
			"byteOffset":25148
		},
		{
			"buffer":0,
			"byteLength":24,
			"byteOffset":25180
		},
		{
			"buffer":0,
			"byteLength":8,
			"byteOffset":25204
		},
		{
			"buffer":0,
			"byteLength":24,
			"byteOffset":25212
		},
		{
			"buffer":0,
			"byteLength":32,
			"byteOffset":25236
		},
		{
			"buffer":0,
			"byteLength":24,
			"byteOffset":25268
		},
		{
			"buffer":0,
			"byteLength":24,
			"byteOffset":25292
		},
		{
			"buffer":0,
			"byteLength":32,
			"byteOffset":25316
		},
		{
			"buffer":0,
			"byteLength":24,
			"byteOffset":25348
		},
		{
			"buffer":0,
			"byteLength":24,
			"byteOffset":25372
		},
		{
			"buffer":0,
			"byteLength":32,
			"byteOffset":25396
		},
		{
			"buffer":0,
			"byteLength":24,
			"byteOffset":25428
		},
		{
			"buffer":0,
			"byteLength":24,
			"byteOffset":25452
		},
		{
			"buffer":0,
			"byteLength":32,
			"byteOffset":25476
		},
		{
			"buffer":0,
			"byteLength":24,
			"byteOffset":25508
		},
		{
			"buffer":0,
			"byteLength":8,
			"byteOffset":25532
		},
		{
			"buffer":0,
			"byteLength":24,
			"byteOffset":25540
		},
		{
			"buffer":0,
			"byteLength":32,
			"byteOffset":25564
		},
		{
			"buffer":0,
			"byteLength":80,
			"byteOffset":25596
		},
		{
			"buffer":0,
			"byteLength":240,
			"byteOffset":25676
		}
	],
	"samplers":[
		{
			"magFilter":9729,
			"minFilter":9987
		}
	],
	"buffers":[
		{
			"byteLength":25916,
			"uri":"Bomb_animation_wind.bin"
		}
	]
}
