{
	"asset":{
		"generator":"Khronos glTF Blender I/O v4.2.69",
		"version":"2.0"
	},
	"extensionsUsed":[
		"KHR_materials_emissive_strength"
	],
	"scene":0,
	"scenes":[
		{
			"name":"Scene",
			"nodes":[
				9
			]
		}
	],
	"nodes":[
		{
			"name":"pasted__pasted__jont_Sphere3",
			"rotation":[
				-0.35002467036247253,
				0.059678543359041214,
				-0.3813742399215698,
				0.853507399559021
			],
			"scale":[
				1,
				1,
				0.9999999403953552
			],
			"translation":[
				35.36805725097656,
				109.32615661621094,
				-4.062071323394775
			]
		},
		{
			"mesh":0,
			"name":"pasted__Bomb_Sphere",
			"skin":0
		},
		{
			"children":[
				1,
				0
			],
			"name":"pasted__pasted__jnt_Main",
			"rotation":[
				-0.011678453534841537,
				0.013543196953833103,
				0.12832462787628174,
				0.9915710687637329
			],
			"scale":[
				0.2965322732925415,
				0.2965322434902191,
				0.2965322434902191
			]
		},
		{
			"children":[
				2
			],
			"name":"pasted__transform1",
			"rotation":[
				0.011678452603518963,
				-0.013543196022510529,
				-0.12832461297512054,
				0.9915710091590881
			],
			"scale":[
				3.372314691543579,
				3.372314691543579,
				3.372314929962158
			],
			"translation":[
				2.7009856700897217,
				10.273825645446777,
				0.2830516993999481
			]
		},
		{
			"name":"pasted__jont_Sphere3",
			"rotation":[
				-0.3449426591396332,
				-0.08422490954399109,
				-0.6889459490776062,
				0.6318815350532532
			],
			"scale":[
				0.9999999403953552,
				1.0000001192092896,
				0.9999999403953552
			],
			"translation":[
				35.36806106567383,
				109.32616424560547,
				-4.062071800231934
			]
		},
		{
			"mesh":1,
			"name":"pasted__VFX_Bomb_Smoke",
			"skin":1
		},
		{
			"children":[
				3,
				5,
				4
			],
			"name":"pasted__jnt_Main.001",
			"rotation":[
				-0.011678453534841537,
				0.013543197885155678,
				0.12832461297512054,
				0.9915710687637329
			],
			"scale":[
				0.2965322732925415,
				0.2965322434902191,
				0.2965322434902191
			]
		},
		{
			"children":[
				6
			],
			"name":"pasted__Joints_bomb_vfx"
		},
		{
			"children":[
				7
			],
			"name":"pasted__Bomb"
		},
		{
			"children":[
				8
			],
			"name":"Bomb_animation_single",
			"scale":[
				0.009999999776482582,
				0.009999999776482582,
				0.009999999776482582
			]
		}
	],
	"animations":[
		{
			"channels":[
				{
					"sampler":0,
					"target":{
						"node":4,
						"path":"translation"
					}
				},
				{
					"sampler":1,
					"target":{
						"node":4,
						"path":"rotation"
					}
				},
				{
					"sampler":2,
					"target":{
						"node":4,
						"path":"scale"
					}
				},
				{
					"sampler":3,
					"target":{
						"node":0,
						"path":"translation"
					}
				},
				{
					"sampler":4,
					"target":{
						"node":0,
						"path":"rotation"
					}
				},
				{
					"sampler":5,
					"target":{
						"node":0,
						"path":"scale"
					}
				}
			],
			"name":"Bomb_Single_animaiton",
			"samplers":[
				{
					"input":16,
					"interpolation":"LINEAR",
					"output":17
				},
				{
					"input":18,
					"interpolation":"STEP",
					"output":19
				},
				{
					"input":16,
					"interpolation":"LINEAR",
					"output":20
				},
				{
					"input":16,
					"interpolation":"LINEAR",
					"output":21
				},
				{
					"input":18,
					"interpolation":"STEP",
					"output":22
				},
				{
					"input":16,
					"interpolation":"LINEAR",
					"output":23
				}
			]
		}
	],
	"materials":[
		{
			"emissiveFactor":[
				1,
				0.37400832772254944,
				0.37400832772254944
			],
			"emissiveTexture":{
				"index":0
			},
			"extensions":{
				"KHR_materials_emissive_strength":{
					"emissiveStrength":2.499596357345581
				}
			},
			"name":"smoke-material.001",
			"normalTexture":{
				"index":1
			},
			"pbrMetallicRoughness":{
				"baseColorTexture":{
					"index":2
				},
				"metallicRoughnessTexture":{
					"index":3
				}
			}
		}
	],
	"meshes":[
		{
			"name":"pasted__Bomb_Sphere",
			"primitives":[
				{
					"attributes":{
						"POSITION":0,
						"NORMAL":1,
						"TEXCOORD_0":2,
						"TANGENT":3,
						"JOINTS_0":4,
						"WEIGHTS_0":5
					},
					"indices":6,
					"material":0
				}
			]
		},
		{
			"name":"pasted__VFX_Bomb_Smoke",
			"primitives":[
				{
					"attributes":{
						"POSITION":8,
						"NORMAL":9,
						"TEXCOORD_0":10,
						"TANGENT":11,
						"JOINTS_0":12,
						"WEIGHTS_0":13
					},
					"indices":14,
					"material":0
				}
			]
		}
	],
	"textures":[
		{
			"sampler":0,
			"source":0
		},
		{
			"sampler":0,
			"source":1
		},
		{
			"sampler":0,
			"source":2
		},
		{
			"sampler":0,
			"source":3
		}
	],
	"images":[
		{
			"mimeType":"image/jpeg",
			"name":"Bomb_anim_Emissive",
			"uri":"Bomb_anim_Emissive.jpg"
		},
		{
			"mimeType":"image/jpeg",
			"name":"Bomb_anim_Normal",
			"uri":"Bomb_anim_Normal.jpg"
		},
		{
			"mimeType":"image/jpeg",
			"name":"Bomb_anim_Base_Color",
			"uri":"Bomb_anim_Base_Color.jpg"
		},
		{
			"mimeType":"image/jpeg",
			"name":"Bomb_anim_ORM",
			"uri":"Bomb_anim_ORM.jpg"
		}
	],
	"skins":[
		{
			"inverseBindMatrices":7,
			"joints":[
				0
			],
			"name":"pasted__pasted__jnt_Main"
		},
		{
			"inverseBindMatrices":15,
			"joints":[
				4
			],
			"name":"pasted__jnt_Main.001"
		}
	],
	"accessors":[
		{
			"bufferView":0,
			"componentType":5126,
			"count":170,
			"max":[
				0.765713632106781,
				1.1117377281188965,
				0.7280724048614502
			],
			"min":[
				-0.7160781025886536,
				-0.35161200165748596,
				-0.7689678072929382
			],
			"type":"VEC3"
		},
		{
			"bufferView":1,
			"componentType":5126,
			"count":170,
			"type":"VEC3"
		},
		{
			"bufferView":2,
			"componentType":5126,
			"count":170,
			"type":"VEC2"
		},
		{
			"bufferView":3,
			"componentType":5126,
			"count":170,
			"type":"VEC4"
		},
		{
			"bufferView":4,
			"componentType":5121,
			"count":170,
			"type":"VEC4"
		},
		{
			"bufferView":5,
			"componentType":5126,
			"count":170,
			"type":"VEC4"
		},
		{
			"bufferView":6,
			"componentType":5123,
			"count":936,
			"type":"SCALAR"
		},
		{
			"bufferView":7,
			"componentType":5126,
			"count":1,
			"type":"MAT4"
		},
		{
			"bufferView":8,
			"componentType":5126,
			"count":526,
			"max":[
				0.4485176205635071,
				0.7972240447998047,
				0.3573054373264313
			],
			"min":[
				-0.4026710093021393,
				-0.1311040222644806,
				-0.3791778087615967
			],
			"type":"VEC3"
		},
		{
			"bufferView":9,
			"componentType":5126,
			"count":526,
			"type":"VEC3"
		},
		{
			"bufferView":10,
			"componentType":5126,
			"count":526,
			"type":"VEC2"
		},
		{
			"bufferView":11,
			"componentType":5126,
			"count":526,
			"type":"VEC4"
		},
		{
			"bufferView":12,
			"componentType":5121,
			"count":526,
			"type":"VEC4"
		},
		{
			"bufferView":13,
			"componentType":5126,
			"count":526,
			"type":"VEC4"
		},
		{
			"bufferView":14,
			"componentType":5123,
			"count":2904,
			"type":"SCALAR"
		},
		{
			"bufferView":15,
			"componentType":5126,
			"count":1,
			"type":"MAT4"
		},
		{
			"bufferView":16,
			"componentType":5126,
			"count":29,
			"max":[
				1.1666666666666667
			],
			"min":[
				0
			],
			"type":"SCALAR"
		},
		{
			"bufferView":17,
			"componentType":5126,
			"count":29,
			"type":"VEC3"
		},
		{
			"bufferView":18,
			"componentType":5126,
			"count":2,
			"max":[
				1.1666666666666667
			],
			"min":[
				0
			],
			"type":"SCALAR"
		},
		{
			"bufferView":19,
			"componentType":5126,
			"count":2,
			"type":"VEC4"
		},
		{
			"bufferView":20,
			"componentType":5126,
			"count":29,
			"type":"VEC3"
		},
		{
			"bufferView":21,
			"componentType":5126,
			"count":29,
			"type":"VEC3"
		},
		{
			"bufferView":22,
			"componentType":5126,
			"count":2,
			"type":"VEC4"
		},
		{
			"bufferView":23,
			"componentType":5126,
			"count":29,
			"type":"VEC3"
		}
	],
	"bufferViews":[
		{
			"buffer":0,
			"byteLength":2040,
			"byteOffset":0,
			"target":34962
		},
		{
			"buffer":0,
			"byteLength":2040,
			"byteOffset":2040,
			"target":34962
		},
		{
			"buffer":0,
			"byteLength":1360,
			"byteOffset":4080,
			"target":34962
		},
		{
			"buffer":0,
			"byteLength":2720,
			"byteOffset":5440,
			"target":34962
		},
		{
			"buffer":0,
			"byteLength":680,
			"byteOffset":8160,
			"target":34962
		},
		{
			"buffer":0,
			"byteLength":2720,
			"byteOffset":8840,
			"target":34962
		},
		{
			"buffer":0,
			"byteLength":1872,
			"byteOffset":11560,
			"target":34963
		},
		{
			"buffer":0,
			"byteLength":64,
			"byteOffset":13432
		},
		{
			"buffer":0,
			"byteLength":6312,
			"byteOffset":13496,
			"target":34962
		},
		{
			"buffer":0,
			"byteLength":6312,
			"byteOffset":19808,
			"target":34962
		},
		{
			"buffer":0,
			"byteLength":4208,
			"byteOffset":26120,
			"target":34962
		},
		{
			"buffer":0,
			"byteLength":8416,
			"byteOffset":30328,
			"target":34962
		},
		{
			"buffer":0,
			"byteLength":2104,
			"byteOffset":38744,
			"target":34962
		},
		{
			"buffer":0,
			"byteLength":8416,
			"byteOffset":40848,
			"target":34962
		},
		{
			"buffer":0,
			"byteLength":5808,
			"byteOffset":49264,
			"target":34963
		},
		{
			"buffer":0,
			"byteLength":64,
			"byteOffset":55072
		},
		{
			"buffer":0,
			"byteLength":116,
			"byteOffset":55136
		},
		{
			"buffer":0,
			"byteLength":348,
			"byteOffset":55252
		},
		{
			"buffer":0,
			"byteLength":8,
			"byteOffset":55600
		},
		{
			"buffer":0,
			"byteLength":32,
			"byteOffset":55608
		},
		{
			"buffer":0,
			"byteLength":348,
			"byteOffset":55640
		},
		{
			"buffer":0,
			"byteLength":348,
			"byteOffset":55988
		},
		{
			"buffer":0,
			"byteLength":32,
			"byteOffset":56336
		},
		{
			"buffer":0,
			"byteLength":348,
			"byteOffset":56368
		}
	],
	"samplers":[
		{
			"magFilter":9729,
			"minFilter":9987
		}
	],
	"buffers":[
		{
			"byteLength":56716,
			"uri":"Bomb_animation_single.bin"
		}
	]
}
