{
	"asset":{
		"generator":"Khronos glTF Blender I/O v4.2.69",
		"version":"2.0"
	},
	"scene":0,
	"scenes":[
		{
			"name":"Scene",
			"nodes":[
				0,
				1
			]
		}
	],
	"nodes":[
		{
			"mesh":0,
			"name":"Leg_right_slowVFX"
		},
		{
			"mesh":1,
			"name":"Leg_left_slowVFX",
			"rotation":[
				0.7071068286895752,
				0,
				0,
				0.7071068286895752
			],
			"scale":[
				0.012999999336898327,
				0.012999999336898327,
				0.012999999336898327
			],
			"translation":[
				0.00020717889128718525,
				0.0034124432131648064,
				5.8417226682649925e-05
			]
		}
	],
	"materials":[
		{
			"alphaMode":"BLEND",
			"doubleSided":true,
			"emissiveFactor":[
				1,
				1,
				1
			],
			"emissiveTexture":{
				"index":0
			},
			"name":"standardSurface4.001",
			"pbrMetallicRoughness":{
				"baseColorTexture":{
					"index":1
				},
				"metallicFactor":0,
				"roughnessFactor":0.5527864098548889
			}
		}
	],
	"meshes":[
		{
			"name":"Mesh.003",
			"primitives":[
				{
					"attributes":{
						"POSITION":0,
						"NORMAL":1,
						"TEXCOORD_0":2
					},
					"indices":3,
					"material":0
				}
			]
		},
		{
			"name":"Mesh.004",
			"primitives":[
				{
					"attributes":{
						"POSITION":4,
						"NORMAL":5,
						"TEXCOORD_0":6
					},
					"indices":7,
					"material":0
				}
			]
		}
	],
	"textures":[
		{
			"sampler":0,
			"source":0
		},
		{
			"sampler":0,
			"source":1
		}
	],
	"images":[
		{
			"mimeType":"image/png",
			"name":"slow_boots_emission",
			"uri":"slow_boots_emission.png"
		},
		{
			"mimeType":"image/png",
			"name":"slow_boots",
			"uri":"slow_boots.png"
		}
	],
	"accessors":[
		{
			"bufferView":0,
			"componentType":5126,
			"count":125,
			"max":[
				0.43985652923583984,
				0.18776363134384155,
				0.2594773769378662
			],
			"min":[
				0.2368287593126297,
				-0.011360921896994114,
				-0.15142449736595154
			],
			"type":"VEC3"
		},
		{
			"bufferView":1,
			"componentType":5126,
			"count":125,
			"type":"VEC3"
		},
		{
			"bufferView":2,
			"componentType":5126,
			"count":125,
			"type":"VEC2"
		},
		{
			"bufferView":3,
			"componentType":5123,
			"count":498,
			"type":"SCALAR"
		},
		{
			"bufferView":4,
			"componentType":5126,
			"count":125,
			"max":[
				-18.201513290405273,
				19.955244064331055,
				1.1360931396484375
			],
			"min":[
				-33.819034576416016,
				-11.652593612670898,
				-14.181182861328125
			],
			"type":"VEC3"
		},
		{
			"bufferView":5,
			"componentType":5126,
			"count":125,
			"type":"VEC3"
		},
		{
			"bufferView":6,
			"componentType":5126,
			"count":125,
			"type":"VEC2"
		},
		{
			"bufferView":7,
			"componentType":5123,
			"count":498,
			"type":"SCALAR"
		}
	],
	"bufferViews":[
		{
			"buffer":0,
			"byteLength":1500,
			"byteOffset":0,
			"target":34962
		},
		{
			"buffer":0,
			"byteLength":1500,
			"byteOffset":1500,
			"target":34962
		},
		{
			"buffer":0,
			"byteLength":1000,
			"byteOffset":3000,
			"target":34962
		},
		{
			"buffer":0,
			"byteLength":996,
			"byteOffset":4000,
			"target":34963
		},
		{
			"buffer":0,
			"byteLength":1500,
			"byteOffset":4996,
			"target":34962
		},
		{
			"buffer":0,
			"byteLength":1500,
			"byteOffset":6496,
			"target":34962
		},
		{
			"buffer":0,
			"byteLength":1000,
			"byteOffset":7996,
			"target":34962
		},
		{
			"buffer":0,
			"byteLength":996,
			"byteOffset":8996,
			"target":34963
		}
	],
	"samplers":[
		{
			"magFilter":9729,
			"minFilter":9987
		}
	],
	"buffers":[
		{
			"byteLength":9992,
			"uri":"boots_slow.bin"
		}
	]
}
