{
	"asset":{
		"generator":"Khronos glTF Blender I/O v4.2.69",
		"version":"2.0"
	},
	"scene":0,
	"scenes":[
		{
			"name":"Scene",
			"nodes":[
				0,
				1,
				2,
				3,
				4,
				5,
				6
			]
		}
	],
	"nodes":[
		{
			"mesh":0,
			"name":"Plane.037",
			"scale":[
				0.8999999761581421,
				0.8999999761581421,
				0.8999999761581421
			]
		},
		{
			"mesh":1,
			"name":"VFX_Water_Light"
		},
		{
			"mesh":2,
			"name":"Circle.003",
			"rotation":[
				0,
				0.9832600355148315,
				0,
				0.1822080761194229
			]
		},
		{
			"mesh":3,
			"name":"Circle.021"
		},
		{
			"mesh":4,
			"name":"Circle.023",
			"rotation":[
				0,
				-0.8293893337249756,
				0,
				0.5586710572242737
			]
		},
		{
			"mesh":5,
			"name":"Circle.027",
			"rotation":[
				0,
				-1,
				0,
				7.549790126404332e-08
			],
			"scale":[
				1.2699685096740723,
				1.2699685096740723,
				1.2699685096740723
			]
		},
		{
			"mesh":6,
			"name":"EN_Arena_Floor_Plane2-water.010"
		}
	],
	"materials":[
		{
			"doubleSided":true,
			"name":"M_Boss_Arena",
			"normalTexture":{
				"index":0
			},
			"pbrMetallicRoughness":{
				"baseColorTexture":{
					"index":1
				},
				"metallicFactor":0
			}
		},
		{
			"alphaMode":"BLEND",
			"doubleSided":true,
			"emissiveTexture":{
				"index":2
			},
			"name":"m_Water_light",
			"pbrMetallicRoughness":{
				"baseColorTexture":{
					"index":3
				},
				"metallicFactor":0,
				"roughnessFactor":0.5
			}
		},
		{
			"alphaMode":"BLEND",
			"doubleSided":true,
			"emissiveTexture":{
				"index":4
			},
			"name":"Ripple",
			"pbrMetallicRoughness":{
				"baseColorTexture":{
					"index":5
				},
				"metallicFactor":0,
				"roughnessFactor":0.5
			}
		}
	],
	"meshes":[
		{
			"name":"Plane.069",
			"primitives":[
				{
					"attributes":{
						"POSITION":0,
						"NORMAL":1,
						"TEXCOORD_0":2,
						"TANGENT":3
					},
					"indices":4,
					"material":0
				}
			]
		},
		{
			"name":"Cylinder",
			"primitives":[
				{
					"attributes":{
						"POSITION":5,
						"NORMAL":6,
						"TEXCOORD_0":7,
						"TANGENT":8
					},
					"indices":9,
					"material":1
				}
			]
		},
		{
			"name":"Circle.005",
			"primitives":[
				{
					"attributes":{
						"POSITION":10,
						"NORMAL":11,
						"TEXCOORD_0":12,
						"TANGENT":13
					},
					"indices":14,
					"material":2
				}
			]
		},
		{
			"name":"Circle.021",
			"primitives":[
				{
					"attributes":{
						"POSITION":15,
						"NORMAL":16,
						"TEXCOORD_0":17,
						"TANGENT":18
					},
					"indices":19,
					"material":2
				}
			]
		},
		{
			"name":"Circle.023",
			"primitives":[
				{
					"attributes":{
						"POSITION":20,
						"NORMAL":21,
						"TEXCOORD_0":22,
						"TANGENT":23
					},
					"indices":24,
					"material":2
				}
			]
		},
		{
			"name":"Circle.027",
			"primitives":[
				{
					"attributes":{
						"POSITION":25,
						"NORMAL":26,
						"TEXCOORD_0":27,
						"TANGENT":28
					},
					"indices":29,
					"material":2
				}
			]
		},
		{
			"name":"Plane.077",
			"primitives":[
				{
					"attributes":{
						"POSITION":30,
						"NORMAL":31,
						"TEXCOORD_0":32,
						"TANGENT":33
					},
					"indices":34,
					"material":0
				}
			]
		}
	],
	"textures":[
		{
			"sampler":0,
			"source":0
		},
		{
			"sampler":0,
			"source":1
		},
		{
			"sampler":0,
			"source":2
		},
		{
			"sampler":0,
			"source":3
		},
		{
			"sampler":0,
			"source":4
		},
		{
			"sampler":0,
			"source":5
		}
	],
	"images":[
		{
			"mimeType":"image/png",
			"name":"Floor_Plane_LP_DefaultMaterial_Normal",
			"uri":"Floor_Plane_LP_DefaultMaterial_Normal.png"
		},
		{
			"mimeType":"image/png",
			"name":"color-testing-second_version",
			"uri":"color-testing-second_version.png"
		},
		{
			"mimeType":"image/png",
			"name":"waterlight2",
			"uri":"waterlight2.png"
		},
		{
			"mimeType":"image/png",
			"name":"waterlight2-waterlight",
			"uri":"waterlight2-waterlight.png"
		},
		{
			"mimeType":"image/png",
			"name":"ripple-emiss",
			"uri":"ripple-emiss.png"
		},
		{
			"mimeType":"image/png",
			"name":"ripple222",
			"uri":"ripple222.png"
		}
	],
	"accessors":[
		{
			"bufferView":0,
			"componentType":5126,
			"count":1978,
			"max":[
				18.004531860351562,
				0.4674692153930664,
				19.288875579833984
			],
			"min":[
				-17.2713623046875,
				-0.7411257028579712,
				-18.44620704650879
			],
			"type":"VEC3"
		},
		{
			"bufferView":1,
			"componentType":5126,
			"count":1978,
			"type":"VEC3"
		},
		{
			"bufferView":2,
			"componentType":5126,
			"count":1978,
			"type":"VEC2"
		},
		{
			"bufferView":3,
			"componentType":5126,
			"count":1978,
			"type":"VEC4"
		},
		{
			"bufferView":4,
			"componentType":5123,
			"count":4758,
			"type":"SCALAR"
		},
		{
			"bufferView":5,
			"componentType":5126,
			"count":56,
			"max":[
				25.926658630371094,
				5.9781813621521,
				27.710254669189453
			],
			"min":[
				-25.112489700317383,
				0.682960033416748,
				-21.38633155822754
			],
			"type":"VEC3"
		},
		{
			"bufferView":6,
			"componentType":5126,
			"count":56,
			"type":"VEC3"
		},
		{
			"bufferView":7,
			"componentType":5126,
			"count":56,
			"type":"VEC2"
		},
		{
			"bufferView":8,
			"componentType":5126,
			"count":56,
			"type":"VEC4"
		},
		{
			"bufferView":9,
			"componentType":5123,
			"count":162,
			"type":"SCALAR"
		},
		{
			"bufferView":10,
			"componentType":5126,
			"count":131,
			"max":[
				0.953715443611145,
				0,
				1.3993560075759888
			],
			"min":[
				-0.699543833732605,
				0,
				-0.933008074760437
			],
			"type":"VEC3"
		},
		{
			"bufferView":11,
			"componentType":5126,
			"count":131,
			"type":"VEC3"
		},
		{
			"bufferView":12,
			"componentType":5126,
			"count":131,
			"type":"VEC2"
		},
		{
			"bufferView":13,
			"componentType":5126,
			"count":131,
			"type":"VEC4"
		},
		{
			"bufferView":14,
			"componentType":5123,
			"count":408,
			"type":"SCALAR"
		},
		{
			"bufferView":15,
			"componentType":5126,
			"count":149,
			"max":[
				1.0492467880249023,
				0,
				1.5302560329437256
			],
			"min":[
				-1.02677321434021,
				0,
				-1.4957175254821777
			],
			"type":"VEC3"
		},
		{
			"bufferView":16,
			"componentType":5126,
			"count":149,
			"type":"VEC3"
		},
		{
			"bufferView":17,
			"componentType":5126,
			"count":149,
			"type":"VEC2"
		},
		{
			"bufferView":18,
			"componentType":5126,
			"count":149,
			"type":"VEC4"
		},
		{
			"bufferView":19,
			"componentType":5123,
			"count":420,
			"type":"SCALAR"
		},
		{
			"bufferView":20,
			"componentType":5126,
			"count":125,
			"max":[
				0.9121651649475098,
				0,
				1.0956836938858032
			],
			"min":[
				-0.8890199661254883,
				0,
				-1.0347204208374023
			],
			"type":"VEC3"
		},
		{
			"bufferView":21,
			"componentType":5126,
			"count":125,
			"type":"VEC3"
		},
		{
			"bufferView":22,
			"componentType":5126,
			"count":125,
			"type":"VEC2"
		},
		{
			"bufferView":23,
			"componentType":5126,
			"count":125,
			"type":"VEC4"
		},
		{
			"bufferView":24,
			"componentType":5123,
			"count":408,
			"type":"SCALAR"
		},
		{
			"bufferView":25,
			"componentType":5126,
			"count":60,
			"max":[
				0.7294520735740662,
				0,
				0.7375577688217163
			],
			"min":[
				-0.7416538596153259,
				0,
				-0.7335481643676758
			],
			"type":"VEC3"
		},
		{
			"bufferView":26,
			"componentType":5126,
			"count":60,
			"type":"VEC3"
		},
		{
			"bufferView":27,
			"componentType":5126,
			"count":60,
			"type":"VEC2"
		},
		{
			"bufferView":28,
			"componentType":5126,
			"count":60,
			"type":"VEC4"
		},
		{
			"bufferView":29,
			"componentType":5123,
			"count":144,
			"type":"SCALAR"
		},
		{
			"bufferView":30,
			"componentType":5126,
			"count":218,
			"max":[
				23.993331909179688,
				0.08472728729248047,
				29.140869140625
			],
			"min":[
				-16.6090087890625,
				-0.0712125301361084,
				-24.885534286499023
			],
			"type":"VEC3"
		},
		{
			"bufferView":31,
			"componentType":5126,
			"count":218,
			"type":"VEC3"
		},
		{
			"bufferView":32,
			"componentType":5126,
			"count":218,
			"type":"VEC2"
		},
		{
			"bufferView":33,
			"componentType":5126,
			"count":218,
			"type":"VEC4"
		},
		{
			"bufferView":34,
			"componentType":5123,
			"count":465,
			"type":"SCALAR"
		}
	],
	"bufferViews":[
		{
			"buffer":0,
			"byteLength":23736,
			"byteOffset":0,
			"target":34962
		},
		{
			"buffer":0,
			"byteLength":23736,
			"byteOffset":23736,
			"target":34962
		},
		{
			"buffer":0,
			"byteLength":15824,
			"byteOffset":47472,
			"target":34962
		},
		{
			"buffer":0,
			"byteLength":31648,
			"byteOffset":63296,
			"target":34962
		},
		{
			"buffer":0,
			"byteLength":9516,
			"byteOffset":94944,
			"target":34963
		},
		{
			"buffer":0,
			"byteLength":672,
			"byteOffset":104460,
			"target":34962
		},
		{
			"buffer":0,
			"byteLength":672,
			"byteOffset":105132,
			"target":34962
		},
		{
			"buffer":0,
			"byteLength":448,
			"byteOffset":105804,
			"target":34962
		},
		{
			"buffer":0,
			"byteLength":896,
			"byteOffset":106252,
			"target":34962
		},
		{
			"buffer":0,
			"byteLength":324,
			"byteOffset":107148,
			"target":34963
		},
		{
			"buffer":0,
			"byteLength":1572,
			"byteOffset":107472,
			"target":34962
		},
		{
			"buffer":0,
			"byteLength":1572,
			"byteOffset":109044,
			"target":34962
		},
		{
			"buffer":0,
			"byteLength":1048,
			"byteOffset":110616,
			"target":34962
		},
		{
			"buffer":0,
			"byteLength":2096,
			"byteOffset":111664,
			"target":34962
		},
		{
			"buffer":0,
			"byteLength":816,
			"byteOffset":113760,
			"target":34963
		},
		{
			"buffer":0,
			"byteLength":1788,
			"byteOffset":114576,
			"target":34962
		},
		{
			"buffer":0,
			"byteLength":1788,
			"byteOffset":116364,
			"target":34962
		},
		{
			"buffer":0,
			"byteLength":1192,
			"byteOffset":118152,
			"target":34962
		},
		{
			"buffer":0,
			"byteLength":2384,
			"byteOffset":119344,
			"target":34962
		},
		{
			"buffer":0,
			"byteLength":840,
			"byteOffset":121728,
			"target":34963
		},
		{
			"buffer":0,
			"byteLength":1500,
			"byteOffset":122568,
			"target":34962
		},
		{
			"buffer":0,
			"byteLength":1500,
			"byteOffset":124068,
			"target":34962
		},
		{
			"buffer":0,
			"byteLength":1000,
			"byteOffset":125568,
			"target":34962
		},
		{
			"buffer":0,
			"byteLength":2000,
			"byteOffset":126568,
			"target":34962
		},
		{
			"buffer":0,
			"byteLength":816,
			"byteOffset":128568,
			"target":34963
		},
		{
			"buffer":0,
			"byteLength":720,
			"byteOffset":129384,
			"target":34962
		},
		{
			"buffer":0,
			"byteLength":720,
			"byteOffset":130104,
			"target":34962
		},
		{
			"buffer":0,
			"byteLength":480,
			"byteOffset":130824,
			"target":34962
		},
		{
			"buffer":0,
			"byteLength":960,
			"byteOffset":131304,
			"target":34962
		},
		{
			"buffer":0,
			"byteLength":288,
			"byteOffset":132264,
			"target":34963
		},
		{
			"buffer":0,
			"byteLength":2616,
			"byteOffset":132552,
			"target":34962
		},
		{
			"buffer":0,
			"byteLength":2616,
			"byteOffset":135168,
			"target":34962
		},
		{
			"buffer":0,
			"byteLength":1744,
			"byteOffset":137784,
			"target":34962
		},
		{
			"buffer":0,
			"byteLength":3488,
			"byteOffset":139528,
			"target":34962
		},
		{
			"buffer":0,
			"byteLength":930,
			"byteOffset":143016,
			"target":34963
		}
	],
	"samplers":[
		{
			"magFilter":9729,
			"minFilter":9987
		}
	],
	"buffers":[
		{
			"byteLength":143948,
			"uri":"Boss_Florr%2Blight.bin"
		}
	]
}
