{
	"asset":{
		"generator":"Khronos glTF Blender I/O v4.2.57",
		"version":"2.0"
	},
	"scene":0,
	"scenes":[
		{
			"name":"Scene",
			"nodes":[
				9
			]
		}
	],
	"nodes":[
		{
			"name":"joint3",
			"rotation":[
				-2.234183864863594e-16,
				0.993841290473938,
				-1.5801489416521382e-14,
				0.11081297695636749
			],
			"translation":[
				1.0236461162567139,
				-0.5282207727432251,
				9.342780771248727e-08
			]
		},
		{
			"children":[
				0
			],
			"name":"joint2",
			"rotation":[
				4.445824477231606e-16,
				0.010202588513493538,
				-7.922183112155697e-15,
				0.9999479651451111
			],
			"translation":[
				0,
				1.4627840518951416,
				2.220446049250313e-16
			]
		},
		{
			"name":"joint5",
			"rotation":[
				-7.122428473522698e-16,
				-0.6980385780334473,
				9.690378689847479e-18,
				0.716060221195221
			],
			"scale":[
				0.9999999403953552,
				1,
				0.9999999403953552
			],
			"translation":[
				-1.03134286403656,
				0.16155003011226654,
				1.352784514427185
			]
		},
		{
			"name":"joint7",
			"rotation":[
				4.940724123093021e-16,
				-0.6831234693527222,
				-9.121336761187793e-16,
				0.7303029298782349
			],
			"scale":[
				0.9999999403953552,
				1,
				0.9999999403953552
			],
			"translation":[
				1.1281567811965942,
				0.16154992580413818,
				1.30574631690979
			]
		},
		{
			"name":"joint9",
			"rotation":[
				7.460498381013203e-16,
				0.7138399481773376,
				2.154310140245171e-15,
				0.7003089189529419
			],
			"scale":[
				0.9999999403953552,
				1,
				0.9999999403953552
			],
			"translation":[
				-1.0854629278182983,
				0.16155016422271729,
				-1.2990999221801758
			]
		},
		{
			"name":"joint11",
			"rotation":[
				-7.73212702412108e-17,
				0.7179286479949951,
				4.349321484155332e-16,
				0.6961167454719543
			],
			"scale":[
				0.9999999403953552,
				0.9999999403953552,
				0.9999999403953552
			],
			"translation":[
				1.0749415159225464,
				0.16155004501342773,
				-1.3385745286941528
			]
		},
		{
			"name":"joint13",
			"rotation":[
				2.2244914256668404e-16,
				-0.06027975305914879,
				1.3346949083396635e-15,
				0.9981815218925476
			],
			"scale":[
				0.9999999403953552,
				1,
				0.9999999403953552
			],
			"translation":[
				2.1281023025512695,
				0.7767298221588135,
				-0.057345736771821976
			]
		},
		{
			"children":[
				1,
				2,
				3,
				4,
				5,
				6
			],
			"name":"joint1",
			"rotation":[
				4.2311313563914155e-08,
				0.6998557448387146,
				2.8810671182100123e-08,
				0.7142841815948486
			]
		},
		{
			"mesh":0,
			"name":"PR_Catapult",
			"skin":0
		},
		{
			"children":[
				8,
				7
			],
			"name":"Catapult_AN"
		}
	],
	"animations":[
		{
			"channels":[
				{
					"sampler":0,
					"target":{
						"node":7,
						"path":"translation"
					}
				},
				{
					"sampler":1,
					"target":{
						"node":7,
						"path":"rotation"
					}
				},
				{
					"sampler":2,
					"target":{
						"node":7,
						"path":"scale"
					}
				},
				{
					"sampler":3,
					"target":{
						"node":1,
						"path":"translation"
					}
				},
				{
					"sampler":4,
					"target":{
						"node":1,
						"path":"rotation"
					}
				},
				{
					"sampler":5,
					"target":{
						"node":1,
						"path":"scale"
					}
				},
				{
					"sampler":6,
					"target":{
						"node":0,
						"path":"translation"
					}
				},
				{
					"sampler":7,
					"target":{
						"node":0,
						"path":"rotation"
					}
				},
				{
					"sampler":8,
					"target":{
						"node":0,
						"path":"scale"
					}
				},
				{
					"sampler":9,
					"target":{
						"node":2,
						"path":"translation"
					}
				},
				{
					"sampler":10,
					"target":{
						"node":2,
						"path":"rotation"
					}
				},
				{
					"sampler":11,
					"target":{
						"node":2,
						"path":"scale"
					}
				},
				{
					"sampler":12,
					"target":{
						"node":3,
						"path":"translation"
					}
				},
				{
					"sampler":13,
					"target":{
						"node":3,
						"path":"rotation"
					}
				},
				{
					"sampler":14,
					"target":{
						"node":3,
						"path":"scale"
					}
				},
				{
					"sampler":15,
					"target":{
						"node":4,
						"path":"translation"
					}
				},
				{
					"sampler":16,
					"target":{
						"node":4,
						"path":"rotation"
					}
				},
				{
					"sampler":17,
					"target":{
						"node":4,
						"path":"scale"
					}
				},
				{
					"sampler":18,
					"target":{
						"node":5,
						"path":"translation"
					}
				},
				{
					"sampler":19,
					"target":{
						"node":5,
						"path":"rotation"
					}
				},
				{
					"sampler":20,
					"target":{
						"node":5,
						"path":"scale"
					}
				},
				{
					"sampler":21,
					"target":{
						"node":6,
						"path":"translation"
					}
				},
				{
					"sampler":22,
					"target":{
						"node":6,
						"path":"rotation"
					}
				},
				{
					"sampler":23,
					"target":{
						"node":6,
						"path":"scale"
					}
				}
			],
			"name":"Launch",
			"samplers":[
				{
					"input":8,
					"interpolation":"LINEAR",
					"output":9
				},
				{
					"input":10,
					"interpolation":"STEP",
					"output":11
				},
				{
					"input":10,
					"interpolation":"STEP",
					"output":12
				},
				{
					"input":10,
					"interpolation":"LINEAR",
					"output":13
				},
				{
					"input":8,
					"interpolation":"LINEAR",
					"output":14
				},
				{
					"input":10,
					"interpolation":"STEP",
					"output":15
				},
				{
					"input":10,
					"interpolation":"LINEAR",
					"output":16
				},
				{
					"input":10,
					"interpolation":"LINEAR",
					"output":17
				},
				{
					"input":10,
					"interpolation":"STEP",
					"output":18
				},
				{
					"input":8,
					"interpolation":"LINEAR",
					"output":19
				},
				{
					"input":8,
					"interpolation":"LINEAR",
					"output":20
				},
				{
					"input":10,
					"interpolation":"STEP",
					"output":21
				},
				{
					"input":8,
					"interpolation":"LINEAR",
					"output":22
				},
				{
					"input":8,
					"interpolation":"LINEAR",
					"output":23
				},
				{
					"input":10,
					"interpolation":"LINEAR",
					"output":24
				},
				{
					"input":8,
					"interpolation":"LINEAR",
					"output":25
				},
				{
					"input":8,
					"interpolation":"LINEAR",
					"output":26
				},
				{
					"input":10,
					"interpolation":"STEP",
					"output":27
				},
				{
					"input":8,
					"interpolation":"LINEAR",
					"output":28
				},
				{
					"input":8,
					"interpolation":"LINEAR",
					"output":29
				},
				{
					"input":10,
					"interpolation":"STEP",
					"output":30
				},
				{
					"input":8,
					"interpolation":"LINEAR",
					"output":31
				},
				{
					"input":10,
					"interpolation":"STEP",
					"output":32
				},
				{
					"input":10,
					"interpolation":"STEP",
					"output":33
				}
			]
		}
	],
	"materials":[
		{
			"name":"M_Catapult",
			"normalTexture":{
				"index":0
			},
			"pbrMetallicRoughness":{
				"baseColorTexture":{
					"index":1
				},
				"metallicRoughnessTexture":{
					"index":2
				}
			}
		}
	],
	"meshes":[
		{
			"name":"PR_Catapult",
			"primitives":[
				{
					"attributes":{
						"POSITION":0,
						"NORMAL":1,
						"TEXCOORD_0":2,
						"TANGENT":3,
						"JOINTS_0":4,
						"WEIGHTS_0":5
					},
					"indices":6,
					"material":0
				}
			]
		}
	],
	"textures":[
		{
			"sampler":0,
			"source":0
		},
		{
			"sampler":0,
			"source":1
		},
		{
			"sampler":0,
			"source":2
		}
	],
	"images":[
		{
			"mimeType":"image/png",
			"name":"T_PR_Catapult_Normal",
			"uri":"T_PR_Catapult_Normal.png"
		},
		{
			"mimeType":"image/png",
			"name":"T_PR_Catapult_BaseColor",
			"uri":"T_PR_Catapult_BaseColor.png"
		},
		{
			"mimeType":"image/png",
			"name":"T_PR_Catapult_OcclusionRoughnessMetallic",
			"uri":"T_PR_Catapult_OcclusionRoughnessMetallic.png"
		}
	],
	"skins":[
		{
			"inverseBindMatrices":7,
			"joints":[
				7,
				1,
				0,
				2,
				3,
				4,
				5,
				6
			],
			"name":"Catapult_AN"
		}
	],
	"accessors":[
		{
			"bufferView":0,
			"componentType":5126,
			"count":2753,
			"max":[
				1.7100801467895508,
				2.235065460205078,
				2.24892520904541
			],
			"min":[
				-1.7291311025619507,
				-0.3481147885322571,
				-2.606048345565796
			],
			"type":"VEC3"
		},
		{
			"bufferView":1,
			"componentType":5126,
			"count":2753,
			"type":"VEC3"
		},
		{
			"bufferView":2,
			"componentType":5126,
			"count":2753,
			"type":"VEC2"
		},
		{
			"bufferView":3,
			"componentType":5126,
			"count":2753,
			"type":"VEC4"
		},
		{
			"bufferView":4,
			"componentType":5121,
			"count":2753,
			"type":"VEC4"
		},
		{
			"bufferView":5,
			"componentType":5126,
			"count":2753,
			"type":"VEC4"
		},
		{
			"bufferView":6,
			"componentType":5123,
			"count":8646,
			"type":"SCALAR"
		},
		{
			"bufferView":7,
			"componentType":5126,
			"count":8,
			"type":"MAT4"
		},
		{
			"bufferView":8,
			"componentType":5126,
			"count":58,
			"max":[
				2.375
			],
			"min":[
				0
			],
			"type":"SCALAR"
		},
		{
			"bufferView":9,
			"componentType":5126,
			"count":58,
			"type":"VEC3"
		},
		{
			"bufferView":10,
			"componentType":5126,
			"count":2,
			"max":[
				2.375
			],
			"min":[
				0
			],
			"type":"SCALAR"
		},
		{
			"bufferView":11,
			"componentType":5126,
			"count":2,
			"type":"VEC4"
		},
		{
			"bufferView":12,
			"componentType":5126,
			"count":2,
			"type":"VEC3"
		},
		{
			"bufferView":13,
			"componentType":5126,
			"count":2,
			"type":"VEC3"
		},
		{
			"bufferView":14,
			"componentType":5126,
			"count":58,
			"type":"VEC4"
		},
		{
			"bufferView":15,
			"componentType":5126,
			"count":2,
			"type":"VEC3"
		},
		{
			"bufferView":16,
			"componentType":5126,
			"count":2,
			"type":"VEC3"
		},
		{
			"bufferView":17,
			"componentType":5126,
			"count":2,
			"type":"VEC4"
		},
		{
			"bufferView":18,
			"componentType":5126,
			"count":2,
			"type":"VEC3"
		},
		{
			"bufferView":19,
			"componentType":5126,
			"count":58,
			"type":"VEC3"
		},
		{
			"bufferView":20,
			"componentType":5126,
			"count":58,
			"type":"VEC4"
		},
		{
			"bufferView":21,
			"componentType":5126,
			"count":2,
			"type":"VEC3"
		},
		{
			"bufferView":22,
			"componentType":5126,
			"count":58,
			"type":"VEC3"
		},
		{
			"bufferView":23,
			"componentType":5126,
			"count":58,
			"type":"VEC4"
		},
		{
			"bufferView":24,
			"componentType":5126,
			"count":2,
			"type":"VEC3"
		},
		{
			"bufferView":25,
			"componentType":5126,
			"count":58,
			"type":"VEC3"
		},
		{
			"bufferView":26,
			"componentType":5126,
			"count":58,
			"type":"VEC4"
		},
		{
			"bufferView":27,
			"componentType":5126,
			"count":2,
			"type":"VEC3"
		},
		{
			"bufferView":28,
			"componentType":5126,
			"count":58,
			"type":"VEC3"
		},
		{
			"bufferView":29,
			"componentType":5126,
			"count":58,
			"type":"VEC4"
		},
		{
			"bufferView":30,
			"componentType":5126,
			"count":2,
			"type":"VEC3"
		},
		{
			"bufferView":31,
			"componentType":5126,
			"count":58,
			"type":"VEC3"
		},
		{
			"bufferView":32,
			"componentType":5126,
			"count":2,
			"type":"VEC4"
		},
		{
			"bufferView":33,
			"componentType":5126,
			"count":2,
			"type":"VEC3"
		}
	],
	"bufferViews":[
		{
			"buffer":0,
			"byteLength":33036,
			"byteOffset":0,
			"target":34962
		},
		{
			"buffer":0,
			"byteLength":33036,
			"byteOffset":33036,
			"target":34962
		},
		{
			"buffer":0,
			"byteLength":22024,
			"byteOffset":66072,
			"target":34962
		},
		{
			"buffer":0,
			"byteLength":44048,
			"byteOffset":88096,
			"target":34962
		},
		{
			"buffer":0,
			"byteLength":11012,
			"byteOffset":132144,
			"target":34962
		},
		{
			"buffer":0,
			"byteLength":44048,
			"byteOffset":143156,
			"target":34962
		},
		{
			"buffer":0,
			"byteLength":17292,
			"byteOffset":187204,
			"target":34963
		},
		{
			"buffer":0,
			"byteLength":512,
			"byteOffset":204496
		},
		{
			"buffer":0,
			"byteLength":232,
			"byteOffset":205008
		},
		{
			"buffer":0,
			"byteLength":696,
			"byteOffset":205240
		},
		{
			"buffer":0,
			"byteLength":8,
			"byteOffset":205936
		},
		{
			"buffer":0,
			"byteLength":32,
			"byteOffset":205944
		},
		{
			"buffer":0,
			"byteLength":24,
			"byteOffset":205976
		},
		{
			"buffer":0,
			"byteLength":24,
			"byteOffset":206000
		},
		{
			"buffer":0,
			"byteLength":928,
			"byteOffset":206024
		},
		{
			"buffer":0,
			"byteLength":24,
			"byteOffset":206952
		},
		{
			"buffer":0,
			"byteLength":24,
			"byteOffset":206976
		},
		{
			"buffer":0,
			"byteLength":32,
			"byteOffset":207000
		},
		{
			"buffer":0,
			"byteLength":24,
			"byteOffset":207032
		},
		{
			"buffer":0,
			"byteLength":696,
			"byteOffset":207056
		},
		{
			"buffer":0,
			"byteLength":928,
			"byteOffset":207752
		},
		{
			"buffer":0,
			"byteLength":24,
			"byteOffset":208680
		},
		{
			"buffer":0,
			"byteLength":696,
			"byteOffset":208704
		},
		{
			"buffer":0,
			"byteLength":928,
			"byteOffset":209400
		},
		{
			"buffer":0,
			"byteLength":24,
			"byteOffset":210328
		},
		{
			"buffer":0,
			"byteLength":696,
			"byteOffset":210352
		},
		{
			"buffer":0,
			"byteLength":928,
			"byteOffset":211048
		},
		{
			"buffer":0,
			"byteLength":24,
			"byteOffset":211976
		},
		{
			"buffer":0,
			"byteLength":696,
			"byteOffset":212000
		},
		{
			"buffer":0,
			"byteLength":928,
			"byteOffset":212696
		},
		{
			"buffer":0,
			"byteLength":24,
			"byteOffset":213624
		},
		{
			"buffer":0,
			"byteLength":696,
			"byteOffset":213648
		},
		{
			"buffer":0,
			"byteLength":32,
			"byteOffset":214344
		},
		{
			"buffer":0,
			"byteLength":24,
			"byteOffset":214376
		}
	],
	"samplers":[
		{
			"magFilter":9729,
			"minFilter":9987
		}
	],
	"buffers":[
		{
			"byteLength":214400,
			"uri":"Catapult_AN.bin"
		}
	]
}
