{
	"asset":{
		"generator":"Khronos glTF Blender I/O v4.2.69",
		"version":"2.0"
	},
	"scene":0,
	"scenes":[
		{
			"name":"Scene",
			"nodes":[
				0
			]
		}
	],
	"nodes":[
		{
			"mesh":0,
			"name":"Pooka_body",
			"translation":[
				0,
				0,
				-0.048323873430490494
			]
		}
	],
	"materials":[
		{
			"doubleSided":true,
			"name":"MT_pooka",
			"pbrMetallicRoughness":{
				"baseColorTexture":{
					"index":0
				},
				"metallicFactor":0,
				"roughnessFactor":0.5
			}
		}
	],
	"meshes":[
		{
			"name":"Cube.008",
			"primitives":[
				{
					"attributes":{
						"POSITION":0,
						"NORMAL":1,
						"TEXCOORD_0":2,
						"COLOR_0":3,
						"COLOR_1":4
					},
					"indices":5,
					"material":0
				}
			]
		}
	],
	"textures":[
		{
			"sampler":0,
			"source":0
		}
	],
	"images":[
		{
			"mimeType":"image/png",
			"name":"TX_pooka.png",
			"uri":"TX_pooka_png.png"
		}
	],
	"accessors":[
		{
			"bufferView":0,
			"componentType":5126,
			"count":5491,
			"max":[
				0.28571346402168274,
				0.9612575173377991,
				0.22392313182353973
			],
			"min":[
				-0.2635798156261444,
				-0.008497744798660278,
				-0.10378281027078629
			],
			"type":"VEC3"
		},
		{
			"bufferView":1,
			"componentType":5126,
			"count":5491,
			"type":"VEC3"
		},
		{
			"bufferView":2,
			"componentType":5126,
			"count":5491,
			"type":"VEC2"
		},
		{
			"bufferView":3,
			"componentType":5121,
			"count":5491,
			"normalized":true,
			"type":"VEC4"
		},
		{
			"bufferView":4,
			"componentType":5126,
			"count":5491,
			"type":"VEC3"
		},
		{
			"bufferView":5,
			"componentType":5123,
			"count":21972,
			"type":"SCALAR"
		}
	],
	"bufferViews":[
		{
			"buffer":0,
			"byteLength":65892,
			"byteOffset":0,
			"target":34962
		},
		{
			"buffer":0,
			"byteLength":65892,
			"byteOffset":65892,
			"target":34962
		},
		{
			"buffer":0,
			"byteLength":43928,
			"byteOffset":131784,
			"target":34962
		},
		{
			"buffer":0,
			"byteLength":21964,
			"byteOffset":175712,
			"target":34962
		},
		{
			"buffer":0,
			"byteLength":65892,
			"byteOffset":197676,
			"target":34962
		},
		{
			"buffer":0,
			"byteLength":43944,
			"byteOffset":263568,
			"target":34963
		}
	],
	"samplers":[
		{
			"magFilter":9729,
			"minFilter":9987
		}
	],
	"buffers":[
		{
			"byteLength":307512,
			"uri":"CH_pooka_GLTF.bin"
		}
	]
}
