{
	"asset":{
		"generator":"Khronos glTF Blender I/O v4.2.69",
		"version":"2.0"
	},
	"scene":0,
	"scenes":[
		{
			"name":"Scene",
			"nodes":[
				0,
				1,
				2
			]
		}
	],
	"nodes":[
		{
			"mesh":0,
			"name":"VFX_Pooka_trail_head"
		},
		{
			"mesh":1,
			"name":"VFX_Pooka_trail_end"
		},
		{
			"mesh":2,
			"name":"VFX_Pooka_trail_middle",
			"scale":[
				0.9649999737739563,
				1,
				1
			]
		}
	],
	"materials":[
		{
			"alphaMode":"MASK",
			"doubleSided":true,
			"name":"MT_VFX_pooka_trail",
			"pbrMetallicRoughness":{
				"baseColorTexture":{
					"index":0
				},
				"metallicFactor":0
			}
		}
	],
	"meshes":[
		{
			"name":"Plane",
			"primitives":[
				{
					"attributes":{
						"POSITION":0,
						"NORMAL":1,
						"TEXCOORD_0":2,
						"TANGENT":3
					},
					"indices":4,
					"material":0
				}
			]
		},
		{
			"name":"Plane.002",
			"primitives":[
				{
					"attributes":{
						"POSITION":5,
						"NORMAL":6,
						"TEXCOORD_0":7,
						"TANGENT":8
					},
					"indices":4,
					"material":0
				}
			]
		},
		{
			"name":"Plane.003",
			"primitives":[
				{
					"attributes":{
						"POSITION":9,
						"NORMAL":10,
						"TEXCOORD_0":11,
						"TANGENT":12
					},
					"indices":13,
					"material":0
				}
			]
		}
	],
	"textures":[
		{
			"sampler":0,
			"source":0
		}
	],
	"images":[
		{
			"mimeType":"image/png",
			"name":"TX_Pooka_trail_test",
			"uri":"TX_Pooka_trail_test.png"
		}
	],
	"accessors":[
		{
			"bufferView":0,
			"componentType":5126,
			"count":15,
			"max":[
				0.30478546023368835,
				0.027902895584702492,
				0.20000001788139343
			],
			"min":[
				-0.30536285042762756,
				0.000620158389210701,
				-0.19999998807907104
			],
			"type":"VEC3"
		},
		{
			"bufferView":1,
			"componentType":5126,
			"count":15,
			"type":"VEC3"
		},
		{
			"bufferView":2,
			"componentType":5126,
			"count":15,
			"type":"VEC2"
		},
		{
			"bufferView":3,
			"componentType":5126,
			"count":15,
			"type":"VEC4"
		},
		{
			"bufferView":4,
			"componentType":5123,
			"count":48,
			"type":"SCALAR"
		},
		{
			"bufferView":5,
			"componentType":5126,
			"count":15,
			"max":[
				0.5850684642791748,
				0.027902895584702492,
				0.16395004093647003
			],
			"min":[
				-0.10655760765075684,
				-0.0036481302231550217,
				-0.163950115442276
			],
			"type":"VEC3"
		},
		{
			"bufferView":6,
			"componentType":5126,
			"count":15,
			"type":"VEC3"
		},
		{
			"bufferView":7,
			"componentType":5126,
			"count":15,
			"type":"VEC2"
		},
		{
			"bufferView":8,
			"componentType":5126,
			"count":15,
			"type":"VEC4"
		},
		{
			"bufferView":9,
			"componentType":5126,
			"count":15,
			"max":[
				0.5178666114807129,
				0.027902895584702492,
				0.20000001788139343
			],
			"min":[
				-0.5178666114807129,
				-0.00478186272084713,
				-0.19999998807907104
			],
			"type":"VEC3"
		},
		{
			"bufferView":10,
			"componentType":5126,
			"count":15,
			"type":"VEC3"
		},
		{
			"bufferView":11,
			"componentType":5126,
			"count":15,
			"type":"VEC2"
		},
		{
			"bufferView":12,
			"componentType":5126,
			"count":15,
			"type":"VEC4"
		},
		{
			"bufferView":13,
			"componentType":5123,
			"count":48,
			"type":"SCALAR"
		}
	],
	"bufferViews":[
		{
			"buffer":0,
			"byteLength":180,
			"byteOffset":0,
			"target":34962
		},
		{
			"buffer":0,
			"byteLength":180,
			"byteOffset":180,
			"target":34962
		},
		{
			"buffer":0,
			"byteLength":120,
			"byteOffset":360,
			"target":34962
		},
		{
			"buffer":0,
			"byteLength":240,
			"byteOffset":480,
			"target":34962
		},
		{
			"buffer":0,
			"byteLength":96,
			"byteOffset":720,
			"target":34963
		},
		{
			"buffer":0,
			"byteLength":180,
			"byteOffset":816,
			"target":34962
		},
		{
			"buffer":0,
			"byteLength":180,
			"byteOffset":996,
			"target":34962
		},
		{
			"buffer":0,
			"byteLength":120,
			"byteOffset":1176,
			"target":34962
		},
		{
			"buffer":0,
			"byteLength":240,
			"byteOffset":1296,
			"target":34962
		},
		{
			"buffer":0,
			"byteLength":180,
			"byteOffset":1536,
			"target":34962
		},
		{
			"buffer":0,
			"byteLength":180,
			"byteOffset":1716,
			"target":34962
		},
		{
			"buffer":0,
			"byteLength":120,
			"byteOffset":1896,
			"target":34962
		},
		{
			"buffer":0,
			"byteLength":240,
			"byteOffset":2016,
			"target":34962
		},
		{
			"buffer":0,
			"byteLength":96,
			"byteOffset":2256,
			"target":34963
		}
	],
	"samplers":[
		{
			"magFilter":9729,
			"minFilter":9987
		}
	],
	"buffers":[
		{
			"byteLength":2352,
			"uri":"CH_VFX_pooka_trail.bin"
		}
	]
}
