{
	"asset":{
		"generator":"Khronos glTF Blender I/O v4.2.69",
		"version":"2.0"
	},
	"scene":0,
	"scenes":[
		{
			"name":"Scene",
			"nodes":[
				0,
				2,
				3,
				4
			]
		}
	],
	"nodes":[
		{
			"mesh":0,
			"name":"PR_Destroyed_Tributes_Jar02"
		},
		{
			"name":"material"
		},
		{
			"children":[
				1
			],
			"name":"root",
			"rotation":[
				0.7071068286895752,
				0,
				0,
				0.7071068286895752
			]
		},
		{
			"mesh":1,
			"name":"PR_Destroyed_Tributes_Jar01",
			"rotation":[
				0.6670507788658142,
				0.5681970715522766,
				-0.10138504207134247,
				0.4710801839828491
			],
			"scale":[
				0.9307385683059692,
				0.9307385087013245,
				0.9307385087013245
			]
		},
		{
			"mesh":2,
			"name":"PR_Destroyed_Tributes_Vase05",
			"rotation":[
				0.9747462868690491,
				-0.06141854077577591,
				-0.1172550842165947,
				0.17985747754573822
			]
		}
	],
	"materials":[
		{
			"doubleSided":true,
			"name":"M_Atlas_Vases_Mushroom.001",
			"normalTexture":{
				"index":0
			},
			"pbrMetallicRoughness":{
				"baseColorTexture":{
					"index":1
				},
				"metallicRoughnessTexture":{
					"index":2
				}
			}
		}
	],
	"meshes":[
		{
			"name":"Mesh.348",
			"primitives":[
				{
					"attributes":{
						"POSITION":0,
						"NORMAL":1,
						"TEXCOORD_0":2,
						"TEXCOORD_1":3,
						"TEXCOORD_2":4,
						"TANGENT":5
					},
					"indices":6,
					"material":0
				}
			]
		},
		{
			"name":"Mesh.227",
			"primitives":[
				{
					"attributes":{
						"POSITION":7,
						"NORMAL":8,
						"TEXCOORD_0":9,
						"TEXCOORD_1":10,
						"TANGENT":11
					},
					"indices":12,
					"material":0
				}
			]
		},
		{
			"name":"Mesh.252",
			"primitives":[
				{
					"attributes":{
						"POSITION":13,
						"NORMAL":14,
						"TEXCOORD_0":15,
						"TEXCOORD_1":16,
						"TANGENT":17
					},
					"indices":18,
					"material":0
				}
			]
		}
	],
	"textures":[
		{
			"sampler":0,
			"source":0
		},
		{
			"sampler":0,
			"source":1
		},
		{
			"sampler":0,
			"source":2
		}
	],
	"images":[
		{
			"mimeType":"image/png",
			"name":"Material_and_new_UVs_M_Atlas_Vases_Mushroom.001_Normal",
			"uri":"Material_and_new_UVs_M_Atlas_Vases_Mushroom_001_Normal.png"
		},
		{
			"mimeType":"image/png",
			"name":"Basecolor11",
			"uri":"Basecolor11.png"
		},
		{
			"mimeType":"image/png",
			"name":"Material_and_new_UVs_M_Atlas_Vases_Mushroom",
			"uri":"Material_and_new_UVs_M_Atlas_Vases_Mushroom.png"
		}
	],
	"accessors":[
		{
			"bufferView":0,
			"componentType":5126,
			"count":4965,
			"max":[
				1.4418227672576904,
				0.23609399795532227,
				1.3507194519042969
			],
			"min":[
				-1.2214878797531128,
				-0.017296791076660156,
				-1.1697959899902344
			],
			"type":"VEC3"
		},
		{
			"bufferView":1,
			"componentType":5126,
			"count":4965,
			"type":"VEC3"
		},
		{
			"bufferView":2,
			"componentType":5126,
			"count":4965,
			"type":"VEC2"
		},
		{
			"bufferView":3,
			"componentType":5126,
			"count":4965,
			"type":"VEC2"
		},
		{
			"bufferView":4,
			"componentType":5126,
			"count":4965,
			"type":"VEC2"
		},
		{
			"bufferView":5,
			"componentType":5126,
			"count":4965,
			"type":"VEC4"
		},
		{
			"bufferView":6,
			"componentType":5123,
			"count":11088,
			"type":"SCALAR"
		},
		{
			"bufferView":7,
			"componentType":5126,
			"count":6540,
			"max":[
				0.8728552460670471,
				1.0705143213272095,
				0.920822262763977
			],
			"min":[
				-0.7965621948242188,
				-1.2420185804367065,
				-1.023539662361145
			],
			"type":"VEC3"
		},
		{
			"bufferView":8,
			"componentType":5126,
			"count":6540,
			"type":"VEC3"
		},
		{
			"bufferView":9,
			"componentType":5126,
			"count":6540,
			"type":"VEC2"
		},
		{
			"bufferView":10,
			"componentType":5126,
			"count":6540,
			"type":"VEC2"
		},
		{
			"bufferView":11,
			"componentType":5126,
			"count":6540,
			"type":"VEC4"
		},
		{
			"bufferView":12,
			"componentType":5123,
			"count":13596,
			"type":"SCALAR"
		},
		{
			"bufferView":13,
			"componentType":5126,
			"count":3760,
			"max":[
				0.5625971555709839,
				0.40061765909194946,
				0.8183097839355469
			],
			"min":[
				-1.077844262123108,
				-0.3178715705871582,
				-0.8671636581420898
			],
			"type":"VEC3"
		},
		{
			"bufferView":14,
			"componentType":5126,
			"count":3760,
			"type":"VEC3"
		},
		{
			"bufferView":15,
			"componentType":5126,
			"count":3760,
			"type":"VEC2"
		},
		{
			"bufferView":16,
			"componentType":5126,
			"count":3760,
			"type":"VEC2"
		},
		{
			"bufferView":17,
			"componentType":5126,
			"count":3760,
			"type":"VEC4"
		},
		{
			"bufferView":18,
			"componentType":5123,
			"count":9480,
			"type":"SCALAR"
		}
	],
	"bufferViews":[
		{
			"buffer":0,
			"byteLength":59580,
			"byteOffset":0,
			"target":34962
		},
		{
			"buffer":0,
			"byteLength":59580,
			"byteOffset":59580,
			"target":34962
		},
		{
			"buffer":0,
			"byteLength":39720,
			"byteOffset":119160,
			"target":34962
		},
		{
			"buffer":0,
			"byteLength":39720,
			"byteOffset":158880,
			"target":34962
		},
		{
			"buffer":0,
			"byteLength":39720,
			"byteOffset":198600,
			"target":34962
		},
		{
			"buffer":0,
			"byteLength":79440,
			"byteOffset":238320,
			"target":34962
		},
		{
			"buffer":0,
			"byteLength":22176,
			"byteOffset":317760,
			"target":34963
		},
		{
			"buffer":0,
			"byteLength":78480,
			"byteOffset":339936,
			"target":34962
		},
		{
			"buffer":0,
			"byteLength":78480,
			"byteOffset":418416,
			"target":34962
		},
		{
			"buffer":0,
			"byteLength":52320,
			"byteOffset":496896,
			"target":34962
		},
		{
			"buffer":0,
			"byteLength":52320,
			"byteOffset":549216,
			"target":34962
		},
		{
			"buffer":0,
			"byteLength":104640,
			"byteOffset":601536,
			"target":34962
		},
		{
			"buffer":0,
			"byteLength":27192,
			"byteOffset":706176,
			"target":34963
		},
		{
			"buffer":0,
			"byteLength":45120,
			"byteOffset":733368,
			"target":34962
		},
		{
			"buffer":0,
			"byteLength":45120,
			"byteOffset":778488,
			"target":34962
		},
		{
			"buffer":0,
			"byteLength":30080,
			"byteOffset":823608,
			"target":34962
		},
		{
			"buffer":0,
			"byteLength":30080,
			"byteOffset":853688,
			"target":34962
		},
		{
			"buffer":0,
			"byteLength":60160,
			"byteOffset":883768,
			"target":34962
		},
		{
			"buffer":0,
			"byteLength":18960,
			"byteOffset":943928,
			"target":34963
		}
	],
	"samplers":[
		{
			"magFilter":9729,
			"minFilter":9987
		}
	],
	"buffers":[
		{
			"byteLength":962888,
			"uri":"Destroyed_Tributs_v01.bin"
		}
	]
}
