{
	"asset":{
		"generator":"Khronos glTF Blender I/O v4.2.69",
		"version":"2.0"
	},
	"extensionsUsed":[
		"KHR_materials_specular"
	],
	"scene":0,
	"scenes":[
		{
			"name":"Scene",
			"nodes":[
				0,
				1,
				2,
				3,
				4,
				5,
				6,
				7,
				8,
				9,
				10,
				11,
				12,
				13,
				14,
				15,
				16,
				17,
				18,
				19,
				20,
				21,
				22,
				23,
				24,
				25,
				26,
				27,
				28,
				29
			]
		}
	],
	"nodes":[
		{
			"mesh":0,
			"name":"PR_Farmtools_rake"
		},
		{
			"mesh":1,
			"name":"PR_Framtools_hoe"
		},
		{
			"mesh":2,
			"name":"PR_Farmtools_pitchfork"
		},
		{
			"mesh":3,
			"name":"PR_Destroyed_Plow",
			"rotation":[
				-0.461437463760376,
				0.8202964663505554,
				-0.14697547256946564,
				0.30428212881088257
			],
			"scale":[
				0.9291038513183594,
				0.9291037917137146,
				0.9291039109230042
			]
		},
		{
			"mesh":4,
			"name":"PR_Destroyed_Barrel",
			"rotation":[
				-0.04762107506394386,
				-0.009025092236697674,
				0.028947684913873672,
				0.9984051585197449
			]
		},
		{
			"mesh":5,
			"name":"PR_Destroyed_Cart",
			"rotation":[
				-0.026237336918711662,
				0.04699788987636566,
				-0.12812069058418274,
				0.9902969002723694
			]
		},
		{
			"mesh":6,
			"name":"PR_Destroyed_Cart_Wheel",
			"rotation":[
				-0.15312547981739044,
				0.2632308602333069,
				-0.3561007082462311,
				0.8834332823753357
			]
		},
		{
			"mesh":7,
			"name":"PR_Destroyed_Fish_Basket",
			"rotation":[
				0.7880793809890747,
				-0.5264450907707214,
				0.29048001766204834,
				0.1319388449192047
			]
		},
		{
			"mesh":8,
			"name":"PR_Destroyed_Crate02",
			"rotation":[
				0.7538924813270569,
				-0.109513059258461,
				0.06897874921560287,
				0.6441234350204468
			]
		},
		{
			"mesh":9,
			"name":"PR_Destroyed_Crate01",
			"rotation":[
				0,
				0,
				-0.03496188670396805,
				0.9993886947631836
			]
		},
		{
			"mesh":10,
			"name":"PR_Destroyed_Chest01",
			"rotation":[
				-0.28940722346305847,
				0.7406560182571411,
				-0.21239054203033447,
				0.5679457783699036
			]
		},
		{
			"mesh":11,
			"name":"PR_Destroyed_Chest02",
			"rotation":[
				-0.06464580446481705,
				0.03939361870288849,
				0.1317594349384308,
				0.9883868098258972
			],
			"scale":[
				0.929103672504425,
				0.929103672504425,
				0.9291037321090698
			]
		},
		{
			"mesh":12,
			"name":"EN_Destroyed_Stump_2_LP_v02",
			"rotation":[
				-0.6816567778587341,
				-0.025459397584199905,
				0.19102108478546143,
				0.7058377265930176
			]
		},
		{
			"mesh":13,
			"name":"EN_Destroyed_Stump_1_LP_v02",
			"rotation":[
				-0.6339992880821228,
				-0.1830005794763565,
				0.1753511130809784,
				0.7306213974952698
			]
		},
		{
			"mesh":14,
			"name":"PR_Destroyed_Tributes_Flask01",
			"rotation":[
				0.7071068286895752,
				0,
				0,
				0.7071068286895752
			]
		},
		{
			"mesh":15,
			"name":"PR_Destroyed_Tributes_Flask02",
			"rotation":[
				0.6900997757911682,
				-0.15415002405643463,
				-0.1541500687599182,
				0.6900998950004578
			]
		},
		{
			"mesh":16,
			"name":"PR_Destroyed_Tributes_Flask03_v01",
			"rotation":[
				-0.47913315892219543,
				0,
				-0.05749598518013954,
				0.8758571147918701
			]
		},
		{
			"mesh":17,
			"name":"PR_Destroyed_Tributes_Bowl01"
		},
		{
			"mesh":18,
			"name":"PR_Destroyed_Tributes_Bowl02"
		},
		{
			"mesh":19,
			"name":"PR_Destroyed_Tributes_DrinkingHorn"
		},
		{
			"mesh":20,
			"name":"PR_Destroyed_Tributes_Jar01"
		},
		{
			"mesh":21,
			"name":"PR_Destroyed_Tributes_Jar02"
		},
		{
			"mesh":22,
			"name":"PR_Destroyed_Tributes_Jar03"
		},
		{
			"mesh":23,
			"name":"PR_Destroyed_Tributes_Jar04"
		},
		{
			"mesh":24,
			"name":"PR_Destroyed_Tributes_Jar05"
		},
		{
			"mesh":25,
			"name":"PR_Destroyed_Tributes_Plate"
		},
		{
			"mesh":26,
			"name":"PR_Destroyed_Tributes_Vase03"
		},
		{
			"mesh":27,
			"name":"PR_Destroyed_Tributes_Vase05"
		},
		{
			"mesh":28,
			"name":"PR_Destroyed_Tributes_Vase02"
		},
		{
			"mesh":29,
			"name":"PR_Destroyed_Tributes_Vase04"
		}
	],
	"materials":[
		{
			"doubleSided":true,
			"name":"M_Farmtools",
			"normalTexture":{
				"index":0
			},
			"pbrMetallicRoughness":{
				"baseColorTexture":{
					"index":1
				},
				"metallicRoughnessTexture":{
					"index":2
				}
			}
		},
		{
			"doubleSided":true,
			"extensions":{
				"KHR_materials_specular":{
					"specularColorFactor":[
						2.0,
						2.0,
						2.0
					]
				}
			},
			"name":"M_Atlas_Wood_And_Metal",
			"normalTexture":{
				"index":3
			},
			"pbrMetallicRoughness":{
				"baseColorTexture":{
					"index":4
				},
				"metallicRoughnessTexture":{
					"index":5
				}
			}
		},
		{
			"doubleSided":true,
			"name":"M_Foreground_Black",
			"normalTexture":{
				"index":6
			},
			"pbrMetallicRoughness":{
				"baseColorTexture":{
					"index":7
				},
				"metallicRoughnessTexture":{
					"index":8
				}
			}
		},
		{
			"doubleSided":true,
			"name":"M_Atlas_Vases_Mushroom.003",
			"normalTexture":{
				"index":9
			},
			"pbrMetallicRoughness":{
				"baseColorTexture":{
					"index":10
				},
				"metallicFactor":0,
				"roughnessFactor":0.5527864098548889
			}
		}
	],
	"meshes":[
		{
			"name":"Cube.001",
			"primitives":[
				{
					"attributes":{
						"POSITION":0,
						"NORMAL":1,
						"TEXCOORD_0":2,
						"TANGENT":3
					},
					"indices":4,
					"material":0
				}
			]
		},
		{
			"name":"Cube.006",
			"primitives":[
				{
					"attributes":{
						"POSITION":5,
						"NORMAL":6,
						"TEXCOORD_0":7,
						"TANGENT":8
					},
					"indices":9,
					"material":0
				}
			]
		},
		{
			"name":"Cube.008",
			"primitives":[
				{
					"attributes":{
						"POSITION":10,
						"NORMAL":11,
						"TEXCOORD_0":12,
						"TANGENT":13
					},
					"indices":14,
					"material":0
				}
			]
		},
		{
			"name":"Mesh.946",
			"primitives":[
				{
					"attributes":{
						"POSITION":15,
						"NORMAL":16,
						"TEXCOORD_0":17,
						"TEXCOORD_1":18,
						"TANGENT":19
					},
					"indices":20,
					"material":1
				}
			]
		},
		{
			"name":"Mesh.965",
			"primitives":[
				{
					"attributes":{
						"POSITION":21,
						"NORMAL":22,
						"TEXCOORD_0":23,
						"TANGENT":24
					},
					"indices":25,
					"material":1
				}
			]
		},
		{
			"name":"Mesh.989",
			"primitives":[
				{
					"attributes":{
						"POSITION":26,
						"NORMAL":27,
						"TEXCOORD_0":28,
						"TANGENT":29
					},
					"indices":30,
					"material":1
				}
			]
		},
		{
			"name":"Mesh.1060",
			"primitives":[
				{
					"attributes":{
						"POSITION":31,
						"NORMAL":32,
						"TEXCOORD_0":33,
						"TEXCOORD_1":34,
						"TANGENT":35
					},
					"indices":36,
					"material":1
				}
			]
		},
		{
			"name":"Mesh.1077",
			"primitives":[
				{
					"attributes":{
						"POSITION":37,
						"NORMAL":38,
						"TEXCOORD_0":39,
						"TEXCOORD_1":40,
						"TANGENT":41
					},
					"indices":42,
					"material":1
				}
			]
		},
		{
			"name":"Mesh.1083",
			"primitives":[
				{
					"attributes":{
						"POSITION":43,
						"NORMAL":44,
						"TEXCOORD_0":45,
						"TEXCOORD_1":46,
						"TANGENT":47
					},
					"indices":48,
					"material":1
				}
			]
		},
		{
			"name":"Mesh.1089",
			"primitives":[
				{
					"attributes":{
						"POSITION":49,
						"NORMAL":50,
						"TEXCOORD_0":51,
						"TANGENT":52
					},
					"indices":53,
					"material":1
				}
			]
		},
		{
			"name":"Mesh.1098",
			"primitives":[
				{
					"attributes":{
						"POSITION":54,
						"NORMAL":55,
						"TEXCOORD_0":56,
						"TEXCOORD_1":57,
						"TANGENT":58
					},
					"indices":59,
					"material":1
				}
			]
		},
		{
			"name":"Mesh.1145",
			"primitives":[
				{
					"attributes":{
						"POSITION":60,
						"NORMAL":61,
						"TEXCOORD_0":62,
						"TANGENT":63
					},
					"indices":64,
					"material":1
				}
			]
		},
		{
			"name":"EN_Stump_2_LP_v02_cell.028",
			"primitives":[
				{
					"attributes":{
						"POSITION":65,
						"NORMAL":66,
						"TEXCOORD_0":67,
						"TANGENT":68
					},
					"indices":69,
					"material":2
				}
			]
		},
		{
			"name":"EN_Stump_1_LP_v02_cell.013",
			"primitives":[
				{
					"attributes":{
						"POSITION":70,
						"NORMAL":71,
						"TEXCOORD_0":72,
						"TANGENT":73
					},
					"indices":74,
					"material":2
				}
			]
		},
		{
			"name":"Mesh.1167",
			"primitives":[
				{
					"attributes":{
						"POSITION":75,
						"NORMAL":76,
						"TEXCOORD_0":77,
						"TEXCOORD_1":78,
						"TANGENT":79
					},
					"indices":80,
					"material":3
				}
			]
		},
		{
			"name":"Mesh.1168",
			"primitives":[
				{
					"attributes":{
						"POSITION":81,
						"NORMAL":82,
						"TEXCOORD_0":83,
						"TEXCOORD_1":84,
						"TANGENT":85
					},
					"indices":86,
					"material":3
				}
			]
		},
		{
			"name":"Cylinder.003",
			"primitives":[
				{
					"attributes":{
						"POSITION":87,
						"NORMAL":88,
						"TEXCOORD_0":89,
						"TEXCOORD_1":90,
						"TANGENT":91
					},
					"indices":92,
					"material":3
				}
			]
		},
		{
			"name":"Mesh.1169",
			"primitives":[
				{
					"attributes":{
						"POSITION":93,
						"NORMAL":94,
						"TEXCOORD_0":95,
						"TEXCOORD_1":96,
						"TANGENT":97
					},
					"indices":98,
					"material":3
				}
			]
		},
		{
			"name":"Mesh.1170",
			"primitives":[
				{
					"attributes":{
						"POSITION":99,
						"NORMAL":100,
						"TEXCOORD_0":101,
						"TEXCOORD_1":102,
						"TANGENT":103
					},
					"indices":104,
					"material":3
				}
			]
		},
		{
			"name":"Mesh.1171",
			"primitives":[
				{
					"attributes":{
						"POSITION":105,
						"NORMAL":106,
						"TEXCOORD_0":107,
						"TEXCOORD_1":108,
						"TEXCOORD_2":109,
						"TANGENT":110,
						"COLOR_0":111,
						"COLOR_1":112
					},
					"indices":113,
					"material":3
				}
			]
		},
		{
			"name":"Mesh.1172",
			"primitives":[
				{
					"attributes":{
						"POSITION":114,
						"NORMAL":115,
						"TEXCOORD_0":116,
						"TEXCOORD_1":117,
						"TANGENT":118
					},
					"indices":119,
					"material":3
				}
			]
		},
		{
			"name":"Mesh.1173",
			"primitives":[
				{
					"attributes":{
						"POSITION":120,
						"NORMAL":121,
						"TEXCOORD_0":122,
						"TEXCOORD_1":123,
						"TANGENT":124
					},
					"indices":125,
					"material":3
				}
			]
		},
		{
			"name":"Mesh.1174",
			"primitives":[
				{
					"attributes":{
						"POSITION":126,
						"NORMAL":127,
						"TEXCOORD_0":128,
						"TEXCOORD_1":129,
						"TANGENT":130
					},
					"indices":131,
					"material":3
				}
			]
		},
		{
			"name":"Mesh.1175",
			"primitives":[
				{
					"attributes":{
						"POSITION":132,
						"NORMAL":133,
						"TEXCOORD_0":134,
						"TEXCOORD_1":135,
						"TANGENT":136
					},
					"indices":137,
					"material":3
				}
			]
		},
		{
			"name":"Mesh.1176",
			"primitives":[
				{
					"attributes":{
						"POSITION":138,
						"NORMAL":139,
						"TEXCOORD_0":140,
						"TEXCOORD_1":141,
						"TANGENT":142
					},
					"indices":143,
					"material":3
				}
			]
		},
		{
			"name":"Mesh.1177",
			"primitives":[
				{
					"attributes":{
						"POSITION":144,
						"NORMAL":145,
						"TEXCOORD_0":146,
						"TEXCOORD_1":147,
						"TANGENT":148
					},
					"indices":149,
					"material":3
				}
			]
		},
		{
			"name":"Mesh.1178",
			"primitives":[
				{
					"attributes":{
						"POSITION":150,
						"NORMAL":151,
						"TEXCOORD_0":152,
						"TEXCOORD_1":153,
						"TANGENT":154,
						"COLOR_0":155,
						"COLOR_1":156
					},
					"indices":157,
					"material":3
				}
			]
		},
		{
			"name":"Mesh.1179",
			"primitives":[
				{
					"attributes":{
						"POSITION":158,
						"NORMAL":159,
						"TEXCOORD_0":160,
						"TEXCOORD_1":161,
						"TANGENT":162
					},
					"indices":163,
					"material":3
				}
			]
		},
		{
			"name":"Mesh.1180",
			"primitives":[
				{
					"attributes":{
						"POSITION":164,
						"NORMAL":165,
						"TEXCOORD_0":166,
						"TEXCOORD_1":167,
						"TANGENT":168
					},
					"indices":169,
					"material":3
				}
			]
		},
		{
			"name":"Mesh.1181",
			"primitives":[
				{
					"attributes":{
						"POSITION":170,
						"NORMAL":171,
						"TEXCOORD_0":172,
						"TEXCOORD_1":173,
						"TANGENT":174
					},
					"indices":175,
					"material":3
				}
			]
		}
	],
	"textures":[
		{
			"sampler":0,
			"source":0
		},
		{
			"sampler":0,
			"source":1
		},
		{
			"sampler":0,
			"source":2
		},
		{
			"sampler":0,
			"source":3
		},
		{
			"sampler":0,
			"source":4
		},
		{
			"sampler":0,
			"source":5
		},
		{
			"sampler":0,
			"source":6
		},
		{
			"sampler":0,
			"source":7
		},
		{
			"sampler":0,
			"source":8
		},
		{
			"sampler":0,
			"source":9
		},
		{
			"sampler":0,
			"source":10
		}
	],
	"images":[
		{
			"mimeType":"image/png",
			"name":"garden-tools_DefaultMaterial_Normal",
			"uri":"garden-tools_DefaultMaterial_Normal.png"
		},
		{
			"mimeType":"image/png",
			"name":"garden-tools_DefaultMaterial_BaseColor",
			"uri":"garden-tools_DefaultMaterial_BaseColor.png"
		},
		{
			"mimeType":"image/png",
			"name":"garden-tools_DefaultMaterial_OcclusionRoughnessMetallic",
			"uri":"garden-tools_DefaultMaterial_OcclusionRoughnessMetallic.png"
		},
		{
			"mimeType":"image/png",
			"name":"T_Wood_Crates_Weapons_Normal",
			"uri":"T_Wood_Crates_Weapons_Normal.png"
		},
		{
			"mimeType":"image/png",
			"name":"T_Wood_Crates_Weapons_BaseColor",
			"uri":"T_Wood_Crates_Weapons_BaseColor.png"
		},
		{
			"mimeType":"image/png",
			"name":"T_Wood_Crates_Weapons_OcclusionRoughnessMetallic",
			"uri":"T_Wood_Crates_Weapons_OcclusionRoughnessMetallic.png"
		},
		{
			"mimeType":"image/png",
			"name":"black-material_DefaultMaterial_Normal",
			"uri":"black-material_DefaultMaterial_Normal.png"
		},
		{
			"mimeType":"image/png",
			"name":"black-material_DefaultMaterial_BaseColor",
			"uri":"black-material_DefaultMaterial_BaseColor.png"
		},
		{
			"mimeType":"image/png",
			"name":"black-material_DefaultMaterial_OcclusionRoughnessMetallic",
			"uri":"black-material_DefaultMaterial_OcclusionRoughnessMetallic.png"
		},
		{
			"mimeType":"image/png",
			"name":"Tributs_Norm",
			"uri":"Tributs_Norm.png"
		},
		{
			"mimeType":"image/png",
			"name":"basecolor11",
			"uri":"basecolor11.png"
		}
	],
	"accessors":[
		{
			"bufferView":0,
			"componentType":5126,
			"count":1124,
			"max":[
				0.2698932886123657,
				1.8173909187316895,
				0.02797718532383442
			],
			"min":[
				-0.2996547222137451,
				-0.005539417266845703,
				-0.04962010681629181
			],
			"type":"VEC3"
		},
		{
			"bufferView":1,
			"componentType":5126,
			"count":1124,
			"type":"VEC3"
		},
		{
			"bufferView":2,
			"componentType":5126,
			"count":1124,
			"type":"VEC2"
		},
		{
			"bufferView":3,
			"componentType":5126,
			"count":1124,
			"type":"VEC4"
		},
		{
			"bufferView":4,
			"componentType":5123,
			"count":3384,
			"type":"SCALAR"
		},
		{
			"bufferView":5,
			"componentType":5126,
			"count":236,
			"max":[
				0.12317265570163727,
				1.3983399868011475,
				0.26758092641830444
			],
			"min":[
				-0.14907841384410858,
				-0.005539417266845703,
				-0.029509637504816055
			],
			"type":"VEC3"
		},
		{
			"bufferView":6,
			"componentType":5126,
			"count":236,
			"type":"VEC3"
		},
		{
			"bufferView":7,
			"componentType":5126,
			"count":236,
			"type":"VEC2"
		},
		{
			"bufferView":8,
			"componentType":5126,
			"count":236,
			"type":"VEC4"
		},
		{
			"bufferView":9,
			"componentType":5123,
			"count":744,
			"type":"SCALAR"
		},
		{
			"bufferView":10,
			"componentType":5126,
			"count":416,
			"max":[
				0.21611520648002625,
				2.0135889053344727,
				0.09611637890338898
			],
			"min":[
				-0.2269386351108551,
				-0.0002671480178833008,
				-0.0420856736600399
			],
			"type":"VEC3"
		},
		{
			"bufferView":11,
			"componentType":5126,
			"count":416,
			"type":"VEC3"
		},
		{
			"bufferView":12,
			"componentType":5126,
			"count":416,
			"type":"VEC2"
		},
		{
			"bufferView":13,
			"componentType":5126,
			"count":416,
			"type":"VEC4"
		},
		{
			"bufferView":14,
			"componentType":5123,
			"count":1320,
			"type":"SCALAR"
		},
		{
			"bufferView":15,
			"componentType":5126,
			"count":674,
			"max":[
				0.2841331958770752,
				0.9541442394256592,
				0.49951261281967163
			],
			"min":[
				-0.6869434714317322,
				-0.9456092119216919,
				-0.7155243158340454
			],
			"type":"VEC3"
		},
		{
			"bufferView":16,
			"componentType":5126,
			"count":674,
			"type":"VEC3"
		},
		{
			"bufferView":17,
			"componentType":5126,
			"count":674,
			"type":"VEC2"
		},
		{
			"bufferView":18,
			"componentType":5126,
			"count":674,
			"type":"VEC2"
		},
		{
			"bufferView":19,
			"componentType":5126,
			"count":674,
			"type":"VEC4"
		},
		{
			"bufferView":20,
			"componentType":5123,
			"count":2136,
			"type":"SCALAR"
		},
		{
			"bufferView":21,
			"componentType":5126,
			"count":1251,
			"max":[
				0.9757584929466248,
				0.6344501376152039,
				0.9041910171508789
			],
			"min":[
				-1.0336310863494873,
				-0.0728539451956749,
				-0.7508574724197388
			],
			"type":"VEC3"
		},
		{
			"bufferView":22,
			"componentType":5126,
			"count":1251,
			"type":"VEC3"
		},
		{
			"bufferView":23,
			"componentType":5126,
			"count":1251,
			"type":"VEC2"
		},
		{
			"bufferView":24,
			"componentType":5126,
			"count":1251,
			"type":"VEC4"
		},
		{
			"bufferView":25,
			"componentType":5123,
			"count":3126,
			"type":"SCALAR"
		},
		{
			"bufferView":26,
			"componentType":5126,
			"count":1177,
			"max":[
				0.6462317109107971,
				0.32130175828933716,
				1.0028694868087769
			],
			"min":[
				-1.1013938188552856,
				-0.23090866208076477,
				-0.9284786581993103
			],
			"type":"VEC3"
		},
		{
			"bufferView":27,
			"componentType":5126,
			"count":1177,
			"type":"VEC3"
		},
		{
			"bufferView":28,
			"componentType":5126,
			"count":1177,
			"type":"VEC2"
		},
		{
			"bufferView":29,
			"componentType":5126,
			"count":1177,
			"type":"VEC4"
		},
		{
			"bufferView":30,
			"componentType":5123,
			"count":3756,
			"type":"SCALAR"
		},
		{
			"bufferView":31,
			"componentType":5126,
			"count":696,
			"max":[
				0.32275277376174927,
				0.4136481285095215,
				0.46301159262657166
			],
			"min":[
				-0.4540365934371948,
				-0.3090488314628601,
				-0.6313750743865967
			],
			"type":"VEC3"
		},
		{
			"bufferView":32,
			"componentType":5126,
			"count":696,
			"type":"VEC3"
		},
		{
			"bufferView":33,
			"componentType":5126,
			"count":696,
			"type":"VEC2"
		},
		{
			"bufferView":34,
			"componentType":5126,
			"count":696,
			"type":"VEC2"
		},
		{
			"bufferView":35,
			"componentType":5126,
			"count":696,
			"type":"VEC4"
		},
		{
			"bufferView":36,
			"componentType":5123,
			"count":1782,
			"type":"SCALAR"
		},
		{
			"bufferView":37,
			"componentType":5126,
			"count":2370,
			"max":[
				0.3424636423587799,
				0.5598165392875671,
				0.4021761119365692
			],
			"min":[
				-0.6273824572563171,
				-0.7697619199752808,
				-0.6224672794342041
			],
			"type":"VEC3"
		},
		{
			"bufferView":38,
			"componentType":5126,
			"count":2370,
			"type":"VEC3"
		},
		{
			"bufferView":39,
			"componentType":5126,
			"count":2370,
			"type":"VEC2"
		},
		{
			"bufferView":40,
			"componentType":5126,
			"count":2370,
			"type":"VEC2"
		},
		{
			"bufferView":41,
			"componentType":5126,
			"count":2370,
			"type":"VEC4"
		},
		{
			"bufferView":42,
			"componentType":5123,
			"count":8079,
			"type":"SCALAR"
		},
		{
			"bufferView":43,
			"componentType":5126,
			"count":452,
			"max":[
				0.8533496260643005,
				0.8774663209915161,
				0.22508341073989868
			],
			"min":[
				-1.247190237045288,
				-1.227602243423462,
				-0.8638084530830383
			],
			"type":"VEC3"
		},
		{
			"bufferView":44,
			"componentType":5126,
			"count":452,
			"type":"VEC3"
		},
		{
			"bufferView":45,
			"componentType":5126,
			"count":452,
			"type":"VEC2"
		},
		{
			"bufferView":46,
			"componentType":5126,
			"count":452,
			"type":"VEC2"
		},
		{
			"bufferView":47,
			"componentType":5126,
			"count":452,
			"type":"VEC4"
		},
		{
			"bufferView":48,
			"componentType":5123,
			"count":774,
			"type":"SCALAR"
		},
		{
			"bufferView":49,
			"componentType":5126,
			"count":492,
			"max":[
				0.8672977685928345,
				0.6532039046287537,
				6.364879608154297
			],
			"min":[
				-4.7068915367126465,
				-84.44996643066406,
				-0.9912757277488708
			],
			"type":"VEC3"
		},
		{
			"bufferView":50,
			"componentType":5126,
			"count":492,
			"type":"VEC3"
		},
		{
			"bufferView":51,
			"componentType":5126,
			"count":492,
			"type":"VEC2"
		},
		{
			"bufferView":52,
			"componentType":5126,
			"count":492,
			"type":"VEC4"
		},
		{
			"bufferView":53,
			"componentType":5123,
			"count":1047,
			"type":"SCALAR"
		},
		{
			"bufferView":54,
			"componentType":5126,
			"count":331,
			"max":[
				0.362514853477478,
				0.472628116607666,
				0.32866349816322327
			],
			"min":[
				-0.46923452615737915,
				-0.23452356457710266,
				-0.45367538928985596
			],
			"type":"VEC3"
		},
		{
			"bufferView":55,
			"componentType":5126,
			"count":331,
			"type":"VEC3"
		},
		{
			"bufferView":56,
			"componentType":5126,
			"count":331,
			"type":"VEC2"
		},
		{
			"bufferView":57,
			"componentType":5126,
			"count":331,
			"type":"VEC2"
		},
		{
			"bufferView":58,
			"componentType":5126,
			"count":331,
			"type":"VEC4"
		},
		{
			"bufferView":59,
			"componentType":5123,
			"count":840,
			"type":"SCALAR"
		},
		{
			"bufferView":60,
			"componentType":5126,
			"count":60,
			"max":[
				0.6742089986801147,
				0.38377776741981506,
				0.7652246356010437
			],
			"min":[
				-0.6095917224884033,
				-0.1402476280927658,
				-0.7128251791000366
			],
			"type":"VEC3"
		},
		{
			"bufferView":61,
			"componentType":5126,
			"count":60,
			"type":"VEC3"
		},
		{
			"bufferView":62,
			"componentType":5126,
			"count":60,
			"type":"VEC2"
		},
		{
			"bufferView":63,
			"componentType":5126,
			"count":60,
			"type":"VEC4"
		},
		{
			"bufferView":64,
			"componentType":5123,
			"count":108,
			"type":"SCALAR"
		},
		{
			"bufferView":65,
			"componentType":5126,
			"count":947,
			"max":[
				0.6403878331184387,
				0.4428443908691406,
				0.4056614935398102
			],
			"min":[
				-0.533922553062439,
				-0.5440143942832947,
				-0.15783193707466125
			],
			"type":"VEC3"
		},
		{
			"bufferView":66,
			"componentType":5126,
			"count":947,
			"type":"VEC3"
		},
		{
			"bufferView":67,
			"componentType":5126,
			"count":947,
			"type":"VEC2"
		},
		{
			"bufferView":68,
			"componentType":5126,
			"count":947,
			"type":"VEC4"
		},
		{
			"bufferView":69,
			"componentType":5123,
			"count":2007,
			"type":"SCALAR"
		},
		{
			"bufferView":70,
			"componentType":5126,
			"count":1096,
			"max":[
				0.47941696643829346,
				0.6726089715957642,
				0.5598849058151245
			],
			"min":[
				-0.5546274781227112,
				-0.7295143604278564,
				-0.2477109730243683
			],
			"type":"VEC3"
		},
		{
			"bufferView":71,
			"componentType":5126,
			"count":1096,
			"type":"VEC3"
		},
		{
			"bufferView":72,
			"componentType":5126,
			"count":1096,
			"type":"VEC2"
		},
		{
			"bufferView":73,
			"componentType":5126,
			"count":1096,
			"type":"VEC4"
		},
		{
			"bufferView":74,
			"componentType":5123,
			"count":2250,
			"type":"SCALAR"
		},
		{
			"bufferView":75,
			"componentType":5126,
			"count":1111,
			"max":[
				0.2612398862838745,
				0.2272726595401764,
				0.004359349608421326
			],
			"min":[
				-0.39382004737854004,
				-0.27792811393737793,
				-0.260549932718277
			],
			"type":"VEC3"
		},
		{
			"bufferView":76,
			"componentType":5126,
			"count":1111,
			"type":"VEC3"
		},
		{
			"bufferView":77,
			"componentType":5126,
			"count":1111,
			"type":"VEC2"
		},
		{
			"bufferView":78,
			"componentType":5126,
			"count":1111,
			"type":"VEC2"
		},
		{
			"bufferView":79,
			"componentType":5126,
			"count":1111,
			"type":"VEC4"
		},
		{
			"bufferView":80,
			"componentType":5123,
			"count":4374,
			"type":"SCALAR"
		},
		{
			"bufferView":81,
			"componentType":5126,
			"count":1765,
			"max":[
				0.3322458863258362,
				0.47609764337539673,
				0.10799944400787354
			],
			"min":[
				-0.38000231981277466,
				-0.3770853281021118,
				-0.3290431499481201
			],
			"type":"VEC3"
		},
		{
			"bufferView":82,
			"componentType":5126,
			"count":1765,
			"type":"VEC3"
		},
		{
			"bufferView":83,
			"componentType":5126,
			"count":1765,
			"type":"VEC2"
		},
		{
			"bufferView":84,
			"componentType":5126,
			"count":1765,
			"type":"VEC2"
		},
		{
			"bufferView":85,
			"componentType":5126,
			"count":1765,
			"type":"VEC4"
		},
		{
			"bufferView":86,
			"componentType":5123,
			"count":6270,
			"type":"SCALAR"
		},
		{
			"bufferView":87,
			"componentType":5126,
			"count":1410,
			"max":[
				0.32364529371261597,
				0.2703847885131836,
				0.3900326192378998
			],
			"min":[
				-0.2129771113395691,
				-0.29786449670791626,
				-0.050303004682064056
			],
			"type":"VEC3"
		},
		{
			"bufferView":88,
			"componentType":5126,
			"count":1410,
			"type":"VEC3"
		},
		{
			"bufferView":89,
			"componentType":5126,
			"count":1410,
			"type":"VEC2"
		},
		{
			"bufferView":90,
			"componentType":5126,
			"count":1410,
			"type":"VEC2"
		},
		{
			"bufferView":91,
			"componentType":5126,
			"count":1410,
			"type":"VEC4"
		},
		{
			"bufferView":92,
			"componentType":5123,
			"count":5607,
			"type":"SCALAR"
		},
		{
			"bufferView":93,
			"componentType":5126,
			"count":464,
			"max":[
				0.5259119272232056,
				0.2517881989479065,
				0.7228484153747559
			],
			"min":[
				-0.7533904910087585,
				0.0005358085036277771,
				-0.8895625472068787
			],
			"type":"VEC3"
		},
		{
			"bufferView":94,
			"componentType":5126,
			"count":464,
			"type":"VEC3"
		},
		{
			"bufferView":95,
			"componentType":5126,
			"count":464,
			"type":"VEC2"
		},
		{
			"bufferView":96,
			"componentType":5126,
			"count":464,
			"type":"VEC2"
		},
		{
			"bufferView":97,
			"componentType":5126,
			"count":464,
			"type":"VEC4"
		},
		{
			"bufferView":98,
			"componentType":5123,
			"count":1290,
			"type":"SCALAR"
		},
		{
			"bufferView":99,
			"componentType":5126,
			"count":520,
			"max":[
				0.5949897766113281,
				0.4202879071235657,
				0.4731001555919647
			],
			"min":[
				-0.5926884412765503,
				-0.0015141069889068604,
				-0.5026067495346069
			],
			"type":"VEC3"
		},
		{
			"bufferView":100,
			"componentType":5126,
			"count":520,
			"type":"VEC3"
		},
		{
			"bufferView":101,
			"componentType":5126,
			"count":520,
			"type":"VEC2"
		},
		{
			"bufferView":102,
			"componentType":5126,
			"count":520,
			"type":"VEC2"
		},
		{
			"bufferView":103,
			"componentType":5126,
			"count":520,
			"type":"VEC4"
		},
		{
			"bufferView":104,
			"componentType":5123,
			"count":1368,
			"type":"SCALAR"
		},
		{
			"bufferView":105,
			"componentType":5126,
			"count":970,
			"max":[
				1.0149582624435425,
				0.9717561602592468,
				1.6715174913406372
			],
			"min":[
				-0.9050981402397156,
				-0.023952901363372803,
				-1.516703724861145
			],
			"type":"VEC3"
		},
		{
			"bufferView":106,
			"componentType":5126,
			"count":970,
			"type":"VEC3"
		},
		{
			"bufferView":107,
			"componentType":5126,
			"count":970,
			"type":"VEC2"
		},
		{
			"bufferView":108,
			"componentType":5126,
			"count":970,
			"type":"VEC2"
		},
		{
			"bufferView":109,
			"componentType":5126,
			"count":970,
			"type":"VEC2"
		},
		{
			"bufferView":110,
			"componentType":5126,
			"count":970,
			"type":"VEC4"
		},
		{
			"bufferView":111,
			"componentType":5121,
			"count":970,
			"normalized":true,
			"type":"VEC4"
		},
		{
			"bufferView":112,
			"componentType":5126,
			"count":970,
			"type":"VEC3"
		},
		{
			"bufferView":113,
			"componentType":5123,
			"count":3936,
			"type":"SCALAR"
		},
		{
			"bufferView":114,
			"componentType":5126,
			"count":899,
			"max":[
				0.881341814994812,
				0.4618285000324249,
				0.9124571681022644
			],
			"min":[
				-0.7051308155059814,
				-0.020419299602508545,
				-0.9825078845024109
			],
			"type":"VEC3"
		},
		{
			"bufferView":115,
			"componentType":5126,
			"count":899,
			"type":"VEC3"
		},
		{
			"bufferView":116,
			"componentType":5126,
			"count":899,
			"type":"VEC2"
		},
		{
			"bufferView":117,
			"componentType":5126,
			"count":899,
			"type":"VEC2"
		},
		{
			"bufferView":118,
			"componentType":5126,
			"count":899,
			"type":"VEC4"
		},
		{
			"bufferView":119,
			"componentType":5123,
			"count":2571,
			"type":"SCALAR"
		},
		{
			"bufferView":120,
			"componentType":5126,
			"count":629,
			"max":[
				0.8654760718345642,
				0.5383212566375732,
				0.9035882353782654
			],
			"min":[
				-0.957390546798706,
				-0.12312263250350952,
				-0.794852077960968
			],
			"type":"VEC3"
		},
		{
			"bufferView":121,
			"componentType":5126,
			"count":629,
			"type":"VEC3"
		},
		{
			"bufferView":122,
			"componentType":5126,
			"count":629,
			"type":"VEC2"
		},
		{
			"bufferView":123,
			"componentType":5126,
			"count":629,
			"type":"VEC2"
		},
		{
			"bufferView":124,
			"componentType":5126,
			"count":629,
			"type":"VEC4"
		},
		{
			"bufferView":125,
			"componentType":5123,
			"count":2091,
			"type":"SCALAR"
		},
		{
			"bufferView":126,
			"componentType":5126,
			"count":1127,
			"max":[
				1.0668984651565552,
				0.49105384945869446,
				0.800229012966156
			],
			"min":[
				-0.7959017753601074,
				-0.016159772872924805,
				-0.863039493560791
			],
			"type":"VEC3"
		},
		{
			"bufferView":127,
			"componentType":5126,
			"count":1127,
			"type":"VEC3"
		},
		{
			"bufferView":128,
			"componentType":5126,
			"count":1127,
			"type":"VEC2"
		},
		{
			"bufferView":129,
			"componentType":5126,
			"count":1127,
			"type":"VEC2"
		},
		{
			"bufferView":130,
			"componentType":5126,
			"count":1127,
			"type":"VEC4"
		},
		{
			"bufferView":131,
			"componentType":5123,
			"count":3390,
			"type":"SCALAR"
		},
		{
			"bufferView":132,
			"componentType":5126,
			"count":1005,
			"max":[
				0.6060514450073242,
				0.39226675033569336,
				0.502916157245636
			],
			"min":[
				-0.5191985368728638,
				-0.002054646611213684,
				-0.6664338707923889
			],
			"type":"VEC3"
		},
		{
			"bufferView":133,
			"componentType":5126,
			"count":1005,
			"type":"VEC3"
		},
		{
			"bufferView":134,
			"componentType":5126,
			"count":1005,
			"type":"VEC2"
		},
		{
			"bufferView":135,
			"componentType":5126,
			"count":1005,
			"type":"VEC2"
		},
		{
			"bufferView":136,
			"componentType":5126,
			"count":1005,
			"type":"VEC4"
		},
		{
			"bufferView":137,
			"componentType":5123,
			"count":2976,
			"type":"SCALAR"
		},
		{
			"bufferView":138,
			"componentType":5126,
			"count":971,
			"max":[
				0.8718728423118591,
				0.6773241758346558,
				0.8806531429290771
			],
			"min":[
				-0.9793153405189514,
				0.021749943494796753,
				-0.8022572994232178
			],
			"type":"VEC3"
		},
		{
			"bufferView":139,
			"componentType":5126,
			"count":971,
			"type":"VEC3"
		},
		{
			"bufferView":140,
			"componentType":5126,
			"count":971,
			"type":"VEC2"
		},
		{
			"bufferView":141,
			"componentType":5126,
			"count":971,
			"type":"VEC2"
		},
		{
			"bufferView":142,
			"componentType":5126,
			"count":971,
			"type":"VEC4"
		},
		{
			"bufferView":143,
			"componentType":5123,
			"count":2943,
			"type":"SCALAR"
		},
		{
			"bufferView":144,
			"componentType":5126,
			"count":650,
			"max":[
				0.8550364971160889,
				0.32868683338165283,
				0.8388171195983887
			],
			"min":[
				-0.9781970381736755,
				-0.024041354656219482,
				-1.057975172996521
			],
			"type":"VEC3"
		},
		{
			"bufferView":145,
			"componentType":5126,
			"count":650,
			"type":"VEC3"
		},
		{
			"bufferView":146,
			"componentType":5126,
			"count":650,
			"type":"VEC2"
		},
		{
			"bufferView":147,
			"componentType":5126,
			"count":650,
			"type":"VEC2"
		},
		{
			"bufferView":148,
			"componentType":5126,
			"count":650,
			"type":"VEC4"
		},
		{
			"bufferView":149,
			"componentType":5123,
			"count":1659,
			"type":"SCALAR"
		},
		{
			"bufferView":150,
			"componentType":5126,
			"count":965,
			"max":[
				0.49693208932876587,
				0.4184311330318451,
				0.5965741872787476
			],
			"min":[
				-0.5789000391960144,
				-0.028289854526519775,
				-0.4524255692958832
			],
			"type":"VEC3"
		},
		{
			"bufferView":151,
			"componentType":5126,
			"count":965,
			"type":"VEC3"
		},
		{
			"bufferView":152,
			"componentType":5126,
			"count":965,
			"type":"VEC2"
		},
		{
			"bufferView":153,
			"componentType":5126,
			"count":965,
			"type":"VEC2"
		},
		{
			"bufferView":154,
			"componentType":5126,
			"count":965,
			"type":"VEC4"
		},
		{
			"bufferView":155,
			"componentType":5121,
			"count":965,
			"normalized":true,
			"type":"VEC4"
		},
		{
			"bufferView":156,
			"componentType":5126,
			"count":965,
			"type":"VEC3"
		},
		{
			"bufferView":157,
			"componentType":5123,
			"count":2640,
			"type":"SCALAR"
		},
		{
			"bufferView":158,
			"componentType":5126,
			"count":698,
			"max":[
				0.692843496799469,
				0.4199112355709076,
				0.8126412630081177
			],
			"min":[
				-0.6352311968803406,
				-0.0034985244274139404,
				-0.9257878065109253
			],
			"type":"VEC3"
		},
		{
			"bufferView":159,
			"componentType":5126,
			"count":698,
			"type":"VEC3"
		},
		{
			"bufferView":160,
			"componentType":5126,
			"count":698,
			"type":"VEC2"
		},
		{
			"bufferView":161,
			"componentType":5126,
			"count":698,
			"type":"VEC2"
		},
		{
			"bufferView":162,
			"componentType":5126,
			"count":698,
			"type":"VEC4"
		},
		{
			"bufferView":163,
			"componentType":5123,
			"count":2454,
			"type":"SCALAR"
		},
		{
			"bufferView":164,
			"componentType":5126,
			"count":1423,
			"max":[
				0.54145747423172,
				0.41805022954940796,
				0.5554917454719543
			],
			"min":[
				-0.5631183981895447,
				-0.00880502164363861,
				-0.5076292157173157
			],
			"type":"VEC3"
		},
		{
			"bufferView":165,
			"componentType":5126,
			"count":1423,
			"type":"VEC3"
		},
		{
			"bufferView":166,
			"componentType":5126,
			"count":1423,
			"type":"VEC2"
		},
		{
			"bufferView":167,
			"componentType":5126,
			"count":1423,
			"type":"VEC2"
		},
		{
			"bufferView":168,
			"componentType":5126,
			"count":1423,
			"type":"VEC4"
		},
		{
			"bufferView":169,
			"componentType":5123,
			"count":3138,
			"type":"SCALAR"
		},
		{
			"bufferView":170,
			"componentType":5126,
			"count":1327,
			"max":[
				0.7563105225563049,
				0.3970765173435211,
				2.012157440185547
			],
			"min":[
				-0.6567339897155762,
				-0.00987333059310913,
				0.365735799074173
			],
			"type":"VEC3"
		},
		{
			"bufferView":171,
			"componentType":5126,
			"count":1327,
			"type":"VEC3"
		},
		{
			"bufferView":172,
			"componentType":5126,
			"count":1327,
			"type":"VEC2"
		},
		{
			"bufferView":173,
			"componentType":5126,
			"count":1327,
			"type":"VEC2"
		},
		{
			"bufferView":174,
			"componentType":5126,
			"count":1327,
			"type":"VEC4"
		},
		{
			"bufferView":175,
			"componentType":5123,
			"count":3768,
			"type":"SCALAR"
		}
	],
	"bufferViews":[
		{
			"buffer":0,
			"byteLength":13488,
			"byteOffset":0,
			"target":34962
		},
		{
			"buffer":0,
			"byteLength":13488,
			"byteOffset":13488,
			"target":34962
		},
		{
			"buffer":0,
			"byteLength":8992,
			"byteOffset":26976,
			"target":34962
		},
		{
			"buffer":0,
			"byteLength":17984,
			"byteOffset":35968,
			"target":34962
		},
		{
			"buffer":0,
			"byteLength":6768,
			"byteOffset":53952,
			"target":34963
		},
		{
			"buffer":0,
			"byteLength":2832,
			"byteOffset":60720,
			"target":34962
		},
		{
			"buffer":0,
			"byteLength":2832,
			"byteOffset":63552,
			"target":34962
		},
		{
			"buffer":0,
			"byteLength":1888,
			"byteOffset":66384,
			"target":34962
		},
		{
			"buffer":0,
			"byteLength":3776,
			"byteOffset":68272,
			"target":34962
		},
		{
			"buffer":0,
			"byteLength":1488,
			"byteOffset":72048,
			"target":34963
		},
		{
			"buffer":0,
			"byteLength":4992,
			"byteOffset":73536,
			"target":34962
		},
		{
			"buffer":0,
			"byteLength":4992,
			"byteOffset":78528,
			"target":34962
		},
		{
			"buffer":0,
			"byteLength":3328,
			"byteOffset":83520,
			"target":34962
		},
		{
			"buffer":0,
			"byteLength":6656,
			"byteOffset":86848,
			"target":34962
		},
		{
			"buffer":0,
			"byteLength":2640,
			"byteOffset":93504,
			"target":34963
		},
		{
			"buffer":0,
			"byteLength":8088,
			"byteOffset":96144,
			"target":34962
		},
		{
			"buffer":0,
			"byteLength":8088,
			"byteOffset":104232,
			"target":34962
		},
		{
			"buffer":0,
			"byteLength":5392,
			"byteOffset":112320,
			"target":34962
		},
		{
			"buffer":0,
			"byteLength":5392,
			"byteOffset":117712,
			"target":34962
		},
		{
			"buffer":0,
			"byteLength":10784,
			"byteOffset":123104,
			"target":34962
		},
		{
			"buffer":0,
			"byteLength":4272,
			"byteOffset":133888,
			"target":34963
		},
		{
			"buffer":0,
			"byteLength":15012,
			"byteOffset":138160,
			"target":34962
		},
		{
			"buffer":0,
			"byteLength":15012,
			"byteOffset":153172,
			"target":34962
		},
		{
			"buffer":0,
			"byteLength":10008,
			"byteOffset":168184,
			"target":34962
		},
		{
			"buffer":0,
			"byteLength":20016,
			"byteOffset":178192,
			"target":34962
		},
		{
			"buffer":0,
			"byteLength":6252,
			"byteOffset":198208,
			"target":34963
		},
		{
			"buffer":0,
			"byteLength":14124,
			"byteOffset":204460,
			"target":34962
		},
		{
			"buffer":0,
			"byteLength":14124,
			"byteOffset":218584,
			"target":34962
		},
		{
			"buffer":0,
			"byteLength":9416,
			"byteOffset":232708,
			"target":34962
		},
		{
			"buffer":0,
			"byteLength":18832,
			"byteOffset":242124,
			"target":34962
		},
		{
			"buffer":0,
			"byteLength":7512,
			"byteOffset":260956,
			"target":34963
		},
		{
			"buffer":0,
			"byteLength":8352,
			"byteOffset":268468,
			"target":34962
		},
		{
			"buffer":0,
			"byteLength":8352,
			"byteOffset":276820,
			"target":34962
		},
		{
			"buffer":0,
			"byteLength":5568,
			"byteOffset":285172,
			"target":34962
		},
		{
			"buffer":0,
			"byteLength":5568,
			"byteOffset":290740,
			"target":34962
		},
		{
			"buffer":0,
			"byteLength":11136,
			"byteOffset":296308,
			"target":34962
		},
		{
			"buffer":0,
			"byteLength":3564,
			"byteOffset":307444,
			"target":34963
		},
		{
			"buffer":0,
			"byteLength":28440,
			"byteOffset":311008,
			"target":34962
		},
		{
			"buffer":0,
			"byteLength":28440,
			"byteOffset":339448,
			"target":34962
		},
		{
			"buffer":0,
			"byteLength":18960,
			"byteOffset":367888,
			"target":34962
		},
		{
			"buffer":0,
			"byteLength":18960,
			"byteOffset":386848,
			"target":34962
		},
		{
			"buffer":0,
			"byteLength":37920,
			"byteOffset":405808,
			"target":34962
		},
		{
			"buffer":0,
			"byteLength":16158,
			"byteOffset":443728,
			"target":34963
		},
		{
			"buffer":0,
			"byteLength":5424,
			"byteOffset":459888,
			"target":34962
		},
		{
			"buffer":0,
			"byteLength":5424,
			"byteOffset":465312,
			"target":34962
		},
		{
			"buffer":0,
			"byteLength":3616,
			"byteOffset":470736,
			"target":34962
		},
		{
			"buffer":0,
			"byteLength":3616,
			"byteOffset":474352,
			"target":34962
		},
		{
			"buffer":0,
			"byteLength":7232,
			"byteOffset":477968,
			"target":34962
		},
		{
			"buffer":0,
			"byteLength":1548,
			"byteOffset":485200,
			"target":34963
		},
		{
			"buffer":0,
			"byteLength":5904,
			"byteOffset":486748,
			"target":34962
		},
		{
			"buffer":0,
			"byteLength":5904,
			"byteOffset":492652,
			"target":34962
		},
		{
			"buffer":0,
			"byteLength":3936,
			"byteOffset":498556,
			"target":34962
		},
		{
			"buffer":0,
			"byteLength":7872,
			"byteOffset":502492,
			"target":34962
		},
		{
			"buffer":0,
			"byteLength":2094,
			"byteOffset":510364,
			"target":34963
		},
		{
			"buffer":0,
			"byteLength":3972,
			"byteOffset":512460,
			"target":34962
		},
		{
			"buffer":0,
			"byteLength":3972,
			"byteOffset":516432,
			"target":34962
		},
		{
			"buffer":0,
			"byteLength":2648,
			"byteOffset":520404,
			"target":34962
		},
		{
			"buffer":0,
			"byteLength":2648,
			"byteOffset":523052,
			"target":34962
		},
		{
			"buffer":0,
			"byteLength":5296,
			"byteOffset":525700,
			"target":34962
		},
		{
			"buffer":0,
			"byteLength":1680,
			"byteOffset":530996,
			"target":34963
		},
		{
			"buffer":0,
			"byteLength":720,
			"byteOffset":532676,
			"target":34962
		},
		{
			"buffer":0,
			"byteLength":720,
			"byteOffset":533396,
			"target":34962
		},
		{
			"buffer":0,
			"byteLength":480,
			"byteOffset":534116,
			"target":34962
		},
		{
			"buffer":0,
			"byteLength":960,
			"byteOffset":534596,
			"target":34962
		},
		{
			"buffer":0,
			"byteLength":216,
			"byteOffset":535556,
			"target":34963
		},
		{
			"buffer":0,
			"byteLength":11364,
			"byteOffset":535772,
			"target":34962
		},
		{
			"buffer":0,
			"byteLength":11364,
			"byteOffset":547136,
			"target":34962
		},
		{
			"buffer":0,
			"byteLength":7576,
			"byteOffset":558500,
			"target":34962
		},
		{
			"buffer":0,
			"byteLength":15152,
			"byteOffset":566076,
			"target":34962
		},
		{
			"buffer":0,
			"byteLength":4014,
			"byteOffset":581228,
			"target":34963
		},
		{
			"buffer":0,
			"byteLength":13152,
			"byteOffset":585244,
			"target":34962
		},
		{
			"buffer":0,
			"byteLength":13152,
			"byteOffset":598396,
			"target":34962
		},
		{
			"buffer":0,
			"byteLength":8768,
			"byteOffset":611548,
			"target":34962
		},
		{
			"buffer":0,
			"byteLength":17536,
			"byteOffset":620316,
			"target":34962
		},
		{
			"buffer":0,
			"byteLength":4500,
			"byteOffset":637852,
			"target":34963
		},
		{
			"buffer":0,
			"byteLength":13332,
			"byteOffset":642352,
			"target":34962
		},
		{
			"buffer":0,
			"byteLength":13332,
			"byteOffset":655684,
			"target":34962
		},
		{
			"buffer":0,
			"byteLength":8888,
			"byteOffset":669016,
			"target":34962
		},
		{
			"buffer":0,
			"byteLength":8888,
			"byteOffset":677904,
			"target":34962
		},
		{
			"buffer":0,
			"byteLength":17776,
			"byteOffset":686792,
			"target":34962
		},
		{
			"buffer":0,
			"byteLength":8748,
			"byteOffset":704568,
			"target":34963
		},
		{
			"buffer":0,
			"byteLength":21180,
			"byteOffset":713316,
			"target":34962
		},
		{
			"buffer":0,
			"byteLength":21180,
			"byteOffset":734496,
			"target":34962
		},
		{
			"buffer":0,
			"byteLength":14120,
			"byteOffset":755676,
			"target":34962
		},
		{
			"buffer":0,
			"byteLength":14120,
			"byteOffset":769796,
			"target":34962
		},
		{
			"buffer":0,
			"byteLength":28240,
			"byteOffset":783916,
			"target":34962
		},
		{
			"buffer":0,
			"byteLength":12540,
			"byteOffset":812156,
			"target":34963
		},
		{
			"buffer":0,
			"byteLength":16920,
			"byteOffset":824696,
			"target":34962
		},
		{
			"buffer":0,
			"byteLength":16920,
			"byteOffset":841616,
			"target":34962
		},
		{
			"buffer":0,
			"byteLength":11280,
			"byteOffset":858536,
			"target":34962
		},
		{
			"buffer":0,
			"byteLength":11280,
			"byteOffset":869816,
			"target":34962
		},
		{
			"buffer":0,
			"byteLength":22560,
			"byteOffset":881096,
			"target":34962
		},
		{
			"buffer":0,
			"byteLength":11214,
			"byteOffset":903656,
			"target":34963
		},
		{
			"buffer":0,
			"byteLength":5568,
			"byteOffset":914872,
			"target":34962
		},
		{
			"buffer":0,
			"byteLength":5568,
			"byteOffset":920440,
			"target":34962
		},
		{
			"buffer":0,
			"byteLength":3712,
			"byteOffset":926008,
			"target":34962
		},
		{
			"buffer":0,
			"byteLength":3712,
			"byteOffset":929720,
			"target":34962
		},
		{
			"buffer":0,
			"byteLength":7424,
			"byteOffset":933432,
			"target":34962
		},
		{
			"buffer":0,
			"byteLength":2580,
			"byteOffset":940856,
			"target":34963
		},
		{
			"buffer":0,
			"byteLength":6240,
			"byteOffset":943436,
			"target":34962
		},
		{
			"buffer":0,
			"byteLength":6240,
			"byteOffset":949676,
			"target":34962
		},
		{
			"buffer":0,
			"byteLength":4160,
			"byteOffset":955916,
			"target":34962
		},
		{
			"buffer":0,
			"byteLength":4160,
			"byteOffset":960076,
			"target":34962
		},
		{
			"buffer":0,
			"byteLength":8320,
			"byteOffset":964236,
			"target":34962
		},
		{
			"buffer":0,
			"byteLength":2736,
			"byteOffset":972556,
			"target":34963
		},
		{
			"buffer":0,
			"byteLength":11640,
			"byteOffset":975292,
			"target":34962
		},
		{
			"buffer":0,
			"byteLength":11640,
			"byteOffset":986932,
			"target":34962
		},
		{
			"buffer":0,
			"byteLength":7760,
			"byteOffset":998572,
			"target":34962
		},
		{
			"buffer":0,
			"byteLength":7760,
			"byteOffset":1006332,
			"target":34962
		},
		{
			"buffer":0,
			"byteLength":7760,
			"byteOffset":1014092,
			"target":34962
		},
		{
			"buffer":0,
			"byteLength":15520,
			"byteOffset":1021852,
			"target":34962
		},
		{
			"buffer":0,
			"byteLength":3880,
			"byteOffset":1037372,
			"target":34962
		},
		{
			"buffer":0,
			"byteLength":11640,
			"byteOffset":1041252,
			"target":34962
		},
		{
			"buffer":0,
			"byteLength":7872,
			"byteOffset":1052892,
			"target":34963
		},
		{
			"buffer":0,
			"byteLength":10788,
			"byteOffset":1060764,
			"target":34962
		},
		{
			"buffer":0,
			"byteLength":10788,
			"byteOffset":1071552,
			"target":34962
		},
		{
			"buffer":0,
			"byteLength":7192,
			"byteOffset":1082340,
			"target":34962
		},
		{
			"buffer":0,
			"byteLength":7192,
			"byteOffset":1089532,
			"target":34962
		},
		{
			"buffer":0,
			"byteLength":14384,
			"byteOffset":1096724,
			"target":34962
		},
		{
			"buffer":0,
			"byteLength":5142,
			"byteOffset":1111108,
			"target":34963
		},
		{
			"buffer":0,
			"byteLength":7548,
			"byteOffset":1116252,
			"target":34962
		},
		{
			"buffer":0,
			"byteLength":7548,
			"byteOffset":1123800,
			"target":34962
		},
		{
			"buffer":0,
			"byteLength":5032,
			"byteOffset":1131348,
			"target":34962
		},
		{
			"buffer":0,
			"byteLength":5032,
			"byteOffset":1136380,
			"target":34962
		},
		{
			"buffer":0,
			"byteLength":10064,
			"byteOffset":1141412,
			"target":34962
		},
		{
			"buffer":0,
			"byteLength":4182,
			"byteOffset":1151476,
			"target":34963
		},
		{
			"buffer":0,
			"byteLength":13524,
			"byteOffset":1155660,
			"target":34962
		},
		{
			"buffer":0,
			"byteLength":13524,
			"byteOffset":1169184,
			"target":34962
		},
		{
			"buffer":0,
			"byteLength":9016,
			"byteOffset":1182708,
			"target":34962
		},
		{
			"buffer":0,
			"byteLength":9016,
			"byteOffset":1191724,
			"target":34962
		},
		{
			"buffer":0,
			"byteLength":18032,
			"byteOffset":1200740,
			"target":34962
		},
		{
			"buffer":0,
			"byteLength":6780,
			"byteOffset":1218772,
			"target":34963
		},
		{
			"buffer":0,
			"byteLength":12060,
			"byteOffset":1225552,
			"target":34962
		},
		{
			"buffer":0,
			"byteLength":12060,
			"byteOffset":1237612,
			"target":34962
		},
		{
			"buffer":0,
			"byteLength":8040,
			"byteOffset":1249672,
			"target":34962
		},
		{
			"buffer":0,
			"byteLength":8040,
			"byteOffset":1257712,
			"target":34962
		},
		{
			"buffer":0,
			"byteLength":16080,
			"byteOffset":1265752,
			"target":34962
		},
		{
			"buffer":0,
			"byteLength":5952,
			"byteOffset":1281832,
			"target":34963
		},
		{
			"buffer":0,
			"byteLength":11652,
			"byteOffset":1287784,
			"target":34962
		},
		{
			"buffer":0,
			"byteLength":11652,
			"byteOffset":1299436,
			"target":34962
		},
		{
			"buffer":0,
			"byteLength":7768,
			"byteOffset":1311088,
			"target":34962
		},
		{
			"buffer":0,
			"byteLength":7768,
			"byteOffset":1318856,
			"target":34962
		},
		{
			"buffer":0,
			"byteLength":15536,
			"byteOffset":1326624,
			"target":34962
		},
		{
			"buffer":0,
			"byteLength":5886,
			"byteOffset":1342160,
			"target":34963
		},
		{
			"buffer":0,
			"byteLength":7800,
			"byteOffset":1348048,
			"target":34962
		},
		{
			"buffer":0,
			"byteLength":7800,
			"byteOffset":1355848,
			"target":34962
		},
		{
			"buffer":0,
			"byteLength":5200,
			"byteOffset":1363648,
			"target":34962
		},
		{
			"buffer":0,
			"byteLength":5200,
			"byteOffset":1368848,
			"target":34962
		},
		{
			"buffer":0,
			"byteLength":10400,
			"byteOffset":1374048,
			"target":34962
		},
		{
			"buffer":0,
			"byteLength":3318,
			"byteOffset":1384448,
			"target":34963
		},
		{
			"buffer":0,
			"byteLength":11580,
			"byteOffset":1387768,
			"target":34962
		},
		{
			"buffer":0,
			"byteLength":11580,
			"byteOffset":1399348,
			"target":34962
		},
		{
			"buffer":0,
			"byteLength":7720,
			"byteOffset":1410928,
			"target":34962
		},
		{
			"buffer":0,
			"byteLength":7720,
			"byteOffset":1418648,
			"target":34962
		},
		{
			"buffer":0,
			"byteLength":15440,
			"byteOffset":1426368,
			"target":34962
		},
		{
			"buffer":0,
			"byteLength":3860,
			"byteOffset":1441808,
			"target":34962
		},
		{
			"buffer":0,
			"byteLength":11580,
			"byteOffset":1445668,
			"target":34962
		},
		{
			"buffer":0,
			"byteLength":5280,
			"byteOffset":1457248,
			"target":34963
		},
		{
			"buffer":0,
			"byteLength":8376,
			"byteOffset":1462528,
			"target":34962
		},
		{
			"buffer":0,
			"byteLength":8376,
			"byteOffset":1470904,
			"target":34962
		},
		{
			"buffer":0,
			"byteLength":5584,
			"byteOffset":1479280,
			"target":34962
		},
		{
			"buffer":0,
			"byteLength":5584,
			"byteOffset":1484864,
			"target":34962
		},
		{
			"buffer":0,
			"byteLength":11168,
			"byteOffset":1490448,
			"target":34962
		},
		{
			"buffer":0,
			"byteLength":4908,
			"byteOffset":1501616,
			"target":34963
		},
		{
			"buffer":0,
			"byteLength":17076,
			"byteOffset":1506524,
			"target":34962
		},
		{
			"buffer":0,
			"byteLength":17076,
			"byteOffset":1523600,
			"target":34962
		},
		{
			"buffer":0,
			"byteLength":11384,
			"byteOffset":1540676,
			"target":34962
		},
		{
			"buffer":0,
			"byteLength":11384,
			"byteOffset":1552060,
			"target":34962
		},
		{
			"buffer":0,
			"byteLength":22768,
			"byteOffset":1563444,
			"target":34962
		},
		{
			"buffer":0,
			"byteLength":6276,
			"byteOffset":1586212,
			"target":34963
		},
		{
			"buffer":0,
			"byteLength":15924,
			"byteOffset":1592488,
			"target":34962
		},
		{
			"buffer":0,
			"byteLength":15924,
			"byteOffset":1608412,
			"target":34962
		},
		{
			"buffer":0,
			"byteLength":10616,
			"byteOffset":1624336,
			"target":34962
		},
		{
			"buffer":0,
			"byteLength":10616,
			"byteOffset":1634952,
			"target":34962
		},
		{
			"buffer":0,
			"byteLength":21232,
			"byteOffset":1645568,
			"target":34962
		},
		{
			"buffer":0,
			"byteLength":7536,
			"byteOffset":1666800,
			"target":34963
		}
	],
	"samplers":[
		{
			"magFilter":9729,
			"minFilter":9987
		}
	],
	"buffers":[
		{
			"byteLength":1674336,
			"uri":"Destroyed_meshes_and_farmtools.bin"
		}
	]
}
