{
	"asset":{
		"generator":"Khronos glTF Blender I/O v4.2.69",
		"version":"2.0"
	},
	"scene":0,
	"scenes":[
		{
			"name":"Scene",
			"nodes":[
				0
			]
		}
	],
	"nodes":[
		{
			"mesh":0,
			"name":"PR_Destroyed_Food_Box_Wood",
			"rotation":[
				0.01932978257536888,
				0.09325818717479706,
				0.18088211119174957,
				0.9788824915885925
			],
			"scale":[
				0.8642672896385193,
				0.8642671704292297,
				0.8642672300338745
			]
		}
	],
	"materials":[
		{
			"doubleSided":true,
			"name":"M_Bull_Food_Flag_Base",
			"normalTexture":{
				"index":0,
				"scale":10
			},
			"pbrMetallicRoughness":{
				"baseColorTexture":{
					"index":1
				},
				"metallicRoughnessTexture":{
					"index":2
				}
			}
		}
	],
	"meshes":[
		{
			"name":"PR_Food_Box_Wood.002_cell.004",
			"primitives":[
				{
					"attributes":{
						"POSITION":0,
						"NORMAL":1,
						"TEXCOORD_0":2,
						"TANGENT":3
					},
					"indices":4,
					"material":0
				}
			]
		}
	],
	"textures":[
		{
			"sampler":0,
			"source":0
		},
		{
			"sampler":0,
			"source":1
		},
		{
			"sampler":0,
			"source":2
		}
	],
	"images":[
		{
			"mimeType":"image/png",
			"name":"All_together_for_material_Material_Normal",
			"uri":"All_together_for_material_Material_Normal.png"
		},
		{
			"mimeType":"image/png",
			"name":"All_together_for_material_Material_BaseColor",
			"uri":"All_together_for_material_Material_BaseColor.png"
		},
		{
			"mimeType":"image/png",
			"name":"All_together_for_material_Material_OcclusionRoughnessMetallic",
			"uri":"All_together_for_material_Material_OcclusionRoughnessMetallic.png"
		}
	],
	"accessors":[
		{
			"bufferView":0,
			"componentType":5126,
			"count":178,
			"max":[
				0.6885139346122742,
				0.35506346821784973,
				0.4934943914413452
			],
			"min":[
				-1.117309808731079,
				-0.36760902404785156,
				-1.1191737651824951
			],
			"type":"VEC3"
		},
		{
			"bufferView":1,
			"componentType":5126,
			"count":178,
			"type":"VEC3"
		},
		{
			"bufferView":2,
			"componentType":5126,
			"count":178,
			"type":"VEC2"
		},
		{
			"bufferView":3,
			"componentType":5126,
			"count":178,
			"type":"VEC4"
		},
		{
			"bufferView":4,
			"componentType":5123,
			"count":417,
			"type":"SCALAR"
		}
	],
	"bufferViews":[
		{
			"buffer":0,
			"byteLength":2136,
			"byteOffset":0,
			"target":34962
		},
		{
			"buffer":0,
			"byteLength":2136,
			"byteOffset":2136,
			"target":34962
		},
		{
			"buffer":0,
			"byteLength":1424,
			"byteOffset":4272,
			"target":34962
		},
		{
			"buffer":0,
			"byteLength":2848,
			"byteOffset":5696,
			"target":34962
		},
		{
			"buffer":0,
			"byteLength":834,
			"byteOffset":8544,
			"target":34963
		}
	],
	"samplers":[
		{
			"magFilter":9729,
			"minFilter":9987
		}
	],
	"buffers":[
		{
			"byteLength":9380,
			"uri":"Destroyed_food_box.bin"
		}
	]
}
