{
	"asset":{
		"generator":"Khronos glTF Blender I/O v4.2.57",
		"version":"2.0"
	},
	"scene":0,
	"scenes":[
		{
			"name":"Scene",
			"nodes":[
				0,
				1,
				2,
				3,
				4,
				5,
				6,
				7,
				8,
				9,
				10,
				11
			]
		}
	],
	"nodes":[
		{
			"mesh":0,
			"name":"EN_FloatingRock_03"
		},
		{
			"mesh":1,
			"name":"EN_FloatingRock_01"
		},
		{
			"mesh":2,
			"name":"EN_FloatingRock_02"
		},
		{
			"mesh":3,
			"name":"EN_FloatingRock_04"
		},
		{
			"mesh":4,
			"name":"EN_FloatingRock_05"
		},
		{
			"mesh":5,
			"name":"EN_FloatingRock_06"
		},
		{
			"mesh":6,
			"name":"EN_FloatingRock_08"
		},
		{
			"mesh":7,
			"name":"EN_FloatingRock_09"
		},
		{
			"mesh":8,
			"name":"EN_FloatingRock_10"
		},
		{
			"mesh":9,
			"name":"EN_FloatingRock_07"
		},
		{
			"mesh":10,
			"name":"EN_FloatingRock_12"
		},
		{
			"mesh":11,
			"name":"EN_FloatingRock_11"
		}
	],
	"materials":[
		{
			"doubleSided":true,
			"name":"M_WaterfallRocks_FloatingRocks",
			"normalTexture":{
				"index":0
			},
			"pbrMetallicRoughness":{
				"baseColorTexture":{
					"index":1
				},
				"metallicRoughnessTexture":{
					"index":2
				}
			}
		}
	],
	"meshes":[
		{
			"name":"Mesh.004",
			"primitives":[
				{
					"attributes":{
						"POSITION":0,
						"NORMAL":1,
						"TEXCOORD_0":2
					},
					"indices":3,
					"material":0
				}
			]
		},
		{
			"name":"Mesh.005",
			"primitives":[
				{
					"attributes":{
						"POSITION":4,
						"NORMAL":5,
						"TEXCOORD_0":6
					},
					"indices":7,
					"material":0
				}
			]
		},
		{
			"name":"Mesh.006",
			"primitives":[
				{
					"attributes":{
						"POSITION":8,
						"NORMAL":9,
						"TEXCOORD_0":10
					},
					"indices":11,
					"material":0
				}
			]
		},
		{
			"name":"Mesh.007",
			"primitives":[
				{
					"attributes":{
						"POSITION":12,
						"NORMAL":13,
						"TEXCOORD_0":14
					},
					"indices":15,
					"material":0
				}
			]
		},
		{
			"name":"Mesh.016",
			"primitives":[
				{
					"attributes":{
						"POSITION":16,
						"NORMAL":17,
						"TEXCOORD_0":18
					},
					"indices":19,
					"material":0
				}
			]
		},
		{
			"name":"Mesh.017",
			"primitives":[
				{
					"attributes":{
						"POSITION":20,
						"NORMAL":21,
						"TEXCOORD_0":22
					},
					"indices":23,
					"material":0
				}
			]
		},
		{
			"name":"Mesh.018",
			"primitives":[
				{
					"attributes":{
						"POSITION":24,
						"NORMAL":25,
						"TEXCOORD_0":26
					},
					"indices":27,
					"material":0
				}
			]
		},
		{
			"name":"Mesh.019",
			"primitives":[
				{
					"attributes":{
						"POSITION":28,
						"NORMAL":29,
						"TEXCOORD_0":30
					},
					"indices":31,
					"material":0
				}
			]
		},
		{
			"name":"Mesh.020",
			"primitives":[
				{
					"attributes":{
						"POSITION":32,
						"NORMAL":33,
						"TEXCOORD_0":34
					},
					"indices":35,
					"material":0
				}
			]
		},
		{
			"name":"Mesh.021",
			"primitives":[
				{
					"attributes":{
						"POSITION":36,
						"NORMAL":37,
						"TEXCOORD_0":38
					},
					"indices":39,
					"material":0
				}
			]
		},
		{
			"name":"Mesh.022",
			"primitives":[
				{
					"attributes":{
						"POSITION":40,
						"NORMAL":41,
						"TEXCOORD_0":42
					},
					"indices":43,
					"material":0
				}
			]
		},
		{
			"name":"Mesh.023",
			"primitives":[
				{
					"attributes":{
						"POSITION":44,
						"NORMAL":45,
						"TEXCOORD_0":46
					},
					"indices":47,
					"material":0
				}
			]
		}
	],
	"textures":[
		{
			"sampler":0,
			"source":0
		},
		{
			"sampler":0,
			"source":1
		},
		{
			"sampler":0,
			"source":2
		}
	],
	"images":[
		{
			"mimeType":"image/png",
			"name":"T_WaterFallRocks_FloatingRocks_Normal",
			"uri":"T_WaterFallRocks_FloatingRocks_Normal.png"
		},
		{
			"mimeType":"image/png",
			"name":"T_WaterFallRocks_FloatingRocks_BaseColor",
			"uri":"T_WaterFallRocks_FloatingRocks_BaseColor.png"
		},
		{
			"mimeType":"image/png",
			"name":"T_WaterFallRocks_FloatingRocks_OcclusionRoughnessMetallic",
			"uri":"T_WaterFallRocks_FloatingRocks_OcclusionRoughnessMetallic.png"
		}
	],
	"accessors":[
		{
			"bufferView":0,
			"componentType":5126,
			"count":97,
			"max":[
				0.21351486444473267,
				0.4038974642753601,
				0.20901381969451904
			],
			"min":[
				-0.3134728670120239,
				-0.2606922388076782,
				-0.18017971515655518
			],
			"type":"VEC3"
		},
		{
			"bufferView":1,
			"componentType":5126,
			"count":97,
			"type":"VEC3"
		},
		{
			"bufferView":2,
			"componentType":5126,
			"count":97,
			"type":"VEC2"
		},
		{
			"bufferView":3,
			"componentType":5123,
			"count":210,
			"type":"SCALAR"
		},
		{
			"bufferView":4,
			"componentType":5126,
			"count":138,
			"max":[
				0.17901980876922607,
				0.679336667060852,
				0.24430322647094727
			],
			"min":[
				-0.29025202989578247,
				-0.5501607656478882,
				-0.31662893295288086
			],
			"type":"VEC3"
		},
		{
			"bufferView":5,
			"componentType":5126,
			"count":138,
			"type":"VEC3"
		},
		{
			"bufferView":6,
			"componentType":5126,
			"count":138,
			"type":"VEC2"
		},
		{
			"bufferView":7,
			"componentType":5123,
			"count":270,
			"type":"SCALAR"
		},
		{
			"bufferView":8,
			"componentType":5126,
			"count":137,
			"max":[
				0.26204755902290344,
				0.6805067658424377,
				0.33668649196624756
			],
			"min":[
				-0.3225335478782654,
				-0.3810370862483978,
				-0.31782689690589905
			],
			"type":"VEC3"
		},
		{
			"bufferView":9,
			"componentType":5126,
			"count":137,
			"type":"VEC3"
		},
		{
			"bufferView":10,
			"componentType":5126,
			"count":137,
			"type":"VEC2"
		},
		{
			"bufferView":11,
			"componentType":5123,
			"count":300,
			"type":"SCALAR"
		},
		{
			"bufferView":12,
			"componentType":5126,
			"count":138,
			"max":[
				0.3636013865470886,
				0.9951323866844177,
				0.33769655227661133
			],
			"min":[
				-0.43155890703201294,
				-0.24606281518936157,
				-0.4210944175720215
			],
			"type":"VEC3"
		},
		{
			"bufferView":13,
			"componentType":5126,
			"count":138,
			"type":"VEC3"
		},
		{
			"bufferView":14,
			"componentType":5126,
			"count":138,
			"type":"VEC2"
		},
		{
			"bufferView":15,
			"componentType":5123,
			"count":294,
			"type":"SCALAR"
		},
		{
			"bufferView":16,
			"componentType":5126,
			"count":128,
			"max":[
				0.1855122447013855,
				0.4093549847602844,
				0.2693171203136444
			],
			"min":[
				-0.21516092121601105,
				-0.3755365312099457,
				-0.20074039697647095
			],
			"type":"VEC3"
		},
		{
			"bufferView":17,
			"componentType":5126,
			"count":128,
			"type":"VEC3"
		},
		{
			"bufferView":18,
			"componentType":5126,
			"count":128,
			"type":"VEC2"
		},
		{
			"bufferView":19,
			"componentType":5123,
			"count":234,
			"type":"SCALAR"
		},
		{
			"bufferView":20,
			"componentType":5126,
			"count":133,
			"max":[
				0.35293012857437134,
				0.7706107497215271,
				0.35939282178878784
			],
			"min":[
				-0.43010517954826355,
				-0.8832352161407471,
				-0.4501315951347351
			],
			"type":"VEC3"
		},
		{
			"bufferView":21,
			"componentType":5126,
			"count":133,
			"type":"VEC3"
		},
		{
			"bufferView":22,
			"componentType":5126,
			"count":133,
			"type":"VEC2"
		},
		{
			"bufferView":23,
			"componentType":5123,
			"count":264,
			"type":"SCALAR"
		},
		{
			"bufferView":24,
			"componentType":5126,
			"count":66,
			"max":[
				0.25874051451683044,
				0.14959070086479187,
				0.3377690613269806
			],
			"min":[
				-0.2977263629436493,
				-0.11204838007688522,
				-0.2313685268163681
			],
			"type":"VEC3"
		},
		{
			"bufferView":25,
			"componentType":5126,
			"count":66,
			"type":"VEC3"
		},
		{
			"bufferView":26,
			"componentType":5126,
			"count":66,
			"type":"VEC2"
		},
		{
			"bufferView":27,
			"componentType":5123,
			"count":102,
			"type":"SCALAR"
		},
		{
			"bufferView":28,
			"componentType":5126,
			"count":63,
			"max":[
				-0.7052279710769653,
				0.11805111914873123,
				0.3420363664627075
			],
			"min":[
				-1.4426014423370361,
				-0.10582445561885834,
				-0.2971120774745941
			],
			"type":"VEC3"
		},
		{
			"bufferView":29,
			"componentType":5126,
			"count":63,
			"type":"VEC3"
		},
		{
			"bufferView":30,
			"componentType":5126,
			"count":63,
			"type":"VEC2"
		},
		{
			"bufferView":31,
			"componentType":5123,
			"count":108,
			"type":"SCALAR"
		},
		{
			"bufferView":32,
			"componentType":5126,
			"count":141,
			"max":[
				0.7715725898742676,
				0.18262827396392822,
				0.718024492263794
			],
			"min":[
				-0.7871379256248474,
				-0.20753313601016998,
				-0.782971203327179
			],
			"type":"VEC3"
		},
		{
			"bufferView":33,
			"componentType":5126,
			"count":141,
			"type":"VEC3"
		},
		{
			"bufferView":34,
			"componentType":5126,
			"count":141,
			"type":"VEC2"
		},
		{
			"bufferView":35,
			"componentType":5123,
			"count":252,
			"type":"SCALAR"
		},
		{
			"bufferView":36,
			"componentType":5126,
			"count":119,
			"max":[
				0.17074279487133026,
				0.4093552827835083,
				0.261737197637558
			],
			"min":[
				-0.22687819600105286,
				-0.3755362331867218,
				-0.213439479470253
			],
			"type":"VEC3"
		},
		{
			"bufferView":37,
			"componentType":5126,
			"count":119,
			"type":"VEC3"
		},
		{
			"bufferView":38,
			"componentType":5126,
			"count":119,
			"type":"VEC2"
		},
		{
			"bufferView":39,
			"componentType":5123,
			"count":234,
			"type":"SCALAR"
		},
		{
			"bufferView":40,
			"componentType":5126,
			"count":109,
			"max":[
				0.36855876445770264,
				0.07801884412765503,
				0.40383049845695496
			],
			"min":[
				-0.35544174909591675,
				-0.060305990278720856,
				-0.30029430985450745
			],
			"type":"VEC3"
		},
		{
			"bufferView":41,
			"componentType":5126,
			"count":109,
			"type":"VEC3"
		},
		{
			"bufferView":42,
			"componentType":5126,
			"count":109,
			"type":"VEC2"
		},
		{
			"bufferView":43,
			"componentType":5123,
			"count":180,
			"type":"SCALAR"
		},
		{
			"bufferView":44,
			"componentType":5126,
			"count":73,
			"max":[
				0.6820412278175354,
				0.17375798523426056,
				0.5219395756721497
			],
			"min":[
				-0.6261442303657532,
				-0.13260111212730408,
				-0.516692578792572
			],
			"type":"VEC3"
		},
		{
			"bufferView":45,
			"componentType":5126,
			"count":73,
			"type":"VEC3"
		},
		{
			"bufferView":46,
			"componentType":5126,
			"count":73,
			"type":"VEC2"
		},
		{
			"bufferView":47,
			"componentType":5123,
			"count":132,
			"type":"SCALAR"
		}
	],
	"bufferViews":[
		{
			"buffer":0,
			"byteLength":1164,
			"byteOffset":0,
			"target":34962
		},
		{
			"buffer":0,
			"byteLength":1164,
			"byteOffset":1164,
			"target":34962
		},
		{
			"buffer":0,
			"byteLength":776,
			"byteOffset":2328,
			"target":34962
		},
		{
			"buffer":0,
			"byteLength":420,
			"byteOffset":3104,
			"target":34963
		},
		{
			"buffer":0,
			"byteLength":1656,
			"byteOffset":3524,
			"target":34962
		},
		{
			"buffer":0,
			"byteLength":1656,
			"byteOffset":5180,
			"target":34962
		},
		{
			"buffer":0,
			"byteLength":1104,
			"byteOffset":6836,
			"target":34962
		},
		{
			"buffer":0,
			"byteLength":540,
			"byteOffset":7940,
			"target":34963
		},
		{
			"buffer":0,
			"byteLength":1644,
			"byteOffset":8480,
			"target":34962
		},
		{
			"buffer":0,
			"byteLength":1644,
			"byteOffset":10124,
			"target":34962
		},
		{
			"buffer":0,
			"byteLength":1096,
			"byteOffset":11768,
			"target":34962
		},
		{
			"buffer":0,
			"byteLength":600,
			"byteOffset":12864,
			"target":34963
		},
		{
			"buffer":0,
			"byteLength":1656,
			"byteOffset":13464,
			"target":34962
		},
		{
			"buffer":0,
			"byteLength":1656,
			"byteOffset":15120,
			"target":34962
		},
		{
			"buffer":0,
			"byteLength":1104,
			"byteOffset":16776,
			"target":34962
		},
		{
			"buffer":0,
			"byteLength":588,
			"byteOffset":17880,
			"target":34963
		},
		{
			"buffer":0,
			"byteLength":1536,
			"byteOffset":18468,
			"target":34962
		},
		{
			"buffer":0,
			"byteLength":1536,
			"byteOffset":20004,
			"target":34962
		},
		{
			"buffer":0,
			"byteLength":1024,
			"byteOffset":21540,
			"target":34962
		},
		{
			"buffer":0,
			"byteLength":468,
			"byteOffset":22564,
			"target":34963
		},
		{
			"buffer":0,
			"byteLength":1596,
			"byteOffset":23032,
			"target":34962
		},
		{
			"buffer":0,
			"byteLength":1596,
			"byteOffset":24628,
			"target":34962
		},
		{
			"buffer":0,
			"byteLength":1064,
			"byteOffset":26224,
			"target":34962
		},
		{
			"buffer":0,
			"byteLength":528,
			"byteOffset":27288,
			"target":34963
		},
		{
			"buffer":0,
			"byteLength":792,
			"byteOffset":27816,
			"target":34962
		},
		{
			"buffer":0,
			"byteLength":792,
			"byteOffset":28608,
			"target":34962
		},
		{
			"buffer":0,
			"byteLength":528,
			"byteOffset":29400,
			"target":34962
		},
		{
			"buffer":0,
			"byteLength":204,
			"byteOffset":29928,
			"target":34963
		},
		{
			"buffer":0,
			"byteLength":756,
			"byteOffset":30132,
			"target":34962
		},
		{
			"buffer":0,
			"byteLength":756,
			"byteOffset":30888,
			"target":34962
		},
		{
			"buffer":0,
			"byteLength":504,
			"byteOffset":31644,
			"target":34962
		},
		{
			"buffer":0,
			"byteLength":216,
			"byteOffset":32148,
			"target":34963
		},
		{
			"buffer":0,
			"byteLength":1692,
			"byteOffset":32364,
			"target":34962
		},
		{
			"buffer":0,
			"byteLength":1692,
			"byteOffset":34056,
			"target":34962
		},
		{
			"buffer":0,
			"byteLength":1128,
			"byteOffset":35748,
			"target":34962
		},
		{
			"buffer":0,
			"byteLength":504,
			"byteOffset":36876,
			"target":34963
		},
		{
			"buffer":0,
			"byteLength":1428,
			"byteOffset":37380,
			"target":34962
		},
		{
			"buffer":0,
			"byteLength":1428,
			"byteOffset":38808,
			"target":34962
		},
		{
			"buffer":0,
			"byteLength":952,
			"byteOffset":40236,
			"target":34962
		},
		{
			"buffer":0,
			"byteLength":468,
			"byteOffset":41188,
			"target":34963
		},
		{
			"buffer":0,
			"byteLength":1308,
			"byteOffset":41656,
			"target":34962
		},
		{
			"buffer":0,
			"byteLength":1308,
			"byteOffset":42964,
			"target":34962
		},
		{
			"buffer":0,
			"byteLength":872,
			"byteOffset":44272,
			"target":34962
		},
		{
			"buffer":0,
			"byteLength":360,
			"byteOffset":45144,
			"target":34963
		},
		{
			"buffer":0,
			"byteLength":876,
			"byteOffset":45504,
			"target":34962
		},
		{
			"buffer":0,
			"byteLength":876,
			"byteOffset":46380,
			"target":34962
		},
		{
			"buffer":0,
			"byteLength":584,
			"byteOffset":47256,
			"target":34962
		},
		{
			"buffer":0,
			"byteLength":264,
			"byteOffset":47840,
			"target":34963
		}
	],
	"samplers":[
		{
			"magFilter":9729,
			"minFilter":9987
		}
	],
	"buffers":[
		{
			"byteLength":48104,
			"uri":"EN_FloatingRocks_GLTF.bin"
		}
	]
}
