{
	"asset":{
		"generator":"Khronos glTF Blender I/O v4.2.57",
		"version":"2.0"
	},
	"scene":0,
	"scenes":[
		{
			"name":"Scene",
			"nodes":[
				0,
				1,
				2,
				3,
				4,
				5,
				6,
				7,
				8,
				9,
				10,
				11
			]
		}
	],
	"nodes":[
		{
			"mesh":0,
			"name":"EN_FloatingRock_03"
		},
		{
			"mesh":1,
			"name":"EN_FloatingRock_01"
		},
		{
			"mesh":2,
			"name":"EN_FloatingRock_02"
		},
		{
			"mesh":3,
			"name":"EN_FloatingRock_04"
		},
		{
			"mesh":4,
			"name":"EN_FloatingRock_05",
			"translation":[
				-0.31749391555786133,
				0,
				0
			]
		},
		{
			"mesh":5,
			"name":"EN_FloatingRock_06"
		},
		{
			"mesh":6,
			"name":"EN_FloatingRock_08"
		},
		{
			"mesh":7,
			"name":"EN_FloatingRock_09"
		},
		{
			"mesh":8,
			"name":"EN_FloatingRock_10"
		},
		{
			"mesh":9,
			"name":"EN_FloatingRock_07"
		},
		{
			"mesh":10,
			"name":"EN_FloatingRock_12"
		},
		{
			"mesh":11,
			"name":"EN_FloatingRock_11"
		}
	],
	"materials":[
		{
			"doubleSided":true,
			"name":"M_WaterfallRocks_FloatingRocks",
			"normalTexture":{
				"index":0
			},
			"pbrMetallicRoughness":{
				"baseColorTexture":{
					"index":1
				},
				"metallicRoughnessTexture":{
					"index":2
				}
			}
		}
	],
	"meshes":[
		{
			"name":"Mesh.004",
			"primitives":[
				{
					"attributes":{
						"POSITION":0,
						"NORMAL":1,
						"TEXCOORD_0":2,
						"TANGENT":3
					},
					"indices":4,
					"material":0
				}
			]
		},
		{
			"name":"Mesh.005",
			"primitives":[
				{
					"attributes":{
						"POSITION":5,
						"NORMAL":6,
						"TEXCOORD_0":7,
						"TANGENT":8
					},
					"indices":9,
					"material":0
				}
			]
		},
		{
			"name":"Mesh.006",
			"primitives":[
				{
					"attributes":{
						"POSITION":10,
						"NORMAL":11,
						"TEXCOORD_0":12,
						"TANGENT":13
					},
					"indices":14,
					"material":0
				}
			]
		},
		{
			"name":"Mesh.007",
			"primitives":[
				{
					"attributes":{
						"POSITION":15,
						"NORMAL":16,
						"TEXCOORD_0":17,
						"TANGENT":18
					},
					"indices":19,
					"material":0
				}
			]
		},
		{
			"name":"Mesh.016",
			"primitives":[
				{
					"attributes":{
						"POSITION":20,
						"NORMAL":21,
						"TEXCOORD_0":22,
						"TANGENT":23
					},
					"indices":24,
					"material":0
				}
			]
		},
		{
			"name":"Mesh.017",
			"primitives":[
				{
					"attributes":{
						"POSITION":25,
						"NORMAL":26,
						"TEXCOORD_0":27,
						"TANGENT":28
					},
					"indices":29,
					"material":0
				}
			]
		},
		{
			"name":"Mesh.018",
			"primitives":[
				{
					"attributes":{
						"POSITION":30,
						"NORMAL":31,
						"TEXCOORD_0":32,
						"TANGENT":33
					},
					"indices":34,
					"material":0
				}
			]
		},
		{
			"name":"Mesh.019",
			"primitives":[
				{
					"attributes":{
						"POSITION":35,
						"NORMAL":36,
						"TEXCOORD_0":37,
						"TANGENT":38
					},
					"indices":39,
					"material":0
				}
			]
		},
		{
			"name":"Mesh.020",
			"primitives":[
				{
					"attributes":{
						"POSITION":40,
						"NORMAL":41,
						"TEXCOORD_0":42,
						"TANGENT":43
					},
					"indices":44,
					"material":0
				}
			]
		},
		{
			"name":"Mesh.021",
			"primitives":[
				{
					"attributes":{
						"POSITION":45,
						"NORMAL":46,
						"TEXCOORD_0":47,
						"TANGENT":48
					},
					"indices":49,
					"material":0
				}
			]
		},
		{
			"name":"Mesh.022",
			"primitives":[
				{
					"attributes":{
						"POSITION":50,
						"NORMAL":51,
						"TEXCOORD_0":52,
						"TANGENT":53
					},
					"indices":54,
					"material":0
				}
			]
		},
		{
			"name":"Mesh.023",
			"primitives":[
				{
					"attributes":{
						"POSITION":55,
						"NORMAL":56,
						"TEXCOORD_0":57,
						"TANGENT":58
					},
					"indices":59,
					"material":0
				}
			]
		}
	],
	"textures":[
		{
			"sampler":0,
			"source":0
		},
		{
			"sampler":0,
			"source":1
		},
		{
			"sampler":0,
			"source":2
		}
	],
	"images":[
		{
			"mimeType":"image/png",
			"name":"T_WaterFallRocks_FloatingRocks_Normal",
			"uri":"T_WaterFallRocks_FloatingRocks_Normal.png"
		},
		{
			"mimeType":"image/png",
			"name":"T_WaterFallRocks_FloatingRocks_BaseColor",
			"uri":"T_WaterFallRocks_FloatingRocks_BaseColor.png"
		},
		{
			"mimeType":"image/png",
			"name":"T_WaterFallRocks_FloatingRocks_OcclusionRoughnessMetallic",
			"uri":"T_WaterFallRocks_FloatingRocks_OcclusionRoughnessMetallic.png"
		}
	],
	"accessors":[
		{
			"bufferView":0,
			"componentType":5126,
			"count":50,
			"max":[
				0.21351486444473267,
				0.4038974642753601,
				0.20901381969451904
			],
			"min":[
				-0.3134728670120239,
				-0.2606922388076782,
				-0.18017971515655518
			],
			"type":"VEC3"
		},
		{
			"bufferView":1,
			"componentType":5126,
			"count":50,
			"type":"VEC3"
		},
		{
			"bufferView":2,
			"componentType":5126,
			"count":50,
			"type":"VEC2"
		},
		{
			"bufferView":3,
			"componentType":5126,
			"count":50,
			"type":"VEC4"
		},
		{
			"bufferView":4,
			"componentType":5123,
			"count":210,
			"type":"SCALAR"
		},
		{
			"bufferView":5,
			"componentType":5126,
			"count":61,
			"max":[
				0.17901980876922607,
				0.679336667060852,
				0.24430322647094727
			],
			"min":[
				-0.29025202989578247,
				-0.5501607656478882,
				-0.31662893295288086
			],
			"type":"VEC3"
		},
		{
			"bufferView":6,
			"componentType":5126,
			"count":61,
			"type":"VEC3"
		},
		{
			"bufferView":7,
			"componentType":5126,
			"count":61,
			"type":"VEC2"
		},
		{
			"bufferView":8,
			"componentType":5126,
			"count":61,
			"type":"VEC4"
		},
		{
			"bufferView":9,
			"componentType":5123,
			"count":270,
			"type":"SCALAR"
		},
		{
			"bufferView":10,
			"componentType":5126,
			"count":72,
			"max":[
				0.26204755902290344,
				0.6805067658424377,
				0.33668649196624756
			],
			"min":[
				-0.3225335478782654,
				-0.3810370862483978,
				-0.31782689690589905
			],
			"type":"VEC3"
		},
		{
			"bufferView":11,
			"componentType":5126,
			"count":72,
			"type":"VEC3"
		},
		{
			"bufferView":12,
			"componentType":5126,
			"count":72,
			"type":"VEC2"
		},
		{
			"bufferView":13,
			"componentType":5126,
			"count":72,
			"type":"VEC4"
		},
		{
			"bufferView":14,
			"componentType":5123,
			"count":300,
			"type":"SCALAR"
		},
		{
			"bufferView":15,
			"componentType":5126,
			"count":71,
			"max":[
				0.3636013865470886,
				0.9951323866844177,
				0.33769655227661133
			],
			"min":[
				-0.43155890703201294,
				-0.24606281518936157,
				-0.4210944175720215
			],
			"type":"VEC3"
		},
		{
			"bufferView":16,
			"componentType":5126,
			"count":71,
			"type":"VEC3"
		},
		{
			"bufferView":17,
			"componentType":5126,
			"count":71,
			"type":"VEC2"
		},
		{
			"bufferView":18,
			"componentType":5126,
			"count":71,
			"type":"VEC4"
		},
		{
			"bufferView":19,
			"componentType":5123,
			"count":294,
			"type":"SCALAR"
		},
		{
			"bufferView":20,
			"componentType":5126,
			"count":234,
			"max":[
				0.1855122447013855,
				0.4093549847602844,
				0.2693171203136444
			],
			"min":[
				-0.21516092121601105,
				-0.3755365312099457,
				-0.20074039697647095
			],
			"type":"VEC3"
		},
		{
			"bufferView":21,
			"componentType":5126,
			"count":234,
			"type":"VEC3"
		},
		{
			"bufferView":22,
			"componentType":5126,
			"count":234,
			"type":"VEC2"
		},
		{
			"bufferView":23,
			"componentType":5126,
			"count":234,
			"type":"VEC4"
		},
		{
			"bufferView":24,
			"componentType":5123,
			"count":234,
			"type":"SCALAR"
		},
		{
			"bufferView":25,
			"componentType":5126,
			"count":264,
			"max":[
				0.35293012857437134,
				0.7706107497215271,
				0.35939282178878784
			],
			"min":[
				-0.43010517954826355,
				-0.8832352161407471,
				-0.4501315951347351
			],
			"type":"VEC3"
		},
		{
			"bufferView":26,
			"componentType":5126,
			"count":264,
			"type":"VEC3"
		},
		{
			"bufferView":27,
			"componentType":5126,
			"count":264,
			"type":"VEC2"
		},
		{
			"bufferView":28,
			"componentType":5126,
			"count":264,
			"type":"VEC4"
		},
		{
			"bufferView":29,
			"componentType":5123,
			"count":264,
			"type":"SCALAR"
		},
		{
			"bufferView":30,
			"componentType":5126,
			"count":102,
			"max":[
				0.25874051451683044,
				0.14959070086479187,
				0.3377690613269806
			],
			"min":[
				-0.2977263629436493,
				-0.11204838007688522,
				-0.2313685268163681
			],
			"type":"VEC3"
		},
		{
			"bufferView":31,
			"componentType":5126,
			"count":102,
			"type":"VEC3"
		},
		{
			"bufferView":32,
			"componentType":5126,
			"count":102,
			"type":"VEC2"
		},
		{
			"bufferView":33,
			"componentType":5126,
			"count":102,
			"type":"VEC4"
		},
		{
			"bufferView":34,
			"componentType":5123,
			"count":102,
			"type":"SCALAR"
		},
		{
			"bufferView":35,
			"componentType":5126,
			"count":108,
			"max":[
				-0.7052279710769653,
				0.11805111914873123,
				0.3420363664627075
			],
			"min":[
				-1.4426014423370361,
				-0.10582445561885834,
				-0.2971120774745941
			],
			"type":"VEC3"
		},
		{
			"bufferView":36,
			"componentType":5126,
			"count":108,
			"type":"VEC3"
		},
		{
			"bufferView":37,
			"componentType":5126,
			"count":108,
			"type":"VEC2"
		},
		{
			"bufferView":38,
			"componentType":5126,
			"count":108,
			"type":"VEC4"
		},
		{
			"bufferView":39,
			"componentType":5123,
			"count":108,
			"type":"SCALAR"
		},
		{
			"bufferView":40,
			"componentType":5126,
			"count":252,
			"max":[
				0.7715725898742676,
				0.18262827396392822,
				0.718024492263794
			],
			"min":[
				-0.7871379256248474,
				-0.20753313601016998,
				-0.782971203327179
			],
			"type":"VEC3"
		},
		{
			"bufferView":41,
			"componentType":5126,
			"count":252,
			"type":"VEC3"
		},
		{
			"bufferView":42,
			"componentType":5126,
			"count":252,
			"type":"VEC2"
		},
		{
			"bufferView":43,
			"componentType":5126,
			"count":252,
			"type":"VEC4"
		},
		{
			"bufferView":44,
			"componentType":5123,
			"count":252,
			"type":"SCALAR"
		},
		{
			"bufferView":45,
			"componentType":5126,
			"count":234,
			"max":[
				0.17074279487133026,
				0.4093552827835083,
				0.261737197637558
			],
			"min":[
				-0.22687819600105286,
				-0.3755362331867218,
				-0.213439479470253
			],
			"type":"VEC3"
		},
		{
			"bufferView":46,
			"componentType":5126,
			"count":234,
			"type":"VEC3"
		},
		{
			"bufferView":47,
			"componentType":5126,
			"count":234,
			"type":"VEC2"
		},
		{
			"bufferView":48,
			"componentType":5126,
			"count":234,
			"type":"VEC4"
		},
		{
			"bufferView":49,
			"componentType":5123,
			"count":234,
			"type":"SCALAR"
		},
		{
			"bufferView":50,
			"componentType":5126,
			"count":180,
			"max":[
				0.36855876445770264,
				0.07801884412765503,
				0.40383049845695496
			],
			"min":[
				-0.35544174909591675,
				-0.060305990278720856,
				-0.30029430985450745
			],
			"type":"VEC3"
		},
		{
			"bufferView":51,
			"componentType":5126,
			"count":180,
			"type":"VEC3"
		},
		{
			"bufferView":52,
			"componentType":5126,
			"count":180,
			"type":"VEC2"
		},
		{
			"bufferView":53,
			"componentType":5126,
			"count":180,
			"type":"VEC4"
		},
		{
			"bufferView":54,
			"componentType":5123,
			"count":180,
			"type":"SCALAR"
		},
		{
			"bufferView":55,
			"componentType":5126,
			"count":130,
			"max":[
				0.6820412278175354,
				0.17375798523426056,
				0.5219395756721497
			],
			"min":[
				-0.6261442303657532,
				-0.13260111212730408,
				-0.516692578792572
			],
			"type":"VEC3"
		},
		{
			"bufferView":56,
			"componentType":5126,
			"count":130,
			"type":"VEC3"
		},
		{
			"bufferView":57,
			"componentType":5126,
			"count":130,
			"type":"VEC2"
		},
		{
			"bufferView":58,
			"componentType":5126,
			"count":130,
			"type":"VEC4"
		},
		{
			"bufferView":59,
			"componentType":5123,
			"count":132,
			"type":"SCALAR"
		}
	],
	"bufferViews":[
		{
			"buffer":0,
			"byteLength":600,
			"byteOffset":0,
			"target":34962
		},
		{
			"buffer":0,
			"byteLength":600,
			"byteOffset":600,
			"target":34962
		},
		{
			"buffer":0,
			"byteLength":400,
			"byteOffset":1200,
			"target":34962
		},
		{
			"buffer":0,
			"byteLength":800,
			"byteOffset":1600,
			"target":34962
		},
		{
			"buffer":0,
			"byteLength":420,
			"byteOffset":2400,
			"target":34963
		},
		{
			"buffer":0,
			"byteLength":732,
			"byteOffset":2820,
			"target":34962
		},
		{
			"buffer":0,
			"byteLength":732,
			"byteOffset":3552,
			"target":34962
		},
		{
			"buffer":0,
			"byteLength":488,
			"byteOffset":4284,
			"target":34962
		},
		{
			"buffer":0,
			"byteLength":976,
			"byteOffset":4772,
			"target":34962
		},
		{
			"buffer":0,
			"byteLength":540,
			"byteOffset":5748,
			"target":34963
		},
		{
			"buffer":0,
			"byteLength":864,
			"byteOffset":6288,
			"target":34962
		},
		{
			"buffer":0,
			"byteLength":864,
			"byteOffset":7152,
			"target":34962
		},
		{
			"buffer":0,
			"byteLength":576,
			"byteOffset":8016,
			"target":34962
		},
		{
			"buffer":0,
			"byteLength":1152,
			"byteOffset":8592,
			"target":34962
		},
		{
			"buffer":0,
			"byteLength":600,
			"byteOffset":9744,
			"target":34963
		},
		{
			"buffer":0,
			"byteLength":852,
			"byteOffset":10344,
			"target":34962
		},
		{
			"buffer":0,
			"byteLength":852,
			"byteOffset":11196,
			"target":34962
		},
		{
			"buffer":0,
			"byteLength":568,
			"byteOffset":12048,
			"target":34962
		},
		{
			"buffer":0,
			"byteLength":1136,
			"byteOffset":12616,
			"target":34962
		},
		{
			"buffer":0,
			"byteLength":588,
			"byteOffset":13752,
			"target":34963
		},
		{
			"buffer":0,
			"byteLength":2808,
			"byteOffset":14340,
			"target":34962
		},
		{
			"buffer":0,
			"byteLength":2808,
			"byteOffset":17148,
			"target":34962
		},
		{
			"buffer":0,
			"byteLength":1872,
			"byteOffset":19956,
			"target":34962
		},
		{
			"buffer":0,
			"byteLength":3744,
			"byteOffset":21828,
			"target":34962
		},
		{
			"buffer":0,
			"byteLength":468,
			"byteOffset":25572,
			"target":34963
		},
		{
			"buffer":0,
			"byteLength":3168,
			"byteOffset":26040,
			"target":34962
		},
		{
			"buffer":0,
			"byteLength":3168,
			"byteOffset":29208,
			"target":34962
		},
		{
			"buffer":0,
			"byteLength":2112,
			"byteOffset":32376,
			"target":34962
		},
		{
			"buffer":0,
			"byteLength":4224,
			"byteOffset":34488,
			"target":34962
		},
		{
			"buffer":0,
			"byteLength":528,
			"byteOffset":38712,
			"target":34963
		},
		{
			"buffer":0,
			"byteLength":1224,
			"byteOffset":39240,
			"target":34962
		},
		{
			"buffer":0,
			"byteLength":1224,
			"byteOffset":40464,
			"target":34962
		},
		{
			"buffer":0,
			"byteLength":816,
			"byteOffset":41688,
			"target":34962
		},
		{
			"buffer":0,
			"byteLength":1632,
			"byteOffset":42504,
			"target":34962
		},
		{
			"buffer":0,
			"byteLength":204,
			"byteOffset":44136,
			"target":34963
		},
		{
			"buffer":0,
			"byteLength":1296,
			"byteOffset":44340,
			"target":34962
		},
		{
			"buffer":0,
			"byteLength":1296,
			"byteOffset":45636,
			"target":34962
		},
		{
			"buffer":0,
			"byteLength":864,
			"byteOffset":46932,
			"target":34962
		},
		{
			"buffer":0,
			"byteLength":1728,
			"byteOffset":47796,
			"target":34962
		},
		{
			"buffer":0,
			"byteLength":216,
			"byteOffset":49524,
			"target":34963
		},
		{
			"buffer":0,
			"byteLength":3024,
			"byteOffset":49740,
			"target":34962
		},
		{
			"buffer":0,
			"byteLength":3024,
			"byteOffset":52764,
			"target":34962
		},
		{
			"buffer":0,
			"byteLength":2016,
			"byteOffset":55788,
			"target":34962
		},
		{
			"buffer":0,
			"byteLength":4032,
			"byteOffset":57804,
			"target":34962
		},
		{
			"buffer":0,
			"byteLength":504,
			"byteOffset":61836,
			"target":34963
		},
		{
			"buffer":0,
			"byteLength":2808,
			"byteOffset":62340,
			"target":34962
		},
		{
			"buffer":0,
			"byteLength":2808,
			"byteOffset":65148,
			"target":34962
		},
		{
			"buffer":0,
			"byteLength":1872,
			"byteOffset":67956,
			"target":34962
		},
		{
			"buffer":0,
			"byteLength":3744,
			"byteOffset":69828,
			"target":34962
		},
		{
			"buffer":0,
			"byteLength":468,
			"byteOffset":73572,
			"target":34963
		},
		{
			"buffer":0,
			"byteLength":2160,
			"byteOffset":74040,
			"target":34962
		},
		{
			"buffer":0,
			"byteLength":2160,
			"byteOffset":76200,
			"target":34962
		},
		{
			"buffer":0,
			"byteLength":1440,
			"byteOffset":78360,
			"target":34962
		},
		{
			"buffer":0,
			"byteLength":2880,
			"byteOffset":79800,
			"target":34962
		},
		{
			"buffer":0,
			"byteLength":360,
			"byteOffset":82680,
			"target":34963
		},
		{
			"buffer":0,
			"byteLength":1560,
			"byteOffset":83040,
			"target":34962
		},
		{
			"buffer":0,
			"byteLength":1560,
			"byteOffset":84600,
			"target":34962
		},
		{
			"buffer":0,
			"byteLength":1040,
			"byteOffset":86160,
			"target":34962
		},
		{
			"buffer":0,
			"byteLength":2080,
			"byteOffset":87200,
			"target":34962
		},
		{
			"buffer":0,
			"byteLength":264,
			"byteOffset":89280,
			"target":34963
		}
	],
	"samplers":[
		{
			"magFilter":9729,
			"minFilter":9987
		}
	],
	"buffers":[
		{
			"byteLength":89544,
			"uri":"EN_FloatingRocks_GLTF.bin"
		}
	]
}
