{
	"asset":{
		"generator":"Khronos glTF Blender I/O v4.4.56",
		"version":"2.0"
	},
	"extensionsUsed":[
		"KHR_materials_specular"
	],
	"scene":0,
	"scenes":[
		{
			"name":"Scene",
			"nodes":[
				0,
				1,
				2,
				3,
				4,
				5,
				6,
				7,
				8,
				9,
				10,
				11,
				12,
				13,
				14,
				15,
				16,
				17
			]
		}
	],
	"nodes":[
		{
			"mesh":0,
			"name":"SM_Island_4_down"
		},
		{
			"mesh":1,
			"name":"SM_Island_4_L"
		},
		{
			"mesh":2,
			"name":"SM_Island_4"
		},
		{
			"mesh":3,
			"name":"SM_Island_3_top"
		},
		{
			"mesh":4,
			"name":"SM_Island_3_right"
		},
		{
			"mesh":5,
			"name":"SM_Island_3_down"
		},
		{
			"mesh":6,
			"name":"SM_Island_3_bottom_2"
		},
		{
			"mesh":7,
			"name":"SM_Island_3_bottom_1"
		},
		{
			"mesh":8,
			"name":"SM_Island_3"
		},
		{
			"mesh":9,
			"name":"SM_Island_2_tree_back"
		},
		{
			"mesh":10,
			"name":"SM_Island_2_tree"
		},
		{
			"mesh":11,
			"name":"SM_Island_2_top"
		},
		{
			"mesh":12,
			"name":"SM_Island_2_Left"
		},
		{
			"mesh":13,
			"name":"SM_Island_2_Front"
		},
		{
			"mesh":14,
			"name":"SM_Island_2_Back"
		},
		{
			"mesh":15,
			"name":"SM_Island_2"
		},
		{
			"mesh":16,
			"name":"SM_Island_1_Left"
		},
		{
			"mesh":17,
			"name":"SM_Island_1"
		}
	],
	"materials":[
		{
			"doubleSided":true,
			"extensions":{
				"KHR_materials_specular":{
					"specularColorFactor":[
						2.0,
						2.0,
						2.0
					]
				}
			},
			"name":"M_lvl1_Islands",
			"pbrMetallicRoughness":{
				"baseColorTexture":{
					"index":0
				},
				"metallicFactor":0,
				"roughnessFactor":0.5527864098548889
			}
		}
	],
	"meshes":[
		{
			"name":"Mesh",
			"primitives":[
				{
					"attributes":{
						"POSITION":0,
						"NORMAL":1,
						"TEXCOORD_0":2,
						"TANGENT":3
					},
					"indices":4,
					"material":0
				}
			]
		},
		{
			"name":"Mesh.001",
			"primitives":[
				{
					"attributes":{
						"POSITION":5,
						"NORMAL":6,
						"TEXCOORD_0":7,
						"TANGENT":8
					},
					"indices":9,
					"material":0
				}
			]
		},
		{
			"name":"Mesh.002",
			"primitives":[
				{
					"attributes":{
						"POSITION":10,
						"NORMAL":11,
						"TEXCOORD_0":12,
						"TANGENT":13
					},
					"indices":14,
					"material":0
				}
			]
		},
		{
			"name":"Mesh.003",
			"primitives":[
				{
					"attributes":{
						"POSITION":15,
						"NORMAL":16,
						"TEXCOORD_0":17,
						"TANGENT":18
					},
					"indices":19,
					"material":0
				}
			]
		},
		{
			"name":"Mesh.004",
			"primitives":[
				{
					"attributes":{
						"POSITION":20,
						"NORMAL":21,
						"TEXCOORD_0":22,
						"TANGENT":23
					},
					"indices":24,
					"material":0
				}
			]
		},
		{
			"name":"Mesh.005",
			"primitives":[
				{
					"attributes":{
						"POSITION":25,
						"NORMAL":26,
						"TEXCOORD_0":27,
						"TANGENT":28
					},
					"indices":29,
					"material":0
				}
			]
		},
		{
			"name":"Mesh.006",
			"primitives":[
				{
					"attributes":{
						"POSITION":30,
						"NORMAL":31,
						"TEXCOORD_0":32,
						"TANGENT":33
					},
					"indices":34,
					"material":0
				}
			]
		},
		{
			"name":"Mesh.007",
			"primitives":[
				{
					"attributes":{
						"POSITION":35,
						"NORMAL":36,
						"TEXCOORD_0":37,
						"TANGENT":38
					},
					"indices":39,
					"material":0
				}
			]
		},
		{
			"name":"Mesh.008",
			"primitives":[
				{
					"attributes":{
						"POSITION":40,
						"NORMAL":41,
						"TEXCOORD_0":42,
						"TANGENT":43
					},
					"indices":44,
					"material":0
				}
			]
		},
		{
			"name":"Mesh.009",
			"primitives":[
				{
					"attributes":{
						"POSITION":45,
						"NORMAL":46,
						"TEXCOORD_0":47,
						"TANGENT":48
					},
					"indices":49,
					"material":0
				}
			]
		},
		{
			"name":"Mesh.010",
			"primitives":[
				{
					"attributes":{
						"POSITION":50,
						"NORMAL":51,
						"TEXCOORD_0":52,
						"TANGENT":53
					},
					"indices":54,
					"material":0
				}
			]
		},
		{
			"name":"Mesh.011",
			"primitives":[
				{
					"attributes":{
						"POSITION":55,
						"NORMAL":56,
						"TEXCOORD_0":57,
						"TANGENT":58
					},
					"indices":59,
					"material":0
				}
			]
		},
		{
			"name":"Mesh.012",
			"primitives":[
				{
					"attributes":{
						"POSITION":60,
						"NORMAL":61,
						"TEXCOORD_0":62,
						"TANGENT":63
					},
					"indices":64,
					"material":0
				}
			]
		},
		{
			"name":"Mesh.013",
			"primitives":[
				{
					"attributes":{
						"POSITION":65,
						"NORMAL":66,
						"TEXCOORD_0":67,
						"TANGENT":68
					},
					"indices":69,
					"material":0
				}
			]
		},
		{
			"name":"Mesh.014",
			"primitives":[
				{
					"attributes":{
						"POSITION":70,
						"NORMAL":71,
						"TEXCOORD_0":72,
						"TANGENT":73
					},
					"indices":74,
					"material":0
				}
			]
		},
		{
			"name":"Mesh.015",
			"primitives":[
				{
					"attributes":{
						"POSITION":75,
						"NORMAL":76,
						"TEXCOORD_0":77,
						"TANGENT":78
					},
					"indices":79,
					"material":0
				}
			]
		},
		{
			"name":"Mesh.016",
			"primitives":[
				{
					"attributes":{
						"POSITION":80,
						"NORMAL":81,
						"TEXCOORD_0":82,
						"TANGENT":83
					},
					"indices":84,
					"material":0
				}
			]
		},
		{
			"name":"Mesh.017",
			"primitives":[
				{
					"attributes":{
						"POSITION":85,
						"NORMAL":86,
						"TEXCOORD_0":87,
						"TANGENT":88
					},
					"indices":89,
					"material":0
				}
			]
		}
	],
	"textures":[
		{
			"sampler":0,
			"source":0
		}
	],
	"images":[
		{
			"mimeType":"image/png",
			"name":"T_LVL1_Island_groundv2",
			"uri":"T_LVL1_Island_groundv2.png"
		}
	],
	"accessors":[
		{
			"bufferView":0,
			"componentType":5126,
			"count":4,
			"max":[
				1.357386589050293,
				0,
				1.7512757778167725
			],
			"min":[
				-1.357386589050293,
				0,
				-1.7512755393981934
			],
			"type":"VEC3"
		},
		{
			"bufferView":1,
			"componentType":5126,
			"count":4,
			"type":"VEC3"
		},
		{
			"bufferView":2,
			"componentType":5126,
			"count":4,
			"type":"VEC2"
		},
		{
			"bufferView":3,
			"componentType":5126,
			"count":4,
			"type":"VEC4"
		},
		{
			"bufferView":4,
			"componentType":5123,
			"count":6,
			"type":"SCALAR"
		},
		{
			"bufferView":5,
			"componentType":5126,
			"count":47,
			"max":[
				3.5694222450256348,
				2.384185791015625e-06,
				3.2405459880828857
			],
			"min":[
				-3.5694222450256348,
				-2.384185791015625e-06,
				-3.2405452728271484
			],
			"type":"VEC3"
		},
		{
			"bufferView":6,
			"componentType":5126,
			"count":47,
			"type":"VEC3"
		},
		{
			"bufferView":7,
			"componentType":5126,
			"count":47,
			"type":"VEC2"
		},
		{
			"bufferView":8,
			"componentType":5126,
			"count":47,
			"type":"VEC4"
		},
		{
			"bufferView":9,
			"componentType":5123,
			"count":153,
			"type":"SCALAR"
		},
		{
			"bufferView":10,
			"componentType":5126,
			"count":22,
			"max":[
				2.8926706314086914,
				7.152557373046875e-07,
				3.80666184425354
			],
			"min":[
				-2.892670154571533,
				-7.152557373046875e-07,
				-3.806661605834961
			],
			"type":"VEC3"
		},
		{
			"bufferView":11,
			"componentType":5126,
			"count":22,
			"type":"VEC3"
		},
		{
			"bufferView":12,
			"componentType":5126,
			"count":22,
			"type":"VEC2"
		},
		{
			"bufferView":13,
			"componentType":5126,
			"count":22,
			"type":"VEC4"
		},
		{
			"bufferView":14,
			"componentType":5123,
			"count":72,
			"type":"SCALAR"
		},
		{
			"bufferView":15,
			"componentType":5126,
			"count":22,
			"max":[
				2.03967022895813,
				4.76837158203125e-07,
				1.6767147779464722
			],
			"min":[
				-2.0396697521209717,
				-4.76837158203125e-07,
				-1.6767146587371826
			],
			"type":"VEC3"
		},
		{
			"bufferView":16,
			"componentType":5126,
			"count":22,
			"type":"VEC3"
		},
		{
			"bufferView":17,
			"componentType":5126,
			"count":22,
			"type":"VEC2"
		},
		{
			"bufferView":18,
			"componentType":5126,
			"count":22,
			"type":"VEC4"
		},
		{
			"bufferView":19,
			"componentType":5123,
			"count":60,
			"type":"SCALAR"
		},
		{
			"bufferView":20,
			"componentType":5126,
			"count":11,
			"max":[
				1.269026756286621,
				0,
				2.086005687713623
			],
			"min":[
				-1.269026279449463,
				0,
				-2.086005449295044
			],
			"type":"VEC3"
		},
		{
			"bufferView":21,
			"componentType":5126,
			"count":11,
			"type":"VEC3"
		},
		{
			"bufferView":22,
			"componentType":5126,
			"count":11,
			"type":"VEC2"
		},
		{
			"bufferView":23,
			"componentType":5126,
			"count":11,
			"type":"VEC4"
		},
		{
			"bufferView":24,
			"componentType":5123,
			"count":27,
			"type":"SCALAR"
		},
		{
			"bufferView":25,
			"componentType":5126,
			"count":16,
			"max":[
				2.111578941345215,
				-3.0204120093912934e-08,
				2.3725976943969727
			],
			"min":[
				-2.1115787029266357,
				-3.0204120093912934e-08,
				-2.3725969791412354
			],
			"type":"VEC3"
		},
		{
			"bufferView":26,
			"componentType":5126,
			"count":16,
			"type":"VEC3"
		},
		{
			"bufferView":27,
			"componentType":5126,
			"count":16,
			"type":"VEC2"
		},
		{
			"bufferView":28,
			"componentType":5126,
			"count":16,
			"type":"VEC4"
		},
		{
			"bufferView":29,
			"componentType":5123,
			"count":42,
			"type":"SCALAR"
		},
		{
			"bufferView":30,
			"componentType":5126,
			"count":19,
			"max":[
				1.2793498039245605,
				4.172325134277344e-07,
				0.7211804389953613
			],
			"min":[
				-1.279349684715271,
				-4.76837158203125e-07,
				-0.7211804389953613
			],
			"type":"VEC3"
		},
		{
			"bufferView":31,
			"componentType":5126,
			"count":19,
			"type":"VEC3"
		},
		{
			"bufferView":32,
			"componentType":5126,
			"count":19,
			"type":"VEC2"
		},
		{
			"bufferView":33,
			"componentType":5126,
			"count":19,
			"type":"VEC4"
		},
		{
			"bufferView":34,
			"componentType":5123,
			"count":66,
			"type":"SCALAR"
		},
		{
			"bufferView":35,
			"componentType":5126,
			"count":35,
			"max":[
				0.9679892063140869,
				1.6689300537109375e-06,
				1.664323329925537
			],
			"min":[
				-0.9679896831512451,
				-1.7881393432617188e-06,
				-1.6643218994140625
			],
			"type":"VEC3"
		},
		{
			"bufferView":36,
			"componentType":5126,
			"count":35,
			"type":"VEC3"
		},
		{
			"bufferView":37,
			"componentType":5126,
			"count":35,
			"type":"VEC2"
		},
		{
			"bufferView":38,
			"componentType":5126,
			"count":35,
			"type":"VEC4"
		},
		{
			"bufferView":39,
			"componentType":5123,
			"count":87,
			"type":"SCALAR"
		},
		{
			"bufferView":40,
			"componentType":5126,
			"count":65,
			"max":[
				3.47110652923584,
				4.76837158203125e-07,
				3.6260907649993896
			],
			"min":[
				-3.471107006072998,
				-6.556510925292969e-07,
				-3.6260907649993896
			],
			"type":"VEC3"
		},
		{
			"bufferView":41,
			"componentType":5126,
			"count":65,
			"type":"VEC3"
		},
		{
			"bufferView":42,
			"componentType":5126,
			"count":65,
			"type":"VEC2"
		},
		{
			"bufferView":43,
			"componentType":5126,
			"count":65,
			"type":"VEC4"
		},
		{
			"bufferView":44,
			"componentType":5123,
			"count":129,
			"type":"SCALAR"
		},
		{
			"bufferView":45,
			"componentType":5126,
			"count":12,
			"max":[
				0.9258185625076294,
				3.203749656677246e-07,
				1.1446866989135742
			],
			"min":[
				-0.9258185625076294,
				-3.7997961044311523e-07,
				-1.1446866989135742
			],
			"type":"VEC3"
		},
		{
			"bufferView":46,
			"componentType":5126,
			"count":12,
			"type":"VEC3"
		},
		{
			"bufferView":47,
			"componentType":5126,
			"count":12,
			"type":"VEC2"
		},
		{
			"bufferView":48,
			"componentType":5126,
			"count":12,
			"type":"VEC4"
		},
		{
			"bufferView":49,
			"componentType":5123,
			"count":36,
			"type":"SCALAR"
		},
		{
			"bufferView":50,
			"componentType":5126,
			"count":24,
			"max":[
				1.0440263748168945,
				3.5762786865234375e-07,
				0.8815679550170898
			],
			"min":[
				-1.0440263748168945,
				-2.384185791015625e-07,
				-0.8815686702728271
			],
			"type":"VEC3"
		},
		{
			"bufferView":51,
			"componentType":5126,
			"count":24,
			"type":"VEC3"
		},
		{
			"bufferView":52,
			"componentType":5126,
			"count":24,
			"type":"VEC2"
		},
		{
			"bufferView":53,
			"componentType":5126,
			"count":24,
			"type":"VEC4"
		},
		{
			"bufferView":54,
			"componentType":5123,
			"count":66,
			"type":"SCALAR"
		},
		{
			"bufferView":55,
			"componentType":5126,
			"count":25,
			"max":[
				1.4198212623596191,
				-1.1920928955078125e-07,
				0.8266987800598145
			],
			"min":[
				-1.4198222160339355,
				-1.1920928955078125e-07,
				-0.8266985416412354
			],
			"type":"VEC3"
		},
		{
			"bufferView":56,
			"componentType":5126,
			"count":25,
			"type":"VEC3"
		},
		{
			"bufferView":57,
			"componentType":5126,
			"count":25,
			"type":"VEC2"
		},
		{
			"bufferView":58,
			"componentType":5126,
			"count":25,
			"type":"VEC4"
		},
		{
			"bufferView":59,
			"componentType":5123,
			"count":69,
			"type":"SCALAR"
		},
		{
			"bufferView":60,
			"componentType":5126,
			"count":17,
			"max":[
				2.2207417488098145,
				-1.1920928955078125e-07,
				1.458730697631836
			],
			"min":[
				-2.2207412719726562,
				-1.1920928955078125e-07,
				-1.4587304592132568
			],
			"type":"VEC3"
		},
		{
			"bufferView":61,
			"componentType":5126,
			"count":17,
			"type":"VEC3"
		},
		{
			"bufferView":62,
			"componentType":5126,
			"count":17,
			"type":"VEC2"
		},
		{
			"bufferView":63,
			"componentType":5126,
			"count":17,
			"type":"VEC4"
		},
		{
			"bufferView":64,
			"componentType":5123,
			"count":45,
			"type":"SCALAR"
		},
		{
			"bufferView":65,
			"componentType":5126,
			"count":13,
			"max":[
				2.513336658477783,
				4.76837158203125e-07,
				1.315840721130371
			],
			"min":[
				-2.513336658477783,
				-4.76837158203125e-07,
				-1.3158388137817383
			],
			"type":"VEC3"
		},
		{
			"bufferView":66,
			"componentType":5126,
			"count":13,
			"type":"VEC3"
		},
		{
			"bufferView":67,
			"componentType":5126,
			"count":13,
			"type":"VEC2"
		},
		{
			"bufferView":68,
			"componentType":5126,
			"count":13,
			"type":"VEC4"
		},
		{
			"bufferView":69,
			"componentType":5123,
			"count":33,
			"type":"SCALAR"
		},
		{
			"bufferView":70,
			"componentType":5126,
			"count":21,
			"max":[
				0.8929762840270996,
				1.1920928955078125e-07,
				1.386218547821045
			],
			"min":[
				-0.8929762840270996,
				-4.76837158203125e-07,
				-1.386218786239624
			],
			"type":"VEC3"
		},
		{
			"bufferView":71,
			"componentType":5126,
			"count":21,
			"type":"VEC3"
		},
		{
			"bufferView":72,
			"componentType":5126,
			"count":21,
			"type":"VEC2"
		},
		{
			"bufferView":73,
			"componentType":5126,
			"count":21,
			"type":"VEC4"
		},
		{
			"bufferView":74,
			"componentType":5123,
			"count":57,
			"type":"SCALAR"
		},
		{
			"bufferView":75,
			"componentType":5126,
			"count":69,
			"max":[
				3.29022479057312,
				1.0132789611816406e-06,
				2.040757179260254
			],
			"min":[
				-3.290224552154541,
				-1.0728836059570312e-06,
				-2.040757417678833
			],
			"type":"VEC3"
		},
		{
			"bufferView":76,
			"componentType":5126,
			"count":69,
			"type":"VEC3"
		},
		{
			"bufferView":77,
			"componentType":5126,
			"count":69,
			"type":"VEC2"
		},
		{
			"bufferView":78,
			"componentType":5126,
			"count":69,
			"type":"VEC4"
		},
		{
			"bufferView":79,
			"componentType":5123,
			"count":177,
			"type":"SCALAR"
		},
		{
			"bufferView":80,
			"componentType":5126,
			"count":23,
			"max":[
				1.650540828704834,
				0,
				2.5090668201446533
			],
			"min":[
				-1.6505413055419922,
				0,
				-2.509066581726074
			],
			"type":"VEC3"
		},
		{
			"bufferView":81,
			"componentType":5126,
			"count":23,
			"type":"VEC3"
		},
		{
			"bufferView":82,
			"componentType":5126,
			"count":23,
			"type":"VEC2"
		},
		{
			"bufferView":83,
			"componentType":5126,
			"count":23,
			"type":"VEC4"
		},
		{
			"bufferView":84,
			"componentType":5123,
			"count":63,
			"type":"SCALAR"
		},
		{
			"bufferView":85,
			"componentType":5126,
			"count":48,
			"max":[
				4.7029008865356445,
				3.5762786865234375e-07,
				1.8988051414489746
			],
			"min":[
				-4.702899932861328,
				-2.384185791015625e-07,
				-1.8988051414489746
			],
			"type":"VEC3"
		},
		{
			"bufferView":86,
			"componentType":5126,
			"count":48,
			"type":"VEC3"
		},
		{
			"bufferView":87,
			"componentType":5126,
			"count":48,
			"type":"VEC2"
		},
		{
			"bufferView":88,
			"componentType":5126,
			"count":48,
			"type":"VEC4"
		},
		{
			"bufferView":89,
			"componentType":5123,
			"count":135,
			"type":"SCALAR"
		}
	],
	"bufferViews":[
		{
			"buffer":0,
			"byteLength":48,
			"byteOffset":0,
			"target":34962
		},
		{
			"buffer":0,
			"byteLength":48,
			"byteOffset":48,
			"target":34962
		},
		{
			"buffer":0,
			"byteLength":32,
			"byteOffset":96,
			"target":34962
		},
		{
			"buffer":0,
			"byteLength":64,
			"byteOffset":128,
			"target":34962
		},
		{
			"buffer":0,
			"byteLength":12,
			"byteOffset":192,
			"target":34963
		},
		{
			"buffer":0,
			"byteLength":564,
			"byteOffset":204,
			"target":34962
		},
		{
			"buffer":0,
			"byteLength":564,
			"byteOffset":768,
			"target":34962
		},
		{
			"buffer":0,
			"byteLength":376,
			"byteOffset":1332,
			"target":34962
		},
		{
			"buffer":0,
			"byteLength":752,
			"byteOffset":1708,
			"target":34962
		},
		{
			"buffer":0,
			"byteLength":306,
			"byteOffset":2460,
			"target":34963
		},
		{
			"buffer":0,
			"byteLength":264,
			"byteOffset":2768,
			"target":34962
		},
		{
			"buffer":0,
			"byteLength":264,
			"byteOffset":3032,
			"target":34962
		},
		{
			"buffer":0,
			"byteLength":176,
			"byteOffset":3296,
			"target":34962
		},
		{
			"buffer":0,
			"byteLength":352,
			"byteOffset":3472,
			"target":34962
		},
		{
			"buffer":0,
			"byteLength":144,
			"byteOffset":3824,
			"target":34963
		},
		{
			"buffer":0,
			"byteLength":264,
			"byteOffset":3968,
			"target":34962
		},
		{
			"buffer":0,
			"byteLength":264,
			"byteOffset":4232,
			"target":34962
		},
		{
			"buffer":0,
			"byteLength":176,
			"byteOffset":4496,
			"target":34962
		},
		{
			"buffer":0,
			"byteLength":352,
			"byteOffset":4672,
			"target":34962
		},
		{
			"buffer":0,
			"byteLength":120,
			"byteOffset":5024,
			"target":34963
		},
		{
			"buffer":0,
			"byteLength":132,
			"byteOffset":5144,
			"target":34962
		},
		{
			"buffer":0,
			"byteLength":132,
			"byteOffset":5276,
			"target":34962
		},
		{
			"buffer":0,
			"byteLength":88,
			"byteOffset":5408,
			"target":34962
		},
		{
			"buffer":0,
			"byteLength":176,
			"byteOffset":5496,
			"target":34962
		},
		{
			"buffer":0,
			"byteLength":54,
			"byteOffset":5672,
			"target":34963
		},
		{
			"buffer":0,
			"byteLength":192,
			"byteOffset":5728,
			"target":34962
		},
		{
			"buffer":0,
			"byteLength":192,
			"byteOffset":5920,
			"target":34962
		},
		{
			"buffer":0,
			"byteLength":128,
			"byteOffset":6112,
			"target":34962
		},
		{
			"buffer":0,
			"byteLength":256,
			"byteOffset":6240,
			"target":34962
		},
		{
			"buffer":0,
			"byteLength":84,
			"byteOffset":6496,
			"target":34963
		},
		{
			"buffer":0,
			"byteLength":228,
			"byteOffset":6580,
			"target":34962
		},
		{
			"buffer":0,
			"byteLength":228,
			"byteOffset":6808,
			"target":34962
		},
		{
			"buffer":0,
			"byteLength":152,
			"byteOffset":7036,
			"target":34962
		},
		{
			"buffer":0,
			"byteLength":304,
			"byteOffset":7188,
			"target":34962
		},
		{
			"buffer":0,
			"byteLength":132,
			"byteOffset":7492,
			"target":34963
		},
		{
			"buffer":0,
			"byteLength":420,
			"byteOffset":7624,
			"target":34962
		},
		{
			"buffer":0,
			"byteLength":420,
			"byteOffset":8044,
			"target":34962
		},
		{
			"buffer":0,
			"byteLength":280,
			"byteOffset":8464,
			"target":34962
		},
		{
			"buffer":0,
			"byteLength":560,
			"byteOffset":8744,
			"target":34962
		},
		{
			"buffer":0,
			"byteLength":174,
			"byteOffset":9304,
			"target":34963
		},
		{
			"buffer":0,
			"byteLength":780,
			"byteOffset":9480,
			"target":34962
		},
		{
			"buffer":0,
			"byteLength":780,
			"byteOffset":10260,
			"target":34962
		},
		{
			"buffer":0,
			"byteLength":520,
			"byteOffset":11040,
			"target":34962
		},
		{
			"buffer":0,
			"byteLength":1040,
			"byteOffset":11560,
			"target":34962
		},
		{
			"buffer":0,
			"byteLength":258,
			"byteOffset":12600,
			"target":34963
		},
		{
			"buffer":0,
			"byteLength":144,
			"byteOffset":12860,
			"target":34962
		},
		{
			"buffer":0,
			"byteLength":144,
			"byteOffset":13004,
			"target":34962
		},
		{
			"buffer":0,
			"byteLength":96,
			"byteOffset":13148,
			"target":34962
		},
		{
			"buffer":0,
			"byteLength":192,
			"byteOffset":13244,
			"target":34962
		},
		{
			"buffer":0,
			"byteLength":72,
			"byteOffset":13436,
			"target":34963
		},
		{
			"buffer":0,
			"byteLength":288,
			"byteOffset":13508,
			"target":34962
		},
		{
			"buffer":0,
			"byteLength":288,
			"byteOffset":13796,
			"target":34962
		},
		{
			"buffer":0,
			"byteLength":192,
			"byteOffset":14084,
			"target":34962
		},
		{
			"buffer":0,
			"byteLength":384,
			"byteOffset":14276,
			"target":34962
		},
		{
			"buffer":0,
			"byteLength":132,
			"byteOffset":14660,
			"target":34963
		},
		{
			"buffer":0,
			"byteLength":300,
			"byteOffset":14792,
			"target":34962
		},
		{
			"buffer":0,
			"byteLength":300,
			"byteOffset":15092,
			"target":34962
		},
		{
			"buffer":0,
			"byteLength":200,
			"byteOffset":15392,
			"target":34962
		},
		{
			"buffer":0,
			"byteLength":400,
			"byteOffset":15592,
			"target":34962
		},
		{
			"buffer":0,
			"byteLength":138,
			"byteOffset":15992,
			"target":34963
		},
		{
			"buffer":0,
			"byteLength":204,
			"byteOffset":16132,
			"target":34962
		},
		{
			"buffer":0,
			"byteLength":204,
			"byteOffset":16336,
			"target":34962
		},
		{
			"buffer":0,
			"byteLength":136,
			"byteOffset":16540,
			"target":34962
		},
		{
			"buffer":0,
			"byteLength":272,
			"byteOffset":16676,
			"target":34962
		},
		{
			"buffer":0,
			"byteLength":90,
			"byteOffset":16948,
			"target":34963
		},
		{
			"buffer":0,
			"byteLength":156,
			"byteOffset":17040,
			"target":34962
		},
		{
			"buffer":0,
			"byteLength":156,
			"byteOffset":17196,
			"target":34962
		},
		{
			"buffer":0,
			"byteLength":104,
			"byteOffset":17352,
			"target":34962
		},
		{
			"buffer":0,
			"byteLength":208,
			"byteOffset":17456,
			"target":34962
		},
		{
			"buffer":0,
			"byteLength":66,
			"byteOffset":17664,
			"target":34963
		},
		{
			"buffer":0,
			"byteLength":252,
			"byteOffset":17732,
			"target":34962
		},
		{
			"buffer":0,
			"byteLength":252,
			"byteOffset":17984,
			"target":34962
		},
		{
			"buffer":0,
			"byteLength":168,
			"byteOffset":18236,
			"target":34962
		},
		{
			"buffer":0,
			"byteLength":336,
			"byteOffset":18404,
			"target":34962
		},
		{
			"buffer":0,
			"byteLength":114,
			"byteOffset":18740,
			"target":34963
		},
		{
			"buffer":0,
			"byteLength":828,
			"byteOffset":18856,
			"target":34962
		},
		{
			"buffer":0,
			"byteLength":828,
			"byteOffset":19684,
			"target":34962
		},
		{
			"buffer":0,
			"byteLength":552,
			"byteOffset":20512,
			"target":34962
		},
		{
			"buffer":0,
			"byteLength":1104,
			"byteOffset":21064,
			"target":34962
		},
		{
			"buffer":0,
			"byteLength":354,
			"byteOffset":22168,
			"target":34963
		},
		{
			"buffer":0,
			"byteLength":276,
			"byteOffset":22524,
			"target":34962
		},
		{
			"buffer":0,
			"byteLength":276,
			"byteOffset":22800,
			"target":34962
		},
		{
			"buffer":0,
			"byteLength":184,
			"byteOffset":23076,
			"target":34962
		},
		{
			"buffer":0,
			"byteLength":368,
			"byteOffset":23260,
			"target":34962
		},
		{
			"buffer":0,
			"byteLength":126,
			"byteOffset":23628,
			"target":34963
		},
		{
			"buffer":0,
			"byteLength":576,
			"byteOffset":23756,
			"target":34962
		},
		{
			"buffer":0,
			"byteLength":576,
			"byteOffset":24332,
			"target":34962
		},
		{
			"buffer":0,
			"byteLength":384,
			"byteOffset":24908,
			"target":34962
		},
		{
			"buffer":0,
			"byteLength":768,
			"byteOffset":25292,
			"target":34962
		},
		{
			"buffer":0,
			"byteLength":270,
			"byteOffset":26060,
			"target":34963
		}
	],
	"samplers":[
		{
			"magFilter":9729,
			"minFilter":9987
		}
	],
	"buffers":[
		{
			"byteLength":26332,
			"uri":"EN_Island_LVL1_mesh.bin"
		}
	]
}
