{
	"asset":{
		"generator":"Khronos glTF Blender I/O v4.4.56",
		"version":"2.0"
	},
	"extensionsUsed":[
		"KHR_materials_specular"
	],
	"scene":0,
	"scenes":[
		{
			"name":"Scene",
			"nodes":[
				0,
				1,
				2,
				3,
				4,
				5,
				6,
				7,
				8,
				9,
				10,
				11,
				12,
				13,
				14,
				15,
				16,
				17
			]
		}
	],
	"nodes":[
		{
			"mesh":0,
			"name":"SM_Island_4_down"
		},
		{
			"mesh":1,
			"name":"SM_Island_4_L"
		},
		{
			"mesh":2,
			"name":"SM_Island_4"
		},
		{
			"mesh":3,
			"name":"SM_Island_3_top"
		},
		{
			"mesh":4,
			"name":"SM_Island_3_right"
		},
		{
			"mesh":5,
			"name":"SM_Island_3_down"
		},
		{
			"mesh":6,
			"name":"SM_Island_3_bottom_2"
		},
		{
			"mesh":7,
			"name":"SM_Island_3_bottom_1"
		},
		{
			"mesh":8,
			"name":"SM_Island_3"
		},
		{
			"mesh":9,
			"name":"SM_Island_2_tree_back"
		},
		{
			"mesh":10,
			"name":"SM_Island_2_tree"
		},
		{
			"mesh":11,
			"name":"SM_Island_2_top"
		},
		{
			"mesh":12,
			"name":"SM_Island_2_Left"
		},
		{
			"mesh":13,
			"name":"SM_Island_2_Front"
		},
		{
			"mesh":14,
			"name":"SM_Island_2_Back"
		},
		{
			"mesh":15,
			"name":"SM_Island_2"
		},
		{
			"mesh":16,
			"name":"SM_Island_1_Left"
		},
		{
			"mesh":17,
			"name":"SM_Island_1"
		}
	],
	"materials":[
		{
			"doubleSided":true,
			"extensions":{
				"KHR_materials_specular":{
					"specularColorFactor":[
						2.0,
						2.0,
						2.0
					]
				}
			},
			"name":"M_lvl1_Islands",
			"pbrMetallicRoughness":{
				"baseColorTexture":{
					"index":0
				},
				"metallicFactor":0,
				"roughnessFactor":0.5527864098548889
			}
		}
	],
	"meshes":[
		{
			"name":"Mesh.018",
			"primitives":[
				{
					"attributes":{
						"POSITION":0,
						"NORMAL":1,
						"TEXCOORD_0":2,
						"TANGENT":3
					},
					"indices":4,
					"material":0
				}
			]
		},
		{
			"name":"Mesh.019",
			"primitives":[
				{
					"attributes":{
						"POSITION":5,
						"NORMAL":6,
						"TEXCOORD_0":7,
						"TANGENT":8
					},
					"indices":9,
					"material":0
				}
			]
		},
		{
			"name":"Mesh.020",
			"primitives":[
				{
					"attributes":{
						"POSITION":10,
						"NORMAL":11,
						"TEXCOORD_0":12,
						"TANGENT":13
					},
					"indices":14,
					"material":0
				}
			]
		},
		{
			"name":"Mesh.021",
			"primitives":[
				{
					"attributes":{
						"POSITION":15,
						"NORMAL":16,
						"TEXCOORD_0":17,
						"TANGENT":18
					},
					"indices":19,
					"material":0
				}
			]
		},
		{
			"name":"Mesh.022",
			"primitives":[
				{
					"attributes":{
						"POSITION":20,
						"NORMAL":21,
						"TEXCOORD_0":22,
						"TANGENT":23
					},
					"indices":24,
					"material":0
				}
			]
		},
		{
			"name":"Mesh.023",
			"primitives":[
				{
					"attributes":{
						"POSITION":25,
						"NORMAL":26,
						"TEXCOORD_0":27,
						"TANGENT":28
					},
					"indices":29,
					"material":0
				}
			]
		},
		{
			"name":"Mesh.024",
			"primitives":[
				{
					"attributes":{
						"POSITION":30,
						"NORMAL":31,
						"TEXCOORD_0":32,
						"TANGENT":33
					},
					"indices":34,
					"material":0
				}
			]
		},
		{
			"name":"Mesh.025",
			"primitives":[
				{
					"attributes":{
						"POSITION":35,
						"NORMAL":36,
						"TEXCOORD_0":37,
						"TANGENT":38
					},
					"indices":39,
					"material":0
				}
			]
		},
		{
			"name":"Mesh.026",
			"primitives":[
				{
					"attributes":{
						"POSITION":40,
						"NORMAL":41,
						"TEXCOORD_0":42,
						"TANGENT":43
					},
					"indices":44,
					"material":0
				}
			]
		},
		{
			"name":"Mesh.027",
			"primitives":[
				{
					"attributes":{
						"POSITION":45,
						"NORMAL":46,
						"TEXCOORD_0":47,
						"TANGENT":48
					},
					"indices":49,
					"material":0
				}
			]
		},
		{
			"name":"Mesh.028",
			"primitives":[
				{
					"attributes":{
						"POSITION":50,
						"NORMAL":51,
						"TEXCOORD_0":52,
						"TANGENT":53
					},
					"indices":54,
					"material":0
				}
			]
		},
		{
			"name":"Mesh.029",
			"primitives":[
				{
					"attributes":{
						"POSITION":55,
						"NORMAL":56,
						"TEXCOORD_0":57,
						"TANGENT":58
					},
					"indices":59,
					"material":0
				}
			]
		},
		{
			"name":"Mesh.030",
			"primitives":[
				{
					"attributes":{
						"POSITION":60,
						"NORMAL":61,
						"TEXCOORD_0":62,
						"TANGENT":63
					},
					"indices":64,
					"material":0
				}
			]
		},
		{
			"name":"Mesh.031",
			"primitives":[
				{
					"attributes":{
						"POSITION":65,
						"NORMAL":66,
						"TEXCOORD_0":67,
						"TANGENT":68
					},
					"indices":69,
					"material":0
				}
			]
		},
		{
			"name":"Mesh.032",
			"primitives":[
				{
					"attributes":{
						"POSITION":70,
						"NORMAL":71,
						"TEXCOORD_0":72,
						"TANGENT":73
					},
					"indices":74,
					"material":0
				}
			]
		},
		{
			"name":"Mesh.033",
			"primitives":[
				{
					"attributes":{
						"POSITION":75,
						"NORMAL":76,
						"TEXCOORD_0":77,
						"TANGENT":78
					},
					"indices":79,
					"material":0
				}
			]
		},
		{
			"name":"Mesh.034",
			"primitives":[
				{
					"attributes":{
						"POSITION":80,
						"NORMAL":81,
						"TEXCOORD_0":82,
						"TANGENT":83
					},
					"indices":84,
					"material":0
				}
			]
		},
		{
			"name":"Mesh.035",
			"primitives":[
				{
					"attributes":{
						"POSITION":85,
						"NORMAL":86,
						"TEXCOORD_0":87,
						"TANGENT":88
					},
					"indices":89,
					"material":0
				}
			]
		}
	],
	"textures":[
		{
			"sampler":0,
			"source":0
		}
	],
	"images":[
		{
			"mimeType":"image/png",
			"name":"T_LVL1_Island_groundv2",
			"uri":"T_LVL1_Island_groundv2.png"
		}
	],
	"accessors":[
		{
			"bufferView":0,
			"componentType":5126,
			"count":4,
			"max":[
				0.6786932945251465,
				0,
				0.8756378889083862
			],
			"min":[
				-0.6786932945251465,
				0,
				-0.8756377696990967
			],
			"type":"VEC3"
		},
		{
			"bufferView":1,
			"componentType":5126,
			"count":4,
			"type":"VEC3"
		},
		{
			"bufferView":2,
			"componentType":5126,
			"count":4,
			"type":"VEC2"
		},
		{
			"bufferView":3,
			"componentType":5126,
			"count":4,
			"type":"VEC4"
		},
		{
			"bufferView":4,
			"componentType":5123,
			"count":6,
			"type":"SCALAR"
		},
		{
			"bufferView":5,
			"componentType":5126,
			"count":42,
			"max":[
				2.414940595626831,
				1.1920928955078125e-06,
				1.7454347610473633
			],
			"min":[
				-1.7847111225128174,
				-1.1920928955078125e-06,
				-1.6202726364135742
			],
			"type":"VEC3"
		},
		{
			"bufferView":6,
			"componentType":5126,
			"count":42,
			"type":"VEC3"
		},
		{
			"bufferView":7,
			"componentType":5126,
			"count":42,
			"type":"VEC2"
		},
		{
			"bufferView":8,
			"componentType":5126,
			"count":42,
			"type":"VEC4"
		},
		{
			"bufferView":9,
			"componentType":5123,
			"count":153,
			"type":"SCALAR"
		},
		{
			"bufferView":10,
			"componentType":5126,
			"count":22,
			"max":[
				1.4463353157043457,
				3.5762786865234375e-07,
				1.90333092212677
			],
			"min":[
				-1.4463350772857666,
				-3.5762786865234375e-07,
				-1.9033308029174805
			],
			"type":"VEC3"
		},
		{
			"bufferView":11,
			"componentType":5126,
			"count":22,
			"type":"VEC3"
		},
		{
			"bufferView":12,
			"componentType":5126,
			"count":22,
			"type":"VEC2"
		},
		{
			"bufferView":13,
			"componentType":5126,
			"count":22,
			"type":"VEC4"
		},
		{
			"bufferView":14,
			"componentType":5123,
			"count":72,
			"type":"SCALAR"
		},
		{
			"bufferView":15,
			"componentType":5126,
			"count":22,
			"max":[
				1.019835114479065,
				2.384185791015625e-07,
				0.8383573889732361
			],
			"min":[
				-1.0198348760604858,
				-2.384185791015625e-07,
				-0.8383573293685913
			],
			"type":"VEC3"
		},
		{
			"bufferView":16,
			"componentType":5126,
			"count":22,
			"type":"VEC3"
		},
		{
			"bufferView":17,
			"componentType":5126,
			"count":22,
			"type":"VEC2"
		},
		{
			"bufferView":18,
			"componentType":5126,
			"count":22,
			"type":"VEC4"
		},
		{
			"bufferView":19,
			"componentType":5123,
			"count":60,
			"type":"SCALAR"
		},
		{
			"bufferView":20,
			"componentType":5126,
			"count":11,
			"max":[
				0.6345133781433105,
				0,
				1.0430028438568115
			],
			"min":[
				-0.6345131397247314,
				0,
				-1.043002724647522
			],
			"type":"VEC3"
		},
		{
			"bufferView":21,
			"componentType":5126,
			"count":11,
			"type":"VEC3"
		},
		{
			"bufferView":22,
			"componentType":5126,
			"count":11,
			"type":"VEC2"
		},
		{
			"bufferView":23,
			"componentType":5126,
			"count":11,
			"type":"VEC4"
		},
		{
			"bufferView":24,
			"componentType":5123,
			"count":27,
			"type":"SCALAR"
		},
		{
			"bufferView":25,
			"componentType":5126,
			"count":16,
			"max":[
				1.0557894706726074,
				-3.020413430476765e-08,
				1.1862988471984863
			],
			"min":[
				-1.0557893514633179,
				-3.020413430476765e-08,
				-1.1862984895706177
			],
			"type":"VEC3"
		},
		{
			"bufferView":26,
			"componentType":5126,
			"count":16,
			"type":"VEC3"
		},
		{
			"bufferView":27,
			"componentType":5126,
			"count":16,
			"type":"VEC2"
		},
		{
			"bufferView":28,
			"componentType":5126,
			"count":16,
			"type":"VEC4"
		},
		{
			"bufferView":29,
			"componentType":5123,
			"count":42,
			"type":"SCALAR"
		},
		{
			"bufferView":30,
			"componentType":5126,
			"count":19,
			"max":[
				0.6396749019622803,
				2.086162567138672e-07,
				0.36059021949768066
			],
			"min":[
				-0.6396748423576355,
				-2.384185791015625e-07,
				-0.36059021949768066
			],
			"type":"VEC3"
		},
		{
			"bufferView":31,
			"componentType":5126,
			"count":19,
			"type":"VEC3"
		},
		{
			"bufferView":32,
			"componentType":5126,
			"count":19,
			"type":"VEC2"
		},
		{
			"bufferView":33,
			"componentType":5126,
			"count":19,
			"type":"VEC4"
		},
		{
			"bufferView":34,
			"componentType":5123,
			"count":66,
			"type":"SCALAR"
		},
		{
			"bufferView":35,
			"componentType":5126,
			"count":37,
			"max":[
				0.48399460315704346,
				8.344650268554688e-07,
				0.8321616649627686
			],
			"min":[
				-0.48399484157562256,
				-8.940696716308594e-07,
				-0.8321609497070312
			],
			"type":"VEC3"
		},
		{
			"bufferView":36,
			"componentType":5126,
			"count":37,
			"type":"VEC3"
		},
		{
			"bufferView":37,
			"componentType":5126,
			"count":37,
			"type":"VEC2"
		},
		{
			"bufferView":38,
			"componentType":5126,
			"count":37,
			"type":"VEC4"
		},
		{
			"bufferView":39,
			"componentType":5123,
			"count":87,
			"type":"SCALAR"
		},
		{
			"bufferView":40,
			"componentType":5126,
			"count":42,
			"max":[
				1.73555326461792,
				2.384185791015625e-07,
				1.8130453824996948
			],
			"min":[
				-1.735553503036499,
				-3.2782554626464844e-07,
				-1.8130453824996948
			],
			"type":"VEC3"
		},
		{
			"bufferView":41,
			"componentType":5126,
			"count":42,
			"type":"VEC3"
		},
		{
			"bufferView":42,
			"componentType":5126,
			"count":42,
			"type":"VEC2"
		},
		{
			"bufferView":43,
			"componentType":5126,
			"count":42,
			"type":"VEC4"
		},
		{
			"bufferView":44,
			"componentType":5123,
			"count":129,
			"type":"SCALAR"
		},
		{
			"bufferView":45,
			"componentType":5126,
			"count":12,
			"max":[
				0.4629092812538147,
				1.601874828338623e-07,
				0.5723433494567871
			],
			"min":[
				-0.4629092812538147,
				-1.8998980522155762e-07,
				-0.5723433494567871
			],
			"type":"VEC3"
		},
		{
			"bufferView":46,
			"componentType":5126,
			"count":12,
			"type":"VEC3"
		},
		{
			"bufferView":47,
			"componentType":5126,
			"count":12,
			"type":"VEC2"
		},
		{
			"bufferView":48,
			"componentType":5126,
			"count":12,
			"type":"VEC4"
		},
		{
			"bufferView":49,
			"componentType":5123,
			"count":36,
			"type":"SCALAR"
		},
		{
			"bufferView":50,
			"componentType":5126,
			"count":24,
			"max":[
				0.5220131874084473,
				1.7881393432617188e-07,
				0.4407839775085449
			],
			"min":[
				-0.5220131874084473,
				-1.1920928955078125e-07,
				-0.4407843351364136
			],
			"type":"VEC3"
		},
		{
			"bufferView":51,
			"componentType":5126,
			"count":24,
			"type":"VEC3"
		},
		{
			"bufferView":52,
			"componentType":5126,
			"count":24,
			"type":"VEC2"
		},
		{
			"bufferView":53,
			"componentType":5126,
			"count":24,
			"type":"VEC4"
		},
		{
			"bufferView":54,
			"componentType":5123,
			"count":66,
			"type":"SCALAR"
		},
		{
			"bufferView":55,
			"componentType":5126,
			"count":25,
			"max":[
				0.7099106311798096,
				-1.1920928955078125e-07,
				0.4133493900299072
			],
			"min":[
				-0.7099111080169678,
				-1.1920928955078125e-07,
				-0.4133492708206177
			],
			"type":"VEC3"
		},
		{
			"bufferView":56,
			"componentType":5126,
			"count":25,
			"type":"VEC3"
		},
		{
			"bufferView":57,
			"componentType":5126,
			"count":25,
			"type":"VEC2"
		},
		{
			"bufferView":58,
			"componentType":5126,
			"count":25,
			"type":"VEC4"
		},
		{
			"bufferView":59,
			"componentType":5123,
			"count":69,
			"type":"SCALAR"
		},
		{
			"bufferView":60,
			"componentType":5126,
			"count":17,
			"max":[
				1.1103708744049072,
				-1.1920928955078125e-07,
				0.729365348815918
			],
			"min":[
				-1.1103706359863281,
				-1.1920928955078125e-07,
				-0.7293652296066284
			],
			"type":"VEC3"
		},
		{
			"bufferView":61,
			"componentType":5126,
			"count":17,
			"type":"VEC3"
		},
		{
			"bufferView":62,
			"componentType":5126,
			"count":17,
			"type":"VEC2"
		},
		{
			"bufferView":63,
			"componentType":5126,
			"count":17,
			"type":"VEC4"
		},
		{
			"bufferView":64,
			"componentType":5123,
			"count":45,
			"type":"SCALAR"
		},
		{
			"bufferView":65,
			"componentType":5126,
			"count":13,
			"max":[
				1.2566683292388916,
				2.384185791015625e-07,
				0.6579203605651855
			],
			"min":[
				-1.2566683292388916,
				-2.384185791015625e-07,
				-0.6579194068908691
			],
			"type":"VEC3"
		},
		{
			"bufferView":66,
			"componentType":5126,
			"count":13,
			"type":"VEC3"
		},
		{
			"bufferView":67,
			"componentType":5126,
			"count":13,
			"type":"VEC2"
		},
		{
			"bufferView":68,
			"componentType":5126,
			"count":13,
			"type":"VEC4"
		},
		{
			"bufferView":69,
			"componentType":5123,
			"count":33,
			"type":"SCALAR"
		},
		{
			"bufferView":70,
			"componentType":5126,
			"count":21,
			"max":[
				0.4464881420135498,
				5.960464477539063e-08,
				0.6931092739105225
			],
			"min":[
				-0.4464881420135498,
				-2.384185791015625e-07,
				-0.693109393119812
			],
			"type":"VEC3"
		},
		{
			"bufferView":71,
			"componentType":5126,
			"count":21,
			"type":"VEC3"
		},
		{
			"bufferView":72,
			"componentType":5126,
			"count":21,
			"type":"VEC2"
		},
		{
			"bufferView":73,
			"componentType":5126,
			"count":21,
			"type":"VEC4"
		},
		{
			"bufferView":74,
			"componentType":5123,
			"count":57,
			"type":"SCALAR"
		},
		{
			"bufferView":75,
			"componentType":5126,
			"count":69,
			"max":[
				1.64511239528656,
				5.066394805908203e-07,
				1.020378589630127
			],
			"min":[
				-1.6451122760772705,
				-5.364418029785156e-07,
				-1.0203787088394165
			],
			"type":"VEC3"
		},
		{
			"bufferView":76,
			"componentType":5126,
			"count":69,
			"type":"VEC3"
		},
		{
			"bufferView":77,
			"componentType":5126,
			"count":69,
			"type":"VEC2"
		},
		{
			"bufferView":78,
			"componentType":5126,
			"count":69,
			"type":"VEC4"
		},
		{
			"bufferView":79,
			"componentType":5123,
			"count":177,
			"type":"SCALAR"
		},
		{
			"bufferView":80,
			"componentType":5126,
			"count":23,
			"max":[
				0.825270414352417,
				-5.960464477539063e-08,
				1.2545334100723267
			],
			"min":[
				-0.8252706527709961,
				-5.960464477539063e-08,
				-1.254533290863037
			],
			"type":"VEC3"
		},
		{
			"bufferView":81,
			"componentType":5126,
			"count":23,
			"type":"VEC3"
		},
		{
			"bufferView":82,
			"componentType":5126,
			"count":23,
			"type":"VEC2"
		},
		{
			"bufferView":83,
			"componentType":5126,
			"count":23,
			"type":"VEC4"
		},
		{
			"bufferView":84,
			"componentType":5123,
			"count":63,
			"type":"SCALAR"
		},
		{
			"bufferView":85,
			"componentType":5126,
			"count":47,
			"max":[
				2.3514504432678223,
				1.7881393432617188e-07,
				0.9494025707244873
			],
			"min":[
				-2.351449966430664,
				-1.1920928955078125e-07,
				-0.9494025707244873
			],
			"type":"VEC3"
		},
		{
			"bufferView":86,
			"componentType":5126,
			"count":47,
			"type":"VEC3"
		},
		{
			"bufferView":87,
			"componentType":5126,
			"count":47,
			"type":"VEC2"
		},
		{
			"bufferView":88,
			"componentType":5126,
			"count":47,
			"type":"VEC4"
		},
		{
			"bufferView":89,
			"componentType":5123,
			"count":135,
			"type":"SCALAR"
		}
	],
	"bufferViews":[
		{
			"buffer":0,
			"byteLength":48,
			"byteOffset":0,
			"target":34962
		},
		{
			"buffer":0,
			"byteLength":48,
			"byteOffset":48,
			"target":34962
		},
		{
			"buffer":0,
			"byteLength":32,
			"byteOffset":96,
			"target":34962
		},
		{
			"buffer":0,
			"byteLength":64,
			"byteOffset":128,
			"target":34962
		},
		{
			"buffer":0,
			"byteLength":12,
			"byteOffset":192,
			"target":34963
		},
		{
			"buffer":0,
			"byteLength":504,
			"byteOffset":204,
			"target":34962
		},
		{
			"buffer":0,
			"byteLength":504,
			"byteOffset":708,
			"target":34962
		},
		{
			"buffer":0,
			"byteLength":336,
			"byteOffset":1212,
			"target":34962
		},
		{
			"buffer":0,
			"byteLength":672,
			"byteOffset":1548,
			"target":34962
		},
		{
			"buffer":0,
			"byteLength":306,
			"byteOffset":2220,
			"target":34963
		},
		{
			"buffer":0,
			"byteLength":264,
			"byteOffset":2528,
			"target":34962
		},
		{
			"buffer":0,
			"byteLength":264,
			"byteOffset":2792,
			"target":34962
		},
		{
			"buffer":0,
			"byteLength":176,
			"byteOffset":3056,
			"target":34962
		},
		{
			"buffer":0,
			"byteLength":352,
			"byteOffset":3232,
			"target":34962
		},
		{
			"buffer":0,
			"byteLength":144,
			"byteOffset":3584,
			"target":34963
		},
		{
			"buffer":0,
			"byteLength":264,
			"byteOffset":3728,
			"target":34962
		},
		{
			"buffer":0,
			"byteLength":264,
			"byteOffset":3992,
			"target":34962
		},
		{
			"buffer":0,
			"byteLength":176,
			"byteOffset":4256,
			"target":34962
		},
		{
			"buffer":0,
			"byteLength":352,
			"byteOffset":4432,
			"target":34962
		},
		{
			"buffer":0,
			"byteLength":120,
			"byteOffset":4784,
			"target":34963
		},
		{
			"buffer":0,
			"byteLength":132,
			"byteOffset":4904,
			"target":34962
		},
		{
			"buffer":0,
			"byteLength":132,
			"byteOffset":5036,
			"target":34962
		},
		{
			"buffer":0,
			"byteLength":88,
			"byteOffset":5168,
			"target":34962
		},
		{
			"buffer":0,
			"byteLength":176,
			"byteOffset":5256,
			"target":34962
		},
		{
			"buffer":0,
			"byteLength":54,
			"byteOffset":5432,
			"target":34963
		},
		{
			"buffer":0,
			"byteLength":192,
			"byteOffset":5488,
			"target":34962
		},
		{
			"buffer":0,
			"byteLength":192,
			"byteOffset":5680,
			"target":34962
		},
		{
			"buffer":0,
			"byteLength":128,
			"byteOffset":5872,
			"target":34962
		},
		{
			"buffer":0,
			"byteLength":256,
			"byteOffset":6000,
			"target":34962
		},
		{
			"buffer":0,
			"byteLength":84,
			"byteOffset":6256,
			"target":34963
		},
		{
			"buffer":0,
			"byteLength":228,
			"byteOffset":6340,
			"target":34962
		},
		{
			"buffer":0,
			"byteLength":228,
			"byteOffset":6568,
			"target":34962
		},
		{
			"buffer":0,
			"byteLength":152,
			"byteOffset":6796,
			"target":34962
		},
		{
			"buffer":0,
			"byteLength":304,
			"byteOffset":6948,
			"target":34962
		},
		{
			"buffer":0,
			"byteLength":132,
			"byteOffset":7252,
			"target":34963
		},
		{
			"buffer":0,
			"byteLength":444,
			"byteOffset":7384,
			"target":34962
		},
		{
			"buffer":0,
			"byteLength":444,
			"byteOffset":7828,
			"target":34962
		},
		{
			"buffer":0,
			"byteLength":296,
			"byteOffset":8272,
			"target":34962
		},
		{
			"buffer":0,
			"byteLength":592,
			"byteOffset":8568,
			"target":34962
		},
		{
			"buffer":0,
			"byteLength":174,
			"byteOffset":9160,
			"target":34963
		},
		{
			"buffer":0,
			"byteLength":504,
			"byteOffset":9336,
			"target":34962
		},
		{
			"buffer":0,
			"byteLength":504,
			"byteOffset":9840,
			"target":34962
		},
		{
			"buffer":0,
			"byteLength":336,
			"byteOffset":10344,
			"target":34962
		},
		{
			"buffer":0,
			"byteLength":672,
			"byteOffset":10680,
			"target":34962
		},
		{
			"buffer":0,
			"byteLength":258,
			"byteOffset":11352,
			"target":34963
		},
		{
			"buffer":0,
			"byteLength":144,
			"byteOffset":11612,
			"target":34962
		},
		{
			"buffer":0,
			"byteLength":144,
			"byteOffset":11756,
			"target":34962
		},
		{
			"buffer":0,
			"byteLength":96,
			"byteOffset":11900,
			"target":34962
		},
		{
			"buffer":0,
			"byteLength":192,
			"byteOffset":11996,
			"target":34962
		},
		{
			"buffer":0,
			"byteLength":72,
			"byteOffset":12188,
			"target":34963
		},
		{
			"buffer":0,
			"byteLength":288,
			"byteOffset":12260,
			"target":34962
		},
		{
			"buffer":0,
			"byteLength":288,
			"byteOffset":12548,
			"target":34962
		},
		{
			"buffer":0,
			"byteLength":192,
			"byteOffset":12836,
			"target":34962
		},
		{
			"buffer":0,
			"byteLength":384,
			"byteOffset":13028,
			"target":34962
		},
		{
			"buffer":0,
			"byteLength":132,
			"byteOffset":13412,
			"target":34963
		},
		{
			"buffer":0,
			"byteLength":300,
			"byteOffset":13544,
			"target":34962
		},
		{
			"buffer":0,
			"byteLength":300,
			"byteOffset":13844,
			"target":34962
		},
		{
			"buffer":0,
			"byteLength":200,
			"byteOffset":14144,
			"target":34962
		},
		{
			"buffer":0,
			"byteLength":400,
			"byteOffset":14344,
			"target":34962
		},
		{
			"buffer":0,
			"byteLength":138,
			"byteOffset":14744,
			"target":34963
		},
		{
			"buffer":0,
			"byteLength":204,
			"byteOffset":14884,
			"target":34962
		},
		{
			"buffer":0,
			"byteLength":204,
			"byteOffset":15088,
			"target":34962
		},
		{
			"buffer":0,
			"byteLength":136,
			"byteOffset":15292,
			"target":34962
		},
		{
			"buffer":0,
			"byteLength":272,
			"byteOffset":15428,
			"target":34962
		},
		{
			"buffer":0,
			"byteLength":90,
			"byteOffset":15700,
			"target":34963
		},
		{
			"buffer":0,
			"byteLength":156,
			"byteOffset":15792,
			"target":34962
		},
		{
			"buffer":0,
			"byteLength":156,
			"byteOffset":15948,
			"target":34962
		},
		{
			"buffer":0,
			"byteLength":104,
			"byteOffset":16104,
			"target":34962
		},
		{
			"buffer":0,
			"byteLength":208,
			"byteOffset":16208,
			"target":34962
		},
		{
			"buffer":0,
			"byteLength":66,
			"byteOffset":16416,
			"target":34963
		},
		{
			"buffer":0,
			"byteLength":252,
			"byteOffset":16484,
			"target":34962
		},
		{
			"buffer":0,
			"byteLength":252,
			"byteOffset":16736,
			"target":34962
		},
		{
			"buffer":0,
			"byteLength":168,
			"byteOffset":16988,
			"target":34962
		},
		{
			"buffer":0,
			"byteLength":336,
			"byteOffset":17156,
			"target":34962
		},
		{
			"buffer":0,
			"byteLength":114,
			"byteOffset":17492,
			"target":34963
		},
		{
			"buffer":0,
			"byteLength":828,
			"byteOffset":17608,
			"target":34962
		},
		{
			"buffer":0,
			"byteLength":828,
			"byteOffset":18436,
			"target":34962
		},
		{
			"buffer":0,
			"byteLength":552,
			"byteOffset":19264,
			"target":34962
		},
		{
			"buffer":0,
			"byteLength":1104,
			"byteOffset":19816,
			"target":34962
		},
		{
			"buffer":0,
			"byteLength":354,
			"byteOffset":20920,
			"target":34963
		},
		{
			"buffer":0,
			"byteLength":276,
			"byteOffset":21276,
			"target":34962
		},
		{
			"buffer":0,
			"byteLength":276,
			"byteOffset":21552,
			"target":34962
		},
		{
			"buffer":0,
			"byteLength":184,
			"byteOffset":21828,
			"target":34962
		},
		{
			"buffer":0,
			"byteLength":368,
			"byteOffset":22012,
			"target":34962
		},
		{
			"buffer":0,
			"byteLength":126,
			"byteOffset":22380,
			"target":34963
		},
		{
			"buffer":0,
			"byteLength":564,
			"byteOffset":22508,
			"target":34962
		},
		{
			"buffer":0,
			"byteLength":564,
			"byteOffset":23072,
			"target":34962
		},
		{
			"buffer":0,
			"byteLength":376,
			"byteOffset":23636,
			"target":34962
		},
		{
			"buffer":0,
			"byteLength":752,
			"byteOffset":24012,
			"target":34962
		},
		{
			"buffer":0,
			"byteLength":270,
			"byteOffset":24764,
			"target":34963
		}
	],
	"samplers":[
		{
			"magFilter":9729,
			"minFilter":9987
		}
	],
	"buffers":[
		{
			"byteLength":25036,
			"uri":"EN_Island_LVL1_mesh.bin"
		}
	]
}
