{
	"asset":{
		"generator":"Khronos glTF Blender I/O v4.2.57",
		"version":"2.0"
	},
	"extensionsUsed":[
		"KHR_materials_specular"
	],
	"scene":0,
	"scenes":[
		{
			"name":"Scene",
			"nodes":[
				0
			]
		}
	],
	"nodes":[
		{
			"mesh":0,
			"name":"EN_HouseMarket1"
		}
	],
	"materials":[
		{
			"doubleSided":true,
			"extensions":{
				"KHR_materials_specular":{
					"specularColorFactor":[
						2.0,
						2.0,
						2.0
					]
				}
			},
			"name":"M_HouseMarket1",
			"normalTexture":{
				"index":0
			},
			"pbrMetallicRoughness":{
				"baseColorTexture":{
					"index":1
				},
				"metallicRoughnessTexture":{
					"index":2
				}
			}
		}
	],
	"meshes":[
		{
			"name":"Mesh",
			"primitives":[
				{
					"attributes":{
						"POSITION":0,
						"NORMAL":1,
						"TEXCOORD_0":2,
						"TANGENT":3
					},
					"indices":4,
					"material":0
				}
			]
		}
	],
	"textures":[
		{
			"sampler":0,
			"source":0
		},
		{
			"sampler":0,
			"source":1
		},
		{
			"sampler":0,
			"source":2
		}
	],
	"images":[
		{
			"mimeType":"image/png",
			"name":"TX_House Individual_M_House_Normal",
			"uri":"TX_House%20Individual_M_House_Normal.png"
		},
		{
			"mimeType":"image/png",
			"name":"TX_House_Market_M_House_BaseColor",
			"uri":"TX_House_Market_M_House_BaseColor.png"
		},
		{
			"mimeType":"image/png",
			"name":"TX_House_Market_M_House_OcclusionRoughnessMetallic",
			"uri":"TX_House_Market_M_House_OcclusionRoughnessMetallic.png"
		}
	],
	"accessors":[
		{
			"bufferView":0,
			"componentType":5126,
			"count":7448,
			"max":[
				5.023487091064453,
				6.702475547790527,
				3.0130786895751953
			],
			"min":[
				-3.5544052124023438,
				-0.2565000057220459,
				-5.856437683105469
			],
			"type":"VEC3"
		},
		{
			"bufferView":1,
			"componentType":5126,
			"count":7448,
			"type":"VEC3"
		},
		{
			"bufferView":2,
			"componentType":5126,
			"count":7448,
			"type":"VEC2"
		},
		{
			"bufferView":3,
			"componentType":5126,
			"count":7448,
			"type":"VEC4"
		},
		{
			"bufferView":4,
			"componentType":5123,
			"count":22386,
			"type":"SCALAR"
		}
	],
	"bufferViews":[
		{
			"buffer":0,
			"byteLength":89376,
			"byteOffset":0,
			"target":34962
		},
		{
			"buffer":0,
			"byteLength":89376,
			"byteOffset":89376,
			"target":34962
		},
		{
			"buffer":0,
			"byteLength":59584,
			"byteOffset":178752,
			"target":34962
		},
		{
			"buffer":0,
			"byteLength":119168,
			"byteOffset":238336,
			"target":34962
		},
		{
			"buffer":0,
			"byteLength":44772,
			"byteOffset":357504,
			"target":34963
		}
	],
	"samplers":[
		{
			"magFilter":9729,
			"minFilter":9987
		}
	],
	"buffers":[
		{
			"byteLength":402276,
			"uri":"EN_TD_HouseMarket2_GLTF.bin"
		}
	]
}
