{
	"asset":{
		"generator":"Khronos glTF Blender I/O v4.2.69",
		"version":"2.0"
	},
	"scene":0,
	"scenes":[
		{
			"name":"Scene",
			"nodes":[
				0,
				1,
				2,
				3,
				4,
				5,
				6,
				7,
				8,
				9,
				10,
				11,
				12,
				13
			]
		}
	],
	"nodes":[
		{
			"mesh":0,
			"name":"EN_PR_Tree_Small_01_V1"
		},
		{
			"mesh":1,
			"name":"EN_PR_Tree_Small_02_V1"
		},
		{
			"mesh":2,
			"name":"EN_PR_Tree_Big_04_V1"
		},
		{
			"mesh":3,
			"name":"EN_PR_Tree_Big_03_V1"
		},
		{
			"mesh":4,
			"name":"EN_PR_Tree_Small_04_V1"
		},
		{
			"mesh":5,
			"name":"EN_PR_Tree_Small_03_V1"
		},
		{
			"mesh":6,
			"name":"EN_PR_Tree_Big_02_V1"
		},
		{
			"mesh":7,
			"name":"EN_PR_Tree_Branch_02_V1"
		},
		{
			"mesh":8,
			"name":"EN_PR_Tree_Branch_01_V1"
		},
		{
			"mesh":9,
			"name":"EN_PR_Tree_Small_05_V1"
		},
		{
			"mesh":10,
			"name":"EN_PR_Tree_Big_01_V1"
		},
		{
			"mesh":11,
			"name":"EN_PR_Tree_Small_07_V1"
		},
		{
			"mesh":12,
			"name":"EN_PR_Tree_Branch_floor_01_V1"
		},
		{
			"mesh":13,
			"name":"EN_PR_Tree_Small_06_V1"
		}
	],
	"materials":[
		{
			"doubleSided":true,
			"name":"M_Tree_testing",
			"normalTexture":{
				"index":0
			},
			"pbrMetallicRoughness":{
				"baseColorTexture":{
					"index":1
				},
				"metallicFactor":0
			}
		}
	],
	"meshes":[
		{
			"name":"Plane.001",
			"primitives":[
				{
					"attributes":{
						"POSITION":0,
						"NORMAL":1,
						"TEXCOORD_0":2,
						"TANGENT":3
					},
					"indices":4,
					"material":0
				}
			]
		},
		{
			"name":"Plane.003",
			"primitives":[
				{
					"attributes":{
						"POSITION":5,
						"NORMAL":6,
						"TEXCOORD_0":7,
						"TANGENT":8
					},
					"indices":9,
					"material":0
				}
			]
		},
		{
			"name":"Plane.004",
			"primitives":[
				{
					"attributes":{
						"POSITION":10,
						"NORMAL":11,
						"TEXCOORD_0":12,
						"TANGENT":13
					},
					"indices":14,
					"material":0
				}
			]
		},
		{
			"name":"Plane.005",
			"primitives":[
				{
					"attributes":{
						"POSITION":15,
						"NORMAL":16,
						"TEXCOORD_0":17,
						"TANGENT":18
					},
					"indices":19,
					"material":0
				}
			]
		},
		{
			"name":"Plane",
			"primitives":[
				{
					"attributes":{
						"POSITION":20,
						"NORMAL":21,
						"TEXCOORD_0":22,
						"TANGENT":23
					},
					"indices":24,
					"material":0
				}
			]
		},
		{
			"name":"Plane.006",
			"primitives":[
				{
					"attributes":{
						"POSITION":25,
						"NORMAL":26,
						"TEXCOORD_0":27,
						"TANGENT":28
					},
					"indices":29,
					"material":0
				}
			]
		},
		{
			"name":"Plane.007",
			"primitives":[
				{
					"attributes":{
						"POSITION":30,
						"NORMAL":31,
						"TEXCOORD_0":32,
						"TANGENT":33
					},
					"indices":34,
					"material":0
				}
			]
		},
		{
			"name":"Plane.008",
			"primitives":[
				{
					"attributes":{
						"POSITION":35,
						"NORMAL":36,
						"TEXCOORD_0":37,
						"TANGENT":38
					},
					"indices":39,
					"material":0
				}
			]
		},
		{
			"name":"Plane.013",
			"primitives":[
				{
					"attributes":{
						"POSITION":40,
						"NORMAL":41,
						"TEXCOORD_0":42,
						"TANGENT":43
					},
					"indices":44,
					"material":0
				}
			]
		},
		{
			"name":"Plane.014",
			"primitives":[
				{
					"attributes":{
						"POSITION":45,
						"NORMAL":46,
						"TEXCOORD_0":47,
						"TANGENT":48
					},
					"indices":49,
					"material":0
				}
			]
		},
		{
			"name":"Plane.015",
			"primitives":[
				{
					"attributes":{
						"POSITION":50,
						"NORMAL":51,
						"TEXCOORD_0":52,
						"TANGENT":53
					},
					"indices":54,
					"material":0
				}
			]
		},
		{
			"name":"Plane.018",
			"primitives":[
				{
					"attributes":{
						"POSITION":55,
						"NORMAL":56,
						"TEXCOORD_0":57,
						"TANGENT":58
					},
					"indices":59,
					"material":0
				}
			]
		},
		{
			"name":"Plane.019",
			"primitives":[
				{
					"attributes":{
						"POSITION":60,
						"NORMAL":61,
						"TEXCOORD_0":62,
						"TANGENT":63,
						"COLOR_0":64,
						"COLOR_1":65,
						"COLOR_2":66
					},
					"indices":67,
					"material":0
				}
			]
		},
		{
			"name":"Plane.020",
			"primitives":[
				{
					"attributes":{
						"POSITION":68,
						"NORMAL":69,
						"TEXCOORD_0":70,
						"TANGENT":71
					},
					"indices":72,
					"material":0
				}
			]
		}
	],
	"textures":[
		{
			"sampler":0,
			"source":0
		},
		{
			"sampler":0,
			"source":1
		}
	],
	"images":[
		{
			"mimeType":"image/png",
			"name":"Test-tree_normal",
			"uri":"Test-tree_normal.png"
		},
		{
			"mimeType":"image/png",
			"name":"TX_tree_Test",
			"uri":"TX_tree_Test.png"
		}
	],
	"accessors":[
		{
			"bufferView":0,
			"componentType":5126,
			"count":1876,
			"max":[
				3.716399669647217,
				6.411387920379639,
				3.070723295211792
			],
			"min":[
				-1.7955083847045898,
				-0.47407591342926025,
				-4.22323751449585
			],
			"type":"VEC3"
		},
		{
			"bufferView":1,
			"componentType":5126,
			"count":1876,
			"type":"VEC3"
		},
		{
			"bufferView":2,
			"componentType":5126,
			"count":1876,
			"type":"VEC2"
		},
		{
			"bufferView":3,
			"componentType":5126,
			"count":1876,
			"type":"VEC4"
		},
		{
			"bufferView":4,
			"componentType":5123,
			"count":4419,
			"type":"SCALAR"
		},
		{
			"bufferView":5,
			"componentType":5126,
			"count":2561,
			"max":[
				2.006197690963745,
				4.669971942901611,
				2.4674150943756104
			],
			"min":[
				-2.1621270179748535,
				-0.06591141223907471,
				-3.1147923469543457
			],
			"type":"VEC3"
		},
		{
			"bufferView":6,
			"componentType":5126,
			"count":2561,
			"type":"VEC3"
		},
		{
			"bufferView":7,
			"componentType":5126,
			"count":2561,
			"type":"VEC2"
		},
		{
			"bufferView":8,
			"componentType":5126,
			"count":2561,
			"type":"VEC4"
		},
		{
			"bufferView":9,
			"componentType":5123,
			"count":6426,
			"type":"SCALAR"
		},
		{
			"bufferView":10,
			"componentType":5126,
			"count":3155,
			"max":[
				12.934198379516602,
				15.572591781616211,
				1.8333041667938232
			],
			"min":[
				-2.2685413360595703,
				-1.034981608390808,
				-11.143274307250977
			],
			"type":"VEC3"
		},
		{
			"bufferView":11,
			"componentType":5126,
			"count":3155,
			"type":"VEC3"
		},
		{
			"bufferView":12,
			"componentType":5126,
			"count":3155,
			"type":"VEC2"
		},
		{
			"bufferView":13,
			"componentType":5126,
			"count":3155,
			"type":"VEC4"
		},
		{
			"bufferView":14,
			"componentType":5123,
			"count":8463,
			"type":"SCALAR"
		},
		{
			"bufferView":15,
			"componentType":5126,
			"count":1568,
			"max":[
				6.2519989013671875,
				9.29094123840332,
				14.817959785461426
			],
			"min":[
				-0.3201228380203247,
				0,
				-4.07780647277832
			],
			"type":"VEC3"
		},
		{
			"bufferView":16,
			"componentType":5126,
			"count":1568,
			"type":"VEC3"
		},
		{
			"bufferView":17,
			"componentType":5126,
			"count":1568,
			"type":"VEC2"
		},
		{
			"bufferView":18,
			"componentType":5126,
			"count":1568,
			"type":"VEC4"
		},
		{
			"bufferView":19,
			"componentType":5123,
			"count":3567,
			"type":"SCALAR"
		},
		{
			"bufferView":20,
			"componentType":5126,
			"count":2066,
			"max":[
				2.9661097526550293,
				4.076286315917969,
				2.2452476024627686
			],
			"min":[
				-1.4073946475982666,
				-2.869861602783203,
				-2.6170778274536133
			],
			"type":"VEC3"
		},
		{
			"bufferView":21,
			"componentType":5126,
			"count":2066,
			"type":"VEC3"
		},
		{
			"bufferView":22,
			"componentType":5126,
			"count":2066,
			"type":"VEC2"
		},
		{
			"bufferView":23,
			"componentType":5126,
			"count":2066,
			"type":"VEC4"
		},
		{
			"bufferView":24,
			"componentType":5123,
			"count":4911,
			"type":"SCALAR"
		},
		{
			"bufferView":25,
			"componentType":5126,
			"count":1933,
			"max":[
				0.6906191110610962,
				4.9362263679504395,
				4.039538383483887
			],
			"min":[
				-4.600847244262695,
				-2.807124614715576,
				-7.358877182006836
			],
			"type":"VEC3"
		},
		{
			"bufferView":26,
			"componentType":5126,
			"count":1933,
			"type":"VEC3"
		},
		{
			"bufferView":27,
			"componentType":5126,
			"count":1933,
			"type":"VEC2"
		},
		{
			"bufferView":28,
			"componentType":5126,
			"count":1933,
			"type":"VEC4"
		},
		{
			"bufferView":29,
			"componentType":5123,
			"count":4365,
			"type":"SCALAR"
		},
		{
			"bufferView":30,
			"componentType":5126,
			"count":1913,
			"max":[
				11.58559799194336,
				16.27526092529297,
				1.0931904315948486
			],
			"min":[
				-0.4573085308074951,
				-1.6575697660446167,
				-8.91964054107666
			],
			"type":"VEC3"
		},
		{
			"bufferView":31,
			"componentType":5126,
			"count":1913,
			"type":"VEC3"
		},
		{
			"bufferView":32,
			"componentType":5126,
			"count":1913,
			"type":"VEC2"
		},
		{
			"bufferView":33,
			"componentType":5126,
			"count":1913,
			"type":"VEC4"
		},
		{
			"bufferView":34,
			"componentType":5123,
			"count":4749,
			"type":"SCALAR"
		},
		{
			"bufferView":35,
			"componentType":5126,
			"count":850,
			"max":[
				5.952474117279053,
				2.001239061355591,
				0.5131323337554932
			],
			"min":[
				-4.514934539794922,
				-5.952996730804443,
				-12.707985877990723
			],
			"type":"VEC3"
		},
		{
			"bufferView":36,
			"componentType":5126,
			"count":850,
			"type":"VEC3"
		},
		{
			"bufferView":37,
			"componentType":5126,
			"count":850,
			"type":"VEC2"
		},
		{
			"bufferView":38,
			"componentType":5126,
			"count":850,
			"type":"VEC4"
		},
		{
			"bufferView":39,
			"componentType":5123,
			"count":1971,
			"type":"SCALAR"
		},
		{
			"bufferView":40,
			"componentType":5126,
			"count":1018,
			"max":[
				6.0329084396362305,
				3.1909103393554688,
				2.4180963039398193
			],
			"min":[
				-1.35866117477417,
				-7.991586685180664,
				-19.15683364868164
			],
			"type":"VEC3"
		},
		{
			"bufferView":41,
			"componentType":5126,
			"count":1018,
			"type":"VEC3"
		},
		{
			"bufferView":42,
			"componentType":5126,
			"count":1018,
			"type":"VEC2"
		},
		{
			"bufferView":43,
			"componentType":5126,
			"count":1018,
			"type":"VEC4"
		},
		{
			"bufferView":44,
			"componentType":5123,
			"count":2268,
			"type":"SCALAR"
		},
		{
			"bufferView":45,
			"componentType":5126,
			"count":1332,
			"max":[
				4.351531982421875,
				6.216926574707031,
				3.0571811199188232
			],
			"min":[
				-4.826110363006592,
				-1.2513221502304077,
				-2.5020880699157715
			],
			"type":"VEC3"
		},
		{
			"bufferView":46,
			"componentType":5126,
			"count":1332,
			"type":"VEC3"
		},
		{
			"bufferView":47,
			"componentType":5126,
			"count":1332,
			"type":"VEC2"
		},
		{
			"bufferView":48,
			"componentType":5126,
			"count":1332,
			"type":"VEC4"
		},
		{
			"bufferView":49,
			"componentType":5123,
			"count":2946,
			"type":"SCALAR"
		},
		{
			"bufferView":50,
			"componentType":5126,
			"count":1149,
			"max":[
				8.758163452148438,
				24.436464309692383,
				5.966953277587891
			],
			"min":[
				-20.64434242248535,
				-9.095152854919434,
				-24.596790313720703
			],
			"type":"VEC3"
		},
		{
			"bufferView":51,
			"componentType":5126,
			"count":1149,
			"type":"VEC3"
		},
		{
			"bufferView":52,
			"componentType":5126,
			"count":1149,
			"type":"VEC2"
		},
		{
			"bufferView":53,
			"componentType":5126,
			"count":1149,
			"type":"VEC4"
		},
		{
			"bufferView":54,
			"componentType":5123,
			"count":2502,
			"type":"SCALAR"
		},
		{
			"bufferView":55,
			"componentType":5126,
			"count":837,
			"max":[
				2.3287830352783203,
				4.819568634033203,
				0.3026156425476074
			],
			"min":[
				-2.3724310398101807,
				0,
				-4.386791229248047
			],
			"type":"VEC3"
		},
		{
			"bufferView":56,
			"componentType":5126,
			"count":837,
			"type":"VEC3"
		},
		{
			"bufferView":57,
			"componentType":5126,
			"count":837,
			"type":"VEC2"
		},
		{
			"bufferView":58,
			"componentType":5126,
			"count":837,
			"type":"VEC4"
		},
		{
			"bufferView":59,
			"componentType":5123,
			"count":1737,
			"type":"SCALAR"
		},
		{
			"bufferView":60,
			"componentType":5126,
			"count":674,
			"max":[
				2.4318366050720215,
				3.703369617462158,
				7.134540557861328
			],
			"min":[
				-1.964212417602539,
				-0.006342887878417969,
				-2.2157459259033203
			],
			"type":"VEC3"
		},
		{
			"bufferView":61,
			"componentType":5126,
			"count":674,
			"type":"VEC3"
		},
		{
			"bufferView":62,
			"componentType":5126,
			"count":674,
			"type":"VEC2"
		},
		{
			"bufferView":63,
			"componentType":5126,
			"count":674,
			"type":"VEC4"
		},
		{
			"bufferView":64,
			"componentType":5121,
			"count":674,
			"normalized":true,
			"type":"VEC4"
		},
		{
			"bufferView":65,
			"componentType":5126,
			"count":674,
			"type":"VEC3"
		},
		{
			"bufferView":66,
			"componentType":5126,
			"count":674,
			"type":"VEC3"
		},
		{
			"bufferView":67,
			"componentType":5123,
			"count":1473,
			"type":"SCALAR"
		},
		{
			"bufferView":68,
			"componentType":5126,
			"count":1035,
			"max":[
				1.0587310791015625,
				4.218676567077637,
				1.1720445156097412
			],
			"min":[
				-3.809206485748291,
				-0.15786337852478027,
				-1.4662299156188965
			],
			"type":"VEC3"
		},
		{
			"bufferView":69,
			"componentType":5126,
			"count":1035,
			"type":"VEC3"
		},
		{
			"bufferView":70,
			"componentType":5126,
			"count":1035,
			"type":"VEC2"
		},
		{
			"bufferView":71,
			"componentType":5126,
			"count":1035,
			"type":"VEC4"
		},
		{
			"bufferView":72,
			"componentType":5123,
			"count":2235,
			"type":"SCALAR"
		}
	],
	"bufferViews":[
		{
			"buffer":0,
			"byteLength":22512,
			"byteOffset":0,
			"target":34962
		},
		{
			"buffer":0,
			"byteLength":22512,
			"byteOffset":22512,
			"target":34962
		},
		{
			"buffer":0,
			"byteLength":15008,
			"byteOffset":45024,
			"target":34962
		},
		{
			"buffer":0,
			"byteLength":30016,
			"byteOffset":60032,
			"target":34962
		},
		{
			"buffer":0,
			"byteLength":8838,
			"byteOffset":90048,
			"target":34963
		},
		{
			"buffer":0,
			"byteLength":30732,
			"byteOffset":98888,
			"target":34962
		},
		{
			"buffer":0,
			"byteLength":30732,
			"byteOffset":129620,
			"target":34962
		},
		{
			"buffer":0,
			"byteLength":20488,
			"byteOffset":160352,
			"target":34962
		},
		{
			"buffer":0,
			"byteLength":40976,
			"byteOffset":180840,
			"target":34962
		},
		{
			"buffer":0,
			"byteLength":12852,
			"byteOffset":221816,
			"target":34963
		},
		{
			"buffer":0,
			"byteLength":37860,
			"byteOffset":234668,
			"target":34962
		},
		{
			"buffer":0,
			"byteLength":37860,
			"byteOffset":272528,
			"target":34962
		},
		{
			"buffer":0,
			"byteLength":25240,
			"byteOffset":310388,
			"target":34962
		},
		{
			"buffer":0,
			"byteLength":50480,
			"byteOffset":335628,
			"target":34962
		},
		{
			"buffer":0,
			"byteLength":16926,
			"byteOffset":386108,
			"target":34963
		},
		{
			"buffer":0,
			"byteLength":18816,
			"byteOffset":403036,
			"target":34962
		},
		{
			"buffer":0,
			"byteLength":18816,
			"byteOffset":421852,
			"target":34962
		},
		{
			"buffer":0,
			"byteLength":12544,
			"byteOffset":440668,
			"target":34962
		},
		{
			"buffer":0,
			"byteLength":25088,
			"byteOffset":453212,
			"target":34962
		},
		{
			"buffer":0,
			"byteLength":7134,
			"byteOffset":478300,
			"target":34963
		},
		{
			"buffer":0,
			"byteLength":24792,
			"byteOffset":485436,
			"target":34962
		},
		{
			"buffer":0,
			"byteLength":24792,
			"byteOffset":510228,
			"target":34962
		},
		{
			"buffer":0,
			"byteLength":16528,
			"byteOffset":535020,
			"target":34962
		},
		{
			"buffer":0,
			"byteLength":33056,
			"byteOffset":551548,
			"target":34962
		},
		{
			"buffer":0,
			"byteLength":9822,
			"byteOffset":584604,
			"target":34963
		},
		{
			"buffer":0,
			"byteLength":23196,
			"byteOffset":594428,
			"target":34962
		},
		{
			"buffer":0,
			"byteLength":23196,
			"byteOffset":617624,
			"target":34962
		},
		{
			"buffer":0,
			"byteLength":15464,
			"byteOffset":640820,
			"target":34962
		},
		{
			"buffer":0,
			"byteLength":30928,
			"byteOffset":656284,
			"target":34962
		},
		{
			"buffer":0,
			"byteLength":8730,
			"byteOffset":687212,
			"target":34963
		},
		{
			"buffer":0,
			"byteLength":22956,
			"byteOffset":695944,
			"target":34962
		},
		{
			"buffer":0,
			"byteLength":22956,
			"byteOffset":718900,
			"target":34962
		},
		{
			"buffer":0,
			"byteLength":15304,
			"byteOffset":741856,
			"target":34962
		},
		{
			"buffer":0,
			"byteLength":30608,
			"byteOffset":757160,
			"target":34962
		},
		{
			"buffer":0,
			"byteLength":9498,
			"byteOffset":787768,
			"target":34963
		},
		{
			"buffer":0,
			"byteLength":10200,
			"byteOffset":797268,
			"target":34962
		},
		{
			"buffer":0,
			"byteLength":10200,
			"byteOffset":807468,
			"target":34962
		},
		{
			"buffer":0,
			"byteLength":6800,
			"byteOffset":817668,
			"target":34962
		},
		{
			"buffer":0,
			"byteLength":13600,
			"byteOffset":824468,
			"target":34962
		},
		{
			"buffer":0,
			"byteLength":3942,
			"byteOffset":838068,
			"target":34963
		},
		{
			"buffer":0,
			"byteLength":12216,
			"byteOffset":842012,
			"target":34962
		},
		{
			"buffer":0,
			"byteLength":12216,
			"byteOffset":854228,
			"target":34962
		},
		{
			"buffer":0,
			"byteLength":8144,
			"byteOffset":866444,
			"target":34962
		},
		{
			"buffer":0,
			"byteLength":16288,
			"byteOffset":874588,
			"target":34962
		},
		{
			"buffer":0,
			"byteLength":4536,
			"byteOffset":890876,
			"target":34963
		},
		{
			"buffer":0,
			"byteLength":15984,
			"byteOffset":895412,
			"target":34962
		},
		{
			"buffer":0,
			"byteLength":15984,
			"byteOffset":911396,
			"target":34962
		},
		{
			"buffer":0,
			"byteLength":10656,
			"byteOffset":927380,
			"target":34962
		},
		{
			"buffer":0,
			"byteLength":21312,
			"byteOffset":938036,
			"target":34962
		},
		{
			"buffer":0,
			"byteLength":5892,
			"byteOffset":959348,
			"target":34963
		},
		{
			"buffer":0,
			"byteLength":13788,
			"byteOffset":965240,
			"target":34962
		},
		{
			"buffer":0,
			"byteLength":13788,
			"byteOffset":979028,
			"target":34962
		},
		{
			"buffer":0,
			"byteLength":9192,
			"byteOffset":992816,
			"target":34962
		},
		{
			"buffer":0,
			"byteLength":18384,
			"byteOffset":1002008,
			"target":34962
		},
		{
			"buffer":0,
			"byteLength":5004,
			"byteOffset":1020392,
			"target":34963
		},
		{
			"buffer":0,
			"byteLength":10044,
			"byteOffset":1025396,
			"target":34962
		},
		{
			"buffer":0,
			"byteLength":10044,
			"byteOffset":1035440,
			"target":34962
		},
		{
			"buffer":0,
			"byteLength":6696,
			"byteOffset":1045484,
			"target":34962
		},
		{
			"buffer":0,
			"byteLength":13392,
			"byteOffset":1052180,
			"target":34962
		},
		{
			"buffer":0,
			"byteLength":3474,
			"byteOffset":1065572,
			"target":34963
		},
		{
			"buffer":0,
			"byteLength":8088,
			"byteOffset":1069048,
			"target":34962
		},
		{
			"buffer":0,
			"byteLength":8088,
			"byteOffset":1077136,
			"target":34962
		},
		{
			"buffer":0,
			"byteLength":5392,
			"byteOffset":1085224,
			"target":34962
		},
		{
			"buffer":0,
			"byteLength":10784,
			"byteOffset":1090616,
			"target":34962
		},
		{
			"buffer":0,
			"byteLength":2696,
			"byteOffset":1101400,
			"target":34962
		},
		{
			"buffer":0,
			"byteLength":8088,
			"byteOffset":1104096,
			"target":34962
		},
		{
			"buffer":0,
			"byteLength":8088,
			"byteOffset":1112184,
			"target":34962
		},
		{
			"buffer":0,
			"byteLength":2946,
			"byteOffset":1120272,
			"target":34963
		},
		{
			"buffer":0,
			"byteLength":12420,
			"byteOffset":1123220,
			"target":34962
		},
		{
			"buffer":0,
			"byteLength":12420,
			"byteOffset":1135640,
			"target":34962
		},
		{
			"buffer":0,
			"byteLength":8280,
			"byteOffset":1148060,
			"target":34962
		},
		{
			"buffer":0,
			"byteLength":16560,
			"byteOffset":1156340,
			"target":34962
		},
		{
			"buffer":0,
			"byteLength":4470,
			"byteOffset":1172900,
			"target":34963
		}
	],
	"samplers":[
		{
			"magFilter":9729,
			"minFilter":9987
		}
	],
	"buffers":[
		{
			"byteLength":1177372,
			"uri":"EN_Trees_TEST.bin"
		}
	]
}
