{
	"asset":{
		"generator":"Khronos glTF Blender I/O v4.2.69",
		"version":"2.0"
	},
	"scene":0,
	"scenes":[
		{
			"name":"Scene",
			"nodes":[
				0,
				1,
				2,
				3,
				4,
				5,
				6,
				7,
				8,
				9,
				10,
				11,
				12,
				13
			]
		}
	],
	"nodes":[
		{
			"mesh":0,
			"name":"EN_PR_Tree_Small_01_V1"
		},
		{
			"mesh":1,
			"name":"EN_PR_Tree_Small_02_V1"
		},
		{
			"mesh":2,
			"name":"EN_PR_Tree_Big_04_V1"
		},
		{
			"mesh":3,
			"name":"EN_PR_Tree_Big_03_V1"
		},
		{
			"mesh":4,
			"name":"EN_PR_Tree_Small_04_V1"
		},
		{
			"mesh":5,
			"name":"EN_PR_Tree_Small_03_V1"
		},
		{
			"mesh":6,
			"name":"EN_PR_Tree_Big_02_V1"
		},
		{
			"mesh":7,
			"name":"EN_PR_Tree_Branch_02_V1"
		},
		{
			"mesh":8,
			"name":"EN_PR_Tree_Branch_01_V1"
		},
		{
			"mesh":9,
			"name":"EN_PR_Tree_Small_05_V1"
		},
		{
			"mesh":10,
			"name":"EN_PR_Tree_Big_01_V1"
		},
		{
			"mesh":11,
			"name":"EN_PR_Tree_Small_07_V1"
		},
		{
			"mesh":12,
			"name":"EN_PR_Tree_Branch_floor_01_V1"
		},
		{
			"mesh":13,
			"name":"EN_PR_Tree_Small_06_V1"
		}
	],
	"materials":[
		{
			"doubleSided":true,
			"name":"Material.003",
			"pbrMetallicRoughness":{
				"baseColorTexture":{
					"index":0
				},
				"metallicFactor":0
			}
		}
	],
	"meshes":[
		{
			"name":"Plane.001",
			"primitives":[
				{
					"attributes":{
						"POSITION":0,
						"NORMAL":1,
						"TEXCOORD_0":2,
						"TANGENT":3
					},
					"indices":4,
					"material":0
				}
			]
		},
		{
			"name":"Plane.003",
			"primitives":[
				{
					"attributes":{
						"POSITION":5,
						"NORMAL":6,
						"TEXCOORD_0":7,
						"TANGENT":8
					},
					"indices":9,
					"material":0
				}
			]
		},
		{
			"name":"Plane.004",
			"primitives":[
				{
					"attributes":{
						"POSITION":10,
						"NORMAL":11,
						"TEXCOORD_0":12,
						"TANGENT":13
					},
					"indices":14,
					"material":0
				}
			]
		},
		{
			"name":"Plane.005",
			"primitives":[
				{
					"attributes":{
						"POSITION":15,
						"NORMAL":16,
						"TEXCOORD_0":17,
						"TANGENT":18
					},
					"indices":19,
					"material":0
				}
			]
		},
		{
			"name":"Plane",
			"primitives":[
				{
					"attributes":{
						"POSITION":20,
						"NORMAL":21,
						"TEXCOORD_0":22,
						"TANGENT":23
					},
					"indices":24,
					"material":0
				}
			]
		},
		{
			"name":"Plane.006",
			"primitives":[
				{
					"attributes":{
						"POSITION":25,
						"NORMAL":26,
						"TEXCOORD_0":27
					},
					"indices":28,
					"material":0
				}
			]
		},
		{
			"name":"Plane.007",
			"primitives":[
				{
					"attributes":{
						"POSITION":29,
						"NORMAL":30,
						"TEXCOORD_0":31,
						"TANGENT":32
					},
					"indices":33,
					"material":0
				}
			]
		},
		{
			"name":"Plane.008",
			"primitives":[
				{
					"attributes":{
						"POSITION":34,
						"NORMAL":35,
						"TEXCOORD_0":36,
						"TANGENT":37
					},
					"indices":38,
					"material":0
				}
			]
		},
		{
			"name":"Plane.013",
			"primitives":[
				{
					"attributes":{
						"POSITION":39,
						"NORMAL":40,
						"TEXCOORD_0":41,
						"TANGENT":42
					},
					"indices":43,
					"material":0
				}
			]
		},
		{
			"name":"Plane.014",
			"primitives":[
				{
					"attributes":{
						"POSITION":44,
						"NORMAL":45,
						"TEXCOORD_0":46,
						"TANGENT":47
					},
					"indices":48,
					"material":0
				}
			]
		},
		{
			"name":"Plane.015",
			"primitives":[
				{
					"attributes":{
						"POSITION":49,
						"NORMAL":50,
						"TEXCOORD_0":51,
						"TANGENT":52
					},
					"indices":53,
					"material":0
				}
			]
		},
		{
			"name":"Plane.018",
			"primitives":[
				{
					"attributes":{
						"POSITION":54,
						"NORMAL":55,
						"TEXCOORD_0":56,
						"TANGENT":57
					},
					"indices":58,
					"material":0
				}
			]
		},
		{
			"name":"Plane.019",
			"primitives":[
				{
					"attributes":{
						"POSITION":59,
						"NORMAL":60,
						"TEXCOORD_0":61,
						"TANGENT":62,
						"COLOR_0":63,
						"COLOR_1":64
					},
					"indices":65,
					"material":0
				}
			]
		},
		{
			"name":"Plane.020",
			"primitives":[
				{
					"attributes":{
						"POSITION":66,
						"NORMAL":67,
						"TEXCOORD_0":68,
						"TANGENT":69
					},
					"indices":70,
					"material":0
				}
			]
		}
	],
	"textures":[
		{
			"sampler":0,
			"source":0
		}
	],
	"images":[
		{
			"mimeType":"image/png",
			"name":"TX_tree_Test",
			"uri":"Textures/TX_tree_Test.png"
		}
	],
	"accessors":[
		{
			"bufferView":0,
			"componentType":5126,
			"count":1896,
			"max":[
				3.716399669647217,
				6.411387920379639,
				3.070723056793213
			],
			"min":[
				-1.7955082654953003,
				-0.4740758538246155,
				-4.22323751449585
			],
			"type":"VEC3"
		},
		{
			"bufferView":1,
			"componentType":5126,
			"count":1896,
			"type":"VEC3"
		},
		{
			"bufferView":2,
			"componentType":5126,
			"count":1896,
			"type":"VEC2"
		},
		{
			"bufferView":3,
			"componentType":5126,
			"count":1896,
			"type":"VEC4"
		},
		{
			"bufferView":4,
			"componentType":5123,
			"count":4467,
			"type":"SCALAR"
		},
		{
			"bufferView":5,
			"componentType":5126,
			"count":2593,
			"max":[
				2.006197690963745,
				4.669971942901611,
				2.4674150943756104
			],
			"min":[
				-2.1621270179748535,
				-0.0659114271402359,
				-3.1147923469543457
			],
			"type":"VEC3"
		},
		{
			"bufferView":6,
			"componentType":5126,
			"count":2593,
			"type":"VEC3"
		},
		{
			"bufferView":7,
			"componentType":5126,
			"count":2593,
			"type":"VEC2"
		},
		{
			"bufferView":8,
			"componentType":5126,
			"count":2593,
			"type":"VEC4"
		},
		{
			"bufferView":9,
			"componentType":5123,
			"count":6498,
			"type":"SCALAR"
		},
		{
			"bufferView":10,
			"componentType":5126,
			"count":3209,
			"max":[
				12.934198379516602,
				15.572591781616211,
				1.8333044052124023
			],
			"min":[
				-2.2685413360595703,
				-1.0349817276000977,
				-11.143274307250977
			],
			"type":"VEC3"
		},
		{
			"bufferView":11,
			"componentType":5126,
			"count":3209,
			"type":"VEC3"
		},
		{
			"bufferView":12,
			"componentType":5126,
			"count":3209,
			"type":"VEC2"
		},
		{
			"bufferView":13,
			"componentType":5126,
			"count":3209,
			"type":"VEC4"
		},
		{
			"bufferView":14,
			"componentType":5123,
			"count":8580,
			"type":"SCALAR"
		},
		{
			"bufferView":15,
			"componentType":5126,
			"count":1604,
			"max":[
				6.2519989013671875,
				9.29094123840332,
				14.817959785461426
			],
			"min":[
				-0.3201228082180023,
				-2.9802322387695312e-08,
				-4.07780647277832
			],
			"type":"VEC3"
		},
		{
			"bufferView":16,
			"componentType":5126,
			"count":1604,
			"type":"VEC3"
		},
		{
			"bufferView":17,
			"componentType":5126,
			"count":1604,
			"type":"VEC2"
		},
		{
			"bufferView":18,
			"componentType":5126,
			"count":1604,
			"type":"VEC4"
		},
		{
			"bufferView":19,
			"componentType":5123,
			"count":3642,
			"type":"SCALAR"
		},
		{
			"bufferView":20,
			"componentType":5126,
			"count":2127,
			"max":[
				2.9661097526550293,
				4.076286315917969,
				2.2452473640441895
			],
			"min":[
				-1.4073946475982666,
				-2.869861364364624,
				-2.6170778274536133
			],
			"type":"VEC3"
		},
		{
			"bufferView":21,
			"componentType":5126,
			"count":2127,
			"type":"VEC3"
		},
		{
			"bufferView":22,
			"componentType":5126,
			"count":2127,
			"type":"VEC2"
		},
		{
			"bufferView":23,
			"componentType":5126,
			"count":2127,
			"type":"VEC4"
		},
		{
			"bufferView":24,
			"componentType":5123,
			"count":5034,
			"type":"SCALAR"
		},
		{
			"bufferView":25,
			"componentType":5126,
			"count":2022,
			"max":[
				0.6906191110610962,
				4.9362263679504395,
				4.0395379066467285
			],
			"min":[
				-4.600847244262695,
				-2.807124614715576,
				-7.358877658843994
			],
			"type":"VEC3"
		},
		{
			"bufferView":26,
			"componentType":5126,
			"count":2022,
			"type":"VEC3"
		},
		{
			"bufferView":27,
			"componentType":5126,
			"count":2022,
			"type":"VEC2"
		},
		{
			"bufferView":28,
			"componentType":5123,
			"count":4569,
			"type":"SCALAR"
		},
		{
			"bufferView":29,
			"componentType":5126,
			"count":1937,
			"max":[
				11.58559799194336,
				16.27526092529297,
				1.0931904315948486
			],
			"min":[
				-0.4573085606098175,
				-1.6575698852539062,
				-8.91964054107666
			],
			"type":"VEC3"
		},
		{
			"bufferView":30,
			"componentType":5126,
			"count":1937,
			"type":"VEC3"
		},
		{
			"bufferView":31,
			"componentType":5126,
			"count":1937,
			"type":"VEC2"
		},
		{
			"bufferView":32,
			"componentType":5126,
			"count":1937,
			"type":"VEC4"
		},
		{
			"bufferView":33,
			"componentType":5123,
			"count":4803,
			"type":"SCALAR"
		},
		{
			"bufferView":34,
			"componentType":5126,
			"count":877,
			"max":[
				5.952474117279053,
				2.001239061355591,
				0.5131323933601379
			],
			"min":[
				-4.514934539794922,
				-5.952996730804443,
				-12.707985877990723
			],
			"type":"VEC3"
		},
		{
			"bufferView":35,
			"componentType":5126,
			"count":877,
			"type":"VEC3"
		},
		{
			"bufferView":36,
			"componentType":5126,
			"count":877,
			"type":"VEC2"
		},
		{
			"bufferView":37,
			"componentType":5126,
			"count":877,
			"type":"VEC4"
		},
		{
			"bufferView":38,
			"componentType":5123,
			"count":2034,
			"type":"SCALAR"
		},
		{
			"bufferView":39,
			"componentType":5126,
			"count":1080,
			"max":[
				6.0329084396362305,
				3.1909103393554688,
				2.4180965423583984
			],
			"min":[
				-1.35866117477417,
				-7.991586685180664,
				-19.15683364868164
			],
			"type":"VEC3"
		},
		{
			"bufferView":40,
			"componentType":5126,
			"count":1080,
			"type":"VEC3"
		},
		{
			"bufferView":41,
			"componentType":5126,
			"count":1080,
			"type":"VEC2"
		},
		{
			"bufferView":42,
			"componentType":5126,
			"count":1080,
			"type":"VEC4"
		},
		{
			"bufferView":43,
			"componentType":5123,
			"count":2427,
			"type":"SCALAR"
		},
		{
			"bufferView":44,
			"componentType":5126,
			"count":1367,
			"max":[
				4.351531982421875,
				6.216926574707031,
				3.0571813583374023
			],
			"min":[
				-4.826110363006592,
				-1.2513220310211182,
				-2.5020880699157715
			],
			"type":"VEC3"
		},
		{
			"bufferView":45,
			"componentType":5126,
			"count":1367,
			"type":"VEC3"
		},
		{
			"bufferView":46,
			"componentType":5126,
			"count":1367,
			"type":"VEC2"
		},
		{
			"bufferView":47,
			"componentType":5126,
			"count":1367,
			"type":"VEC4"
		},
		{
			"bufferView":48,
			"componentType":5123,
			"count":3045,
			"type":"SCALAR"
		},
		{
			"bufferView":49,
			"componentType":5126,
			"count":1165,
			"max":[
				8.758163452148438,
				24.436464309692383,
				5.966953277587891
			],
			"min":[
				-20.64434242248535,
				-9.095152854919434,
				-24.596790313720703
			],
			"type":"VEC3"
		},
		{
			"bufferView":50,
			"componentType":5126,
			"count":1165,
			"type":"VEC3"
		},
		{
			"bufferView":51,
			"componentType":5126,
			"count":1165,
			"type":"VEC2"
		},
		{
			"bufferView":52,
			"componentType":5126,
			"count":1165,
			"type":"VEC4"
		},
		{
			"bufferView":53,
			"componentType":5123,
			"count":2544,
			"type":"SCALAR"
		},
		{
			"bufferView":54,
			"componentType":5126,
			"count":851,
			"max":[
				2.3287830352783203,
				4.819568634033203,
				0.3026156723499298
			],
			"min":[
				-2.3724310398101807,
				0,
				-4.386791229248047
			],
			"type":"VEC3"
		},
		{
			"bufferView":55,
			"componentType":5126,
			"count":851,
			"type":"VEC3"
		},
		{
			"bufferView":56,
			"componentType":5126,
			"count":851,
			"type":"VEC2"
		},
		{
			"bufferView":57,
			"componentType":5126,
			"count":851,
			"type":"VEC4"
		},
		{
			"bufferView":58,
			"componentType":5123,
			"count":1800,
			"type":"SCALAR"
		},
		{
			"bufferView":59,
			"componentType":5126,
			"count":690,
			"max":[
				2.4318366050720215,
				3.703369617462158,
				7.13454008102417
			],
			"min":[
				-1.9642125368118286,
				-0.006342887878417969,
				-2.2157459259033203
			],
			"type":"VEC3"
		},
		{
			"bufferView":60,
			"componentType":5126,
			"count":690,
			"type":"VEC3"
		},
		{
			"bufferView":61,
			"componentType":5126,
			"count":690,
			"type":"VEC2"
		},
		{
			"bufferView":62,
			"componentType":5126,
			"count":690,
			"type":"VEC4"
		},
		{
			"bufferView":63,
			"componentType":5121,
			"count":690,
			"normalized":true,
			"type":"VEC4"
		},
		{
			"bufferView":64,
			"componentType":5126,
			"count":690,
			"type":"VEC3"
		},
		{
			"bufferView":65,
			"componentType":5123,
			"count":1512,
			"type":"SCALAR"
		},
		{
			"bufferView":66,
			"componentType":5126,
			"count":1065,
			"max":[
				1.0587310791015625,
				4.218676567077637,
				1.1720443964004517
			],
			"min":[
				-3.80920672416687,
				-0.15786336362361908,
				-1.4662299156188965
			],
			"type":"VEC3"
		},
		{
			"bufferView":67,
			"componentType":5126,
			"count":1065,
			"type":"VEC3"
		},
		{
			"bufferView":68,
			"componentType":5126,
			"count":1065,
			"type":"VEC2"
		},
		{
			"bufferView":69,
			"componentType":5126,
			"count":1065,
			"type":"VEC4"
		},
		{
			"bufferView":70,
			"componentType":5123,
			"count":2313,
			"type":"SCALAR"
		}
	],
	"bufferViews":[
		{
			"buffer":0,
			"byteLength":22752,
			"byteOffset":0,
			"target":34962
		},
		{
			"buffer":0,
			"byteLength":22752,
			"byteOffset":22752,
			"target":34962
		},
		{
			"buffer":0,
			"byteLength":15168,
			"byteOffset":45504,
			"target":34962
		},
		{
			"buffer":0,
			"byteLength":30336,
			"byteOffset":60672,
			"target":34962
		},
		{
			"buffer":0,
			"byteLength":8934,
			"byteOffset":91008,
			"target":34963
		},
		{
			"buffer":0,
			"byteLength":31116,
			"byteOffset":99944,
			"target":34962
		},
		{
			"buffer":0,
			"byteLength":31116,
			"byteOffset":131060,
			"target":34962
		},
		{
			"buffer":0,
			"byteLength":20744,
			"byteOffset":162176,
			"target":34962
		},
		{
			"buffer":0,
			"byteLength":41488,
			"byteOffset":182920,
			"target":34962
		},
		{
			"buffer":0,
			"byteLength":12996,
			"byteOffset":224408,
			"target":34963
		},
		{
			"buffer":0,
			"byteLength":38508,
			"byteOffset":237404,
			"target":34962
		},
		{
			"buffer":0,
			"byteLength":38508,
			"byteOffset":275912,
			"target":34962
		},
		{
			"buffer":0,
			"byteLength":25672,
			"byteOffset":314420,
			"target":34962
		},
		{
			"buffer":0,
			"byteLength":51344,
			"byteOffset":340092,
			"target":34962
		},
		{
			"buffer":0,
			"byteLength":17160,
			"byteOffset":391436,
			"target":34963
		},
		{
			"buffer":0,
			"byteLength":19248,
			"byteOffset":408596,
			"target":34962
		},
		{
			"buffer":0,
			"byteLength":19248,
			"byteOffset":427844,
			"target":34962
		},
		{
			"buffer":0,
			"byteLength":12832,
			"byteOffset":447092,
			"target":34962
		},
		{
			"buffer":0,
			"byteLength":25664,
			"byteOffset":459924,
			"target":34962
		},
		{
			"buffer":0,
			"byteLength":7284,
			"byteOffset":485588,
			"target":34963
		},
		{
			"buffer":0,
			"byteLength":25524,
			"byteOffset":492872,
			"target":34962
		},
		{
			"buffer":0,
			"byteLength":25524,
			"byteOffset":518396,
			"target":34962
		},
		{
			"buffer":0,
			"byteLength":17016,
			"byteOffset":543920,
			"target":34962
		},
		{
			"buffer":0,
			"byteLength":34032,
			"byteOffset":560936,
			"target":34962
		},
		{
			"buffer":0,
			"byteLength":10068,
			"byteOffset":594968,
			"target":34963
		},
		{
			"buffer":0,
			"byteLength":24264,
			"byteOffset":605036,
			"target":34962
		},
		{
			"buffer":0,
			"byteLength":24264,
			"byteOffset":629300,
			"target":34962
		},
		{
			"buffer":0,
			"byteLength":16176,
			"byteOffset":653564,
			"target":34962
		},
		{
			"buffer":0,
			"byteLength":9138,
			"byteOffset":669740,
			"target":34963
		},
		{
			"buffer":0,
			"byteLength":23244,
			"byteOffset":678880,
			"target":34962
		},
		{
			"buffer":0,
			"byteLength":23244,
			"byteOffset":702124,
			"target":34962
		},
		{
			"buffer":0,
			"byteLength":15496,
			"byteOffset":725368,
			"target":34962
		},
		{
			"buffer":0,
			"byteLength":30992,
			"byteOffset":740864,
			"target":34962
		},
		{
			"buffer":0,
			"byteLength":9606,
			"byteOffset":771856,
			"target":34963
		},
		{
			"buffer":0,
			"byteLength":10524,
			"byteOffset":781464,
			"target":34962
		},
		{
			"buffer":0,
			"byteLength":10524,
			"byteOffset":791988,
			"target":34962
		},
		{
			"buffer":0,
			"byteLength":7016,
			"byteOffset":802512,
			"target":34962
		},
		{
			"buffer":0,
			"byteLength":14032,
			"byteOffset":809528,
			"target":34962
		},
		{
			"buffer":0,
			"byteLength":4068,
			"byteOffset":823560,
			"target":34963
		},
		{
			"buffer":0,
			"byteLength":12960,
			"byteOffset":827628,
			"target":34962
		},
		{
			"buffer":0,
			"byteLength":12960,
			"byteOffset":840588,
			"target":34962
		},
		{
			"buffer":0,
			"byteLength":8640,
			"byteOffset":853548,
			"target":34962
		},
		{
			"buffer":0,
			"byteLength":17280,
			"byteOffset":862188,
			"target":34962
		},
		{
			"buffer":0,
			"byteLength":4854,
			"byteOffset":879468,
			"target":34963
		},
		{
			"buffer":0,
			"byteLength":16404,
			"byteOffset":884324,
			"target":34962
		},
		{
			"buffer":0,
			"byteLength":16404,
			"byteOffset":900728,
			"target":34962
		},
		{
			"buffer":0,
			"byteLength":10936,
			"byteOffset":917132,
			"target":34962
		},
		{
			"buffer":0,
			"byteLength":21872,
			"byteOffset":928068,
			"target":34962
		},
		{
			"buffer":0,
			"byteLength":6090,
			"byteOffset":949940,
			"target":34963
		},
		{
			"buffer":0,
			"byteLength":13980,
			"byteOffset":956032,
			"target":34962
		},
		{
			"buffer":0,
			"byteLength":13980,
			"byteOffset":970012,
			"target":34962
		},
		{
			"buffer":0,
			"byteLength":9320,
			"byteOffset":983992,
			"target":34962
		},
		{
			"buffer":0,
			"byteLength":18640,
			"byteOffset":993312,
			"target":34962
		},
		{
			"buffer":0,
			"byteLength":5088,
			"byteOffset":1011952,
			"target":34963
		},
		{
			"buffer":0,
			"byteLength":10212,
			"byteOffset":1017040,
			"target":34962
		},
		{
			"buffer":0,
			"byteLength":10212,
			"byteOffset":1027252,
			"target":34962
		},
		{
			"buffer":0,
			"byteLength":6808,
			"byteOffset":1037464,
			"target":34962
		},
		{
			"buffer":0,
			"byteLength":13616,
			"byteOffset":1044272,
			"target":34962
		},
		{
			"buffer":0,
			"byteLength":3600,
			"byteOffset":1057888,
			"target":34963
		},
		{
			"buffer":0,
			"byteLength":8280,
			"byteOffset":1061488,
			"target":34962
		},
		{
			"buffer":0,
			"byteLength":8280,
			"byteOffset":1069768,
			"target":34962
		},
		{
			"buffer":0,
			"byteLength":5520,
			"byteOffset":1078048,
			"target":34962
		},
		{
			"buffer":0,
			"byteLength":11040,
			"byteOffset":1083568,
			"target":34962
		},
		{
			"buffer":0,
			"byteLength":2760,
			"byteOffset":1094608,
			"target":34962
		},
		{
			"buffer":0,
			"byteLength":8280,
			"byteOffset":1097368,
			"target":34962
		},
		{
			"buffer":0,
			"byteLength":3024,
			"byteOffset":1105648,
			"target":34963
		},
		{
			"buffer":0,
			"byteLength":12780,
			"byteOffset":1108672,
			"target":34962
		},
		{
			"buffer":0,
			"byteLength":12780,
			"byteOffset":1121452,
			"target":34962
		},
		{
			"buffer":0,
			"byteLength":8520,
			"byteOffset":1134232,
			"target":34962
		},
		{
			"buffer":0,
			"byteLength":17040,
			"byteOffset":1142752,
			"target":34962
		},
		{
			"buffer":0,
			"byteLength":4626,
			"byteOffset":1159792,
			"target":34963
		}
	],
	"samplers":[
		{
			"magFilter":9729,
			"minFilter":9987
		}
	],
	"buffers":[
		{
			"byteLength":1164420,
			"uri":"EN_Trees_TEST.bin"
		}
	]
}
