{
	"asset":{
		"generator":"Khronos glTF Blender I/O v4.2.57",
		"version":"2.0"
	},
	"scene":0,
	"scenes":[
		{
			"name":"Scene",
			"nodes":[
				0,
				1,
				2,
				3,
				4,
				5,
				6
			]
		}
	],
	"nodes":[
		{
			"mesh":0,
			"name":"EN_WaterFoam_07",
			"scale":[
				1,
				1.8814878463745117,
				1
			]
		},
		{
			"mesh":1,
			"name":"EN_WaterFoam_06",
			"scale":[
				0.46629661321640015,
				1,
				1
			]
		},
		{
			"mesh":2,
			"name":"EN_WaterFoam_05",
			"scale":[
				0.3232641816139221,
				1,
				1
			]
		},
		{
			"mesh":3,
			"name":"EN_WaterFoam_04"
		},
		{
			"mesh":4,
			"name":"EN_WaterFoam_03"
		},
		{
			"mesh":5,
			"name":"EN_WaterFoam_02"
		},
		{
			"mesh":6,
			"name":"EN_WaterFoam_01"
		}
	],
	"materials":[
		{
			"alphaMode":"BLEND",
			"doubleSided":true,
			"name":"M_Bluff_Water",
			"pbrMetallicRoughness":{
				"baseColorTexture":{
					"index":0
				},
				"metallicFactor":0,
				"roughnessFactor":0.5
			}
		}
	],
	"meshes":[
		{
			"name":"Sphere.004",
			"primitives":[
				{
					"attributes":{
						"POSITION":0,
						"NORMAL":1,
						"TEXCOORD_0":2,
						"TANGENT":3
					},
					"indices":4,
					"material":0
				}
			]
		},
		{
			"name":"Sphere.006",
			"primitives":[
				{
					"attributes":{
						"POSITION":5,
						"NORMAL":6,
						"TEXCOORD_0":7,
						"TANGENT":8
					},
					"indices":4,
					"material":0
				}
			]
		},
		{
			"name":"Sphere.005",
			"primitives":[
				{
					"attributes":{
						"POSITION":9,
						"NORMAL":10,
						"TEXCOORD_0":11,
						"TANGENT":12
					},
					"indices":4,
					"material":0
				}
			]
		},
		{
			"name":"Sphere.001",
			"primitives":[
				{
					"attributes":{
						"POSITION":13,
						"NORMAL":14,
						"TEXCOORD_0":15,
						"TANGENT":16
					},
					"indices":4,
					"material":0
				}
			]
		},
		{
			"name":"Cylinder",
			"primitives":[
				{
					"attributes":{
						"POSITION":17,
						"NORMAL":18,
						"TEXCOORD_0":19,
						"TANGENT":20
					},
					"indices":21,
					"material":0
				}
			]
		},
		{
			"name":"Cylinder.001",
			"primitives":[
				{
					"attributes":{
						"POSITION":22,
						"NORMAL":23,
						"TEXCOORD_0":24,
						"TANGENT":25
					},
					"indices":21,
					"material":0
				}
			]
		},
		{
			"name":"Plane.001",
			"primitives":[
				{
					"attributes":{
						"POSITION":26,
						"NORMAL":27,
						"TEXCOORD_0":28,
						"TANGENT":29
					},
					"indices":30,
					"material":0
				}
			]
		}
	],
	"textures":[
		{
			"sampler":0,
			"source":0
		}
	],
	"images":[
		{
			"mimeType":"image/png",
			"name":"T_Bluff_Water",
			"uri":"T_Bluff_Water.png"
		}
	],
	"accessors":[
		{
			"bufferView":0,
			"componentType":5126,
			"count":272,
			"max":[
				4.76837158203125e-07,
				0.9951847791671753,
				0.9999993443489075
			],
			"min":[
				-0.9999990463256836,
				0,
				-0.9999988079071045
			],
			"type":"VEC3"
		},
		{
			"bufferView":1,
			"componentType":5126,
			"count":272,
			"type":"VEC3"
		},
		{
			"bufferView":2,
			"componentType":5126,
			"count":272,
			"type":"VEC2"
		},
		{
			"bufferView":3,
			"componentType":5126,
			"count":272,
			"type":"VEC4"
		},
		{
			"bufferView":4,
			"componentType":5123,
			"count":1440,
			"type":"SCALAR"
		},
		{
			"bufferView":5,
			"componentType":5126,
			"count":272,
			"max":[
				4.76837158203125e-07,
				0.9951847791671753,
				0.9999993443489075
			],
			"min":[
				-0.9999990463256836,
				0,
				-0.9999988079071045
			],
			"type":"VEC3"
		},
		{
			"bufferView":6,
			"componentType":5126,
			"count":272,
			"type":"VEC3"
		},
		{
			"bufferView":7,
			"componentType":5126,
			"count":272,
			"type":"VEC2"
		},
		{
			"bufferView":8,
			"componentType":5126,
			"count":272,
			"type":"VEC4"
		},
		{
			"bufferView":9,
			"componentType":5126,
			"count":272,
			"max":[
				4.76837158203125e-07,
				0.9951847791671753,
				0.9999993443489075
			],
			"min":[
				-0.9999990463256836,
				0,
				-0.9999988079071045
			],
			"type":"VEC3"
		},
		{
			"bufferView":10,
			"componentType":5126,
			"count":272,
			"type":"VEC3"
		},
		{
			"bufferView":11,
			"componentType":5126,
			"count":272,
			"type":"VEC2"
		},
		{
			"bufferView":12,
			"componentType":5126,
			"count":272,
			"type":"VEC4"
		},
		{
			"bufferView":13,
			"componentType":5126,
			"count":272,
			"max":[
				4.76837158203125e-07,
				0.9951847791671753,
				0.9999993443489075
			],
			"min":[
				-0.9999990463256836,
				0,
				-0.9999988079071045
			],
			"type":"VEC3"
		},
		{
			"bufferView":14,
			"componentType":5126,
			"count":272,
			"type":"VEC3"
		},
		{
			"bufferView":15,
			"componentType":5126,
			"count":272,
			"type":"VEC2"
		},
		{
			"bufferView":16,
			"componentType":5126,
			"count":272,
			"type":"VEC4"
		},
		{
			"bufferView":17,
			"componentType":5126,
			"count":34,
			"max":[
				0,
				2.0190420150756836,
				1
			],
			"min":[
				-1,
				0.019042134284973145,
				-1
			],
			"type":"VEC3"
		},
		{
			"bufferView":18,
			"componentType":5126,
			"count":34,
			"type":"VEC3"
		},
		{
			"bufferView":19,
			"componentType":5126,
			"count":34,
			"type":"VEC2"
		},
		{
			"bufferView":20,
			"componentType":5126,
			"count":34,
			"type":"VEC4"
		},
		{
			"bufferView":21,
			"componentType":5123,
			"count":96,
			"type":"SCALAR"
		},
		{
			"bufferView":22,
			"componentType":5126,
			"count":34,
			"max":[
				0,
				0.9567906856536865,
				1
			],
			"min":[
				-1,
				0.06746649742126465,
				-1
			],
			"type":"VEC3"
		},
		{
			"bufferView":23,
			"componentType":5126,
			"count":34,
			"type":"VEC3"
		},
		{
			"bufferView":24,
			"componentType":5126,
			"count":34,
			"type":"VEC2"
		},
		{
			"bufferView":25,
			"componentType":5126,
			"count":34,
			"type":"VEC4"
		},
		{
			"bufferView":26,
			"componentType":5126,
			"count":4,
			"max":[
				4.371138828673793e-08,
				1.9021453857421875,
				1
			],
			"min":[
				-4.371138828673793e-08,
				-0.0978546142578125,
				-1
			],
			"type":"VEC3"
		},
		{
			"bufferView":27,
			"componentType":5126,
			"count":4,
			"type":"VEC3"
		},
		{
			"bufferView":28,
			"componentType":5126,
			"count":4,
			"type":"VEC2"
		},
		{
			"bufferView":29,
			"componentType":5126,
			"count":4,
			"type":"VEC4"
		},
		{
			"bufferView":30,
			"componentType":5123,
			"count":6,
			"type":"SCALAR"
		}
	],
	"bufferViews":[
		{
			"buffer":0,
			"byteLength":3264,
			"byteOffset":0,
			"target":34962
		},
		{
			"buffer":0,
			"byteLength":3264,
			"byteOffset":3264,
			"target":34962
		},
		{
			"buffer":0,
			"byteLength":2176,
			"byteOffset":6528,
			"target":34962
		},
		{
			"buffer":0,
			"byteLength":4352,
			"byteOffset":8704,
			"target":34962
		},
		{
			"buffer":0,
			"byteLength":2880,
			"byteOffset":13056,
			"target":34963
		},
		{
			"buffer":0,
			"byteLength":3264,
			"byteOffset":15936,
			"target":34962
		},
		{
			"buffer":0,
			"byteLength":3264,
			"byteOffset":19200,
			"target":34962
		},
		{
			"buffer":0,
			"byteLength":2176,
			"byteOffset":22464,
			"target":34962
		},
		{
			"buffer":0,
			"byteLength":4352,
			"byteOffset":24640,
			"target":34962
		},
		{
			"buffer":0,
			"byteLength":3264,
			"byteOffset":28992,
			"target":34962
		},
		{
			"buffer":0,
			"byteLength":3264,
			"byteOffset":32256,
			"target":34962
		},
		{
			"buffer":0,
			"byteLength":2176,
			"byteOffset":35520,
			"target":34962
		},
		{
			"buffer":0,
			"byteLength":4352,
			"byteOffset":37696,
			"target":34962
		},
		{
			"buffer":0,
			"byteLength":3264,
			"byteOffset":42048,
			"target":34962
		},
		{
			"buffer":0,
			"byteLength":3264,
			"byteOffset":45312,
			"target":34962
		},
		{
			"buffer":0,
			"byteLength":2176,
			"byteOffset":48576,
			"target":34962
		},
		{
			"buffer":0,
			"byteLength":4352,
			"byteOffset":50752,
			"target":34962
		},
		{
			"buffer":0,
			"byteLength":408,
			"byteOffset":55104,
			"target":34962
		},
		{
			"buffer":0,
			"byteLength":408,
			"byteOffset":55512,
			"target":34962
		},
		{
			"buffer":0,
			"byteLength":272,
			"byteOffset":55920,
			"target":34962
		},
		{
			"buffer":0,
			"byteLength":544,
			"byteOffset":56192,
			"target":34962
		},
		{
			"buffer":0,
			"byteLength":192,
			"byteOffset":56736,
			"target":34963
		},
		{
			"buffer":0,
			"byteLength":408,
			"byteOffset":56928,
			"target":34962
		},
		{
			"buffer":0,
			"byteLength":408,
			"byteOffset":57336,
			"target":34962
		},
		{
			"buffer":0,
			"byteLength":272,
			"byteOffset":57744,
			"target":34962
		},
		{
			"buffer":0,
			"byteLength":544,
			"byteOffset":58016,
			"target":34962
		},
		{
			"buffer":0,
			"byteLength":48,
			"byteOffset":58560,
			"target":34962
		},
		{
			"buffer":0,
			"byteLength":48,
			"byteOffset":58608,
			"target":34962
		},
		{
			"buffer":0,
			"byteLength":32,
			"byteOffset":58656,
			"target":34962
		},
		{
			"buffer":0,
			"byteLength":64,
			"byteOffset":58688,
			"target":34962
		},
		{
			"buffer":0,
			"byteLength":12,
			"byteOffset":58752,
			"target":34963
		}
	],
	"samplers":[
		{
			"magFilter":9729,
			"minFilter":9987
		}
	],
	"buffers":[
		{
			"byteLength":58764,
			"uri":"EN_WaterFoams_GLTF.bin"
		}
	]
}
