{
	"asset":{
		"generator":"Khronos glTF Blender I/O v4.2.57",
		"version":"2.0"
	},
	"scene":0,
	"scenes":[
		{
			"name":"Scene",
			"nodes":[
				0,
				1,
				2,
				3,
				4,
				5,
				6,
				7,
				8,
				9,
				10
			]
		}
	],
	"nodes":[
		{
			"mesh":0,
			"name":"EN_WaterfallRock_02"
		},
		{
			"mesh":1,
			"name":"EN_WaterfallRock_01"
		},
		{
			"mesh":2,
			"name":"EN_WaterfallRock_03"
		},
		{
			"mesh":3,
			"name":"EN_WaterfallRock_04"
		},
		{
			"mesh":4,
			"name":"EN_WaterfallRock_05"
		},
		{
			"mesh":5,
			"name":"EN_WaterfallRock_06"
		},
		{
			"mesh":6,
			"name":"EN_WaterfallRock_10"
		},
		{
			"mesh":7,
			"name":"EN_WaterfallRock_11"
		},
		{
			"mesh":8,
			"name":"EN_WaterfallRock_07"
		},
		{
			"mesh":9,
			"name":"EN_WaterfallRock_08"
		},
		{
			"mesh":10,
			"name":"EN_WaterfallRock_09"
		}
	],
	"materials":[
		{
			"doubleSided":true,
			"name":"M_WaterfallRocks_FloatingRocks",
			"normalTexture":{
				"index":0
			},
			"pbrMetallicRoughness":{
				"baseColorTexture":{
					"index":1
				},
				"metallicRoughnessTexture":{
					"index":2
				}
			}
		}
	],
	"meshes":[
		{
			"name":"Mesh",
			"primitives":[
				{
					"attributes":{
						"POSITION":0,
						"NORMAL":1,
						"TEXCOORD_0":2,
						"TANGENT":3
					},
					"indices":4,
					"material":0
				}
			]
		},
		{
			"name":"Mesh.001",
			"primitives":[
				{
					"attributes":{
						"POSITION":5,
						"NORMAL":6,
						"TEXCOORD_0":7,
						"TANGENT":8
					},
					"indices":9,
					"material":0
				}
			]
		},
		{
			"name":"Mesh.002",
			"primitives":[
				{
					"attributes":{
						"POSITION":10,
						"NORMAL":11,
						"TEXCOORD_0":12,
						"TANGENT":13
					},
					"indices":14,
					"material":0
				}
			]
		},
		{
			"name":"Mesh.003",
			"primitives":[
				{
					"attributes":{
						"POSITION":15,
						"NORMAL":16,
						"TEXCOORD_0":17,
						"TANGENT":18
					},
					"indices":19,
					"material":0
				}
			]
		},
		{
			"name":"Mesh.008",
			"primitives":[
				{
					"attributes":{
						"POSITION":20,
						"NORMAL":21,
						"TEXCOORD_0":22,
						"TANGENT":23
					},
					"indices":24,
					"material":0
				}
			]
		},
		{
			"name":"Mesh.009",
			"primitives":[
				{
					"attributes":{
						"POSITION":25,
						"NORMAL":26,
						"TEXCOORD_0":27,
						"TANGENT":28
					},
					"indices":29,
					"material":0
				}
			]
		},
		{
			"name":"Mesh.010",
			"primitives":[
				{
					"attributes":{
						"POSITION":30,
						"NORMAL":31,
						"TEXCOORD_0":32,
						"TANGENT":33
					},
					"indices":34,
					"material":0
				}
			]
		},
		{
			"name":"Mesh.011",
			"primitives":[
				{
					"attributes":{
						"POSITION":35,
						"NORMAL":36,
						"TEXCOORD_0":37,
						"TANGENT":38
					},
					"indices":39,
					"material":0
				}
			]
		},
		{
			"name":"Mesh.012",
			"primitives":[
				{
					"attributes":{
						"POSITION":40,
						"NORMAL":41,
						"TEXCOORD_0":42,
						"TANGENT":43
					},
					"indices":44,
					"material":0
				}
			]
		},
		{
			"name":"Mesh.013",
			"primitives":[
				{
					"attributes":{
						"POSITION":45,
						"NORMAL":46,
						"TEXCOORD_0":47,
						"TANGENT":48
					},
					"indices":49,
					"material":0
				}
			]
		},
		{
			"name":"Mesh.014",
			"primitives":[
				{
					"attributes":{
						"POSITION":50,
						"NORMAL":51,
						"TEXCOORD_0":52,
						"TANGENT":53
					},
					"indices":54,
					"material":0
				}
			]
		}
	],
	"textures":[
		{
			"sampler":0,
			"source":0
		},
		{
			"sampler":0,
			"source":1
		},
		{
			"sampler":0,
			"source":2
		}
	],
	"images":[
		{
			"mimeType":"image/png",
			"name":"T_WaterFallRocks_FloatingRocks_Normal",
			"uri":"T_WaterFallRocks_FloatingRocks_Normal.png"
		},
		{
			"mimeType":"image/png",
			"name":"T_WaterFallRocks_FloatingRocks_BaseColor",
			"uri":"T_WaterFallRocks_FloatingRocks_BaseColor.png"
		},
		{
			"mimeType":"image/png",
			"name":"T_WaterFallRocks_FloatingRocks_OcclusionRoughnessMetallic",
			"uri":"T_WaterFallRocks_FloatingRocks_OcclusionRoughnessMetallic.png"
		}
	],
	"accessors":[
		{
			"bufferView":0,
			"componentType":5126,
			"count":1886,
			"max":[
				2.427647590637207,
				4.199753761291504,
				2.1985719203948975
			],
			"min":[
				-2.605053186416626,
				-5.661922454833984,
				-2.4116714000701904
			],
			"type":"VEC3"
		},
		{
			"bufferView":1,
			"componentType":5126,
			"count":1886,
			"type":"VEC3"
		},
		{
			"bufferView":2,
			"componentType":5126,
			"count":1886,
			"type":"VEC2"
		},
		{
			"bufferView":3,
			"componentType":5126,
			"count":1886,
			"type":"VEC4"
		},
		{
			"bufferView":4,
			"componentType":5123,
			"count":2814,
			"type":"SCALAR"
		},
		{
			"bufferView":5,
			"componentType":5126,
			"count":1853,
			"max":[
				2.4376420974731445,
				3.3295915126800537,
				2.362299680709839
			],
			"min":[
				-2.896690845489502,
				-3.8448708057403564,
				-2.251645088195801
			],
			"type":"VEC3"
		},
		{
			"bufferView":6,
			"componentType":5126,
			"count":1853,
			"type":"VEC3"
		},
		{
			"bufferView":7,
			"componentType":5126,
			"count":1853,
			"type":"VEC2"
		},
		{
			"bufferView":8,
			"componentType":5126,
			"count":1853,
			"type":"VEC4"
		},
		{
			"bufferView":9,
			"componentType":5123,
			"count":2814,
			"type":"SCALAR"
		},
		{
			"bufferView":10,
			"componentType":5126,
			"count":1926,
			"max":[
				2.8714585304260254,
				3.4329676628112793,
				2.4430160522460938
			],
			"min":[
				-2.925351142883301,
				-4.278552055358887,
				-2.7239367961883545
			],
			"type":"VEC3"
		},
		{
			"bufferView":11,
			"componentType":5126,
			"count":1926,
			"type":"VEC3"
		},
		{
			"bufferView":12,
			"componentType":5126,
			"count":1926,
			"type":"VEC2"
		},
		{
			"bufferView":13,
			"componentType":5126,
			"count":1926,
			"type":"VEC4"
		},
		{
			"bufferView":14,
			"componentType":5123,
			"count":2814,
			"type":"SCALAR"
		},
		{
			"bufferView":15,
			"componentType":5126,
			"count":1245,
			"max":[
				1.807692050933838,
				4.311290740966797,
				2.2150349617004395
			],
			"min":[
				-2.492072820663452,
				-4.7620110511779785,
				-2.21048641204834
			],
			"type":"VEC3"
		},
		{
			"bufferView":16,
			"componentType":5126,
			"count":1245,
			"type":"VEC3"
		},
		{
			"bufferView":17,
			"componentType":5126,
			"count":1245,
			"type":"VEC2"
		},
		{
			"bufferView":18,
			"componentType":5126,
			"count":1245,
			"type":"VEC4"
		},
		{
			"bufferView":19,
			"componentType":5123,
			"count":1944,
			"type":"SCALAR"
		},
		{
			"bufferView":20,
			"componentType":5126,
			"count":1008,
			"max":[
				1.9630502462387085,
				7.900854110717773,
				1.7829869985580444
			],
			"min":[
				-2.0150206089019775,
				-0.056505680084228516,
				-1.6893445253372192
			],
			"type":"VEC3"
		},
		{
			"bufferView":21,
			"componentType":5126,
			"count":1008,
			"type":"VEC3"
		},
		{
			"bufferView":22,
			"componentType":5126,
			"count":1008,
			"type":"VEC2"
		},
		{
			"bufferView":23,
			"componentType":5126,
			"count":1008,
			"type":"VEC4"
		},
		{
			"bufferView":24,
			"componentType":5123,
			"count":1356,
			"type":"SCALAR"
		},
		{
			"bufferView":25,
			"componentType":5126,
			"count":663,
			"max":[
				1.8530524969100952,
				4.555997371673584,
				1.541033148765564
			],
			"min":[
				-1.858896255493164,
				-5.156527519226074,
				-1.6361843347549438
			],
			"type":"VEC3"
		},
		{
			"bufferView":26,
			"componentType":5126,
			"count":663,
			"type":"VEC3"
		},
		{
			"bufferView":27,
			"componentType":5126,
			"count":663,
			"type":"VEC2"
		},
		{
			"bufferView":28,
			"componentType":5126,
			"count":663,
			"type":"VEC4"
		},
		{
			"bufferView":29,
			"componentType":5123,
			"count":990,
			"type":"SCALAR"
		},
		{
			"bufferView":30,
			"componentType":5126,
			"count":1002,
			"max":[
				1.524888277053833,
				5.51778507232666,
				1.8515745401382446
			],
			"min":[
				-1.6144224405288696,
				-7.134998321533203,
				-1.735155701637268
			],
			"type":"VEC3"
		},
		{
			"bufferView":31,
			"componentType":5126,
			"count":1002,
			"type":"VEC3"
		},
		{
			"bufferView":32,
			"componentType":5126,
			"count":1002,
			"type":"VEC2"
		},
		{
			"bufferView":33,
			"componentType":5126,
			"count":1002,
			"type":"VEC4"
		},
		{
			"bufferView":34,
			"componentType":5123,
			"count":1596,
			"type":"SCALAR"
		},
		{
			"bufferView":35,
			"componentType":5126,
			"count":932,
			"max":[
				1.2209587097167969,
				3.85078763961792,
				1.3480925559997559
			],
			"min":[
				-1.2861347198486328,
				-3.213320732116699,
				-1.591212511062622
			],
			"type":"VEC3"
		},
		{
			"bufferView":36,
			"componentType":5126,
			"count":932,
			"type":"VEC3"
		},
		{
			"bufferView":37,
			"componentType":5126,
			"count":932,
			"type":"VEC2"
		},
		{
			"bufferView":38,
			"componentType":5126,
			"count":932,
			"type":"VEC4"
		},
		{
			"bufferView":39,
			"componentType":5123,
			"count":1398,
			"type":"SCALAR"
		},
		{
			"bufferView":40,
			"componentType":5126,
			"count":1707,
			"max":[
				6.24492073059082,
				6.7607831954956055,
				4.81820011138916
			],
			"min":[
				-6.649390697479248,
				-0.23308181762695312,
				-4.3167405128479
			],
			"type":"VEC3"
		},
		{
			"bufferView":41,
			"componentType":5126,
			"count":1707,
			"type":"VEC3"
		},
		{
			"bufferView":42,
			"componentType":5126,
			"count":1707,
			"type":"VEC2"
		},
		{
			"bufferView":43,
			"componentType":5126,
			"count":1707,
			"type":"VEC4"
		},
		{
			"bufferView":44,
			"componentType":5123,
			"count":2394,
			"type":"SCALAR"
		},
		{
			"bufferView":45,
			"componentType":5126,
			"count":1935,
			"max":[
				6.702588081359863,
				8.192743301391602,
				4.765374660491943
			],
			"min":[
				-6.363091468811035,
				-0.11931920051574707,
				-3.6929571628570557
			],
			"type":"VEC3"
		},
		{
			"bufferView":46,
			"componentType":5126,
			"count":1935,
			"type":"VEC3"
		},
		{
			"bufferView":47,
			"componentType":5126,
			"count":1935,
			"type":"VEC2"
		},
		{
			"bufferView":48,
			"componentType":5126,
			"count":1935,
			"type":"VEC4"
		},
		{
			"bufferView":49,
			"componentType":5123,
			"count":2700,
			"type":"SCALAR"
		},
		{
			"bufferView":50,
			"componentType":5126,
			"count":1935,
			"max":[
				8.197612762451172,
				4.583054542541504,
				6.085140228271484
			],
			"min":[
				-6.649280071258545,
				0.04043436050415039,
				-5.967677116394043
			],
			"type":"VEC3"
		},
		{
			"bufferView":51,
			"componentType":5126,
			"count":1935,
			"type":"VEC3"
		},
		{
			"bufferView":52,
			"componentType":5126,
			"count":1935,
			"type":"VEC2"
		},
		{
			"bufferView":53,
			"componentType":5126,
			"count":1935,
			"type":"VEC4"
		},
		{
			"bufferView":54,
			"componentType":5123,
			"count":2700,
			"type":"SCALAR"
		}
	],
	"bufferViews":[
		{
			"buffer":0,
			"byteLength":22632,
			"byteOffset":0,
			"target":34962
		},
		{
			"buffer":0,
			"byteLength":22632,
			"byteOffset":22632,
			"target":34962
		},
		{
			"buffer":0,
			"byteLength":15088,
			"byteOffset":45264,
			"target":34962
		},
		{
			"buffer":0,
			"byteLength":30176,
			"byteOffset":60352,
			"target":34962
		},
		{
			"buffer":0,
			"byteLength":5628,
			"byteOffset":90528,
			"target":34963
		},
		{
			"buffer":0,
			"byteLength":22236,
			"byteOffset":96156,
			"target":34962
		},
		{
			"buffer":0,
			"byteLength":22236,
			"byteOffset":118392,
			"target":34962
		},
		{
			"buffer":0,
			"byteLength":14824,
			"byteOffset":140628,
			"target":34962
		},
		{
			"buffer":0,
			"byteLength":29648,
			"byteOffset":155452,
			"target":34962
		},
		{
			"buffer":0,
			"byteLength":5628,
			"byteOffset":185100,
			"target":34963
		},
		{
			"buffer":0,
			"byteLength":23112,
			"byteOffset":190728,
			"target":34962
		},
		{
			"buffer":0,
			"byteLength":23112,
			"byteOffset":213840,
			"target":34962
		},
		{
			"buffer":0,
			"byteLength":15408,
			"byteOffset":236952,
			"target":34962
		},
		{
			"buffer":0,
			"byteLength":30816,
			"byteOffset":252360,
			"target":34962
		},
		{
			"buffer":0,
			"byteLength":5628,
			"byteOffset":283176,
			"target":34963
		},
		{
			"buffer":0,
			"byteLength":14940,
			"byteOffset":288804,
			"target":34962
		},
		{
			"buffer":0,
			"byteLength":14940,
			"byteOffset":303744,
			"target":34962
		},
		{
			"buffer":0,
			"byteLength":9960,
			"byteOffset":318684,
			"target":34962
		},
		{
			"buffer":0,
			"byteLength":19920,
			"byteOffset":328644,
			"target":34962
		},
		{
			"buffer":0,
			"byteLength":3888,
			"byteOffset":348564,
			"target":34963
		},
		{
			"buffer":0,
			"byteLength":12096,
			"byteOffset":352452,
			"target":34962
		},
		{
			"buffer":0,
			"byteLength":12096,
			"byteOffset":364548,
			"target":34962
		},
		{
			"buffer":0,
			"byteLength":8064,
			"byteOffset":376644,
			"target":34962
		},
		{
			"buffer":0,
			"byteLength":16128,
			"byteOffset":384708,
			"target":34962
		},
		{
			"buffer":0,
			"byteLength":2712,
			"byteOffset":400836,
			"target":34963
		},
		{
			"buffer":0,
			"byteLength":7956,
			"byteOffset":403548,
			"target":34962
		},
		{
			"buffer":0,
			"byteLength":7956,
			"byteOffset":411504,
			"target":34962
		},
		{
			"buffer":0,
			"byteLength":5304,
			"byteOffset":419460,
			"target":34962
		},
		{
			"buffer":0,
			"byteLength":10608,
			"byteOffset":424764,
			"target":34962
		},
		{
			"buffer":0,
			"byteLength":1980,
			"byteOffset":435372,
			"target":34963
		},
		{
			"buffer":0,
			"byteLength":12024,
			"byteOffset":437352,
			"target":34962
		},
		{
			"buffer":0,
			"byteLength":12024,
			"byteOffset":449376,
			"target":34962
		},
		{
			"buffer":0,
			"byteLength":8016,
			"byteOffset":461400,
			"target":34962
		},
		{
			"buffer":0,
			"byteLength":16032,
			"byteOffset":469416,
			"target":34962
		},
		{
			"buffer":0,
			"byteLength":3192,
			"byteOffset":485448,
			"target":34963
		},
		{
			"buffer":0,
			"byteLength":11184,
			"byteOffset":488640,
			"target":34962
		},
		{
			"buffer":0,
			"byteLength":11184,
			"byteOffset":499824,
			"target":34962
		},
		{
			"buffer":0,
			"byteLength":7456,
			"byteOffset":511008,
			"target":34962
		},
		{
			"buffer":0,
			"byteLength":14912,
			"byteOffset":518464,
			"target":34962
		},
		{
			"buffer":0,
			"byteLength":2796,
			"byteOffset":533376,
			"target":34963
		},
		{
			"buffer":0,
			"byteLength":20484,
			"byteOffset":536172,
			"target":34962
		},
		{
			"buffer":0,
			"byteLength":20484,
			"byteOffset":556656,
			"target":34962
		},
		{
			"buffer":0,
			"byteLength":13656,
			"byteOffset":577140,
			"target":34962
		},
		{
			"buffer":0,
			"byteLength":27312,
			"byteOffset":590796,
			"target":34962
		},
		{
			"buffer":0,
			"byteLength":4788,
			"byteOffset":618108,
			"target":34963
		},
		{
			"buffer":0,
			"byteLength":23220,
			"byteOffset":622896,
			"target":34962
		},
		{
			"buffer":0,
			"byteLength":23220,
			"byteOffset":646116,
			"target":34962
		},
		{
			"buffer":0,
			"byteLength":15480,
			"byteOffset":669336,
			"target":34962
		},
		{
			"buffer":0,
			"byteLength":30960,
			"byteOffset":684816,
			"target":34962
		},
		{
			"buffer":0,
			"byteLength":5400,
			"byteOffset":715776,
			"target":34963
		},
		{
			"buffer":0,
			"byteLength":23220,
			"byteOffset":721176,
			"target":34962
		},
		{
			"buffer":0,
			"byteLength":23220,
			"byteOffset":744396,
			"target":34962
		},
		{
			"buffer":0,
			"byteLength":15480,
			"byteOffset":767616,
			"target":34962
		},
		{
			"buffer":0,
			"byteLength":30960,
			"byteOffset":783096,
			"target":34962
		},
		{
			"buffer":0,
			"byteLength":5400,
			"byteOffset":814056,
			"target":34963
		}
	],
	"samplers":[
		{
			"magFilter":9729,
			"minFilter":9987
		}
	],
	"buffers":[
		{
			"byteLength":819456,
			"uri":"EN_WaterfallRocks_GLTF.bin"
		}
	]
}
