{
	"asset":{
		"generator":"Khronos glTF Blender I/O v4.2.57",
		"version":"2.0"
	},
	"scene":0,
	"scenes":[
		{
			"name":"Scene",
			"nodes":[
				0,
				1,
				2,
				3,
				4,
				5,
				6,
				7,
				8,
				9,
				10
			]
		}
	],
	"nodes":[
		{
			"mesh":0,
			"name":"EN_WaterfallRock_02"
		},
		{
			"mesh":1,
			"name":"EN_WaterfallRock_01"
		},
		{
			"mesh":2,
			"name":"EN_WaterfallRock_03"
		},
		{
			"mesh":3,
			"name":"EN_WaterfallRock_04"
		},
		{
			"mesh":4,
			"name":"EN_WaterfallRock_05"
		},
		{
			"mesh":5,
			"name":"EN_WaterfallRock_06"
		},
		{
			"mesh":6,
			"name":"EN_WaterfallRock_10"
		},
		{
			"mesh":7,
			"name":"EN_WaterfallRock_11"
		},
		{
			"mesh":8,
			"name":"EN_WaterfallRock_07"
		},
		{
			"mesh":9,
			"name":"EN_WaterfallRock_08"
		},
		{
			"mesh":10,
			"name":"EN_WaterfallRock_09"
		}
	],
	"materials":[
		{
			"doubleSided":true,
			"name":"M_WaterfallRocks_FloatingRocks",
			"normalTexture":{
				"index":0
			},
			"pbrMetallicRoughness":{
				"baseColorTexture":{
					"index":1
				},
				"metallicRoughnessTexture":{
					"index":2
				}
			}
		}
	],
	"meshes":[
		{
			"name":"Mesh",
			"primitives":[
				{
					"attributes":{
						"POSITION":0,
						"NORMAL":1,
						"TEXCOORD_0":2
					},
					"indices":3,
					"material":0
				}
			]
		},
		{
			"name":"Mesh.001",
			"primitives":[
				{
					"attributes":{
						"POSITION":4,
						"NORMAL":5,
						"TEXCOORD_0":6
					},
					"indices":7,
					"material":0
				}
			]
		},
		{
			"name":"Mesh.002",
			"primitives":[
				{
					"attributes":{
						"POSITION":8,
						"NORMAL":9,
						"TEXCOORD_0":10
					},
					"indices":11,
					"material":0
				}
			]
		},
		{
			"name":"Mesh.003",
			"primitives":[
				{
					"attributes":{
						"POSITION":12,
						"NORMAL":13,
						"TEXCOORD_0":14
					},
					"indices":15,
					"material":0
				}
			]
		},
		{
			"name":"Mesh.008",
			"primitives":[
				{
					"attributes":{
						"POSITION":16,
						"NORMAL":17,
						"TEXCOORD_0":18
					},
					"indices":19,
					"material":0
				}
			]
		},
		{
			"name":"Mesh.009",
			"primitives":[
				{
					"attributes":{
						"POSITION":20,
						"NORMAL":21,
						"TEXCOORD_0":22
					},
					"indices":23,
					"material":0
				}
			]
		},
		{
			"name":"Mesh.010",
			"primitives":[
				{
					"attributes":{
						"POSITION":24,
						"NORMAL":25,
						"TEXCOORD_0":26
					},
					"indices":27,
					"material":0
				}
			]
		},
		{
			"name":"Mesh.011",
			"primitives":[
				{
					"attributes":{
						"POSITION":28,
						"NORMAL":29,
						"TEXCOORD_0":30
					},
					"indices":31,
					"material":0
				}
			]
		},
		{
			"name":"Mesh.012",
			"primitives":[
				{
					"attributes":{
						"POSITION":32,
						"NORMAL":33,
						"TEXCOORD_0":34
					},
					"indices":35,
					"material":0
				}
			]
		},
		{
			"name":"Mesh.013",
			"primitives":[
				{
					"attributes":{
						"POSITION":36,
						"NORMAL":37,
						"TEXCOORD_0":38
					},
					"indices":39,
					"material":0
				}
			]
		},
		{
			"name":"Mesh.014",
			"primitives":[
				{
					"attributes":{
						"POSITION":40,
						"NORMAL":41,
						"TEXCOORD_0":42
					},
					"indices":43,
					"material":0
				}
			]
		}
	],
	"textures":[
		{
			"sampler":0,
			"source":0
		},
		{
			"sampler":0,
			"source":1
		},
		{
			"sampler":0,
			"source":2
		}
	],
	"images":[
		{
			"mimeType":"image/png",
			"name":"T_WaterFallRocks_FloatingRocks_Normal",
			"uri":"T_WaterFallRocks_FloatingRocks_Normal.png"
		},
		{
			"mimeType":"image/png",
			"name":"T_WaterFallRocks_FloatingRocks_BaseColor",
			"uri":"T_WaterFallRocks_FloatingRocks_BaseColor.png"
		},
		{
			"mimeType":"image/png",
			"name":"T_WaterFallRocks_FloatingRocks_OcclusionRoughnessMetallic",
			"uri":"T_WaterFallRocks_FloatingRocks_OcclusionRoughnessMetallic.png"
		}
	],
	"accessors":[
		{
			"bufferView":0,
			"componentType":5126,
			"count":1326,
			"max":[
				2.427647590637207,
				4.199753761291504,
				2.1985719203948975
			],
			"min":[
				-2.605053186416626,
				-5.661922454833984,
				-2.4116714000701904
			],
			"type":"VEC3"
		},
		{
			"bufferView":1,
			"componentType":5126,
			"count":1326,
			"type":"VEC3"
		},
		{
			"bufferView":2,
			"componentType":5126,
			"count":1326,
			"type":"VEC2"
		},
		{
			"bufferView":3,
			"componentType":5123,
			"count":2814,
			"type":"SCALAR"
		},
		{
			"bufferView":4,
			"componentType":5126,
			"count":1330,
			"max":[
				2.4376420974731445,
				3.3295915126800537,
				2.362299680709839
			],
			"min":[
				-2.896690845489502,
				-3.8448708057403564,
				-2.251645088195801
			],
			"type":"VEC3"
		},
		{
			"bufferView":5,
			"componentType":5126,
			"count":1330,
			"type":"VEC3"
		},
		{
			"bufferView":6,
			"componentType":5126,
			"count":1330,
			"type":"VEC2"
		},
		{
			"bufferView":7,
			"componentType":5123,
			"count":2814,
			"type":"SCALAR"
		},
		{
			"bufferView":8,
			"componentType":5126,
			"count":1360,
			"max":[
				2.8714585304260254,
				3.4329676628112793,
				2.4430160522460938
			],
			"min":[
				-2.925351142883301,
				-4.278552055358887,
				-2.7239367961883545
			],
			"type":"VEC3"
		},
		{
			"bufferView":9,
			"componentType":5126,
			"count":1360,
			"type":"VEC3"
		},
		{
			"bufferView":10,
			"componentType":5126,
			"count":1360,
			"type":"VEC2"
		},
		{
			"bufferView":11,
			"componentType":5123,
			"count":2814,
			"type":"SCALAR"
		},
		{
			"bufferView":12,
			"componentType":5126,
			"count":898,
			"max":[
				1.807692050933838,
				4.311290740966797,
				2.2150349617004395
			],
			"min":[
				-2.492072820663452,
				-4.7620110511779785,
				-2.21048641204834
			],
			"type":"VEC3"
		},
		{
			"bufferView":13,
			"componentType":5126,
			"count":898,
			"type":"VEC3"
		},
		{
			"bufferView":14,
			"componentType":5126,
			"count":898,
			"type":"VEC2"
		},
		{
			"bufferView":15,
			"componentType":5123,
			"count":1944,
			"type":"SCALAR"
		},
		{
			"bufferView":16,
			"componentType":5126,
			"count":754,
			"max":[
				1.9630502462387085,
				7.900854110717773,
				1.7829869985580444
			],
			"min":[
				-2.0150206089019775,
				-0.056505680084228516,
				-1.6893445253372192
			],
			"type":"VEC3"
		},
		{
			"bufferView":17,
			"componentType":5126,
			"count":754,
			"type":"VEC3"
		},
		{
			"bufferView":18,
			"componentType":5126,
			"count":754,
			"type":"VEC2"
		},
		{
			"bufferView":19,
			"componentType":5123,
			"count":1356,
			"type":"SCALAR"
		},
		{
			"bufferView":20,
			"componentType":5126,
			"count":499,
			"max":[
				1.8530524969100952,
				4.555997371673584,
				1.541033148765564
			],
			"min":[
				-1.858896255493164,
				-5.156527519226074,
				-1.6361843347549438
			],
			"type":"VEC3"
		},
		{
			"bufferView":21,
			"componentType":5126,
			"count":499,
			"type":"VEC3"
		},
		{
			"bufferView":22,
			"componentType":5126,
			"count":499,
			"type":"VEC2"
		},
		{
			"bufferView":23,
			"componentType":5123,
			"count":990,
			"type":"SCALAR"
		},
		{
			"bufferView":24,
			"componentType":5126,
			"count":758,
			"max":[
				1.524888277053833,
				5.51778507232666,
				1.8515745401382446
			],
			"min":[
				-1.6144224405288696,
				-7.134998321533203,
				-1.735155701637268
			],
			"type":"VEC3"
		},
		{
			"bufferView":25,
			"componentType":5126,
			"count":758,
			"type":"VEC3"
		},
		{
			"bufferView":26,
			"componentType":5126,
			"count":758,
			"type":"VEC2"
		},
		{
			"bufferView":27,
			"componentType":5123,
			"count":1596,
			"type":"SCALAR"
		},
		{
			"bufferView":28,
			"componentType":5126,
			"count":679,
			"max":[
				1.2209587097167969,
				3.85078763961792,
				1.3480925559997559
			],
			"min":[
				-1.2861347198486328,
				-3.213320732116699,
				-1.591212511062622
			],
			"type":"VEC3"
		},
		{
			"bufferView":29,
			"componentType":5126,
			"count":679,
			"type":"VEC3"
		},
		{
			"bufferView":30,
			"componentType":5126,
			"count":679,
			"type":"VEC2"
		},
		{
			"bufferView":31,
			"componentType":5123,
			"count":1398,
			"type":"SCALAR"
		},
		{
			"bufferView":32,
			"componentType":5126,
			"count":1348,
			"max":[
				6.24492073059082,
				6.7607831954956055,
				4.81820011138916
			],
			"min":[
				-6.649390697479248,
				-0.23308181762695312,
				-4.3167405128479
			],
			"type":"VEC3"
		},
		{
			"bufferView":33,
			"componentType":5126,
			"count":1348,
			"type":"VEC3"
		},
		{
			"bufferView":34,
			"componentType":5126,
			"count":1348,
			"type":"VEC2"
		},
		{
			"bufferView":35,
			"componentType":5123,
			"count":2394,
			"type":"SCALAR"
		},
		{
			"bufferView":36,
			"componentType":5126,
			"count":1549,
			"max":[
				6.702588081359863,
				8.192743301391602,
				4.765374660491943
			],
			"min":[
				-6.363091468811035,
				-0.11931920051574707,
				-3.6929571628570557
			],
			"type":"VEC3"
		},
		{
			"bufferView":37,
			"componentType":5126,
			"count":1549,
			"type":"VEC3"
		},
		{
			"bufferView":38,
			"componentType":5126,
			"count":1549,
			"type":"VEC2"
		},
		{
			"bufferView":39,
			"componentType":5123,
			"count":2700,
			"type":"SCALAR"
		},
		{
			"bufferView":40,
			"componentType":5126,
			"count":1549,
			"max":[
				8.197612762451172,
				4.583054542541504,
				6.085140228271484
			],
			"min":[
				-6.649280071258545,
				0.04043436050415039,
				-5.967677116394043
			],
			"type":"VEC3"
		},
		{
			"bufferView":41,
			"componentType":5126,
			"count":1549,
			"type":"VEC3"
		},
		{
			"bufferView":42,
			"componentType":5126,
			"count":1549,
			"type":"VEC2"
		},
		{
			"bufferView":43,
			"componentType":5123,
			"count":2700,
			"type":"SCALAR"
		}
	],
	"bufferViews":[
		{
			"buffer":0,
			"byteLength":15912,
			"byteOffset":0,
			"target":34962
		},
		{
			"buffer":0,
			"byteLength":15912,
			"byteOffset":15912,
			"target":34962
		},
		{
			"buffer":0,
			"byteLength":10608,
			"byteOffset":31824,
			"target":34962
		},
		{
			"buffer":0,
			"byteLength":5628,
			"byteOffset":42432,
			"target":34963
		},
		{
			"buffer":0,
			"byteLength":15960,
			"byteOffset":48060,
			"target":34962
		},
		{
			"buffer":0,
			"byteLength":15960,
			"byteOffset":64020,
			"target":34962
		},
		{
			"buffer":0,
			"byteLength":10640,
			"byteOffset":79980,
			"target":34962
		},
		{
			"buffer":0,
			"byteLength":5628,
			"byteOffset":90620,
			"target":34963
		},
		{
			"buffer":0,
			"byteLength":16320,
			"byteOffset":96248,
			"target":34962
		},
		{
			"buffer":0,
			"byteLength":16320,
			"byteOffset":112568,
			"target":34962
		},
		{
			"buffer":0,
			"byteLength":10880,
			"byteOffset":128888,
			"target":34962
		},
		{
			"buffer":0,
			"byteLength":5628,
			"byteOffset":139768,
			"target":34963
		},
		{
			"buffer":0,
			"byteLength":10776,
			"byteOffset":145396,
			"target":34962
		},
		{
			"buffer":0,
			"byteLength":10776,
			"byteOffset":156172,
			"target":34962
		},
		{
			"buffer":0,
			"byteLength":7184,
			"byteOffset":166948,
			"target":34962
		},
		{
			"buffer":0,
			"byteLength":3888,
			"byteOffset":174132,
			"target":34963
		},
		{
			"buffer":0,
			"byteLength":9048,
			"byteOffset":178020,
			"target":34962
		},
		{
			"buffer":0,
			"byteLength":9048,
			"byteOffset":187068,
			"target":34962
		},
		{
			"buffer":0,
			"byteLength":6032,
			"byteOffset":196116,
			"target":34962
		},
		{
			"buffer":0,
			"byteLength":2712,
			"byteOffset":202148,
			"target":34963
		},
		{
			"buffer":0,
			"byteLength":5988,
			"byteOffset":204860,
			"target":34962
		},
		{
			"buffer":0,
			"byteLength":5988,
			"byteOffset":210848,
			"target":34962
		},
		{
			"buffer":0,
			"byteLength":3992,
			"byteOffset":216836,
			"target":34962
		},
		{
			"buffer":0,
			"byteLength":1980,
			"byteOffset":220828,
			"target":34963
		},
		{
			"buffer":0,
			"byteLength":9096,
			"byteOffset":222808,
			"target":34962
		},
		{
			"buffer":0,
			"byteLength":9096,
			"byteOffset":231904,
			"target":34962
		},
		{
			"buffer":0,
			"byteLength":6064,
			"byteOffset":241000,
			"target":34962
		},
		{
			"buffer":0,
			"byteLength":3192,
			"byteOffset":247064,
			"target":34963
		},
		{
			"buffer":0,
			"byteLength":8148,
			"byteOffset":250256,
			"target":34962
		},
		{
			"buffer":0,
			"byteLength":8148,
			"byteOffset":258404,
			"target":34962
		},
		{
			"buffer":0,
			"byteLength":5432,
			"byteOffset":266552,
			"target":34962
		},
		{
			"buffer":0,
			"byteLength":2796,
			"byteOffset":271984,
			"target":34963
		},
		{
			"buffer":0,
			"byteLength":16176,
			"byteOffset":274780,
			"target":34962
		},
		{
			"buffer":0,
			"byteLength":16176,
			"byteOffset":290956,
			"target":34962
		},
		{
			"buffer":0,
			"byteLength":10784,
			"byteOffset":307132,
			"target":34962
		},
		{
			"buffer":0,
			"byteLength":4788,
			"byteOffset":317916,
			"target":34963
		},
		{
			"buffer":0,
			"byteLength":18588,
			"byteOffset":322704,
			"target":34962
		},
		{
			"buffer":0,
			"byteLength":18588,
			"byteOffset":341292,
			"target":34962
		},
		{
			"buffer":0,
			"byteLength":12392,
			"byteOffset":359880,
			"target":34962
		},
		{
			"buffer":0,
			"byteLength":5400,
			"byteOffset":372272,
			"target":34963
		},
		{
			"buffer":0,
			"byteLength":18588,
			"byteOffset":377672,
			"target":34962
		},
		{
			"buffer":0,
			"byteLength":18588,
			"byteOffset":396260,
			"target":34962
		},
		{
			"buffer":0,
			"byteLength":12392,
			"byteOffset":414848,
			"target":34962
		},
		{
			"buffer":0,
			"byteLength":5400,
			"byteOffset":427240,
			"target":34963
		}
	],
	"samplers":[
		{
			"magFilter":9729,
			"minFilter":9987
		}
	],
	"buffers":[
		{
			"byteLength":432640,
			"uri":"EN_WaterfallRocks_GLTF.bin"
		}
	]
}
