{
	"asset":{
		"generator":"Khronos glTF Blender I/O v4.2.69",
		"version":"2.0"
	},
	"extensionsUsed":[
		"KHR_materials_emissive_strength"
	],
	"scene":0,
	"scenes":[
		{
			"name":"Scene",
			"nodes":[
				0
			]
		}
	],
	"nodes":[
		{
			"mesh":0,
			"name":"Sphere.002",
			"scale":[
				0.8546175956726074,
				1.665217638015747,
				0.8051224946975708
			]
		}
	],
	"materials":[
		{
			"alphaMode":"BLEND",
			"doubleSided":true,
			"emissiveFactor":[
				1,
				1,
				1
			],
			"emissiveTexture":{
				"index":0
			},
			"extensions":{
				"KHR_materials_emissive_strength":{
					"emissiveStrength":2.3999993801116943
				}
			},
			"name":"M_EnergyBarrier.001",
			"pbrMetallicRoughness":{
				"baseColorTexture":{
					"index":1
				},
				"metallicFactor":0,
				"roughnessFactor":0.5
			}
		}
	],
	"meshes":[
		{
			"name":"Sphere.013",
			"primitives":[
				{
					"attributes":{
						"POSITION":0,
						"NORMAL":1,
						"TEXCOORD_0":2
					},
					"indices":3,
					"material":0
				}
			]
		}
	],
	"textures":[
		{
			"sampler":0,
			"source":0
		},
		{
			"sampler":0,
			"source":0
		}
	],
	"images":[
		{
			"mimeType":"image/png",
			"name":"Energy_Barrier_V04txt",
			"uri":"Energy_Barrier_V04txt.png"
		}
	],
	"accessors":[
		{
			"bufferView":0,
			"componentType":5126,
			"count":183,
			"max":[
				1.5672191381454468,
				1.406610369682312,
				1.7244080305099487
			],
			"min":[
				-1.5672191381454468,
				-0.049787476658821106,
				-1.7244080305099487
			],
			"type":"VEC3"
		},
		{
			"bufferView":1,
			"componentType":5126,
			"count":183,
			"type":"VEC3"
		},
		{
			"bufferView":2,
			"componentType":5126,
			"count":183,
			"type":"VEC2"
		},
		{
			"bufferView":3,
			"componentType":5123,
			"count":960,
			"type":"SCALAR"
		}
	],
	"bufferViews":[
		{
			"buffer":0,
			"byteLength":2196,
			"byteOffset":0,
			"target":34962
		},
		{
			"buffer":0,
			"byteLength":2196,
			"byteOffset":2196,
			"target":34962
		},
		{
			"buffer":0,
			"byteLength":1464,
			"byteOffset":4392,
			"target":34962
		},
		{
			"buffer":0,
			"byteLength":1920,
			"byteOffset":5856,
			"target":34963
		}
	],
	"samplers":[
		{
			"magFilter":9729,
			"minFilter":9987,
			"wrapS":33648,
			"wrapT":33648
		}
	],
	"buffers":[
		{
			"byteLength":7776,
			"uri":"EnergyBarrier_VFX.bin"
		}
	]
}
