{
	"asset":{
		"generator":"Khronos glTF Blender I/O v4.2.69",
		"version":"2.0"
	},
	"scene":0,
	"scenes":[
		{
			"name":"Scene",
			"nodes":[
				0,
				1,
				2,
				3
			]
		}
	],
	"nodes":[
		{
			"mesh":0,
			"name":"EN_FloatingRock_03_WIND"
		},
		{
			"mesh":1,
			"name":"EN_FloatingRock_01_WIND"
		},
		{
			"mesh":2,
			"name":"EN_FloatingRock_02_WIND"
		},
		{
			"mesh":3,
			"name":"EN_FloatingRock_04_WIND"
		}
	],
	"materials":[
		{
			"doubleSided":true,
			"name":"M_WaterfallRocks_FloatingRocks_WIND",
			"normalTexture":{
				"index":0
			},
			"pbrMetallicRoughness":{
				"baseColorTexture":{
					"index":1
				},
				"metallicRoughnessTexture":{
					"index":2
				}
			}
		}
	],
	"meshes":[
		{
			"name":"Mesh.004",
			"primitives":[
				{
					"attributes":{
						"POSITION":0,
						"NORMAL":1,
						"TEXCOORD_0":2,
						"TANGENT":3
					},
					"indices":4,
					"material":0
				}
			]
		},
		{
			"name":"Mesh.005",
			"primitives":[
				{
					"attributes":{
						"POSITION":5,
						"NORMAL":6,
						"TEXCOORD_0":7,
						"TANGENT":8
					},
					"indices":9,
					"material":0
				}
			]
		},
		{
			"name":"Mesh.006",
			"primitives":[
				{
					"attributes":{
						"POSITION":10,
						"NORMAL":11,
						"TEXCOORD_0":12,
						"TANGENT":13
					},
					"indices":14,
					"material":0
				}
			]
		},
		{
			"name":"Mesh.007",
			"primitives":[
				{
					"attributes":{
						"POSITION":15,
						"NORMAL":16,
						"TEXCOORD_0":17,
						"TANGENT":18
					},
					"indices":19,
					"material":0
				}
			]
		}
	],
	"textures":[
		{
			"sampler":0,
			"source":0
		},
		{
			"sampler":0,
			"source":1
		},
		{
			"sampler":0,
			"source":2
		}
	],
	"images":[
		{
			"mimeType":"image/png",
			"name":"T_WaterFallRocks_FloatingRocks_Normal",
			"uri":"T_WaterFallRocks_FloatingRocks_Normal.png"
		},
		{
			"mimeType":"image/png",
			"name":"T_WaterFallRocks_FloatingRocks_BaseColor",
			"uri":"T_WaterFallRocks_FloatingRocks_BaseColor.png"
		},
		{
			"mimeType":"image/png",
			"name":"T_WaterFallRocks_FloatingRocks_OcclusionRoughnessMetallic",
			"uri":"T_WaterFallRocks_FloatingRocks_OcclusionRoughnessMetallic.png"
		}
	],
	"accessors":[
		{
			"bufferView":0,
			"componentType":5126,
			"count":210,
			"max":[
				0.21351486444473267,
				0.4038974642753601,
				0.20901381969451904
			],
			"min":[
				-0.3134728670120239,
				-0.2606922388076782,
				-0.18017971515655518
			],
			"type":"VEC3"
		},
		{
			"bufferView":1,
			"componentType":5126,
			"count":210,
			"type":"VEC3"
		},
		{
			"bufferView":2,
			"componentType":5126,
			"count":210,
			"type":"VEC2"
		},
		{
			"bufferView":3,
			"componentType":5126,
			"count":210,
			"type":"VEC4"
		},
		{
			"bufferView":4,
			"componentType":5123,
			"count":210,
			"type":"SCALAR"
		},
		{
			"bufferView":5,
			"componentType":5126,
			"count":270,
			"max":[
				0.17901980876922607,
				0.679336667060852,
				0.24430322647094727
			],
			"min":[
				-0.29025202989578247,
				-0.5501607656478882,
				-0.31662893295288086
			],
			"type":"VEC3"
		},
		{
			"bufferView":6,
			"componentType":5126,
			"count":270,
			"type":"VEC3"
		},
		{
			"bufferView":7,
			"componentType":5126,
			"count":270,
			"type":"VEC2"
		},
		{
			"bufferView":8,
			"componentType":5126,
			"count":270,
			"type":"VEC4"
		},
		{
			"bufferView":9,
			"componentType":5123,
			"count":270,
			"type":"SCALAR"
		},
		{
			"bufferView":10,
			"componentType":5126,
			"count":300,
			"max":[
				0.26204755902290344,
				0.6805067658424377,
				0.33668649196624756
			],
			"min":[
				-0.3225335478782654,
				-0.3810370862483978,
				-0.31782689690589905
			],
			"type":"VEC3"
		},
		{
			"bufferView":11,
			"componentType":5126,
			"count":300,
			"type":"VEC3"
		},
		{
			"bufferView":12,
			"componentType":5126,
			"count":300,
			"type":"VEC2"
		},
		{
			"bufferView":13,
			"componentType":5126,
			"count":300,
			"type":"VEC4"
		},
		{
			"bufferView":14,
			"componentType":5123,
			"count":300,
			"type":"SCALAR"
		},
		{
			"bufferView":15,
			"componentType":5126,
			"count":294,
			"max":[
				0.3636013865470886,
				0.9951323866844177,
				0.33769655227661133
			],
			"min":[
				-0.43155890703201294,
				-0.24606281518936157,
				-0.4210944175720215
			],
			"type":"VEC3"
		},
		{
			"bufferView":16,
			"componentType":5126,
			"count":294,
			"type":"VEC3"
		},
		{
			"bufferView":17,
			"componentType":5126,
			"count":294,
			"type":"VEC2"
		},
		{
			"bufferView":18,
			"componentType":5126,
			"count":294,
			"type":"VEC4"
		},
		{
			"bufferView":19,
			"componentType":5123,
			"count":294,
			"type":"SCALAR"
		}
	],
	"bufferViews":[
		{
			"buffer":0,
			"byteLength":2520,
			"byteOffset":0,
			"target":34962
		},
		{
			"buffer":0,
			"byteLength":2520,
			"byteOffset":2520,
			"target":34962
		},
		{
			"buffer":0,
			"byteLength":1680,
			"byteOffset":5040,
			"target":34962
		},
		{
			"buffer":0,
			"byteLength":3360,
			"byteOffset":6720,
			"target":34962
		},
		{
			"buffer":0,
			"byteLength":420,
			"byteOffset":10080,
			"target":34963
		},
		{
			"buffer":0,
			"byteLength":3240,
			"byteOffset":10500,
			"target":34962
		},
		{
			"buffer":0,
			"byteLength":3240,
			"byteOffset":13740,
			"target":34962
		},
		{
			"buffer":0,
			"byteLength":2160,
			"byteOffset":16980,
			"target":34962
		},
		{
			"buffer":0,
			"byteLength":4320,
			"byteOffset":19140,
			"target":34962
		},
		{
			"buffer":0,
			"byteLength":540,
			"byteOffset":23460,
			"target":34963
		},
		{
			"buffer":0,
			"byteLength":3600,
			"byteOffset":24000,
			"target":34962
		},
		{
			"buffer":0,
			"byteLength":3600,
			"byteOffset":27600,
			"target":34962
		},
		{
			"buffer":0,
			"byteLength":2400,
			"byteOffset":31200,
			"target":34962
		},
		{
			"buffer":0,
			"byteLength":4800,
			"byteOffset":33600,
			"target":34962
		},
		{
			"buffer":0,
			"byteLength":600,
			"byteOffset":38400,
			"target":34963
		},
		{
			"buffer":0,
			"byteLength":3528,
			"byteOffset":39000,
			"target":34962
		},
		{
			"buffer":0,
			"byteLength":3528,
			"byteOffset":42528,
			"target":34962
		},
		{
			"buffer":0,
			"byteLength":2352,
			"byteOffset":46056,
			"target":34962
		},
		{
			"buffer":0,
			"byteLength":4704,
			"byteOffset":48408,
			"target":34962
		},
		{
			"buffer":0,
			"byteLength":588,
			"byteOffset":53112,
			"target":34963
		}
	],
	"samplers":[
		{
			"magFilter":9729,
			"minFilter":9987
		}
	],
	"buffers":[
		{
			"byteLength":53700,
			"uri":"Floating_rocks_with_wind.bin"
		}
	]
}
