{
	"asset":{
		"generator":"Khronos glTF Blender I/O v4.2.69",
		"version":"2.0"
	},
	"scene":0,
	"scenes":[
		{
			"name":"Scene",
			"nodes":[
				0,
				1,
				2,
				3
			]
		}
	],
	"nodes":[
		{
			"mesh":0,
			"name":"EN_FloatingRock_01_destroyed",
			"rotation":[
				-0.03649582341313362,
				-0.022374065592885017,
				-0.5221800804138184,
				0.85176020860672
			]
		},
		{
			"mesh":1,
			"name":"EN_FloatingRock_02_destroyed",
			"rotation":[
				0.0186906885355711,
				0.018615437671542168,
				-0.7054315805435181,
				0.7082869410514832
			]
		},
		{
			"mesh":2,
			"name":"EN_FloatingRock_04_destroyed",
			"rotation":[
				-0.39246881008148193,
				-0.1566460281610489,
				0.011165538802742958,
				0.9062592387199402
			]
		},
		{
			"mesh":3,
			"name":"EN_FloatingRock_03_destroyed",
			"rotation":[
				0.0021350751630961895,
				0.15267391502857208,
				0.3792355954647064,
				0.912615180015564
			]
		}
	],
	"materials":[
		{
			"doubleSided":true,
			"name":"M_WaterfallRocks_FloatingRocks",
			"normalTexture":{
				"index":0
			},
			"pbrMetallicRoughness":{
				"baseColorTexture":{
					"index":1
				},
				"metallicRoughnessTexture":{
					"index":2
				}
			}
		}
	],
	"meshes":[
		{
			"name":"EN_FloatingRock_01_cell.004",
			"primitives":[
				{
					"attributes":{
						"POSITION":0,
						"NORMAL":1,
						"TEXCOORD_0":2,
						"TANGENT":3
					},
					"indices":4,
					"material":0
				}
			]
		},
		{
			"name":"EN_FloatingRock_02_cell.002",
			"primitives":[
				{
					"attributes":{
						"POSITION":5,
						"NORMAL":6,
						"TEXCOORD_0":7,
						"TANGENT":8
					},
					"indices":9,
					"material":0
				}
			]
		},
		{
			"name":"EN_FloatingRock_04_cell.008",
			"primitives":[
				{
					"attributes":{
						"POSITION":10,
						"NORMAL":11,
						"TEXCOORD_0":12,
						"TANGENT":13
					},
					"indices":14,
					"material":0
				}
			]
		},
		{
			"name":"EN_FloatingRock_03_cell.013",
			"primitives":[
				{
					"attributes":{
						"POSITION":15,
						"NORMAL":16,
						"TEXCOORD_0":17,
						"TANGENT":18
					},
					"indices":19,
					"material":0
				}
			]
		}
	],
	"textures":[
		{
			"sampler":0,
			"source":0
		},
		{
			"sampler":0,
			"source":1
		},
		{
			"sampler":0,
			"source":2
		}
	],
	"images":[
		{
			"mimeType":"image/png",
			"name":"T_WaterFallRocks_FloatingRocks_Normal",
			"uri":"T_WaterFallRocks_FloatingRocks_Normal.png"
		},
		{
			"mimeType":"image/png",
			"name":"T_WaterFallRocks_FloatingRocks_BaseColor",
			"uri":"T_WaterFallRocks_FloatingRocks_BaseColor.png"
		},
		{
			"mimeType":"image/png",
			"name":"T_WaterFallRocks_FloatingRocks_OcclusionRoughnessMetallic",
			"uri":"T_WaterFallRocks_FloatingRocks_OcclusionRoughnessMetallic.png"
		}
	],
	"accessors":[
		{
			"bufferView":0,
			"componentType":5126,
			"count":1499,
			"max":[
				0.2039254903793335,
				0.7159602642059326,
				0.7441324591636658
			],
			"min":[
				-0.6478703022003174,
				-0.5696530938148499,
				-0.7455805540084839
			],
			"type":"VEC3"
		},
		{
			"bufferView":1,
			"componentType":5126,
			"count":1499,
			"type":"VEC3"
		},
		{
			"bufferView":2,
			"componentType":5126,
			"count":1499,
			"type":"VEC2"
		},
		{
			"bufferView":3,
			"componentType":5126,
			"count":1499,
			"type":"VEC4"
		},
		{
			"bufferView":4,
			"componentType":5123,
			"count":1866,
			"type":"SCALAR"
		},
		{
			"bufferView":5,
			"componentType":5126,
			"count":1490,
			"max":[
				0.06479115784168243,
				0.638874888420105,
				0.6466163992881775
			],
			"min":[
				-0.6046677231788635,
				-0.7727758884429932,
				-0.7081347107887268
			],
			"type":"VEC3"
		},
		{
			"bufferView":6,
			"componentType":5126,
			"count":1490,
			"type":"VEC3"
		},
		{
			"bufferView":7,
			"componentType":5126,
			"count":1490,
			"type":"VEC2"
		},
		{
			"bufferView":8,
			"componentType":5126,
			"count":1490,
			"type":"VEC4"
		},
		{
			"bufferView":9,
			"componentType":5123,
			"count":1896,
			"type":"SCALAR"
		},
		{
			"bufferView":10,
			"componentType":5126,
			"count":1632,
			"max":[
				0.8396965861320496,
				0.9384693503379822,
				0.8293923735618591
			],
			"min":[
				-1.099593162536621,
				-0.7646924257278442,
				-0.8529342412948608
			],
			"type":"VEC3"
		},
		{
			"bufferView":11,
			"componentType":5126,
			"count":1632,
			"type":"VEC3"
		},
		{
			"bufferView":12,
			"componentType":5126,
			"count":1632,
			"type":"VEC2"
		},
		{
			"bufferView":13,
			"componentType":5126,
			"count":1632,
			"type":"VEC4"
		},
		{
			"bufferView":14,
			"componentType":5123,
			"count":1968,
			"type":"SCALAR"
		},
		{
			"bufferView":15,
			"componentType":5126,
			"count":1338,
			"max":[
				0.5582314729690552,
				0.5555200576782227,
				0.7500641345977783
			],
			"min":[
				-0.41520869731903076,
				-0.35759347677230835,
				-0.7944949269294739
			],
			"type":"VEC3"
		},
		{
			"bufferView":16,
			"componentType":5126,
			"count":1338,
			"type":"VEC3"
		},
		{
			"bufferView":17,
			"componentType":5126,
			"count":1338,
			"type":"VEC2"
		},
		{
			"bufferView":18,
			"componentType":5126,
			"count":1338,
			"type":"VEC4"
		},
		{
			"bufferView":19,
			"componentType":5123,
			"count":1602,
			"type":"SCALAR"
		}
	],
	"bufferViews":[
		{
			"buffer":0,
			"byteLength":17988,
			"byteOffset":0,
			"target":34962
		},
		{
			"buffer":0,
			"byteLength":17988,
			"byteOffset":17988,
			"target":34962
		},
		{
			"buffer":0,
			"byteLength":11992,
			"byteOffset":35976,
			"target":34962
		},
		{
			"buffer":0,
			"byteLength":23984,
			"byteOffset":47968,
			"target":34962
		},
		{
			"buffer":0,
			"byteLength":3732,
			"byteOffset":71952,
			"target":34963
		},
		{
			"buffer":0,
			"byteLength":17880,
			"byteOffset":75684,
			"target":34962
		},
		{
			"buffer":0,
			"byteLength":17880,
			"byteOffset":93564,
			"target":34962
		},
		{
			"buffer":0,
			"byteLength":11920,
			"byteOffset":111444,
			"target":34962
		},
		{
			"buffer":0,
			"byteLength":23840,
			"byteOffset":123364,
			"target":34962
		},
		{
			"buffer":0,
			"byteLength":3792,
			"byteOffset":147204,
			"target":34963
		},
		{
			"buffer":0,
			"byteLength":19584,
			"byteOffset":150996,
			"target":34962
		},
		{
			"buffer":0,
			"byteLength":19584,
			"byteOffset":170580,
			"target":34962
		},
		{
			"buffer":0,
			"byteLength":13056,
			"byteOffset":190164,
			"target":34962
		},
		{
			"buffer":0,
			"byteLength":26112,
			"byteOffset":203220,
			"target":34962
		},
		{
			"buffer":0,
			"byteLength":3936,
			"byteOffset":229332,
			"target":34963
		},
		{
			"buffer":0,
			"byteLength":16056,
			"byteOffset":233268,
			"target":34962
		},
		{
			"buffer":0,
			"byteLength":16056,
			"byteOffset":249324,
			"target":34962
		},
		{
			"buffer":0,
			"byteLength":10704,
			"byteOffset":265380,
			"target":34962
		},
		{
			"buffer":0,
			"byteLength":21408,
			"byteOffset":276084,
			"target":34962
		},
		{
			"buffer":0,
			"byteLength":3204,
			"byteOffset":297492,
			"target":34963
		}
	],
	"samplers":[
		{
			"magFilter":9729,
			"minFilter":9987
		}
	],
	"buffers":[
		{
			"byteLength":300696,
			"uri":"Floating_rocks_Destroyed.bin"
		}
	]
}
