{
	"asset":{
		"generator":"Khronos glTF Blender I/O v4.4.56",
		"version":"2.0"
	},
	"extensionsUsed":[
		"KHR_materials_emissive_strength"
	],
	"scene":0,
	"scenes":[
		{
			"name":"Scene",
			"nodes":[
				0,
				1,
				2,
				3,
				4,
				5
			]
		}
	],
	"nodes":[
		{
			"mesh":0,
			"name":"QuadObject"
		},
		{
			"mesh":1,
			"name":"QuadObject.001",
			"scale":[
				1,
				1.5,
				1
			],
			"translation":[
				0,
				1.1692047119140625,
				0
			]
		},
		{
			"mesh":2,
			"name":"QuadObject.002"
		},
		{
			"mesh":3,
			"name":"QuadObject.003",
			"scale":[
				1,
				1.5,
				1
			]
		},
		{
			"mesh":4,
			"name":"QuadObject.004",
			"translation":[
				0,
				-0.02156217209994793,
				0
			]
		},
		{
			"mesh":5,
			"name":"QuadObject.006",
			"rotation":[
				-1,
				0,
				0,
				7.549790836947068e-08
			],
			"scale":[
				1,
				1.5,
				1
			],
			"translation":[
				0,
				0.9000000357627869,
				0
			]
		}
	],
	"animations":[
		{
			"channels":[
				{
					"sampler":0,
					"target":{
						"node":4,
						"path":"translation"
					}
				}
			],
			"name":"QuadObject.004Action",
			"samplers":[
				{
					"input":19,
					"interpolation":"LINEAR",
					"output":20
				}
			]
		}
	],
	"materials":[
		{
			"alphaMode":"BLEND",
			"doubleSided":true,
			"emissiveFactor":[
				0.27547118067741394,
				1,
				0.21707670390605927
			],
			"name":"Material.002",
			"pbrMetallicRoughness":{
				"baseColorFactor":[
					0.800000011920929,
					0.800000011920929,
					0.800000011920929,
					1
				],
				"baseColorTexture":{
					"index":0
				},
				"metallicFactor":0,
				"roughnessFactor":0.5
			}
		},
		{
			"alphaMode":"BLEND",
			"doubleSided":true,
			"emissiveFactor":[
				0.7462234497070312,
				1,
				0.10946083068847656
			],
			"extensions":{
				"KHR_materials_emissive_strength":{
					"emissiveStrength":2
				}
			},
			"name":"Material.003",
			"pbrMetallicRoughness":{
				"baseColorFactor":[
					0.800000011920929,
					0.800000011920929,
					0.800000011920929,
					1
				],
				"baseColorTexture":{
					"index":1
				},
				"metallicFactor":0
			}
		},
		{
			"alphaMode":"BLEND",
			"doubleSided":true,
			"name":"Material.006",
			"pbrMetallicRoughness":{
				"baseColorFactor":[
					0,
					0,
					0,
					4.420000076293945
				],
				"baseColorTexture":{
					"index":2
				},
				"metallicFactor":0
			}
		},
		{
			"alphaMode":"BLEND",
			"doubleSided":true,
			"emissiveFactor":[
				0.2763211727142334,
				1,
				0.009400367736816406
			],
			"extensions":{
				"KHR_materials_emissive_strength":{
					"emissiveStrength":2
				}
			},
			"name":"Material.007",
			"pbrMetallicRoughness":{
				"baseColorFactor":[
					0.800000011920929,
					0.800000011920929,
					0.800000011920929,
					1
				],
				"baseColorTexture":{
					"index":3
				},
				"metallicFactor":0
			}
		},
		{
			"alphaMode":"BLEND",
			"doubleSided":true,
			"emissiveFactor":[
				0.27547118067741394,
				1,
				0.21707670390605927
			],
			"name":"Material.022",
			"pbrMetallicRoughness":{
				"baseColorFactor":[
					0.800000011920929,
					0.800000011920929,
					0.800000011920929,
					1
				],
				"baseColorTexture":{
					"index":4
				},
				"metallicFactor":0,
				"roughnessFactor":0.5
			}
		},
		{
			"alphaMode":"BLEND",
			"doubleSided":true,
			"emissiveFactor":[
				1,
				1,
				1
			],
			"emissiveTexture":{
				"index":5
			},
			"name":"Material.014",
			"pbrMetallicRoughness":{
				"baseColorFactor":[
					0,
					0,
					0,
					1
				],
				"baseColorTexture":{
					"index":6
				},
				"metallicFactor":0
			}
		}
	],
	"meshes":[
		{
			"name":"QuadMesh.014",
			"primitives":[
				{
					"attributes":{
						"POSITION":0,
						"NORMAL":1,
						"TEXCOORD_0":2
					},
					"indices":3,
					"material":0
				}
			]
		},
		{
			"name":"QuadMesh.015",
			"primitives":[
				{
					"attributes":{
						"POSITION":4,
						"NORMAL":5,
						"TEXCOORD_0":6
					},
					"indices":3,
					"material":1
				}
			]
		},
		{
			"name":"QuadMesh.016",
			"primitives":[
				{
					"attributes":{
						"POSITION":7,
						"NORMAL":8,
						"TEXCOORD_0":9
					},
					"indices":3,
					"material":2
				}
			]
		},
		{
			"name":"QuadMesh.017",
			"primitives":[
				{
					"attributes":{
						"POSITION":10,
						"NORMAL":11,
						"TEXCOORD_0":12
					},
					"indices":3,
					"material":3
				}
			]
		},
		{
			"name":"QuadMesh.018",
			"primitives":[
				{
					"attributes":{
						"POSITION":13,
						"NORMAL":14,
						"TEXCOORD_0":15
					},
					"indices":3,
					"material":4
				}
			]
		},
		{
			"name":"QuadMesh.002",
			"primitives":[
				{
					"attributes":{
						"POSITION":16,
						"NORMAL":17,
						"TEXCOORD_0":18
					},
					"indices":3,
					"material":5
				}
			]
		}
	],
	"textures":[
		{
			"sampler":0,
			"source":0
		},
		{
			"sampler":0,
			"source":0
		},
		{
			"sampler":0,
			"source":1
		},
		{
			"sampler":0,
			"source":2
		},
		{
			"sampler":0,
			"source":1
		},
		{
			"sampler":1,
			"source":3
		},
		{
			"sampler":1,
			"source":4
		}
	],
	"images":[
		{
			"mimeType":"image/png",
			"name":"spr_noise.jpg",
			"uri":"spr_noise_jpg.png"
		},
		{
			"mimeType":"image/png",
			"name":"spikes_test.png",
			"uri":"spikes_test_png.png"
		},
		{
			"mimeType":"image/png",
			"name":"spikes_test_2.png",
			"uri":"spikes_test_2_png.png"
		},
		{
			"mimeType":"image/png",
			"name":"blast.png",
			"uri":"blast_png.png"
		},
		{
			"mimeType":"image/png",
			"name":"blast.png",
			"uri":"blast_png-1.png"
		}
	],
	"accessors":[
		{
			"bufferView":0,
			"componentType":5126,
			"count":462,
			"max":[
				1.387878656387329,
				0,
				1.399999976158142
			],
			"min":[
				-1.4121211767196655,
				0,
				-1.399999976158142
			],
			"type":"VEC3"
		},
		{
			"bufferView":1,
			"componentType":5126,
			"count":462,
			"type":"VEC3"
		},
		{
			"bufferView":2,
			"componentType":5126,
			"count":462,
			"type":"VEC2"
		},
		{
			"bufferView":3,
			"componentType":5123,
			"count":2496,
			"type":"SCALAR"
		},
		{
			"bufferView":4,
			"componentType":5126,
			"count":462,
			"max":[
				2.48469614982605,
				0.45058614015579224,
				2.531093120574951
			],
			"min":[
				-2.5774898529052734,
				-0.0007858261233195662,
				-2.531093120574951
			],
			"type":"VEC3"
		},
		{
			"bufferView":5,
			"componentType":5126,
			"count":462,
			"type":"VEC3"
		},
		{
			"bufferView":6,
			"componentType":5126,
			"count":462,
			"type":"VEC2"
		},
		{
			"bufferView":7,
			"componentType":5126,
			"count":462,
			"max":[
				1.387878656387329,
				0,
				1.399999976158142
			],
			"min":[
				-1.4121211767196655,
				0,
				-1.399999976158142
			],
			"type":"VEC3"
		},
		{
			"bufferView":8,
			"componentType":5126,
			"count":462,
			"type":"VEC3"
		},
		{
			"bufferView":9,
			"componentType":5126,
			"count":462,
			"type":"VEC2"
		},
		{
			"bufferView":10,
			"componentType":5126,
			"count":462,
			"max":[
				1.3938132524490356,
				0.45058614015579224,
				1.4061199426651
			],
			"min":[
				-1.4184266328811646,
				-0.0007857833988964558,
				-1.4061199426651
			],
			"type":"VEC3"
		},
		{
			"bufferView":11,
			"componentType":5126,
			"count":462,
			"type":"VEC3"
		},
		{
			"bufferView":12,
			"componentType":5126,
			"count":462,
			"type":"VEC2"
		},
		{
			"bufferView":13,
			"componentType":5126,
			"count":462,
			"max":[
				1.387878656387329,
				0,
				1.399999976158142
			],
			"min":[
				-1.4121211767196655,
				0,
				-1.399999976158142
			],
			"type":"VEC3"
		},
		{
			"bufferView":14,
			"componentType":5126,
			"count":462,
			"type":"VEC3"
		},
		{
			"bufferView":15,
			"componentType":5126,
			"count":462,
			"type":"VEC2"
		},
		{
			"bufferView":16,
			"componentType":5126,
			"count":462,
			"max":[
				1.3938132524490356,
				0.45058614015579224,
				1.4061199426651
			],
			"min":[
				-1.4184266328811646,
				-0.0007857833988964558,
				-1.4061199426651
			],
			"type":"VEC3"
		},
		{
			"bufferView":17,
			"componentType":5126,
			"count":462,
			"type":"VEC3"
		},
		{
			"bufferView":18,
			"componentType":5126,
			"count":462,
			"type":"VEC2"
		},
		{
			"bufferView":19,
			"componentType":5126,
			"count":1,
			"max":[
				0.4583333333333333
			],
			"min":[
				0.4583333333333333
			],
			"type":"SCALAR"
		},
		{
			"bufferView":20,
			"componentType":5126,
			"count":1,
			"type":"VEC3"
		}
	],
	"bufferViews":[
		{
			"buffer":0,
			"byteLength":5544,
			"byteOffset":0,
			"target":34962
		},
		{
			"buffer":0,
			"byteLength":5544,
			"byteOffset":5544,
			"target":34962
		},
		{
			"buffer":0,
			"byteLength":3696,
			"byteOffset":11088,
			"target":34962
		},
		{
			"buffer":0,
			"byteLength":4992,
			"byteOffset":14784,
			"target":34963
		},
		{
			"buffer":0,
			"byteLength":5544,
			"byteOffset":19776,
			"target":34962
		},
		{
			"buffer":0,
			"byteLength":5544,
			"byteOffset":25320,
			"target":34962
		},
		{
			"buffer":0,
			"byteLength":3696,
			"byteOffset":30864,
			"target":34962
		},
		{
			"buffer":0,
			"byteLength":5544,
			"byteOffset":34560,
			"target":34962
		},
		{
			"buffer":0,
			"byteLength":5544,
			"byteOffset":40104,
			"target":34962
		},
		{
			"buffer":0,
			"byteLength":3696,
			"byteOffset":45648,
			"target":34962
		},
		{
			"buffer":0,
			"byteLength":5544,
			"byteOffset":49344,
			"target":34962
		},
		{
			"buffer":0,
			"byteLength":5544,
			"byteOffset":54888,
			"target":34962
		},
		{
			"buffer":0,
			"byteLength":3696,
			"byteOffset":60432,
			"target":34962
		},
		{
			"buffer":0,
			"byteLength":5544,
			"byteOffset":64128,
			"target":34962
		},
		{
			"buffer":0,
			"byteLength":5544,
			"byteOffset":69672,
			"target":34962
		},
		{
			"buffer":0,
			"byteLength":3696,
			"byteOffset":75216,
			"target":34962
		},
		{
			"buffer":0,
			"byteLength":5544,
			"byteOffset":78912,
			"target":34962
		},
		{
			"buffer":0,
			"byteLength":5544,
			"byteOffset":84456,
			"target":34962
		},
		{
			"buffer":0,
			"byteLength":3696,
			"byteOffset":90000,
			"target":34962
		},
		{
			"buffer":0,
			"byteLength":4,
			"byteOffset":93696
		},
		{
			"buffer":0,
			"byteLength":12,
			"byteOffset":93700
		}
	],
	"samplers":[
		{
			"magFilter":9729,
			"minFilter":9987
		},
		{
			"magFilter":9729,
			"minFilter":9987,
			"wrapS":33071,
			"wrapT":33071
		}
	],
	"buffers":[
		{
			"byteLength":93712,
			"uri":"healing_blast.bin"
		}
	]
}
