{
	"asset":{
		"generator":"Khronos glTF Blender I/O v4.2.69",
		"version":"2.0"
	},
	"scene":0,
	"scenes":[
		{
			"name":"Scene",
			"nodes":[
				0,
				1,
				2,
				3
			]
		}
	],
	"nodes":[
		{
			"mesh":0,
			"name":"EN_Island01"
		},
		{
			"mesh":1,
			"name":"EN_RisingTilesBridge"
		},
		{
			"mesh":2,
			"name":"EN_Island03"
		},
		{
			"mesh":3,
			"name":"EN_Island04"
		}
	],
	"meshes":[
		{
			"name":"Mesh.001",
			"primitives":[
				{
					"attributes":{
						"POSITION":0,
						"NORMAL":1,
						"TEXCOORD_0":2,
						"TEXCOORD_1":3
					},
					"indices":4
				}
			]
		},
		{
			"name":"Mesh.002",
			"primitives":[
				{
					"attributes":{
						"POSITION":5,
						"NORMAL":6,
						"TEXCOORD_0":7,
						"TEXCOORD_1":8
					},
					"indices":9
				}
			]
		},
		{
			"name":"Mesh.003",
			"primitives":[
				{
					"attributes":{
						"POSITION":10,
						"NORMAL":11,
						"TEXCOORD_0":12,
						"TEXCOORD_1":13
					},
					"indices":14
				}
			]
		},
		{
			"name":"Mesh.004",
			"primitives":[
				{
					"attributes":{
						"POSITION":15,
						"NORMAL":16,
						"TEXCOORD_0":17,
						"TEXCOORD_1":18
					},
					"indices":19
				}
			]
		}
	],
	"accessors":[
		{
			"bufferView":0,
			"componentType":5126,
			"count":12,
			"max":[
				14.437921524047852,
				2.86102294921875e-06,
				30.15221405029297
			],
			"min":[
				-12.139406204223633,
				-2.86102294921875e-06,
				-21.784915924072266
			],
			"type":"VEC3"
		},
		{
			"bufferView":1,
			"componentType":5126,
			"count":12,
			"type":"VEC3"
		},
		{
			"bufferView":2,
			"componentType":5126,
			"count":12,
			"type":"VEC2"
		},
		{
			"bufferView":3,
			"componentType":5126,
			"count":12,
			"type":"VEC2"
		},
		{
			"bufferView":4,
			"componentType":5123,
			"count":24,
			"type":"SCALAR"
		},
		{
			"bufferView":5,
			"componentType":5126,
			"count":16,
			"max":[
				16.5712890625,
				9.5367431640625e-07,
				2.9725990295410156
			],
			"min":[
				-9.55762767791748,
				0,
				-2.9694786071777344
			],
			"type":"VEC3"
		},
		{
			"bufferView":6,
			"componentType":5126,
			"count":16,
			"type":"VEC3"
		},
		{
			"bufferView":7,
			"componentType":5126,
			"count":16,
			"type":"VEC2"
		},
		{
			"bufferView":8,
			"componentType":5126,
			"count":16,
			"type":"VEC2"
		},
		{
			"bufferView":9,
			"componentType":5123,
			"count":30,
			"type":"SCALAR"
		},
		{
			"bufferView":10,
			"componentType":5126,
			"count":52,
			"max":[
				25.894184112548828,
				9.5367431640625e-07,
				23.584129333496094
			],
			"min":[
				-29.233318328857422,
				-4.76837158203125e-06,
				-26.32611846923828
			],
			"type":"VEC3"
		},
		{
			"bufferView":11,
			"componentType":5126,
			"count":52,
			"type":"VEC3"
		},
		{
			"bufferView":12,
			"componentType":5126,
			"count":52,
			"type":"VEC2"
		},
		{
			"bufferView":13,
			"componentType":5126,
			"count":52,
			"type":"VEC2"
		},
		{
			"bufferView":14,
			"componentType":5123,
			"count":138,
			"type":"SCALAR"
		},
		{
			"bufferView":15,
			"componentType":5126,
			"count":4,
			"max":[
				34.31768798828125,
				7.3909759521484375e-06,
				20.39438247680664
			],
			"min":[
				-34.317684173583984,
				-9.775161743164062e-06,
				-20.39438247680664
			],
			"type":"VEC3"
		},
		{
			"bufferView":16,
			"componentType":5126,
			"count":4,
			"type":"VEC3"
		},
		{
			"bufferView":17,
			"componentType":5126,
			"count":4,
			"type":"VEC2"
		},
		{
			"bufferView":18,
			"componentType":5126,
			"count":4,
			"type":"VEC2"
		},
		{
			"bufferView":19,
			"componentType":5123,
			"count":6,
			"type":"SCALAR"
		}
	],
	"bufferViews":[
		{
			"buffer":0,
			"byteLength":144,
			"byteOffset":0,
			"target":34962
		},
		{
			"buffer":0,
			"byteLength":144,
			"byteOffset":144,
			"target":34962
		},
		{
			"buffer":0,
			"byteLength":96,
			"byteOffset":288,
			"target":34962
		},
		{
			"buffer":0,
			"byteLength":96,
			"byteOffset":384,
			"target":34962
		},
		{
			"buffer":0,
			"byteLength":48,
			"byteOffset":480,
			"target":34963
		},
		{
			"buffer":0,
			"byteLength":192,
			"byteOffset":528,
			"target":34962
		},
		{
			"buffer":0,
			"byteLength":192,
			"byteOffset":720,
			"target":34962
		},
		{
			"buffer":0,
			"byteLength":128,
			"byteOffset":912,
			"target":34962
		},
		{
			"buffer":0,
			"byteLength":128,
			"byteOffset":1040,
			"target":34962
		},
		{
			"buffer":0,
			"byteLength":60,
			"byteOffset":1168,
			"target":34963
		},
		{
			"buffer":0,
			"byteLength":624,
			"byteOffset":1228,
			"target":34962
		},
		{
			"buffer":0,
			"byteLength":624,
			"byteOffset":1852,
			"target":34962
		},
		{
			"buffer":0,
			"byteLength":416,
			"byteOffset":2476,
			"target":34962
		},
		{
			"buffer":0,
			"byteLength":416,
			"byteOffset":2892,
			"target":34962
		},
		{
			"buffer":0,
			"byteLength":276,
			"byteOffset":3308,
			"target":34963
		},
		{
			"buffer":0,
			"byteLength":48,
			"byteOffset":3584,
			"target":34962
		},
		{
			"buffer":0,
			"byteLength":48,
			"byteOffset":3632,
			"target":34962
		},
		{
			"buffer":0,
			"byteLength":32,
			"byteOffset":3680,
			"target":34962
		},
		{
			"buffer":0,
			"byteLength":32,
			"byteOffset":3712,
			"target":34962
		},
		{
			"buffer":0,
			"byteLength":12,
			"byteOffset":3744,
			"target":34963
		}
	],
	"buffers":[
		{
			"byteLength":3756,
			"uri":"Islands%20Lvl%201.bin"
		}
	]
}
