{
	"asset":{
		"generator":"Khronos glTF Blender I/O v4.5.48",
		"version":"2.0"
	},
	"scene":0,
	"scenes":[
		{
			"name":"Scene",
			"nodes":[
				15,
				23
			]
		}
	],
	"nodes":[
		{
			"mesh":0,
			"name":"foam_placed_shape_3",
			"translation":[
				-47.76126480102539,
				20.48116683959961,
				-77.29869079589844
			]
		},
		{
			"mesh":1,
			"name":"foam_placed_shape_4",
			"translation":[
				-47.76126480102539,
				20.48116683959961,
				-77.29869079589844
			]
		},
		{
			"mesh":2,
			"name":"foam_river_2",
			"translation":[
				-47.76126480102539,
				20.48116683959961,
				-77.29869079589844
			]
		},
		{
			"children":[
				0,
				1,
				2
			],
			"mesh":3,
			"name":"water_river_2"
		},
		{
			"mesh":4,
			"name":"foam_placed_shape_1",
			"translation":[
				-62.36750793457031,
				29.462188720703125,
				-155.4263458251953
			]
		},
		{
			"mesh":5,
			"name":"foam_placed_shape_2",
			"translation":[
				-62.36750793457031,
				29.462188720703125,
				-155.4263458251953
			]
		},
		{
			"mesh":6,
			"name":"foam_river_split_thin",
			"translation":[
				-62.36750793457031,
				29.462188720703125,
				-155.4263458251953
			]
		},
		{
			"children":[
				4,
				5,
				6
			],
			"mesh":7,
			"name":"water_river_split"
		},
		{
			"mesh":8,
			"name":"foam_placed_shape_5",
			"translation":[
				-95.90452575683594,
				11.455703735351562,
				-105.19173431396484
			]
		},
		{
			"mesh":9,
			"name":"foam_waterfall_1_thin",
			"translation":[
				-95.90452575683594,
				11.455703735351562,
				-97.87637329101562
			]
		},
		{
			"children":[
				8,
				9
			],
			"mesh":10,
			"name":"water_waterfall_1"
		},
		{
			"mesh":11,
			"name":"foam_waterfall_2_thin",
			"translation":[
				-83.79756164550781,
				7.679875373840332,
				-147.2769317626953
			]
		},
		{
			"children":[
				11
			],
			"mesh":12,
			"name":"water_waterfall_2"
		},
		{
			"mesh":13,
			"name":"foam_waterfall_background_thin",
			"translation":[
				-107.38927459716797,
				27.6177978515625,
				-40.94995880126953
			]
		},
		{
			"children":[
				13
			],
			"mesh":14,
			"name":"water_waterfall_background"
		},
		{
			"children":[
				3,
				7,
				10,
				12,
				14
			],
			"name":"water_level_2"
		},
		{
			"mesh":15,
			"name":"foam_island_shape_1",
			"rotation":[
				0,
				-0.9659258723258972,
				0,
				0.25881895422935486
			],
			"scale":[
				1.2680485248565674,
				1.2680484056472778,
				1.2680485248565674
			],
			"translation":[
				-81.26795959472656,
				3.339057445526123,
				-371.6640319824219
			]
		},
		{
			"mesh":16,
			"name":"foam_island_shape_2",
			"rotation":[
				0,
				-0.9659258723258972,
				0,
				0.25881895422935486
			],
			"scale":[
				1.2680485248565674,
				1.2680484056472778,
				1.2680485248565674
			],
			"translation":[
				-0.919619083404541,
				3.339057445526123,
				-321.9245910644531
			]
		},
		{
			"mesh":17,
			"name":"foam_island_shape_3",
			"rotation":[
				0,
				-0.9659258723258972,
				0,
				0.25881895422935486
			],
			"scale":[
				1.2680485248565674,
				1.2680484056472778,
				1.2680485248565674
			],
			"translation":[
				116.57682800292969,
				3.339057445526123,
				-237.43011474609375
			]
		},
		{
			"mesh":18,
			"name":"foam_island_shape_4",
			"rotation":[
				0,
				-0.9659258723258972,
				0,
				0.25881895422935486
			],
			"scale":[
				1.2680485248565674,
				1.2680484056472778,
				1.2680485248565674
			],
			"translation":[
				113.57159423828125,
				3.339057445526123,
				-153.78436279296875
			]
		},
		{
			"mesh":19,
			"name":"foam_shape_generic_square",
			"rotation":[
				0,
				-0.5,
				0,
				0.8660253882408142
			],
			"translation":[
				0,
				1.0453037023544312,
				-150
			]
		},
		{
			"mesh":20,
			"name":"foam_shape_tutorial_1",
			"rotation":[
				0,
				-0.5,
				0,
				0.8660253882408142
			],
			"translation":[
				0,
				1.0453037023544312,
				-100
			]
		},
		{
			"mesh":21,
			"name":"foam_shape_tutorial_2",
			"translation":[
				0,
				1.0453037023544312,
				-100
			]
		},
		{
			"children":[
				16,
				17,
				18,
				19,
				20,
				21,
				22
			],
			"name":"extra_foam_bits"
		}
	],
	"materials":[
		{
			"alphaMode":"BLEND",
			"doubleSided":true,
			"emissiveFactor":[
				1,
				1,
				1
			],
			"emissiveTexture":{
				"index":0
			},
			"name":"m_water_foam_radial",
			"pbrMetallicRoughness":{
				"baseColorFactor":[
					0,
					0,
					0,
					1
				],
				"baseColorTexture":{
					"index":1
				},
				"metallicFactor":0
			}
		},
		{
			"alphaMode":"BLEND",
			"doubleSided":true,
			"emissiveFactor":[
				1,
				1,
				1
			],
			"emissiveTexture":{
				"index":2
			},
			"name":"m_water_foam_shifted",
			"pbrMetallicRoughness":{
				"baseColorFactor":[
					0,
					0,
					0,
					1
				],
				"baseColorTexture":{
					"index":3
				},
				"metallicFactor":0
			}
		},
		{
			"doubleSided":true,
			"emissiveFactor":[
				1,
				1,
				1
			],
			"emissiveTexture":{
				"index":4
			},
			"name":"m_water",
			"pbrMetallicRoughness":{
				"baseColorTexture":{
					"index":5
				},
				"metallicFactor":0
			}
		}
	],
	"meshes":[
		{
			"name":"Cylinder.008",
			"primitives":[
				{
					"attributes":{
						"POSITION":0,
						"NORMAL":1,
						"TEXCOORD_0":2,
						"TANGENT":3
					},
					"indices":4,
					"material":0
				}
			]
		},
		{
			"name":"Cylinder.009",
			"primitives":[
				{
					"attributes":{
						"POSITION":5,
						"NORMAL":6,
						"TEXCOORD_0":7,
						"TANGENT":8
					},
					"indices":9,
					"material":0
				}
			]
		},
		{
			"name":"Plane.002",
			"primitives":[
				{
					"attributes":{
						"POSITION":10,
						"NORMAL":11,
						"TEXCOORD_0":12,
						"TANGENT":13
					},
					"indices":14,
					"material":1
				}
			]
		},
		{
			"name":"Plane.018",
			"primitives":[
				{
					"attributes":{
						"POSITION":15,
						"NORMAL":16,
						"TEXCOORD_0":17,
						"TANGENT":18
					},
					"indices":19,
					"material":2
				}
			]
		},
		{
			"name":"Cylinder.011",
			"primitives":[
				{
					"attributes":{
						"POSITION":20,
						"NORMAL":21,
						"TEXCOORD_0":22,
						"TANGENT":23
					},
					"indices":24,
					"material":0
				}
			]
		},
		{
			"name":"Cylinder.010",
			"primitives":[
				{
					"attributes":{
						"POSITION":25,
						"NORMAL":26,
						"TEXCOORD_0":27,
						"TANGENT":28
					},
					"indices":29,
					"material":0
				}
			]
		},
		{
			"name":"Plane.041",
			"primitives":[
				{
					"attributes":{
						"POSITION":30,
						"NORMAL":31,
						"TEXCOORD_0":32,
						"TANGENT":33
					},
					"indices":34,
					"material":1
				}
			]
		},
		{
			"name":"Plane.007",
			"primitives":[
				{
					"attributes":{
						"POSITION":35,
						"NORMAL":36,
						"TEXCOORD_0":37,
						"TANGENT":38
					},
					"indices":39,
					"material":2
				}
			]
		},
		{
			"name":"Cylinder.012",
			"primitives":[
				{
					"attributes":{
						"POSITION":40,
						"NORMAL":41,
						"TEXCOORD_0":42,
						"TANGENT":43
					},
					"indices":44,
					"material":0
				}
			]
		},
		{
			"name":"Plane.038",
			"primitives":[
				{
					"attributes":{
						"POSITION":45,
						"NORMAL":46,
						"TEXCOORD_0":47,
						"TANGENT":48
					},
					"indices":49,
					"material":1
				}
			]
		},
		{
			"name":"Plane.016",
			"primitives":[
				{
					"attributes":{
						"POSITION":50,
						"NORMAL":51,
						"TEXCOORD_0":52,
						"TANGENT":53
					},
					"indices":54,
					"material":2
				}
			]
		},
		{
			"name":"Plane.043",
			"primitives":[
				{
					"attributes":{
						"POSITION":55,
						"NORMAL":56,
						"TEXCOORD_0":57,
						"TANGENT":58
					},
					"indices":59,
					"material":1
				}
			]
		},
		{
			"name":"Plane.014",
			"primitives":[
				{
					"attributes":{
						"POSITION":60,
						"NORMAL":61,
						"TEXCOORD_0":62,
						"TANGENT":63
					},
					"indices":64,
					"material":2
				}
			]
		},
		{
			"name":"Plane.044",
			"primitives":[
				{
					"attributes":{
						"POSITION":65,
						"NORMAL":66,
						"TEXCOORD_0":67,
						"TANGENT":68
					},
					"indices":69,
					"material":1
				}
			]
		},
		{
			"name":"Plane.006",
			"primitives":[
				{
					"attributes":{
						"POSITION":70,
						"NORMAL":71,
						"TEXCOORD_0":72,
						"TANGENT":73
					},
					"indices":69,
					"material":2
				}
			]
		},
		{
			"name":"Cylinder.013",
			"primitives":[
				{
					"attributes":{
						"POSITION":74,
						"NORMAL":75,
						"TEXCOORD_0":76,
						"TANGENT":77
					},
					"indices":78,
					"material":0
				}
			]
		},
		{
			"name":"Cylinder.014",
			"primitives":[
				{
					"attributes":{
						"POSITION":79,
						"NORMAL":80,
						"TEXCOORD_0":81,
						"TANGENT":82
					},
					"indices":83,
					"material":0
				}
			]
		},
		{
			"name":"Cylinder.015",
			"primitives":[
				{
					"attributes":{
						"POSITION":84,
						"NORMAL":85,
						"TEXCOORD_0":86,
						"TANGENT":87
					},
					"indices":88,
					"material":0
				}
			]
		},
		{
			"name":"Cylinder.016",
			"primitives":[
				{
					"attributes":{
						"POSITION":89,
						"NORMAL":90,
						"TEXCOORD_0":91,
						"TANGENT":92
					},
					"indices":93,
					"material":0
				}
			]
		},
		{
			"name":"Cylinder.003",
			"primitives":[
				{
					"attributes":{
						"POSITION":94,
						"NORMAL":95,
						"TEXCOORD_0":96,
						"TANGENT":97
					},
					"indices":98,
					"material":0
				}
			]
		},
		{
			"name":"Cylinder.001",
			"primitives":[
				{
					"attributes":{
						"POSITION":99,
						"NORMAL":100,
						"TEXCOORD_0":101,
						"TANGENT":102
					},
					"indices":103,
					"material":0
				}
			]
		},
		{
			"name":"Cylinder.002",
			"primitives":[
				{
					"attributes":{
						"POSITION":104,
						"NORMAL":105,
						"TEXCOORD_0":106,
						"TANGENT":107
					},
					"indices":108,
					"material":0
				}
			]
		}
	],
	"textures":[
		{
			"sampler":0,
			"source":0
		},
		{
			"sampler":0,
			"source":1
		},
		{
			"sampler":0,
			"source":0
		},
		{
			"sampler":0,
			"source":1
		},
		{
			"sampler":0,
			"source":2
		},
		{
			"sampler":0,
			"source":2
		}
	],
	"images":[
		{
			"mimeType":"image/png",
			"name":"foam_no_border",
			"uri":"foam_no_border.png"
		},
		{
			"mimeType":"image/png",
			"name":"foam_no_border",
			"uri":"foam_no_border-1.png"
		},
		{
			"mimeType":"image/png",
			"name":"backdrop_8",
			"uri":"backdrop_8.png"
		}
	],
	"accessors":[
		{
			"bufferView":0,
			"componentType":5126,
			"count":737,
			"max":[
				57.888755798339844,
				-42.45656967163086,
				101.82978820800781
			],
			"min":[
				37.109920501708984,
				-42.45656967163086,
				81.22764587402344
			],
			"type":"VEC3"
		},
		{
			"bufferView":1,
			"componentType":5126,
			"count":737,
			"type":"VEC3"
		},
		{
			"bufferView":2,
			"componentType":5126,
			"count":737,
			"type":"VEC2"
		},
		{
			"bufferView":3,
			"componentType":5126,
			"count":737,
			"type":"VEC4"
		},
		{
			"bufferView":4,
			"componentType":5123,
			"count":1344,
			"type":"SCALAR"
		},
		{
			"bufferView":5,
			"componentType":5126,
			"count":714,
			"max":[
				52.76873016357422,
				-42.32963562011719,
				75.90179443359375
			],
			"min":[
				31.66707420349121,
				-42.32963562011719,
				56.53456115722656
			],
			"type":"VEC3"
		},
		{
			"bufferView":6,
			"componentType":5126,
			"count":714,
			"type":"VEC3"
		},
		{
			"bufferView":7,
			"componentType":5126,
			"count":714,
			"type":"VEC2"
		},
		{
			"bufferView":8,
			"componentType":5126,
			"count":714,
			"type":"VEC4"
		},
		{
			"bufferView":9,
			"componentType":5123,
			"count":1344,
			"type":"SCALAR"
		},
		{
			"bufferView":10,
			"componentType":5126,
			"count":658,
			"max":[
				62.28453063964844,
				-12.933876037597656,
				97.2401123046875
			],
			"min":[
				36.03853988647461,
				-47.10396957397461,
				61.17316818237305
			],
			"type":"VEC3"
		},
		{
			"bufferView":11,
			"componentType":5126,
			"count":658,
			"type":"VEC3"
		},
		{
			"bufferView":12,
			"componentType":5126,
			"count":658,
			"type":"VEC2"
		},
		{
			"bufferView":13,
			"componentType":5126,
			"count":658,
			"type":"VEC4"
		},
		{
			"bufferView":14,
			"componentType":5123,
			"count":1542,
			"type":"SCALAR"
		},
		{
			"bufferView":15,
			"componentType":5126,
			"count":658,
			"max":[
				14.523265838623047,
				7.3038835525512695,
				19.941421508789062
			],
			"min":[
				-11.571414947509766,
				-26.87948226928711,
				-16.12552261352539
			],
			"type":"VEC3"
		},
		{
			"bufferView":16,
			"componentType":5126,
			"count":658,
			"type":"VEC3"
		},
		{
			"bufferView":17,
			"componentType":5126,
			"count":658,
			"type":"VEC2"
		},
		{
			"bufferView":18,
			"componentType":5126,
			"count":658,
			"type":"VEC4"
		},
		{
			"bufferView":19,
			"componentType":5123,
			"count":1542,
			"type":"SCALAR"
		},
		{
			"bufferView":20,
			"componentType":5126,
			"count":711,
			"max":[
				75.05863952636719,
				-42.304420471191406,
				195.10299682617188
			],
			"min":[
				45.96103286743164,
				-42.304420471191406,
				166.57098388671875
			],
			"type":"VEC3"
		},
		{
			"bufferView":21,
			"componentType":5126,
			"count":711,
			"type":"VEC3"
		},
		{
			"bufferView":22,
			"componentType":5126,
			"count":711,
			"type":"VEC2"
		},
		{
			"bufferView":23,
			"componentType":5126,
			"count":711,
			"type":"VEC4"
		},
		{
			"bufferView":24,
			"componentType":5123,
			"count":1344,
			"type":"SCALAR"
		},
		{
			"bufferView":25,
			"componentType":5126,
			"count":736,
			"max":[
				72.9499282836914,
				-42.30970001220703,
				146.18008422851562
			],
			"min":[
				29.716814041137695,
				-42.30970001220703,
				103.19374084472656
			],
			"type":"VEC3"
		},
		{
			"bufferView":26,
			"componentType":5126,
			"count":736,
			"type":"VEC3"
		},
		{
			"bufferView":27,
			"componentType":5126,
			"count":736,
			"type":"VEC2"
		},
		{
			"bufferView":28,
			"componentType":5126,
			"count":736,
			"type":"VEC4"
		},
		{
			"bufferView":29,
			"componentType":5123,
			"count":1344,
			"type":"SCALAR"
		},
		{
			"bufferView":30,
			"componentType":5126,
			"count":343,
			"max":[
				120.05020141601562,
				-20.869531631469727,
				190.79302978515625
			],
			"min":[
				39.224029541015625,
				-52.51432418823242,
				115.17086791992188
			],
			"type":"VEC3"
		},
		{
			"bufferView":31,
			"componentType":5126,
			"count":343,
			"type":"VEC3"
		},
		{
			"bufferView":32,
			"componentType":5126,
			"count":343,
			"type":"VEC2"
		},
		{
			"bufferView":33,
			"componentType":5126,
			"count":343,
			"type":"VEC4"
		},
		{
			"bufferView":34,
			"componentType":5123,
			"count":1536,
			"type":"SCALAR"
		},
		{
			"bufferView":35,
			"componentType":5126,
			"count":343,
			"max":[
				57.97150421142578,
				7.799343109130859,
				34.41863250732422
			],
			"min":[
				-21.961441040039062,
				-24.380470275878906,
				-40.73866271972656
			],
			"type":"VEC3"
		},
		{
			"bufferView":36,
			"componentType":5126,
			"count":343,
			"type":"VEC3"
		},
		{
			"bufferView":37,
			"componentType":5126,
			"count":343,
			"type":"VEC2"
		},
		{
			"bufferView":38,
			"componentType":5126,
			"count":343,
			"type":"VEC4"
		},
		{
			"bufferView":39,
			"componentType":5123,
			"count":1536,
			"type":"SCALAR"
		},
		{
			"bufferView":40,
			"componentType":5126,
			"count":306,
			"max":[
				91.53855895996094,
				-21.584365844726562,
				121.0382308959961
			],
			"min":[
				74.08282470703125,
				-21.96071434020996,
				114.63601684570312
			],
			"type":"VEC3"
		},
		{
			"bufferView":41,
			"componentType":5126,
			"count":306,
			"type":"VEC3"
		},
		{
			"bufferView":42,
			"componentType":5126,
			"count":306,
			"type":"VEC2"
		},
		{
			"bufferView":43,
			"componentType":5126,
			"count":306,
			"type":"VEC4"
		},
		{
			"bufferView":44,
			"componentType":5123,
			"count":462,
			"type":"SCALAR"
		},
		{
			"bufferView":45,
			"componentType":5126,
			"count":200,
			"max":[
				123.88867950439453,
				-4.686286926269531,
				107.75540161132812
			],
			"min":[
				77.99980163574219,
				-22.1003360748291,
				88.7859878540039
			],
			"type":"VEC3"
		},
		{
			"bufferView":46,
			"componentType":5126,
			"count":200,
			"type":"VEC3"
		},
		{
			"bufferView":47,
			"componentType":5126,
			"count":200,
			"type":"VEC2"
		},
		{
			"bufferView":48,
			"componentType":5126,
			"count":200,
			"type":"VEC4"
		},
		{
			"bufferView":49,
			"componentType":5123,
			"count":864,
			"type":"SCALAR"
		},
		{
			"bufferView":50,
			"componentType":5126,
			"count":120,
			"max":[
				27.3961181640625,
				6.490529537200928,
				9.666206359863281
			],
			"min":[
				-18.16097068786621,
				-10.651483535766602,
				-9.490226745605469
			],
			"type":"VEC3"
		},
		{
			"bufferView":51,
			"componentType":5126,
			"count":120,
			"type":"VEC3"
		},
		{
			"bufferView":52,
			"componentType":5126,
			"count":120,
			"type":"VEC2"
		},
		{
			"bufferView":53,
			"componentType":5126,
			"count":120,
			"type":"VEC4"
		},
		{
			"bufferView":54,
			"componentType":5123,
			"count":432,
			"type":"SCALAR"
		},
		{
			"bufferView":55,
			"componentType":5126,
			"count":120,
			"max":[
				106.31570434570312,
				-3.6182055473327637,
				153.67276000976562
			],
			"min":[
				71.3709716796875,
				-21.218008041381836,
				139.6141357421875
			],
			"type":"VEC3"
		},
		{
			"bufferView":56,
			"componentType":5126,
			"count":120,
			"type":"VEC3"
		},
		{
			"bufferView":57,
			"componentType":5126,
			"count":120,
			"type":"VEC2"
		},
		{
			"bufferView":58,
			"componentType":5126,
			"count":120,
			"type":"VEC4"
		},
		{
			"bufferView":59,
			"componentType":5123,
			"count":528,
			"type":"SCALAR"
		},
		{
			"bufferView":60,
			"componentType":5126,
			"count":72,
			"max":[
				23.221282958984375,
				3.4815263748168945,
				6.3958282470703125
			],
			"min":[
				-11.72344970703125,
				-14.155707359313965,
				-7.671356201171875
			],
			"type":"VEC3"
		},
		{
			"bufferView":61,
			"componentType":5126,
			"count":72,
			"type":"VEC3"
		},
		{
			"bufferView":62,
			"componentType":5126,
			"count":72,
			"type":"VEC2"
		},
		{
			"bufferView":63,
			"componentType":5126,
			"count":72,
			"type":"VEC4"
		},
		{
			"bufferView":64,
			"componentType":5123,
			"count":264,
			"type":"SCALAR"
		},
		{
			"bufferView":65,
			"componentType":5126,
			"count":125,
			"max":[
				108.84965515136719,
				-3.1859421730041504,
				43.29681396484375
			],
			"min":[
				105.37615203857422,
				-65.91513061523438,
				38.90678405761719
			],
			"type":"VEC3"
		},
		{
			"bufferView":66,
			"componentType":5126,
			"count":125,
			"type":"VEC3"
		},
		{
			"bufferView":67,
			"componentType":5126,
			"count":125,
			"type":"VEC2"
		},
		{
			"bufferView":68,
			"componentType":5126,
			"count":125,
			"type":"VEC4"
		},
		{
			"bufferView":69,
			"componentType":5123,
			"count":576,
			"type":"SCALAR"
		},
		{
			"bufferView":70,
			"componentType":5126,
			"count":125,
			"max":[
				2.1654489040374756,
				23.901716232299805,
				2.1954638957977295
			],
			"min":[
				-1.3080674409866333,
				-39.94804763793945,
				-2.1945650577545166
			],
			"type":"VEC3"
		},
		{
			"bufferView":71,
			"componentType":5126,
			"count":125,
			"type":"VEC3"
		},
		{
			"bufferView":72,
			"componentType":5126,
			"count":125,
			"type":"VEC2"
		},
		{
			"bufferView":73,
			"componentType":5126,
			"count":125,
			"type":"VEC4"
		},
		{
			"bufferView":74,
			"componentType":5126,
			"count":445,
			"max":[
				36.52130126953125,
				-1,
				38.51359939575195
			],
			"min":[
				-29.806245803833008,
				-1,
				-37.0881233215332
			],
			"type":"VEC3"
		},
		{
			"bufferView":75,
			"componentType":5126,
			"count":445,
			"type":"VEC3"
		},
		{
			"bufferView":76,
			"componentType":5126,
			"count":445,
			"type":"VEC2"
		},
		{
			"bufferView":77,
			"componentType":5126,
			"count":445,
			"type":"VEC4"
		},
		{
			"bufferView":78,
			"componentType":5123,
			"count":1344,
			"type":"SCALAR"
		},
		{
			"bufferView":79,
			"componentType":5126,
			"count":402,
			"max":[
				25.89361572265625,
				-1,
				27.445072174072266
			],
			"min":[
				-26.289169311523438,
				-1,
				-55.417083740234375
			],
			"type":"VEC3"
		},
		{
			"bufferView":80,
			"componentType":5126,
			"count":402,
			"type":"VEC3"
		},
		{
			"bufferView":81,
			"componentType":5126,
			"count":402,
			"type":"VEC2"
		},
		{
			"bufferView":82,
			"componentType":5126,
			"count":402,
			"type":"VEC4"
		},
		{
			"bufferView":83,
			"componentType":5123,
			"count":1386,
			"type":"SCALAR"
		},
		{
			"bufferView":84,
			"componentType":5126,
			"count":450,
			"max":[
				32.85020446777344,
				-1,
				30.919757843017578
			],
			"min":[
				-45.99869155883789,
				-1,
				-29.319034576416016
			],
			"type":"VEC3"
		},
		{
			"bufferView":85,
			"componentType":5126,
			"count":450,
			"type":"VEC3"
		},
		{
			"bufferView":86,
			"componentType":5126,
			"count":450,
			"type":"VEC2"
		},
		{
			"bufferView":87,
			"componentType":5126,
			"count":450,
			"type":"VEC4"
		},
		{
			"bufferView":88,
			"componentType":5123,
			"count":1344,
			"type":"SCALAR"
		},
		{
			"bufferView":89,
			"componentType":5126,
			"count":397,
			"max":[
				24.367860794067383,
				-1,
				20.020444869995117
			],
			"min":[
				-23.41853141784668,
				-1,
				-20.33853530883789
			],
			"type":"VEC3"
		},
		{
			"bufferView":90,
			"componentType":5126,
			"count":397,
			"type":"VEC3"
		},
		{
			"bufferView":91,
			"componentType":5126,
			"count":397,
			"type":"VEC2"
		},
		{
			"bufferView":92,
			"componentType":5126,
			"count":397,
			"type":"VEC4"
		},
		{
			"bufferView":93,
			"componentType":5123,
			"count":1344,
			"type":"SCALAR"
		},
		{
			"bufferView":94,
			"componentType":5126,
			"count":453,
			"max":[
				15.898168563842773,
				-1,
				16.32935333251953
			],
			"min":[
				-15.898173332214355,
				-1,
				-16.329347610473633
			],
			"type":"VEC3"
		},
		{
			"bufferView":95,
			"componentType":5126,
			"count":453,
			"type":"VEC3"
		},
		{
			"bufferView":96,
			"componentType":5126,
			"count":453,
			"type":"VEC2"
		},
		{
			"bufferView":97,
			"componentType":5126,
			"count":453,
			"type":"VEC4"
		},
		{
			"bufferView":98,
			"componentType":5123,
			"count":1344,
			"type":"SCALAR"
		},
		{
			"bufferView":99,
			"componentType":5126,
			"count":337,
			"max":[
				10.75200080871582,
				-1,
				10.752001762390137
			],
			"min":[
				-10.75200080871582,
				-1,
				-10.751998901367188
			],
			"type":"VEC3"
		},
		{
			"bufferView":100,
			"componentType":5126,
			"count":337,
			"type":"VEC3"
		},
		{
			"bufferView":101,
			"componentType":5126,
			"count":337,
			"type":"VEC2"
		},
		{
			"bufferView":102,
			"componentType":5126,
			"count":337,
			"type":"VEC4"
		},
		{
			"bufferView":103,
			"componentType":5123,
			"count":1344,
			"type":"SCALAR"
		},
		{
			"bufferView":104,
			"componentType":5126,
			"count":358,
			"max":[
				14.699999809265137,
				-1,
				14.699999809265137
			],
			"min":[
				-14.699999809265137,
				-1,
				-14.699999809265137
			],
			"type":"VEC3"
		},
		{
			"bufferView":105,
			"componentType":5126,
			"count":358,
			"type":"VEC3"
		},
		{
			"bufferView":106,
			"componentType":5126,
			"count":358,
			"type":"VEC2"
		},
		{
			"bufferView":107,
			"componentType":5126,
			"count":358,
			"type":"VEC4"
		},
		{
			"bufferView":108,
			"componentType":5123,
			"count":1344,
			"type":"SCALAR"
		}
	],
	"bufferViews":[
		{
			"buffer":0,
			"byteLength":8844,
			"byteOffset":0,
			"target":34962
		},
		{
			"buffer":0,
			"byteLength":8844,
			"byteOffset":8844,
			"target":34962
		},
		{
			"buffer":0,
			"byteLength":5896,
			"byteOffset":17688,
			"target":34962
		},
		{
			"buffer":0,
			"byteLength":11792,
			"byteOffset":23584,
			"target":34962
		},
		{
			"buffer":0,
			"byteLength":2688,
			"byteOffset":35376,
			"target":34963
		},
		{
			"buffer":0,
			"byteLength":8568,
			"byteOffset":38064,
			"target":34962
		},
		{
			"buffer":0,
			"byteLength":8568,
			"byteOffset":46632,
			"target":34962
		},
		{
			"buffer":0,
			"byteLength":5712,
			"byteOffset":55200,
			"target":34962
		},
		{
			"buffer":0,
			"byteLength":11424,
			"byteOffset":60912,
			"target":34962
		},
		{
			"buffer":0,
			"byteLength":2688,
			"byteOffset":72336,
			"target":34963
		},
		{
			"buffer":0,
			"byteLength":7896,
			"byteOffset":75024,
			"target":34962
		},
		{
			"buffer":0,
			"byteLength":7896,
			"byteOffset":82920,
			"target":34962
		},
		{
			"buffer":0,
			"byteLength":5264,
			"byteOffset":90816,
			"target":34962
		},
		{
			"buffer":0,
			"byteLength":10528,
			"byteOffset":96080,
			"target":34962
		},
		{
			"buffer":0,
			"byteLength":3084,
			"byteOffset":106608,
			"target":34963
		},
		{
			"buffer":0,
			"byteLength":7896,
			"byteOffset":109692,
			"target":34962
		},
		{
			"buffer":0,
			"byteLength":7896,
			"byteOffset":117588,
			"target":34962
		},
		{
			"buffer":0,
			"byteLength":5264,
			"byteOffset":125484,
			"target":34962
		},
		{
			"buffer":0,
			"byteLength":10528,
			"byteOffset":130748,
			"target":34962
		},
		{
			"buffer":0,
			"byteLength":3084,
			"byteOffset":141276,
			"target":34963
		},
		{
			"buffer":0,
			"byteLength":8532,
			"byteOffset":144360,
			"target":34962
		},
		{
			"buffer":0,
			"byteLength":8532,
			"byteOffset":152892,
			"target":34962
		},
		{
			"buffer":0,
			"byteLength":5688,
			"byteOffset":161424,
			"target":34962
		},
		{
			"buffer":0,
			"byteLength":11376,
			"byteOffset":167112,
			"target":34962
		},
		{
			"buffer":0,
			"byteLength":2688,
			"byteOffset":178488,
			"target":34963
		},
		{
			"buffer":0,
			"byteLength":8832,
			"byteOffset":181176,
			"target":34962
		},
		{
			"buffer":0,
			"byteLength":8832,
			"byteOffset":190008,
			"target":34962
		},
		{
			"buffer":0,
			"byteLength":5888,
			"byteOffset":198840,
			"target":34962
		},
		{
			"buffer":0,
			"byteLength":11776,
			"byteOffset":204728,
			"target":34962
		},
		{
			"buffer":0,
			"byteLength":2688,
			"byteOffset":216504,
			"target":34963
		},
		{
			"buffer":0,
			"byteLength":4116,
			"byteOffset":219192,
			"target":34962
		},
		{
			"buffer":0,
			"byteLength":4116,
			"byteOffset":223308,
			"target":34962
		},
		{
			"buffer":0,
			"byteLength":2744,
			"byteOffset":227424,
			"target":34962
		},
		{
			"buffer":0,
			"byteLength":5488,
			"byteOffset":230168,
			"target":34962
		},
		{
			"buffer":0,
			"byteLength":3072,
			"byteOffset":235656,
			"target":34963
		},
		{
			"buffer":0,
			"byteLength":4116,
			"byteOffset":238728,
			"target":34962
		},
		{
			"buffer":0,
			"byteLength":4116,
			"byteOffset":242844,
			"target":34962
		},
		{
			"buffer":0,
			"byteLength":2744,
			"byteOffset":246960,
			"target":34962
		},
		{
			"buffer":0,
			"byteLength":5488,
			"byteOffset":249704,
			"target":34962
		},
		{
			"buffer":0,
			"byteLength":3072,
			"byteOffset":255192,
			"target":34963
		},
		{
			"buffer":0,
			"byteLength":3672,
			"byteOffset":258264,
			"target":34962
		},
		{
			"buffer":0,
			"byteLength":3672,
			"byteOffset":261936,
			"target":34962
		},
		{
			"buffer":0,
			"byteLength":2448,
			"byteOffset":265608,
			"target":34962
		},
		{
			"buffer":0,
			"byteLength":4896,
			"byteOffset":268056,
			"target":34962
		},
		{
			"buffer":0,
			"byteLength":924,
			"byteOffset":272952,
			"target":34963
		},
		{
			"buffer":0,
			"byteLength":2400,
			"byteOffset":273876,
			"target":34962
		},
		{
			"buffer":0,
			"byteLength":2400,
			"byteOffset":276276,
			"target":34962
		},
		{
			"buffer":0,
			"byteLength":1600,
			"byteOffset":278676,
			"target":34962
		},
		{
			"buffer":0,
			"byteLength":3200,
			"byteOffset":280276,
			"target":34962
		},
		{
			"buffer":0,
			"byteLength":1728,
			"byteOffset":283476,
			"target":34963
		},
		{
			"buffer":0,
			"byteLength":1440,
			"byteOffset":285204,
			"target":34962
		},
		{
			"buffer":0,
			"byteLength":1440,
			"byteOffset":286644,
			"target":34962
		},
		{
			"buffer":0,
			"byteLength":960,
			"byteOffset":288084,
			"target":34962
		},
		{
			"buffer":0,
			"byteLength":1920,
			"byteOffset":289044,
			"target":34962
		},
		{
			"buffer":0,
			"byteLength":864,
			"byteOffset":290964,
			"target":34963
		},
		{
			"buffer":0,
			"byteLength":1440,
			"byteOffset":291828,
			"target":34962
		},
		{
			"buffer":0,
			"byteLength":1440,
			"byteOffset":293268,
			"target":34962
		},
		{
			"buffer":0,
			"byteLength":960,
			"byteOffset":294708,
			"target":34962
		},
		{
			"buffer":0,
			"byteLength":1920,
			"byteOffset":295668,
			"target":34962
		},
		{
			"buffer":0,
			"byteLength":1056,
			"byteOffset":297588,
			"target":34963
		},
		{
			"buffer":0,
			"byteLength":864,
			"byteOffset":298644,
			"target":34962
		},
		{
			"buffer":0,
			"byteLength":864,
			"byteOffset":299508,
			"target":34962
		},
		{
			"buffer":0,
			"byteLength":576,
			"byteOffset":300372,
			"target":34962
		},
		{
			"buffer":0,
			"byteLength":1152,
			"byteOffset":300948,
			"target":34962
		},
		{
			"buffer":0,
			"byteLength":528,
			"byteOffset":302100,
			"target":34963
		},
		{
			"buffer":0,
			"byteLength":1500,
			"byteOffset":302628,
			"target":34962
		},
		{
			"buffer":0,
			"byteLength":1500,
			"byteOffset":304128,
			"target":34962
		},
		{
			"buffer":0,
			"byteLength":1000,
			"byteOffset":305628,
			"target":34962
		},
		{
			"buffer":0,
			"byteLength":2000,
			"byteOffset":306628,
			"target":34962
		},
		{
			"buffer":0,
			"byteLength":1152,
			"byteOffset":308628,
			"target":34963
		},
		{
			"buffer":0,
			"byteLength":1500,
			"byteOffset":309780,
			"target":34962
		},
		{
			"buffer":0,
			"byteLength":1500,
			"byteOffset":311280,
			"target":34962
		},
		{
			"buffer":0,
			"byteLength":1000,
			"byteOffset":312780,
			"target":34962
		},
		{
			"buffer":0,
			"byteLength":2000,
			"byteOffset":313780,
			"target":34962
		},
		{
			"buffer":0,
			"byteLength":5340,
			"byteOffset":315780,
			"target":34962
		},
		{
			"buffer":0,
			"byteLength":5340,
			"byteOffset":321120,
			"target":34962
		},
		{
			"buffer":0,
			"byteLength":3560,
			"byteOffset":326460,
			"target":34962
		},
		{
			"buffer":0,
			"byteLength":7120,
			"byteOffset":330020,
			"target":34962
		},
		{
			"buffer":0,
			"byteLength":2688,
			"byteOffset":337140,
			"target":34963
		},
		{
			"buffer":0,
			"byteLength":4824,
			"byteOffset":339828,
			"target":34962
		},
		{
			"buffer":0,
			"byteLength":4824,
			"byteOffset":344652,
			"target":34962
		},
		{
			"buffer":0,
			"byteLength":3216,
			"byteOffset":349476,
			"target":34962
		},
		{
			"buffer":0,
			"byteLength":6432,
			"byteOffset":352692,
			"target":34962
		},
		{
			"buffer":0,
			"byteLength":2772,
			"byteOffset":359124,
			"target":34963
		},
		{
			"buffer":0,
			"byteLength":5400,
			"byteOffset":361896,
			"target":34962
		},
		{
			"buffer":0,
			"byteLength":5400,
			"byteOffset":367296,
			"target":34962
		},
		{
			"buffer":0,
			"byteLength":3600,
			"byteOffset":372696,
			"target":34962
		},
		{
			"buffer":0,
			"byteLength":7200,
			"byteOffset":376296,
			"target":34962
		},
		{
			"buffer":0,
			"byteLength":2688,
			"byteOffset":383496,
			"target":34963
		},
		{
			"buffer":0,
			"byteLength":4764,
			"byteOffset":386184,
			"target":34962
		},
		{
			"buffer":0,
			"byteLength":4764,
			"byteOffset":390948,
			"target":34962
		},
		{
			"buffer":0,
			"byteLength":3176,
			"byteOffset":395712,
			"target":34962
		},
		{
			"buffer":0,
			"byteLength":6352,
			"byteOffset":398888,
			"target":34962
		},
		{
			"buffer":0,
			"byteLength":2688,
			"byteOffset":405240,
			"target":34963
		},
		{
			"buffer":0,
			"byteLength":5436,
			"byteOffset":407928,
			"target":34962
		},
		{
			"buffer":0,
			"byteLength":5436,
			"byteOffset":413364,
			"target":34962
		},
		{
			"buffer":0,
			"byteLength":3624,
			"byteOffset":418800,
			"target":34962
		},
		{
			"buffer":0,
			"byteLength":7248,
			"byteOffset":422424,
			"target":34962
		},
		{
			"buffer":0,
			"byteLength":2688,
			"byteOffset":429672,
			"target":34963
		},
		{
			"buffer":0,
			"byteLength":4044,
			"byteOffset":432360,
			"target":34962
		},
		{
			"buffer":0,
			"byteLength":4044,
			"byteOffset":436404,
			"target":34962
		},
		{
			"buffer":0,
			"byteLength":2696,
			"byteOffset":440448,
			"target":34962
		},
		{
			"buffer":0,
			"byteLength":5392,
			"byteOffset":443144,
			"target":34962
		},
		{
			"buffer":0,
			"byteLength":2688,
			"byteOffset":448536,
			"target":34963
		},
		{
			"buffer":0,
			"byteLength":4296,
			"byteOffset":451224,
			"target":34962
		},
		{
			"buffer":0,
			"byteLength":4296,
			"byteOffset":455520,
			"target":34962
		},
		{
			"buffer":0,
			"byteLength":2864,
			"byteOffset":459816,
			"target":34962
		},
		{
			"buffer":0,
			"byteLength":5728,
			"byteOffset":462680,
			"target":34962
		},
		{
			"buffer":0,
			"byteLength":2688,
			"byteOffset":468408,
			"target":34963
		}
	],
	"samplers":[
		{
			"magFilter":9729,
			"minFilter":9987
		}
	],
	"buffers":[
		{
			"byteLength":471096,
			"uri":"level_2_water_thinner_simpler_applied.bin"
		}
	]
}
