{
	"asset":{
		"generator":"Khronos glTF Blender I/O v4.5.48",
		"version":"2.0"
	},
	"scene":0,
	"scenes":[
		{
			"name":"Scene",
			"nodes":[
				40,
				48
			]
		}
	],
	"nodes":[
		{
			"mesh":0,
			"name":"water_level_2_base"
		},
		{
			"mesh":1,
			"name":"foam_cone_spray_2",
			"translation":[
				-47.76126480102539,
				20.48116683959961,
				-77.29869079589844
			]
		},
		{
			"mesh":2,
			"name":"foam_placed_shape_3",
			"translation":[
				-47.76126480102539,
				20.48116683959961,
				-77.29869079589844
			]
		},
		{
			"mesh":3,
			"name":"foam_placed_shape_4",
			"translation":[
				-47.76126480102539,
				20.48116683959961,
				-77.29869079589844
			]
		},
		{
			"mesh":4,
			"name":"foam_placed_shape_7",
			"translation":[
				-47.76126480102539,
				20.48116683959961,
				-77.29869079589844
			]
		},
		{
			"mesh":5,
			"name":"foam_river_2",
			"translation":[
				-47.76126480102539,
				20.48116683959961,
				-77.29869079589844
			]
		},
		{
			"mesh":6,
			"name":"foam_river_2_thin",
			"translation":[
				-47.76126480102539,
				20.48116683959961,
				-77.29869079589844
			]
		},
		{
			"mesh":7,
			"name":"highlight_river_2_1",
			"translation":[
				-47.76126480102539,
				20.48116683959961,
				-77.29869079589844
			]
		},
		{
			"mesh":8,
			"name":"highlight_river_2_2",
			"translation":[
				-47.76126480102539,
				20.48116683959961,
				-77.29869079589844
			]
		},
		{
			"mesh":9,
			"name":"rock_placeholder_1",
			"translation":[
				-47.76126480102539,
				20.48116683959961,
				-77.29869079589844
			]
		},
		{
			"children":[
				1,
				2,
				3,
				4,
				5,
				6,
				7,
				8,
				9
			],
			"mesh":10,
			"name":"water_river_2"
		},
		{
			"mesh":11,
			"name":"foam_cone_spray_1",
			"translation":[
				-62.36750793457031,
				29.462188720703125,
				-155.4263458251953
			]
		},
		{
			"mesh":12,
			"name":"foam_placed_shape_1",
			"translation":[
				-62.36750793457031,
				29.462188720703125,
				-155.4263458251953
			]
		},
		{
			"mesh":13,
			"name":"foam_placed_shape_2",
			"translation":[
				-62.36750793457031,
				29.462188720703125,
				-155.4263458251953
			]
		},
		{
			"mesh":14,
			"name":"foam_placed_shape_6",
			"translation":[
				-62.36750793457031,
				29.462188720703125,
				-155.4263458251953
			]
		},
		{
			"mesh":15,
			"name":"foam_river_split",
			"translation":[
				-62.36750793457031,
				29.462188720703125,
				-155.4263458251953
			]
		},
		{
			"mesh":16,
			"name":"foam_river_split_thin",
			"translation":[
				-62.36750793457031,
				29.462188720703125,
				-155.4263458251953
			]
		},
		{
			"mesh":17,
			"name":"highlight_river_split_1",
			"translation":[
				-62.36750793457031,
				29.462188720703125,
				-155.4263458251953
			]
		},
		{
			"mesh":18,
			"name":"highlight_river_split_2",
			"translation":[
				-62.36750793457031,
				29.462188720703125,
				-155.4263458251953
			]
		},
		{
			"mesh":19,
			"name":"highlight_river_split_3",
			"translation":[
				-62.36750793457031,
				29.462188720703125,
				-155.4263458251953
			]
		},
		{
			"mesh":20,
			"name":"highlight_river_split_4",
			"translation":[
				-62.36750793457031,
				29.462188720703125,
				-155.4263458251953
			]
		},
		{
			"mesh":21,
			"name":"highlight_river_split_5",
			"translation":[
				-62.36750793457031,
				29.462188720703125,
				-155.4263458251953
			]
		},
		{
			"mesh":22,
			"name":"highlight_river_split_6",
			"translation":[
				-62.36750793457031,
				29.462188720703125,
				-155.4263458251953
			]
		},
		{
			"mesh":23,
			"name":"rock_placeholder_2",
			"translation":[
				-62.36750793457031,
				29.462188720703125,
				-155.4263458251953
			]
		},
		{
			"children":[
				11,
				12,
				13,
				14,
				15,
				16,
				17,
				18,
				19,
				20,
				21,
				22,
				23
			],
			"mesh":24,
			"name":"water_river_split"
		},
		{
			"mesh":25,
			"name":"foam_cone_spray_3",
			"translation":[
				-95.90452575683594,
				11.455703735351562,
				-97.87637329101562
			]
		},
		{
			"mesh":26,
			"name":"foam_placed_shape_5",
			"translation":[
				-95.90452575683594,
				11.455703735351562,
				-97.87637329101562
			]
		},
		{
			"mesh":27,
			"name":"foam_waterfall_1",
			"translation":[
				-95.90452575683594,
				11.455703735351562,
				-97.87637329101562
			]
		},
		{
			"mesh":28,
			"name":"foam_waterfall_1_thin",
			"translation":[
				-95.90452575683594,
				11.455703735351562,
				-97.87637329101562
			]
		},
		{
			"mesh":29,
			"name":"highlight_waterfall_1",
			"translation":[
				-95.90452575683594,
				11.455703735351562,
				-97.87637329101562
			]
		},
		{
			"mesh":30,
			"name":"rock_placeholder_3",
			"translation":[
				-95.90452575683594,
				11.455703735351562,
				-97.87637329101562
			]
		},
		{
			"children":[
				25,
				26,
				27,
				28,
				29,
				30
			],
			"mesh":31,
			"name":"water_waterfall_1"
		},
		{
			"mesh":32,
			"name":"foam_waterfall_2",
			"translation":[
				-83.79756164550781,
				7.679875373840332,
				-147.2769317626953
			]
		},
		{
			"mesh":33,
			"name":"foam_waterfall_2_thin",
			"translation":[
				-83.79756164550781,
				7.679875373840332,
				-147.2769317626953
			]
		},
		{
			"mesh":34,
			"name":"highlight_waterfall_2",
			"translation":[
				-83.79756164550781,
				7.679875373840332,
				-147.2769317626953
			]
		},
		{
			"children":[
				32,
				33,
				34
			],
			"mesh":35,
			"name":"water_waterfall_2"
		},
		{
			"mesh":36,
			"name":"foam_waterfall_background",
			"translation":[
				-107.38927459716797,
				27.6177978515625,
				-40.94995880126953
			]
		},
		{
			"mesh":37,
			"name":"foam_waterfall_background_thin",
			"translation":[
				-107.38927459716797,
				27.6177978515625,
				-40.94995880126953
			]
		},
		{
			"mesh":38,
			"name":"highlight_waterfall_background",
			"translation":[
				-107.38927459716797,
				27.6177978515625,
				-40.94995880126953
			]
		},
		{
			"children":[
				36,
				37,
				38
			],
			"mesh":39,
			"name":"water_waterfall_background"
		},
		{
			"children":[
				0,
				10,
				24,
				31,
				35,
				39
			],
			"name":"water_level_2"
		},
		{
			"mesh":40,
			"name":"foam_island_shape_1",
			"rotation":[
				0,
				-0.9659258723258972,
				0,
				0.25881895422935486
			],
			"scale":[
				1.2680485248565674,
				1.2680484056472778,
				1.2680485248565674
			],
			"translation":[
				-81.26795959472656,
				3.339057445526123,
				-371.6640319824219
			]
		},
		{
			"mesh":41,
			"name":"foam_island_shape_2",
			"rotation":[
				0,
				-0.9659258723258972,
				0,
				0.25881895422935486
			],
			"scale":[
				1.2680485248565674,
				1.2680484056472778,
				1.2680485248565674
			],
			"translation":[
				-0.919619083404541,
				3.339057445526123,
				-321.9245910644531
			]
		},
		{
			"mesh":42,
			"name":"foam_island_shape_3",
			"rotation":[
				0,
				-0.9659258723258972,
				0,
				0.25881895422935486
			],
			"scale":[
				1.2680485248565674,
				1.2680484056472778,
				1.2680485248565674
			],
			"translation":[
				116.57682800292969,
				3.339057445526123,
				-237.43011474609375
			]
		},
		{
			"mesh":43,
			"name":"foam_island_shape_4",
			"rotation":[
				0,
				-0.9659258723258972,
				0,
				0.25881895422935486
			],
			"scale":[
				1.2680485248565674,
				1.2680484056472778,
				1.2680485248565674
			],
			"translation":[
				113.57159423828125,
				3.339057445526123,
				-153.78436279296875
			]
		},
		{
			"mesh":44,
			"name":"foam_shape_generic_square",
			"rotation":[
				0,
				-0.5,
				0,
				0.8660253882408142
			],
			"translation":[
				0,
				1.0453037023544312,
				-150
			]
		},
		{
			"mesh":45,
			"name":"foam_shape_tutorial_1",
			"rotation":[
				0,
				-0.5,
				0,
				0.8660253882408142
			],
			"translation":[
				0,
				1.0453037023544312,
				-100
			]
		},
		{
			"mesh":46,
			"name":"foam_shape_tutorial_2",
			"translation":[
				0,
				1.0453037023544312,
				-100
			]
		},
		{
			"children":[
				41,
				42,
				43,
				44,
				45,
				46,
				47
			],
			"name":"extra_foam_bits"
		}
	],
	"materials":[
		{
			"doubleSided":true,
			"emissiveFactor":[
				1,
				1,
				1
			],
			"emissiveTexture":{
				"index":0
			},
			"name":"m_water_floor",
			"pbrMetallicRoughness":{
				"baseColorFactor":[
					0,
					0,
					0,
					1
				],
				"metallicFactor":0
			}
		},
		{
			"alphaMode":"BLEND",
			"doubleSided":true,
			"emissiveFactor":[
				1,
				1,
				1
			],
			"emissiveTexture":{
				"index":1
			},
			"name":"m_water_foam_splash",
			"pbrMetallicRoughness":{
				"baseColorFactor":[
					0,
					0,
					0,
					1
				],
				"baseColorTexture":{
					"index":2
				},
				"metallicFactor":0
			}
		},
		{
			"alphaMode":"BLEND",
			"doubleSided":true,
			"emissiveFactor":[
				1,
				1,
				1
			],
			"emissiveTexture":{
				"index":3
			},
			"name":"m_water_foam_radial",
			"pbrMetallicRoughness":{
				"baseColorFactor":[
					0,
					0,
					0,
					1
				],
				"baseColorTexture":{
					"index":4
				},
				"metallicFactor":0
			}
		},
		{
			"alphaMode":"BLEND",
			"doubleSided":true,
			"emissiveFactor":[
				1,
				1,
				1
			],
			"emissiveTexture":{
				"index":5
			},
			"name":"m_water_foam",
			"pbrMetallicRoughness":{
				"baseColorFactor":[
					0,
					0,
					0,
					1
				],
				"baseColorTexture":{
					"index":6
				},
				"metallicFactor":0
			}
		},
		{
			"alphaMode":"BLEND",
			"doubleSided":true,
			"emissiveFactor":[
				1,
				1,
				1
			],
			"emissiveTexture":{
				"index":7
			},
			"name":"m_water_foam_shifted",
			"pbrMetallicRoughness":{
				"baseColorFactor":[
					0,
					0,
					0,
					1
				],
				"baseColorTexture":{
					"index":8
				},
				"metallicFactor":0
			}
		},
		{
			"alphaMode":"BLEND",
			"doubleSided":true,
			"name":"m_water_shine",
			"pbrMetallicRoughness":{
				"baseColorTexture":{
					"index":9
				},
				"metallicFactor":0,
				"roughnessFactor":0.5
			}
		},
		{
			"doubleSided":true,
			"name":"M_Temple_Floors",
			"pbrMetallicRoughness":{
				"baseColorFactor":[
					0.01190925482660532,
					0.01190925482660532,
					0.01190925482660532,
					1
				],
				"metallicFactor":0
			}
		},
		{
			"doubleSided":true,
			"emissiveFactor":[
				1,
				1,
				1
			],
			"emissiveTexture":{
				"index":10
			},
			"name":"m_water",
			"pbrMetallicRoughness":{
				"baseColorFactor":[
					0,
					0,
					0,
					1
				],
				"metallicFactor":0
			}
		},
		{
			"doubleSided":true,
			"name":"M_Temple_Floors.001",
			"pbrMetallicRoughness":{
				"baseColorFactor":[
					0.01190925482660532,
					0.01190925482660532,
					0.01190925482660532,
					1
				],
				"metallicFactor":0
			}
		},
		{
			"doubleSided":true,
			"name":"Material",
			"pbrMetallicRoughness":{
				"baseColorFactor":[
					0.1178334504365921,
					0.1178334504365921,
					0.1178334504365921,
					1
				],
				"metallicFactor":0
			}
		}
	],
	"meshes":[
		{
			"name":"Plane.005",
			"primitives":[
				{
					"attributes":{
						"POSITION":0,
						"NORMAL":1,
						"TEXCOORD_0":2,
						"TANGENT":3
					},
					"indices":4,
					"material":0
				}
			]
		},
		{
			"name":"Cylinder.004",
			"primitives":[
				{
					"attributes":{
						"POSITION":5,
						"NORMAL":6,
						"TEXCOORD_0":7,
						"TANGENT":8
					},
					"indices":9,
					"material":1
				}
			]
		},
		{
			"name":"Cylinder.008",
			"primitives":[
				{
					"attributes":{
						"POSITION":10,
						"NORMAL":11,
						"TEXCOORD_0":12,
						"TANGENT":13
					},
					"indices":14,
					"material":2
				}
			]
		},
		{
			"name":"Cylinder.009",
			"primitives":[
				{
					"attributes":{
						"POSITION":15,
						"NORMAL":16,
						"TEXCOORD_0":17,
						"TANGENT":18
					},
					"indices":19,
					"material":2
				}
			]
		},
		{
			"name":"Cylinder.005",
			"primitives":[
				{
					"attributes":{
						"POSITION":20,
						"NORMAL":21,
						"TEXCOORD_0":22,
						"TANGENT":23
					},
					"indices":24,
					"material":2
				}
			]
		},
		{
			"name":"Plane.002",
			"primitives":[
				{
					"attributes":{
						"POSITION":25,
						"NORMAL":26,
						"TEXCOORD_0":27,
						"TANGENT":28
					},
					"indices":29,
					"material":3
				}
			]
		},
		{
			"name":"Plane.040",
			"primitives":[
				{
					"attributes":{
						"POSITION":30,
						"NORMAL":31,
						"TEXCOORD_0":32,
						"TANGENT":33
					},
					"indices":34,
					"material":4
				}
			]
		},
		{
			"name":"Plane.012",
			"primitives":[
				{
					"attributes":{
						"POSITION":35,
						"NORMAL":36,
						"TEXCOORD_0":37,
						"TANGENT":38
					},
					"indices":39,
					"material":5
				}
			]
		},
		{
			"name":"Plane.019",
			"primitives":[
				{
					"attributes":{
						"POSITION":40,
						"NORMAL":41,
						"TEXCOORD_0":42,
						"TANGENT":43
					},
					"indices":39,
					"material":5
				}
			]
		},
		{
			"name":"Cube.001",
			"primitives":[
				{
					"attributes":{
						"POSITION":44,
						"NORMAL":45,
						"TEXCOORD_0":46,
						"TANGENT":47
					},
					"indices":48,
					"material":6
				}
			]
		},
		{
			"name":"Plane.018",
			"primitives":[
				{
					"attributes":{
						"POSITION":49,
						"NORMAL":50,
						"TEXCOORD_0":51,
						"TANGENT":52
					},
					"indices":53,
					"material":7
				}
			]
		},
		{
			"name":"Cylinder.007",
			"primitives":[
				{
					"attributes":{
						"POSITION":54,
						"NORMAL":55,
						"TEXCOORD_0":56,
						"TANGENT":57
					},
					"indices":9,
					"material":1
				}
			]
		},
		{
			"name":"Cylinder.011",
			"primitives":[
				{
					"attributes":{
						"POSITION":58,
						"NORMAL":59,
						"TEXCOORD_0":60,
						"TANGENT":61
					},
					"indices":62,
					"material":2
				}
			]
		},
		{
			"name":"Cylinder.010",
			"primitives":[
				{
					"attributes":{
						"POSITION":63,
						"NORMAL":64,
						"TEXCOORD_0":65,
						"TANGENT":66
					},
					"indices":67,
					"material":2
				}
			]
		},
		{
			"name":"Cylinder.006",
			"primitives":[
				{
					"attributes":{
						"POSITION":68,
						"NORMAL":69,
						"TEXCOORD_0":70,
						"TANGENT":71
					},
					"indices":72,
					"material":2
				}
			]
		},
		{
			"name":"Plane.013",
			"primitives":[
				{
					"attributes":{
						"POSITION":73,
						"NORMAL":74,
						"TEXCOORD_0":75,
						"TANGENT":76
					},
					"indices":77,
					"material":3
				}
			]
		},
		{
			"name":"Plane.041",
			"primitives":[
				{
					"attributes":{
						"POSITION":78,
						"NORMAL":79,
						"TEXCOORD_0":80,
						"TANGENT":81
					},
					"indices":77,
					"material":4
				}
			]
		},
		{
			"name":"Plane.021",
			"primitives":[
				{
					"attributes":{
						"POSITION":82,
						"NORMAL":83,
						"TEXCOORD_0":84,
						"TANGENT":85
					},
					"indices":39,
					"material":5
				}
			]
		},
		{
			"name":"Plane.022",
			"primitives":[
				{
					"attributes":{
						"POSITION":86,
						"NORMAL":87,
						"TEXCOORD_0":88,
						"TANGENT":89
					},
					"indices":39,
					"material":5
				}
			]
		},
		{
			"name":"Plane.024",
			"primitives":[
				{
					"attributes":{
						"POSITION":90,
						"NORMAL":91,
						"TEXCOORD_0":92,
						"TANGENT":93
					},
					"indices":39,
					"material":5
				}
			]
		},
		{
			"name":"Plane.025",
			"primitives":[
				{
					"attributes":{
						"POSITION":94,
						"NORMAL":95,
						"TEXCOORD_0":96,
						"TANGENT":97
					},
					"indices":39,
					"material":5
				}
			]
		},
		{
			"name":"Plane.026",
			"primitives":[
				{
					"attributes":{
						"POSITION":98,
						"NORMAL":99,
						"TEXCOORD_0":100,
						"TANGENT":101
					},
					"indices":39,
					"material":5
				}
			]
		},
		{
			"name":"Plane.027",
			"primitives":[
				{
					"attributes":{
						"POSITION":102,
						"NORMAL":103,
						"TEXCOORD_0":104,
						"TANGENT":105
					},
					"indices":39,
					"material":5
				}
			]
		},
		{
			"name":"Cube.002",
			"primitives":[
				{
					"attributes":{
						"POSITION":106,
						"NORMAL":107,
						"TEXCOORD_0":108,
						"TANGENT":109
					},
					"indices":110,
					"material":8
				}
			]
		},
		{
			"name":"Plane.007",
			"primitives":[
				{
					"attributes":{
						"POSITION":111,
						"NORMAL":112,
						"TEXCOORD_0":113,
						"TANGENT":114
					},
					"indices":115,
					"material":7
				}
			]
		},
		{
			"name":"Cylinder",
			"primitives":[
				{
					"attributes":{
						"POSITION":116,
						"NORMAL":117,
						"TEXCOORD_0":118,
						"TANGENT":119
					},
					"indices":120,
					"material":1
				}
			]
		},
		{
			"name":"Cylinder.012",
			"primitives":[
				{
					"attributes":{
						"POSITION":121,
						"NORMAL":122,
						"TEXCOORD_0":123,
						"TANGENT":124
					},
					"indices":125,
					"material":2
				}
			]
		},
		{
			"name":"Plane.003",
			"primitives":[
				{
					"attributes":{
						"POSITION":126,
						"NORMAL":127,
						"TEXCOORD_0":128,
						"TANGENT":129
					},
					"indices":130,
					"material":3
				}
			]
		},
		{
			"name":"Plane.038",
			"primitives":[
				{
					"attributes":{
						"POSITION":131,
						"NORMAL":132,
						"TEXCOORD_0":133,
						"TANGENT":134
					},
					"indices":135,
					"material":4
				}
			]
		},
		{
			"name":"Plane.020",
			"primitives":[
				{
					"attributes":{
						"POSITION":136,
						"NORMAL":137,
						"TEXCOORD_0":138,
						"TANGENT":139
					},
					"indices":39,
					"material":5
				}
			]
		},
		{
			"name":"Sphere",
			"primitives":[
				{
					"attributes":{
						"POSITION":140,
						"NORMAL":141,
						"TEXCOORD_0":142,
						"TANGENT":143
					},
					"indices":144,
					"material":9
				}
			]
		},
		{
			"name":"Plane.016",
			"primitives":[
				{
					"attributes":{
						"POSITION":145,
						"NORMAL":146,
						"TEXCOORD_0":147,
						"TANGENT":148
					},
					"indices":149,
					"material":7
				}
			]
		},
		{
			"name":"Plane.004",
			"primitives":[
				{
					"attributes":{
						"POSITION":150,
						"NORMAL":151,
						"TEXCOORD_0":152,
						"TANGENT":153
					},
					"indices":154,
					"material":3
				}
			]
		},
		{
			"name":"Plane.043",
			"primitives":[
				{
					"attributes":{
						"POSITION":155,
						"NORMAL":156,
						"TEXCOORD_0":157,
						"TANGENT":158
					},
					"indices":159,
					"material":4
				}
			]
		},
		{
			"name":"Plane.023",
			"primitives":[
				{
					"attributes":{
						"POSITION":160,
						"NORMAL":161,
						"TEXCOORD_0":162,
						"TANGENT":163
					},
					"indices":39,
					"material":5
				}
			]
		},
		{
			"name":"Plane.014",
			"primitives":[
				{
					"attributes":{
						"POSITION":164,
						"NORMAL":165,
						"TEXCOORD_0":166,
						"TANGENT":167
					},
					"indices":154,
					"material":7
				}
			]
		},
		{
			"name":"Plane.009",
			"primitives":[
				{
					"attributes":{
						"POSITION":168,
						"NORMAL":169,
						"TEXCOORD_0":170,
						"TANGENT":171
					},
					"indices":172,
					"material":3
				}
			]
		},
		{
			"name":"Plane.044",
			"primitives":[
				{
					"attributes":{
						"POSITION":173,
						"NORMAL":174,
						"TEXCOORD_0":175,
						"TANGENT":176
					},
					"indices":172,
					"material":4
				}
			]
		},
		{
			"name":"Plane.011",
			"primitives":[
				{
					"attributes":{
						"POSITION":177,
						"NORMAL":178,
						"TEXCOORD_0":179,
						"TANGENT":180
					},
					"indices":39,
					"material":5
				}
			]
		},
		{
			"name":"Plane.006",
			"primitives":[
				{
					"attributes":{
						"POSITION":181,
						"NORMAL":182,
						"TEXCOORD_0":183,
						"TANGENT":184
					},
					"indices":172,
					"material":7
				}
			]
		},
		{
			"name":"Cylinder.013",
			"primitives":[
				{
					"attributes":{
						"POSITION":185,
						"NORMAL":186,
						"TEXCOORD_0":187,
						"TANGENT":188
					},
					"indices":189,
					"material":2
				}
			]
		},
		{
			"name":"Cylinder.014",
			"primitives":[
				{
					"attributes":{
						"POSITION":190,
						"NORMAL":191,
						"TEXCOORD_0":192,
						"TANGENT":193
					},
					"indices":194,
					"material":2
				}
			]
		},
		{
			"name":"Cylinder.015",
			"primitives":[
				{
					"attributes":{
						"POSITION":195,
						"NORMAL":196,
						"TEXCOORD_0":197,
						"TANGENT":198
					},
					"indices":199,
					"material":2
				}
			]
		},
		{
			"name":"Cylinder.016",
			"primitives":[
				{
					"attributes":{
						"POSITION":200,
						"NORMAL":201,
						"TEXCOORD_0":202,
						"TANGENT":203
					},
					"indices":204,
					"material":2
				}
			]
		},
		{
			"name":"Cylinder.003",
			"primitives":[
				{
					"attributes":{
						"POSITION":205,
						"NORMAL":206,
						"TEXCOORD_0":207,
						"TANGENT":208
					},
					"indices":209,
					"material":2
				}
			]
		},
		{
			"name":"Cylinder.001",
			"primitives":[
				{
					"attributes":{
						"POSITION":210,
						"NORMAL":211,
						"TEXCOORD_0":212,
						"TANGENT":213
					},
					"indices":214,
					"material":2
				}
			]
		},
		{
			"name":"Cylinder.002",
			"primitives":[
				{
					"attributes":{
						"POSITION":215,
						"NORMAL":216,
						"TEXCOORD_0":217,
						"TANGENT":218
					},
					"indices":219,
					"material":2
				}
			]
		}
	],
	"textures":[
		{
			"sampler":0,
			"source":0
		},
		{
			"sampler":0,
			"source":1
		},
		{
			"sampler":0,
			"source":2
		},
		{
			"sampler":0,
			"source":3
		},
		{
			"sampler":0,
			"source":4
		},
		{
			"sampler":0,
			"source":5
		},
		{
			"sampler":0,
			"source":6
		},
		{
			"sampler":0,
			"source":7
		},
		{
			"sampler":0,
			"source":8
		},
		{
			"sampler":0,
			"source":9
		},
		{
			"sampler":0,
			"source":10
		}
	],
	"images":[
		{
			"mimeType":"image/png",
			"name":"backdrop_6",
			"uri":"backdrop_6.png"
		},
		{
			"mimeType":"image/png",
			"name":"foam_splash",
			"uri":"foam_splash.png"
		},
		{
			"mimeType":"image/png",
			"name":"foam_splash",
			"uri":"foam_splash-1.png"
		},
		{
			"mimeType":"image/png",
			"name":"foam_5",
			"uri":"foam_5.png"
		},
		{
			"mimeType":"image/png",
			"name":"foam_5",
			"uri":"foam_5-1.png"
		},
		{
			"mimeType":"image/png",
			"name":"foam_3",
			"uri":"foam_3.png"
		},
		{
			"mimeType":"image/png",
			"name":"foam_3",
			"uri":"foam_3-1.png"
		},
		{
			"mimeType":"image/png",
			"name":"foam_4",
			"uri":"foam_4.png"
		},
		{
			"mimeType":"image/png",
			"name":"foam_4",
			"uri":"foam_4-1.png"
		},
		{
			"mimeType":"image/png",
			"name":"highlight",
			"uri":"highlight.png"
		},
		{
			"mimeType":"image/png",
			"name":"backdrop_5",
			"uri":"backdrop_5.png"
		}
	],
	"accessors":[
		{
			"bufferView":0,
			"componentType":5126,
			"count":484,
			"max":[
				187.07302856445312,
				11.112740516662598,
				187.07302856445312
			],
			"min":[
				-187.07302856445312,
				11.112738609313965,
				-187.07302856445312
			],
			"type":"VEC3"
		},
		{
			"bufferView":1,
			"componentType":5126,
			"count":484,
			"type":"VEC3"
		},
		{
			"bufferView":2,
			"componentType":5126,
			"count":484,
			"type":"VEC2"
		},
		{
			"bufferView":3,
			"componentType":5126,
			"count":484,
			"type":"VEC4"
		},
		{
			"bufferView":4,
			"componentType":5123,
			"count":2646,
			"type":"SCALAR"
		},
		{
			"bufferView":5,
			"componentType":5126,
			"count":490,
			"max":[
				60.34575653076172,
				-10.004838943481445,
				75.6323013305664
			],
			"min":[
				48.045692443847656,
				-17.93905258178711,
				64.6978988647461
			],
			"type":"VEC3"
		},
		{
			"bufferView":6,
			"componentType":5126,
			"count":490,
			"type":"VEC3"
		},
		{
			"bufferView":7,
			"componentType":5126,
			"count":490,
			"type":"VEC2"
		},
		{
			"bufferView":8,
			"componentType":5126,
			"count":490,
			"type":"VEC4"
		},
		{
			"bufferView":9,
			"componentType":5123,
			"count":2496,
			"type":"SCALAR"
		},
		{
			"bufferView":10,
			"componentType":5126,
			"count":737,
			"max":[
				57.888755798339844,
				-42.45656967163086,
				101.82978820800781
			],
			"min":[
				37.109920501708984,
				-42.45656967163086,
				81.22764587402344
			],
			"type":"VEC3"
		},
		{
			"bufferView":11,
			"componentType":5126,
			"count":737,
			"type":"VEC3"
		},
		{
			"bufferView":12,
			"componentType":5126,
			"count":737,
			"type":"VEC2"
		},
		{
			"bufferView":13,
			"componentType":5126,
			"count":737,
			"type":"VEC4"
		},
		{
			"bufferView":14,
			"componentType":5123,
			"count":1344,
			"type":"SCALAR"
		},
		{
			"bufferView":15,
			"componentType":5126,
			"count":714,
			"max":[
				52.76873016357422,
				-42.32963562011719,
				75.90179443359375
			],
			"min":[
				31.66707420349121,
				-42.32963562011719,
				56.53456115722656
			],
			"type":"VEC3"
		},
		{
			"bufferView":16,
			"componentType":5126,
			"count":714,
			"type":"VEC3"
		},
		{
			"bufferView":17,
			"componentType":5126,
			"count":714,
			"type":"VEC2"
		},
		{
			"bufferView":18,
			"componentType":5126,
			"count":714,
			"type":"VEC4"
		},
		{
			"bufferView":19,
			"componentType":5123,
			"count":1344,
			"type":"SCALAR"
		},
		{
			"bufferView":20,
			"componentType":5126,
			"count":761,
			"max":[
				61.846900939941406,
				-12.903706550598145,
				74.14997100830078
			],
			"min":[
				49.84550476074219,
				-12.903707504272461,
				63.791587829589844
			],
			"type":"VEC3"
		},
		{
			"bufferView":21,
			"componentType":5126,
			"count":761,
			"type":"VEC3"
		},
		{
			"bufferView":22,
			"componentType":5126,
			"count":761,
			"type":"VEC2"
		},
		{
			"bufferView":23,
			"componentType":5126,
			"count":761,
			"type":"VEC4"
		},
		{
			"bufferView":24,
			"componentType":5123,
			"count":1344,
			"type":"SCALAR"
		},
		{
			"bufferView":25,
			"componentType":5126,
			"count":658,
			"max":[
				62.28453063964844,
				-12.383866310119629,
				97.2401123046875
			],
			"min":[
				36.03853988647461,
				-47.10396957397461,
				61.17316818237305
			],
			"type":"VEC3"
		},
		{
			"bufferView":26,
			"componentType":5126,
			"count":658,
			"type":"VEC3"
		},
		{
			"bufferView":27,
			"componentType":5126,
			"count":658,
			"type":"VEC2"
		},
		{
			"bufferView":28,
			"componentType":5126,
			"count":658,
			"type":"VEC4"
		},
		{
			"bufferView":29,
			"componentType":5123,
			"count":1542,
			"type":"SCALAR"
		},
		{
			"bufferView":30,
			"componentType":5126,
			"count":658,
			"max":[
				62.28453063964844,
				-13.021390914916992,
				97.54693603515625
			],
			"min":[
				36.03853988647461,
				-47.084205627441406,
				61.4799919128418
			],
			"type":"VEC3"
		},
		{
			"bufferView":31,
			"componentType":5126,
			"count":658,
			"type":"VEC3"
		},
		{
			"bufferView":32,
			"componentType":5126,
			"count":658,
			"type":"VEC2"
		},
		{
			"bufferView":33,
			"componentType":5126,
			"count":658,
			"type":"VEC4"
		},
		{
			"bufferView":34,
			"componentType":5123,
			"count":1542,
			"type":"SCALAR"
		},
		{
			"bufferView":35,
			"componentType":5126,
			"count":4,
			"max":[
				37.11229705810547,
				-14.887615203857422,
				70.21923828125
			],
			"min":[
				35.92796325683594,
				-16.437639236450195,
				61.37881088256836
			],
			"type":"VEC3"
		},
		{
			"bufferView":36,
			"componentType":5126,
			"count":4,
			"type":"VEC3"
		},
		{
			"bufferView":37,
			"componentType":5126,
			"count":4,
			"type":"VEC2"
		},
		{
			"bufferView":38,
			"componentType":5126,
			"count":4,
			"type":"VEC4"
		},
		{
			"bufferView":39,
			"componentType":5123,
			"count":6,
			"type":"SCALAR"
		},
		{
			"bufferView":40,
			"componentType":5126,
			"count":4,
			"max":[
				44.14326095581055,
				-20.887165069580078,
				95.9096450805664
			],
			"min":[
				42.76266860961914,
				-22.26776123046875,
				85.60420989990234
			],
			"type":"VEC3"
		},
		{
			"bufferView":41,
			"componentType":5126,
			"count":4,
			"type":"VEC3"
		},
		{
			"bufferView":42,
			"componentType":5126,
			"count":4,
			"type":"VEC2"
		},
		{
			"bufferView":43,
			"componentType":5126,
			"count":4,
			"type":"VEC4"
		},
		{
			"bufferView":44,
			"componentType":5126,
			"count":24,
			"max":[
				60.10276412963867,
				-12.34901237487793,
				72.24598693847656
			],
			"min":[
				51.85062789916992,
				-15.182750701904297,
				65.179443359375
			],
			"type":"VEC3"
		},
		{
			"bufferView":45,
			"componentType":5126,
			"count":24,
			"type":"VEC3"
		},
		{
			"bufferView":46,
			"componentType":5126,
			"count":24,
			"type":"VEC2"
		},
		{
			"bufferView":47,
			"componentType":5126,
			"count":24,
			"type":"VEC4"
		},
		{
			"bufferView":48,
			"componentType":5123,
			"count":36,
			"type":"SCALAR"
		},
		{
			"bufferView":49,
			"componentType":5126,
			"count":658,
			"max":[
				14.523265838623047,
				7.3038835525512695,
				19.941421508789062
			],
			"min":[
				-11.571414947509766,
				-26.87948226928711,
				-16.12552261352539
			],
			"type":"VEC3"
		},
		{
			"bufferView":50,
			"componentType":5126,
			"count":658,
			"type":"VEC3"
		},
		{
			"bufferView":51,
			"componentType":5126,
			"count":658,
			"type":"VEC2"
		},
		{
			"bufferView":52,
			"componentType":5126,
			"count":658,
			"type":"VEC4"
		},
		{
			"bufferView":53,
			"componentType":5123,
			"count":1542,
			"type":"SCALAR"
		},
		{
			"bufferView":54,
			"componentType":5126,
			"count":490,
			"max":[
				63.143592834472656,
				-13.08336067199707,
				153.7152099609375
			],
			"min":[
				35.419010162353516,
				-31.887680053710938,
				125.53667449951172
			],
			"type":"VEC3"
		},
		{
			"bufferView":55,
			"componentType":5126,
			"count":490,
			"type":"VEC3"
		},
		{
			"bufferView":56,
			"componentType":5126,
			"count":490,
			"type":"VEC2"
		},
		{
			"bufferView":57,
			"componentType":5126,
			"count":490,
			"type":"VEC4"
		},
		{
			"bufferView":58,
			"componentType":5126,
			"count":732,
			"max":[
				84.83737182617188,
				-42.30442810058594,
				208.0145721435547
			],
			"min":[
				40.96400451660156,
				-42.30442810058594,
				164.99400329589844
			],
			"type":"VEC3"
		},
		{
			"bufferView":59,
			"componentType":5126,
			"count":732,
			"type":"VEC3"
		},
		{
			"bufferView":60,
			"componentType":5126,
			"count":732,
			"type":"VEC2"
		},
		{
			"bufferView":61,
			"componentType":5126,
			"count":732,
			"type":"VEC4"
		},
		{
			"bufferView":62,
			"componentType":5123,
			"count":1344,
			"type":"SCALAR"
		},
		{
			"bufferView":63,
			"componentType":5126,
			"count":739,
			"max":[
				72.9499282836914,
				-42.30970001220703,
				146.18008422851562
			],
			"min":[
				29.716814041137695,
				-42.30970001220703,
				103.19374084472656
			],
			"type":"VEC3"
		},
		{
			"bufferView":64,
			"componentType":5126,
			"count":739,
			"type":"VEC3"
		},
		{
			"bufferView":65,
			"componentType":5126,
			"count":739,
			"type":"VEC2"
		},
		{
			"bufferView":66,
			"componentType":5126,
			"count":739,
			"type":"VEC4"
		},
		{
			"bufferView":67,
			"componentType":5123,
			"count":1344,
			"type":"SCALAR"
		},
		{
			"bufferView":68,
			"componentType":5126,
			"count":578,
			"max":[
				66.10588836669922,
				-20.859848022460938,
				150.95286560058594
			],
			"min":[
				40.47624588012695,
				-20.85984992980957,
				122.65848541259766
			],
			"type":"VEC3"
		},
		{
			"bufferView":69,
			"componentType":5126,
			"count":578,
			"type":"VEC3"
		},
		{
			"bufferView":70,
			"componentType":5126,
			"count":578,
			"type":"VEC2"
		},
		{
			"bufferView":71,
			"componentType":5126,
			"count":578,
			"type":"VEC4"
		},
		{
			"bufferView":72,
			"componentType":5123,
			"count":1050,
			"type":"SCALAR"
		},
		{
			"bufferView":73,
			"componentType":5126,
			"count":343,
			"max":[
				120.3390121459961,
				-21.267107009887695,
				198.71536254882812
			],
			"min":[
				39.512840270996094,
				-52.76732635498047,
				114.68768310546875
			],
			"type":"VEC3"
		},
		{
			"bufferView":74,
			"componentType":5126,
			"count":343,
			"type":"VEC3"
		},
		{
			"bufferView":75,
			"componentType":5126,
			"count":343,
			"type":"VEC2"
		},
		{
			"bufferView":76,
			"componentType":5126,
			"count":343,
			"type":"VEC4"
		},
		{
			"bufferView":77,
			"componentType":5123,
			"count":1536,
			"type":"SCALAR"
		},
		{
			"bufferView":78,
			"componentType":5126,
			"count":343,
			"max":[
				120.05020141601562,
				-20.337556838989258,
				199.19854736328125
			],
			"min":[
				39.224029541015625,
				-53.00460433959961,
				115.17086791992188
			],
			"type":"VEC3"
		},
		{
			"bufferView":79,
			"componentType":5126,
			"count":343,
			"type":"VEC3"
		},
		{
			"bufferView":80,
			"componentType":5126,
			"count":343,
			"type":"VEC2"
		},
		{
			"bufferView":81,
			"componentType":5126,
			"count":343,
			"type":"VEC4"
		},
		{
			"bufferView":82,
			"componentType":5126,
			"count":4,
			"max":[
				40.18952178955078,
				-20.40982437133789,
				127.2701187133789
			],
			"min":[
				38.55854797363281,
				-22.04079818725586,
				115.09574127197266
			],
			"type":"VEC3"
		},
		{
			"bufferView":83,
			"componentType":5126,
			"count":4,
			"type":"VEC3"
		},
		{
			"bufferView":84,
			"componentType":5126,
			"count":4,
			"type":"VEC2"
		},
		{
			"bufferView":85,
			"componentType":5126,
			"count":4,
			"type":"VEC4"
		},
		{
			"bufferView":86,
			"componentType":5126,
			"count":4,
			"max":[
				40.18952178955078,
				-20.40982437133789,
				139.45106506347656
			],
			"min":[
				38.55854797363281,
				-22.04079818725586,
				127.27668762207031
			],
			"type":"VEC3"
		},
		{
			"bufferView":87,
			"componentType":5126,
			"count":4,
			"type":"VEC3"
		},
		{
			"bufferView":88,
			"componentType":5126,
			"count":4,
			"type":"VEC2"
		},
		{
			"bufferView":89,
			"componentType":5126,
			"count":4,
			"type":"VEC4"
		},
		{
			"bufferView":90,
			"componentType":5126,
			"count":4,
			"max":[
				72.86578369140625,
				-22.432832717895508,
				173.7215576171875
			],
			"min":[
				62.27256774902344,
				-24.251375198364258,
				172.30865478515625
			],
			"type":"VEC3"
		},
		{
			"bufferView":91,
			"componentType":5126,
			"count":4,
			"type":"VEC3"
		},
		{
			"bufferView":92,
			"componentType":5126,
			"count":4,
			"type":"VEC2"
		},
		{
			"bufferView":93,
			"componentType":5126,
			"count":4,
			"type":"VEC4"
		},
		{
			"bufferView":94,
			"componentType":5126,
			"count":4,
			"max":[
				62.62054443359375,
				-22.82819938659668,
				173.7215576171875
			],
			"min":[
				52.02732849121094,
				-24.64674186706543,
				172.30865478515625
			],
			"type":"VEC3"
		},
		{
			"bufferView":95,
			"componentType":5126,
			"count":4,
			"type":"VEC3"
		},
		{
			"bufferView":96,
			"componentType":5126,
			"count":4,
			"type":"VEC2"
		},
		{
			"bufferView":97,
			"componentType":5126,
			"count":4,
			"type":"VEC4"
		},
		{
			"bufferView":98,
			"componentType":5126,
			"count":4,
			"max":[
				62.59837341308594,
				-36.588130950927734,
				199.47361755371094
			],
			"min":[
				52.04212951660156,
				-38.07514572143555,
				198.0607147216797
			],
			"type":"VEC3"
		},
		{
			"bufferView":99,
			"componentType":5126,
			"count":4,
			"type":"VEC3"
		},
		{
			"bufferView":100,
			"componentType":5126,
			"count":4,
			"type":"VEC2"
		},
		{
			"bufferView":101,
			"componentType":5126,
			"count":4,
			"type":"VEC4"
		},
		{
			"bufferView":102,
			"componentType":5126,
			"count":4,
			"max":[
				72.85098266601562,
				-36.66020965576172,
				199.47361755371094
			],
			"min":[
				62.29473876953125,
				-38.14722442626953,
				198.0607147216797
			],
			"type":"VEC3"
		},
		{
			"bufferView":103,
			"componentType":5126,
			"count":4,
			"type":"VEC3"
		},
		{
			"bufferView":104,
			"componentType":5126,
			"count":4,
			"type":"VEC2"
		},
		{
			"bufferView":105,
			"componentType":5126,
			"count":4,
			"type":"VEC4"
		},
		{
			"bufferView":106,
			"componentType":5126,
			"count":24,
			"max":[
				62.37885284423828,
				-18.63912010192871,
				145.2772674560547
			],
			"min":[
				44.61084747314453,
				-25.35516357421875,
				126.31523895263672
			],
			"type":"VEC3"
		},
		{
			"bufferView":107,
			"componentType":5126,
			"count":24,
			"type":"VEC3"
		},
		{
			"bufferView":108,
			"componentType":5126,
			"count":24,
			"type":"VEC2"
		},
		{
			"bufferView":109,
			"componentType":5126,
			"count":24,
			"type":"VEC4"
		},
		{
			"bufferView":110,
			"componentType":5123,
			"count":36,
			"type":"SCALAR"
		},
		{
			"bufferView":111,
			"componentType":5126,
			"count":343,
			"max":[
				57.97150421142578,
				7.799343109130859,
				42.82276916503906
			],
			"min":[
				-21.961441040039062,
				-24.380470275878906,
				-40.73866271972656
			],
			"type":"VEC3"
		},
		{
			"bufferView":112,
			"componentType":5126,
			"count":343,
			"type":"VEC3"
		},
		{
			"bufferView":113,
			"componentType":5126,
			"count":343,
			"type":"VEC2"
		},
		{
			"bufferView":114,
			"componentType":5126,
			"count":343,
			"type":"VEC4"
		},
		{
			"bufferView":115,
			"componentType":5123,
			"count":1536,
			"type":"SCALAR"
		},
		{
			"bufferView":116,
			"componentType":5126,
			"count":490,
			"max":[
				92.62055969238281,
				-6.9043989181518555,
				98.79086303710938
			],
			"min":[
				87.17634582519531,
				-14.837120056152344,
				93.47154235839844
			],
			"type":"VEC3"
		},
		{
			"bufferView":117,
			"componentType":5126,
			"count":490,
			"type":"VEC3"
		},
		{
			"bufferView":118,
			"componentType":5126,
			"count":490,
			"type":"VEC2"
		},
		{
			"bufferView":119,
			"componentType":5126,
			"count":490,
			"type":"VEC4"
		},
		{
			"bufferView":120,
			"componentType":5123,
			"count":2496,
			"type":"SCALAR"
		},
		{
			"bufferView":121,
			"componentType":5126,
			"count":306,
			"max":[
				91.53855895996094,
				-21.584365844726562,
				121.0382308959961
			],
			"min":[
				74.08282470703125,
				-21.96071434020996,
				114.63601684570312
			],
			"type":"VEC3"
		},
		{
			"bufferView":122,
			"componentType":5126,
			"count":306,
			"type":"VEC3"
		},
		{
			"bufferView":123,
			"componentType":5126,
			"count":306,
			"type":"VEC2"
		},
		{
			"bufferView":124,
			"componentType":5126,
			"count":306,
			"type":"VEC4"
		},
		{
			"bufferView":125,
			"componentType":5123,
			"count":462,
			"type":"SCALAR"
		},
		{
			"bufferView":126,
			"componentType":5126,
			"count":207,
			"max":[
				123.87000274658203,
				-4.740025043487549,
				114.95037841796875
			],
			"min":[
				77.951171875,
				-22.14539337158203,
				88.96903991699219
			],
			"type":"VEC3"
		},
		{
			"bufferView":127,
			"componentType":5126,
			"count":207,
			"type":"VEC3"
		},
		{
			"bufferView":128,
			"componentType":5126,
			"count":207,
			"type":"VEC2"
		},
		{
			"bufferView":129,
			"componentType":5126,
			"count":207,
			"type":"VEC4"
		},
		{
			"bufferView":130,
			"componentType":5123,
			"count":912,
			"type":"SCALAR"
		},
		{
			"bufferView":131,
			"componentType":5126,
			"count":208,
			"max":[
				123.88867950439453,
				-4.737205505371094,
				115.16740417480469
			],
			"min":[
				78.06159210205078,
				-22.224594116210938,
				88.7859878540039
			],
			"type":"VEC3"
		},
		{
			"bufferView":132,
			"componentType":5126,
			"count":208,
			"type":"VEC3"
		},
		{
			"bufferView":133,
			"componentType":5126,
			"count":208,
			"type":"VEC2"
		},
		{
			"bufferView":134,
			"componentType":5126,
			"count":208,
			"type":"VEC4"
		},
		{
			"bufferView":135,
			"componentType":5123,
			"count":912,
			"type":"SCALAR"
		},
		{
			"bufferView":136,
			"componentType":5126,
			"count":4,
			"max":[
				89.92949676513672,
				-4.633718490600586,
				102.03292083740234
			],
			"min":[
				87.9267807006836,
				-6.014313697814941,
				91.66275787353516
			],
			"type":"VEC3"
		},
		{
			"bufferView":137,
			"componentType":5126,
			"count":4,
			"type":"VEC3"
		},
		{
			"bufferView":138,
			"componentType":5126,
			"count":4,
			"type":"VEC2"
		},
		{
			"bufferView":139,
			"componentType":5126,
			"count":4,
			"type":"VEC4"
		},
		{
			"bufferView":140,
			"componentType":5126,
			"count":559,
			"max":[
				91.74828338623047,
				-7.053562641143799,
				97.80012512207031
			],
			"min":[
				88.59453582763672,
				-10.207311630249023,
				94.64637756347656
			],
			"type":"VEC3"
		},
		{
			"bufferView":141,
			"componentType":5126,
			"count":559,
			"type":"VEC3"
		},
		{
			"bufferView":142,
			"componentType":5126,
			"count":559,
			"type":"VEC2"
		},
		{
			"bufferView":143,
			"componentType":5126,
			"count":559,
			"type":"VEC4"
		},
		{
			"bufferView":144,
			"componentType":5123,
			"count":2880,
			"type":"SCALAR"
		},
		{
			"bufferView":145,
			"componentType":5126,
			"count":126,
			"max":[
				27.3961181640625,
				6.490529537200928,
				17.078208923339844
			],
			"min":[
				-18.03662872314453,
				-10.775741577148438,
				-9.490226745605469
			],
			"type":"VEC3"
		},
		{
			"bufferView":146,
			"componentType":5126,
			"count":126,
			"type":"VEC3"
		},
		{
			"bufferView":147,
			"componentType":5126,
			"count":126,
			"type":"VEC2"
		},
		{
			"bufferView":148,
			"componentType":5126,
			"count":126,
			"type":"VEC4"
		},
		{
			"bufferView":149,
			"componentType":5123,
			"count":456,
			"type":"SCALAR"
		},
		{
			"bufferView":150,
			"componentType":5126,
			"count":72,
			"max":[
				106.50963592529297,
				-3.8117337226867676,
				153.67276000976562
			],
			"min":[
				71.56490325927734,
				-21.403980255126953,
				139.6142120361328
			],
			"type":"VEC3"
		},
		{
			"bufferView":151,
			"componentType":5126,
			"count":72,
			"type":"VEC3"
		},
		{
			"bufferView":152,
			"componentType":5126,
			"count":72,
			"type":"VEC2"
		},
		{
			"bufferView":153,
			"componentType":5126,
			"count":72,
			"type":"VEC4"
		},
		{
			"bufferView":154,
			"componentType":5123,
			"count":264,
			"type":"SCALAR"
		},
		{
			"bufferView":155,
			"componentType":5126,
			"count":120,
			"max":[
				106.31570434570312,
				-3.6182055473327637,
				153.67276000976562
			],
			"min":[
				71.3709716796875,
				-21.218008041381836,
				139.6141357421875
			],
			"type":"VEC3"
		},
		{
			"bufferView":156,
			"componentType":5126,
			"count":120,
			"type":"VEC3"
		},
		{
			"bufferView":157,
			"componentType":5126,
			"count":120,
			"type":"VEC2"
		},
		{
			"bufferView":158,
			"componentType":5126,
			"count":120,
			"type":"VEC4"
		},
		{
			"bufferView":159,
			"componentType":5123,
			"count":528,
			"type":"SCALAR"
		},
		{
			"bufferView":160,
			"componentType":5126,
			"count":4,
			"max":[
				73.51241302490234,
				-3.9024295806884766,
				153.6330108642578
			],
			"min":[
				72.04741668701172,
				-5.283024787902832,
				143.3166046142578
			],
			"type":"VEC3"
		},
		{
			"bufferView":161,
			"componentType":5126,
			"count":4,
			"type":"VEC3"
		},
		{
			"bufferView":162,
			"componentType":5126,
			"count":4,
			"type":"VEC2"
		},
		{
			"bufferView":163,
			"componentType":5126,
			"count":4,
			"type":"VEC4"
		},
		{
			"bufferView":164,
			"componentType":5126,
			"count":72,
			"max":[
				23.221282958984375,
				3.4815263748168945,
				6.3958282470703125
			],
			"min":[
				-11.72344970703125,
				-14.155707359313965,
				-7.671356201171875
			],
			"type":"VEC3"
		},
		{
			"bufferView":165,
			"componentType":5126,
			"count":72,
			"type":"VEC3"
		},
		{
			"bufferView":166,
			"componentType":5126,
			"count":72,
			"type":"VEC2"
		},
		{
			"bufferView":167,
			"componentType":5126,
			"count":72,
			"type":"VEC4"
		},
		{
			"bufferView":168,
			"componentType":5126,
			"count":125,
			"max":[
				108.84965515136719,
				-3.1859421730041504,
				43.29681396484375
			],
			"min":[
				105.37615203857422,
				-65.91513061523438,
				38.90678405761719
			],
			"type":"VEC3"
		},
		{
			"bufferView":169,
			"componentType":5126,
			"count":125,
			"type":"VEC3"
		},
		{
			"bufferView":170,
			"componentType":5126,
			"count":125,
			"type":"VEC2"
		},
		{
			"bufferView":171,
			"componentType":5126,
			"count":125,
			"type":"VEC4"
		},
		{
			"bufferView":172,
			"componentType":5123,
			"count":576,
			"type":"SCALAR"
		},
		{
			"bufferView":173,
			"componentType":5126,
			"count":125,
			"max":[
				108.84965515136719,
				-3.1859421730041504,
				43.29681396484375
			],
			"min":[
				105.37615203857422,
				-65.91513061523438,
				38.90678405761719
			],
			"type":"VEC3"
		},
		{
			"bufferView":174,
			"componentType":5126,
			"count":125,
			"type":"VEC3"
		},
		{
			"bufferView":175,
			"componentType":5126,
			"count":125,
			"type":"VEC2"
		},
		{
			"bufferView":176,
			"componentType":5126,
			"count":125,
			"type":"VEC4"
		},
		{
			"bufferView":177,
			"componentType":5126,
			"count":4,
			"max":[
				108.07405853271484,
				-3.3804004192352295,
				43.45600128173828
			],
			"min":[
				106.5197525024414,
				-3.9696218967437744,
				39.03704071044922
			],
			"type":"VEC3"
		},
		{
			"bufferView":178,
			"componentType":5126,
			"count":4,
			"type":"VEC3"
		},
		{
			"bufferView":179,
			"componentType":5126,
			"count":4,
			"type":"VEC2"
		},
		{
			"bufferView":180,
			"componentType":5126,
			"count":4,
			"type":"VEC4"
		},
		{
			"bufferView":181,
			"componentType":5126,
			"count":125,
			"max":[
				2.1654489040374756,
				23.901716232299805,
				2.1954638957977295
			],
			"min":[
				-1.3080674409866333,
				-39.94804763793945,
				-2.1945650577545166
			],
			"type":"VEC3"
		},
		{
			"bufferView":182,
			"componentType":5126,
			"count":125,
			"type":"VEC3"
		},
		{
			"bufferView":183,
			"componentType":5126,
			"count":125,
			"type":"VEC2"
		},
		{
			"bufferView":184,
			"componentType":5126,
			"count":125,
			"type":"VEC4"
		},
		{
			"bufferView":185,
			"componentType":5126,
			"count":445,
			"max":[
				36.52130126953125,
				-1,
				38.51359939575195
			],
			"min":[
				-29.806245803833008,
				-1,
				-37.0881233215332
			],
			"type":"VEC3"
		},
		{
			"bufferView":186,
			"componentType":5126,
			"count":445,
			"type":"VEC3"
		},
		{
			"bufferView":187,
			"componentType":5126,
			"count":445,
			"type":"VEC2"
		},
		{
			"bufferView":188,
			"componentType":5126,
			"count":445,
			"type":"VEC4"
		},
		{
			"bufferView":189,
			"componentType":5123,
			"count":1344,
			"type":"SCALAR"
		},
		{
			"bufferView":190,
			"componentType":5126,
			"count":402,
			"max":[
				25.89361572265625,
				-1,
				27.445072174072266
			],
			"min":[
				-26.289169311523438,
				-1,
				-55.417083740234375
			],
			"type":"VEC3"
		},
		{
			"bufferView":191,
			"componentType":5126,
			"count":402,
			"type":"VEC3"
		},
		{
			"bufferView":192,
			"componentType":5126,
			"count":402,
			"type":"VEC2"
		},
		{
			"bufferView":193,
			"componentType":5126,
			"count":402,
			"type":"VEC4"
		},
		{
			"bufferView":194,
			"componentType":5123,
			"count":1386,
			"type":"SCALAR"
		},
		{
			"bufferView":195,
			"componentType":5126,
			"count":450,
			"max":[
				32.85020446777344,
				-1,
				30.919757843017578
			],
			"min":[
				-45.99869155883789,
				-1,
				-29.319034576416016
			],
			"type":"VEC3"
		},
		{
			"bufferView":196,
			"componentType":5126,
			"count":450,
			"type":"VEC3"
		},
		{
			"bufferView":197,
			"componentType":5126,
			"count":450,
			"type":"VEC2"
		},
		{
			"bufferView":198,
			"componentType":5126,
			"count":450,
			"type":"VEC4"
		},
		{
			"bufferView":199,
			"componentType":5123,
			"count":1344,
			"type":"SCALAR"
		},
		{
			"bufferView":200,
			"componentType":5126,
			"count":397,
			"max":[
				24.367860794067383,
				-1,
				20.020444869995117
			],
			"min":[
				-23.41853141784668,
				-1,
				-20.33853530883789
			],
			"type":"VEC3"
		},
		{
			"bufferView":201,
			"componentType":5126,
			"count":397,
			"type":"VEC3"
		},
		{
			"bufferView":202,
			"componentType":5126,
			"count":397,
			"type":"VEC2"
		},
		{
			"bufferView":203,
			"componentType":5126,
			"count":397,
			"type":"VEC4"
		},
		{
			"bufferView":204,
			"componentType":5123,
			"count":1344,
			"type":"SCALAR"
		},
		{
			"bufferView":205,
			"componentType":5126,
			"count":456,
			"max":[
				15.898168563842773,
				-1,
				16.32935333251953
			],
			"min":[
				-15.898173332214355,
				-1,
				-16.329347610473633
			],
			"type":"VEC3"
		},
		{
			"bufferView":206,
			"componentType":5126,
			"count":456,
			"type":"VEC3"
		},
		{
			"bufferView":207,
			"componentType":5126,
			"count":456,
			"type":"VEC2"
		},
		{
			"bufferView":208,
			"componentType":5126,
			"count":456,
			"type":"VEC4"
		},
		{
			"bufferView":209,
			"componentType":5123,
			"count":1344,
			"type":"SCALAR"
		},
		{
			"bufferView":210,
			"componentType":5126,
			"count":337,
			"max":[
				10.75200080871582,
				-1,
				10.752001762390137
			],
			"min":[
				-10.75200080871582,
				-1,
				-10.751998901367188
			],
			"type":"VEC3"
		},
		{
			"bufferView":211,
			"componentType":5126,
			"count":337,
			"type":"VEC3"
		},
		{
			"bufferView":212,
			"componentType":5126,
			"count":337,
			"type":"VEC2"
		},
		{
			"bufferView":213,
			"componentType":5126,
			"count":337,
			"type":"VEC4"
		},
		{
			"bufferView":214,
			"componentType":5123,
			"count":1344,
			"type":"SCALAR"
		},
		{
			"bufferView":215,
			"componentType":5126,
			"count":358,
			"max":[
				14.699999809265137,
				-1,
				14.699999809265137
			],
			"min":[
				-14.699999809265137,
				-1,
				-14.699999809265137
			],
			"type":"VEC3"
		},
		{
			"bufferView":216,
			"componentType":5126,
			"count":358,
			"type":"VEC3"
		},
		{
			"bufferView":217,
			"componentType":5126,
			"count":358,
			"type":"VEC2"
		},
		{
			"bufferView":218,
			"componentType":5126,
			"count":358,
			"type":"VEC4"
		},
		{
			"bufferView":219,
			"componentType":5123,
			"count":1344,
			"type":"SCALAR"
		}
	],
	"bufferViews":[
		{
			"buffer":0,
			"byteLength":5808,
			"byteOffset":0,
			"target":34962
		},
		{
			"buffer":0,
			"byteLength":5808,
			"byteOffset":5808,
			"target":34962
		},
		{
			"buffer":0,
			"byteLength":3872,
			"byteOffset":11616,
			"target":34962
		},
		{
			"buffer":0,
			"byteLength":7744,
			"byteOffset":15488,
			"target":34962
		},
		{
			"buffer":0,
			"byteLength":5292,
			"byteOffset":23232,
			"target":34963
		},
		{
			"buffer":0,
			"byteLength":5880,
			"byteOffset":28524,
			"target":34962
		},
		{
			"buffer":0,
			"byteLength":5880,
			"byteOffset":34404,
			"target":34962
		},
		{
			"buffer":0,
			"byteLength":3920,
			"byteOffset":40284,
			"target":34962
		},
		{
			"buffer":0,
			"byteLength":7840,
			"byteOffset":44204,
			"target":34962
		},
		{
			"buffer":0,
			"byteLength":4992,
			"byteOffset":52044,
			"target":34963
		},
		{
			"buffer":0,
			"byteLength":8844,
			"byteOffset":57036,
			"target":34962
		},
		{
			"buffer":0,
			"byteLength":8844,
			"byteOffset":65880,
			"target":34962
		},
		{
			"buffer":0,
			"byteLength":5896,
			"byteOffset":74724,
			"target":34962
		},
		{
			"buffer":0,
			"byteLength":11792,
			"byteOffset":80620,
			"target":34962
		},
		{
			"buffer":0,
			"byteLength":2688,
			"byteOffset":92412,
			"target":34963
		},
		{
			"buffer":0,
			"byteLength":8568,
			"byteOffset":95100,
			"target":34962
		},
		{
			"buffer":0,
			"byteLength":8568,
			"byteOffset":103668,
			"target":34962
		},
		{
			"buffer":0,
			"byteLength":5712,
			"byteOffset":112236,
			"target":34962
		},
		{
			"buffer":0,
			"byteLength":11424,
			"byteOffset":117948,
			"target":34962
		},
		{
			"buffer":0,
			"byteLength":2688,
			"byteOffset":129372,
			"target":34963
		},
		{
			"buffer":0,
			"byteLength":9132,
			"byteOffset":132060,
			"target":34962
		},
		{
			"buffer":0,
			"byteLength":9132,
			"byteOffset":141192,
			"target":34962
		},
		{
			"buffer":0,
			"byteLength":6088,
			"byteOffset":150324,
			"target":34962
		},
		{
			"buffer":0,
			"byteLength":12176,
			"byteOffset":156412,
			"target":34962
		},
		{
			"buffer":0,
			"byteLength":2688,
			"byteOffset":168588,
			"target":34963
		},
		{
			"buffer":0,
			"byteLength":7896,
			"byteOffset":171276,
			"target":34962
		},
		{
			"buffer":0,
			"byteLength":7896,
			"byteOffset":179172,
			"target":34962
		},
		{
			"buffer":0,
			"byteLength":5264,
			"byteOffset":187068,
			"target":34962
		},
		{
			"buffer":0,
			"byteLength":10528,
			"byteOffset":192332,
			"target":34962
		},
		{
			"buffer":0,
			"byteLength":3084,
			"byteOffset":202860,
			"target":34963
		},
		{
			"buffer":0,
			"byteLength":7896,
			"byteOffset":205944,
			"target":34962
		},
		{
			"buffer":0,
			"byteLength":7896,
			"byteOffset":213840,
			"target":34962
		},
		{
			"buffer":0,
			"byteLength":5264,
			"byteOffset":221736,
			"target":34962
		},
		{
			"buffer":0,
			"byteLength":10528,
			"byteOffset":227000,
			"target":34962
		},
		{
			"buffer":0,
			"byteLength":3084,
			"byteOffset":237528,
			"target":34963
		},
		{
			"buffer":0,
			"byteLength":48,
			"byteOffset":240612,
			"target":34962
		},
		{
			"buffer":0,
			"byteLength":48,
			"byteOffset":240660,
			"target":34962
		},
		{
			"buffer":0,
			"byteLength":32,
			"byteOffset":240708,
			"target":34962
		},
		{
			"buffer":0,
			"byteLength":64,
			"byteOffset":240740,
			"target":34962
		},
		{
			"buffer":0,
			"byteLength":12,
			"byteOffset":240804,
			"target":34963
		},
		{
			"buffer":0,
			"byteLength":48,
			"byteOffset":240816,
			"target":34962
		},
		{
			"buffer":0,
			"byteLength":48,
			"byteOffset":240864,
			"target":34962
		},
		{
			"buffer":0,
			"byteLength":32,
			"byteOffset":240912,
			"target":34962
		},
		{
			"buffer":0,
			"byteLength":64,
			"byteOffset":240944,
			"target":34962
		},
		{
			"buffer":0,
			"byteLength":288,
			"byteOffset":241008,
			"target":34962
		},
		{
			"buffer":0,
			"byteLength":288,
			"byteOffset":241296,
			"target":34962
		},
		{
			"buffer":0,
			"byteLength":192,
			"byteOffset":241584,
			"target":34962
		},
		{
			"buffer":0,
			"byteLength":384,
			"byteOffset":241776,
			"target":34962
		},
		{
			"buffer":0,
			"byteLength":72,
			"byteOffset":242160,
			"target":34963
		},
		{
			"buffer":0,
			"byteLength":7896,
			"byteOffset":242232,
			"target":34962
		},
		{
			"buffer":0,
			"byteLength":7896,
			"byteOffset":250128,
			"target":34962
		},
		{
			"buffer":0,
			"byteLength":5264,
			"byteOffset":258024,
			"target":34962
		},
		{
			"buffer":0,
			"byteLength":10528,
			"byteOffset":263288,
			"target":34962
		},
		{
			"buffer":0,
			"byteLength":3084,
			"byteOffset":273816,
			"target":34963
		},
		{
			"buffer":0,
			"byteLength":5880,
			"byteOffset":276900,
			"target":34962
		},
		{
			"buffer":0,
			"byteLength":5880,
			"byteOffset":282780,
			"target":34962
		},
		{
			"buffer":0,
			"byteLength":3920,
			"byteOffset":288660,
			"target":34962
		},
		{
			"buffer":0,
			"byteLength":7840,
			"byteOffset":292580,
			"target":34962
		},
		{
			"buffer":0,
			"byteLength":8784,
			"byteOffset":300420,
			"target":34962
		},
		{
			"buffer":0,
			"byteLength":8784,
			"byteOffset":309204,
			"target":34962
		},
		{
			"buffer":0,
			"byteLength":5856,
			"byteOffset":317988,
			"target":34962
		},
		{
			"buffer":0,
			"byteLength":11712,
			"byteOffset":323844,
			"target":34962
		},
		{
			"buffer":0,
			"byteLength":2688,
			"byteOffset":335556,
			"target":34963
		},
		{
			"buffer":0,
			"byteLength":8868,
			"byteOffset":338244,
			"target":34962
		},
		{
			"buffer":0,
			"byteLength":8868,
			"byteOffset":347112,
			"target":34962
		},
		{
			"buffer":0,
			"byteLength":5912,
			"byteOffset":355980,
			"target":34962
		},
		{
			"buffer":0,
			"byteLength":11824,
			"byteOffset":361892,
			"target":34962
		},
		{
			"buffer":0,
			"byteLength":2688,
			"byteOffset":373716,
			"target":34963
		},
		{
			"buffer":0,
			"byteLength":6936,
			"byteOffset":376404,
			"target":34962
		},
		{
			"buffer":0,
			"byteLength":6936,
			"byteOffset":383340,
			"target":34962
		},
		{
			"buffer":0,
			"byteLength":4624,
			"byteOffset":390276,
			"target":34962
		},
		{
			"buffer":0,
			"byteLength":9248,
			"byteOffset":394900,
			"target":34962
		},
		{
			"buffer":0,
			"byteLength":2100,
			"byteOffset":404148,
			"target":34963
		},
		{
			"buffer":0,
			"byteLength":4116,
			"byteOffset":406248,
			"target":34962
		},
		{
			"buffer":0,
			"byteLength":4116,
			"byteOffset":410364,
			"target":34962
		},
		{
			"buffer":0,
			"byteLength":2744,
			"byteOffset":414480,
			"target":34962
		},
		{
			"buffer":0,
			"byteLength":5488,
			"byteOffset":417224,
			"target":34962
		},
		{
			"buffer":0,
			"byteLength":3072,
			"byteOffset":422712,
			"target":34963
		},
		{
			"buffer":0,
			"byteLength":4116,
			"byteOffset":425784,
			"target":34962
		},
		{
			"buffer":0,
			"byteLength":4116,
			"byteOffset":429900,
			"target":34962
		},
		{
			"buffer":0,
			"byteLength":2744,
			"byteOffset":434016,
			"target":34962
		},
		{
			"buffer":0,
			"byteLength":5488,
			"byteOffset":436760,
			"target":34962
		},
		{
			"buffer":0,
			"byteLength":48,
			"byteOffset":442248,
			"target":34962
		},
		{
			"buffer":0,
			"byteLength":48,
			"byteOffset":442296,
			"target":34962
		},
		{
			"buffer":0,
			"byteLength":32,
			"byteOffset":442344,
			"target":34962
		},
		{
			"buffer":0,
			"byteLength":64,
			"byteOffset":442376,
			"target":34962
		},
		{
			"buffer":0,
			"byteLength":48,
			"byteOffset":442440,
			"target":34962
		},
		{
			"buffer":0,
			"byteLength":48,
			"byteOffset":442488,
			"target":34962
		},
		{
			"buffer":0,
			"byteLength":32,
			"byteOffset":442536,
			"target":34962
		},
		{
			"buffer":0,
			"byteLength":64,
			"byteOffset":442568,
			"target":34962
		},
		{
			"buffer":0,
			"byteLength":48,
			"byteOffset":442632,
			"target":34962
		},
		{
			"buffer":0,
			"byteLength":48,
			"byteOffset":442680,
			"target":34962
		},
		{
			"buffer":0,
			"byteLength":32,
			"byteOffset":442728,
			"target":34962
		},
		{
			"buffer":0,
			"byteLength":64,
			"byteOffset":442760,
			"target":34962
		},
		{
			"buffer":0,
			"byteLength":48,
			"byteOffset":442824,
			"target":34962
		},
		{
			"buffer":0,
			"byteLength":48,
			"byteOffset":442872,
			"target":34962
		},
		{
			"buffer":0,
			"byteLength":32,
			"byteOffset":442920,
			"target":34962
		},
		{
			"buffer":0,
			"byteLength":64,
			"byteOffset":442952,
			"target":34962
		},
		{
			"buffer":0,
			"byteLength":48,
			"byteOffset":443016,
			"target":34962
		},
		{
			"buffer":0,
			"byteLength":48,
			"byteOffset":443064,
			"target":34962
		},
		{
			"buffer":0,
			"byteLength":32,
			"byteOffset":443112,
			"target":34962
		},
		{
			"buffer":0,
			"byteLength":64,
			"byteOffset":443144,
			"target":34962
		},
		{
			"buffer":0,
			"byteLength":48,
			"byteOffset":443208,
			"target":34962
		},
		{
			"buffer":0,
			"byteLength":48,
			"byteOffset":443256,
			"target":34962
		},
		{
			"buffer":0,
			"byteLength":32,
			"byteOffset":443304,
			"target":34962
		},
		{
			"buffer":0,
			"byteLength":64,
			"byteOffset":443336,
			"target":34962
		},
		{
			"buffer":0,
			"byteLength":288,
			"byteOffset":443400,
			"target":34962
		},
		{
			"buffer":0,
			"byteLength":288,
			"byteOffset":443688,
			"target":34962
		},
		{
			"buffer":0,
			"byteLength":192,
			"byteOffset":443976,
			"target":34962
		},
		{
			"buffer":0,
			"byteLength":384,
			"byteOffset":444168,
			"target":34962
		},
		{
			"buffer":0,
			"byteLength":72,
			"byteOffset":444552,
			"target":34963
		},
		{
			"buffer":0,
			"byteLength":4116,
			"byteOffset":444624,
			"target":34962
		},
		{
			"buffer":0,
			"byteLength":4116,
			"byteOffset":448740,
			"target":34962
		},
		{
			"buffer":0,
			"byteLength":2744,
			"byteOffset":452856,
			"target":34962
		},
		{
			"buffer":0,
			"byteLength":5488,
			"byteOffset":455600,
			"target":34962
		},
		{
			"buffer":0,
			"byteLength":3072,
			"byteOffset":461088,
			"target":34963
		},
		{
			"buffer":0,
			"byteLength":5880,
			"byteOffset":464160,
			"target":34962
		},
		{
			"buffer":0,
			"byteLength":5880,
			"byteOffset":470040,
			"target":34962
		},
		{
			"buffer":0,
			"byteLength":3920,
			"byteOffset":475920,
			"target":34962
		},
		{
			"buffer":0,
			"byteLength":7840,
			"byteOffset":479840,
			"target":34962
		},
		{
			"buffer":0,
			"byteLength":4992,
			"byteOffset":487680,
			"target":34963
		},
		{
			"buffer":0,
			"byteLength":3672,
			"byteOffset":492672,
			"target":34962
		},
		{
			"buffer":0,
			"byteLength":3672,
			"byteOffset":496344,
			"target":34962
		},
		{
			"buffer":0,
			"byteLength":2448,
			"byteOffset":500016,
			"target":34962
		},
		{
			"buffer":0,
			"byteLength":4896,
			"byteOffset":502464,
			"target":34962
		},
		{
			"buffer":0,
			"byteLength":924,
			"byteOffset":507360,
			"target":34963
		},
		{
			"buffer":0,
			"byteLength":2484,
			"byteOffset":508284,
			"target":34962
		},
		{
			"buffer":0,
			"byteLength":2484,
			"byteOffset":510768,
			"target":34962
		},
		{
			"buffer":0,
			"byteLength":1656,
			"byteOffset":513252,
			"target":34962
		},
		{
			"buffer":0,
			"byteLength":3312,
			"byteOffset":514908,
			"target":34962
		},
		{
			"buffer":0,
			"byteLength":1824,
			"byteOffset":518220,
			"target":34963
		},
		{
			"buffer":0,
			"byteLength":2496,
			"byteOffset":520044,
			"target":34962
		},
		{
			"buffer":0,
			"byteLength":2496,
			"byteOffset":522540,
			"target":34962
		},
		{
			"buffer":0,
			"byteLength":1664,
			"byteOffset":525036,
			"target":34962
		},
		{
			"buffer":0,
			"byteLength":3328,
			"byteOffset":526700,
			"target":34962
		},
		{
			"buffer":0,
			"byteLength":1824,
			"byteOffset":530028,
			"target":34963
		},
		{
			"buffer":0,
			"byteLength":48,
			"byteOffset":531852,
			"target":34962
		},
		{
			"buffer":0,
			"byteLength":48,
			"byteOffset":531900,
			"target":34962
		},
		{
			"buffer":0,
			"byteLength":32,
			"byteOffset":531948,
			"target":34962
		},
		{
			"buffer":0,
			"byteLength":64,
			"byteOffset":531980,
			"target":34962
		},
		{
			"buffer":0,
			"byteLength":6708,
			"byteOffset":532044,
			"target":34962
		},
		{
			"buffer":0,
			"byteLength":6708,
			"byteOffset":538752,
			"target":34962
		},
		{
			"buffer":0,
			"byteLength":4472,
			"byteOffset":545460,
			"target":34962
		},
		{
			"buffer":0,
			"byteLength":8944,
			"byteOffset":549932,
			"target":34962
		},
		{
			"buffer":0,
			"byteLength":5760,
			"byteOffset":558876,
			"target":34963
		},
		{
			"buffer":0,
			"byteLength":1512,
			"byteOffset":564636,
			"target":34962
		},
		{
			"buffer":0,
			"byteLength":1512,
			"byteOffset":566148,
			"target":34962
		},
		{
			"buffer":0,
			"byteLength":1008,
			"byteOffset":567660,
			"target":34962
		},
		{
			"buffer":0,
			"byteLength":2016,
			"byteOffset":568668,
			"target":34962
		},
		{
			"buffer":0,
			"byteLength":912,
			"byteOffset":570684,
			"target":34963
		},
		{
			"buffer":0,
			"byteLength":864,
			"byteOffset":571596,
			"target":34962
		},
		{
			"buffer":0,
			"byteLength":864,
			"byteOffset":572460,
			"target":34962
		},
		{
			"buffer":0,
			"byteLength":576,
			"byteOffset":573324,
			"target":34962
		},
		{
			"buffer":0,
			"byteLength":1152,
			"byteOffset":573900,
			"target":34962
		},
		{
			"buffer":0,
			"byteLength":528,
			"byteOffset":575052,
			"target":34963
		},
		{
			"buffer":0,
			"byteLength":1440,
			"byteOffset":575580,
			"target":34962
		},
		{
			"buffer":0,
			"byteLength":1440,
			"byteOffset":577020,
			"target":34962
		},
		{
			"buffer":0,
			"byteLength":960,
			"byteOffset":578460,
			"target":34962
		},
		{
			"buffer":0,
			"byteLength":1920,
			"byteOffset":579420,
			"target":34962
		},
		{
			"buffer":0,
			"byteLength":1056,
			"byteOffset":581340,
			"target":34963
		},
		{
			"buffer":0,
			"byteLength":48,
			"byteOffset":582396,
			"target":34962
		},
		{
			"buffer":0,
			"byteLength":48,
			"byteOffset":582444,
			"target":34962
		},
		{
			"buffer":0,
			"byteLength":32,
			"byteOffset":582492,
			"target":34962
		},
		{
			"buffer":0,
			"byteLength":64,
			"byteOffset":582524,
			"target":34962
		},
		{
			"buffer":0,
			"byteLength":864,
			"byteOffset":582588,
			"target":34962
		},
		{
			"buffer":0,
			"byteLength":864,
			"byteOffset":583452,
			"target":34962
		},
		{
			"buffer":0,
			"byteLength":576,
			"byteOffset":584316,
			"target":34962
		},
		{
			"buffer":0,
			"byteLength":1152,
			"byteOffset":584892,
			"target":34962
		},
		{
			"buffer":0,
			"byteLength":1500,
			"byteOffset":586044,
			"target":34962
		},
		{
			"buffer":0,
			"byteLength":1500,
			"byteOffset":587544,
			"target":34962
		},
		{
			"buffer":0,
			"byteLength":1000,
			"byteOffset":589044,
			"target":34962
		},
		{
			"buffer":0,
			"byteLength":2000,
			"byteOffset":590044,
			"target":34962
		},
		{
			"buffer":0,
			"byteLength":1152,
			"byteOffset":592044,
			"target":34963
		},
		{
			"buffer":0,
			"byteLength":1500,
			"byteOffset":593196,
			"target":34962
		},
		{
			"buffer":0,
			"byteLength":1500,
			"byteOffset":594696,
			"target":34962
		},
		{
			"buffer":0,
			"byteLength":1000,
			"byteOffset":596196,
			"target":34962
		},
		{
			"buffer":0,
			"byteLength":2000,
			"byteOffset":597196,
			"target":34962
		},
		{
			"buffer":0,
			"byteLength":48,
			"byteOffset":599196,
			"target":34962
		},
		{
			"buffer":0,
			"byteLength":48,
			"byteOffset":599244,
			"target":34962
		},
		{
			"buffer":0,
			"byteLength":32,
			"byteOffset":599292,
			"target":34962
		},
		{
			"buffer":0,
			"byteLength":64,
			"byteOffset":599324,
			"target":34962
		},
		{
			"buffer":0,
			"byteLength":1500,
			"byteOffset":599388,
			"target":34962
		},
		{
			"buffer":0,
			"byteLength":1500,
			"byteOffset":600888,
			"target":34962
		},
		{
			"buffer":0,
			"byteLength":1000,
			"byteOffset":602388,
			"target":34962
		},
		{
			"buffer":0,
			"byteLength":2000,
			"byteOffset":603388,
			"target":34962
		},
		{
			"buffer":0,
			"byteLength":5340,
			"byteOffset":605388,
			"target":34962
		},
		{
			"buffer":0,
			"byteLength":5340,
			"byteOffset":610728,
			"target":34962
		},
		{
			"buffer":0,
			"byteLength":3560,
			"byteOffset":616068,
			"target":34962
		},
		{
			"buffer":0,
			"byteLength":7120,
			"byteOffset":619628,
			"target":34962
		},
		{
			"buffer":0,
			"byteLength":2688,
			"byteOffset":626748,
			"target":34963
		},
		{
			"buffer":0,
			"byteLength":4824,
			"byteOffset":629436,
			"target":34962
		},
		{
			"buffer":0,
			"byteLength":4824,
			"byteOffset":634260,
			"target":34962
		},
		{
			"buffer":0,
			"byteLength":3216,
			"byteOffset":639084,
			"target":34962
		},
		{
			"buffer":0,
			"byteLength":6432,
			"byteOffset":642300,
			"target":34962
		},
		{
			"buffer":0,
			"byteLength":2772,
			"byteOffset":648732,
			"target":34963
		},
		{
			"buffer":0,
			"byteLength":5400,
			"byteOffset":651504,
			"target":34962
		},
		{
			"buffer":0,
			"byteLength":5400,
			"byteOffset":656904,
			"target":34962
		},
		{
			"buffer":0,
			"byteLength":3600,
			"byteOffset":662304,
			"target":34962
		},
		{
			"buffer":0,
			"byteLength":7200,
			"byteOffset":665904,
			"target":34962
		},
		{
			"buffer":0,
			"byteLength":2688,
			"byteOffset":673104,
			"target":34963
		},
		{
			"buffer":0,
			"byteLength":4764,
			"byteOffset":675792,
			"target":34962
		},
		{
			"buffer":0,
			"byteLength":4764,
			"byteOffset":680556,
			"target":34962
		},
		{
			"buffer":0,
			"byteLength":3176,
			"byteOffset":685320,
			"target":34962
		},
		{
			"buffer":0,
			"byteLength":6352,
			"byteOffset":688496,
			"target":34962
		},
		{
			"buffer":0,
			"byteLength":2688,
			"byteOffset":694848,
			"target":34963
		},
		{
			"buffer":0,
			"byteLength":5472,
			"byteOffset":697536,
			"target":34962
		},
		{
			"buffer":0,
			"byteLength":5472,
			"byteOffset":703008,
			"target":34962
		},
		{
			"buffer":0,
			"byteLength":3648,
			"byteOffset":708480,
			"target":34962
		},
		{
			"buffer":0,
			"byteLength":7296,
			"byteOffset":712128,
			"target":34962
		},
		{
			"buffer":0,
			"byteLength":2688,
			"byteOffset":719424,
			"target":34963
		},
		{
			"buffer":0,
			"byteLength":4044,
			"byteOffset":722112,
			"target":34962
		},
		{
			"buffer":0,
			"byteLength":4044,
			"byteOffset":726156,
			"target":34962
		},
		{
			"buffer":0,
			"byteLength":2696,
			"byteOffset":730200,
			"target":34962
		},
		{
			"buffer":0,
			"byteLength":5392,
			"byteOffset":732896,
			"target":34962
		},
		{
			"buffer":0,
			"byteLength":2688,
			"byteOffset":738288,
			"target":34963
		},
		{
			"buffer":0,
			"byteLength":4296,
			"byteOffset":740976,
			"target":34962
		},
		{
			"buffer":0,
			"byteLength":4296,
			"byteOffset":745272,
			"target":34962
		},
		{
			"buffer":0,
			"byteLength":2864,
			"byteOffset":749568,
			"target":34962
		},
		{
			"buffer":0,
			"byteLength":5728,
			"byteOffset":752432,
			"target":34962
		},
		{
			"buffer":0,
			"byteLength":2688,
			"byteOffset":758160,
			"target":34963
		}
	],
	"samplers":[
		{
			"magFilter":9729,
			"minFilter":9987
		}
	],
	"buffers":[
		{
			"byteLength":760848,
			"uri":"level_2_water_and_foam.bin"
		}
	]
}
