{
	"asset":{
		"generator":"Khronos glTF Blender I/O v4.2.69",
		"version":"2.0"
	},
	"scene":0,
	"scenes":[
		{
			"name":"Scene",
			"nodes":[
				0
			]
		}
	],
	"nodes":[
		{
			"mesh":0,
			"name":"LVL1"
		}
	],
	"meshes":[
		{
			"name":"Mesh.257",
			"primitives":[
				{
					"attributes":{
						"POSITION":0,
						"NORMAL":1,
						"TEXCOORD_0":2,
						"TEXCOORD_1":3
					},
					"indices":4
				}
			]
		}
	],
	"accessors":[
		{
			"bufferView":0,
			"componentType":5126,
			"count":1286,
			"max":[
				77.10494232177734,
				19.877443313598633,
				61.492034912109375
			],
			"min":[
				-71.61746215820312,
				-21.155662536621094,
				-63.592498779296875
			],
			"type":"VEC3"
		},
		{
			"bufferView":1,
			"componentType":5126,
			"count":1286,
			"type":"VEC3"
		},
		{
			"bufferView":2,
			"componentType":5126,
			"count":1286,
			"type":"VEC2"
		},
		{
			"bufferView":3,
			"componentType":5126,
			"count":1286,
			"type":"VEC2"
		},
		{
			"bufferView":4,
			"componentType":5123,
			"count":1950,
			"type":"SCALAR"
		}
	],
	"bufferViews":[
		{
			"buffer":0,
			"byteLength":15432,
			"byteOffset":0,
			"target":34962
		},
		{
			"buffer":0,
			"byteLength":15432,
			"byteOffset":15432,
			"target":34962
		},
		{
			"buffer":0,
			"byteLength":10288,
			"byteOffset":30864,
			"target":34962
		},
		{
			"buffer":0,
			"byteLength":10288,
			"byteOffset":41152,
			"target":34962
		},
		{
			"buffer":0,
			"byteLength":3900,
			"byteOffset":51440,
			"target":34963
		}
	],
	"buffers":[
		{
			"byteLength":55340,
			"uri":"LVL1.bin"
		}
	]
}
