{
	"asset":{
		"generator":"Khronos glTF Blender I/O v4.2.69",
		"version":"2.0"
	},
	"scene":0,
	"scenes":[
		{
			"name":"Scene",
			"nodes":[
				0,
				1,
				2,
				3,
				4,
				5,
				6,
				7,
				8,
				9,
				10,
				11,
				12,
				13,
				14,
				15,
				16,
				17,
				18,
				19,
				20,
				21,
				22,
				23
			]
		}
	],
	"nodes":[
		{
			"mesh":0,
			"name":"EN_LVL2-Island01-Farmlands"
		},
		{
			"mesh":1,
			"name":"EN_LVL2-Island02-Between-Farm-Planes"
		},
		{
			"mesh":2,
			"name":"EN_LVL2-Island05-Forest"
		},
		{
			"mesh":3,
			"name":"EN_LVL2-Island03-Planes",
			"rotation":[
				0,
				0.008702346123754978,
				0,
				0.9999621510505676
			]
		},
		{
			"mesh":4,
			"name":"EN_LVL2-Island-background-Planes"
		},
		{
			"mesh":5,
			"name":"EN_LVL2-Island-background-Planes2"
		},
		{
			"mesh":6,
			"name":"EN_LVL2-Island01-Farmlands-top"
		},
		{
			"mesh":7,
			"name":"EN_LVL2-Island04-Between-Planes-Forest"
		},
		{
			"mesh":8,
			"name":"EN_LVL2-Island3-Plandes-Start"
		},
		{
			"mesh":9,
			"name":"EN_LVL2-Island-Background-Forest01"
		},
		{
			"mesh":10,
			"name":"EN_LVL2-Island-Background-Forest02"
		},
		{
			"mesh":11,
			"name":"EN_LVL2-Island05-Forest-top"
		},
		{
			"mesh":12,
			"name":"EN_LVL2-Island06-Waterfall-start"
		},
		{
			"mesh":13,
			"name":"EN_LVL2-Island-Background-Waterfall01"
		},
		{
			"mesh":14,
			"name":"EN_LVL2-Island-Background-Waterfall03"
		},
		{
			"mesh":15,
			"name":"EN_LVL2-Island-Background-Waterfall02"
		},
		{
			"mesh":16,
			"name":"EN_LVL2-Bckground_waterfall-entrance"
		},
		{
			"mesh":17,
			"name":"EN_LVL2-Island06-Waterfall"
		},
		{
			"mesh":18,
			"name":"EN_LVL2-Island06-Waterfall-smaller-side"
		},
		{
			"mesh":19,
			"name":"EN_LVL2-Island08-Entrance"
		},
		{
			"mesh":20,
			"name":"EN_LVL2-Island-background-watefrall-Top"
		},
		{
			"mesh":21,
			"name":"EN_LVL2-Island-background-watefrall-Bottom"
		},
		{
			"mesh":22,
			"name":"EN_LVL2-Island03-Planes-Top1",
			"rotation":[
				0,
				0.24655792117118835,
				0,
				0.9691280722618103
			]
		},
		{
			"mesh":23,
			"name":"EN_LVL2-Island03-Planes-Top2",
			"rotation":[
				0,
				-0.20481674373149872,
				0,
				0.978800356388092
			]
		}
	],
	"materials":[
		{
			"doubleSided":true,
			"name":"LVL2_Islands_Material",
			"normalTexture":{
				"index":0,
				"scale":0
			},
			"pbrMetallicRoughness":{
				"baseColorTexture":{
					"index":1
				},
				"metallicRoughnessTexture":{
					"index":2
				}
			}
		}
	],
	"meshes":[
		{
			"name":"Plane.008",
			"primitives":[
				{
					"attributes":{
						"POSITION":0,
						"NORMAL":1,
						"TEXCOORD_0":2,
						"TANGENT":3
					},
					"indices":4,
					"material":0
				}
			]
		},
		{
			"name":"Plane.009",
			"primitives":[
				{
					"attributes":{
						"POSITION":5,
						"NORMAL":6,
						"TEXCOORD_0":7,
						"TANGENT":8
					},
					"indices":9,
					"material":0
				}
			]
		},
		{
			"name":"Plane.010",
			"primitives":[
				{
					"attributes":{
						"POSITION":10,
						"NORMAL":11,
						"TEXCOORD_0":12,
						"TANGENT":13
					},
					"indices":14,
					"material":0
				}
			]
		},
		{
			"name":"Plane.012",
			"primitives":[
				{
					"attributes":{
						"POSITION":15,
						"NORMAL":16,
						"TEXCOORD_0":17,
						"TANGENT":18
					},
					"indices":19,
					"material":0
				}
			]
		},
		{
			"name":"Plane.013",
			"primitives":[
				{
					"attributes":{
						"POSITION":20,
						"NORMAL":21,
						"TEXCOORD_0":22,
						"TANGENT":23
					},
					"indices":24,
					"material":0
				}
			]
		},
		{
			"name":"Plane.014",
			"primitives":[
				{
					"attributes":{
						"POSITION":25,
						"NORMAL":26,
						"TEXCOORD_0":27,
						"TANGENT":28
					},
					"indices":24,
					"material":0
				}
			]
		},
		{
			"name":"Plane.015",
			"primitives":[
				{
					"attributes":{
						"POSITION":29,
						"NORMAL":30,
						"TEXCOORD_0":31,
						"TANGENT":32
					},
					"indices":24,
					"material":0
				}
			]
		},
		{
			"name":"Plane.016",
			"primitives":[
				{
					"attributes":{
						"POSITION":33,
						"NORMAL":34,
						"TEXCOORD_0":35,
						"TANGENT":36
					},
					"indices":24,
					"material":0
				}
			]
		},
		{
			"name":"Plane.017",
			"primitives":[
				{
					"attributes":{
						"POSITION":37,
						"NORMAL":38,
						"TEXCOORD_0":39,
						"TANGENT":40
					},
					"indices":41,
					"material":0
				}
			]
		},
		{
			"name":"Plane.018",
			"primitives":[
				{
					"attributes":{
						"POSITION":42,
						"NORMAL":43,
						"TEXCOORD_0":44,
						"TANGENT":45
					},
					"indices":24,
					"material":0
				}
			]
		},
		{
			"name":"Plane.019",
			"primitives":[
				{
					"attributes":{
						"POSITION":46,
						"NORMAL":47,
						"TEXCOORD_0":48,
						"TANGENT":49
					},
					"indices":50,
					"material":0
				}
			]
		},
		{
			"name":"Plane.020",
			"primitives":[
				{
					"attributes":{
						"POSITION":51,
						"NORMAL":52,
						"TEXCOORD_0":53,
						"TANGENT":54
					},
					"indices":24,
					"material":0
				}
			]
		},
		{
			"name":"Plane.021",
			"primitives":[
				{
					"attributes":{
						"POSITION":55,
						"NORMAL":56,
						"TEXCOORD_0":57,
						"TANGENT":58
					},
					"indices":24,
					"material":0
				}
			]
		},
		{
			"name":"Plane.022",
			"primitives":[
				{
					"attributes":{
						"POSITION":59,
						"NORMAL":60,
						"TEXCOORD_0":61,
						"TANGENT":62
					},
					"indices":24,
					"material":0
				}
			]
		},
		{
			"name":"Plane.023",
			"primitives":[
				{
					"attributes":{
						"POSITION":63,
						"NORMAL":64,
						"TEXCOORD_0":65,
						"TANGENT":66
					},
					"indices":24,
					"material":0
				}
			]
		},
		{
			"name":"Plane.024",
			"primitives":[
				{
					"attributes":{
						"POSITION":67,
						"NORMAL":68,
						"TEXCOORD_0":69,
						"TANGENT":70
					},
					"indices":24,
					"material":0
				}
			]
		},
		{
			"name":"Plane.025",
			"primitives":[
				{
					"attributes":{
						"POSITION":71,
						"NORMAL":72,
						"TEXCOORD_0":73,
						"TANGENT":74
					},
					"indices":24,
					"material":0
				}
			]
		},
		{
			"name":"Plane.026",
			"primitives":[
				{
					"attributes":{
						"POSITION":75,
						"NORMAL":76,
						"TEXCOORD_0":77,
						"TANGENT":78
					},
					"indices":79,
					"material":0
				}
			]
		},
		{
			"name":"Plane.028",
			"primitives":[
				{
					"attributes":{
						"POSITION":80,
						"NORMAL":81,
						"TEXCOORD_0":82,
						"TANGENT":83
					},
					"indices":84,
					"material":0
				}
			]
		},
		{
			"name":"Plane.029",
			"primitives":[
				{
					"attributes":{
						"POSITION":85,
						"NORMAL":86,
						"TEXCOORD_0":87,
						"TANGENT":88
					},
					"indices":89,
					"material":0
				}
			]
		},
		{
			"name":"Plane.030",
			"primitives":[
				{
					"attributes":{
						"POSITION":90,
						"NORMAL":91,
						"TEXCOORD_0":92,
						"TANGENT":93
					},
					"indices":94,
					"material":0
				}
			]
		},
		{
			"name":"Plane.031",
			"primitives":[
				{
					"attributes":{
						"POSITION":95,
						"NORMAL":96,
						"TEXCOORD_0":97,
						"TANGENT":98
					},
					"indices":99,
					"material":0
				}
			]
		},
		{
			"name":"Plane.032",
			"primitives":[
				{
					"attributes":{
						"POSITION":100,
						"NORMAL":101,
						"TEXCOORD_0":102,
						"TANGENT":103
					},
					"indices":50,
					"material":0
				}
			]
		},
		{
			"name":"Plane.033",
			"primitives":[
				{
					"attributes":{
						"POSITION":104,
						"NORMAL":105,
						"TEXCOORD_0":106,
						"TANGENT":107
					},
					"indices":108,
					"material":0
				}
			]
		}
	],
	"textures":[
		{
			"sampler":0,
			"source":0
		},
		{
			"sampler":0,
			"source":1
		},
		{
			"sampler":0,
			"source":2
		}
	],
	"images":[
		{
			"mimeType":"image/png",
			"name":"LVL2_Islands_DefaultMaterial_Normal",
			"uri":"LVL2_Islands_DefaultMaterial_Normal.png"
		},
		{
			"mimeType":"image/png",
			"name":"LVL2_Islands_DefaultMaterial_BaseColor",
			"uri":"LVL2_Islands_DefaultMaterial_BaseColor.png"
		},
		{
			"mimeType":"image/png",
			"name":"black-material_DefaultMaterial_OcclusionRoughnessMetallic",
			"uri":"black-material_DefaultMaterial_OcclusionRoughnessMetallic.png"
		}
	],
	"accessors":[
		{
			"bufferView":0,
			"componentType":5126,
			"count":18,
			"max":[
				30.301475524902344,
				0,
				31.77789306640625
			],
			"min":[
				-19.24602699279785,
				0,
				-38.319576263427734
			],
			"type":"VEC3"
		},
		{
			"bufferView":1,
			"componentType":5126,
			"count":18,
			"type":"VEC3"
		},
		{
			"bufferView":2,
			"componentType":5126,
			"count":18,
			"type":"VEC2"
		},
		{
			"bufferView":3,
			"componentType":5126,
			"count":18,
			"type":"VEC4"
		},
		{
			"bufferView":4,
			"componentType":5123,
			"count":48,
			"type":"SCALAR"
		},
		{
			"bufferView":5,
			"componentType":5126,
			"count":11,
			"max":[
				9.996525764465332,
				0,
				11.835232734680176
			],
			"min":[
				-10.983296394348145,
				0,
				-9.58086109161377
			],
			"type":"VEC3"
		},
		{
			"bufferView":6,
			"componentType":5126,
			"count":11,
			"type":"VEC3"
		},
		{
			"bufferView":7,
			"componentType":5126,
			"count":11,
			"type":"VEC2"
		},
		{
			"bufferView":8,
			"componentType":5126,
			"count":11,
			"type":"VEC4"
		},
		{
			"bufferView":9,
			"componentType":5123,
			"count":27,
			"type":"SCALAR"
		},
		{
			"bufferView":10,
			"componentType":5126,
			"count":29,
			"max":[
				34.626556396484375,
				0,
				25.92611312866211
			],
			"min":[
				-30.445262908935547,
				0,
				-32.34735107421875
			],
			"type":"VEC3"
		},
		{
			"bufferView":11,
			"componentType":5126,
			"count":29,
			"type":"VEC3"
		},
		{
			"bufferView":12,
			"componentType":5126,
			"count":29,
			"type":"VEC2"
		},
		{
			"bufferView":13,
			"componentType":5126,
			"count":29,
			"type":"VEC4"
		},
		{
			"bufferView":14,
			"componentType":5123,
			"count":87,
			"type":"SCALAR"
		},
		{
			"bufferView":15,
			"componentType":5126,
			"count":64,
			"max":[
				42.42953109741211,
				0.21574117243289948,
				33.36841583251953
			],
			"min":[
				-28.27207374572754,
				-0.09656531363725662,
				-28.232168197631836
			],
			"type":"VEC3"
		},
		{
			"bufferView":16,
			"componentType":5126,
			"count":64,
			"type":"VEC3"
		},
		{
			"bufferView":17,
			"componentType":5126,
			"count":64,
			"type":"VEC2"
		},
		{
			"bufferView":18,
			"componentType":5126,
			"count":64,
			"type":"VEC4"
		},
		{
			"bufferView":19,
			"componentType":5123,
			"count":96,
			"type":"SCALAR"
		},
		{
			"bufferView":20,
			"componentType":5126,
			"count":4,
			"max":[
				4.769145488739014,
				0,
				4.084264278411865
			],
			"min":[
				-4.405425071716309,
				0,
				-4.414799213409424
			],
			"type":"VEC3"
		},
		{
			"bufferView":21,
			"componentType":5126,
			"count":4,
			"type":"VEC3"
		},
		{
			"bufferView":22,
			"componentType":5126,
			"count":4,
			"type":"VEC2"
		},
		{
			"bufferView":23,
			"componentType":5126,
			"count":4,
			"type":"VEC4"
		},
		{
			"bufferView":24,
			"componentType":5123,
			"count":6,
			"type":"SCALAR"
		},
		{
			"bufferView":25,
			"componentType":5126,
			"count":4,
			"max":[
				3.6785802841186523,
				0,
				4.2824387550354
			],
			"min":[
				-4.337236404418945,
				0,
				-4.291454315185547
			],
			"type":"VEC3"
		},
		{
			"bufferView":26,
			"componentType":5126,
			"count":4,
			"type":"VEC3"
		},
		{
			"bufferView":27,
			"componentType":5126,
			"count":4,
			"type":"VEC2"
		},
		{
			"bufferView":28,
			"componentType":5126,
			"count":4,
			"type":"VEC4"
		},
		{
			"bufferView":29,
			"componentType":5126,
			"count":4,
			"max":[
				10.62800407409668,
				0,
				12.105204582214355
			],
			"min":[
				-11.716211318969727,
				0,
				-8.977632522583008
			],
			"type":"VEC3"
		},
		{
			"bufferView":30,
			"componentType":5126,
			"count":4,
			"type":"VEC3"
		},
		{
			"bufferView":31,
			"componentType":5126,
			"count":4,
			"type":"VEC2"
		},
		{
			"bufferView":32,
			"componentType":5126,
			"count":4,
			"type":"VEC4"
		},
		{
			"bufferView":33,
			"componentType":5126,
			"count":4,
			"max":[
				4.35097599029541,
				0,
				4.137076377868652
			],
			"min":[
				-3.5742359161376953,
				0,
				-4.53984260559082
			],
			"type":"VEC3"
		},
		{
			"bufferView":34,
			"componentType":5126,
			"count":4,
			"type":"VEC3"
		},
		{
			"bufferView":35,
			"componentType":5126,
			"count":4,
			"type":"VEC2"
		},
		{
			"bufferView":36,
			"componentType":5126,
			"count":4,
			"type":"VEC4"
		},
		{
			"bufferView":37,
			"componentType":5126,
			"count":6,
			"max":[
				3.8135430812835693,
				0,
				3.8813247680664062
			],
			"min":[
				-3.113499641418457,
				0,
				-3.6580448150634766
			],
			"type":"VEC3"
		},
		{
			"bufferView":38,
			"componentType":5126,
			"count":6,
			"type":"VEC3"
		},
		{
			"bufferView":39,
			"componentType":5126,
			"count":6,
			"type":"VEC2"
		},
		{
			"bufferView":40,
			"componentType":5126,
			"count":6,
			"type":"VEC4"
		},
		{
			"bufferView":41,
			"componentType":5123,
			"count":12,
			"type":"SCALAR"
		},
		{
			"bufferView":42,
			"componentType":5126,
			"count":4,
			"max":[
				3.4972383975982666,
				0,
				3.3253095149993896
			],
			"min":[
				-2.872908115386963,
				0,
				-3.649045944213867
			],
			"type":"VEC3"
		},
		{
			"bufferView":43,
			"componentType":5126,
			"count":4,
			"type":"VEC3"
		},
		{
			"bufferView":44,
			"componentType":5126,
			"count":4,
			"type":"VEC2"
		},
		{
			"bufferView":45,
			"componentType":5126,
			"count":4,
			"type":"VEC4"
		},
		{
			"bufferView":46,
			"componentType":5126,
			"count":6,
			"max":[
				3.5597522258758545,
				0,
				3.204406976699829
			],
			"min":[
				-3.451554775238037,
				0,
				-2.8737034797668457
			],
			"type":"VEC3"
		},
		{
			"bufferView":47,
			"componentType":5126,
			"count":6,
			"type":"VEC3"
		},
		{
			"bufferView":48,
			"componentType":5126,
			"count":6,
			"type":"VEC2"
		},
		{
			"bufferView":49,
			"componentType":5126,
			"count":6,
			"type":"VEC4"
		},
		{
			"bufferView":50,
			"componentType":5123,
			"count":12,
			"type":"SCALAR"
		},
		{
			"bufferView":51,
			"componentType":5126,
			"count":4,
			"max":[
				9.158489227294922,
				0,
				14.059789657592773
			],
			"min":[
				-9.124970436096191,
				0,
				-13.330699920654297
			],
			"type":"VEC3"
		},
		{
			"bufferView":52,
			"componentType":5126,
			"count":4,
			"type":"VEC3"
		},
		{
			"bufferView":53,
			"componentType":5126,
			"count":4,
			"type":"VEC2"
		},
		{
			"bufferView":54,
			"componentType":5126,
			"count":4,
			"type":"VEC4"
		},
		{
			"bufferView":55,
			"componentType":5126,
			"count":4,
			"max":[
				3.8135414123535156,
				0,
				4.680049419403076
			],
			"min":[
				-4.3977861404418945,
				0,
				-5.0911078453063965
			],
			"type":"VEC3"
		},
		{
			"bufferView":56,
			"componentType":5126,
			"count":4,
			"type":"VEC3"
		},
		{
			"bufferView":57,
			"componentType":5126,
			"count":4,
			"type":"VEC2"
		},
		{
			"bufferView":58,
			"componentType":5126,
			"count":4,
			"type":"VEC4"
		},
		{
			"bufferView":59,
			"componentType":5126,
			"count":4,
			"max":[
				3.157477617263794,
				0,
				4.0389404296875
			],
			"min":[
				-4.844387531280518,
				0,
				-4.125500202178955
			],
			"type":"VEC3"
		},
		{
			"bufferView":60,
			"componentType":5126,
			"count":4,
			"type":"VEC3"
		},
		{
			"bufferView":61,
			"componentType":5126,
			"count":4,
			"type":"VEC2"
		},
		{
			"bufferView":62,
			"componentType":5126,
			"count":4,
			"type":"VEC4"
		},
		{
			"bufferView":63,
			"componentType":5126,
			"count":4,
			"max":[
				3.3554928302764893,
				0,
				3.4614832401275635
			],
			"min":[
				-3.1391983032226562,
				0,
				-3.736894130706787
			],
			"type":"VEC3"
		},
		{
			"bufferView":64,
			"componentType":5126,
			"count":4,
			"type":"VEC3"
		},
		{
			"bufferView":65,
			"componentType":5126,
			"count":4,
			"type":"VEC2"
		},
		{
			"bufferView":66,
			"componentType":5126,
			"count":4,
			"type":"VEC4"
		},
		{
			"bufferView":67,
			"componentType":5126,
			"count":4,
			"max":[
				0.15976350009441376,
				0,
				1.7767399549484253
			],
			"min":[
				-3.44477915763855,
				0,
				-3.4489779472351074
			],
			"type":"VEC3"
		},
		{
			"bufferView":68,
			"componentType":5126,
			"count":4,
			"type":"VEC3"
		},
		{
			"bufferView":69,
			"componentType":5126,
			"count":4,
			"type":"VEC2"
		},
		{
			"bufferView":70,
			"componentType":5126,
			"count":4,
			"type":"VEC4"
		},
		{
			"bufferView":71,
			"componentType":5126,
			"count":4,
			"max":[
				5.233468055725098,
				0,
				5.652936935424805
			],
			"min":[
				-6.049813747406006,
				0,
				-5.237491607666016
			],
			"type":"VEC3"
		},
		{
			"bufferView":72,
			"componentType":5126,
			"count":4,
			"type":"VEC3"
		},
		{
			"bufferView":73,
			"componentType":5126,
			"count":4,
			"type":"VEC2"
		},
		{
			"bufferView":74,
			"componentType":5126,
			"count":4,
			"type":"VEC4"
		},
		{
			"bufferView":75,
			"componentType":5126,
			"count":31,
			"max":[
				21.964872360229492,
				0,
				15.137259483337402
			],
			"min":[
				-25.17313003540039,
				0,
				-23.64381980895996
			],
			"type":"VEC3"
		},
		{
			"bufferView":76,
			"componentType":5126,
			"count":31,
			"type":"VEC3"
		},
		{
			"bufferView":77,
			"componentType":5126,
			"count":31,
			"type":"VEC2"
		},
		{
			"bufferView":78,
			"componentType":5126,
			"count":31,
			"type":"VEC4"
		},
		{
			"bufferView":79,
			"componentType":5123,
			"count":99,
			"type":"SCALAR"
		},
		{
			"bufferView":80,
			"componentType":5126,
			"count":9,
			"max":[
				4.715725421905518,
				0,
				4.32422399520874
			],
			"min":[
				-4.602187156677246,
				0,
				-5.241349697113037
			],
			"type":"VEC3"
		},
		{
			"bufferView":81,
			"componentType":5126,
			"count":9,
			"type":"VEC3"
		},
		{
			"bufferView":82,
			"componentType":5126,
			"count":9,
			"type":"VEC2"
		},
		{
			"bufferView":83,
			"componentType":5126,
			"count":9,
			"type":"VEC4"
		},
		{
			"bufferView":84,
			"componentType":5123,
			"count":24,
			"type":"SCALAR"
		},
		{
			"bufferView":85,
			"componentType":5126,
			"count":11,
			"max":[
				4.440395355224609,
				0,
				7.236181259155273
			],
			"min":[
				-4.812714099884033,
				0,
				-7.141789436340332
			],
			"type":"VEC3"
		},
		{
			"bufferView":86,
			"componentType":5126,
			"count":11,
			"type":"VEC3"
		},
		{
			"bufferView":87,
			"componentType":5126,
			"count":11,
			"type":"VEC2"
		},
		{
			"bufferView":88,
			"componentType":5126,
			"count":11,
			"type":"VEC4"
		},
		{
			"bufferView":89,
			"componentType":5123,
			"count":30,
			"type":"SCALAR"
		},
		{
			"bufferView":90,
			"componentType":5126,
			"count":11,
			"max":[
				7.670153617858887,
				0,
				3.0410239696502686
			],
			"min":[
				-6.4164228439331055,
				0,
				-3.0293986797332764
			],
			"type":"VEC3"
		},
		{
			"bufferView":91,
			"componentType":5126,
			"count":11,
			"type":"VEC3"
		},
		{
			"bufferView":92,
			"componentType":5126,
			"count":11,
			"type":"VEC2"
		},
		{
			"bufferView":93,
			"componentType":5126,
			"count":11,
			"type":"VEC4"
		},
		{
			"bufferView":94,
			"componentType":5123,
			"count":24,
			"type":"SCALAR"
		},
		{
			"bufferView":95,
			"componentType":5126,
			"count":14,
			"max":[
				7.743475914001465,
				0,
				9.95332145690918
			],
			"min":[
				-8.850859642028809,
				0,
				-7.814939498901367
			],
			"type":"VEC3"
		},
		{
			"bufferView":96,
			"componentType":5126,
			"count":14,
			"type":"VEC3"
		},
		{
			"bufferView":97,
			"componentType":5126,
			"count":14,
			"type":"VEC2"
		},
		{
			"bufferView":98,
			"componentType":5126,
			"count":14,
			"type":"VEC4"
		},
		{
			"bufferView":99,
			"componentType":5123,
			"count":39,
			"type":"SCALAR"
		},
		{
			"bufferView":100,
			"componentType":5126,
			"count":6,
			"max":[
				12.138567924499512,
				0,
				12.083150863647461
			],
			"min":[
				-9.237039566040039,
				0,
				-12.313880920410156
			],
			"type":"VEC3"
		},
		{
			"bufferView":101,
			"componentType":5126,
			"count":6,
			"type":"VEC3"
		},
		{
			"bufferView":102,
			"componentType":5126,
			"count":6,
			"type":"VEC2"
		},
		{
			"bufferView":103,
			"componentType":5126,
			"count":6,
			"type":"VEC4"
		},
		{
			"bufferView":104,
			"componentType":5126,
			"count":8,
			"max":[
				9.501861572265625,
				0,
				9.609031677246094
			],
			"min":[
				-20.059022903442383,
				0,
				-12.272114753723145
			],
			"type":"VEC3"
		},
		{
			"bufferView":105,
			"componentType":5126,
			"count":8,
			"type":"VEC3"
		},
		{
			"bufferView":106,
			"componentType":5126,
			"count":8,
			"type":"VEC2"
		},
		{
			"bufferView":107,
			"componentType":5126,
			"count":8,
			"type":"VEC4"
		},
		{
			"bufferView":108,
			"componentType":5123,
			"count":12,
			"type":"SCALAR"
		}
	],
	"bufferViews":[
		{
			"buffer":0,
			"byteLength":216,
			"byteOffset":0,
			"target":34962
		},
		{
			"buffer":0,
			"byteLength":216,
			"byteOffset":216,
			"target":34962
		},
		{
			"buffer":0,
			"byteLength":144,
			"byteOffset":432,
			"target":34962
		},
		{
			"buffer":0,
			"byteLength":288,
			"byteOffset":576,
			"target":34962
		},
		{
			"buffer":0,
			"byteLength":96,
			"byteOffset":864,
			"target":34963
		},
		{
			"buffer":0,
			"byteLength":132,
			"byteOffset":960,
			"target":34962
		},
		{
			"buffer":0,
			"byteLength":132,
			"byteOffset":1092,
			"target":34962
		},
		{
			"buffer":0,
			"byteLength":88,
			"byteOffset":1224,
			"target":34962
		},
		{
			"buffer":0,
			"byteLength":176,
			"byteOffset":1312,
			"target":34962
		},
		{
			"buffer":0,
			"byteLength":54,
			"byteOffset":1488,
			"target":34963
		},
		{
			"buffer":0,
			"byteLength":348,
			"byteOffset":1544,
			"target":34962
		},
		{
			"buffer":0,
			"byteLength":348,
			"byteOffset":1892,
			"target":34962
		},
		{
			"buffer":0,
			"byteLength":232,
			"byteOffset":2240,
			"target":34962
		},
		{
			"buffer":0,
			"byteLength":464,
			"byteOffset":2472,
			"target":34962
		},
		{
			"buffer":0,
			"byteLength":174,
			"byteOffset":2936,
			"target":34963
		},
		{
			"buffer":0,
			"byteLength":768,
			"byteOffset":3112,
			"target":34962
		},
		{
			"buffer":0,
			"byteLength":768,
			"byteOffset":3880,
			"target":34962
		},
		{
			"buffer":0,
			"byteLength":512,
			"byteOffset":4648,
			"target":34962
		},
		{
			"buffer":0,
			"byteLength":1024,
			"byteOffset":5160,
			"target":34962
		},
		{
			"buffer":0,
			"byteLength":192,
			"byteOffset":6184,
			"target":34963
		},
		{
			"buffer":0,
			"byteLength":48,
			"byteOffset":6376,
			"target":34962
		},
		{
			"buffer":0,
			"byteLength":48,
			"byteOffset":6424,
			"target":34962
		},
		{
			"buffer":0,
			"byteLength":32,
			"byteOffset":6472,
			"target":34962
		},
		{
			"buffer":0,
			"byteLength":64,
			"byteOffset":6504,
			"target":34962
		},
		{
			"buffer":0,
			"byteLength":12,
			"byteOffset":6568,
			"target":34963
		},
		{
			"buffer":0,
			"byteLength":48,
			"byteOffset":6580,
			"target":34962
		},
		{
			"buffer":0,
			"byteLength":48,
			"byteOffset":6628,
			"target":34962
		},
		{
			"buffer":0,
			"byteLength":32,
			"byteOffset":6676,
			"target":34962
		},
		{
			"buffer":0,
			"byteLength":64,
			"byteOffset":6708,
			"target":34962
		},
		{
			"buffer":0,
			"byteLength":48,
			"byteOffset":6772,
			"target":34962
		},
		{
			"buffer":0,
			"byteLength":48,
			"byteOffset":6820,
			"target":34962
		},
		{
			"buffer":0,
			"byteLength":32,
			"byteOffset":6868,
			"target":34962
		},
		{
			"buffer":0,
			"byteLength":64,
			"byteOffset":6900,
			"target":34962
		},
		{
			"buffer":0,
			"byteLength":48,
			"byteOffset":6964,
			"target":34962
		},
		{
			"buffer":0,
			"byteLength":48,
			"byteOffset":7012,
			"target":34962
		},
		{
			"buffer":0,
			"byteLength":32,
			"byteOffset":7060,
			"target":34962
		},
		{
			"buffer":0,
			"byteLength":64,
			"byteOffset":7092,
			"target":34962
		},
		{
			"buffer":0,
			"byteLength":72,
			"byteOffset":7156,
			"target":34962
		},
		{
			"buffer":0,
			"byteLength":72,
			"byteOffset":7228,
			"target":34962
		},
		{
			"buffer":0,
			"byteLength":48,
			"byteOffset":7300,
			"target":34962
		},
		{
			"buffer":0,
			"byteLength":96,
			"byteOffset":7348,
			"target":34962
		},
		{
			"buffer":0,
			"byteLength":24,
			"byteOffset":7444,
			"target":34963
		},
		{
			"buffer":0,
			"byteLength":48,
			"byteOffset":7468,
			"target":34962
		},
		{
			"buffer":0,
			"byteLength":48,
			"byteOffset":7516,
			"target":34962
		},
		{
			"buffer":0,
			"byteLength":32,
			"byteOffset":7564,
			"target":34962
		},
		{
			"buffer":0,
			"byteLength":64,
			"byteOffset":7596,
			"target":34962
		},
		{
			"buffer":0,
			"byteLength":72,
			"byteOffset":7660,
			"target":34962
		},
		{
			"buffer":0,
			"byteLength":72,
			"byteOffset":7732,
			"target":34962
		},
		{
			"buffer":0,
			"byteLength":48,
			"byteOffset":7804,
			"target":34962
		},
		{
			"buffer":0,
			"byteLength":96,
			"byteOffset":7852,
			"target":34962
		},
		{
			"buffer":0,
			"byteLength":24,
			"byteOffset":7948,
			"target":34963
		},
		{
			"buffer":0,
			"byteLength":48,
			"byteOffset":7972,
			"target":34962
		},
		{
			"buffer":0,
			"byteLength":48,
			"byteOffset":8020,
			"target":34962
		},
		{
			"buffer":0,
			"byteLength":32,
			"byteOffset":8068,
			"target":34962
		},
		{
			"buffer":0,
			"byteLength":64,
			"byteOffset":8100,
			"target":34962
		},
		{
			"buffer":0,
			"byteLength":48,
			"byteOffset":8164,
			"target":34962
		},
		{
			"buffer":0,
			"byteLength":48,
			"byteOffset":8212,
			"target":34962
		},
		{
			"buffer":0,
			"byteLength":32,
			"byteOffset":8260,
			"target":34962
		},
		{
			"buffer":0,
			"byteLength":64,
			"byteOffset":8292,
			"target":34962
		},
		{
			"buffer":0,
			"byteLength":48,
			"byteOffset":8356,
			"target":34962
		},
		{
			"buffer":0,
			"byteLength":48,
			"byteOffset":8404,
			"target":34962
		},
		{
			"buffer":0,
			"byteLength":32,
			"byteOffset":8452,
			"target":34962
		},
		{
			"buffer":0,
			"byteLength":64,
			"byteOffset":8484,
			"target":34962
		},
		{
			"buffer":0,
			"byteLength":48,
			"byteOffset":8548,
			"target":34962
		},
		{
			"buffer":0,
			"byteLength":48,
			"byteOffset":8596,
			"target":34962
		},
		{
			"buffer":0,
			"byteLength":32,
			"byteOffset":8644,
			"target":34962
		},
		{
			"buffer":0,
			"byteLength":64,
			"byteOffset":8676,
			"target":34962
		},
		{
			"buffer":0,
			"byteLength":48,
			"byteOffset":8740,
			"target":34962
		},
		{
			"buffer":0,
			"byteLength":48,
			"byteOffset":8788,
			"target":34962
		},
		{
			"buffer":0,
			"byteLength":32,
			"byteOffset":8836,
			"target":34962
		},
		{
			"buffer":0,
			"byteLength":64,
			"byteOffset":8868,
			"target":34962
		},
		{
			"buffer":0,
			"byteLength":48,
			"byteOffset":8932,
			"target":34962
		},
		{
			"buffer":0,
			"byteLength":48,
			"byteOffset":8980,
			"target":34962
		},
		{
			"buffer":0,
			"byteLength":32,
			"byteOffset":9028,
			"target":34962
		},
		{
			"buffer":0,
			"byteLength":64,
			"byteOffset":9060,
			"target":34962
		},
		{
			"buffer":0,
			"byteLength":372,
			"byteOffset":9124,
			"target":34962
		},
		{
			"buffer":0,
			"byteLength":372,
			"byteOffset":9496,
			"target":34962
		},
		{
			"buffer":0,
			"byteLength":248,
			"byteOffset":9868,
			"target":34962
		},
		{
			"buffer":0,
			"byteLength":496,
			"byteOffset":10116,
			"target":34962
		},
		{
			"buffer":0,
			"byteLength":198,
			"byteOffset":10612,
			"target":34963
		},
		{
			"buffer":0,
			"byteLength":108,
			"byteOffset":10812,
			"target":34962
		},
		{
			"buffer":0,
			"byteLength":108,
			"byteOffset":10920,
			"target":34962
		},
		{
			"buffer":0,
			"byteLength":72,
			"byteOffset":11028,
			"target":34962
		},
		{
			"buffer":0,
			"byteLength":144,
			"byteOffset":11100,
			"target":34962
		},
		{
			"buffer":0,
			"byteLength":48,
			"byteOffset":11244,
			"target":34963
		},
		{
			"buffer":0,
			"byteLength":132,
			"byteOffset":11292,
			"target":34962
		},
		{
			"buffer":0,
			"byteLength":132,
			"byteOffset":11424,
			"target":34962
		},
		{
			"buffer":0,
			"byteLength":88,
			"byteOffset":11556,
			"target":34962
		},
		{
			"buffer":0,
			"byteLength":176,
			"byteOffset":11644,
			"target":34962
		},
		{
			"buffer":0,
			"byteLength":60,
			"byteOffset":11820,
			"target":34963
		},
		{
			"buffer":0,
			"byteLength":132,
			"byteOffset":11880,
			"target":34962
		},
		{
			"buffer":0,
			"byteLength":132,
			"byteOffset":12012,
			"target":34962
		},
		{
			"buffer":0,
			"byteLength":88,
			"byteOffset":12144,
			"target":34962
		},
		{
			"buffer":0,
			"byteLength":176,
			"byteOffset":12232,
			"target":34962
		},
		{
			"buffer":0,
			"byteLength":48,
			"byteOffset":12408,
			"target":34963
		},
		{
			"buffer":0,
			"byteLength":168,
			"byteOffset":12456,
			"target":34962
		},
		{
			"buffer":0,
			"byteLength":168,
			"byteOffset":12624,
			"target":34962
		},
		{
			"buffer":0,
			"byteLength":112,
			"byteOffset":12792,
			"target":34962
		},
		{
			"buffer":0,
			"byteLength":224,
			"byteOffset":12904,
			"target":34962
		},
		{
			"buffer":0,
			"byteLength":78,
			"byteOffset":13128,
			"target":34963
		},
		{
			"buffer":0,
			"byteLength":72,
			"byteOffset":13208,
			"target":34962
		},
		{
			"buffer":0,
			"byteLength":72,
			"byteOffset":13280,
			"target":34962
		},
		{
			"buffer":0,
			"byteLength":48,
			"byteOffset":13352,
			"target":34962
		},
		{
			"buffer":0,
			"byteLength":96,
			"byteOffset":13400,
			"target":34962
		},
		{
			"buffer":0,
			"byteLength":96,
			"byteOffset":13496,
			"target":34962
		},
		{
			"buffer":0,
			"byteLength":96,
			"byteOffset":13592,
			"target":34962
		},
		{
			"buffer":0,
			"byteLength":64,
			"byteOffset":13688,
			"target":34962
		},
		{
			"buffer":0,
			"byteLength":128,
			"byteOffset":13752,
			"target":34962
		},
		{
			"buffer":0,
			"byteLength":24,
			"byteOffset":13880,
			"target":34963
		}
	],
	"samplers":[
		{
			"magFilter":9729,
			"minFilter":9987
		}
	],
	"buffers":[
		{
			"byteLength":13904,
			"uri":"lvl2-islands.bin"
		}
	]
}
