{
	"asset":{
		"generator":"Khronos glTF Blender I/O v4.2.69",
		"version":"2.0"
	},
	"scene":0,
	"scenes":[
		{
			"name":"Scene",
			"nodes":[
				0
			]
		}
	],
	"nodes":[
		{
			"mesh":0,
			"name":"Cube.195"
		}
	],
	"materials":[
		{
			"doubleSided":true,
			"name":"Material.001",
			"normalTexture":{
				"index":0
			},
			"pbrMetallicRoughness":{
				"baseColorTexture":{
					"index":1
				},
				"metallicRoughnessTexture":{
					"index":2
				}
			}
		}
	],
	"meshes":[
		{
			"name":"Cube.254",
			"primitives":[
				{
					"attributes":{
						"POSITION":0,
						"NORMAL":1,
						"TEXCOORD_0":2
					},
					"indices":3,
					"material":0
				}
			]
		}
	],
	"textures":[
		{
			"sampler":0,
			"source":0
		},
		{
			"sampler":0,
			"source":1
		},
		{
			"sampler":0,
			"source":2
		}
	],
	"images":[
		{
			"mimeType":"image/png",
			"name":"TX_House_Individual_M_House_Normal",
			"uri":"TX_House_Individual_M_House_Normal.png"
		},
		{
			"mimeType":"image/png",
			"name":"TCom_Gore_2K_ao",
			"uri":"TCom_Gore_2K_ao.png"
		},
		{
			"mimeType":"image/png",
			"name":"TX_houseAtlas_roughnessMetallic_V1",
			"uri":"TX_houseAtlas_roughnessMetallic_V1.png"
		}
	],
	"accessors":[
		{
			"bufferView":0,
			"componentType":5126,
			"count":9039,
			"max":[
				218.12890625,
				44.77653503417969,
				147.55804443359375
			],
			"min":[
				-132.39788818359375,
				-337.2833251953125,
				-191.13479614257812
			],
			"type":"VEC3"
		},
		{
			"bufferView":1,
			"componentType":5126,
			"count":9039,
			"type":"VEC3"
		},
		{
			"bufferView":2,
			"componentType":5126,
			"count":9039,
			"type":"VEC2"
		},
		{
			"bufferView":3,
			"componentType":5123,
			"count":14619,
			"type":"SCALAR"
		}
	],
	"bufferViews":[
		{
			"buffer":0,
			"byteLength":108468,
			"byteOffset":0,
			"target":34962
		},
		{
			"buffer":0,
			"byteLength":108468,
			"byteOffset":108468,
			"target":34962
		},
		{
			"buffer":0,
			"byteLength":72312,
			"byteOffset":216936,
			"target":34962
		},
		{
			"buffer":0,
			"byteLength":29238,
			"byteOffset":289248,
			"target":34963
		}
	],
	"samplers":[
		{
			"magFilter":9729,
			"minFilter":9987
		}
	],
	"buffers":[
		{
			"byteLength":318488,
			"uri":"lvl2-blockout.bin"
		}
	]
}
