{
	"asset":{
		"generator":"Khronos glTF Blender I/O v4.2.69",
		"version":"2.0"
	},
	"scene":0,
	"scenes":[
		{
			"name":"Scene",
			"nodes":[
				3
			]
		}
	],
	"nodes":[
		{
			"name":"hole_01_JNT",
			"rotation":[
				-0.7071067690849304,
				0,
				0,
				0.7071067690849304
			],
			"translation":[
				-2.8299076557159424,
				3.2781786918640137,
				0
			]
		},
		{
			"mesh":0,
			"name":"hole_bind",
			"skin":0
		},
		{
			"children":[
				1,
				0
			],
			"name":"hole"
		},
		{
			"children":[
				2
			],
			"name":"vfx_spawnPoooka",
			"rotation":[
				0.7071068286895752,
				0,
				0,
				0.7071068286895752
			],
			"scale":[
				0.009999999776482582,
				0.009999999776482582,
				0.009999999776482582
			]
		}
	],
	"animations":[
		{
			"channels":[
				{
					"sampler":0,
					"target":{
						"node":0,
						"path":"translation"
					}
				},
				{
					"sampler":1,
					"target":{
						"node":0,
						"path":"rotation"
					}
				},
				{
					"sampler":2,
					"target":{
						"node":0,
						"path":"scale"
					}
				}
			],
			"samplers":[
				{
					"input":7,
					"interpolation":"STEP",
					"output":8
				},
				{
					"input":7,
					"interpolation":"STEP",
					"output":9
				},
				{
					"input":10,
					"interpolation":"LINEAR",
					"output":11
				}
			]
		}
	],
	"materials":[
		{
			"alphaMode":"BLEND",
			"doubleSided":true,
			"name":"pasted__lambert2",
			"pbrMetallicRoughness":{
				"baseColorTexture":{
					"index":0
				},
				"metallicFactor":0,
				"roughnessFactor":0.5527864098548889
			}
		}
	],
	"meshes":[
		{
			"name":"Mesh",
			"primitives":[
				{
					"attributes":{
						"POSITION":0,
						"NORMAL":1,
						"TEXCOORD_0":2,
						"JOINTS_0":3,
						"WEIGHTS_0":4
					},
					"indices":5,
					"material":0
				}
			]
		}
	],
	"textures":[
		{
			"sampler":0,
			"source":0
		}
	],
	"images":[
		{
			"mimeType":"image/png",
			"name":"hole",
			"uri":"hole.png"
		}
	],
	"skins":[
		{
			"inverseBindMatrices":6,
			"joints":[
				0
			],
			"name":"hole"
		}
	],
	"accessors":[
		{
			"bufferView":0,
			"componentType":5126,
			"count":36,
			"max":[
				0.4605242908000946,
				3.476861110129903e-08,
				0.46052423119544983
			],
			"min":[
				-0.4605242908000946,
				-3.476861110129903e-08,
				-0.46052423119544983
			],
			"type":"VEC3"
		},
		{
			"bufferView":1,
			"componentType":5126,
			"count":36,
			"type":"VEC3"
		},
		{
			"bufferView":2,
			"componentType":5126,
			"count":36,
			"type":"VEC2"
		},
		{
			"bufferView":3,
			"componentType":5121,
			"count":36,
			"type":"VEC4"
		},
		{
			"bufferView":4,
			"componentType":5126,
			"count":36,
			"type":"VEC4"
		},
		{
			"bufferView":5,
			"componentType":5123,
			"count":150,
			"type":"SCALAR"
		},
		{
			"bufferView":6,
			"componentType":5126,
			"count":1,
			"type":"MAT4"
		},
		{
			"bufferView":7,
			"componentType":5126,
			"count":2,
			"max":[
				1
			],
			"min":[
				0.5416666666666666
			],
			"type":"SCALAR"
		},
		{
			"bufferView":8,
			"componentType":5126,
			"count":2,
			"type":"VEC3"
		},
		{
			"bufferView":9,
			"componentType":5126,
			"count":2,
			"type":"VEC4"
		},
		{
			"bufferView":10,
			"componentType":5126,
			"count":12,
			"max":[
				1
			],
			"min":[
				0.5416666666666666
			],
			"type":"SCALAR"
		},
		{
			"bufferView":11,
			"componentType":5126,
			"count":12,
			"type":"VEC3"
		}
	],
	"bufferViews":[
		{
			"buffer":0,
			"byteLength":432,
			"byteOffset":0,
			"target":34962
		},
		{
			"buffer":0,
			"byteLength":432,
			"byteOffset":432,
			"target":34962
		},
		{
			"buffer":0,
			"byteLength":288,
			"byteOffset":864,
			"target":34962
		},
		{
			"buffer":0,
			"byteLength":144,
			"byteOffset":1152,
			"target":34962
		},
		{
			"buffer":0,
			"byteLength":576,
			"byteOffset":1296,
			"target":34962
		},
		{
			"buffer":0,
			"byteLength":300,
			"byteOffset":1872,
			"target":34963
		},
		{
			"buffer":0,
			"byteLength":64,
			"byteOffset":2172
		},
		{
			"buffer":0,
			"byteLength":8,
			"byteOffset":2236
		},
		{
			"buffer":0,
			"byteLength":24,
			"byteOffset":2244
		},
		{
			"buffer":0,
			"byteLength":32,
			"byteOffset":2268
		},
		{
			"buffer":0,
			"byteLength":48,
			"byteOffset":2300
		},
		{
			"buffer":0,
			"byteLength":144,
			"byteOffset":2348
		}
	],
	"samplers":[
		{
			"magFilter":9729,
			"minFilter":9987
		}
	],
	"buffers":[
		{
			"byteLength":2492,
			"uri":"Mesh_pooka_spawn_hole.bin"
		}
	]
}
