{
  "asset": {
    "generator": "UnityGltf 2.17.6, Unity 6000.0.29f1, URP",
    "version": "2.0"
  },
  "extensionsUsed": [
    "KHR_texture_transform"
  ],
  "scene": 0,
  "scenes": [
    {
      "nodes": [
        0
      ],
      "name": "Mesh_digging_hole"
    }
  ],
  "accessors": [
    {
      "bufferView": 0,
      "componentType": 5126,
      "count": 121,
      "type": "VEC3",
      "max": [
        0.35518226027488708,
        0.0,
        0.7751803994178772
      ],
      "min": [
        -0.35518226027488708,
        0.0,
        0.0648157075047493
      ]
    },
    {
      "bufferView": 1,
      "componentType": 5126,
      "count": 121,
      "type": "VEC3",
      "max": [
        0.0,
        1.0,
        0.0
      ],
      "min": [
        0.0,
        1.0,
        0.0
      ]
    },
    {
      "bufferView": 2,
      "componentType": 5126,
      "count": 121,
      "type": "VEC4",
      "max": [
        0.0,
        0.0,
        1.0,
        1.0
      ],
      "min": [
        0.0,
        0.0,
        1.0,
        1.0
      ]
    },
    {
      "bufferView": 3,
      "componentType": 5126,
      "count": 121,
      "type": "VEC2",
      "max": [
        0.98410701751708984,
        0.60599029064178467
      ],
      "min": [
        0.535966694355011,
        0.24926799535751343
      ]
    },
    {
      "bufferView": 4,
      "componentType": 5121,
      "count": 600,
      "type": "SCALAR",
      "max": [
        120.0
      ],
      "min": [
        0.0
      ]
    },
    {
      "bufferView": 5,
      "componentType": 5126,
      "count": 34,
      "type": "SCALAR",
      "max": [
        2.625
      ],
      "min": [
        0.0
      ]
    },
    {
      "bufferView": 6,
      "componentType": 5126,
      "count": 34,
      "type": "VEC3",
      "max": [
        -0.035858023911714554,
        0.0,
        0.44316551089286804
      ],
      "min": [
        -0.035858023911714554,
        -0.29032084345817566,
        0.44316551089286804
      ]
    },
    {
      "bufferView": 7,
      "componentType": 5126,
      "count": 2,
      "type": "SCALAR",
      "max": [
        2.625
      ],
      "min": [
        0.0
      ]
    },
    {
      "bufferView": 8,
      "componentType": 5126,
      "count": 2,
      "type": "VEC4",
      "max": [
        0.0,
        0.0,
        0.0,
        -1.0
      ],
      "min": [
        0.0,
        0.0,
        0.0,
        -1.0
      ]
    },
    {
      "bufferView": 9,
      "componentType": 5126,
      "count": 64,
      "type": "SCALAR",
      "max": [
        2.625
      ],
      "min": [
        0.0
      ]
    },
    {
      "bufferView": 10,
      "componentType": 5126,
      "count": 64,
      "type": "VEC3",
      "max": [
        0.99943161010742188,
        0.99943161010742188,
        0.99943161010742188
      ],
      "min": [
        0.10000000149011612,
        0.10000000149011612,
        0.10000000149011612
      ]
    },
    {
      "bufferView": 11,
      "componentType": 5126,
      "count": 1,
      "type": "MAT4"
    },
    {
      "bufferView": 12,
      "componentType": 5123,
      "count": 121,
      "type": "VEC4",
      "max": [
        0.0,
        0.0,
        0.0,
        0.0
      ],
      "min": [
        0.0,
        0.0,
        0.0,
        0.0
      ]
    },
    {
      "bufferView": 13,
      "componentType": 5126,
      "count": 121,
      "type": "VEC4",
      "max": [
        1.0,
        0.0,
        0.0,
        0.0
      ],
      "min": [
        1.0,
        0.0,
        0.0,
        0.0
      ]
    }
  ],
  "animations": [
    {
      "channels": [
        {
          "sampler": 0,
          "target": {
            "node": 1,
            "path": "translation"
          }
        },
        {
          "sampler": 1,
          "target": {
            "node": 1,
            "path": "rotation"
          }
        },
        {
          "sampler": 2,
          "target": {
            "node": 1,
            "path": "scale"
          }
        }
      ],
      "samplers": [
        {
          "input": 5,
          "interpolation": "LINEAR",
          "output": 6
        },
        {
          "input": 7,
          "interpolation": "LINEAR",
          "output": 8
        },
        {
          "input": 9,
          "interpolation": "LINEAR",
          "output": 10
        }
      ],
      "name": "Take 001"
    }
  ],
  "buffers": [
    {
      "uri": "Mesh_digging_hole.bin",
      "byteLength": 10984
    }
  ],
  "bufferViews": [
    {
      "buffer": 0,
      "byteLength": 1452,
      "byteStride": 12,
      "target": 34962
    },
    {
      "buffer": 0,
      "byteOffset": 1452,
      "byteLength": 1452,
      "byteStride": 12,
      "target": 34962
    },
    {
      "buffer": 0,
      "byteOffset": 2904,
      "byteLength": 1936,
      "target": 34962
    },
    {
      "buffer": 0,
      "byteOffset": 4840,
      "byteLength": 968,
      "target": 34962
    },
    {
      "buffer": 0,
      "byteOffset": 5808,
      "byteLength": 600,
      "target": 34963
    },
    {
      "buffer": 0,
      "byteOffset": 6408,
      "byteLength": 136
    },
    {
      "buffer": 0,
      "byteOffset": 6544,
      "byteLength": 408
    },
    {
      "buffer": 0,
      "byteOffset": 6952,
      "byteLength": 8
    },
    {
      "buffer": 0,
      "byteOffset": 6960,
      "byteLength": 32
    },
    {
      "buffer": 0,
      "byteOffset": 6992,
      "byteLength": 256
    },
    {
      "buffer": 0,
      "byteOffset": 7248,
      "byteLength": 768
    },
    {
      "buffer": 0,
      "byteOffset": 8016,
      "byteLength": 64
    },
    {
      "buffer": 0,
      "byteOffset": 8080,
      "byteLength": 968,
      "target": 34962
    },
    {
      "buffer": 0,
      "byteOffset": 9048,
      "byteLength": 1936,
      "target": 34962
    }
  ],
  "images": [
    {
      "uri": "Sprite_Hole_dig_texture.png",
      "name": "Sprite_Hole_dig_texture"
    }
  ],
  "materials": [
    {
      "pbrMetallicRoughness": {
        "baseColorTexture": {
          "index": 0,
          "extensions": {
            "KHR_texture_transform": {
              "texCoord": 0
            }
          }
        },
        "metallicFactor": 0.0
      },
      "alphaMode": "BLEND",
      "name": "lambert1"
    }
  ],
  "meshes": [
    {
      "primitives": [
        {
          "attributes": {
            "POSITION": 0,
            "NORMAL": 1,
            "TANGENT": 2,
            "TEXCOORD_0": 3,
            "JOINTS_0": 12,
            "WEIGHTS_0": 13
          },
          "indices": 4,
          "material": 0
        }
      ],
      "name": "Mesh_digging_hole"
    }
  ],
  "nodes": [
    {
      "children": [
        1
      ],
      "skin": 0,
      "mesh": 0,
      "name": "Mesh_digging_hole"
    },
    {
      "scale": [
        0.858133435,
        0.858133435,
        0.858133435
      ],
      "translation": [
        -0.0358580239,
        0.0,
        0.4431655
      ],
      "name": "joint36"
    }
  ],
  "samplers": [
    {
      "minFilter": 9987
    }
  ],
  "skins": [
    {
      "inverseBindMatrices": 11,
      "joints": [
        1
      ]
    }
  ],
  "textures": [
    {
      "sampler": 0,
      "source": 0,
      "name": "Sprite_Hole_dig_texture"
    }
  ]
}