{
	"asset":{
		"generator":"Khronos glTF Blender I/O v4.2.69",
		"version":"2.0"
	},
	"scene":0,
	"scenes":[
		{
			"name":"Scene",
			"nodes":[
				0,
				1
			]
		}
	],
	"nodes":[
		{
			"mesh":0,
			"name":"Cylinder.119",
			"rotation":[
				0,
				0.8660253882408142,
				0,
				0.5
			]
		},
		{
			"mesh":1,
			"name":"Cylinder.121",
			"scale":[
				1.2666809558868408,
				1,
				1.2666809558868408
			]
		}
	],
	"materials":[
		{
			"doubleSided":true,
			"name":"M_pooka_painting_decal",
			"pbrMetallicRoughness":{
				"baseColorTexture":{
					"index":0
				},
				"metallicFactor":0
			}
		},
		{
			"doubleSided":true,
			"name":"M_Boss_Arena_lvl2",
			"normalTexture":{
				"index":1
			},
			"pbrMetallicRoughness":{
				"baseColorTexture":{
					"index":2
				},
				"metallicFactor":0
			}
		}
	],
	"meshes":[
		{
			"name":"Cylinder.094",
			"primitives":[
				{
					"attributes":{
						"POSITION":0,
						"NORMAL":1,
						"TEXCOORD_0":2,
						"TEXCOORD_1":3,
						"TANGENT":4
					},
					"indices":5,
					"material":0
				}
			]
		},
		{
			"name":"Cylinder.096",
			"primitives":[
				{
					"attributes":{
						"POSITION":6,
						"NORMAL":7,
						"TEXCOORD_0":8,
						"TEXCOORD_1":9,
						"TANGENT":10
					},
					"indices":11,
					"material":1
				}
			]
		}
	],
	"textures":[
		{
			"sampler":0,
			"source":0
		},
		{
			"sampler":0,
			"source":1
		},
		{
			"sampler":0,
			"source":2
		}
	],
	"images":[
		{
			"mimeType":"image/png",
			"name":"TX_decal_Level2_pookapainting",
			"uri":"TX_decal_Level2_pookapainting.png"
		},
		{
			"mimeType":"image/png",
			"name":"Floor_Plane_LP_DefaultMaterial_Normal",
			"uri":"Floor_Plane_LP_DefaultMaterial_Normal.png"
		},
		{
			"mimeType":"image/png",
			"name":"arena-lp_DefaultMaterial_BaseColor1",
			"uri":"arena-lp_DefaultMaterial_BaseColor1.png"
		}
	],
	"accessors":[
		{
			"bufferView":0,
			"componentType":5126,
			"count":279,
			"max":[
				0.9616954922676086,
				0.10776325315237045,
				0.8216545581817627
			],
			"min":[
				-1.011136770248413,
				-0.18898004293441772,
				-0.7365646362304688
			],
			"type":"VEC3"
		},
		{
			"bufferView":1,
			"componentType":5126,
			"count":279,
			"type":"VEC3"
		},
		{
			"bufferView":2,
			"componentType":5126,
			"count":279,
			"type":"VEC2"
		},
		{
			"bufferView":3,
			"componentType":5126,
			"count":279,
			"type":"VEC2"
		},
		{
			"bufferView":4,
			"componentType":5126,
			"count":279,
			"type":"VEC4"
		},
		{
			"bufferView":5,
			"componentType":5123,
			"count":486,
			"type":"SCALAR"
		},
		{
			"bufferView":6,
			"componentType":5126,
			"count":155,
			"max":[
				0.5371503829956055,
				0.11936403065919876,
				0.5618444681167603
			],
			"min":[
				-0.508611798286438,
				-0.20507730543613434,
				-0.5798513293266296
			],
			"type":"VEC3"
		},
		{
			"bufferView":7,
			"componentType":5126,
			"count":155,
			"type":"VEC3"
		},
		{
			"bufferView":8,
			"componentType":5126,
			"count":155,
			"type":"VEC2"
		},
		{
			"bufferView":9,
			"componentType":5126,
			"count":155,
			"type":"VEC2"
		},
		{
			"bufferView":10,
			"componentType":5126,
			"count":155,
			"type":"VEC4"
		},
		{
			"bufferView":11,
			"componentType":5123,
			"count":270,
			"type":"SCALAR"
		}
	],
	"bufferViews":[
		{
			"buffer":0,
			"byteLength":3348,
			"byteOffset":0,
			"target":34962
		},
		{
			"buffer":0,
			"byteLength":3348,
			"byteOffset":3348,
			"target":34962
		},
		{
			"buffer":0,
			"byteLength":2232,
			"byteOffset":6696,
			"target":34962
		},
		{
			"buffer":0,
			"byteLength":2232,
			"byteOffset":8928,
			"target":34962
		},
		{
			"buffer":0,
			"byteLength":4464,
			"byteOffset":11160,
			"target":34962
		},
		{
			"buffer":0,
			"byteLength":972,
			"byteOffset":15624,
			"target":34963
		},
		{
			"buffer":0,
			"byteLength":1860,
			"byteOffset":16596,
			"target":34962
		},
		{
			"buffer":0,
			"byteLength":1860,
			"byteOffset":18456,
			"target":34962
		},
		{
			"buffer":0,
			"byteLength":1240,
			"byteOffset":20316,
			"target":34962
		},
		{
			"buffer":0,
			"byteLength":1240,
			"byteOffset":21556,
			"target":34962
		},
		{
			"buffer":0,
			"byteLength":2480,
			"byteOffset":22796,
			"target":34962
		},
		{
			"buffer":0,
			"byteLength":540,
			"byteOffset":25276,
			"target":34963
		}
	],
	"samplers":[
		{
			"magFilter":9729,
			"minFilter":9987
		}
	],
	"buffers":[
		{
			"byteLength":25816,
			"uri":"Missing_materials.bin"
		}
	]
}
