{
	"asset":{
		"generator":"Khronos glTF Blender I/O v4.2.69",
		"version":"2.0"
	},
	"extensionsUsed":[
		"KHR_materials_emissive_strength"
	],
	"scene":0,
	"scenes":[
		{
			"name":"Scene",
			"nodes":[
				1,
				2,
				3,
				4,
				5,
				6,
				7
			]
		}
	],
	"nodes":[
		{
			"name":"material"
		},
		{
			"children":[
				0
			],
			"name":"root",
			"rotation":[
				0.7071068286895752,
				0,
				0,
				0.7071068286895752
			]
		},
		{
			"mesh":0,
			"name":"EN_Mushroom_RoundSmall_LP_Cluster",
			"rotation":[
				0.7071068286895752,
				0,
				0,
				0.7071068286895752
			],
			"scale":[
				0.009999999776482582,
				0.009999999776482582,
				0.009999999776482582
			]
		},
		{
			"mesh":1,
			"name":"EN_Mushroom_RoundSmall_LP_Single",
			"rotation":[
				0.7071068286895752,
				0,
				0,
				0.7071068286895752
			],
			"scale":[
				0.009999999776482582,
				0.009999999776482582,
				0.009999999776482582
			]
		},
		{
			"mesh":2,
			"name":"EN_Mushroom_RoundMid_LP_Cluster",
			"rotation":[
				0.7071068286895752,
				0,
				0,
				0.7071068286895752
			],
			"scale":[
				0.009999999776482582,
				0.009999999776482582,
				0.009999999776482582
			]
		},
		{
			"mesh":3,
			"name":"EN_Mushroom_RoundMid_LP_Single",
			"rotation":[
				0.7071068286895752,
				0,
				0,
				0.7071068286895752
			],
			"scale":[
				0.009999999776482582,
				0.009999999776482582,
				0.009999999776482582
			]
		},
		{
			"mesh":4,
			"name":"EN_Mushroom_RectangularLong_LP_Cluster",
			"rotation":[
				0.7071068286895752,
				0,
				0,
				0.7071068286895752
			],
			"scale":[
				0.009999999776482582,
				0.009999999776482582,
				0.009999999776482582
			]
		},
		{
			"mesh":5,
			"name":"EN_Mushroom_RectangularLong_LP_Single",
			"rotation":[
				0.7071068286895752,
				0,
				0,
				0.7071068286895752
			],
			"scale":[
				0.009999999776482582,
				0.009999999776482582,
				0.009999999776482582
			]
		}
	],
	"materials":[
		{
			"doubleSided":true,
			"emissiveFactor":[
				1,
				1,
				1
			],
			"emissiveTexture":{
				"index":0
			},
			"extensions":{
				"KHR_materials_emissive_strength":{
					"emissiveStrength":3.999999761581421
				}
			},
			"name":"M_Atlas_Vases_Mushroom.001",
			"normalTexture":{
				"index":1
			},
			"pbrMetallicRoughness":{
				"baseColorTexture":{
					"index":2
				},
				"metallicRoughnessTexture":{
					"index":3
				}
			}
		}
	],
	"meshes":[
		{
			"name":"Icosphere.016",
			"primitives":[
				{
					"attributes":{
						"POSITION":0,
						"NORMAL":1,
						"TEXCOORD_0":2,
						"TANGENT":3
					},
					"indices":4,
					"material":0
				}
			]
		},
		{
			"name":"Icosphere.008",
			"primitives":[
				{
					"attributes":{
						"POSITION":5,
						"NORMAL":6,
						"TEXCOORD_0":7,
						"TANGENT":8
					},
					"indices":9,
					"material":0
				}
			]
		},
		{
			"name":"Icosphere.002",
			"primitives":[
				{
					"attributes":{
						"POSITION":10,
						"NORMAL":11,
						"TEXCOORD_0":12,
						"TANGENT":13
					},
					"indices":14,
					"material":0
				}
			]
		},
		{
			"name":"Icosphere.009",
			"primitives":[
				{
					"attributes":{
						"POSITION":15,
						"NORMAL":16,
						"TEXCOORD_0":17,
						"TANGENT":18
					},
					"indices":19,
					"material":0
				}
			]
		},
		{
			"name":"B\u00e9zierCurve.002",
			"primitives":[
				{
					"attributes":{
						"POSITION":20,
						"NORMAL":21,
						"TEXCOORD_0":22,
						"TANGENT":23
					},
					"indices":24,
					"material":0
				}
			]
		},
		{
			"name":"B\u00e9zierCurve.004",
			"primitives":[
				{
					"attributes":{
						"POSITION":25,
						"NORMAL":26,
						"TEXCOORD_0":27,
						"TANGENT":28
					},
					"indices":29,
					"material":0
				}
			]
		}
	],
	"textures":[
		{
			"sampler":0,
			"source":0
		},
		{
			"sampler":0,
			"source":1
		},
		{
			"sampler":0,
			"source":2
		},
		{
			"sampler":0,
			"source":3
		}
	],
	"images":[
		{
			"mimeType":"image/png",
			"name":"Emissive_mushroom",
			"uri":"Emissive_mushroom.png"
		},
		{
			"mimeType":"image/png",
			"name":"Tributs_Norm",
			"uri":"Tributs_Norm.png"
		},
		{
			"mimeType":"image/png",
			"name":"basecolor11",
			"uri":"basecolor11.png"
		},
		{
			"mimeType":"image/png",
			"name":"Tributs_ORM",
			"uri":"Tributs_ORM.png"
		}
	],
	"accessors":[
		{
			"bufferView":0,
			"componentType":5126,
			"count":1332,
			"max":[
				24.65896987915039,
				17.04632568359375,
				9.944499969482422
			],
			"min":[
				-17.774410247802734,
				-13.106926918029785,
				-24.43101692199707
			],
			"type":"VEC3"
		},
		{
			"bufferView":1,
			"componentType":5126,
			"count":1332,
			"type":"VEC3"
		},
		{
			"bufferView":2,
			"componentType":5126,
			"count":1332,
			"type":"VEC2"
		},
		{
			"bufferView":3,
			"componentType":5126,
			"count":1332,
			"type":"VEC4"
		},
		{
			"bufferView":4,
			"componentType":5123,
			"count":6288,
			"type":"SCALAR"
		},
		{
			"bufferView":5,
			"componentType":5126,
			"count":134,
			"max":[
				6.917763710021973,
				7.494550704956055,
				14.333671569824219
			],
			"min":[
				-7.919775485992432,
				-6.938584327697754,
				-8.189805030822754
			],
			"type":"VEC3"
		},
		{
			"bufferView":6,
			"componentType":5126,
			"count":134,
			"type":"VEC3"
		},
		{
			"bufferView":7,
			"componentType":5126,
			"count":134,
			"type":"VEC2"
		},
		{
			"bufferView":8,
			"componentType":5126,
			"count":134,
			"type":"VEC4"
		},
		{
			"bufferView":9,
			"componentType":5123,
			"count":624,
			"type":"SCALAR"
		},
		{
			"bufferView":10,
			"componentType":5126,
			"count":662,
			"max":[
				21.555889129638672,
				14.439577102661133,
				20.43976593017578
			],
			"min":[
				-24.513948440551758,
				-16.427335739135742,
				-19.91208267211914
			],
			"type":"VEC3"
		},
		{
			"bufferView":11,
			"componentType":5126,
			"count":662,
			"type":"VEC3"
		},
		{
			"bufferView":12,
			"componentType":5126,
			"count":662,
			"type":"VEC2"
		},
		{
			"bufferView":13,
			"componentType":5126,
			"count":662,
			"type":"VEC4"
		},
		{
			"bufferView":14,
			"componentType":5123,
			"count":3168,
			"type":"SCALAR"
		},
		{
			"bufferView":15,
			"componentType":5126,
			"count":161,
			"max":[
				8.097228050231934,
				7.420473575592041,
				19.517902374267578
			],
			"min":[
				-9.505370140075684,
				-7.658489227294922,
				-9.744175910949707
			],
			"type":"VEC3"
		},
		{
			"bufferView":16,
			"componentType":5126,
			"count":161,
			"type":"VEC3"
		},
		{
			"bufferView":17,
			"componentType":5126,
			"count":161,
			"type":"VEC2"
		},
		{
			"bufferView":18,
			"componentType":5126,
			"count":161,
			"type":"VEC4"
		},
		{
			"bufferView":19,
			"componentType":5123,
			"count":768,
			"type":"SCALAR"
		},
		{
			"bufferView":20,
			"componentType":5126,
			"count":558,
			"max":[
				34.87571334838867,
				19.411298751831055,
				33.413150787353516
			],
			"min":[
				-24.690242767333984,
				-23.889848709106445,
				-18.09886932373047
			],
			"type":"VEC3"
		},
		{
			"bufferView":21,
			"componentType":5126,
			"count":558,
			"type":"VEC3"
		},
		{
			"bufferView":22,
			"componentType":5126,
			"count":558,
			"type":"VEC2"
		},
		{
			"bufferView":23,
			"componentType":5126,
			"count":558,
			"type":"VEC4"
		},
		{
			"bufferView":24,
			"componentType":5123,
			"count":2592,
			"type":"SCALAR"
		},
		{
			"bufferView":25,
			"componentType":5126,
			"count":152,
			"max":[
				7.11128568649292,
				8.14437484741211,
				27.918621063232422
			],
			"min":[
				-9.106220245361328,
				-9.02004623413086,
				-6.868963718414307
			],
			"type":"VEC3"
		},
		{
			"bufferView":26,
			"componentType":5126,
			"count":152,
			"type":"VEC3"
		},
		{
			"bufferView":27,
			"componentType":5126,
			"count":152,
			"type":"VEC2"
		},
		{
			"bufferView":28,
			"componentType":5126,
			"count":152,
			"type":"VEC4"
		},
		{
			"bufferView":29,
			"componentType":5123,
			"count":720,
			"type":"SCALAR"
		}
	],
	"bufferViews":[
		{
			"buffer":0,
			"byteLength":15984,
			"byteOffset":0,
			"target":34962
		},
		{
			"buffer":0,
			"byteLength":15984,
			"byteOffset":15984,
			"target":34962
		},
		{
			"buffer":0,
			"byteLength":10656,
			"byteOffset":31968,
			"target":34962
		},
		{
			"buffer":0,
			"byteLength":21312,
			"byteOffset":42624,
			"target":34962
		},
		{
			"buffer":0,
			"byteLength":12576,
			"byteOffset":63936,
			"target":34963
		},
		{
			"buffer":0,
			"byteLength":1608,
			"byteOffset":76512,
			"target":34962
		},
		{
			"buffer":0,
			"byteLength":1608,
			"byteOffset":78120,
			"target":34962
		},
		{
			"buffer":0,
			"byteLength":1072,
			"byteOffset":79728,
			"target":34962
		},
		{
			"buffer":0,
			"byteLength":2144,
			"byteOffset":80800,
			"target":34962
		},
		{
			"buffer":0,
			"byteLength":1248,
			"byteOffset":82944,
			"target":34963
		},
		{
			"buffer":0,
			"byteLength":7944,
			"byteOffset":84192,
			"target":34962
		},
		{
			"buffer":0,
			"byteLength":7944,
			"byteOffset":92136,
			"target":34962
		},
		{
			"buffer":0,
			"byteLength":5296,
			"byteOffset":100080,
			"target":34962
		},
		{
			"buffer":0,
			"byteLength":10592,
			"byteOffset":105376,
			"target":34962
		},
		{
			"buffer":0,
			"byteLength":6336,
			"byteOffset":115968,
			"target":34963
		},
		{
			"buffer":0,
			"byteLength":1932,
			"byteOffset":122304,
			"target":34962
		},
		{
			"buffer":0,
			"byteLength":1932,
			"byteOffset":124236,
			"target":34962
		},
		{
			"buffer":0,
			"byteLength":1288,
			"byteOffset":126168,
			"target":34962
		},
		{
			"buffer":0,
			"byteLength":2576,
			"byteOffset":127456,
			"target":34962
		},
		{
			"buffer":0,
			"byteLength":1536,
			"byteOffset":130032,
			"target":34963
		},
		{
			"buffer":0,
			"byteLength":6696,
			"byteOffset":131568,
			"target":34962
		},
		{
			"buffer":0,
			"byteLength":6696,
			"byteOffset":138264,
			"target":34962
		},
		{
			"buffer":0,
			"byteLength":4464,
			"byteOffset":144960,
			"target":34962
		},
		{
			"buffer":0,
			"byteLength":8928,
			"byteOffset":149424,
			"target":34962
		},
		{
			"buffer":0,
			"byteLength":5184,
			"byteOffset":158352,
			"target":34963
		},
		{
			"buffer":0,
			"byteLength":1824,
			"byteOffset":163536,
			"target":34962
		},
		{
			"buffer":0,
			"byteLength":1824,
			"byteOffset":165360,
			"target":34962
		},
		{
			"buffer":0,
			"byteLength":1216,
			"byteOffset":167184,
			"target":34962
		},
		{
			"buffer":0,
			"byteLength":2432,
			"byteOffset":168400,
			"target":34962
		},
		{
			"buffer":0,
			"byteLength":1440,
			"byteOffset":170832,
			"target":34963
		}
	],
	"samplers":[
		{
			"magFilter":9729,
			"minFilter":9987
		}
	],
	"buffers":[
		{
			"byteLength":172272,
			"uri":"mushrooms.bin"
		}
	]
}
