{
	"asset":{
		"generator":"Khronos glTF Blender I/O v4.2.57",
		"version":"2.0"
	},
	"extensionsUsed":[
		"KHR_texture_transform"
	],
	"extensionsRequired":[
		"KHR_texture_transform"
	],
	"scene":0,
	"scenes":[
		{
			"name":"Scene",
			"nodes":[
				0,
				1,
				2,
				3,
				4,
				5
			]
		}
	],
	"nodes":[
		{
			"mesh":0,
			"name":"Cyl_Charger",
			"scale":[
				1.352685809135437,
				1.352685809135437,
				1.352685809135437
			],
			"translation":[
				0,
				-0.12862595915794373,
				0
			]
		},
		{
			"mesh":1,
			"name":"Cyl_Charger_Lights",
			"scale":[
				1.4809962511062622,
				1.4809962511062622,
				1.4809962511062622
			],
			"translation":[
				0,
				-0.056532248854637146,
				0
			]
		},
		{
			"mesh":2,
			"name":"Dash_Energy_Ground",
			"translation":[
				0,
				0,
				-0.9462799429893494
			]
		},
		{
			"mesh":3,
			"name":"Dash_Energy",
			"rotation":[
				0,
				0,
				-0.7071068286895752,
				0.7071068286895752
			],
			"translation":[
				0,
				1.002506971359253,
				-1.1634433269500732
			]
		},
		{
			"mesh":4,
			"name":"Shield_Expansion",
			"rotation":[
				0.7071068286895752,
				0,
				0,
				0.7071068286895752
			],
			"scale":[
				0.5909745693206787,
				1.2032874822616577,
				1.2032874822616577
			],
			"translation":[
				0.15278302133083344,
				1.2050381898880005,
				-0.19492000341415405
			]
		},
		{
			"mesh":5,
			"name":"Lights_Shield",
			"rotation":[
				0.7071068286895752,
				0,
				0,
				0.7071068286895752
			],
			"scale":[
				0.013779763132333755,
				0.013779763132333755,
				0.013779763132333755
			],
			"translation":[
				-0.12245798110961914,
				0.9889258742332458,
				0.06851392984390259
			]
		}
	],
	"materials":[
		{
			"alphaMode":"BLEND",
			"doubleSided":true,
			"emissiveFactor":[
				1,
				1,
				1
			],
			"emissiveTexture":{
				"index":0
			},
			"name":"M_Cyl_Charge_Runes",
			"pbrMetallicRoughness":{
				"baseColorTexture":{
					"extensions":{
						"KHR_texture_transform":{
							"offset":[
								0,
								-0.6999999284744263
							]
						}
					},
					"index":1
				},
				"metallicFactor":0,
				"roughnessFactor":0.5
			}
		},
		{
			"alphaMode":"BLEND",
			"doubleSided":true,
			"name":"M_Lighting_Charge",
			"pbrMetallicRoughness":{
				"baseColorTexture":{
					"extensions":{
						"KHR_texture_transform":{
							"offset":[
								0,
								-0.7999999523162842
							]
						}
					},
					"index":2
				},
				"metallicFactor":0,
				"roughnessFactor":0.5
			}
		},
		{
			"alphaMode":"BLEND",
			"doubleSided":true,
			"name":"M_Dash_Ground",
			"pbrMetallicRoughness":{
				"baseColorTexture":{
					"extensions":{
						"KHR_texture_transform":{
							"offset":[
								0.550000011920929,
								0
							]
						}
					},
					"index":3
				},
				"metallicFactor":0,
				"roughnessFactor":0.5
			}
		},
		{
			"alphaMode":"BLEND",
			"doubleSided":true,
			"name":"M_Dash_Hor",
			"pbrMetallicRoughness":{
				"baseColorTexture":{
					"extensions":{
						"KHR_texture_transform":{
							"offset":[
								-0.29999998211860657,
								0
							]
						}
					},
					"index":4
				},
				"metallicFactor":0,
				"roughnessFactor":0.5
			}
		},
		{
			"alphaMode":"BLEND",
			"doubleSided":true,
			"name":"M_Dash_Explosion",
			"pbrMetallicRoughness":{
				"baseColorTexture":{
					"index":5
				},
				"metallicFactor":0,
				"roughnessFactor":0.5
			}
		},
		{
			"alphaMode":"BLEND",
			"doubleSided":true,
			"name":"M_Dash_Expansion",
			"pbrMetallicRoughness":{
				"baseColorTexture":{
					"extensions":{
						"KHR_texture_transform":{
							"offset":[
								0,
								-0.5999999046325684
							]
						}
					},
					"index":6
				},
				"metallicFactor":0,
				"roughnessFactor":0.5
			}
		}
	],
	"meshes":[
		{
			"name":"Cylinder.005",
			"primitives":[
				{
					"attributes":{
						"POSITION":0,
						"NORMAL":1,
						"TEXCOORD_0":2,
						"TANGENT":3
					},
					"indices":4,
					"material":0
				}
			]
		},
		{
			"name":"Cylinder.004",
			"primitives":[
				{
					"attributes":{
						"POSITION":5,
						"NORMAL":6,
						"TEXCOORD_0":7,
						"TANGENT":8
					},
					"indices":9,
					"material":1
				}
			]
		},
		{
			"name":"Plane.003",
			"primitives":[
				{
					"attributes":{
						"POSITION":10,
						"NORMAL":11,
						"TEXCOORD_0":12,
						"TANGENT":13
					},
					"indices":14,
					"material":2
				}
			]
		},
		{
			"name":"Plane.002",
			"primitives":[
				{
					"attributes":{
						"POSITION":15,
						"NORMAL":16,
						"TEXCOORD_0":17,
						"TANGENT":18
					},
					"indices":19,
					"material":3
				}
			]
		},
		{
			"name":"Cylinder.007",
			"primitives":[
				{
					"attributes":{
						"POSITION":20,
						"NORMAL":21,
						"TEXCOORD_0":22,
						"TANGENT":23
					},
					"indices":24,
					"material":4
				}
			]
		},
		{
			"name":"Mesh",
			"primitives":[
				{
					"attributes":{
						"POSITION":25,
						"NORMAL":26,
						"TEXCOORD_0":27,
						"TANGENT":28
					},
					"indices":29,
					"material":5
				}
			]
		}
	],
	"textures":[
		{
			"sampler":0,
			"source":0
		},
		{
			"sampler":0,
			"source":1
		},
		{
			"sampler":0,
			"source":2
		},
		{
			"sampler":0,
			"source":3
		},
		{
			"sampler":0,
			"source":4
		},
		{
			"sampler":0,
			"source":5
		},
		{
			"sampler":0,
			"source":6
		}
	],
	"images":[
		{
			"mimeType":"image/png",
			"name":"Circle_Charge_Runes_Emissive",
			"uri":"Circle_Charge_Runes_Emissive.png"
		},
		{
			"mimeType":"image/png",
			"name":"Circle_Charge_Runes",
			"uri":"Circle_Charge_Runes.png"
		},
		{
			"mimeType":"image/png",
			"name":"Lighting_Charge_Dash",
			"uri":"Lighting_Charge_Dash.png"
		},
		{
			"mimeType":"image/png",
			"name":"Dash_Hor_Ground",
			"uri":"Dash_Hor_Ground.png"
		},
		{
			"mimeType":"image/png",
			"name":"Dash_Hor",
			"uri":"Dash_Hor.png"
		},
		{
			"mimeType":"image/png",
			"name":"Dash_Explosion",
			"uri":"Dash_Explosion.png"
		},
		{
			"mimeType":"image/png",
			"name":"Dash_Expansion",
			"uri":"Dash_Expansion.png"
		}
	],
	"accessors":[
		{
			"bufferView":0,
			"componentType":5126,
			"count":390,
			"max":[
				0.8495908975601196,
				0.0983848050236702,
				0.8337976336479187
			],
			"min":[
				-0.875842809677124,
				0.0983848050236702,
				-0.8916360139846802
			],
			"type":"VEC3"
		},
		{
			"bufferView":1,
			"componentType":5126,
			"count":390,
			"type":"VEC3"
		},
		{
			"bufferView":2,
			"componentType":5126,
			"count":390,
			"type":"VEC2"
		},
		{
			"bufferView":3,
			"componentType":5126,
			"count":390,
			"type":"VEC4"
		},
		{
			"bufferView":4,
			"componentType":5123,
			"count":768,
			"type":"SCALAR"
		},
		{
			"bufferView":5,
			"componentType":5126,
			"count":132,
			"max":[
				0.8495908975601196,
				0.1591082513332367,
				0.8337976336479187
			],
			"min":[
				-0.875842809677124,
				0.05274700000882149,
				-0.8916360139846802
			],
			"type":"VEC3"
		},
		{
			"bufferView":6,
			"componentType":5126,
			"count":132,
			"type":"VEC3"
		},
		{
			"bufferView":7,
			"componentType":5126,
			"count":132,
			"type":"VEC2"
		},
		{
			"bufferView":8,
			"componentType":5126,
			"count":132,
			"type":"VEC4"
		},
		{
			"bufferView":9,
			"componentType":5123,
			"count":576,
			"type":"SCALAR"
		},
		{
			"bufferView":10,
			"componentType":5126,
			"count":4,
			"max":[
				1,
				0,
				1.9454543590545654
			],
			"min":[
				-1,
				0,
				-2.7552342414855957
			],
			"type":"VEC3"
		},
		{
			"bufferView":11,
			"componentType":5126,
			"count":4,
			"type":"VEC3"
		},
		{
			"bufferView":12,
			"componentType":5126,
			"count":4,
			"type":"VEC2"
		},
		{
			"bufferView":13,
			"componentType":5126,
			"count":4,
			"type":"VEC4"
		},
		{
			"bufferView":14,
			"componentType":5123,
			"count":6,
			"type":"SCALAR"
		},
		{
			"bufferView":15,
			"componentType":5126,
			"count":6,
			"max":[
				1,
				1.5759596294628864e-08,
				1.5056219100952148
			],
			"min":[
				-0.6394624710083008,
				0,
				-2.6134016513824463
			],
			"type":"VEC3"
		},
		{
			"bufferView":16,
			"componentType":5126,
			"count":6,
			"type":"VEC3"
		},
		{
			"bufferView":17,
			"componentType":5126,
			"count":6,
			"type":"VEC2"
		},
		{
			"bufferView":18,
			"componentType":5126,
			"count":6,
			"type":"VEC4"
		},
		{
			"bufferView":19,
			"componentType":5123,
			"count":12,
			"type":"SCALAR"
		},
		{
			"bufferView":20,
			"componentType":5126,
			"count":132,
			"max":[
				0.8567276000976562,
				1.1744285821914673,
				0.8567276000976562
			],
			"min":[
				-0.8567276000976562,
				0.9335820078849792,
				-0.8567276000976562
			],
			"type":"VEC3"
		},
		{
			"bufferView":21,
			"componentType":5126,
			"count":132,
			"type":"VEC3"
		},
		{
			"bufferView":22,
			"componentType":5126,
			"count":132,
			"type":"VEC2"
		},
		{
			"bufferView":23,
			"componentType":5126,
			"count":132,
			"type":"VEC4"
		},
		{
			"bufferView":24,
			"componentType":5123,
			"count":576,
			"type":"SCALAR"
		},
		{
			"bufferView":25,
			"componentType":5126,
			"count":133,
			"max":[
				91.21688842773438,
				70.06890869140625,
				77.14060974121094
			],
			"min":[
				-45.16758728027344,
				-50.031532287597656,
				-103.69175720214844
			],
			"type":"VEC3"
		},
		{
			"bufferView":26,
			"componentType":5126,
			"count":133,
			"type":"VEC3"
		},
		{
			"bufferView":27,
			"componentType":5126,
			"count":133,
			"type":"VEC2"
		},
		{
			"bufferView":28,
			"componentType":5126,
			"count":133,
			"type":"VEC4"
		},
		{
			"bufferView":29,
			"componentType":5123,
			"count":648,
			"type":"SCALAR"
		}
	],
	"bufferViews":[
		{
			"buffer":0,
			"byteLength":4680,
			"byteOffset":0,
			"target":34962
		},
		{
			"buffer":0,
			"byteLength":4680,
			"byteOffset":4680,
			"target":34962
		},
		{
			"buffer":0,
			"byteLength":3120,
			"byteOffset":9360,
			"target":34962
		},
		{
			"buffer":0,
			"byteLength":6240,
			"byteOffset":12480,
			"target":34962
		},
		{
			"buffer":0,
			"byteLength":1536,
			"byteOffset":18720,
			"target":34963
		},
		{
			"buffer":0,
			"byteLength":1584,
			"byteOffset":20256,
			"target":34962
		},
		{
			"buffer":0,
			"byteLength":1584,
			"byteOffset":21840,
			"target":34962
		},
		{
			"buffer":0,
			"byteLength":1056,
			"byteOffset":23424,
			"target":34962
		},
		{
			"buffer":0,
			"byteLength":2112,
			"byteOffset":24480,
			"target":34962
		},
		{
			"buffer":0,
			"byteLength":1152,
			"byteOffset":26592,
			"target":34963
		},
		{
			"buffer":0,
			"byteLength":48,
			"byteOffset":27744,
			"target":34962
		},
		{
			"buffer":0,
			"byteLength":48,
			"byteOffset":27792,
			"target":34962
		},
		{
			"buffer":0,
			"byteLength":32,
			"byteOffset":27840,
			"target":34962
		},
		{
			"buffer":0,
			"byteLength":64,
			"byteOffset":27872,
			"target":34962
		},
		{
			"buffer":0,
			"byteLength":12,
			"byteOffset":27936,
			"target":34963
		},
		{
			"buffer":0,
			"byteLength":72,
			"byteOffset":27948,
			"target":34962
		},
		{
			"buffer":0,
			"byteLength":72,
			"byteOffset":28020,
			"target":34962
		},
		{
			"buffer":0,
			"byteLength":48,
			"byteOffset":28092,
			"target":34962
		},
		{
			"buffer":0,
			"byteLength":96,
			"byteOffset":28140,
			"target":34962
		},
		{
			"buffer":0,
			"byteLength":24,
			"byteOffset":28236,
			"target":34963
		},
		{
			"buffer":0,
			"byteLength":1584,
			"byteOffset":28260,
			"target":34962
		},
		{
			"buffer":0,
			"byteLength":1584,
			"byteOffset":29844,
			"target":34962
		},
		{
			"buffer":0,
			"byteLength":1056,
			"byteOffset":31428,
			"target":34962
		},
		{
			"buffer":0,
			"byteLength":2112,
			"byteOffset":32484,
			"target":34962
		},
		{
			"buffer":0,
			"byteLength":1152,
			"byteOffset":34596,
			"target":34963
		},
		{
			"buffer":0,
			"byteLength":1596,
			"byteOffset":35748,
			"target":34962
		},
		{
			"buffer":0,
			"byteLength":1596,
			"byteOffset":37344,
			"target":34962
		},
		{
			"buffer":0,
			"byteLength":1064,
			"byteOffset":38940,
			"target":34962
		},
		{
			"buffer":0,
			"byteLength":2128,
			"byteOffset":40004,
			"target":34962
		},
		{
			"buffer":0,
			"byteLength":1296,
			"byteOffset":42132,
			"target":34963
		}
	],
	"samplers":[
		{
			"magFilter":9729,
			"minFilter":9987
		}
	],
	"buffers":[
		{
			"byteLength":43428,
			"uri":"OverHeadStrike_Dash_GLTF.bin"
		}
	]
}
