{
	"asset":{
		"generator":"Khronos glTF Blender I/O v4.2.57",
		"version":"2.0"
	},
	"extensionsUsed":[
		"KHR_texture_transform"
	],
	"extensionsRequired":[
		"KHR_texture_transform"
	],
	"scene":0,
	"scenes":[
		{
			"name":"Scene",
			"nodes":[
				0,
				1,
				2,
				3,
				4
			]
		}
	],
	"nodes":[
		{
			"mesh":0,
			"name":"Cyl_Energy",
			"scale":[
				0.6800076961517334,
				0.6800076961517334,
				0.6800076961517334
			],
			"translation":[
				0,
				0.6440796256065369,
				0.20943590998649597
			]
		},
		{
			"mesh":1,
			"name":"Lightings",
			"scale":[
				0.010233992710709572,
				0.00823583547025919,
				0.010233992710709572
			],
			"translation":[
				-0.0029663085006177425,
				0,
				0.20519974827766418
			]
		},
		{
			"mesh":2,
			"name":"Expansion_S",
			"translation":[
				0,
				0,
				-0.0022448301315307617
			]
		},
		{
			"mesh":3,
			"name":"Cyl_Explosion",
			"scale":[
				2.157958984375,
				2.157958984375,
				2.157958984375
			],
			"translation":[
				0,
				0,
				-0.0022448301315307617
			]
		},
		{
			"mesh":4,
			"name":"Expansion_B",
			"scale":[
				2.538605213165283,
				2.538605213165283,
				2.538605213165283
			],
			"translation":[
				0,
				-0.27918124198913574,
				-0.0022448301315307617
			]
		}
	],
	"materials":[
		{
			"alphaMode":"BLEND",
			"doubleSided":true,
			"name":"Charge_Shield",
			"pbrMetallicRoughness":{
				"baseColorTexture":{
					"index":0
				},
				"metallicFactor":0,
				"roughnessFactor":0.5
			}
		},
		{
			"alphaMode":"BLEND",
			"doubleSided":true,
			"name":"M_Spiral_Charge",
			"pbrMetallicRoughness":{
				"baseColorTexture":{
					"index":1
				},
				"metallicFactor":0,
				"roughnessFactor":0.5
			}
		},
		{
			"alphaMode":"BLEND",
			"doubleSided":true,
			"name":"M_Expansion_S",
			"pbrMetallicRoughness":{
				"baseColorTexture":{
					"extensions":{
						"KHR_texture_transform":{
							"offset":[
								0,
								0.4999999701976776
							]
						}
					},
					"index":2
				},
				"metallicFactor":0,
				"roughnessFactor":0.531818151473999
			}
		},
		{
			"alphaMode":"BLEND",
			"doubleSided":true,
			"name":"M_Explosion_Area",
			"pbrMetallicRoughness":{
				"baseColorTexture":{
					"extensions":{
						"KHR_texture_transform":{
							"offset":[
								0,
								0.3999999463558197
							]
						}
					},
					"index":3
				},
				"metallicFactor":0,
				"roughnessFactor":0.5
			}
		},
		{
			"alphaMode":"BLEND",
			"doubleSided":true,
			"name":"M_Area_B",
			"pbrMetallicRoughness":{
				"baseColorTexture":{
					"extensions":{
						"KHR_texture_transform":{
							"offset":[
								0,
								0.6999999284744263
							]
						}
					},
					"index":4
				},
				"metallicFactor":0,
				"roughnessFactor":0.531818151473999
			}
		}
	],
	"meshes":[
		{
			"name":"Cylinder.008",
			"primitives":[
				{
					"attributes":{
						"POSITION":0,
						"NORMAL":1,
						"TEXCOORD_0":2
					},
					"indices":3,
					"material":0
				}
			]
		},
		{
			"name":"Mesh.003",
			"primitives":[
				{
					"attributes":{
						"POSITION":4,
						"NORMAL":5,
						"TEXCOORD_0":6
					},
					"indices":7,
					"material":1
				}
			]
		},
		{
			"name":"Cylinder.001",
			"primitives":[
				{
					"attributes":{
						"POSITION":8,
						"NORMAL":9,
						"TEXCOORD_0":10
					},
					"indices":11,
					"material":2
				}
			]
		},
		{
			"name":"Cylinder.002",
			"primitives":[
				{
					"attributes":{
						"POSITION":12,
						"NORMAL":13,
						"TEXCOORD_0":14
					},
					"indices":15,
					"material":3
				}
			]
		},
		{
			"name":"Cylinder.003",
			"primitives":[
				{
					"attributes":{
						"POSITION":16,
						"NORMAL":17,
						"TEXCOORD_0":18
					},
					"indices":19,
					"material":4
				}
			]
		}
	],
	"textures":[
		{
			"sampler":0,
			"source":0
		},
		{
			"sampler":0,
			"source":1
		},
		{
			"sampler":0,
			"source":2
		},
		{
			"sampler":0,
			"source":3
		},
		{
			"sampler":0,
			"source":2
		}
	],
	"images":[
		{
			"mimeType":"image/png",
			"name":"Charge_AttackShield",
			"uri":"Charge_AttackShield.png"
		},
		{
			"mimeType":"image/png",
			"name":"Spiral_Charge",
			"uri":"Spiral_Charge.png"
		},
		{
			"mimeType":"image/png",
			"name":"Expansion_Area",
			"uri":"Expansion_Area.png"
		},
		{
			"mimeType":"image/png",
			"name":"Explosion_Area",
			"uri":"Explosion_Area.png"
		}
	],
	"accessors":[
		{
			"bufferView":0,
			"componentType":5126,
			"count":99,
			"max":[
				1.3079196214675903,
				-0.5180116891860962,
				1.3079196214675903
			],
			"min":[
				-1.3079196214675903,
				-1,
				-1.3079196214675903
			],
			"type":"VEC3"
		},
		{
			"bufferView":1,
			"componentType":5126,
			"count":99,
			"type":"VEC3"
		},
		{
			"bufferView":2,
			"componentType":5126,
			"count":99,
			"type":"VEC2"
		},
		{
			"bufferView":3,
			"componentType":5123,
			"count":384,
			"type":"SCALAR"
		},
		{
			"bufferView":4,
			"componentType":5126,
			"count":300,
			"max":[
				130.7760467529297,
				97.98735046386719,
				115.62043762207031
			],
			"min":[
				-115.05108642578125,
				-12.961116790771484,
				-132.34347534179688
			],
			"type":"VEC3"
		},
		{
			"bufferView":5,
			"componentType":5126,
			"count":300,
			"type":"VEC3"
		},
		{
			"bufferView":6,
			"componentType":5126,
			"count":300,
			"type":"VEC2"
		},
		{
			"bufferView":7,
			"componentType":5123,
			"count":1296,
			"type":"SCALAR"
		},
		{
			"bufferView":8,
			"componentType":5126,
			"count":640,
			"max":[
				2.627826452255249,
				0.03621996194124222,
				2.5804531574249268
			],
			"min":[
				-2.654088020324707,
				-0.07095862179994583,
				-2.7014615535736084
			],
			"type":"VEC3"
		},
		{
			"bufferView":9,
			"componentType":5126,
			"count":640,
			"type":"VEC3"
		},
		{
			"bufferView":10,
			"componentType":5126,
			"count":640,
			"type":"VEC2"
		},
		{
			"bufferView":11,
			"componentType":5123,
			"count":960,
			"type":"SCALAR"
		},
		{
			"bufferView":12,
			"componentType":5126,
			"count":99,
			"max":[
				0.8495908975601196,
				0.0983848050236702,
				0.8337976336479187
			],
			"min":[
				-0.875842809677124,
				0.09838477522134781,
				-0.8916360139846802
			],
			"type":"VEC3"
		},
		{
			"bufferView":13,
			"componentType":5126,
			"count":99,
			"type":"VEC3"
		},
		{
			"bufferView":14,
			"componentType":5126,
			"count":99,
			"type":"VEC2"
		},
		{
			"bufferView":15,
			"componentType":5123,
			"count":384,
			"type":"SCALAR"
		},
		{
			"bufferView":16,
			"componentType":5126,
			"count":165,
			"max":[
				2.111403465270996,
				0.07748953998088837,
				2.1060373783111572
			],
			"min":[
				-2.137665033340454,
				0.03050672821700573,
				-2.143031358718872
			],
			"type":"VEC3"
		},
		{
			"bufferView":17,
			"componentType":5126,
			"count":165,
			"type":"VEC3"
		},
		{
			"bufferView":18,
			"componentType":5126,
			"count":165,
			"type":"VEC2"
		},
		{
			"bufferView":19,
			"componentType":5123,
			"count":768,
			"type":"SCALAR"
		}
	],
	"bufferViews":[
		{
			"buffer":0,
			"byteLength":1188,
			"byteOffset":0,
			"target":34962
		},
		{
			"buffer":0,
			"byteLength":1188,
			"byteOffset":1188,
			"target":34962
		},
		{
			"buffer":0,
			"byteLength":792,
			"byteOffset":2376,
			"target":34962
		},
		{
			"buffer":0,
			"byteLength":768,
			"byteOffset":3168,
			"target":34963
		},
		{
			"buffer":0,
			"byteLength":3600,
			"byteOffset":3936,
			"target":34962
		},
		{
			"buffer":0,
			"byteLength":3600,
			"byteOffset":7536,
			"target":34962
		},
		{
			"buffer":0,
			"byteLength":2400,
			"byteOffset":11136,
			"target":34962
		},
		{
			"buffer":0,
			"byteLength":2592,
			"byteOffset":13536,
			"target":34963
		},
		{
			"buffer":0,
			"byteLength":7680,
			"byteOffset":16128,
			"target":34962
		},
		{
			"buffer":0,
			"byteLength":7680,
			"byteOffset":23808,
			"target":34962
		},
		{
			"buffer":0,
			"byteLength":5120,
			"byteOffset":31488,
			"target":34962
		},
		{
			"buffer":0,
			"byteLength":1920,
			"byteOffset":36608,
			"target":34963
		},
		{
			"buffer":0,
			"byteLength":1188,
			"byteOffset":38528,
			"target":34962
		},
		{
			"buffer":0,
			"byteLength":1188,
			"byteOffset":39716,
			"target":34962
		},
		{
			"buffer":0,
			"byteLength":792,
			"byteOffset":40904,
			"target":34962
		},
		{
			"buffer":0,
			"byteLength":768,
			"byteOffset":41696,
			"target":34963
		},
		{
			"buffer":0,
			"byteLength":1980,
			"byteOffset":42464,
			"target":34962
		},
		{
			"buffer":0,
			"byteLength":1980,
			"byteOffset":44444,
			"target":34962
		},
		{
			"buffer":0,
			"byteLength":1320,
			"byteOffset":46424,
			"target":34962
		},
		{
			"buffer":0,
			"byteLength":1536,
			"byteOffset":47744,
			"target":34963
		}
	],
	"samplers":[
		{
			"magFilter":9729,
			"minFilter":9987
		}
	],
	"buffers":[
		{
			"byteLength":49280,
			"uri":"OverHeadStrike_AreaAttack_GLTF.bin"
		}
	]
}
