{
	"asset":{
		"generator":"Khronos glTF Blender I/O v4.2.57",
		"version":"2.0"
	},
	"extensionsUsed":[
		"KHR_materials_specular"
	],
	"scene":0,
	"scenes":[
		{
			"name":"Scene",
			"nodes":[
				0,
				1,
				2,
				3,
				4,
				5,
				6,
				7,
				8,
				9,
				10,
				11,
				12,
				13,
				14,
				15,
				16,
				17
			]
		}
	],
	"nodes":[
		{
			"mesh":0,
			"name":"PR_Torch01"
		},
		{
			"mesh":1,
			"name":"PR_Torch03"
		},
		{
			"mesh":2,
			"name":"PR_Torch02"
		},
		{
			"mesh":3,
			"name":"PR_Fish_Basket"
		},
		{
			"mesh":4,
			"name":"PR_Chest01"
		},
		{
			"mesh":5,
			"name":"PR_Chest02"
		},
		{
			"mesh":6,
			"name":"PR_Crate01"
		},
		{
			"mesh":7,
			"name":"PR_Crate02"
		},
		{
			"mesh":8,
			"name":"PR_Barrel"
		},
		{
			"mesh":9,
			"name":"PR_Plow"
		},
		{
			"mesh":10,
			"name":"PR_Cart_Wheel"
		},
		{
			"mesh":11,
			"name":"PR_Cart"
		},
		{
			"mesh":12,
			"name":"PR_Cart_Logs"
		},
		{
			"mesh":13,
			"name":"PR_Axe"
		},
		{
			"mesh":14,
			"name":"PR_Log"
		},
		{
			"mesh":15,
			"name":"PR_Shield"
		},
		{
			"mesh":16,
			"name":"PR_Sword01"
		},
		{
			"mesh":17,
			"name":"PR_Sword02"
		}
	],
	"materials":[
		{
			"doubleSided":true,
			"extensions":{
				"KHR_materials_specular":{
					"specularColorFactor":[
						2.0,
						2.0,
						2.0
					]
				}
			},
			"name":"M_Atlas_Wood_And_Metal",
			"normalTexture":{
				"index":0
			},
			"pbrMetallicRoughness":{
				"baseColorTexture":{
					"index":1
				},
				"metallicRoughnessTexture":{
					"index":2
				}
			}
		}
	],
	"meshes":[
		{
			"name":"Mesh",
			"primitives":[
				{
					"attributes":{
						"POSITION":0,
						"NORMAL":1,
						"TEXCOORD_0":2
					},
					"indices":3,
					"material":0
				}
			]
		},
		{
			"name":"Mesh.001",
			"primitives":[
				{
					"attributes":{
						"POSITION":4,
						"NORMAL":5,
						"TEXCOORD_0":6
					},
					"indices":7,
					"material":0
				}
			]
		},
		{
			"name":"Mesh.002",
			"primitives":[
				{
					"attributes":{
						"POSITION":8,
						"NORMAL":9,
						"TEXCOORD_0":10
					},
					"indices":11,
					"material":0
				}
			]
		},
		{
			"name":"Mesh.003",
			"primitives":[
				{
					"attributes":{
						"POSITION":12,
						"NORMAL":13,
						"TEXCOORD_0":14
					},
					"indices":15,
					"material":0
				}
			]
		},
		{
			"name":"Mesh.004",
			"primitives":[
				{
					"attributes":{
						"POSITION":16,
						"NORMAL":17,
						"TEXCOORD_0":18
					},
					"indices":19,
					"material":0
				}
			]
		},
		{
			"name":"Mesh.005",
			"primitives":[
				{
					"attributes":{
						"POSITION":20,
						"NORMAL":21,
						"TEXCOORD_0":22
					},
					"indices":23,
					"material":0
				}
			]
		},
		{
			"name":"Mesh.006",
			"primitives":[
				{
					"attributes":{
						"POSITION":24,
						"NORMAL":25,
						"TEXCOORD_0":26
					},
					"indices":27,
					"material":0
				}
			]
		},
		{
			"name":"Mesh.007",
			"primitives":[
				{
					"attributes":{
						"POSITION":28,
						"NORMAL":29,
						"TEXCOORD_0":30
					},
					"indices":31,
					"material":0
				}
			]
		},
		{
			"name":"Mesh.008",
			"primitives":[
				{
					"attributes":{
						"POSITION":32,
						"NORMAL":33,
						"TEXCOORD_0":34
					},
					"indices":35,
					"material":0
				}
			]
		},
		{
			"name":"Mesh.009",
			"primitives":[
				{
					"attributes":{
						"POSITION":36,
						"NORMAL":37,
						"TEXCOORD_0":38
					},
					"indices":39,
					"material":0
				}
			]
		},
		{
			"name":"Mesh.010",
			"primitives":[
				{
					"attributes":{
						"POSITION":40,
						"NORMAL":41,
						"TEXCOORD_0":42
					},
					"indices":43,
					"material":0
				}
			]
		},
		{
			"name":"Mesh.011",
			"primitives":[
				{
					"attributes":{
						"POSITION":44,
						"NORMAL":45,
						"TEXCOORD_0":46
					},
					"indices":47,
					"material":0
				}
			]
		},
		{
			"name":"Mesh.012",
			"primitives":[
				{
					"attributes":{
						"POSITION":48,
						"NORMAL":49,
						"TEXCOORD_0":50
					},
					"indices":51,
					"material":0
				}
			]
		},
		{
			"name":"Mesh.013",
			"primitives":[
				{
					"attributes":{
						"POSITION":52,
						"NORMAL":53,
						"TEXCOORD_0":54
					},
					"indices":55,
					"material":0
				}
			]
		},
		{
			"name":"Mesh.014",
			"primitives":[
				{
					"attributes":{
						"POSITION":56,
						"NORMAL":57,
						"TEXCOORD_0":58
					},
					"indices":59,
					"material":0
				}
			]
		},
		{
			"name":"Mesh.015",
			"primitives":[
				{
					"attributes":{
						"POSITION":60,
						"NORMAL":61,
						"TEXCOORD_0":62
					},
					"indices":63,
					"material":0
				}
			]
		},
		{
			"name":"Mesh.016",
			"primitives":[
				{
					"attributes":{
						"POSITION":64,
						"NORMAL":65,
						"TEXCOORD_0":66
					},
					"indices":67,
					"material":0
				}
			]
		},
		{
			"name":"Mesh.017",
			"primitives":[
				{
					"attributes":{
						"POSITION":68,
						"NORMAL":69,
						"TEXCOORD_0":70
					},
					"indices":71,
					"material":0
				}
			]
		}
	],
	"textures":[
		{
			"sampler":0,
			"source":0
		},
		{
			"sampler":0,
			"source":1
		},
		{
			"sampler":0,
			"source":2
		}
	],
	"images":[
		{
			"mimeType":"image/png",
			"name":"T_PR_Barrels_Swords_Tourch_Normal",
			"uri":"T_PR_Barrels_Swords_Tourch_Normal.png"
		},
		{
			"mimeType":"image/png",
			"name":"T_PR_Barrels_Swords_Tourch_BaseColor",
			"uri":"T_PR_Barrels_Swords_Tourch_BaseColor.png"
		},
		{
			"mimeType":"image/png",
			"name":"T_PR_Barrels_Swords_Tourch_OcclusionRoughnessMetallic",
			"uri":"T_PR_Barrels_Swords_Tourch_OcclusionRoughnessMetallic.png"
		}
	],
	"accessors":[
		{
			"bufferView":0,
			"componentType":5126,
			"count":550,
			"max":[
				-0.6720542907714844,
				0.3988666534423828,
				0.7290430068969727
			],
			"min":[
				-0.9203834533691406,
				-0.4975574016571045,
				0.39443016052246094
			],
			"type":"VEC3"
		},
		{
			"bufferView":1,
			"componentType":5126,
			"count":550,
			"type":"VEC3"
		},
		{
			"bufferView":2,
			"componentType":5126,
			"count":550,
			"type":"VEC2"
		},
		{
			"bufferView":3,
			"componentType":5123,
			"count":1539,
			"type":"SCALAR"
		},
		{
			"bufferView":4,
			"componentType":5126,
			"count":377,
			"max":[
				-1.6140632629394531,
				0.46765804290771484,
				0.6042952537536621
			],
			"min":[
				-1.7685585021972656,
				-0.922777533531189,
				0.4498023986816406
			],
			"type":"VEC3"
		},
		{
			"bufferView":5,
			"componentType":5126,
			"count":377,
			"type":"VEC3"
		},
		{
			"bufferView":6,
			"componentType":5126,
			"count":377,
			"type":"VEC2"
		},
		{
			"bufferView":7,
			"componentType":5123,
			"count":1188,
			"type":"SCALAR"
		},
		{
			"bufferView":8,
			"componentType":5126,
			"count":930,
			"max":[
				-1.2101402282714844,
				0.3748307228088379,
				0.7496528625488281
			],
			"min":[
				-1.4908943176269531,
				-0.48091447353363037,
				0.33664369583129883
			],
			"type":"VEC3"
		},
		{
			"bufferView":9,
			"componentType":5126,
			"count":930,
			"type":"VEC3"
		},
		{
			"bufferView":10,
			"componentType":5126,
			"count":930,
			"type":"VEC2"
		},
		{
			"bufferView":11,
			"componentType":5123,
			"count":2634,
			"type":"SCALAR"
		},
		{
			"bufferView":12,
			"componentType":5126,
			"count":1954,
			"max":[
				-0.000827789306640625,
				0.6850495338439941,
				0.8395333290100098
			],
			"min":[
				-0.5726242065429688,
				-0.026908040046691895,
				0.2677340507507324
			],
			"type":"VEC3"
		},
		{
			"bufferView":13,
			"componentType":5126,
			"count":1954,
			"type":"VEC3"
		},
		{
			"bufferView":14,
			"componentType":5126,
			"count":1954,
			"type":"VEC2"
		},
		{
			"bufferView":15,
			"componentType":5123,
			"count":7842,
			"type":"SCALAR"
		},
		{
			"bufferView":16,
			"componentType":5126,
			"count":240,
			"max":[
				0.6740036010742188,
				0.31453776359558105,
				0.6839232444763184
			],
			"min":[
				0.161834716796875,
				-0.026907682418823242,
				0.2741889953613281
			],
			"type":"VEC3"
		},
		{
			"bufferView":17,
			"componentType":5126,
			"count":240,
			"type":"VEC3"
		},
		{
			"bufferView":18,
			"componentType":5126,
			"count":240,
			"type":"VEC2"
		},
		{
			"bufferView":19,
			"componentType":5123,
			"count":540,
			"type":"SCALAR"
		},
		{
			"bufferView":20,
			"componentType":5126,
			"count":152,
			"max":[
				1.7936668395996094,
				0.45111536979675293,
				-0.7816214561462402
			],
			"min":[
				1.0681304931640625,
				-0.026908397674560547,
				-1.5071539878845215
			],
			"type":"VEC3"
		},
		{
			"bufferView":21,
			"componentType":5126,
			"count":152,
			"type":"VEC3"
		},
		{
			"bufferView":22,
			"componentType":5126,
			"count":152,
			"type":"VEC2"
		},
		{
			"bufferView":23,
			"componentType":5123,
			"count":228,
			"type":"SCALAR"
		},
		{
			"bufferView":24,
			"componentType":5126,
			"count":431,
			"max":[
				4.227886199951172,
				0.6559821367263794,
				-0.7750916481018066
			],
			"min":[
				3.544994354248047,
				-0.026908397674560547,
				-1.4579825401306152
			],
			"type":"VEC3"
		},
		{
			"bufferView":25,
			"componentType":5126,
			"count":431,
			"type":"VEC3"
		},
		{
			"bufferView":26,
			"componentType":5126,
			"count":431,
			"type":"VEC2"
		},
		{
			"bufferView":27,
			"componentType":5123,
			"count":648,
			"type":"SCALAR"
		},
		{
			"bufferView":28,
			"componentType":5126,
			"count":252,
			"max":[
				3.264446258544922,
				0.6559823751449585,
				-0.8332986831665039
			],
			"min":[
				2.035236358642578,
				-0.026908397674560547,
				-1.5161890983581543
			],
			"type":"VEC3"
		},
		{
			"bufferView":29,
			"componentType":5126,
			"count":252,
			"type":"VEC3"
		},
		{
			"bufferView":30,
			"componentType":5126,
			"count":252,
			"type":"VEC2"
		},
		{
			"bufferView":31,
			"componentType":5123,
			"count":378,
			"type":"SCALAR"
		},
		{
			"bufferView":32,
			"componentType":5126,
			"count":1613,
			"max":[
				0.30096435546875,
				0.4083009958267212,
				-0.32477283477783203
			],
			"min":[
				-0.539764404296875,
				-0.46142005920410156,
				-1.3394474983215332
			],
			"type":"VEC3"
		},
		{
			"bufferView":33,
			"componentType":5126,
			"count":1613,
			"type":"VEC3"
		},
		{
			"bufferView":34,
			"componentType":5126,
			"count":1613,
			"type":"VEC2"
		},
		{
			"bufferView":35,
			"componentType":5123,
			"count":3270,
			"type":"SCALAR"
		},
		{
			"bufferView":36,
			"componentType":5126,
			"count":1122,
			"max":[
				2.3764076232910156,
				0.9153666496276855,
				0.695561408996582
			],
			"min":[
				0.7342185974121094,
				-0.057515740394592285,
				0.005930900573730469
			],
			"type":"VEC3"
		},
		{
			"bufferView":37,
			"componentType":5126,
			"count":1122,
			"type":"VEC3"
		},
		{
			"bufferView":38,
			"componentType":5126,
			"count":1122,
			"type":"VEC2"
		},
		{
			"bufferView":39,
			"componentType":5123,
			"count":2280,
			"type":"SCALAR"
		},
		{
			"bufferView":40,
			"componentType":5126,
			"count":556,
			"max":[
				2.698223114013672,
				0.0489886999130249,
				0.8807721138000488
			],
			"min":[
				1.9906845092773438,
				-0.10280394554138184,
				0.17322540283203125
			],
			"type":"VEC3"
		},
		{
			"bufferView":41,
			"componentType":5126,
			"count":556,
			"type":"VEC3"
		},
		{
			"bufferView":42,
			"componentType":5126,
			"count":556,
			"type":"VEC2"
		},
		{
			"bufferView":43,
			"componentType":5123,
			"count":1500,
			"type":"SCALAR"
		},
		{
			"bufferView":44,
			"componentType":5126,
			"count":1557,
			"max":[
				-2.1319236755371094,
				0.30715250968933105,
				1.2663946151733398
			],
			"min":[
				-3.242595672607422,
				-0.360975444316864,
				-0.21239614486694336
			],
			"type":"VEC3"
		},
		{
			"bufferView":45,
			"componentType":5126,
			"count":1557,
			"type":"VEC3"
		},
		{
			"bufferView":46,
			"componentType":5126,
			"count":1557,
			"type":"VEC2"
		},
		{
			"bufferView":47,
			"componentType":5123,
			"count":3756,
			"type":"SCALAR"
		},
		{
			"bufferView":48,
			"componentType":5126,
			"count":2280,
			"max":[
				-3.250091552734375,
				0.30715250968933105,
				1.2663946151733398
			],
			"min":[
				-4.3607635498046875,
				-0.360975444316864,
				-0.21239614486694336
			],
			"type":"VEC3"
		},
		{
			"bufferView":49,
			"componentType":5126,
			"count":2280,
			"type":"VEC3"
		},
		{
			"bufferView":50,
			"componentType":5126,
			"count":2280,
			"type":"VEC2"
		},
		{
			"bufferView":51,
			"componentType":5123,
			"count":5724,
			"type":"SCALAR"
		},
		{
			"bufferView":52,
			"componentType":5126,
			"count":727,
			"max":[
				4.6349639892578125,
				0.4188055992126465,
				0.5809736251831055
			],
			"min":[
				4.214160919189453,
				-0.47262096405029297,
				0.4730257987976074
			],
			"type":"VEC3"
		},
		{
			"bufferView":53,
			"componentType":5126,
			"count":727,
			"type":"VEC3"
		},
		{
			"bufferView":54,
			"componentType":5126,
			"count":727,
			"type":"VEC2"
		},
		{
			"bufferView":55,
			"componentType":5123,
			"count":1407,
			"type":"SCALAR"
		},
		{
			"bufferView":56,
			"componentType":5126,
			"count":185,
			"max":[
				-1.8248634338378906,
				0.09065067768096924,
				0.9007797241210938
			],
			"min":[
				-2.0701751708984375,
				-0.026907682418823242,
				0.15321826934814453
			],
			"type":"VEC3"
		},
		{
			"bufferView":57,
			"componentType":5126,
			"count":185,
			"type":"VEC3"
		},
		{
			"bufferView":58,
			"componentType":5126,
			"count":185,
			"type":"VEC2"
		},
		{
			"bufferView":59,
			"componentType":5123,
			"count":654,
			"type":"SCALAR"
		},
		{
			"bufferView":60,
			"componentType":5126,
			"count":384,
			"max":[
				3.4839096069335938,
				0.2481367588043213,
				0.6361541748046875
			],
			"min":[
				2.9345321655273438,
				-0.3019402027130127,
				0.41785430908203125
			],
			"type":"VEC3"
		},
		{
			"bufferView":61,
			"componentType":5126,
			"count":384,
			"type":"VEC3"
		},
		{
			"bufferView":62,
			"componentType":5126,
			"count":384,
			"type":"VEC2"
		},
		{
			"bufferView":63,
			"componentType":5123,
			"count":855,
			"type":"SCALAR"
		},
		{
			"bufferView":64,
			"componentType":5126,
			"count":1144,
			"max":[
				4.183811187744141,
				0.4297693967819214,
				0.5402727127075195
			],
			"min":[
				3.924083709716797,
				-0.48358458280563354,
				0.513725757598877
			],
			"type":"VEC3"
		},
		{
			"bufferView":65,
			"componentType":5126,
			"count":1144,
			"type":"VEC3"
		},
		{
			"bufferView":66,
			"componentType":5126,
			"count":1144,
			"type":"VEC2"
		},
		{
			"bufferView":67,
			"componentType":5123,
			"count":2010,
			"type":"SCALAR"
		},
		{
			"bufferView":68,
			"componentType":5126,
			"count":922,
			"max":[
				3.8345108032226562,
				0.6495200395584106,
				0.5548615455627441
			],
			"min":[
				3.6278610229492188,
				-0.7033354640007019,
				0.49913644790649414
			],
			"type":"VEC3"
		},
		{
			"bufferView":69,
			"componentType":5126,
			"count":922,
			"type":"VEC3"
		},
		{
			"bufferView":70,
			"componentType":5126,
			"count":922,
			"type":"VEC2"
		},
		{
			"bufferView":71,
			"componentType":5123,
			"count":2772,
			"type":"SCALAR"
		}
	],
	"bufferViews":[
		{
			"buffer":0,
			"byteLength":6600,
			"byteOffset":0,
			"target":34962
		},
		{
			"buffer":0,
			"byteLength":6600,
			"byteOffset":6600,
			"target":34962
		},
		{
			"buffer":0,
			"byteLength":4400,
			"byteOffset":13200,
			"target":34962
		},
		{
			"buffer":0,
			"byteLength":3078,
			"byteOffset":17600,
			"target":34963
		},
		{
			"buffer":0,
			"byteLength":4524,
			"byteOffset":20680,
			"target":34962
		},
		{
			"buffer":0,
			"byteLength":4524,
			"byteOffset":25204,
			"target":34962
		},
		{
			"buffer":0,
			"byteLength":3016,
			"byteOffset":29728,
			"target":34962
		},
		{
			"buffer":0,
			"byteLength":2376,
			"byteOffset":32744,
			"target":34963
		},
		{
			"buffer":0,
			"byteLength":11160,
			"byteOffset":35120,
			"target":34962
		},
		{
			"buffer":0,
			"byteLength":11160,
			"byteOffset":46280,
			"target":34962
		},
		{
			"buffer":0,
			"byteLength":7440,
			"byteOffset":57440,
			"target":34962
		},
		{
			"buffer":0,
			"byteLength":5268,
			"byteOffset":64880,
			"target":34963
		},
		{
			"buffer":0,
			"byteLength":23448,
			"byteOffset":70148,
			"target":34962
		},
		{
			"buffer":0,
			"byteLength":23448,
			"byteOffset":93596,
			"target":34962
		},
		{
			"buffer":0,
			"byteLength":15632,
			"byteOffset":117044,
			"target":34962
		},
		{
			"buffer":0,
			"byteLength":15684,
			"byteOffset":132676,
			"target":34963
		},
		{
			"buffer":0,
			"byteLength":2880,
			"byteOffset":148360,
			"target":34962
		},
		{
			"buffer":0,
			"byteLength":2880,
			"byteOffset":151240,
			"target":34962
		},
		{
			"buffer":0,
			"byteLength":1920,
			"byteOffset":154120,
			"target":34962
		},
		{
			"buffer":0,
			"byteLength":1080,
			"byteOffset":156040,
			"target":34963
		},
		{
			"buffer":0,
			"byteLength":1824,
			"byteOffset":157120,
			"target":34962
		},
		{
			"buffer":0,
			"byteLength":1824,
			"byteOffset":158944,
			"target":34962
		},
		{
			"buffer":0,
			"byteLength":1216,
			"byteOffset":160768,
			"target":34962
		},
		{
			"buffer":0,
			"byteLength":456,
			"byteOffset":161984,
			"target":34963
		},
		{
			"buffer":0,
			"byteLength":5172,
			"byteOffset":162440,
			"target":34962
		},
		{
			"buffer":0,
			"byteLength":5172,
			"byteOffset":167612,
			"target":34962
		},
		{
			"buffer":0,
			"byteLength":3448,
			"byteOffset":172784,
			"target":34962
		},
		{
			"buffer":0,
			"byteLength":1296,
			"byteOffset":176232,
			"target":34963
		},
		{
			"buffer":0,
			"byteLength":3024,
			"byteOffset":177528,
			"target":34962
		},
		{
			"buffer":0,
			"byteLength":3024,
			"byteOffset":180552,
			"target":34962
		},
		{
			"buffer":0,
			"byteLength":2016,
			"byteOffset":183576,
			"target":34962
		},
		{
			"buffer":0,
			"byteLength":756,
			"byteOffset":185592,
			"target":34963
		},
		{
			"buffer":0,
			"byteLength":19356,
			"byteOffset":186348,
			"target":34962
		},
		{
			"buffer":0,
			"byteLength":19356,
			"byteOffset":205704,
			"target":34962
		},
		{
			"buffer":0,
			"byteLength":12904,
			"byteOffset":225060,
			"target":34962
		},
		{
			"buffer":0,
			"byteLength":6540,
			"byteOffset":237964,
			"target":34963
		},
		{
			"buffer":0,
			"byteLength":13464,
			"byteOffset":244504,
			"target":34962
		},
		{
			"buffer":0,
			"byteLength":13464,
			"byteOffset":257968,
			"target":34962
		},
		{
			"buffer":0,
			"byteLength":8976,
			"byteOffset":271432,
			"target":34962
		},
		{
			"buffer":0,
			"byteLength":4560,
			"byteOffset":280408,
			"target":34963
		},
		{
			"buffer":0,
			"byteLength":6672,
			"byteOffset":284968,
			"target":34962
		},
		{
			"buffer":0,
			"byteLength":6672,
			"byteOffset":291640,
			"target":34962
		},
		{
			"buffer":0,
			"byteLength":4448,
			"byteOffset":298312,
			"target":34962
		},
		{
			"buffer":0,
			"byteLength":3000,
			"byteOffset":302760,
			"target":34963
		},
		{
			"buffer":0,
			"byteLength":18684,
			"byteOffset":305760,
			"target":34962
		},
		{
			"buffer":0,
			"byteLength":18684,
			"byteOffset":324444,
			"target":34962
		},
		{
			"buffer":0,
			"byteLength":12456,
			"byteOffset":343128,
			"target":34962
		},
		{
			"buffer":0,
			"byteLength":7512,
			"byteOffset":355584,
			"target":34963
		},
		{
			"buffer":0,
			"byteLength":27360,
			"byteOffset":363096,
			"target":34962
		},
		{
			"buffer":0,
			"byteLength":27360,
			"byteOffset":390456,
			"target":34962
		},
		{
			"buffer":0,
			"byteLength":18240,
			"byteOffset":417816,
			"target":34962
		},
		{
			"buffer":0,
			"byteLength":11448,
			"byteOffset":436056,
			"target":34963
		},
		{
			"buffer":0,
			"byteLength":8724,
			"byteOffset":447504,
			"target":34962
		},
		{
			"buffer":0,
			"byteLength":8724,
			"byteOffset":456228,
			"target":34962
		},
		{
			"buffer":0,
			"byteLength":5816,
			"byteOffset":464952,
			"target":34962
		},
		{
			"buffer":0,
			"byteLength":2814,
			"byteOffset":470768,
			"target":34963
		},
		{
			"buffer":0,
			"byteLength":2220,
			"byteOffset":473584,
			"target":34962
		},
		{
			"buffer":0,
			"byteLength":2220,
			"byteOffset":475804,
			"target":34962
		},
		{
			"buffer":0,
			"byteLength":1480,
			"byteOffset":478024,
			"target":34962
		},
		{
			"buffer":0,
			"byteLength":1308,
			"byteOffset":479504,
			"target":34963
		},
		{
			"buffer":0,
			"byteLength":4608,
			"byteOffset":480812,
			"target":34962
		},
		{
			"buffer":0,
			"byteLength":4608,
			"byteOffset":485420,
			"target":34962
		},
		{
			"buffer":0,
			"byteLength":3072,
			"byteOffset":490028,
			"target":34962
		},
		{
			"buffer":0,
			"byteLength":1710,
			"byteOffset":493100,
			"target":34963
		},
		{
			"buffer":0,
			"byteLength":13728,
			"byteOffset":494812,
			"target":34962
		},
		{
			"buffer":0,
			"byteLength":13728,
			"byteOffset":508540,
			"target":34962
		},
		{
			"buffer":0,
			"byteLength":9152,
			"byteOffset":522268,
			"target":34962
		},
		{
			"buffer":0,
			"byteLength":4020,
			"byteOffset":531420,
			"target":34963
		},
		{
			"buffer":0,
			"byteLength":11064,
			"byteOffset":535440,
			"target":34962
		},
		{
			"buffer":0,
			"byteLength":11064,
			"byteOffset":546504,
			"target":34962
		},
		{
			"buffer":0,
			"byteLength":7376,
			"byteOffset":557568,
			"target":34962
		},
		{
			"buffer":0,
			"byteLength":5544,
			"byteOffset":564944,
			"target":34963
		}
	],
	"samplers":[
		{
			"magFilter":9729,
			"minFilter":9987
		}
	],
	"buffers":[
		{
			"byteLength":570488,
			"uri":"PR_Barrels_Swords_Tourch.bin"
		}
	]
}
