{
	"asset":{
		"generator":"Khronos glTF Blender I/O v4.2.57",
		"version":"2.0"
	},
	"scene":0,
	"scenes":[
		{
			"name":"Scene",
			"nodes":[
				0
			]
		}
	],
	"nodes":[
		{
			"mesh":0,
			"name":"PR_Catapult"
		}
	],
	"materials":[
		{
			"doubleSided":true,
			"name":"M_Catapult",
			"normalTexture":{
				"index":0
			},
			"pbrMetallicRoughness":{
				"baseColorTexture":{
					"index":1
				},
				"metallicRoughnessTexture":{
					"index":2
				}
			}
		}
	],
	"meshes":[
		{
			"name":"Mesh.030",
			"primitives":[
				{
					"attributes":{
						"POSITION":0,
						"NORMAL":1,
						"TEXCOORD_0":2
					},
					"indices":3,
					"material":0
				}
			]
		}
	],
	"textures":[
		{
			"sampler":0,
			"source":0
		},
		{
			"sampler":0,
			"source":1
		},
		{
			"sampler":0,
			"source":2
		}
	],
	"images":[
		{
			"mimeType":"image/png",
			"name":"T_PR_Catapult_Normal",
			"uri":"T_PR_Catapult_Normal.png"
		},
		{
			"mimeType":"image/png",
			"name":"T_PR_Catapult_BaseColor",
			"uri":"T_PR_Catapult_BaseColor.png"
		},
		{
			"mimeType":"image/png",
			"name":"T_PR_Catapult_OcclusionRoughnessMetallic",
			"uri":"T_PR_Catapult_OcclusionRoughnessMetallic.png"
		}
	],
	"accessors":[
		{
			"bufferView":0,
			"componentType":5126,
			"count":2806,
			"max":[
				1.7160111665725708,
				3.100127935409546,
				2.2550008296966553
			],
			"min":[
				-1.723198652267456,
				-0.3481149673461914,
				-2.2422308921813965
			],
			"type":"VEC3"
		},
		{
			"bufferView":1,
			"componentType":5126,
			"count":2806,
			"type":"VEC3"
		},
		{
			"bufferView":2,
			"componentType":5126,
			"count":2806,
			"type":"VEC2"
		},
		{
			"bufferView":3,
			"componentType":5123,
			"count":8700,
			"type":"SCALAR"
		}
	],
	"bufferViews":[
		{
			"buffer":0,
			"byteLength":33672,
			"byteOffset":0,
			"target":34962
		},
		{
			"buffer":0,
			"byteLength":33672,
			"byteOffset":33672,
			"target":34962
		},
		{
			"buffer":0,
			"byteLength":22448,
			"byteOffset":67344,
			"target":34962
		},
		{
			"buffer":0,
			"byteLength":17400,
			"byteOffset":89792,
			"target":34963
		}
	],
	"samplers":[
		{
			"magFilter":9729,
			"minFilter":9987
		}
	],
	"buffers":[
		{
			"byteLength":107192,
			"uri":"PR_Catapult_GLTF.bin"
		}
	]
}
