{
	"asset":{
		"generator":"Khronos glTF Blender I/O v4.4.55",
		"version":"2.0"
	},
	"scene":0,
	"scenes":[
		{
			"name":"Scene",
			"nodes":[
				0,
				1
			]
		}
	],
	"nodes":[
		{
			"mesh":0,
			"name":"PR_HangingFlags"
		},
		{
			"mesh":1,
			"name":"PR_RopeHangingFlag"
		}
	],
	"materials":[
		{
			"doubleSided":true,
			"name":"Hanging_Flags",
			"normalTexture":{
				"index":0
			},
			"pbrMetallicRoughness":{
				"baseColorTexture":{
					"index":1
				},
				"metallicRoughnessTexture":{
					"index":2
				}
			}
		},
		{
			"doubleSided":true,
			"name":"Rope",
			"normalTexture":{
				"index":3
			},
			"pbrMetallicRoughness":{
				"baseColorTexture":{
					"index":4
				},
				"metallicRoughnessTexture":{
					"index":5
				}
			}
		}
	],
	"meshes":[
		{
			"name":"Plane.035",
			"primitives":[
				{
					"attributes":{
						"POSITION":0,
						"NORMAL":1,
						"TEXCOORD_0":2,
						"TANGENT":3
					},
					"indices":4,
					"material":0
				}
			]
		},
		{
			"name":"Plane",
			"primitives":[
				{
					"attributes":{
						"POSITION":5,
						"NORMAL":6,
						"TEXCOORD_0":7,
						"TANGENT":8
					},
					"indices":9,
					"material":1
				}
			]
		}
	],
	"textures":[
		{
			"sampler":0,
			"source":0
		},
		{
			"sampler":0,
			"source":1
		},
		{
			"sampler":0,
			"source":2
		},
		{
			"sampler":0,
			"source":3
		},
		{
			"sampler":0,
			"source":4
		},
		{
			"sampler":0,
			"source":5
		}
	],
	"images":[
		{
			"mimeType":"image/png",
			"name":"PR_Hanging_Flags_normal",
			"uri":"PR_Hanging_Flags_normal.png"
		},
		{
			"mimeType":"image/png",
			"name":"PR_Hanging_Flags_baseColor",
			"uri":"PR_Hanging_Flags_baseColor.png"
		},
		{
			"mimeType":"image/png",
			"name":"PR_Hanging_Flags_occlusionRoughnessMetallic",
			"uri":"PR_Hanging_Flags_occlusionRoughnessMetallic.png"
		},
		{
			"mimeType":"image/png",
			"name":"PR_Rope_Hanging_normal",
			"uri":"PR_Rope_Hanging_normal.png"
		},
		{
			"mimeType":"image/png",
			"name":"PR_Rope_Hanging_baseColor",
			"uri":"PR_Rope_Hanging_baseColor.png"
		},
		{
			"mimeType":"image/png",
			"name":"PR_Rope_Hanging_occlusionRoughnessMetallic",
			"uri":"PR_Rope_Hanging_occlusionRoughnessMetallic.png"
		}
	],
	"accessors":[
		{
			"bufferView":0,
			"componentType":5126,
			"count":180,
			"max":[
				11.242542266845703,
				1.6466728448867798,
				-0.00146356166806072
			],
			"min":[
				-11.581412315368652,
				-1.956529974937439,
				-0.008543143980205059
			],
			"type":"VEC3"
		},
		{
			"bufferView":1,
			"componentType":5126,
			"count":180,
			"type":"VEC3"
		},
		{
			"bufferView":2,
			"componentType":5126,
			"count":180,
			"type":"VEC2"
		},
		{
			"bufferView":3,
			"componentType":5126,
			"count":180,
			"type":"VEC4"
		},
		{
			"bufferView":4,
			"componentType":5123,
			"count":540,
			"type":"SCALAR"
		},
		{
			"bufferView":5,
			"componentType":5126,
			"count":96,
			"max":[
				12.590476989746094,
				2.018744707107544,
				4.832297122447926e-07
			],
			"min":[
				-12.409523963928223,
				-0.9812554717063904,
				-3.049524934795045e-07
			],
			"type":"VEC3"
		},
		{
			"bufferView":6,
			"componentType":5126,
			"count":96,
			"type":"VEC3"
		},
		{
			"bufferView":7,
			"componentType":5126,
			"count":96,
			"type":"VEC2"
		},
		{
			"bufferView":8,
			"componentType":5126,
			"count":96,
			"type":"VEC4"
		},
		{
			"bufferView":9,
			"componentType":5123,
			"count":282,
			"type":"SCALAR"
		}
	],
	"bufferViews":[
		{
			"buffer":0,
			"byteLength":2160,
			"byteOffset":0,
			"target":34962
		},
		{
			"buffer":0,
			"byteLength":2160,
			"byteOffset":2160,
			"target":34962
		},
		{
			"buffer":0,
			"byteLength":1440,
			"byteOffset":4320,
			"target":34962
		},
		{
			"buffer":0,
			"byteLength":2880,
			"byteOffset":5760,
			"target":34962
		},
		{
			"buffer":0,
			"byteLength":1080,
			"byteOffset":8640,
			"target":34963
		},
		{
			"buffer":0,
			"byteLength":1152,
			"byteOffset":9720,
			"target":34962
		},
		{
			"buffer":0,
			"byteLength":1152,
			"byteOffset":10872,
			"target":34962
		},
		{
			"buffer":0,
			"byteLength":768,
			"byteOffset":12024,
			"target":34962
		},
		{
			"buffer":0,
			"byteLength":1536,
			"byteOffset":12792,
			"target":34962
		},
		{
			"buffer":0,
			"byteLength":564,
			"byteOffset":14328,
			"target":34963
		}
	],
	"samplers":[
		{
			"magFilter":9729,
			"minFilter":9987
		}
	],
	"buffers":[
		{
			"byteLength":14892,
			"uri":"PR_HangingFlags.bin"
		}
	]
}
