{
	"asset":{
		"generator":"Khronos glTF Blender I/O v4.2.57",
		"version":"2.0"
	},
	"extensionsUsed":[
		"KHR_materials_specular"
	],
	"scene":0,
	"scenes":[
		{
			"name":"Scene",
			"nodes":[
				0,
				1,
				2,
				3
			]
		}
	],
	"nodes":[
		{
			"mesh":0,
			"name":"PR_RockPilarCircular"
		},
		{
			"mesh":1,
			"name":"PR_RockPilarSpiral"
		},
		{
			"mesh":2,
			"name":"PR_RockPilarVertical_v02"
		},
		{
			"mesh":3,
			"name":"PR_RockPilarVertical_v01"
		}
	],
	"materials":[
		{
			"doubleSided":true,
			"extensions":{
				"KHR_materials_specular":{
					"specularFactor":0
				}
			},
			"name":"M_RockPilars",
			"normalTexture":{
				"index":0
			},
			"pbrMetallicRoughness":{
				"baseColorTexture":{
					"index":1
				},
				"metallicRoughnessTexture":{
					"index":2
				}
			}
		}
	],
	"meshes":[
		{
			"name":"Mesh.005",
			"primitives":[
				{
					"attributes":{
						"POSITION":0,
						"NORMAL":1,
						"TEXCOORD_0":2
					},
					"indices":3,
					"material":0
				}
			]
		},
		{
			"name":"Mesh.008",
			"primitives":[
				{
					"attributes":{
						"POSITION":4,
						"NORMAL":5,
						"TEXCOORD_0":6
					},
					"indices":7,
					"material":0
				}
			]
		},
		{
			"name":"Mesh.010",
			"primitives":[
				{
					"attributes":{
						"POSITION":8,
						"NORMAL":9,
						"TEXCOORD_0":10,
						"TANGENT":11
					},
					"indices":12,
					"material":0
				}
			]
		},
		{
			"name":"Mesh.012",
			"primitives":[
				{
					"attributes":{
						"POSITION":13,
						"NORMAL":14,
						"TEXCOORD_0":15,
						"TANGENT":16
					},
					"indices":17,
					"material":0
				}
			]
		}
	],
	"textures":[
		{
			"sampler":0,
			"source":0
		},
		{
			"sampler":0,
			"source":1
		},
		{
			"sampler":0,
			"source":2
		}
	],
	"images":[
		{
			"mimeType":"image/png",
			"name":"RockPilars_Normals",
			"uri":"RockPilars_Normals.png"
		},
		{
			"mimeType":"image/png",
			"name":"RockPilars_BaseColor",
			"uri":"RockPilars_BaseColor.png"
		},
		{
			"mimeType":"image/png",
			"name":"RockPilars_OcclusionRoughnessMetallic",
			"uri":"RockPilars_OcclusionRoughnessMetallic.png"
		}
	],
	"accessors":[
		{
			"bufferView":0,
			"componentType":5126,
			"count":2919,
			"max":[
				2.25490403175354,
				2.2837307453155518,
				0.617916464805603
			],
			"min":[
				-2.121389627456665,
				-2.2695562839508057,
				-0.35011184215545654
			],
			"type":"VEC3"
		},
		{
			"bufferView":1,
			"componentType":5126,
			"count":2919,
			"type":"VEC3"
		},
		{
			"bufferView":2,
			"componentType":5126,
			"count":2919,
			"type":"VEC2"
		},
		{
			"bufferView":3,
			"componentType":5123,
			"count":4209,
			"type":"SCALAR"
		},
		{
			"bufferView":4,
			"componentType":5126,
			"count":6174,
			"max":[
				3.702777624130249,
				3.641291379928589,
				0.7805406451225281
			],
			"min":[
				-3.5781748294830322,
				-3.4705379009246826,
				-0.3180652856826782
			],
			"type":"VEC3"
		},
		{
			"bufferView":5,
			"componentType":5126,
			"count":6174,
			"type":"VEC3"
		},
		{
			"bufferView":6,
			"componentType":5126,
			"count":6174,
			"type":"VEC2"
		},
		{
			"bufferView":7,
			"componentType":5123,
			"count":8616,
			"type":"SCALAR"
		},
		{
			"bufferView":8,
			"componentType":5126,
			"count":1426,
			"max":[
				1.1582145690917969,
				7.493544578552246,
				0.7547200322151184
			],
			"min":[
				-1.7466613054275513,
				-4.1394267082214355,
				-0.747515857219696
			],
			"type":"VEC3"
		},
		{
			"bufferView":9,
			"componentType":5126,
			"count":1426,
			"type":"VEC3"
		},
		{
			"bufferView":10,
			"componentType":5126,
			"count":1426,
			"type":"VEC2"
		},
		{
			"bufferView":11,
			"componentType":5126,
			"count":1426,
			"type":"VEC4"
		},
		{
			"bufferView":12,
			"componentType":5123,
			"count":1770,
			"type":"SCALAR"
		},
		{
			"bufferView":13,
			"componentType":5126,
			"count":964,
			"max":[
				1.2169264554977417,
				3.7149200439453125,
				0.9293063879013062
			],
			"min":[
				-1.3569368124008179,
				-2.849522113800049,
				-0.8528168201446533
			],
			"type":"VEC3"
		},
		{
			"bufferView":14,
			"componentType":5126,
			"count":964,
			"type":"VEC3"
		},
		{
			"bufferView":15,
			"componentType":5126,
			"count":964,
			"type":"VEC2"
		},
		{
			"bufferView":16,
			"componentType":5126,
			"count":964,
			"type":"VEC4"
		},
		{
			"bufferView":17,
			"componentType":5123,
			"count":1140,
			"type":"SCALAR"
		}
	],
	"bufferViews":[
		{
			"buffer":0,
			"byteLength":35028,
			"byteOffset":0,
			"target":34962
		},
		{
			"buffer":0,
			"byteLength":35028,
			"byteOffset":35028,
			"target":34962
		},
		{
			"buffer":0,
			"byteLength":23352,
			"byteOffset":70056,
			"target":34962
		},
		{
			"buffer":0,
			"byteLength":8418,
			"byteOffset":93408,
			"target":34963
		},
		{
			"buffer":0,
			"byteLength":74088,
			"byteOffset":101828,
			"target":34962
		},
		{
			"buffer":0,
			"byteLength":74088,
			"byteOffset":175916,
			"target":34962
		},
		{
			"buffer":0,
			"byteLength":49392,
			"byteOffset":250004,
			"target":34962
		},
		{
			"buffer":0,
			"byteLength":17232,
			"byteOffset":299396,
			"target":34963
		},
		{
			"buffer":0,
			"byteLength":17112,
			"byteOffset":316628,
			"target":34962
		},
		{
			"buffer":0,
			"byteLength":17112,
			"byteOffset":333740,
			"target":34962
		},
		{
			"buffer":0,
			"byteLength":11408,
			"byteOffset":350852,
			"target":34962
		},
		{
			"buffer":0,
			"byteLength":22816,
			"byteOffset":362260,
			"target":34962
		},
		{
			"buffer":0,
			"byteLength":3540,
			"byteOffset":385076,
			"target":34963
		},
		{
			"buffer":0,
			"byteLength":11568,
			"byteOffset":388616,
			"target":34962
		},
		{
			"buffer":0,
			"byteLength":11568,
			"byteOffset":400184,
			"target":34962
		},
		{
			"buffer":0,
			"byteLength":7712,
			"byteOffset":411752,
			"target":34962
		},
		{
			"buffer":0,
			"byteLength":15424,
			"byteOffset":419464,
			"target":34962
		},
		{
			"buffer":0,
			"byteLength":2280,
			"byteOffset":434888,
			"target":34963
		}
	],
	"samplers":[
		{
			"magFilter":9729,
			"minFilter":9987
		}
	],
	"buffers":[
		{
			"byteLength":437168,
			"uri":"PR_RockPilarsNew_GLTFgltf.bin"
		}
	]
}
