{
	"asset":{
		"generator":"Khronos glTF Blender I/O v4.2.57",
		"version":"2.0"
	},
	"scene":0,
	"scenes":[
		{
			"name":"Scene",
			"nodes":[
				0,
				1,
				2,
				3,
				4,
				5,
				6
			]
		}
	],
	"nodes":[
		{
			"mesh":0,
			"name":"PR_Rocks_DecorativeScaled_wind_v01"
		},
		{
			"mesh":1,
			"name":"PR_Rocks_DecorativeScaled_wind_v02"
		},
		{
			"mesh":2,
			"name":"PR_Rocks_DecorativeScaled_wind_v03"
		},
		{
			"mesh":3,
			"name":"PR_Rocks_DecorativeScaled_wind_v04"
		},
		{
			"mesh":4,
			"name":"PR_Rocks_DecorativeScaled_wind_v05"
		},
		{
			"mesh":5,
			"name":"PR_Rocks_DecorativeScaled_wind_v06"
		},
		{
			"mesh":6,
			"name":"PR_Rocks_DecorativeScaled_wind_v07"
		}
	],
	"materials":[
		{
			"doubleSided":true,
			"name":"M_Rocks_DecorativeModified",
			"normalTexture":{
				"index":0
			},
			"pbrMetallicRoughness":{
				"baseColorTexture":{
					"index":1
				},
				"metallicRoughnessTexture":{
					"index":2
				}
			}
		}
	],
	"meshes":[
		{
			"name":"Mesh.038",
			"primitives":[
				{
					"attributes":{
						"POSITION":0,
						"NORMAL":1,
						"TEXCOORD_0":2,
						"TANGENT":3
					},
					"indices":4,
					"material":0
				}
			]
		},
		{
			"name":"Mesh.037",
			"primitives":[
				{
					"attributes":{
						"POSITION":5,
						"NORMAL":6,
						"TEXCOORD_0":7,
						"TANGENT":8
					},
					"indices":9,
					"material":0
				}
			]
		},
		{
			"name":"Mesh.036",
			"primitives":[
				{
					"attributes":{
						"POSITION":10,
						"NORMAL":11,
						"TEXCOORD_0":12,
						"TANGENT":13
					},
					"indices":14,
					"material":0
				}
			]
		},
		{
			"name":"Mesh.032",
			"primitives":[
				{
					"attributes":{
						"POSITION":15,
						"NORMAL":16,
						"TEXCOORD_0":17,
						"TANGENT":18
					},
					"indices":19,
					"material":0
				}
			]
		},
		{
			"name":"Mesh.033",
			"primitives":[
				{
					"attributes":{
						"POSITION":20,
						"NORMAL":21,
						"TEXCOORD_0":22,
						"TANGENT":23
					},
					"indices":24,
					"material":0
				}
			]
		},
		{
			"name":"Mesh.034",
			"primitives":[
				{
					"attributes":{
						"POSITION":25,
						"NORMAL":26,
						"TEXCOORD_0":27,
						"TANGENT":28
					},
					"indices":29,
					"material":0
				}
			]
		},
		{
			"name":"Mesh.035",
			"primitives":[
				{
					"attributes":{
						"POSITION":30,
						"NORMAL":31,
						"TEXCOORD_0":32,
						"TANGENT":33
					},
					"indices":34,
					"material":0
				}
			]
		}
	],
	"textures":[
		{
			"sampler":0,
			"source":0
		},
		{
			"sampler":0,
			"source":1
		},
		{
			"sampler":0,
			"source":2
		}
	],
	"images":[
		{
			"mimeType":"image/png",
			"name":"T_PR_Rock_Decorative_Normal",
			"uri":"T_PR_Rock_Decorative_Normal.png"
		},
		{
			"mimeType":"image/png",
			"name":"prueba_piedras_Deco_low_RocksDeco_BaseColor",
			"uri":"prueba_piedras_Deco_low_RocksDeco_BaseColor.png"
		},
		{
			"mimeType":"image/png",
			"name":"T_PR_Rock_Decorative_OcclusionRoughnessMetallic",
			"uri":"T_PR_Rock_Decorative_OcclusionRoughnessMetallic.png"
		}
	],
	"accessors":[
		{
			"bufferView":0,
			"componentType":5126,
			"count":171,
			"max":[
				0.93501216173172,
				0.5579036474227905,
				0.5974032878875732
			],
			"min":[
				-0.7934325933456421,
				-0.5935320258140564,
				-0.5544675588607788
			],
			"type":"VEC3"
		},
		{
			"bufferView":1,
			"componentType":5126,
			"count":171,
			"type":"VEC3"
		},
		{
			"bufferView":2,
			"componentType":5126,
			"count":171,
			"type":"VEC2"
		},
		{
			"bufferView":3,
			"componentType":5126,
			"count":171,
			"type":"VEC4"
		},
		{
			"bufferView":4,
			"componentType":5123,
			"count":882,
			"type":"SCALAR"
		},
		{
			"bufferView":5,
			"componentType":5126,
			"count":173,
			"max":[
				0.5268211960792542,
				0.5078897476196289,
				0.5571364760398865
			],
			"min":[
				-0.5298646092414856,
				-0.4911452829837799,
				-0.4754924178123474
			],
			"type":"VEC3"
		},
		{
			"bufferView":6,
			"componentType":5126,
			"count":173,
			"type":"VEC3"
		},
		{
			"bufferView":7,
			"componentType":5126,
			"count":173,
			"type":"VEC2"
		},
		{
			"bufferView":8,
			"componentType":5126,
			"count":173,
			"type":"VEC4"
		},
		{
			"bufferView":9,
			"componentType":5123,
			"count":888,
			"type":"SCALAR"
		},
		{
			"bufferView":10,
			"componentType":5126,
			"count":185,
			"max":[
				0.7198150157928467,
				0.8309186697006226,
				0.4204891622066498
			],
			"min":[
				-0.572720468044281,
				-0.8370528817176819,
				-0.3193880617618561
			],
			"type":"VEC3"
		},
		{
			"bufferView":11,
			"componentType":5126,
			"count":185,
			"type":"VEC3"
		},
		{
			"bufferView":12,
			"componentType":5126,
			"count":185,
			"type":"VEC2"
		},
		{
			"bufferView":13,
			"componentType":5126,
			"count":185,
			"type":"VEC4"
		},
		{
			"bufferView":14,
			"componentType":5123,
			"count":936,
			"type":"SCALAR"
		},
		{
			"bufferView":15,
			"componentType":5126,
			"count":186,
			"max":[
				0.41766875982284546,
				0.4084778130054474,
				0.4071993827819824
			],
			"min":[
				-0.422139048576355,
				-0.43592196702957153,
				-0.4186660945415497
			],
			"type":"VEC3"
		},
		{
			"bufferView":16,
			"componentType":5126,
			"count":186,
			"type":"VEC3"
		},
		{
			"bufferView":17,
			"componentType":5126,
			"count":186,
			"type":"VEC2"
		},
		{
			"bufferView":18,
			"componentType":5126,
			"count":186,
			"type":"VEC4"
		},
		{
			"bufferView":19,
			"componentType":5123,
			"count":966,
			"type":"SCALAR"
		},
		{
			"bufferView":20,
			"componentType":5126,
			"count":182,
			"max":[
				0.7528996467590332,
				0.669180691242218,
				0.48888516426086426
			],
			"min":[
				-0.7252187132835388,
				-0.46027639508247375,
				-0.5395879745483398
			],
			"type":"VEC3"
		},
		{
			"bufferView":21,
			"componentType":5126,
			"count":182,
			"type":"VEC3"
		},
		{
			"bufferView":22,
			"componentType":5126,
			"count":182,
			"type":"VEC2"
		},
		{
			"bufferView":23,
			"componentType":5126,
			"count":182,
			"type":"VEC4"
		},
		{
			"bufferView":24,
			"componentType":5123,
			"count":918,
			"type":"SCALAR"
		},
		{
			"bufferView":25,
			"componentType":5126,
			"count":181,
			"max":[
				0.7583420276641846,
				0.39455658197402954,
				0.3396875858306885
			],
			"min":[
				-0.6567165851593018,
				-0.24872957170009613,
				-0.4374552071094513
			],
			"type":"VEC3"
		},
		{
			"bufferView":26,
			"componentType":5126,
			"count":181,
			"type":"VEC3"
		},
		{
			"bufferView":27,
			"componentType":5126,
			"count":181,
			"type":"VEC2"
		},
		{
			"bufferView":28,
			"componentType":5126,
			"count":181,
			"type":"VEC4"
		},
		{
			"bufferView":29,
			"componentType":5123,
			"count":924,
			"type":"SCALAR"
		},
		{
			"bufferView":30,
			"componentType":5126,
			"count":120,
			"max":[
				0.5703455805778503,
				0.2737235128879547,
				0.33321815729141235
			],
			"min":[
				-0.4967793822288513,
				-0.25802579522132874,
				-0.4435904324054718
			],
			"type":"VEC3"
		},
		{
			"bufferView":31,
			"componentType":5126,
			"count":120,
			"type":"VEC3"
		},
		{
			"bufferView":32,
			"componentType":5126,
			"count":120,
			"type":"VEC2"
		},
		{
			"bufferView":33,
			"componentType":5126,
			"count":120,
			"type":"VEC4"
		},
		{
			"bufferView":34,
			"componentType":5123,
			"count":594,
			"type":"SCALAR"
		}
	],
	"bufferViews":[
		{
			"buffer":0,
			"byteLength":2052,
			"byteOffset":0,
			"target":34962
		},
		{
			"buffer":0,
			"byteLength":2052,
			"byteOffset":2052,
			"target":34962
		},
		{
			"buffer":0,
			"byteLength":1368,
			"byteOffset":4104,
			"target":34962
		},
		{
			"buffer":0,
			"byteLength":2736,
			"byteOffset":5472,
			"target":34962
		},
		{
			"buffer":0,
			"byteLength":1764,
			"byteOffset":8208,
			"target":34963
		},
		{
			"buffer":0,
			"byteLength":2076,
			"byteOffset":9972,
			"target":34962
		},
		{
			"buffer":0,
			"byteLength":2076,
			"byteOffset":12048,
			"target":34962
		},
		{
			"buffer":0,
			"byteLength":1384,
			"byteOffset":14124,
			"target":34962
		},
		{
			"buffer":0,
			"byteLength":2768,
			"byteOffset":15508,
			"target":34962
		},
		{
			"buffer":0,
			"byteLength":1776,
			"byteOffset":18276,
			"target":34963
		},
		{
			"buffer":0,
			"byteLength":2220,
			"byteOffset":20052,
			"target":34962
		},
		{
			"buffer":0,
			"byteLength":2220,
			"byteOffset":22272,
			"target":34962
		},
		{
			"buffer":0,
			"byteLength":1480,
			"byteOffset":24492,
			"target":34962
		},
		{
			"buffer":0,
			"byteLength":2960,
			"byteOffset":25972,
			"target":34962
		},
		{
			"buffer":0,
			"byteLength":1872,
			"byteOffset":28932,
			"target":34963
		},
		{
			"buffer":0,
			"byteLength":2232,
			"byteOffset":30804,
			"target":34962
		},
		{
			"buffer":0,
			"byteLength":2232,
			"byteOffset":33036,
			"target":34962
		},
		{
			"buffer":0,
			"byteLength":1488,
			"byteOffset":35268,
			"target":34962
		},
		{
			"buffer":0,
			"byteLength":2976,
			"byteOffset":36756,
			"target":34962
		},
		{
			"buffer":0,
			"byteLength":1932,
			"byteOffset":39732,
			"target":34963
		},
		{
			"buffer":0,
			"byteLength":2184,
			"byteOffset":41664,
			"target":34962
		},
		{
			"buffer":0,
			"byteLength":2184,
			"byteOffset":43848,
			"target":34962
		},
		{
			"buffer":0,
			"byteLength":1456,
			"byteOffset":46032,
			"target":34962
		},
		{
			"buffer":0,
			"byteLength":2912,
			"byteOffset":47488,
			"target":34962
		},
		{
			"buffer":0,
			"byteLength":1836,
			"byteOffset":50400,
			"target":34963
		},
		{
			"buffer":0,
			"byteLength":2172,
			"byteOffset":52236,
			"target":34962
		},
		{
			"buffer":0,
			"byteLength":2172,
			"byteOffset":54408,
			"target":34962
		},
		{
			"buffer":0,
			"byteLength":1448,
			"byteOffset":56580,
			"target":34962
		},
		{
			"buffer":0,
			"byteLength":2896,
			"byteOffset":58028,
			"target":34962
		},
		{
			"buffer":0,
			"byteLength":1848,
			"byteOffset":60924,
			"target":34963
		},
		{
			"buffer":0,
			"byteLength":1440,
			"byteOffset":62772,
			"target":34962
		},
		{
			"buffer":0,
			"byteLength":1440,
			"byteOffset":64212,
			"target":34962
		},
		{
			"buffer":0,
			"byteLength":960,
			"byteOffset":65652,
			"target":34962
		},
		{
			"buffer":0,
			"byteLength":1920,
			"byteOffset":66612,
			"target":34962
		},
		{
			"buffer":0,
			"byteLength":1188,
			"byteOffset":68532,
			"target":34963
		}
	],
	"samplers":[
		{
			"magFilter":9729,
			"minFilter":9987
		}
	],
	"buffers":[
		{
			"byteLength":69720,
			"uri":"PR_Rocks_Decorative_Wind_GLFT.bin"
		}
	]
}
