{
	"asset":{
		"generator":"Khronos glTF Blender I/O v4.2.57",
		"version":"2.0"
	},
	"extensionsUsed":[
		"KHR_materials_specular"
	],
	"scene":0,
	"scenes":[
		{
			"name":"Scene",
			"nodes":[
				0,
				1,
				2,
				3,
				4,
				5,
				6,
				7,
				8,
				9
			]
		}
	],
	"nodes":[
		{
			"mesh":0,
			"name":"PR_Stalactite_v06"
		},
		{
			"mesh":1,
			"name":"PR_Stalactite_v01"
		},
		{
			"mesh":2,
			"name":"PR_Stalactite_v05"
		},
		{
			"mesh":3,
			"name":"PR_Stalactite_v04"
		},
		{
			"mesh":4,
			"name":"PR_Stalactite_v03"
		},
		{
			"mesh":5,
			"name":"PR_Stalactite_v02"
		},
		{
			"mesh":6,
			"name":"PR_Stalactite_v07"
		},
		{
			"mesh":7,
			"name":"PR_Stalactite_v08"
		},
		{
			"mesh":8,
			"name":"PR_Stalactite_v09"
		},
		{
			"mesh":9,
			"name":"PR_Stalactite_v10",
			"rotation":[
				0,
				-0.3900202810764313,
				0,
				0.9208062887191772
			],
			"scale":[
				1.422137975692749,
				0.9046157002449036,
				1.6100590229034424
			]
		}
	],
	"materials":[
		{
			"doubleSided":true,
			"extensions":{
				"KHR_materials_specular":{
					"specularFactor":0
				}
			},
			"name":"M_Stalactites",
			"normalTexture":{
				"index":0
			},
			"pbrMetallicRoughness":{
				"baseColorTexture":{
					"index":1
				},
				"metallicRoughnessTexture":{
					"index":2
				}
			}
		}
	],
	"meshes":[
		{
			"name":"Mesh.006",
			"primitives":[
				{
					"attributes":{
						"POSITION":0,
						"NORMAL":1,
						"TEXCOORD_0":2,
						"TANGENT":3
					},
					"indices":4,
					"material":0
				}
			]
		},
		{
			"name":"Mesh.007",
			"primitives":[
				{
					"attributes":{
						"POSITION":5,
						"NORMAL":6,
						"TEXCOORD_0":7,
						"TANGENT":8
					},
					"indices":9,
					"material":0
				}
			]
		},
		{
			"name":"Mesh.008",
			"primitives":[
				{
					"attributes":{
						"POSITION":10,
						"NORMAL":11,
						"TEXCOORD_0":12,
						"TANGENT":13
					},
					"indices":14,
					"material":0
				}
			]
		},
		{
			"name":"Mesh.009",
			"primitives":[
				{
					"attributes":{
						"POSITION":15,
						"NORMAL":16,
						"TEXCOORD_0":17,
						"TANGENT":18
					},
					"indices":19,
					"material":0
				}
			]
		},
		{
			"name":"Mesh.010",
			"primitives":[
				{
					"attributes":{
						"POSITION":20,
						"NORMAL":21,
						"TEXCOORD_0":22,
						"TANGENT":23
					},
					"indices":24,
					"material":0
				}
			]
		},
		{
			"name":"Mesh.011",
			"primitives":[
				{
					"attributes":{
						"POSITION":25,
						"NORMAL":26,
						"TEXCOORD_0":27,
						"TANGENT":28
					},
					"indices":29,
					"material":0
				}
			]
		},
		{
			"name":"Mesh.001",
			"primitives":[
				{
					"attributes":{
						"POSITION":30,
						"NORMAL":31,
						"TEXCOORD_0":32,
						"TANGENT":33
					},
					"indices":34,
					"material":0
				}
			]
		},
		{
			"name":"Mesh.004",
			"primitives":[
				{
					"attributes":{
						"POSITION":35,
						"NORMAL":36,
						"TEXCOORD_0":37,
						"TANGENT":38
					},
					"indices":39,
					"material":0
				},
				{
					"attributes":{
						"POSITION":40,
						"NORMAL":41,
						"TEXCOORD_0":42,
						"TANGENT":43
					},
					"indices":44,
					"material":0
				},
				{
					"attributes":{
						"POSITION":45,
						"NORMAL":46,
						"TEXCOORD_0":47,
						"TANGENT":48
					},
					"indices":49,
					"material":0
				},
				{
					"attributes":{
						"POSITION":50,
						"NORMAL":51,
						"TEXCOORD_0":52,
						"TANGENT":53
					},
					"indices":54,
					"material":0
				}
			]
		},
		{
			"name":"Mesh.019",
			"primitives":[
				{
					"attributes":{
						"POSITION":55,
						"NORMAL":56,
						"TEXCOORD_0":57,
						"TANGENT":58
					},
					"indices":59,
					"material":0
				},
				{
					"attributes":{
						"POSITION":60,
						"NORMAL":61,
						"TEXCOORD_0":62,
						"TANGENT":63
					},
					"indices":64,
					"material":0
				}
			]
		},
		{
			"name":"Mesh.028",
			"primitives":[
				{
					"attributes":{
						"POSITION":65,
						"NORMAL":66,
						"TEXCOORD_0":67,
						"TANGENT":68
					},
					"indices":69,
					"material":0
				},
				{
					"attributes":{
						"POSITION":70,
						"NORMAL":71,
						"TEXCOORD_0":72,
						"TANGENT":73
					},
					"indices":74,
					"material":0
				},
				{
					"attributes":{
						"POSITION":75,
						"NORMAL":76,
						"TEXCOORD_0":77,
						"TANGENT":78
					},
					"indices":79,
					"material":0
				},
				{
					"attributes":{
						"POSITION":80,
						"NORMAL":81,
						"TEXCOORD_0":82,
						"TANGENT":83
					},
					"indices":84,
					"material":0
				},
				{
					"attributes":{
						"POSITION":85,
						"NORMAL":86,
						"TEXCOORD_0":87,
						"TANGENT":88
					},
					"indices":89,
					"material":0
				}
			]
		}
	],
	"textures":[
		{
			"sampler":0,
			"source":0
		},
		{
			"sampler":0,
			"source":1
		},
		{
			"sampler":0,
			"source":2
		}
	],
	"images":[
		{
			"mimeType":"image/png",
			"name":"T_Stalactites_Normal",
			"uri":"T_Stalactites_Normal.png"
		},
		{
			"mimeType":"image/png",
			"name":"T_Stalactites_BaseColor",
			"uri":"T_Stalactites_BaseColor.png"
		},
		{
			"mimeType":"image/png",
			"name":"T_Stalactites_OcclusionRoughnessMetallic",
			"uri":"T_Stalactites_OcclusionRoughnessMetallic.png"
		}
	],
	"accessors":[
		{
			"bufferView":0,
			"componentType":5126,
			"count":1141,
			"max":[
				0.6920678615570068,
				5.89605712890625,
				0.6588914394378662
			],
			"min":[
				-0.6920678615570068,
				-0.03661990165710449,
				-0.7269666790962219
			],
			"type":"VEC3"
		},
		{
			"bufferView":1,
			"componentType":5126,
			"count":1141,
			"type":"VEC3"
		},
		{
			"bufferView":2,
			"componentType":5126,
			"count":1141,
			"type":"VEC2"
		},
		{
			"bufferView":3,
			"componentType":5126,
			"count":1141,
			"type":"VEC4"
		},
		{
			"bufferView":4,
			"componentType":5123,
			"count":1434,
			"type":"SCALAR"
		},
		{
			"bufferView":5,
			"componentType":5126,
			"count":763,
			"max":[
				0.4655993580818176,
				3.802337169647217,
				0.5215849876403809
			],
			"min":[
				-0.4655993580818176,
				-0.0031538009643554688,
				-0.44416937232017517
			],
			"type":"VEC3"
		},
		{
			"bufferView":6,
			"componentType":5126,
			"count":763,
			"type":"VEC3"
		},
		{
			"bufferView":7,
			"componentType":5126,
			"count":763,
			"type":"VEC2"
		},
		{
			"bufferView":8,
			"componentType":5126,
			"count":763,
			"type":"VEC4"
		},
		{
			"bufferView":9,
			"componentType":5123,
			"count":930,
			"type":"SCALAR"
		},
		{
			"bufferView":10,
			"componentType":5126,
			"count":329,
			"max":[
				0.30916503071784973,
				2.619314193725586,
				0.3167016804218292
			],
			"min":[
				-0.30916503071784973,
				0.007982015609741211,
				-0.23588618636131287
			],
			"type":"VEC3"
		},
		{
			"bufferView":11,
			"componentType":5126,
			"count":329,
			"type":"VEC3"
		},
		{
			"bufferView":12,
			"componentType":5126,
			"count":329,
			"type":"VEC2"
		},
		{
			"bufferView":13,
			"componentType":5126,
			"count":329,
			"type":"VEC4"
		},
		{
			"bufferView":14,
			"componentType":5123,
			"count":402,
			"type":"SCALAR"
		},
		{
			"bufferView":15,
			"componentType":5126,
			"count":1007,
			"max":[
				0.8492944240570068,
				5.848453521728516,
				0.6910886764526367
			],
			"min":[
				-0.8492944240570068,
				0.01098322868347168,
				-0.7076258659362793
			],
			"type":"VEC3"
		},
		{
			"bufferView":16,
			"componentType":5126,
			"count":1007,
			"type":"VEC3"
		},
		{
			"bufferView":17,
			"componentType":5126,
			"count":1007,
			"type":"VEC2"
		},
		{
			"bufferView":18,
			"componentType":5126,
			"count":1007,
			"type":"VEC4"
		},
		{
			"bufferView":19,
			"componentType":5123,
			"count":1266,
			"type":"SCALAR"
		},
		{
			"bufferView":20,
			"componentType":5126,
			"count":1033,
			"max":[
				0.5610253810882568,
				5.8740997314453125,
				0.492267370223999
			],
			"min":[
				-0.5610253810882568,
				-0.01466226577758789,
				-0.7402887344360352
			],
			"type":"VEC3"
		},
		{
			"bufferView":21,
			"componentType":5126,
			"count":1033,
			"type":"VEC3"
		},
		{
			"bufferView":22,
			"componentType":5126,
			"count":1033,
			"type":"VEC2"
		},
		{
			"bufferView":23,
			"componentType":5126,
			"count":1033,
			"type":"VEC4"
		},
		{
			"bufferView":24,
			"componentType":5123,
			"count":1278,
			"type":"SCALAR"
		},
		{
			"bufferView":25,
			"componentType":5126,
			"count":1499,
			"max":[
				0.6949487328529358,
				5.858410835266113,
				0.6688490509986877
			],
			"min":[
				-0.6949487328529358,
				0.0010259151458740234,
				-0.7366257905960083
			],
			"type":"VEC3"
		},
		{
			"bufferView":26,
			"componentType":5126,
			"count":1499,
			"type":"VEC3"
		},
		{
			"bufferView":27,
			"componentType":5126,
			"count":1499,
			"type":"VEC2"
		},
		{
			"bufferView":28,
			"componentType":5126,
			"count":1499,
			"type":"VEC4"
		},
		{
			"bufferView":29,
			"componentType":5123,
			"count":1872,
			"type":"SCALAR"
		},
		{
			"bufferView":30,
			"componentType":5126,
			"count":3731,
			"max":[
				0.6949486136436462,
				5.858410835266113,
				1.1988900899887085
			],
			"min":[
				-0.9888266921043396,
				-0.05940866470336914,
				-1.2558213472366333
			],
			"type":"VEC3"
		},
		{
			"bufferView":31,
			"componentType":5126,
			"count":3731,
			"type":"VEC3"
		},
		{
			"bufferView":32,
			"componentType":5126,
			"count":3731,
			"type":"VEC2"
		},
		{
			"bufferView":33,
			"componentType":5126,
			"count":3731,
			"type":"VEC4"
		},
		{
			"bufferView":34,
			"componentType":5123,
			"count":4638,
			"type":"SCALAR"
		},
		{
			"bufferView":35,
			"componentType":5126,
			"count":2040,
			"max":[
				0.8492944240570068,
				5.848453521728516,
				0.7955358028411865
			],
			"min":[
				-0.8492944240570068,
				0.01098322868347168,
				-1.2015408277511597
			],
			"type":"VEC3"
		},
		{
			"bufferView":36,
			"componentType":5126,
			"count":2040,
			"type":"VEC3"
		},
		{
			"bufferView":37,
			"componentType":5126,
			"count":2040,
			"type":"VEC2"
		},
		{
			"bufferView":38,
			"componentType":5126,
			"count":2040,
			"type":"VEC4"
		},
		{
			"bufferView":39,
			"componentType":5123,
			"count":2544,
			"type":"SCALAR"
		},
		{
			"bufferView":40,
			"componentType":5126,
			"count":1033,
			"max":[
				-0.12296073883771896,
				2.6082570552825928,
				-0.19064882397651672
			],
			"min":[
				-0.6245991587638855,
				0.03814435005187988,
				-0.7265229821205139
			],
			"type":"VEC3"
		},
		{
			"bufferView":41,
			"componentType":5126,
			"count":1033,
			"type":"VEC3"
		},
		{
			"bufferView":42,
			"componentType":5126,
			"count":1033,
			"type":"VEC2"
		},
		{
			"bufferView":43,
			"componentType":5126,
			"count":1033,
			"type":"VEC4"
		},
		{
			"bufferView":44,
			"componentType":5123,
			"count":1278,
			"type":"SCALAR"
		},
		{
			"bufferView":45,
			"componentType":5126,
			"count":1501,
			"max":[
				0.1727195829153061,
				3.6273081302642822,
				1.3721504211425781
			],
			"min":[
				-0.7265854477882385,
				0.04220390319824219,
				0.5159486532211304
			],
			"type":"VEC3"
		},
		{
			"bufferView":46,
			"componentType":5126,
			"count":1501,
			"type":"VEC3"
		},
		{
			"bufferView":47,
			"componentType":5126,
			"count":1501,
			"type":"VEC2"
		},
		{
			"bufferView":48,
			"componentType":5126,
			"count":1501,
			"type":"VEC4"
		},
		{
			"bufferView":49,
			"componentType":5123,
			"count":1872,
			"type":"SCALAR"
		},
		{
			"bufferView":50,
			"componentType":5126,
			"count":1009,
			"max":[
				0.8836589455604553,
				3.1037909984588623,
				1.2993098497390747
			],
			"min":[
				0.006328925956040621,
				0.008073568344116211,
				0.5496073961257935
			],
			"type":"VEC3"
		},
		{
			"bufferView":51,
			"componentType":5126,
			"count":1009,
			"type":"VEC3"
		},
		{
			"bufferView":52,
			"componentType":5126,
			"count":1009,
			"type":"VEC2"
		},
		{
			"bufferView":53,
			"componentType":5126,
			"count":1009,
			"type":"VEC4"
		},
		{
			"bufferView":54,
			"componentType":5123,
			"count":1266,
			"type":"SCALAR"
		},
		{
			"bufferView":55,
			"componentType":5126,
			"count":3267,
			"max":[
				0.863174557685852,
				4.442464828491211,
				0.6884512305259705
			],
			"min":[
				-0.48663464188575745,
				-0.11413073539733887,
				-0.6189250946044922
			],
			"type":"VEC3"
		},
		{
			"bufferView":56,
			"componentType":5126,
			"count":3267,
			"type":"VEC3"
		},
		{
			"bufferView":57,
			"componentType":5126,
			"count":3267,
			"type":"VEC2"
		},
		{
			"bufferView":58,
			"componentType":5126,
			"count":3267,
			"type":"VEC4"
		},
		{
			"bufferView":59,
			"componentType":5123,
			"count":4044,
			"type":"SCALAR"
		},
		{
			"bufferView":60,
			"componentType":5126,
			"count":329,
			"max":[
				0.4620773494243622,
				1.138597011566162,
				-0.5242560505867004
			],
			"min":[
				0.18645553290843964,
				-0.0333406925201416,
				-0.7553377747535706
			],
			"type":"VEC3"
		},
		{
			"bufferView":61,
			"componentType":5126,
			"count":329,
			"type":"VEC3"
		},
		{
			"bufferView":62,
			"componentType":5126,
			"count":329,
			"type":"VEC2"
		},
		{
			"bufferView":63,
			"componentType":5126,
			"count":329,
			"type":"VEC4"
		},
		{
			"bufferView":64,
			"componentType":5123,
			"count":402,
			"type":"SCALAR"
		},
		{
			"bufferView":65,
			"componentType":5126,
			"count":1009,
			"max":[
				1.157992959022522,
				6.7975921630859375,
				-2.437818765640259
			],
			"min":[
				-0.8838291168212891,
				-0.2194536328315735,
				-4.119171619415283
			],
			"type":"VEC3"
		},
		{
			"bufferView":66,
			"componentType":5126,
			"count":1009,
			"type":"VEC3"
		},
		{
			"bufferView":67,
			"componentType":5126,
			"count":1009,
			"type":"VEC2"
		},
		{
			"bufferView":68,
			"componentType":5126,
			"count":1009,
			"type":"VEC4"
		},
		{
			"bufferView":69,
			"componentType":5123,
			"count":1266,
			"type":"SCALAR"
		},
		{
			"bufferView":70,
			"componentType":5126,
			"count":5020,
			"max":[
				5.831230163574219,
				13.034932136535645,
				3.5817315578460693
			],
			"min":[
				-1.3409074544906616,
				-0.041539669036865234,
				-1.7116602659225464
			],
			"type":"VEC3"
		},
		{
			"bufferView":71,
			"componentType":5126,
			"count":5020,
			"type":"VEC3"
		},
		{
			"bufferView":72,
			"componentType":5126,
			"count":5020,
			"type":"VEC2"
		},
		{
			"bufferView":73,
			"componentType":5126,
			"count":5020,
			"type":"VEC4"
		},
		{
			"bufferView":74,
			"componentType":5123,
			"count":6252,
			"type":"SCALAR"
		},
		{
			"bufferView":75,
			"componentType":5126,
			"count":1502,
			"max":[
				-1.6407291889190674,
				3.345043897628784,
				-2.4724318981170654
			],
			"min":[
				-2.162012815475464,
				0.0005857784999534488,
				-2.921109199523926
			],
			"type":"VEC3"
		},
		{
			"bufferView":76,
			"componentType":5126,
			"count":1502,
			"type":"VEC3"
		},
		{
			"bufferView":77,
			"componentType":5126,
			"count":1502,
			"type":"VEC2"
		},
		{
			"bufferView":78,
			"componentType":5126,
			"count":1502,
			"type":"VEC4"
		},
		{
			"bufferView":79,
			"componentType":5123,
			"count":1872,
			"type":"SCALAR"
		},
		{
			"bufferView":80,
			"componentType":5126,
			"count":330,
			"max":[
				-1.0888869762420654,
				5.957399845123291,
				-3.8493833541870117
			],
			"min":[
				-2.0054893493652344,
				-0.2087164968252182,
				-4.655129432678223
			],
			"type":"VEC3"
		},
		{
			"bufferView":81,
			"componentType":5126,
			"count":330,
			"type":"VEC3"
		},
		{
			"bufferView":82,
			"componentType":5126,
			"count":330,
			"type":"VEC2"
		},
		{
			"bufferView":83,
			"componentType":5126,
			"count":330,
			"type":"VEC4"
		},
		{
			"bufferView":84,
			"componentType":5123,
			"count":402,
			"type":"SCALAR"
		},
		{
			"bufferView":85,
			"componentType":5126,
			"count":330,
			"max":[
				0.824546217918396,
				3.653395175933838,
				1.3290743827819824
			],
			"min":[
				0.2431870698928833,
				0.011133241467177868,
				0.6760514378547668
			],
			"type":"VEC3"
		},
		{
			"bufferView":86,
			"componentType":5126,
			"count":330,
			"type":"VEC3"
		},
		{
			"bufferView":87,
			"componentType":5126,
			"count":330,
			"type":"VEC2"
		},
		{
			"bufferView":88,
			"componentType":5126,
			"count":330,
			"type":"VEC4"
		},
		{
			"bufferView":89,
			"componentType":5123,
			"count":402,
			"type":"SCALAR"
		}
	],
	"bufferViews":[
		{
			"buffer":0,
			"byteLength":13692,
			"byteOffset":0,
			"target":34962
		},
		{
			"buffer":0,
			"byteLength":13692,
			"byteOffset":13692,
			"target":34962
		},
		{
			"buffer":0,
			"byteLength":9128,
			"byteOffset":27384,
			"target":34962
		},
		{
			"buffer":0,
			"byteLength":18256,
			"byteOffset":36512,
			"target":34962
		},
		{
			"buffer":0,
			"byteLength":2868,
			"byteOffset":54768,
			"target":34963
		},
		{
			"buffer":0,
			"byteLength":9156,
			"byteOffset":57636,
			"target":34962
		},
		{
			"buffer":0,
			"byteLength":9156,
			"byteOffset":66792,
			"target":34962
		},
		{
			"buffer":0,
			"byteLength":6104,
			"byteOffset":75948,
			"target":34962
		},
		{
			"buffer":0,
			"byteLength":12208,
			"byteOffset":82052,
			"target":34962
		},
		{
			"buffer":0,
			"byteLength":1860,
			"byteOffset":94260,
			"target":34963
		},
		{
			"buffer":0,
			"byteLength":3948,
			"byteOffset":96120,
			"target":34962
		},
		{
			"buffer":0,
			"byteLength":3948,
			"byteOffset":100068,
			"target":34962
		},
		{
			"buffer":0,
			"byteLength":2632,
			"byteOffset":104016,
			"target":34962
		},
		{
			"buffer":0,
			"byteLength":5264,
			"byteOffset":106648,
			"target":34962
		},
		{
			"buffer":0,
			"byteLength":804,
			"byteOffset":111912,
			"target":34963
		},
		{
			"buffer":0,
			"byteLength":12084,
			"byteOffset":112716,
			"target":34962
		},
		{
			"buffer":0,
			"byteLength":12084,
			"byteOffset":124800,
			"target":34962
		},
		{
			"buffer":0,
			"byteLength":8056,
			"byteOffset":136884,
			"target":34962
		},
		{
			"buffer":0,
			"byteLength":16112,
			"byteOffset":144940,
			"target":34962
		},
		{
			"buffer":0,
			"byteLength":2532,
			"byteOffset":161052,
			"target":34963
		},
		{
			"buffer":0,
			"byteLength":12396,
			"byteOffset":163584,
			"target":34962
		},
		{
			"buffer":0,
			"byteLength":12396,
			"byteOffset":175980,
			"target":34962
		},
		{
			"buffer":0,
			"byteLength":8264,
			"byteOffset":188376,
			"target":34962
		},
		{
			"buffer":0,
			"byteLength":16528,
			"byteOffset":196640,
			"target":34962
		},
		{
			"buffer":0,
			"byteLength":2556,
			"byteOffset":213168,
			"target":34963
		},
		{
			"buffer":0,
			"byteLength":17988,
			"byteOffset":215724,
			"target":34962
		},
		{
			"buffer":0,
			"byteLength":17988,
			"byteOffset":233712,
			"target":34962
		},
		{
			"buffer":0,
			"byteLength":11992,
			"byteOffset":251700,
			"target":34962
		},
		{
			"buffer":0,
			"byteLength":23984,
			"byteOffset":263692,
			"target":34962
		},
		{
			"buffer":0,
			"byteLength":3744,
			"byteOffset":287676,
			"target":34963
		},
		{
			"buffer":0,
			"byteLength":44772,
			"byteOffset":291420,
			"target":34962
		},
		{
			"buffer":0,
			"byteLength":44772,
			"byteOffset":336192,
			"target":34962
		},
		{
			"buffer":0,
			"byteLength":29848,
			"byteOffset":380964,
			"target":34962
		},
		{
			"buffer":0,
			"byteLength":59696,
			"byteOffset":410812,
			"target":34962
		},
		{
			"buffer":0,
			"byteLength":9276,
			"byteOffset":470508,
			"target":34963
		},
		{
			"buffer":0,
			"byteLength":24480,
			"byteOffset":479784,
			"target":34962
		},
		{
			"buffer":0,
			"byteLength":24480,
			"byteOffset":504264,
			"target":34962
		},
		{
			"buffer":0,
			"byteLength":16320,
			"byteOffset":528744,
			"target":34962
		},
		{
			"buffer":0,
			"byteLength":32640,
			"byteOffset":545064,
			"target":34962
		},
		{
			"buffer":0,
			"byteLength":5088,
			"byteOffset":577704,
			"target":34963
		},
		{
			"buffer":0,
			"byteLength":12396,
			"byteOffset":582792,
			"target":34962
		},
		{
			"buffer":0,
			"byteLength":12396,
			"byteOffset":595188,
			"target":34962
		},
		{
			"buffer":0,
			"byteLength":8264,
			"byteOffset":607584,
			"target":34962
		},
		{
			"buffer":0,
			"byteLength":16528,
			"byteOffset":615848,
			"target":34962
		},
		{
			"buffer":0,
			"byteLength":2556,
			"byteOffset":632376,
			"target":34963
		},
		{
			"buffer":0,
			"byteLength":18012,
			"byteOffset":634932,
			"target":34962
		},
		{
			"buffer":0,
			"byteLength":18012,
			"byteOffset":652944,
			"target":34962
		},
		{
			"buffer":0,
			"byteLength":12008,
			"byteOffset":670956,
			"target":34962
		},
		{
			"buffer":0,
			"byteLength":24016,
			"byteOffset":682964,
			"target":34962
		},
		{
			"buffer":0,
			"byteLength":3744,
			"byteOffset":706980,
			"target":34963
		},
		{
			"buffer":0,
			"byteLength":12108,
			"byteOffset":710724,
			"target":34962
		},
		{
			"buffer":0,
			"byteLength":12108,
			"byteOffset":722832,
			"target":34962
		},
		{
			"buffer":0,
			"byteLength":8072,
			"byteOffset":734940,
			"target":34962
		},
		{
			"buffer":0,
			"byteLength":16144,
			"byteOffset":743012,
			"target":34962
		},
		{
			"buffer":0,
			"byteLength":2532,
			"byteOffset":759156,
			"target":34963
		},
		{
			"buffer":0,
			"byteLength":39204,
			"byteOffset":761688,
			"target":34962
		},
		{
			"buffer":0,
			"byteLength":39204,
			"byteOffset":800892,
			"target":34962
		},
		{
			"buffer":0,
			"byteLength":26136,
			"byteOffset":840096,
			"target":34962
		},
		{
			"buffer":0,
			"byteLength":52272,
			"byteOffset":866232,
			"target":34962
		},
		{
			"buffer":0,
			"byteLength":8088,
			"byteOffset":918504,
			"target":34963
		},
		{
			"buffer":0,
			"byteLength":3948,
			"byteOffset":926592,
			"target":34962
		},
		{
			"buffer":0,
			"byteLength":3948,
			"byteOffset":930540,
			"target":34962
		},
		{
			"buffer":0,
			"byteLength":2632,
			"byteOffset":934488,
			"target":34962
		},
		{
			"buffer":0,
			"byteLength":5264,
			"byteOffset":937120,
			"target":34962
		},
		{
			"buffer":0,
			"byteLength":804,
			"byteOffset":942384,
			"target":34963
		},
		{
			"buffer":0,
			"byteLength":12108,
			"byteOffset":943188,
			"target":34962
		},
		{
			"buffer":0,
			"byteLength":12108,
			"byteOffset":955296,
			"target":34962
		},
		{
			"buffer":0,
			"byteLength":8072,
			"byteOffset":967404,
			"target":34962
		},
		{
			"buffer":0,
			"byteLength":16144,
			"byteOffset":975476,
			"target":34962
		},
		{
			"buffer":0,
			"byteLength":2532,
			"byteOffset":991620,
			"target":34963
		},
		{
			"buffer":0,
			"byteLength":60240,
			"byteOffset":994152,
			"target":34962
		},
		{
			"buffer":0,
			"byteLength":60240,
			"byteOffset":1054392,
			"target":34962
		},
		{
			"buffer":0,
			"byteLength":40160,
			"byteOffset":1114632,
			"target":34962
		},
		{
			"buffer":0,
			"byteLength":80320,
			"byteOffset":1154792,
			"target":34962
		},
		{
			"buffer":0,
			"byteLength":12504,
			"byteOffset":1235112,
			"target":34963
		},
		{
			"buffer":0,
			"byteLength":18024,
			"byteOffset":1247616,
			"target":34962
		},
		{
			"buffer":0,
			"byteLength":18024,
			"byteOffset":1265640,
			"target":34962
		},
		{
			"buffer":0,
			"byteLength":12016,
			"byteOffset":1283664,
			"target":34962
		},
		{
			"buffer":0,
			"byteLength":24032,
			"byteOffset":1295680,
			"target":34962
		},
		{
			"buffer":0,
			"byteLength":3744,
			"byteOffset":1319712,
			"target":34963
		},
		{
			"buffer":0,
			"byteLength":3960,
			"byteOffset":1323456,
			"target":34962
		},
		{
			"buffer":0,
			"byteLength":3960,
			"byteOffset":1327416,
			"target":34962
		},
		{
			"buffer":0,
			"byteLength":2640,
			"byteOffset":1331376,
			"target":34962
		},
		{
			"buffer":0,
			"byteLength":5280,
			"byteOffset":1334016,
			"target":34962
		},
		{
			"buffer":0,
			"byteLength":804,
			"byteOffset":1339296,
			"target":34963
		},
		{
			"buffer":0,
			"byteLength":3960,
			"byteOffset":1340100,
			"target":34962
		},
		{
			"buffer":0,
			"byteLength":3960,
			"byteOffset":1344060,
			"target":34962
		},
		{
			"buffer":0,
			"byteLength":2640,
			"byteOffset":1348020,
			"target":34962
		},
		{
			"buffer":0,
			"byteLength":5280,
			"byteOffset":1350660,
			"target":34962
		},
		{
			"buffer":0,
			"byteLength":804,
			"byteOffset":1355940,
			"target":34963
		}
	],
	"samplers":[
		{
			"magFilter":9729,
			"minFilter":9987
		}
	],
	"buffers":[
		{
			"byteLength":1356744,
			"uri":"PR_StalactitesT_GLTF.bin"
		}
	]
}
