{
  "asset": {
    "generator": "UnityGltf 2.17.6, Unity 6000.0.29f1, URP",
    "version": "2.0"
  },
  "extensionsUsed": [
    "KHR_texture_transform"
  ],
  "scene": 0,
  "scenes": [
    {
      "nodes": [
        0
      ],
      "name": "PR_static_rock_dig_4"
    }
  ],
  "accessors": [
    {
      "bufferView": 0,
      "componentType": 5126,
      "count": 108,
      "type": "VEC3",
      "max": [
        -0.34399843215942383,
        0.061331495642662048,
        0.29648363590240479
      ],
      "min": [
        -0.57884490489959717,
        -0.00042628688970580697,
        0.092403076589107513
      ]
    },
    {
      "bufferView": 1,
      "componentType": 5126,
      "count": 108,
      "type": "VEC3",
      "max": [
        0.95879733562469482,
        0.99998760223388672,
        1.0
      ],
      "min": [
        -1.0,
        -1.0,
        -1.0
      ]
    },
    {
      "bufferView": 2,
      "componentType": 5126,
      "count": 108,
      "type": "VEC4",
      "max": [
        1.0,
        0.89766848087310791,
        1.0,
        1.0
      ],
      "min": [
        -0.90430891513824463,
        -0.27731746435165405,
        -0.999055802822113,
        1.0
      ]
    },
    {
      "bufferView": 3,
      "componentType": 5126,
      "count": 108,
      "type": "VEC2",
      "max": [
        0.875,
        1.0
      ],
      "min": [
        0.125,
        0.0
      ]
    },
    {
      "bufferView": 4,
      "componentType": 5121,
      "count": 288,
      "type": "SCALAR",
      "max": [
        107.0
      ],
      "min": [
        0.0
      ]
    },
    {
      "bufferView": 5,
      "componentType": 5126,
      "count": 108,
      "type": "VEC3",
      "max": [
        -0.34399843215942383,
        0.061331495642662048,
        0.29648363590240479
      ],
      "min": [
        -0.57884490489959717,
        -0.00042628761730156839,
        0.092403076589107513
      ]
    },
    {
      "bufferView": 6,
      "componentType": 5126,
      "count": 108,
      "type": "VEC3",
      "max": [
        0.95879733562469482,
        0.99998760223388672,
        1.0
      ],
      "min": [
        -1.0,
        -1.0,
        -1.0
      ]
    },
    {
      "bufferView": 7,
      "componentType": 5126,
      "count": 108,
      "type": "VEC4",
      "max": [
        1.0,
        0.89766848087310791,
        1.0,
        1.0
      ],
      "min": [
        -0.90430891513824463,
        -0.27731746435165405,
        -0.999055802822113,
        1.0
      ]
    },
    {
      "bufferView": 8,
      "componentType": 5126,
      "count": 108,
      "type": "VEC2",
      "max": [
        0.875,
        1.0
      ],
      "min": [
        0.125,
        0.0
      ]
    },
    {
      "bufferView": 9,
      "componentType": 5121,
      "count": 288,
      "type": "SCALAR",
      "max": [
        107.0
      ],
      "min": [
        0.0
      ]
    },
    {
      "bufferView": 10,
      "componentType": 5126,
      "count": 108,
      "type": "VEC3",
      "max": [
        -0.34399843215942383,
        0.061331495642662048,
        0.29648363590240479
      ],
      "min": [
        -0.57884490489959717,
        -0.00042628688970580697,
        0.092403076589107513
      ]
    },
    {
      "bufferView": 11,
      "componentType": 5126,
      "count": 108,
      "type": "VEC3",
      "max": [
        0.95879733562469482,
        0.99998760223388672,
        1.0
      ],
      "min": [
        -1.0,
        -1.0,
        -1.0
      ]
    },
    {
      "bufferView": 12,
      "componentType": 5126,
      "count": 108,
      "type": "VEC4",
      "max": [
        1.0,
        0.89766848087310791,
        1.0,
        1.0
      ],
      "min": [
        -0.90430891513824463,
        -0.27731746435165405,
        -0.999055802822113,
        1.0
      ]
    },
    {
      "bufferView": 13,
      "componentType": 5126,
      "count": 108,
      "type": "VEC2",
      "max": [
        0.875,
        1.0
      ],
      "min": [
        0.125,
        0.0
      ]
    },
    {
      "bufferView": 14,
      "componentType": 5121,
      "count": 288,
      "type": "SCALAR",
      "max": [
        107.0
      ],
      "min": [
        0.0
      ]
    },
    {
      "bufferView": 15,
      "componentType": 5126,
      "count": 108,
      "type": "VEC3",
      "max": [
        0.11738329380750656,
        0.02611125260591507,
        0.12877960503101349
      ],
      "min": [
        -0.1174631342291832,
        -0.035646531730890274,
        -0.075300954282283783
      ]
    },
    {
      "bufferView": 16,
      "componentType": 5126,
      "count": 108,
      "type": "VEC3",
      "max": [
        0.95879733562469482,
        0.99998760223388672,
        1.0
      ],
      "min": [
        -1.0,
        -1.0,
        -1.0
      ]
    },
    {
      "bufferView": 17,
      "componentType": 5126,
      "count": 108,
      "type": "VEC4",
      "max": [
        1.0,
        0.89766848087310791,
        1.0,
        1.0
      ],
      "min": [
        -0.90430891513824463,
        -0.27731743454933167,
        -0.999055802822113,
        1.0
      ]
    },
    {
      "bufferView": 18,
      "componentType": 5126,
      "count": 108,
      "type": "VEC2",
      "max": [
        0.875,
        1.0
      ],
      "min": [
        0.125,
        0.0
      ]
    },
    {
      "bufferView": 19,
      "componentType": 5121,
      "count": 288,
      "type": "SCALAR",
      "max": [
        107.0
      ],
      "min": [
        0.0
      ]
    },
    {
      "bufferView": 20,
      "componentType": 5126,
      "count": 59,
      "type": "SCALAR",
      "max": [
        2.5
      ],
      "min": [
        0.0
      ]
    },
    {
      "bufferView": 21,
      "componentType": 5126,
      "count": 59,
      "type": "VEC3",
      "max": [
        0.43662780523300171,
        0.4388175904750824,
        0.34058463573455811
      ],
      "min": [
        0.18691642582416534,
        -0.63524013757705688,
        -0.025422897189855576
      ]
    },
    {
      "bufferView": 22,
      "componentType": 5126,
      "count": 24,
      "type": "SCALAR",
      "max": [
        2.5
      ],
      "min": [
        0.0
      ]
    },
    {
      "bufferView": 23,
      "componentType": 5126,
      "count": 24,
      "type": "VEC4",
      "max": [
        0.99899429082870483,
        4.2313742596888915E-05,
        2.0282504920032807E-05,
        0.99979954957962036
      ],
      "min": [
        3.584153847736686E-14,
        -0.0060512633062899113,
        -0.010502973571419716,
        -1.0
      ]
    },
    {
      "bufferView": 24,
      "componentType": 5126,
      "count": 33,
      "type": "SCALAR",
      "max": [
        2.5
      ],
      "min": [
        0.0
      ]
    },
    {
      "bufferView": 25,
      "componentType": 5126,
      "count": 33,
      "type": "VEC3",
      "max": [
        1.1828601360321045,
        1.1828601360321045,
        1.1828601360321045
      ],
      "min": [
        0.0099999997764825821,
        0.0099999997764825821,
        0.0099999997764825821
      ]
    },
    {
      "bufferView": 26,
      "componentType": 5126,
      "count": 43,
      "type": "SCALAR",
      "max": [
        2.5
      ],
      "min": [
        0.0
      ]
    },
    {
      "bufferView": 27,
      "componentType": 5126,
      "count": 43,
      "type": "VEC3",
      "max": [
        0.0542580671608448,
        0.31413552165031433,
        0.37049815058708191
      ],
      "min": [
        -0.45931491255760193,
        -0.80301445722579956,
        0.34182485938072205
      ]
    },
    {
      "bufferView": 28,
      "componentType": 5126,
      "count": 29,
      "type": "SCALAR",
      "max": [
        2.5
      ],
      "min": [
        0.0
      ]
    },
    {
      "bufferView": 29,
      "componentType": 5126,
      "count": 29,
      "type": "VEC4",
      "max": [
        0.77826541662216187,
        0.671078622341156,
        0.020513780415058136,
        0.7588004469871521
      ],
      "min": [
        -0.027957884594798088,
        -0.088657468557357788,
        -0.58658218383789063,
        -0.99980270862579346
      ]
    },
    {
      "bufferView": 30,
      "componentType": 5126,
      "count": 58,
      "type": "SCALAR",
      "max": [
        2.5
      ],
      "min": [
        0.0
      ]
    },
    {
      "bufferView": 31,
      "componentType": 5126,
      "count": 58,
      "type": "VEC3",
      "max": [
        0.00784613098949194,
        0.00784613098949194,
        0.00784613098949194
      ],
      "min": [
        0.00058196380268782377,
        0.00058196380268782377,
        0.00058196380268782377
      ]
    },
    {
      "bufferView": 32,
      "componentType": 5126,
      "count": 75,
      "type": "SCALAR",
      "max": [
        2.5
      ],
      "min": [
        0.0
      ]
    },
    {
      "bufferView": 33,
      "componentType": 5126,
      "count": 75,
      "type": "VEC3",
      "max": [
        -0.054872438311576843,
        0.51343685388565063,
        0.27697837352752686
      ],
      "min": [
        -0.24391332268714905,
        -0.641300618648529,
        -0.079793460667133331
      ]
    },
    {
      "bufferView": 34,
      "componentType": 5126,
      "count": 50,
      "type": "SCALAR",
      "max": [
        2.5
      ],
      "min": [
        0.0
      ]
    },
    {
      "bufferView": 35,
      "componentType": 5126,
      "count": 50,
      "type": "VEC4",
      "max": [
        0.59587967395782471,
        0.39566335082054138,
        0.050424829125404358,
        0.87134760618209839
      ],
      "min": [
        -4.7432531573576853E-05,
        -0.52256560325622559,
        -0.82983595132827759,
        -1.0
      ]
    },
    {
      "bufferView": 36,
      "componentType": 5126,
      "count": 40,
      "type": "SCALAR",
      "max": [
        2.5
      ],
      "min": [
        0.0
      ]
    },
    {
      "bufferView": 37,
      "componentType": 5126,
      "count": 40,
      "type": "VEC3",
      "max": [
        0.0041865753009915352,
        0.0041865753009915352,
        0.0041865753009915352
      ],
      "min": [
        0.00039338797796517611,
        0.00039338797796517611,
        0.00039338797796517611
      ]
    },
    {
      "bufferView": 38,
      "componentType": 5126,
      "count": 56,
      "type": "SCALAR",
      "max": [
        2.5
      ],
      "min": [
        0.0
      ]
    },
    {
      "bufferView": 39,
      "componentType": 5126,
      "count": 56,
      "type": "VEC3",
      "max": [
        -0.024142233654856682,
        0.41834688186645508,
        0.99717855453491211
      ],
      "min": [
        -0.024142233654856682,
        -0.86454570293426514,
        0.40801402926445007
      ]
    },
    {
      "bufferView": 40,
      "componentType": 5126,
      "count": 18,
      "type": "SCALAR",
      "max": [
        2.5
      ],
      "min": [
        0.0
      ]
    },
    {
      "bufferView": 41,
      "componentType": 5126,
      "count": 18,
      "type": "VEC4",
      "max": [
        0.015852022916078568,
        0.67940205335617065,
        0.009446166455745697,
        0.73364561796188354
      ],
      "min": [
        -0.66419136524200439,
        -0.67931145429611206,
        -0.721413254737854,
        -0.73366481065750122
      ]
    },
    {
      "bufferView": 42,
      "componentType": 5126,
      "count": 34,
      "type": "SCALAR",
      "max": [
        2.5
      ],
      "min": [
        0.0
      ]
    },
    {
      "bufferView": 43,
      "componentType": 5126,
      "count": 34,
      "type": "VEC3",
      "max": [
        0.0038380459882318974,
        0.0038380459882318974,
        0.0038380459882318974
      ],
      "min": [
        0.00085781939560547471,
        0.00085781939560547471,
        0.00085781939560547471
      ]
    },
    {
      "bufferView": 44,
      "componentType": 5126,
      "count": 1,
      "type": "MAT4"
    },
    {
      "bufferView": 45,
      "componentType": 5123,
      "count": 108,
      "type": "VEC4",
      "max": [
        0.0,
        0.0,
        0.0,
        0.0
      ],
      "min": [
        0.0,
        0.0,
        0.0,
        0.0
      ]
    },
    {
      "bufferView": 46,
      "componentType": 5126,
      "count": 108,
      "type": "VEC4",
      "max": [
        1.0,
        0.0,
        0.0,
        0.0
      ],
      "min": [
        1.0,
        0.0,
        0.0,
        0.0
      ]
    },
    {
      "bufferView": 47,
      "componentType": 5126,
      "count": 1,
      "type": "MAT4"
    },
    {
      "bufferView": 48,
      "componentType": 5123,
      "count": 108,
      "type": "VEC4",
      "max": [
        0.0,
        0.0,
        0.0,
        0.0
      ],
      "min": [
        0.0,
        0.0,
        0.0,
        0.0
      ]
    },
    {
      "bufferView": 49,
      "componentType": 5126,
      "count": 108,
      "type": "VEC4",
      "max": [
        1.0,
        0.0,
        0.0,
        0.0
      ],
      "min": [
        1.0,
        0.0,
        0.0,
        0.0
      ]
    },
    {
      "bufferView": 50,
      "componentType": 5126,
      "count": 1,
      "type": "MAT4"
    },
    {
      "bufferView": 51,
      "componentType": 5123,
      "count": 108,
      "type": "VEC4",
      "max": [
        0.0,
        0.0,
        0.0,
        0.0
      ],
      "min": [
        0.0,
        0.0,
        0.0,
        0.0
      ]
    },
    {
      "bufferView": 52,
      "componentType": 5126,
      "count": 108,
      "type": "VEC4",
      "max": [
        1.0,
        0.0,
        0.0,
        0.0
      ],
      "min": [
        1.0,
        0.0,
        0.0,
        0.0
      ]
    },
    {
      "bufferView": 53,
      "componentType": 5126,
      "count": 1,
      "type": "MAT4"
    },
    {
      "bufferView": 54,
      "componentType": 5123,
      "count": 108,
      "type": "VEC4",
      "max": [
        0.0,
        0.0,
        0.0,
        0.0
      ],
      "min": [
        0.0,
        0.0,
        0.0,
        0.0
      ]
    },
    {
      "bufferView": 55,
      "componentType": 5126,
      "count": 108,
      "type": "VEC4",
      "max": [
        1.0,
        0.0,
        0.0,
        0.0
      ],
      "min": [
        1.0,
        0.0,
        0.0,
        0.0
      ]
    }
  ],
  "animations": [
    {
      "channels": [
        {
          "sampler": 0,
          "target": {
            "node": 8,
            "path": "translation"
          }
        },
        {
          "sampler": 1,
          "target": {
            "node": 8,
            "path": "rotation"
          }
        },
        {
          "sampler": 2,
          "target": {
            "node": 8,
            "path": "scale"
          }
        },
        {
          "sampler": 3,
          "target": {
            "node": 6,
            "path": "translation"
          }
        },
        {
          "sampler": 4,
          "target": {
            "node": 6,
            "path": "rotation"
          }
        },
        {
          "sampler": 5,
          "target": {
            "node": 6,
            "path": "scale"
          }
        },
        {
          "sampler": 6,
          "target": {
            "node": 4,
            "path": "translation"
          }
        },
        {
          "sampler": 7,
          "target": {
            "node": 4,
            "path": "rotation"
          }
        },
        {
          "sampler": 8,
          "target": {
            "node": 4,
            "path": "scale"
          }
        },
        {
          "sampler": 9,
          "target": {
            "node": 2,
            "path": "translation"
          }
        },
        {
          "sampler": 10,
          "target": {
            "node": 2,
            "path": "rotation"
          }
        },
        {
          "sampler": 11,
          "target": {
            "node": 2,
            "path": "scale"
          }
        }
      ],
      "samplers": [
        {
          "input": 20,
          "interpolation": "LINEAR",
          "output": 21
        },
        {
          "input": 22,
          "interpolation": "LINEAR",
          "output": 23
        },
        {
          "input": 24,
          "interpolation": "LINEAR",
          "output": 25
        },
        {
          "input": 26,
          "interpolation": "LINEAR",
          "output": 27
        },
        {
          "input": 28,
          "interpolation": "LINEAR",
          "output": 29
        },
        {
          "input": 30,
          "interpolation": "LINEAR",
          "output": 31
        },
        {
          "input": 32,
          "interpolation": "LINEAR",
          "output": 33
        },
        {
          "input": 34,
          "interpolation": "LINEAR",
          "output": 35
        },
        {
          "input": 36,
          "interpolation": "LINEAR",
          "output": 37
        },
        {
          "input": 38,
          "interpolation": "LINEAR",
          "output": 39
        },
        {
          "input": 40,
          "interpolation": "LINEAR",
          "output": 41
        },
        {
          "input": 42,
          "interpolation": "LINEAR",
          "output": 43
        }
      ],
      "name": "Take 001"
    }
  ],
  "buffers": [
    {
      "uri": "PR_static_rock_dig_4.bin",
      "byteLength": 41300
    }
  ],
  "bufferViews": [
    {
      "buffer": 0,
      "byteLength": 1296,
      "byteStride": 12,
      "target": 34962
    },
    {
      "buffer": 0,
      "byteOffset": 1296,
      "byteLength": 1296,
      "byteStride": 12,
      "target": 34962
    },
    {
      "buffer": 0,
      "byteOffset": 2592,
      "byteLength": 1728,
      "target": 34962
    },
    {
      "buffer": 0,
      "byteOffset": 4320,
      "byteLength": 864,
      "target": 34962
    },
    {
      "buffer": 0,
      "byteOffset": 5184,
      "byteLength": 288,
      "target": 34963
    },
    {
      "buffer": 0,
      "byteOffset": 5472,
      "byteLength": 1296,
      "byteStride": 12,
      "target": 34962
    },
    {
      "buffer": 0,
      "byteOffset": 6768,
      "byteLength": 1296,
      "byteStride": 12,
      "target": 34962
    },
    {
      "buffer": 0,
      "byteOffset": 8064,
      "byteLength": 1728,
      "target": 34962
    },
    {
      "buffer": 0,
      "byteOffset": 9792,
      "byteLength": 864,
      "target": 34962
    },
    {
      "buffer": 0,
      "byteOffset": 10656,
      "byteLength": 288,
      "target": 34963
    },
    {
      "buffer": 0,
      "byteOffset": 10944,
      "byteLength": 1296,
      "byteStride": 12,
      "target": 34962
    },
    {
      "buffer": 0,
      "byteOffset": 12240,
      "byteLength": 1296,
      "byteStride": 12,
      "target": 34962
    },
    {
      "buffer": 0,
      "byteOffset": 13536,
      "byteLength": 1728,
      "target": 34962
    },
    {
      "buffer": 0,
      "byteOffset": 15264,
      "byteLength": 864,
      "target": 34962
    },
    {
      "buffer": 0,
      "byteOffset": 16128,
      "byteLength": 288,
      "target": 34963
    },
    {
      "buffer": 0,
      "byteOffset": 16416,
      "byteLength": 1296,
      "byteStride": 12,
      "target": 34962
    },
    {
      "buffer": 0,
      "byteOffset": 17712,
      "byteLength": 1296,
      "byteStride": 12,
      "target": 34962
    },
    {
      "buffer": 0,
      "byteOffset": 19008,
      "byteLength": 1728,
      "target": 34962
    },
    {
      "buffer": 0,
      "byteOffset": 20736,
      "byteLength": 864,
      "target": 34962
    },
    {
      "buffer": 0,
      "byteOffset": 21600,
      "byteLength": 288,
      "target": 34963
    },
    {
      "buffer": 0,
      "byteOffset": 21888,
      "byteLength": 236
    },
    {
      "buffer": 0,
      "byteOffset": 22124,
      "byteLength": 708
    },
    {
      "buffer": 0,
      "byteOffset": 22832,
      "byteLength": 96
    },
    {
      "buffer": 0,
      "byteOffset": 22928,
      "byteLength": 384
    },
    {
      "buffer": 0,
      "byteOffset": 23312,
      "byteLength": 132
    },
    {
      "buffer": 0,
      "byteOffset": 23444,
      "byteLength": 396
    },
    {
      "buffer": 0,
      "byteOffset": 23840,
      "byteLength": 172
    },
    {
      "buffer": 0,
      "byteOffset": 24012,
      "byteLength": 516
    },
    {
      "buffer": 0,
      "byteOffset": 24528,
      "byteLength": 116
    },
    {
      "buffer": 0,
      "byteOffset": 24644,
      "byteLength": 464
    },
    {
      "buffer": 0,
      "byteOffset": 25108,
      "byteLength": 232
    },
    {
      "buffer": 0,
      "byteOffset": 25340,
      "byteLength": 696
    },
    {
      "buffer": 0,
      "byteOffset": 26036,
      "byteLength": 300
    },
    {
      "buffer": 0,
      "byteOffset": 26336,
      "byteLength": 900
    },
    {
      "buffer": 0,
      "byteOffset": 27236,
      "byteLength": 200
    },
    {
      "buffer": 0,
      "byteOffset": 27436,
      "byteLength": 800
    },
    {
      "buffer": 0,
      "byteOffset": 28236,
      "byteLength": 160
    },
    {
      "buffer": 0,
      "byteOffset": 28396,
      "byteLength": 480
    },
    {
      "buffer": 0,
      "byteOffset": 28876,
      "byteLength": 224
    },
    {
      "buffer": 0,
      "byteOffset": 29100,
      "byteLength": 672
    },
    {
      "buffer": 0,
      "byteOffset": 29772,
      "byteLength": 72
    },
    {
      "buffer": 0,
      "byteOffset": 29844,
      "byteLength": 288
    },
    {
      "buffer": 0,
      "byteOffset": 30132,
      "byteLength": 136
    },
    {
      "buffer": 0,
      "byteOffset": 30268,
      "byteLength": 408
    },
    {
      "buffer": 0,
      "byteOffset": 30676,
      "byteLength": 64
    },
    {
      "buffer": 0,
      "byteOffset": 30740,
      "byteLength": 864,
      "target": 34962
    },
    {
      "buffer": 0,
      "byteOffset": 31604,
      "byteLength": 1728,
      "target": 34962
    },
    {
      "buffer": 0,
      "byteOffset": 33332,
      "byteLength": 64
    },
    {
      "buffer": 0,
      "byteOffset": 33396,
      "byteLength": 864,
      "target": 34962
    },
    {
      "buffer": 0,
      "byteOffset": 34260,
      "byteLength": 1728,
      "target": 34962
    },
    {
      "buffer": 0,
      "byteOffset": 35988,
      "byteLength": 64
    },
    {
      "buffer": 0,
      "byteOffset": 36052,
      "byteLength": 864,
      "target": 34962
    },
    {
      "buffer": 0,
      "byteOffset": 36916,
      "byteLength": 1728,
      "target": 34962
    },
    {
      "buffer": 0,
      "byteOffset": 38644,
      "byteLength": 64
    },
    {
      "buffer": 0,
      "byteOffset": 38708,
      "byteLength": 864,
      "target": 34962
    },
    {
      "buffer": 0,
      "byteOffset": 39572,
      "byteLength": 1728,
      "target": 34962
    }
  ],
  "images": [
    {
      "uri": "rock_map_digging.png",
      "name": "rock_map_digging"
    }
  ],
  "materials": [
    {
      "pbrMetallicRoughness": {
        "baseColorTexture": {
          "index": 0,
          "extensions": {
            "KHR_texture_transform": {
              "texCoord": 0
            }
          }
        },
        "metallicFactor": 0.0
      },
      "name": "lambert2"
    }
  ],
  "meshes": [
    {
      "primitives": [
        {
          "attributes": {
            "POSITION": 0,
            "NORMAL": 1,
            "TANGENT": 2,
            "TEXCOORD_0": 3,
            "JOINTS_0": 45,
            "WEIGHTS_0": 46
          },
          "indices": 4,
          "material": 0
        }
      ],
      "name": "PR_static_rock_dig"
    },
    {
      "primitives": [
        {
          "attributes": {
            "POSITION": 5,
            "NORMAL": 6,
            "TANGENT": 7,
            "TEXCOORD_0": 8,
            "JOINTS_0": 48,
            "WEIGHTS_0": 49
          },
          "indices": 9,
          "material": 0
        }
      ],
      "name": "PR_static_rock_dig_2"
    },
    {
      "primitives": [
        {
          "attributes": {
            "POSITION": 10,
            "NORMAL": 11,
            "TANGENT": 12,
            "TEXCOORD_0": 13,
            "JOINTS_0": 51,
            "WEIGHTS_0": 52
          },
          "indices": 14,
          "material": 0
        }
      ],
      "name": "PR_static_rock_dig_3"
    },
    {
      "primitives": [
        {
          "attributes": {
            "POSITION": 15,
            "NORMAL": 16,
            "TANGENT": 17,
            "TEXCOORD_0": 18,
            "JOINTS_0": 54,
            "WEIGHTS_0": 55
          },
          "indices": 19,
          "material": 0
        }
      ],
      "name": "PR_static_rock_dig_4"
    }
  ],
  "nodes": [
    {
      "children": [
        1,
        3,
        5,
        7
      ],
      "name": "dig_rocks_final"
    },
    {
      "children": [
        2
      ],
      "skin": 0,
      "mesh": 0,
      "translation": [
        2.10675915E-14,
        -2.220446E-15,
        -2.53663752E-14
      ],
      "name": "PR_static_rock_dig"
    },
    {
      "rotation": [
        0.0264284015,
        -0.678982258,
        0.00687366,
        -0.733646631
      ],
      "scale": [
        0.003836717,
        0.003836717,
        0.003836717
      ],
      "translation": [
        -0.0241422337,
        0.09680208,
        0.83808434
      ],
      "name": "joint40"
    },
    {
      "children": [
        4
      ],
      "skin": 1,
      "mesh": 1,
      "translation": [
        1.762146E-14,
        1.86517462E-16,
        -9.485745E-15
      ],
      "name": "PR_static_rock_dig_2"
    },
    {
      "rotation": [
        -0.33064115,
        0.419732839,
        0.252108932,
        -0.8068097
      ],
      "scale": [
        0.00398629159,
        0.00398629159,
        0.00398629159
      ],
      "translation": [
        -0.238382086,
        0.442770541,
        0.0275021642
      ],
      "name": "joint39"
    },
    {
      "children": [
        6
      ],
      "skin": 2,
      "mesh": 2,
      "translation": [
        -3.2073455E-11,
        -4.73126649E-10,
        1.99550973E-10
      ],
      "name": "PR_static_rock_dig_3"
    },
    {
      "rotation": [
        -0.6069224,
        -0.59015274,
        0.246948168,
        -0.4715735
      ],
      "scale": [
        0.007839045,
        0.007839045,
        0.007839045
      ],
      "translation": [
        -0.430939883,
        0.15865624,
        0.358540744
      ],
      "name": "joint38"
    },
    {
      "children": [
        8
      ],
      "skin": 3,
      "mesh": 3,
      "name": "PR_static_rock_dig_4"
    },
    {
      "rotation": [
        -0.72786504,
        0.00297253625,
        0.000836510968,
        -0.6857135
      ],
      "scale": [
        1.18286014,
        1.18286014,
        1.18286014
      ],
      "translation": [
        0.412356317,
        0.334033966,
        -0.007415971
      ],
      "name": "joint37"
    }
  ],
  "samplers": [
    {
      "minFilter": 9987
    }
  ],
  "skins": [
    {
      "inverseBindMatrices": 44,
      "joints": [
        2
      ]
    },
    {
      "inverseBindMatrices": 47,
      "joints": [
        4
      ]
    },
    {
      "inverseBindMatrices": 50,
      "joints": [
        6
      ]
    },
    {
      "inverseBindMatrices": 53,
      "joints": [
        8
      ]
    }
  ],
  "textures": [
    {
      "sampler": 0,
      "source": 0,
      "name": "rock_map_digging"
    }
  ]
}