{
	"asset":{
		"generator":"Khronos glTF Blender I/O v4.2.57",
		"version":"2.0"
	},
	"extensionsUsed":[
		"KHR_materials_specular"
	],
	"scene":0,
	"scenes":[
		{
			"name":"Scene",
			"nodes":[
				0,
				1,
				2,
				3,
				4,
				5,
				6,
				7,
				8,
				9
			]
		}
	],
	"nodes":[
		{
			"mesh":0,
			"name":"PR_Stalactite_v06"
		},
		{
			"mesh":1,
			"name":"PR_Stalactite_v01"
		},
		{
			"mesh":2,
			"name":"PR_Stalactite_v05"
		},
		{
			"mesh":3,
			"name":"PR_Stalactite_v04"
		},
		{
			"mesh":4,
			"name":"PR_Stalactite_v03"
		},
		{
			"mesh":5,
			"name":"PR_Stalactite_v02"
		},
		{
			"mesh":6,
			"name":"PR_Stalactite_v07"
		},
		{
			"mesh":7,
			"name":"PR_Stalactite_v08"
		},
		{
			"mesh":8,
			"name":"PR_Stalactite_v09"
		},
		{
			"mesh":9,
			"name":"PR_Stalactite_v10",
			"rotation":[
				0,
				-0.3900202810764313,
				0,
				0.9208062887191772
			],
			"scale":[
				1.422137975692749,
				0.9046157002449036,
				1.6100590229034424
			]
		}
	],
	"materials":[
		{
			"doubleSided":true,
			"extensions":{
				"KHR_materials_specular":{
					"specularFactor":0
				}
			},
			"name":"M_Stalactites",
			"normalTexture":{
				"index":0
			},
			"pbrMetallicRoughness":{
				"baseColorTexture":{
					"index":1
				},
				"metallicRoughnessTexture":{
					"index":2
				}
			}
		}
	],
	"meshes":[
		{
			"name":"Mesh.006",
			"primitives":[
				{
					"attributes":{
						"POSITION":0,
						"NORMAL":1,
						"TEXCOORD_0":2
					},
					"indices":3,
					"material":0
				}
			]
		},
		{
			"name":"Mesh.007",
			"primitives":[
				{
					"attributes":{
						"POSITION":4,
						"NORMAL":5,
						"TEXCOORD_0":6
					},
					"indices":7,
					"material":0
				}
			]
		},
		{
			"name":"Mesh.008",
			"primitives":[
				{
					"attributes":{
						"POSITION":8,
						"NORMAL":9,
						"TEXCOORD_0":10
					},
					"indices":11,
					"material":0
				}
			]
		},
		{
			"name":"Mesh.009",
			"primitives":[
				{
					"attributes":{
						"POSITION":12,
						"NORMAL":13,
						"TEXCOORD_0":14
					},
					"indices":15,
					"material":0
				}
			]
		},
		{
			"name":"Mesh.010",
			"primitives":[
				{
					"attributes":{
						"POSITION":16,
						"NORMAL":17,
						"TEXCOORD_0":18
					},
					"indices":19,
					"material":0
				}
			]
		},
		{
			"name":"Mesh.011",
			"primitives":[
				{
					"attributes":{
						"POSITION":20,
						"NORMAL":21,
						"TEXCOORD_0":22
					},
					"indices":23,
					"material":0
				}
			]
		},
		{
			"name":"Mesh.001",
			"primitives":[
				{
					"attributes":{
						"POSITION":24,
						"NORMAL":25,
						"TEXCOORD_0":26
					},
					"indices":27,
					"material":0
				}
			]
		},
		{
			"name":"Mesh.004",
			"primitives":[
				{
					"attributes":{
						"POSITION":28,
						"NORMAL":29,
						"TEXCOORD_0":30
					},
					"indices":31,
					"material":0
				},
				{
					"attributes":{
						"POSITION":32,
						"NORMAL":33,
						"TEXCOORD_0":34
					},
					"indices":35,
					"material":0
				},
				{
					"attributes":{
						"POSITION":36,
						"NORMAL":37,
						"TEXCOORD_0":38
					},
					"indices":39,
					"material":0
				},
				{
					"attributes":{
						"POSITION":40,
						"NORMAL":41,
						"TEXCOORD_0":42
					},
					"indices":43,
					"material":0
				}
			]
		},
		{
			"name":"Mesh.019",
			"primitives":[
				{
					"attributes":{
						"POSITION":44,
						"NORMAL":45,
						"TEXCOORD_0":46
					},
					"indices":47,
					"material":0
				},
				{
					"attributes":{
						"POSITION":48,
						"NORMAL":49,
						"TEXCOORD_0":50
					},
					"indices":51,
					"material":0
				}
			]
		},
		{
			"name":"Mesh.028",
			"primitives":[
				{
					"attributes":{
						"POSITION":52,
						"NORMAL":53,
						"TEXCOORD_0":54
					},
					"indices":55,
					"material":0
				},
				{
					"attributes":{
						"POSITION":56,
						"NORMAL":57,
						"TEXCOORD_0":58
					},
					"indices":59,
					"material":0
				},
				{
					"attributes":{
						"POSITION":60,
						"NORMAL":61,
						"TEXCOORD_0":62
					},
					"indices":63,
					"material":0
				},
				{
					"attributes":{
						"POSITION":64,
						"NORMAL":65,
						"TEXCOORD_0":66
					},
					"indices":67,
					"material":0
				},
				{
					"attributes":{
						"POSITION":68,
						"NORMAL":69,
						"TEXCOORD_0":70
					},
					"indices":71,
					"material":0
				}
			]
		}
	],
	"textures":[
		{
			"sampler":0,
			"source":0
		},
		{
			"sampler":0,
			"source":1
		},
		{
			"sampler":0,
			"source":2
		}
	],
	"images":[
		{
			"mimeType":"image/png",
			"name":"T_Stalactites_Normal",
			"uri":"T_Stalactites_Normal.png"
		},
		{
			"mimeType":"image/png",
			"name":"T_Stalactites_BaseColor",
			"uri":"T_Stalactites_BaseColor.png"
		},
		{
			"mimeType":"image/png",
			"name":"T_Stalactites_OcclusionRoughnessMetallic",
			"uri":"T_Stalactites_OcclusionRoughnessMetallic.png"
		}
	],
	"accessors":[
		{
			"bufferView":0,
			"componentType":5126,
			"count":595,
			"max":[
				0.6920678615570068,
				5.89605712890625,
				0.6588914394378662
			],
			"min":[
				-0.6920678615570068,
				-0.03661990165710449,
				-0.7269666790962219
			],
			"type":"VEC3"
		},
		{
			"bufferView":1,
			"componentType":5126,
			"count":595,
			"type":"VEC3"
		},
		{
			"bufferView":2,
			"componentType":5126,
			"count":595,
			"type":"VEC2"
		},
		{
			"bufferView":3,
			"componentType":5123,
			"count":1434,
			"type":"SCALAR"
		},
		{
			"bufferView":4,
			"componentType":5126,
			"count":418,
			"max":[
				0.4655993580818176,
				3.802337169647217,
				0.5215849876403809
			],
			"min":[
				-0.4655993580818176,
				-0.0031538009643554688,
				-0.44416937232017517
			],
			"type":"VEC3"
		},
		{
			"bufferView":5,
			"componentType":5126,
			"count":418,
			"type":"VEC3"
		},
		{
			"bufferView":6,
			"componentType":5126,
			"count":418,
			"type":"VEC2"
		},
		{
			"bufferView":7,
			"componentType":5123,
			"count":930,
			"type":"SCALAR"
		},
		{
			"bufferView":8,
			"componentType":5126,
			"count":188,
			"max":[
				0.30916503071784973,
				2.619314193725586,
				0.3167016804218292
			],
			"min":[
				-0.30916503071784973,
				0.007982015609741211,
				-0.23588618636131287
			],
			"type":"VEC3"
		},
		{
			"bufferView":9,
			"componentType":5126,
			"count":188,
			"type":"VEC3"
		},
		{
			"bufferView":10,
			"componentType":5126,
			"count":188,
			"type":"VEC2"
		},
		{
			"bufferView":11,
			"componentType":5123,
			"count":402,
			"type":"SCALAR"
		},
		{
			"bufferView":12,
			"componentType":5126,
			"count":534,
			"max":[
				0.8492944240570068,
				5.848453521728516,
				0.6910886764526367
			],
			"min":[
				-0.8492944240570068,
				0.01098322868347168,
				-0.7076258659362793
			],
			"type":"VEC3"
		},
		{
			"bufferView":13,
			"componentType":5126,
			"count":534,
			"type":"VEC3"
		},
		{
			"bufferView":14,
			"componentType":5126,
			"count":534,
			"type":"VEC2"
		},
		{
			"bufferView":15,
			"componentType":5123,
			"count":1266,
			"type":"SCALAR"
		},
		{
			"bufferView":16,
			"componentType":5126,
			"count":574,
			"max":[
				0.5610253810882568,
				5.8740997314453125,
				0.492267370223999
			],
			"min":[
				-0.5610253810882568,
				-0.01466226577758789,
				-0.7402887344360352
			],
			"type":"VEC3"
		},
		{
			"bufferView":17,
			"componentType":5126,
			"count":574,
			"type":"VEC3"
		},
		{
			"bufferView":18,
			"componentType":5126,
			"count":574,
			"type":"VEC2"
		},
		{
			"bufferView":19,
			"componentType":5123,
			"count":1278,
			"type":"SCALAR"
		},
		{
			"bufferView":20,
			"componentType":5126,
			"count":800,
			"max":[
				0.6949487328529358,
				5.858410835266113,
				0.6688490509986877
			],
			"min":[
				-0.6949487328529358,
				0.0010259151458740234,
				-0.7366257905960083
			],
			"type":"VEC3"
		},
		{
			"bufferView":21,
			"componentType":5126,
			"count":800,
			"type":"VEC3"
		},
		{
			"bufferView":22,
			"componentType":5126,
			"count":800,
			"type":"VEC2"
		},
		{
			"bufferView":23,
			"componentType":5123,
			"count":1872,
			"type":"SCALAR"
		},
		{
			"bufferView":24,
			"componentType":5126,
			"count":2004,
			"max":[
				0.6949486136436462,
				5.858410835266113,
				1.1988900899887085
			],
			"min":[
				-0.9888266921043396,
				-0.05940866470336914,
				-1.2558213472366333
			],
			"type":"VEC3"
		},
		{
			"bufferView":25,
			"componentType":5126,
			"count":2004,
			"type":"VEC3"
		},
		{
			"bufferView":26,
			"componentType":5126,
			"count":2004,
			"type":"VEC2"
		},
		{
			"bufferView":27,
			"componentType":5123,
			"count":4638,
			"type":"SCALAR"
		},
		{
			"bufferView":28,
			"componentType":5126,
			"count":1097,
			"max":[
				0.8492944240570068,
				5.848453521728516,
				0.7955358028411865
			],
			"min":[
				-0.8492944240570068,
				0.01098322868347168,
				-1.2015408277511597
			],
			"type":"VEC3"
		},
		{
			"bufferView":29,
			"componentType":5126,
			"count":1097,
			"type":"VEC3"
		},
		{
			"bufferView":30,
			"componentType":5126,
			"count":1097,
			"type":"VEC2"
		},
		{
			"bufferView":31,
			"componentType":5123,
			"count":2544,
			"type":"SCALAR"
		},
		{
			"bufferView":32,
			"componentType":5126,
			"count":554,
			"max":[
				-0.12296073883771896,
				2.6082570552825928,
				-0.19064882397651672
			],
			"min":[
				-0.6245991587638855,
				0.03814435005187988,
				-0.7265229821205139
			],
			"type":"VEC3"
		},
		{
			"bufferView":33,
			"componentType":5126,
			"count":554,
			"type":"VEC3"
		},
		{
			"bufferView":34,
			"componentType":5126,
			"count":554,
			"type":"VEC2"
		},
		{
			"bufferView":35,
			"componentType":5123,
			"count":1278,
			"type":"SCALAR"
		},
		{
			"bufferView":36,
			"componentType":5126,
			"count":813,
			"max":[
				0.1727195829153061,
				3.6273081302642822,
				1.3721504211425781
			],
			"min":[
				-0.7265854477882385,
				0.04220390319824219,
				0.5159486532211304
			],
			"type":"VEC3"
		},
		{
			"bufferView":37,
			"componentType":5126,
			"count":813,
			"type":"VEC3"
		},
		{
			"bufferView":38,
			"componentType":5126,
			"count":813,
			"type":"VEC2"
		},
		{
			"bufferView":39,
			"componentType":5123,
			"count":1872,
			"type":"SCALAR"
		},
		{
			"bufferView":40,
			"componentType":5126,
			"count":541,
			"max":[
				0.8836589455604553,
				3.1037909984588623,
				1.2993098497390747
			],
			"min":[
				0.006328925956040621,
				0.008073568344116211,
				0.5496073961257935
			],
			"type":"VEC3"
		},
		{
			"bufferView":41,
			"componentType":5126,
			"count":541,
			"type":"VEC3"
		},
		{
			"bufferView":42,
			"componentType":5126,
			"count":541,
			"type":"VEC2"
		},
		{
			"bufferView":43,
			"componentType":5123,
			"count":1266,
			"type":"SCALAR"
		},
		{
			"bufferView":44,
			"componentType":5126,
			"count":1758,
			"max":[
				0.863174557685852,
				4.442464828491211,
				0.6884512305259705
			],
			"min":[
				-0.48663464188575745,
				-0.11413073539733887,
				-0.6189250946044922
			],
			"type":"VEC3"
		},
		{
			"bufferView":45,
			"componentType":5126,
			"count":1758,
			"type":"VEC3"
		},
		{
			"bufferView":46,
			"componentType":5126,
			"count":1758,
			"type":"VEC2"
		},
		{
			"bufferView":47,
			"componentType":5123,
			"count":4044,
			"type":"SCALAR"
		},
		{
			"bufferView":48,
			"componentType":5126,
			"count":182,
			"max":[
				0.4620773494243622,
				1.138597011566162,
				-0.5242560505867004
			],
			"min":[
				0.18645553290843964,
				-0.0333406925201416,
				-0.7553377747535706
			],
			"type":"VEC3"
		},
		{
			"bufferView":49,
			"componentType":5126,
			"count":182,
			"type":"VEC3"
		},
		{
			"bufferView":50,
			"componentType":5126,
			"count":182,
			"type":"VEC2"
		},
		{
			"bufferView":51,
			"componentType":5123,
			"count":402,
			"type":"SCALAR"
		},
		{
			"bufferView":52,
			"componentType":5126,
			"count":689,
			"max":[
				1.157992959022522,
				6.7975921630859375,
				-2.437818765640259
			],
			"min":[
				-0.8838291168212891,
				-0.2194536328315735,
				-4.119171619415283
			],
			"type":"VEC3"
		},
		{
			"bufferView":53,
			"componentType":5126,
			"count":689,
			"type":"VEC3"
		},
		{
			"bufferView":54,
			"componentType":5126,
			"count":689,
			"type":"VEC2"
		},
		{
			"bufferView":55,
			"componentType":5123,
			"count":1266,
			"type":"SCALAR"
		},
		{
			"bufferView":56,
			"componentType":5126,
			"count":4973,
			"max":[
				5.831230163574219,
				13.034932136535645,
				3.5817315578460693
			],
			"min":[
				-1.3409074544906616,
				-0.041539669036865234,
				-1.7116602659225464
			],
			"type":"VEC3"
		},
		{
			"bufferView":57,
			"componentType":5126,
			"count":4973,
			"type":"VEC3"
		},
		{
			"bufferView":58,
			"componentType":5126,
			"count":4973,
			"type":"VEC2"
		},
		{
			"bufferView":59,
			"componentType":5123,
			"count":6252,
			"type":"SCALAR"
		},
		{
			"bufferView":60,
			"componentType":5126,
			"count":1492,
			"max":[
				-1.6407291889190674,
				3.345043897628784,
				-2.4724318981170654
			],
			"min":[
				-2.162012815475464,
				0.0005857784999534488,
				-2.921109199523926
			],
			"type":"VEC3"
		},
		{
			"bufferView":61,
			"componentType":5126,
			"count":1492,
			"type":"VEC3"
		},
		{
			"bufferView":62,
			"componentType":5126,
			"count":1492,
			"type":"VEC2"
		},
		{
			"bufferView":63,
			"componentType":5123,
			"count":1872,
			"type":"SCALAR"
		},
		{
			"bufferView":64,
			"componentType":5126,
			"count":326,
			"max":[
				-1.0888869762420654,
				5.957399845123291,
				-3.8493833541870117
			],
			"min":[
				-2.0054893493652344,
				-0.2087164968252182,
				-4.655129432678223
			],
			"type":"VEC3"
		},
		{
			"bufferView":65,
			"componentType":5126,
			"count":326,
			"type":"VEC3"
		},
		{
			"bufferView":66,
			"componentType":5126,
			"count":326,
			"type":"VEC2"
		},
		{
			"bufferView":67,
			"componentType":5123,
			"count":402,
			"type":"SCALAR"
		},
		{
			"bufferView":68,
			"componentType":5126,
			"count":326,
			"max":[
				0.824546217918396,
				3.653395175933838,
				1.3290743827819824
			],
			"min":[
				0.2431870698928833,
				0.011133241467177868,
				0.6760514378547668
			],
			"type":"VEC3"
		},
		{
			"bufferView":69,
			"componentType":5126,
			"count":326,
			"type":"VEC3"
		},
		{
			"bufferView":70,
			"componentType":5126,
			"count":326,
			"type":"VEC2"
		},
		{
			"bufferView":71,
			"componentType":5123,
			"count":402,
			"type":"SCALAR"
		}
	],
	"bufferViews":[
		{
			"buffer":0,
			"byteLength":7140,
			"byteOffset":0,
			"target":34962
		},
		{
			"buffer":0,
			"byteLength":7140,
			"byteOffset":7140,
			"target":34962
		},
		{
			"buffer":0,
			"byteLength":4760,
			"byteOffset":14280,
			"target":34962
		},
		{
			"buffer":0,
			"byteLength":2868,
			"byteOffset":19040,
			"target":34963
		},
		{
			"buffer":0,
			"byteLength":5016,
			"byteOffset":21908,
			"target":34962
		},
		{
			"buffer":0,
			"byteLength":5016,
			"byteOffset":26924,
			"target":34962
		},
		{
			"buffer":0,
			"byteLength":3344,
			"byteOffset":31940,
			"target":34962
		},
		{
			"buffer":0,
			"byteLength":1860,
			"byteOffset":35284,
			"target":34963
		},
		{
			"buffer":0,
			"byteLength":2256,
			"byteOffset":37144,
			"target":34962
		},
		{
			"buffer":0,
			"byteLength":2256,
			"byteOffset":39400,
			"target":34962
		},
		{
			"buffer":0,
			"byteLength":1504,
			"byteOffset":41656,
			"target":34962
		},
		{
			"buffer":0,
			"byteLength":804,
			"byteOffset":43160,
			"target":34963
		},
		{
			"buffer":0,
			"byteLength":6408,
			"byteOffset":43964,
			"target":34962
		},
		{
			"buffer":0,
			"byteLength":6408,
			"byteOffset":50372,
			"target":34962
		},
		{
			"buffer":0,
			"byteLength":4272,
			"byteOffset":56780,
			"target":34962
		},
		{
			"buffer":0,
			"byteLength":2532,
			"byteOffset":61052,
			"target":34963
		},
		{
			"buffer":0,
			"byteLength":6888,
			"byteOffset":63584,
			"target":34962
		},
		{
			"buffer":0,
			"byteLength":6888,
			"byteOffset":70472,
			"target":34962
		},
		{
			"buffer":0,
			"byteLength":4592,
			"byteOffset":77360,
			"target":34962
		},
		{
			"buffer":0,
			"byteLength":2556,
			"byteOffset":81952,
			"target":34963
		},
		{
			"buffer":0,
			"byteLength":9600,
			"byteOffset":84508,
			"target":34962
		},
		{
			"buffer":0,
			"byteLength":9600,
			"byteOffset":94108,
			"target":34962
		},
		{
			"buffer":0,
			"byteLength":6400,
			"byteOffset":103708,
			"target":34962
		},
		{
			"buffer":0,
			"byteLength":3744,
			"byteOffset":110108,
			"target":34963
		},
		{
			"buffer":0,
			"byteLength":24048,
			"byteOffset":113852,
			"target":34962
		},
		{
			"buffer":0,
			"byteLength":24048,
			"byteOffset":137900,
			"target":34962
		},
		{
			"buffer":0,
			"byteLength":16032,
			"byteOffset":161948,
			"target":34962
		},
		{
			"buffer":0,
			"byteLength":9276,
			"byteOffset":177980,
			"target":34963
		},
		{
			"buffer":0,
			"byteLength":13164,
			"byteOffset":187256,
			"target":34962
		},
		{
			"buffer":0,
			"byteLength":13164,
			"byteOffset":200420,
			"target":34962
		},
		{
			"buffer":0,
			"byteLength":8776,
			"byteOffset":213584,
			"target":34962
		},
		{
			"buffer":0,
			"byteLength":5088,
			"byteOffset":222360,
			"target":34963
		},
		{
			"buffer":0,
			"byteLength":6648,
			"byteOffset":227448,
			"target":34962
		},
		{
			"buffer":0,
			"byteLength":6648,
			"byteOffset":234096,
			"target":34962
		},
		{
			"buffer":0,
			"byteLength":4432,
			"byteOffset":240744,
			"target":34962
		},
		{
			"buffer":0,
			"byteLength":2556,
			"byteOffset":245176,
			"target":34963
		},
		{
			"buffer":0,
			"byteLength":9756,
			"byteOffset":247732,
			"target":34962
		},
		{
			"buffer":0,
			"byteLength":9756,
			"byteOffset":257488,
			"target":34962
		},
		{
			"buffer":0,
			"byteLength":6504,
			"byteOffset":267244,
			"target":34962
		},
		{
			"buffer":0,
			"byteLength":3744,
			"byteOffset":273748,
			"target":34963
		},
		{
			"buffer":0,
			"byteLength":6492,
			"byteOffset":277492,
			"target":34962
		},
		{
			"buffer":0,
			"byteLength":6492,
			"byteOffset":283984,
			"target":34962
		},
		{
			"buffer":0,
			"byteLength":4328,
			"byteOffset":290476,
			"target":34962
		},
		{
			"buffer":0,
			"byteLength":2532,
			"byteOffset":294804,
			"target":34963
		},
		{
			"buffer":0,
			"byteLength":21096,
			"byteOffset":297336,
			"target":34962
		},
		{
			"buffer":0,
			"byteLength":21096,
			"byteOffset":318432,
			"target":34962
		},
		{
			"buffer":0,
			"byteLength":14064,
			"byteOffset":339528,
			"target":34962
		},
		{
			"buffer":0,
			"byteLength":8088,
			"byteOffset":353592,
			"target":34963
		},
		{
			"buffer":0,
			"byteLength":2184,
			"byteOffset":361680,
			"target":34962
		},
		{
			"buffer":0,
			"byteLength":2184,
			"byteOffset":363864,
			"target":34962
		},
		{
			"buffer":0,
			"byteLength":1456,
			"byteOffset":366048,
			"target":34962
		},
		{
			"buffer":0,
			"byteLength":804,
			"byteOffset":367504,
			"target":34963
		},
		{
			"buffer":0,
			"byteLength":8268,
			"byteOffset":368308,
			"target":34962
		},
		{
			"buffer":0,
			"byteLength":8268,
			"byteOffset":376576,
			"target":34962
		},
		{
			"buffer":0,
			"byteLength":5512,
			"byteOffset":384844,
			"target":34962
		},
		{
			"buffer":0,
			"byteLength":2532,
			"byteOffset":390356,
			"target":34963
		},
		{
			"buffer":0,
			"byteLength":59676,
			"byteOffset":392888,
			"target":34962
		},
		{
			"buffer":0,
			"byteLength":59676,
			"byteOffset":452564,
			"target":34962
		},
		{
			"buffer":0,
			"byteLength":39784,
			"byteOffset":512240,
			"target":34962
		},
		{
			"buffer":0,
			"byteLength":12504,
			"byteOffset":552024,
			"target":34963
		},
		{
			"buffer":0,
			"byteLength":17904,
			"byteOffset":564528,
			"target":34962
		},
		{
			"buffer":0,
			"byteLength":17904,
			"byteOffset":582432,
			"target":34962
		},
		{
			"buffer":0,
			"byteLength":11936,
			"byteOffset":600336,
			"target":34962
		},
		{
			"buffer":0,
			"byteLength":3744,
			"byteOffset":612272,
			"target":34963
		},
		{
			"buffer":0,
			"byteLength":3912,
			"byteOffset":616016,
			"target":34962
		},
		{
			"buffer":0,
			"byteLength":3912,
			"byteOffset":619928,
			"target":34962
		},
		{
			"buffer":0,
			"byteLength":2608,
			"byteOffset":623840,
			"target":34962
		},
		{
			"buffer":0,
			"byteLength":804,
			"byteOffset":626448,
			"target":34963
		},
		{
			"buffer":0,
			"byteLength":3912,
			"byteOffset":627252,
			"target":34962
		},
		{
			"buffer":0,
			"byteLength":3912,
			"byteOffset":631164,
			"target":34962
		},
		{
			"buffer":0,
			"byteLength":2608,
			"byteOffset":635076,
			"target":34962
		},
		{
			"buffer":0,
			"byteLength":804,
			"byteOffset":637684,
			"target":34963
		}
	],
	"samplers":[
		{
			"magFilter":9729,
			"minFilter":9987
		}
	],
	"buffers":[
		{
			"byteLength":638488,
			"uri":"PR_Stalactites_GLTF.bin"
		}
	]
}
