{
	"asset":{
		"generator":"Khronos glTF Blender I/O v4.4.55",
		"version":"2.0"
	},
	"scene":0,
	"scenes":[
		{
			"name":"Scene",
			"nodes":[
				0,
				1,
				2,
				3,
				4,
				5,
				6,
				7,
				8,
				9,
				10,
				11,
				12,
				13
			]
		}
	],
	"nodes":[
		{
			"mesh":0,
			"name":"PR_Lvl1_Tile_1"
		},
		{
			"mesh":1,
			"name":"PR_Lvl1_Tile_8"
		},
		{
			"mesh":2,
			"name":"PR_Lvl1_Tile_7"
		},
		{
			"mesh":3,
			"name":"PR_Lvl1_Tile_6"
		},
		{
			"mesh":4,
			"name":"PR_Lvl1_Tile_5"
		},
		{
			"mesh":5,
			"name":"PR_Lvl1_Tile_4"
		},
		{
			"mesh":6,
			"name":"PR_Lvl1_Tile_3"
		},
		{
			"mesh":7,
			"name":"PR_Lvl1_Tile_2"
		},
		{
			"mesh":8,
			"name":"PR_Tut_Tile_4"
		},
		{
			"mesh":9,
			"name":"PR_Tut_Tile_3"
		},
		{
			"mesh":10,
			"name":"PR_Tut_Tile_6"
		},
		{
			"mesh":11,
			"name":"PR_Tut_Tile_2"
		},
		{
			"mesh":12,
			"name":"PR_Tut_Tile_1"
		},
		{
			"mesh":13,
			"name":"PR_Tut_Tile_5"
		}
	],
	"materials":[
		{
			"doubleSided":true,
			"name":"TX_Tiles_Tut_Lvl1",
			"normalTexture":{
				"index":0
			},
			"pbrMetallicRoughness":{
				"baseColorTexture":{
					"index":1
				},
				"metallicRoughnessTexture":{
					"index":2
				}
			}
		}
	],
	"meshes":[
		{
			"name":"Cube.001",
			"primitives":[
				{
					"attributes":{
						"POSITION":0,
						"NORMAL":1,
						"TEXCOORD_0":2,
						"TANGENT":3
					},
					"indices":4,
					"material":0
				}
			]
		},
		{
			"name":"Cube.002",
			"primitives":[
				{
					"attributes":{
						"POSITION":5,
						"NORMAL":6,
						"TEXCOORD_0":7,
						"TANGENT":8
					},
					"indices":9,
					"material":0
				}
			]
		},
		{
			"name":"Cube.003",
			"primitives":[
				{
					"attributes":{
						"POSITION":10,
						"NORMAL":11,
						"TEXCOORD_0":12,
						"TANGENT":13
					},
					"indices":14,
					"material":0
				}
			]
		},
		{
			"name":"Cube.004",
			"primitives":[
				{
					"attributes":{
						"POSITION":15,
						"NORMAL":16,
						"TEXCOORD_0":17,
						"TANGENT":18
					},
					"indices":19,
					"material":0
				}
			]
		},
		{
			"name":"Cube.005",
			"primitives":[
				{
					"attributes":{
						"POSITION":20,
						"NORMAL":21,
						"TEXCOORD_0":22,
						"TANGENT":23
					},
					"indices":24,
					"material":0
				}
			]
		},
		{
			"name":"Cube.006",
			"primitives":[
				{
					"attributes":{
						"POSITION":25,
						"NORMAL":26,
						"TEXCOORD_0":27,
						"TANGENT":28
					},
					"indices":4,
					"material":0
				}
			]
		},
		{
			"name":"Cube.007",
			"primitives":[
				{
					"attributes":{
						"POSITION":29,
						"NORMAL":30,
						"TEXCOORD_0":31,
						"TANGENT":32
					},
					"indices":4,
					"material":0
				}
			]
		},
		{
			"name":"Cube.015",
			"primitives":[
				{
					"attributes":{
						"POSITION":33,
						"NORMAL":34,
						"TEXCOORD_0":35,
						"TANGENT":36
					},
					"indices":37,
					"material":0
				}
			]
		},
		{
			"name":"Cube.009",
			"primitives":[
				{
					"attributes":{
						"POSITION":38,
						"NORMAL":39,
						"TEXCOORD_0":40,
						"TANGENT":41
					},
					"indices":24,
					"material":0
				}
			]
		},
		{
			"name":"Cube.010",
			"primitives":[
				{
					"attributes":{
						"POSITION":42,
						"NORMAL":43,
						"TEXCOORD_0":44,
						"TANGENT":45
					},
					"indices":4,
					"material":0
				}
			]
		},
		{
			"name":"Cube.011",
			"primitives":[
				{
					"attributes":{
						"POSITION":46,
						"NORMAL":47,
						"TEXCOORD_0":48,
						"TANGENT":49
					},
					"indices":9,
					"material":0
				}
			]
		},
		{
			"name":"Cube.012",
			"primitives":[
				{
					"attributes":{
						"POSITION":50,
						"NORMAL":51,
						"TEXCOORD_0":52,
						"TANGENT":53
					},
					"indices":4,
					"material":0
				}
			]
		},
		{
			"name":"Cube.013",
			"primitives":[
				{
					"attributes":{
						"POSITION":54,
						"NORMAL":55,
						"TEXCOORD_0":56,
						"TANGENT":57
					},
					"indices":4,
					"material":0
				}
			]
		},
		{
			"name":"Cube.014",
			"primitives":[
				{
					"attributes":{
						"POSITION":58,
						"NORMAL":59,
						"TEXCOORD_0":60,
						"TANGENT":61
					},
					"indices":4,
					"material":0
				}
			]
		}
	],
	"textures":[
		{
			"sampler":0,
			"source":0
		},
		{
			"sampler":0,
			"source":1
		},
		{
			"sampler":0,
			"source":2
		}
	],
	"images":[
		{
			"mimeType":"image/png",
			"name":"Base_Tile_Rock_normal",
			"uri":"Base_Tile_Rock_normal.png"
		},
		{
			"mimeType":"image/png",
			"name":"Base_Tile_TX",
			"uri":"Base_Tile_TX.png"
		},
		{
			"mimeType":"image/png",
			"name":"Base_Tile_Rock_occlusionRoughnessMetallic",
			"uri":"Base_Tile_Rock_occlusionRoughnessMetallic.png"
		}
	],
	"accessors":[
		{
			"bufferView":0,
			"componentType":5126,
			"count":116,
			"max":[
				1.0703248977661133,
				0.7642980813980103,
				1.0230377912521362
			],
			"min":[
				-1.04799222946167,
				0.11956985294818878,
				-1.0485683679580688
			],
			"type":"VEC3"
		},
		{
			"bufferView":1,
			"componentType":5126,
			"count":116,
			"type":"VEC3"
		},
		{
			"bufferView":2,
			"componentType":5126,
			"count":116,
			"type":"VEC2"
		},
		{
			"bufferView":3,
			"componentType":5126,
			"count":116,
			"type":"VEC4"
		},
		{
			"bufferView":4,
			"componentType":5123,
			"count":504,
			"type":"SCALAR"
		},
		{
			"bufferView":5,
			"componentType":5126,
			"count":116,
			"max":[
				1.0479923486709595,
				0.7642980813980103,
				1.0485687255859375
			],
			"min":[
				-1.0703247785568237,
				0.11956985294818878,
				-1.0230374336242676
			],
			"type":"VEC3"
		},
		{
			"bufferView":6,
			"componentType":5126,
			"count":116,
			"type":"VEC3"
		},
		{
			"bufferView":7,
			"componentType":5126,
			"count":116,
			"type":"VEC2"
		},
		{
			"bufferView":8,
			"componentType":5126,
			"count":116,
			"type":"VEC4"
		},
		{
			"bufferView":9,
			"componentType":5123,
			"count":504,
			"type":"SCALAR"
		},
		{
			"bufferView":10,
			"componentType":5126,
			"count":116,
			"max":[
				1.0703248977661133,
				0.7642980813980103,
				1.0230377912521362
			],
			"min":[
				-1.04799222946167,
				0.11956985294818878,
				-1.0485683679580688
			],
			"type":"VEC3"
		},
		{
			"bufferView":11,
			"componentType":5126,
			"count":116,
			"type":"VEC3"
		},
		{
			"bufferView":12,
			"componentType":5126,
			"count":116,
			"type":"VEC2"
		},
		{
			"bufferView":13,
			"componentType":5126,
			"count":116,
			"type":"VEC4"
		},
		{
			"bufferView":14,
			"componentType":5123,
			"count":504,
			"type":"SCALAR"
		},
		{
			"bufferView":15,
			"componentType":5126,
			"count":116,
			"max":[
				1.0479923486709595,
				0.7642980813980103,
				1.0485687255859375
			],
			"min":[
				-1.0703247785568237,
				0.11956985294818878,
				-1.0230374336242676
			],
			"type":"VEC3"
		},
		{
			"bufferView":16,
			"componentType":5126,
			"count":116,
			"type":"VEC3"
		},
		{
			"bufferView":17,
			"componentType":5126,
			"count":116,
			"type":"VEC2"
		},
		{
			"bufferView":18,
			"componentType":5126,
			"count":116,
			"type":"VEC4"
		},
		{
			"bufferView":19,
			"componentType":5123,
			"count":504,
			"type":"SCALAR"
		},
		{
			"bufferView":20,
			"componentType":5126,
			"count":116,
			"max":[
				1.0703248977661133,
				0.7642980813980103,
				1.0230377912521362
			],
			"min":[
				-1.04799222946167,
				0.11956985294818878,
				-1.0485683679580688
			],
			"type":"VEC3"
		},
		{
			"bufferView":21,
			"componentType":5126,
			"count":116,
			"type":"VEC3"
		},
		{
			"bufferView":22,
			"componentType":5126,
			"count":116,
			"type":"VEC2"
		},
		{
			"bufferView":23,
			"componentType":5126,
			"count":116,
			"type":"VEC4"
		},
		{
			"bufferView":24,
			"componentType":5123,
			"count":504,
			"type":"SCALAR"
		},
		{
			"bufferView":25,
			"componentType":5126,
			"count":116,
			"max":[
				1.0703248977661133,
				0.7642980813980103,
				1.0230377912521362
			],
			"min":[
				-1.04799222946167,
				0.11956985294818878,
				-1.0485683679580688
			],
			"type":"VEC3"
		},
		{
			"bufferView":26,
			"componentType":5126,
			"count":116,
			"type":"VEC3"
		},
		{
			"bufferView":27,
			"componentType":5126,
			"count":116,
			"type":"VEC2"
		},
		{
			"bufferView":28,
			"componentType":5126,
			"count":116,
			"type":"VEC4"
		},
		{
			"bufferView":29,
			"componentType":5126,
			"count":116,
			"max":[
				1.0703248977661133,
				0.7642980813980103,
				1.0230377912521362
			],
			"min":[
				-1.04799222946167,
				0.11956985294818878,
				-1.0485683679580688
			],
			"type":"VEC3"
		},
		{
			"bufferView":30,
			"componentType":5126,
			"count":116,
			"type":"VEC3"
		},
		{
			"bufferView":31,
			"componentType":5126,
			"count":116,
			"type":"VEC2"
		},
		{
			"bufferView":32,
			"componentType":5126,
			"count":116,
			"type":"VEC4"
		},
		{
			"bufferView":33,
			"componentType":5126,
			"count":116,
			"max":[
				1.0703245401382446,
				0.7642980813980103,
				1.023037075996399
			],
			"min":[
				-1.0479925870895386,
				0.11956985294818878,
				-1.0485690832138062
			],
			"type":"VEC3"
		},
		{
			"bufferView":34,
			"componentType":5126,
			"count":116,
			"type":"VEC3"
		},
		{
			"bufferView":35,
			"componentType":5126,
			"count":116,
			"type":"VEC2"
		},
		{
			"bufferView":36,
			"componentType":5126,
			"count":116,
			"type":"VEC4"
		},
		{
			"bufferView":37,
			"componentType":5123,
			"count":504,
			"type":"SCALAR"
		},
		{
			"bufferView":38,
			"componentType":5126,
			"count":116,
			"max":[
				1.0479923486709595,
				0.7642980813980103,
				1.0485687255859375
			],
			"min":[
				-1.0703247785568237,
				0.11956985294818878,
				-1.0230374336242676
			],
			"type":"VEC3"
		},
		{
			"bufferView":39,
			"componentType":5126,
			"count":116,
			"type":"VEC3"
		},
		{
			"bufferView":40,
			"componentType":5126,
			"count":116,
			"type":"VEC2"
		},
		{
			"bufferView":41,
			"componentType":5126,
			"count":116,
			"type":"VEC4"
		},
		{
			"bufferView":42,
			"componentType":5126,
			"count":116,
			"max":[
				1.0703248977661133,
				0.7642980813980103,
				1.0230377912521362
			],
			"min":[
				-1.04799222946167,
				0.11956985294818878,
				-1.0485683679580688
			],
			"type":"VEC3"
		},
		{
			"bufferView":43,
			"componentType":5126,
			"count":116,
			"type":"VEC3"
		},
		{
			"bufferView":44,
			"componentType":5126,
			"count":116,
			"type":"VEC2"
		},
		{
			"bufferView":45,
			"componentType":5126,
			"count":116,
			"type":"VEC4"
		},
		{
			"bufferView":46,
			"componentType":5126,
			"count":116,
			"max":[
				1.0479923486709595,
				0.7642980813980103,
				1.0485687255859375
			],
			"min":[
				-1.0703247785568237,
				0.11956985294818878,
				-1.0230374336242676
			],
			"type":"VEC3"
		},
		{
			"bufferView":47,
			"componentType":5126,
			"count":116,
			"type":"VEC3"
		},
		{
			"bufferView":48,
			"componentType":5126,
			"count":116,
			"type":"VEC2"
		},
		{
			"bufferView":49,
			"componentType":5126,
			"count":116,
			"type":"VEC4"
		},
		{
			"bufferView":50,
			"componentType":5126,
			"count":116,
			"max":[
				1.0703248977661133,
				0.7642980813980103,
				1.0230377912521362
			],
			"min":[
				-1.04799222946167,
				0.11956985294818878,
				-1.0485683679580688
			],
			"type":"VEC3"
		},
		{
			"bufferView":51,
			"componentType":5126,
			"count":116,
			"type":"VEC3"
		},
		{
			"bufferView":52,
			"componentType":5126,
			"count":116,
			"type":"VEC2"
		},
		{
			"bufferView":53,
			"componentType":5126,
			"count":116,
			"type":"VEC4"
		},
		{
			"bufferView":54,
			"componentType":5126,
			"count":116,
			"max":[
				1.0703248977661133,
				0.7642980813980103,
				1.0230377912521362
			],
			"min":[
				-1.04799222946167,
				0.11956985294818878,
				-1.0485683679580688
			],
			"type":"VEC3"
		},
		{
			"bufferView":55,
			"componentType":5126,
			"count":116,
			"type":"VEC3"
		},
		{
			"bufferView":56,
			"componentType":5126,
			"count":116,
			"type":"VEC2"
		},
		{
			"bufferView":57,
			"componentType":5126,
			"count":116,
			"type":"VEC4"
		},
		{
			"bufferView":58,
			"componentType":5126,
			"count":116,
			"max":[
				1.0479923486709595,
				0.7642980813980103,
				1.0485687255859375
			],
			"min":[
				-1.0703247785568237,
				0.11956985294818878,
				-1.0230374336242676
			],
			"type":"VEC3"
		},
		{
			"bufferView":59,
			"componentType":5126,
			"count":116,
			"type":"VEC3"
		},
		{
			"bufferView":60,
			"componentType":5126,
			"count":116,
			"type":"VEC2"
		},
		{
			"bufferView":61,
			"componentType":5126,
			"count":116,
			"type":"VEC4"
		}
	],
	"bufferViews":[
		{
			"buffer":0,
			"byteLength":1392,
			"byteOffset":0,
			"target":34962
		},
		{
			"buffer":0,
			"byteLength":1392,
			"byteOffset":1392,
			"target":34962
		},
		{
			"buffer":0,
			"byteLength":928,
			"byteOffset":2784,
			"target":34962
		},
		{
			"buffer":0,
			"byteLength":1856,
			"byteOffset":3712,
			"target":34962
		},
		{
			"buffer":0,
			"byteLength":1008,
			"byteOffset":5568,
			"target":34963
		},
		{
			"buffer":0,
			"byteLength":1392,
			"byteOffset":6576,
			"target":34962
		},
		{
			"buffer":0,
			"byteLength":1392,
			"byteOffset":7968,
			"target":34962
		},
		{
			"buffer":0,
			"byteLength":928,
			"byteOffset":9360,
			"target":34962
		},
		{
			"buffer":0,
			"byteLength":1856,
			"byteOffset":10288,
			"target":34962
		},
		{
			"buffer":0,
			"byteLength":1008,
			"byteOffset":12144,
			"target":34963
		},
		{
			"buffer":0,
			"byteLength":1392,
			"byteOffset":13152,
			"target":34962
		},
		{
			"buffer":0,
			"byteLength":1392,
			"byteOffset":14544,
			"target":34962
		},
		{
			"buffer":0,
			"byteLength":928,
			"byteOffset":15936,
			"target":34962
		},
		{
			"buffer":0,
			"byteLength":1856,
			"byteOffset":16864,
			"target":34962
		},
		{
			"buffer":0,
			"byteLength":1008,
			"byteOffset":18720,
			"target":34963
		},
		{
			"buffer":0,
			"byteLength":1392,
			"byteOffset":19728,
			"target":34962
		},
		{
			"buffer":0,
			"byteLength":1392,
			"byteOffset":21120,
			"target":34962
		},
		{
			"buffer":0,
			"byteLength":928,
			"byteOffset":22512,
			"target":34962
		},
		{
			"buffer":0,
			"byteLength":1856,
			"byteOffset":23440,
			"target":34962
		},
		{
			"buffer":0,
			"byteLength":1008,
			"byteOffset":25296,
			"target":34963
		},
		{
			"buffer":0,
			"byteLength":1392,
			"byteOffset":26304,
			"target":34962
		},
		{
			"buffer":0,
			"byteLength":1392,
			"byteOffset":27696,
			"target":34962
		},
		{
			"buffer":0,
			"byteLength":928,
			"byteOffset":29088,
			"target":34962
		},
		{
			"buffer":0,
			"byteLength":1856,
			"byteOffset":30016,
			"target":34962
		},
		{
			"buffer":0,
			"byteLength":1008,
			"byteOffset":31872,
			"target":34963
		},
		{
			"buffer":0,
			"byteLength":1392,
			"byteOffset":32880,
			"target":34962
		},
		{
			"buffer":0,
			"byteLength":1392,
			"byteOffset":34272,
			"target":34962
		},
		{
			"buffer":0,
			"byteLength":928,
			"byteOffset":35664,
			"target":34962
		},
		{
			"buffer":0,
			"byteLength":1856,
			"byteOffset":36592,
			"target":34962
		},
		{
			"buffer":0,
			"byteLength":1392,
			"byteOffset":38448,
			"target":34962
		},
		{
			"buffer":0,
			"byteLength":1392,
			"byteOffset":39840,
			"target":34962
		},
		{
			"buffer":0,
			"byteLength":928,
			"byteOffset":41232,
			"target":34962
		},
		{
			"buffer":0,
			"byteLength":1856,
			"byteOffset":42160,
			"target":34962
		},
		{
			"buffer":0,
			"byteLength":1392,
			"byteOffset":44016,
			"target":34962
		},
		{
			"buffer":0,
			"byteLength":1392,
			"byteOffset":45408,
			"target":34962
		},
		{
			"buffer":0,
			"byteLength":928,
			"byteOffset":46800,
			"target":34962
		},
		{
			"buffer":0,
			"byteLength":1856,
			"byteOffset":47728,
			"target":34962
		},
		{
			"buffer":0,
			"byteLength":1008,
			"byteOffset":49584,
			"target":34963
		},
		{
			"buffer":0,
			"byteLength":1392,
			"byteOffset":50592,
			"target":34962
		},
		{
			"buffer":0,
			"byteLength":1392,
			"byteOffset":51984,
			"target":34962
		},
		{
			"buffer":0,
			"byteLength":928,
			"byteOffset":53376,
			"target":34962
		},
		{
			"buffer":0,
			"byteLength":1856,
			"byteOffset":54304,
			"target":34962
		},
		{
			"buffer":0,
			"byteLength":1392,
			"byteOffset":56160,
			"target":34962
		},
		{
			"buffer":0,
			"byteLength":1392,
			"byteOffset":57552,
			"target":34962
		},
		{
			"buffer":0,
			"byteLength":928,
			"byteOffset":58944,
			"target":34962
		},
		{
			"buffer":0,
			"byteLength":1856,
			"byteOffset":59872,
			"target":34962
		},
		{
			"buffer":0,
			"byteLength":1392,
			"byteOffset":61728,
			"target":34962
		},
		{
			"buffer":0,
			"byteLength":1392,
			"byteOffset":63120,
			"target":34962
		},
		{
			"buffer":0,
			"byteLength":928,
			"byteOffset":64512,
			"target":34962
		},
		{
			"buffer":0,
			"byteLength":1856,
			"byteOffset":65440,
			"target":34962
		},
		{
			"buffer":0,
			"byteLength":1392,
			"byteOffset":67296,
			"target":34962
		},
		{
			"buffer":0,
			"byteLength":1392,
			"byteOffset":68688,
			"target":34962
		},
		{
			"buffer":0,
			"byteLength":928,
			"byteOffset":70080,
			"target":34962
		},
		{
			"buffer":0,
			"byteLength":1856,
			"byteOffset":71008,
			"target":34962
		},
		{
			"buffer":0,
			"byteLength":1392,
			"byteOffset":72864,
			"target":34962
		},
		{
			"buffer":0,
			"byteLength":1392,
			"byteOffset":74256,
			"target":34962
		},
		{
			"buffer":0,
			"byteLength":928,
			"byteOffset":75648,
			"target":34962
		},
		{
			"buffer":0,
			"byteLength":1856,
			"byteOffset":76576,
			"target":34962
		},
		{
			"buffer":0,
			"byteLength":1392,
			"byteOffset":78432,
			"target":34962
		},
		{
			"buffer":0,
			"byteLength":1392,
			"byteOffset":79824,
			"target":34962
		},
		{
			"buffer":0,
			"byteLength":928,
			"byteOffset":81216,
			"target":34962
		},
		{
			"buffer":0,
			"byteLength":1856,
			"byteOffset":82144,
			"target":34962
		}
	],
	"samplers":[
		{
			"magFilter":9729,
			"minFilter":9987
		}
	],
	"buffers":[
		{
			"byteLength":84000,
			"uri":"PR_Tiles_Tut_plus_Lvl1.bin"
		}
	]
}
