{
  "asset": {
    "generator": "UnityGltf 2.17.6, Unity 6000.0.29f1, URP",
    "version": "2.0"
  },
  "extensionsUsed": [
    "KHR_texture_transform"
  ],
  "scene": 0,
  "scenes": [
    {
      "nodes": [
        0
      ],
      "name": "shield_animation_joint"
    }
  ],
  "accessors": [
    {
      "bufferView": 0,
      "componentType": 5126,
      "count": 2159,
      "type": "VEC3",
      "max": [
        1.469077467918396,
        2.5267884731292725,
        0.73683029413223267
      ],
      "min": [
        -1.5867034196853638,
        0.43047940731048584,
        -0.71193999052047729
      ]
    },
    {
      "bufferView": 1,
      "componentType": 5126,
      "count": 2159,
      "type": "VEC3",
      "max": [
        0.9995419979095459,
        0.992515504360199,
        0.993909478187561
      ],
      "min": [
        -0.9993826150894165,
        -0.94236898422241211,
        -0.99953544139862061
      ]
    },
    {
      "bufferView": 2,
      "componentType": 5126,
      "count": 2159,
      "type": "VEC4",
      "max": [
        0.96214419603347778,
        0.98015838861465454,
        0.99996268749237061,
        1.0
      ],
      "min": [
        -0.99651128053665161,
        -0.93791788816452026,
        -0.999881386756897,
        -1.0
      ]
    },
    {
      "bufferView": 3,
      "componentType": 5126,
      "count": 2159,
      "type": "VEC2",
      "max": [
        1.0003135204315186,
        0.99257683753967285
      ],
      "min": [
        0.00070959329605102539,
        0.009369969367980957
      ]
    },
    {
      "bufferView": 4,
      "componentType": 5123,
      "count": 7260,
      "type": "SCALAR",
      "max": [
        2158.0
      ],
      "min": [
        0.0
      ]
    },
    {
      "bufferView": 5,
      "componentType": 5126,
      "count": 44,
      "type": "SCALAR",
      "max": [
        1.4583332538604736
      ],
      "min": [
        0.0
      ]
    },
    {
      "bufferView": 6,
      "componentType": 5126,
      "count": 44,
      "type": "VEC4",
      "max": [
        9.5325160675892865E-17,
        0.996423602104187,
        9.5325160675892865E-17,
        0.99851512908935547
      ],
      "min": [
        -1.0302640408466366E-16,
        -0.9987601637840271,
        -1.0302640408466366E-16,
        -0.99638497829437256
      ]
    },
    {
      "bufferView": 7,
      "componentType": 5126,
      "count": 1,
      "type": "MAT4"
    },
    {
      "bufferView": 8,
      "componentType": 5123,
      "count": 2159,
      "type": "VEC4",
      "max": [
        0.0,
        0.0,
        0.0,
        0.0
      ],
      "min": [
        0.0,
        0.0,
        0.0,
        0.0
      ]
    },
    {
      "bufferView": 9,
      "componentType": 5126,
      "count": 2159,
      "type": "VEC4",
      "max": [
        1.0,
        0.0,
        0.0,
        0.0
      ],
      "min": [
        1.0,
        0.0,
        0.0,
        0.0
      ]
    }
  ],
  "animations": [
    {
      "channels": [
        {
          "sampler": 0,
          "target": {
            "node": 1,
            "path": "rotation"
          }
        }
      ],
      "samplers": [
        {
          "input": 5,
          "interpolation": "LINEAR",
          "output": 6
        }
      ],
      "name": "Take 001"
    }
  ],
  "buffers": [
    {
      "uri": "shield_animation_joint.bin",
      "byteLength": 170912
    }
  ],
  "bufferViews": [
    {
      "buffer": 0,
      "byteLength": 25908,
      "byteStride": 12,
      "target": 34962
    },
    {
      "buffer": 0,
      "byteOffset": 25908,
      "byteLength": 25908,
      "byteStride": 12,
      "target": 34962
    },
    {
      "buffer": 0,
      "byteOffset": 51816,
      "byteLength": 34544,
      "target": 34962
    },
    {
      "buffer": 0,
      "byteOffset": 86360,
      "byteLength": 17272,
      "target": 34962
    },
    {
      "buffer": 0,
      "byteOffset": 103632,
      "byteLength": 14520,
      "target": 34963
    },
    {
      "buffer": 0,
      "byteOffset": 118152,
      "byteLength": 176
    },
    {
      "buffer": 0,
      "byteOffset": 118328,
      "byteLength": 704
    },
    {
      "buffer": 0,
      "byteOffset": 119032,
      "byteLength": 64
    },
    {
      "buffer": 0,
      "byteOffset": 119096,
      "byteLength": 17272,
      "target": 34962
    },
    {
      "buffer": 0,
      "byteOffset": 136368,
      "byteLength": 34544,
      "target": 34962
    }
  ],
  "images": [
    {
      "uri": "shield_texture_bluev02_emission.jpg",
      "name": "shield_texture_bluev02_emission"
    },
    {
      "uri": "shield_texture_blue.png",
      "name": "shield_texture_blue"
    }
  ],
  "materials": [
    {
      "pbrMetallicRoughness": {
        "baseColorTexture": {
          "index": 1,
          "extensions": {
            "KHR_texture_transform": {
              "texCoord": 0
            }
          }
        },
        "metallicFactor": 0.0,
        "roughnessFactor": 0.55278640985488892
      },
      "emissiveTexture": {
        "index": 0,
        "extensions": {
          "KHR_texture_transform": {
            "texCoord": 0
          }
        }
      },
      "emissiveFactor": [
        1.0,
        1.0,
        1.0
      ],
      "name": "standardSurface7"
    }
  ],
  "meshes": [
    {
      "primitives": [
        {
          "attributes": {
            "POSITION": 0,
            "NORMAL": 1,
            "TANGENT": 2,
            "TEXCOORD_0": 3,
            "JOINTS_0": 8,
            "WEIGHTS_0": 9
          },
          "indices": 4,
          "material": 0
        }
      ],
      "name": "shield_animation_joint"
    }
  ],
  "nodes": [
    {
      "children": [
        1
      ],
      "skin": 0,
      "mesh": 0,
      "name": "shield_animation_joint"
    },
    {
      "rotation": [
        -8.657584E-17,
        0.7220747,
        -8.657584E-17,
        -0.6918152
      ],
      "translation": [
        -0.0504477248,
        1.75620949,
        0.09880128
      ],
      "name": "joint1"
    }
  ],
  "samplers": [
    {
      "minFilter": 9987
    }
  ],
  "skins": [
    {
      "inverseBindMatrices": 7,
      "joints": [
        1
      ]
    }
  ],
  "textures": [
    {
      "sampler": 0,
      "source": 0,
      "name": "shield_texture_bluev02_emission"
    },
    {
      "sampler": 0,
      "source": 1,
      "name": "shield_texture_blue"
    }
  ]
}