{
	"asset":{
		"generator":"Khronos glTF Blender I/O v4.5.48",
		"version":"2.0"
	},
	"scene":0,
	"scenes":[
		{
			"name":"Scene",
			"nodes":[
				1
			]
		}
	],
	"nodes":[
		{
			"mesh":0,
			"name":"water_river_split_fixed"
		},
		{
			"children":[
				0
			],
			"name":"water_level_2_fixed"
		}
	],
	"materials":[
		{
			"doubleSided":true,
			"emissiveFactor":[
				1,
				1,
				1
			],
			"emissiveTexture":{
				"index":0
			},
			"name":"m_water",
			"pbrMetallicRoughness":{
				"baseColorTexture":{
					"index":1
				},
				"metallicFactor":0
			}
		}
	],
	"meshes":[
		{
			"name":"Plane.007",
			"primitives":[
				{
					"attributes":{
						"POSITION":0,
						"NORMAL":1,
						"TEXCOORD_0":2,
						"TANGENT":3
					},
					"indices":4,
					"material":0
				}
			]
		}
	],
	"textures":[
		{
			"sampler":0,
			"source":0
		},
		{
			"sampler":0,
			"source":0
		}
	],
	"images":[
		{
			"mimeType":"image/png",
			"name":"backdrop_8",
			"uri":"backdrop_8.png"
		}
	],
	"accessors":[
		{
			"bufferView":0,
			"componentType":5126,
			"count":331,
			"max":[
				57.97150421142578,
				7.991004467010498,
				34.41863250732422
			],
			"min":[
				-21.961441040039062,
				-24.380470275878906,
				-40.73866271972656
			],
			"type":"VEC3"
		},
		{
			"bufferView":1,
			"componentType":5126,
			"count":331,
			"type":"VEC3"
		},
		{
			"bufferView":2,
			"componentType":5126,
			"count":331,
			"type":"VEC2"
		},
		{
			"bufferView":3,
			"componentType":5126,
			"count":331,
			"type":"VEC4"
		},
		{
			"bufferView":4,
			"componentType":5123,
			"count":1536,
			"type":"SCALAR"
		}
	],
	"bufferViews":[
		{
			"buffer":0,
			"byteLength":3972,
			"byteOffset":0,
			"target":34962
		},
		{
			"buffer":0,
			"byteLength":3972,
			"byteOffset":3972,
			"target":34962
		},
		{
			"buffer":0,
			"byteLength":2648,
			"byteOffset":7944,
			"target":34962
		},
		{
			"buffer":0,
			"byteLength":5296,
			"byteOffset":10592,
			"target":34962
		},
		{
			"buffer":0,
			"byteLength":3072,
			"byteOffset":15888,
			"target":34963
		}
	],
	"samplers":[
		{
			"magFilter":9729,
			"minFilter":9987
		}
	],
	"buffers":[
		{
			"byteLength":18960,
			"uri":"split_waterfall_singled_out.bin"
		}
	]
}
