{
	"asset":{
		"generator":"Khronos glTF Blender I/O v4.5.48",
		"version":"2.0"
	},
	"scene":0,
	"scenes":[
		{
			"name":"Scene",
			"nodes":[
				3
			]
		}
	],
	"nodes":[
		{
			"mesh":0,
			"name":"water_river_2_fixed"
		},
		{
			"mesh":1,
			"name":"water_river_split_fixed_2"
		},
		{
			"mesh":2,
			"name":"water_waterfall_background_fixed"
		},
		{
			"children":[
				0,
				1,
				2
			],
			"name":"water_level_2_fixed_2"
		}
	],
	"materials":[
		{
			"doubleSided":true,
			"emissiveFactor":[
				1,
				1,
				1
			],
			"emissiveTexture":{
				"index":0
			},
			"name":"m_water.003",
			"pbrMetallicRoughness":{
				"baseColorTexture":{
					"index":1
				},
				"metallicFactor":0
			}
		},
		{
			"doubleSided":true,
			"emissiveFactor":[
				1,
				1,
				1
			],
			"emissiveTexture":{
				"index":2
			},
			"name":"m_water",
			"pbrMetallicRoughness":{
				"baseColorTexture":{
					"index":3
				},
				"metallicFactor":0
			}
		}
	],
	"meshes":[
		{
			"name":"Plane.008",
			"primitives":[
				{
					"attributes":{
						"POSITION":0,
						"NORMAL":1,
						"TEXCOORD_0":2,
						"TANGENT":3
					},
					"indices":4,
					"material":0
				}
			]
		},
		{
			"name":"Plane.007",
			"primitives":[
				{
					"attributes":{
						"POSITION":5,
						"NORMAL":6,
						"TEXCOORD_0":7
					},
					"indices":8,
					"material":1
				}
			]
		},
		{
			"name":"Plane.006",
			"primitives":[
				{
					"attributes":{
						"POSITION":9,
						"NORMAL":10,
						"TEXCOORD_0":11,
						"TANGENT":12
					},
					"indices":13,
					"material":1
				}
			]
		}
	],
	"textures":[
		{
			"sampler":0,
			"source":0
		},
		{
			"sampler":0,
			"source":0
		},
		{
			"sampler":0,
			"source":0
		},
		{
			"sampler":0,
			"source":0
		}
	],
	"images":[
		{
			"mimeType":"image/png",
			"name":"backdrop_8",
			"uri":"backdrop_8.png"
		}
	],
	"accessors":[
		{
			"bufferView":0,
			"componentType":5126,
			"count":331,
			"max":[
				14.523265838623047,
				7.244254112243652,
				16.725257873535156
			],
			"min":[
				-11.145880699157715,
				-25.619369506835938,
				-16.120288848876953
			],
			"type":"VEC3"
		},
		{
			"bufferView":1,
			"componentType":5126,
			"count":331,
			"type":"VEC3"
		},
		{
			"bufferView":2,
			"componentType":5126,
			"count":331,
			"type":"VEC2"
		},
		{
			"bufferView":3,
			"componentType":5126,
			"count":331,
			"type":"VEC4"
		},
		{
			"bufferView":4,
			"componentType":5123,
			"count":1521,
			"type":"SCALAR"
		},
		{
			"bufferView":5,
			"componentType":5126,
			"count":329,
			"max":[
				57.97150421142578,
				7.651233673095703,
				33.99876022338867
			],
			"min":[
				-21.961441040039062,
				-24.380470275878906,
				-40.73866271972656
			],
			"type":"VEC3"
		},
		{
			"bufferView":6,
			"componentType":5126,
			"count":329,
			"type":"VEC3"
		},
		{
			"bufferView":7,
			"componentType":5126,
			"count":329,
			"type":"VEC2"
		},
		{
			"bufferView":8,
			"componentType":5123,
			"count":1545,
			"type":"SCALAR"
		},
		{
			"bufferView":9,
			"componentType":5126,
			"count":125,
			"max":[
				2.1654489040374756,
				23.645116806030273,
				2.1954638957977295
			],
			"min":[
				-1.3080674409866333,
				-58.07743835449219,
				-2.1945650577545166
			],
			"type":"VEC3"
		},
		{
			"bufferView":10,
			"componentType":5126,
			"count":125,
			"type":"VEC3"
		},
		{
			"bufferView":11,
			"componentType":5126,
			"count":125,
			"type":"VEC2"
		},
		{
			"bufferView":12,
			"componentType":5126,
			"count":125,
			"type":"VEC4"
		},
		{
			"bufferView":13,
			"componentType":5123,
			"count":576,
			"type":"SCALAR"
		}
	],
	"bufferViews":[
		{
			"buffer":0,
			"byteLength":3972,
			"byteOffset":0,
			"target":34962
		},
		{
			"buffer":0,
			"byteLength":3972,
			"byteOffset":3972,
			"target":34962
		},
		{
			"buffer":0,
			"byteLength":2648,
			"byteOffset":7944,
			"target":34962
		},
		{
			"buffer":0,
			"byteLength":5296,
			"byteOffset":10592,
			"target":34962
		},
		{
			"buffer":0,
			"byteLength":3042,
			"byteOffset":15888,
			"target":34963
		},
		{
			"buffer":0,
			"byteLength":3948,
			"byteOffset":18932,
			"target":34962
		},
		{
			"buffer":0,
			"byteLength":3948,
			"byteOffset":22880,
			"target":34962
		},
		{
			"buffer":0,
			"byteLength":2632,
			"byteOffset":26828,
			"target":34962
		},
		{
			"buffer":0,
			"byteLength":3090,
			"byteOffset":29460,
			"target":34963
		},
		{
			"buffer":0,
			"byteLength":1500,
			"byteOffset":32552,
			"target":34962
		},
		{
			"buffer":0,
			"byteLength":1500,
			"byteOffset":34052,
			"target":34962
		},
		{
			"buffer":0,
			"byteLength":1000,
			"byteOffset":35552,
			"target":34962
		},
		{
			"buffer":0,
			"byteLength":2000,
			"byteOffset":36552,
			"target":34962
		},
		{
			"buffer":0,
			"byteLength":1152,
			"byteOffset":38552,
			"target":34963
		}
	],
	"samplers":[
		{
			"magFilter":9729,
			"minFilter":9987
		}
	],
	"buffers":[
		{
			"byteLength":39704,
			"uri":"split_waterfall_corrected.bin"
		}
	]
}
