{
	"asset":{
		"generator":"Khronos glTF Blender I/O v4.2.69",
		"version":"2.0"
	},
	"extensionsUsed":[
		"KHR_materials_emissive_strength"
	],
	"scene":0,
	"scenes":[
		{
			"name":"Scene",
			"nodes":[
				0,
				1
			]
		}
	],
	"nodes":[
		{
			"mesh":0,
			"name":"Plane.037"
		},
		{
			"mesh":1,
			"name":"EN_Arena_Floor_Plane2-water.010"
		}
	],
	"materials":[
		{
			"doubleSided":true,
			"emissiveFactor":[
				1,
				1,
				1
			],
			"emissiveTexture":{
				"index":0
			},
			"extensions":{
				"KHR_materials_emissive_strength":{
					"emissiveStrength":4.099999904632568
				}
			},
			"name":"M_Boss_Arena",
			"normalTexture":{
				"index":1
			},
			"pbrMetallicRoughness":{
				"baseColorTexture":{
					"index":2
				},
				"metallicFactor":0
			}
		}
	],
	"meshes":[
		{
			"name":"Plane.002",
			"primitives":[
				{
					"attributes":{
						"POSITION":0,
						"NORMAL":1,
						"TEXCOORD_0":2,
						"TANGENT":3
					},
					"indices":4,
					"material":0
				}
			]
		},
		{
			"name":"Plane.077",
			"primitives":[
				{
					"attributes":{
						"POSITION":5,
						"NORMAL":6,
						"TEXCOORD_0":7,
						"TANGENT":8
					},
					"indices":9,
					"material":0
				}
			]
		}
	],
	"textures":[
		{
			"sampler":0,
			"source":0
		},
		{
			"sampler":0,
			"source":1
		},
		{
			"sampler":0,
			"source":2
		}
	],
	"images":[
		{
			"mimeType":"image/png",
			"name":"arena-lp_DefaultMaterial_Emissive",
			"uri":"arena-lp_DefaultMaterial_Emissive.png"
		},
		{
			"mimeType":"image/png",
			"name":"Floor_Plane_LP_DefaultMaterial_Normal",
			"uri":"Floor_Plane_LP_DefaultMaterial_Normal.png"
		},
		{
			"mimeType":"image/png",
			"name":"arena-lp_DefaultMaterial_BaseColor",
			"uri":"arena-lp_DefaultMaterial_BaseColor.png"
		}
	],
	"accessors":[
		{
			"bufferView":0,
			"componentType":5126,
			"count":1926,
			"max":[
				16.204078674316406,
				0.42072227597236633,
				17.359987258911133
			],
			"min":[
				-15.544225692749023,
				-0.6670131087303162,
				-16.601585388183594
			],
			"type":"VEC3"
		},
		{
			"bufferView":1,
			"componentType":5126,
			"count":1926,
			"type":"VEC3"
		},
		{
			"bufferView":2,
			"componentType":5126,
			"count":1926,
			"type":"VEC2"
		},
		{
			"bufferView":3,
			"componentType":5126,
			"count":1926,
			"type":"VEC4"
		},
		{
			"bufferView":4,
			"componentType":5123,
			"count":7710,
			"type":"SCALAR"
		},
		{
			"bufferView":5,
			"componentType":5126,
			"count":108,
			"max":[
				23.993331909179688,
				0.08472728729248047,
				29.140869140625
			],
			"min":[
				-16.6090087890625,
				-0.0712125301361084,
				-24.885534286499023
			],
			"type":"VEC3"
		},
		{
			"bufferView":6,
			"componentType":5126,
			"count":108,
			"type":"VEC3"
		},
		{
			"bufferView":7,
			"componentType":5126,
			"count":108,
			"type":"VEC2"
		},
		{
			"bufferView":8,
			"componentType":5126,
			"count":108,
			"type":"VEC4"
		},
		{
			"bufferView":9,
			"componentType":5123,
			"count":465,
			"type":"SCALAR"
		}
	],
	"bufferViews":[
		{
			"buffer":0,
			"byteLength":23112,
			"byteOffset":0,
			"target":34962
		},
		{
			"buffer":0,
			"byteLength":23112,
			"byteOffset":23112,
			"target":34962
		},
		{
			"buffer":0,
			"byteLength":15408,
			"byteOffset":46224,
			"target":34962
		},
		{
			"buffer":0,
			"byteLength":30816,
			"byteOffset":61632,
			"target":34962
		},
		{
			"buffer":0,
			"byteLength":15420,
			"byteOffset":92448,
			"target":34963
		},
		{
			"buffer":0,
			"byteLength":1296,
			"byteOffset":107868,
			"target":34962
		},
		{
			"buffer":0,
			"byteLength":1296,
			"byteOffset":109164,
			"target":34962
		},
		{
			"buffer":0,
			"byteLength":864,
			"byteOffset":110460,
			"target":34962
		},
		{
			"buffer":0,
			"byteLength":1728,
			"byteOffset":111324,
			"target":34962
		},
		{
			"buffer":0,
			"byteLength":930,
			"byteOffset":113052,
			"target":34963
		}
	],
	"samplers":[
		{
			"magFilter":9729,
			"minFilter":9987
		}
	],
	"buffers":[
		{
			"byteLength":113984,
			"uri":"Stone_Boss_Arena2.bin"
		}
	]
}
