{"asset":{"version":"2.0","generator":"Unity 2022.3.55f1 glTFast 6.10.3"},"nodes":[{"name":"TeleportWarningSlow","mesh":0}],"buffers":[{"uri":"TeleportWarningSlow.bin","byteLength":7008}],"bufferViews":[{"buffer":0,"byteLength":1200,"target":34963},{"buffer":0,"byteLength":5808,"byteOffset":1200,"byteStride":48,"target":34962}],"accessors":[{"bufferView":1,"componentType":5126,"count":121,"type":"VEC3","max":[5,1.110223E-16,5],"min":[-5,-1.110223E-16,-5]},{"bufferView":1,"componentType":5126,"count":121,"type":"VEC3","byteOffset":12},{"bufferView":1,"componentType":5126,"count":121,"type":"VEC4","byteOffset":24},{"bufferView":1,"componentType":5126,"count":121,"type":"VEC2","byteOffset":40},{"bufferView":0,"componentType":5123,"count":600,"type":"SCALAR"}],"images":[{"name":"teleport_warning.png","uri":"teleport_warning.png","mimeType":"image/png"}],"materials":[{"name":"TeleportWarningSlow","pbrMetallicRoughness":{"metallicFactor":0,"roughnessFactor":0.5,"baseColorTexture":{"index":0}},"alphaMode":"BLEND"}],"meshes":[{"name":"Plane","primitives":[{"attributes":{"POSITION":0,"NORMAL":1,"TANGENT":2,"TEXCOORD_0":3},"indices":4,"material":0}]}],"scene":0,"scenes":[{"name":"TeleportWarningSlow","nodes":[0]}],"textures":[{"source":0}]}