{
	"asset":{
		"generator":"Khronos glTF Blender I/O v4.2.69",
		"version":"2.0"
	},
	"scene":0,
	"scenes":[
		{
			"name":"Scene",
			"nodes":[
				1,
				3
			]
		}
	],
	"nodes":[
		{
			"mesh":0,
			"name":"PR_Tent02_wood"
		},
		{
			"children":[
				0
			],
			"mesh":1,
			"name":"PR_Tent02"
		},
		{
			"mesh":2,
			"name":"PR_Tent01_wood"
		},
		{
			"children":[
				2
			],
			"mesh":3,
			"name":"PR_Tent01"
		}
	],
	"materials":[
		{
			"doubleSided":true,
			"name":"M_Tent02",
			"normalTexture":{
				"index":0
			},
			"pbrMetallicRoughness":{
				"baseColorTexture":{
					"index":1
				},
				"metallicRoughnessTexture":{
					"index":2
				}
			}
		},
		{
			"doubleSided":true,
			"name":"M_Tent01",
			"normalTexture":{
				"index":3
			},
			"pbrMetallicRoughness":{
				"baseColorTexture":{
					"index":4
				},
				"metallicRoughnessTexture":{
					"index":5
				}
			}
		}
	],
	"meshes":[
		{
			"name":"Cube.008",
			"primitives":[
				{
					"attributes":{
						"POSITION":0,
						"NORMAL":1,
						"TEXCOORD_0":2,
						"TANGENT":3
					},
					"indices":4,
					"material":0
				}
			]
		},
		{
			"name":"Cube.023",
			"primitives":[
				{
					"attributes":{
						"POSITION":5,
						"NORMAL":6,
						"TEXCOORD_0":7,
						"TANGENT":8
					},
					"indices":9,
					"material":0
				}
			]
		},
		{
			"name":"wood-tent",
			"primitives":[
				{
					"attributes":{
						"POSITION":10,
						"NORMAL":11,
						"TEXCOORD_0":12,
						"TANGENT":13
					},
					"indices":14,
					"material":1
				}
			]
		},
		{
			"name":"tent_test.001",
			"primitives":[
				{
					"attributes":{
						"POSITION":15,
						"NORMAL":16,
						"TEXCOORD_0":17,
						"TANGENT":18
					},
					"indices":19,
					"material":1
				}
			]
		}
	],
	"textures":[
		{
			"sampler":0,
			"source":0
		},
		{
			"sampler":0,
			"source":1
		},
		{
			"sampler":0,
			"source":2
		},
		{
			"sampler":0,
			"source":3
		},
		{
			"sampler":0,
			"source":4
		},
		{
			"sampler":0,
			"source":5
		}
	],
	"images":[
		{
			"mimeType":"image/png",
			"name":"tent2_nrm",
			"uri":"tent2_nrm.png"
		},
		{
			"mimeType":"image/png",
			"name":"tent2_bs",
			"uri":"tent2_bs.png"
		},
		{
			"mimeType":"image/png",
			"name":"tent2_ORM",
			"uri":"tent2_ORM.png"
		},
		{
			"mimeType":"image/png",
			"name":"tent1_norm",
			"uri":"tent1_norm.png"
		},
		{
			"mimeType":"image/png",
			"name":"tent_1_bs",
			"uri":"tent_1_bs.png"
		},
		{
			"mimeType":"image/png",
			"name":"tent1_ORM",
			"uri":"tent1_ORM.png"
		}
	],
	"accessors":[
		{
			"bufferView":0,
			"componentType":5126,
			"count":226,
			"max":[
				2.8140063285827637,
				1.693793773651123,
				2.9557108879089355
			],
			"min":[
				-2.7734930515289307,
				-0.07694704085588455,
				-2.470578193664551
			],
			"type":"VEC3"
		},
		{
			"bufferView":1,
			"componentType":5126,
			"count":226,
			"type":"VEC3"
		},
		{
			"bufferView":2,
			"componentType":5126,
			"count":226,
			"type":"VEC2"
		},
		{
			"bufferView":3,
			"componentType":5126,
			"count":226,
			"type":"VEC4"
		},
		{
			"bufferView":4,
			"componentType":5123,
			"count":540,
			"type":"SCALAR"
		},
		{
			"bufferView":5,
			"componentType":5126,
			"count":311,
			"max":[
				2.8301074504852295,
				2.8863162994384766,
				2.9102983474731445
			],
			"min":[
				-2.7375521659851074,
				-0.028942793607711792,
				-2.4251654148101807
			],
			"type":"VEC3"
		},
		{
			"bufferView":6,
			"componentType":5126,
			"count":311,
			"type":"VEC3"
		},
		{
			"bufferView":7,
			"componentType":5126,
			"count":311,
			"type":"VEC2"
		},
		{
			"bufferView":8,
			"componentType":5126,
			"count":311,
			"type":"VEC4"
		},
		{
			"bufferView":9,
			"componentType":5123,
			"count":1200,
			"type":"SCALAR"
		},
		{
			"bufferView":10,
			"componentType":5126,
			"count":216,
			"max":[
				3.0872433185577393,
				2.7793617248535156,
				3.7408783435821533
			],
			"min":[
				-2.9327328205108643,
				-0.02511938288807869,
				-2.678485155105591
			],
			"type":"VEC3"
		},
		{
			"bufferView":11,
			"componentType":5126,
			"count":216,
			"type":"VEC3"
		},
		{
			"bufferView":12,
			"componentType":5126,
			"count":216,
			"type":"VEC2"
		},
		{
			"bufferView":13,
			"componentType":5126,
			"count":216,
			"type":"VEC4"
		},
		{
			"bufferView":14,
			"componentType":5123,
			"count":504,
			"type":"SCALAR"
		},
		{
			"bufferView":15,
			"componentType":5126,
			"count":276,
			"max":[
				3.0669186115264893,
				3.4449052810668945,
				3.70318603515625
			],
			"min":[
				-2.912402868270874,
				0.08059003949165344,
				-2.6407902240753174
			],
			"type":"VEC3"
		},
		{
			"bufferView":16,
			"componentType":5126,
			"count":276,
			"type":"VEC3"
		},
		{
			"bufferView":17,
			"componentType":5126,
			"count":276,
			"type":"VEC2"
		},
		{
			"bufferView":18,
			"componentType":5126,
			"count":276,
			"type":"VEC4"
		},
		{
			"bufferView":19,
			"componentType":5123,
			"count":1032,
			"type":"SCALAR"
		}
	],
	"bufferViews":[
		{
			"buffer":0,
			"byteLength":2712,
			"byteOffset":0,
			"target":34962
		},
		{
			"buffer":0,
			"byteLength":2712,
			"byteOffset":2712,
			"target":34962
		},
		{
			"buffer":0,
			"byteLength":1808,
			"byteOffset":5424,
			"target":34962
		},
		{
			"buffer":0,
			"byteLength":3616,
			"byteOffset":7232,
			"target":34962
		},
		{
			"buffer":0,
			"byteLength":1080,
			"byteOffset":10848,
			"target":34963
		},
		{
			"buffer":0,
			"byteLength":3732,
			"byteOffset":11928,
			"target":34962
		},
		{
			"buffer":0,
			"byteLength":3732,
			"byteOffset":15660,
			"target":34962
		},
		{
			"buffer":0,
			"byteLength":2488,
			"byteOffset":19392,
			"target":34962
		},
		{
			"buffer":0,
			"byteLength":4976,
			"byteOffset":21880,
			"target":34962
		},
		{
			"buffer":0,
			"byteLength":2400,
			"byteOffset":26856,
			"target":34963
		},
		{
			"buffer":0,
			"byteLength":2592,
			"byteOffset":29256,
			"target":34962
		},
		{
			"buffer":0,
			"byteLength":2592,
			"byteOffset":31848,
			"target":34962
		},
		{
			"buffer":0,
			"byteLength":1728,
			"byteOffset":34440,
			"target":34962
		},
		{
			"buffer":0,
			"byteLength":3456,
			"byteOffset":36168,
			"target":34962
		},
		{
			"buffer":0,
			"byteLength":1008,
			"byteOffset":39624,
			"target":34963
		},
		{
			"buffer":0,
			"byteLength":3312,
			"byteOffset":40632,
			"target":34962
		},
		{
			"buffer":0,
			"byteLength":3312,
			"byteOffset":43944,
			"target":34962
		},
		{
			"buffer":0,
			"byteLength":2208,
			"byteOffset":47256,
			"target":34962
		},
		{
			"buffer":0,
			"byteLength":4416,
			"byteOffset":49464,
			"target":34962
		},
		{
			"buffer":0,
			"byteLength":2064,
			"byteOffset":53880,
			"target":34963
		}
	],
	"samplers":[
		{
			"magFilter":9729,
			"minFilter":9987
		}
	],
	"buffers":[
		{
			"byteLength":55944,
			"uri":"Tents_with_wind.bin"
		}
	]
}
