{
	"asset":{
		"generator":"Khronos glTF Blender I/O v4.2.69",
		"version":"2.0"
	},
	"scene":0,
	"scenes":[
		{
			"name":"Scene",
			"nodes":[
				0,
				1,
				2,
				3,
				4,
				5,
				6,
				7,
				8,
				9,
				10,
				11,
				12,
				13,
				14,
				15
			]
		}
	],
	"nodes":[
		{
			"mesh":0,
			"name":"PR_Tributes_Bowl01"
		},
		{
			"mesh":1,
			"name":"PR_Tributes_Bowl02"
		},
		{
			"mesh":2,
			"name":"PR_Tributes_DrinkingHorn"
		},
		{
			"mesh":3,
			"name":"PR_Tributes_Flask01"
		},
		{
			"mesh":4,
			"name":"PR_Tributes_Flask02"
		},
		{
			"mesh":5,
			"name":"PR_Tributes_Jar01"
		},
		{
			"mesh":6,
			"name":"PR_Tributes_Jar02"
		},
		{
			"mesh":7,
			"name":"PR_Tributes_Jar03"
		},
		{
			"mesh":8,
			"name":"PR_Tributes_Jar04"
		},
		{
			"mesh":9,
			"name":"PR_Tributes_Plate"
		},
		{
			"mesh":10,
			"name":"PR_Tributes_Vase01"
		},
		{
			"mesh":11,
			"name":"PR_Tributes_Vase02"
		},
		{
			"mesh":12,
			"name":"PR_Tributes_Vase03"
		},
		{
			"mesh":13,
			"name":"PR_Tributes_Vase04"
		},
		{
			"mesh":14,
			"name":"PR_Tributes_Flask03"
		},
		{
			"mesh":15,
			"name":"PR_Tributes_Jar05",
			"rotation":[
				0.7071068286895752,
				0,
				0,
				0.7071068286895752
			]
		}
	],
	"materials":[
		{
			"doubleSided":true,
			"name":"M_Atlas_Tributs_LVL2",
			"normalTexture":{
				"index":0
			},
			"pbrMetallicRoughness":{
				"baseColorTexture":{
					"index":1
				},
				"metallicRoughnessTexture":{
					"index":2
				}
			}
		}
	],
	"meshes":[
		{
			"name":"Mesh.035",
			"primitives":[
				{
					"attributes":{
						"POSITION":0,
						"NORMAL":1,
						"TEXCOORD_0":2,
						"TANGENT":3
					},
					"indices":4,
					"material":0
				}
			]
		},
		{
			"name":"Mesh.034",
			"primitives":[
				{
					"attributes":{
						"POSITION":5,
						"NORMAL":6,
						"TEXCOORD_0":7,
						"TANGENT":8
					},
					"indices":9,
					"material":0
				}
			]
		},
		{
			"name":"Mesh.237",
			"primitives":[
				{
					"attributes":{
						"POSITION":10,
						"NORMAL":11,
						"TEXCOORD_0":12,
						"TANGENT":13,
						"COLOR_0":14,
						"COLOR_1":15,
						"COLOR_2":16
					},
					"indices":17,
					"material":0
				}
			]
		},
		{
			"name":"Mesh.036",
			"primitives":[
				{
					"attributes":{
						"POSITION":18,
						"NORMAL":19,
						"TEXCOORD_0":20,
						"TANGENT":21
					},
					"indices":22,
					"material":0
				}
			]
		},
		{
			"name":"Mesh.037",
			"primitives":[
				{
					"attributes":{
						"POSITION":23,
						"NORMAL":24,
						"TEXCOORD_0":25,
						"TANGENT":26
					},
					"indices":27,
					"material":0
				}
			]
		},
		{
			"name":"Mesh.042",
			"primitives":[
				{
					"attributes":{
						"POSITION":28,
						"NORMAL":29,
						"TEXCOORD_0":30,
						"TANGENT":31
					},
					"indices":32,
					"material":0
				}
			]
		},
		{
			"name":"Mesh.043",
			"primitives":[
				{
					"attributes":{
						"POSITION":33,
						"NORMAL":34,
						"TEXCOORD_0":35,
						"TANGENT":36
					},
					"indices":37,
					"material":0
				}
			]
		},
		{
			"name":"Mesh.041",
			"primitives":[
				{
					"attributes":{
						"POSITION":38,
						"NORMAL":39,
						"TEXCOORD_0":40,
						"TANGENT":41
					},
					"indices":42,
					"material":0
				}
			]
		},
		{
			"name":"Mesh.226",
			"primitives":[
				{
					"attributes":{
						"POSITION":43,
						"NORMAL":44,
						"TEXCOORD_0":45,
						"TANGENT":46
					},
					"indices":47,
					"material":0
				}
			]
		},
		{
			"name":"Mesh.038",
			"primitives":[
				{
					"attributes":{
						"POSITION":48,
						"NORMAL":49,
						"TEXCOORD_0":50,
						"TANGENT":51
					},
					"indices":52,
					"material":0
				}
			]
		},
		{
			"name":"Mesh.040",
			"primitives":[
				{
					"attributes":{
						"POSITION":53,
						"NORMAL":54,
						"TEXCOORD_0":55,
						"TANGENT":56
					},
					"indices":57,
					"material":0
				}
			]
		},
		{
			"name":"Mesh.044",
			"primitives":[
				{
					"attributes":{
						"POSITION":58,
						"NORMAL":59,
						"TEXCOORD_0":60,
						"TANGENT":61
					},
					"indices":62,
					"material":0
				}
			]
		},
		{
			"name":"Mesh.046",
			"primitives":[
				{
					"attributes":{
						"POSITION":63,
						"NORMAL":64,
						"TEXCOORD_0":65,
						"TEXCOORD_1":66,
						"TANGENT":67,
						"COLOR_0":68,
						"COLOR_1":69,
						"COLOR_2":70
					},
					"indices":71,
					"material":0
				}
			]
		},
		{
			"name":"Mesh.045",
			"primitives":[
				{
					"attributes":{
						"POSITION":72,
						"NORMAL":73,
						"TEXCOORD_0":74,
						"TANGENT":75
					},
					"indices":76,
					"material":0
				}
			]
		},
		{
			"name":"Cylinder.014",
			"primitives":[
				{
					"attributes":{
						"POSITION":77,
						"NORMAL":78,
						"TEXCOORD_0":79,
						"TANGENT":80
					},
					"indices":81,
					"material":0
				}
			]
		},
		{
			"name":"Mesh.239",
			"primitives":[
				{
					"attributes":{
						"POSITION":82,
						"NORMAL":83,
						"TEXCOORD_0":84,
						"TANGENT":85
					},
					"indices":86,
					"material":0
				}
			]
		}
	],
	"textures":[
		{
			"sampler":0,
			"source":0
		},
		{
			"sampler":0,
			"source":1
		},
		{
			"sampler":0,
			"source":2
		}
	],
	"images":[
		{
			"mimeType":"image/png",
			"name":"Tributs_Norm",
			"uri":"Tributs_Norm.png"
		},
		{
			"mimeType":"image/png",
			"name":"Tributs_lvl2_basecolor11",
			"uri":"Tributs_lvl2_basecolor11.png"
		},
		{
			"mimeType":"image/png",
			"name":"Tributs_ORM",
			"uri":"Tributs_ORM.png"
		}
	],
	"accessors":[
		{
			"bufferView":0,
			"componentType":5126,
			"count":184,
			"max":[
				0.4070453643798828,
				0.2410292625427246,
				0.4070596694946289
			],
			"min":[
				-0.4070320129394531,
				-5.960464477539062e-07,
				-0.40702104568481445
			],
			"type":"VEC3"
		},
		{
			"bufferView":1,
			"componentType":5126,
			"count":184,
			"type":"VEC3"
		},
		{
			"bufferView":2,
			"componentType":5126,
			"count":184,
			"type":"VEC2"
		},
		{
			"bufferView":3,
			"componentType":5126,
			"count":184,
			"type":"VEC4"
		},
		{
			"bufferView":4,
			"componentType":5123,
			"count":684,
			"type":"SCALAR"
		},
		{
			"bufferView":5,
			"componentType":5126,
			"count":169,
			"max":[
				0.3877391815185547,
				0.33648622035980225,
				0.3879714012145996
			],
			"min":[
				-0.38822174072265625,
				-5.960464477539062e-07,
				-0.38799190521240234
			],
			"type":"VEC3"
		},
		{
			"bufferView":6,
			"componentType":5126,
			"count":169,
			"type":"VEC3"
		},
		{
			"bufferView":7,
			"componentType":5126,
			"count":169,
			"type":"VEC2"
		},
		{
			"bufferView":8,
			"componentType":5126,
			"count":169,
			"type":"VEC4"
		},
		{
			"bufferView":9,
			"componentType":5123,
			"count":756,
			"type":"SCALAR"
		},
		{
			"bufferView":10,
			"componentType":5126,
			"count":622,
			"max":[
				0.6932392120361328,
				0.6473997831344604,
				2.4017698764801025
			],
			"min":[
				-0.7472972869873047,
				-0.5092822909355164,
				-1.4465837478637695
			],
			"type":"VEC3"
		},
		{
			"bufferView":11,
			"componentType":5126,
			"count":622,
			"type":"VEC3"
		},
		{
			"bufferView":12,
			"componentType":5126,
			"count":622,
			"type":"VEC2"
		},
		{
			"bufferView":13,
			"componentType":5126,
			"count":622,
			"type":"VEC4"
		},
		{
			"bufferView":14,
			"componentType":5121,
			"count":622,
			"normalized":true,
			"type":"VEC4"
		},
		{
			"bufferView":15,
			"componentType":5126,
			"count":622,
			"type":"VEC3"
		},
		{
			"bufferView":16,
			"componentType":5126,
			"count":622,
			"type":"VEC3"
		},
		{
			"bufferView":17,
			"componentType":5123,
			"count":3000,
			"type":"SCALAR"
		},
		{
			"bufferView":18,
			"componentType":5126,
			"count":726,
			"max":[
				0.1650104522705078,
				0.6166648864746094,
				0.16300201416015625
			],
			"min":[
				-0.15256309509277344,
				-4.5180320739746094e-05,
				-0.15450143814086914
			],
			"type":"VEC3"
		},
		{
			"bufferView":19,
			"componentType":5126,
			"count":726,
			"type":"VEC3"
		},
		{
			"bufferView":20,
			"componentType":5126,
			"count":726,
			"type":"VEC2"
		},
		{
			"bufferView":21,
			"componentType":5126,
			"count":726,
			"type":"VEC4"
		},
		{
			"bufferView":22,
			"componentType":5123,
			"count":3375,
			"type":"SCALAR"
		},
		{
			"bufferView":23,
			"componentType":5126,
			"count":1468,
			"max":[
				0.1982574462890625,
				0.7392212152481079,
				0.1717529296875
			],
			"min":[
				-0.1710796356201172,
				-7.152557373046875e-07,
				-0.17205238342285156
			],
			"type":"VEC3"
		},
		{
			"bufferView":24,
			"componentType":5126,
			"count":1468,
			"type":"VEC3"
		},
		{
			"bufferView":25,
			"componentType":5126,
			"count":1468,
			"type":"VEC2"
		},
		{
			"bufferView":26,
			"componentType":5126,
			"count":1468,
			"type":"VEC4"
		},
		{
			"bufferView":27,
			"componentType":5123,
			"count":5622,
			"type":"SCALAR"
		},
		{
			"bufferView":28,
			"componentType":5126,
			"count":429,
			"max":[
				0.5124053955078125,
				0.7549538612365723,
				0.5126509666442871
			],
			"min":[
				-0.5129375457763672,
				-8.344650268554688e-07,
				-0.5126800537109375
			],
			"type":"VEC3"
		},
		{
			"bufferView":29,
			"componentType":5126,
			"count":429,
			"type":"VEC3"
		},
		{
			"bufferView":30,
			"componentType":5126,
			"count":429,
			"type":"VEC2"
		},
		{
			"bufferView":31,
			"componentType":5126,
			"count":429,
			"type":"VEC4"
		},
		{
			"bufferView":32,
			"componentType":5123,
			"count":1800,
			"type":"SCALAR"
		},
		{
			"bufferView":33,
			"componentType":5126,
			"count":372,
			"max":[
				0.40263593196868896,
				1.3474491834640503,
				0.4027239680290222
			],
			"min":[
				-0.40259984135627747,
				-6.442174935727962e-07,
				-0.4025062322616577
			],
			"type":"VEC3"
		},
		{
			"bufferView":34,
			"componentType":5126,
			"count":372,
			"type":"VEC3"
		},
		{
			"bufferView":35,
			"componentType":5126,
			"count":372,
			"type":"VEC2"
		},
		{
			"bufferView":36,
			"componentType":5126,
			"count":372,
			"type":"VEC4"
		},
		{
			"bufferView":37,
			"componentType":5123,
			"count":1650,
			"type":"SCALAR"
		},
		{
			"bufferView":38,
			"componentType":5126,
			"count":667,
			"max":[
				0.5111293792724609,
				0.9999520778656006,
				0.5341811180114746
			],
			"min":[
				-0.5104084014892578,
				-7.152557373046875e-07,
				-0.592132568359375
			],
			"type":"VEC3"
		},
		{
			"bufferView":39,
			"componentType":5126,
			"count":667,
			"type":"VEC3"
		},
		{
			"bufferView":40,
			"componentType":5126,
			"count":667,
			"type":"VEC2"
		},
		{
			"bufferView":41,
			"componentType":5126,
			"count":667,
			"type":"VEC4"
		},
		{
			"bufferView":42,
			"componentType":5123,
			"count":2742,
			"type":"SCALAR"
		},
		{
			"bufferView":43,
			"componentType":5126,
			"count":465,
			"max":[
				0.3800182342529297,
				0.4986753463745117,
				0.3393211364746094
			],
			"min":[
				-0.3800067901611328,
				-0.0006011724472045898,
				-0.34006834030151367
			],
			"type":"VEC3"
		},
		{
			"bufferView":44,
			"componentType":5126,
			"count":465,
			"type":"VEC3"
		},
		{
			"bufferView":45,
			"componentType":5126,
			"count":465,
			"type":"VEC2"
		},
		{
			"bufferView":46,
			"componentType":5126,
			"count":465,
			"type":"VEC4"
		},
		{
			"bufferView":47,
			"componentType":5123,
			"count":1926,
			"type":"SCALAR"
		},
		{
			"bufferView":48,
			"componentType":5126,
			"count":320,
			"max":[
				0.7875289916992188,
				0.13493728637695312,
				0.7877793312072754
			],
			"min":[
				-0.7880096435546875,
				-5.960464477539062e-07,
				-0.7877554893493652
			],
			"type":"VEC3"
		},
		{
			"bufferView":49,
			"componentType":5126,
			"count":320,
			"type":"VEC3"
		},
		{
			"bufferView":50,
			"componentType":5126,
			"count":320,
			"type":"VEC2"
		},
		{
			"bufferView":51,
			"componentType":5126,
			"count":320,
			"type":"VEC4"
		},
		{
			"bufferView":52,
			"componentType":5123,
			"count":1080,
			"type":"SCALAR"
		},
		{
			"bufferView":53,
			"componentType":5126,
			"count":397,
			"max":[
				0.2117176055908203,
				0.7859179973602295,
				0.3715939521789551
			],
			"min":[
				-0.5674972534179688,
				0.031088948249816895,
				-0.373746395111084
			],
			"type":"VEC3"
		},
		{
			"bufferView":54,
			"componentType":5126,
			"count":397,
			"type":"VEC3"
		},
		{
			"bufferView":55,
			"componentType":5126,
			"count":397,
			"type":"VEC2"
		},
		{
			"bufferView":56,
			"componentType":5126,
			"count":397,
			"type":"VEC4"
		},
		{
			"bufferView":57,
			"componentType":5123,
			"count":1722,
			"type":"SCALAR"
		},
		{
			"bufferView":58,
			"componentType":5126,
			"count":579,
			"max":[
				0.22324752807617188,
				0.9151368141174316,
				0.2641258239746094
			],
			"min":[
				-0.23172950744628906,
				-0.0006080865859985352,
				-0.23562049865722656
			],
			"type":"VEC3"
		},
		{
			"bufferView":59,
			"componentType":5126,
			"count":579,
			"type":"VEC3"
		},
		{
			"bufferView":60,
			"componentType":5126,
			"count":579,
			"type":"VEC2"
		},
		{
			"bufferView":61,
			"componentType":5126,
			"count":579,
			"type":"VEC4"
		},
		{
			"bufferView":62,
			"componentType":5123,
			"count":2214,
			"type":"SCALAR"
		},
		{
			"bufferView":63,
			"componentType":5126,
			"count":450,
			"max":[
				0.2348918914794922,
				0.8754184246063232,
				0.24703025817871094
			],
			"min":[
				-0.23496055603027344,
				-0.003527045249938965,
				-0.24700307846069336
			],
			"type":"VEC3"
		},
		{
			"bufferView":64,
			"componentType":5126,
			"count":450,
			"type":"VEC3"
		},
		{
			"bufferView":65,
			"componentType":5126,
			"count":450,
			"type":"VEC2"
		},
		{
			"bufferView":66,
			"componentType":5126,
			"count":450,
			"type":"VEC2"
		},
		{
			"bufferView":67,
			"componentType":5126,
			"count":450,
			"type":"VEC4"
		},
		{
			"bufferView":68,
			"componentType":5121,
			"count":450,
			"normalized":true,
			"type":"VEC4"
		},
		{
			"bufferView":69,
			"componentType":5126,
			"count":450,
			"type":"VEC3"
		},
		{
			"bufferView":70,
			"componentType":5126,
			"count":450,
			"type":"VEC3"
		},
		{
			"bufferView":71,
			"componentType":5123,
			"count":2070,
			"type":"SCALAR"
		},
		{
			"bufferView":72,
			"componentType":5126,
			"count":674,
			"max":[
				0.2398357391357422,
				1.0254206657409668,
				0.5199675559997559
			],
			"min":[
				-0.6502857208251953,
				-4.76837158203125e-07,
				-0.34053802490234375
			],
			"type":"VEC3"
		},
		{
			"bufferView":73,
			"componentType":5126,
			"count":674,
			"type":"VEC3"
		},
		{
			"bufferView":74,
			"componentType":5126,
			"count":674,
			"type":"VEC2"
		},
		{
			"bufferView":75,
			"componentType":5126,
			"count":674,
			"type":"VEC4"
		},
		{
			"bufferView":76,
			"componentType":5123,
			"count":2913,
			"type":"SCALAR"
		},
		{
			"bufferView":77,
			"componentType":5126,
			"count":1089,
			"max":[
				0.23598575592041016,
				0.5307066440582275,
				0.20480728149414062
			],
			"min":[
				-0.2921872138977051,
				-0.0005073398351669312,
				-0.2051563262939453
			],
			"type":"VEC3"
		},
		{
			"bufferView":78,
			"componentType":5126,
			"count":1089,
			"type":"VEC3"
		},
		{
			"bufferView":79,
			"componentType":5126,
			"count":1089,
			"type":"VEC2"
		},
		{
			"bufferView":80,
			"componentType":5126,
			"count":1089,
			"type":"VEC4"
		},
		{
			"bufferView":81,
			"componentType":5123,
			"count":4800,
			"type":"SCALAR"
		},
		{
			"bufferView":82,
			"componentType":5126,
			"count":550,
			"max":[
				0.4620323181152344,
				0.4612617492675781,
				0
			],
			"min":[
				-0.46203041076660156,
				-0.4612607955932617,
				-1.0791455507278442
			],
			"type":"VEC3"
		},
		{
			"bufferView":83,
			"componentType":5126,
			"count":550,
			"type":"VEC3"
		},
		{
			"bufferView":84,
			"componentType":5126,
			"count":550,
			"type":"VEC2"
		},
		{
			"bufferView":85,
			"componentType":5126,
			"count":550,
			"type":"VEC4"
		},
		{
			"bufferView":86,
			"componentType":5123,
			"count":2136,
			"type":"SCALAR"
		}
	],
	"bufferViews":[
		{
			"buffer":0,
			"byteLength":2208,
			"byteOffset":0,
			"target":34962
		},
		{
			"buffer":0,
			"byteLength":2208,
			"byteOffset":2208,
			"target":34962
		},
		{
			"buffer":0,
			"byteLength":1472,
			"byteOffset":4416,
			"target":34962
		},
		{
			"buffer":0,
			"byteLength":2944,
			"byteOffset":5888,
			"target":34962
		},
		{
			"buffer":0,
			"byteLength":1368,
			"byteOffset":8832,
			"target":34963
		},
		{
			"buffer":0,
			"byteLength":2028,
			"byteOffset":10200,
			"target":34962
		},
		{
			"buffer":0,
			"byteLength":2028,
			"byteOffset":12228,
			"target":34962
		},
		{
			"buffer":0,
			"byteLength":1352,
			"byteOffset":14256,
			"target":34962
		},
		{
			"buffer":0,
			"byteLength":2704,
			"byteOffset":15608,
			"target":34962
		},
		{
			"buffer":0,
			"byteLength":1512,
			"byteOffset":18312,
			"target":34963
		},
		{
			"buffer":0,
			"byteLength":7464,
			"byteOffset":19824,
			"target":34962
		},
		{
			"buffer":0,
			"byteLength":7464,
			"byteOffset":27288,
			"target":34962
		},
		{
			"buffer":0,
			"byteLength":4976,
			"byteOffset":34752,
			"target":34962
		},
		{
			"buffer":0,
			"byteLength":9952,
			"byteOffset":39728,
			"target":34962
		},
		{
			"buffer":0,
			"byteLength":2488,
			"byteOffset":49680,
			"target":34962
		},
		{
			"buffer":0,
			"byteLength":7464,
			"byteOffset":52168,
			"target":34962
		},
		{
			"buffer":0,
			"byteLength":7464,
			"byteOffset":59632,
			"target":34962
		},
		{
			"buffer":0,
			"byteLength":6000,
			"byteOffset":67096,
			"target":34963
		},
		{
			"buffer":0,
			"byteLength":8712,
			"byteOffset":73096,
			"target":34962
		},
		{
			"buffer":0,
			"byteLength":8712,
			"byteOffset":81808,
			"target":34962
		},
		{
			"buffer":0,
			"byteLength":5808,
			"byteOffset":90520,
			"target":34962
		},
		{
			"buffer":0,
			"byteLength":11616,
			"byteOffset":96328,
			"target":34962
		},
		{
			"buffer":0,
			"byteLength":6750,
			"byteOffset":107944,
			"target":34963
		},
		{
			"buffer":0,
			"byteLength":17616,
			"byteOffset":114696,
			"target":34962
		},
		{
			"buffer":0,
			"byteLength":17616,
			"byteOffset":132312,
			"target":34962
		},
		{
			"buffer":0,
			"byteLength":11744,
			"byteOffset":149928,
			"target":34962
		},
		{
			"buffer":0,
			"byteLength":23488,
			"byteOffset":161672,
			"target":34962
		},
		{
			"buffer":0,
			"byteLength":11244,
			"byteOffset":185160,
			"target":34963
		},
		{
			"buffer":0,
			"byteLength":5148,
			"byteOffset":196404,
			"target":34962
		},
		{
			"buffer":0,
			"byteLength":5148,
			"byteOffset":201552,
			"target":34962
		},
		{
			"buffer":0,
			"byteLength":3432,
			"byteOffset":206700,
			"target":34962
		},
		{
			"buffer":0,
			"byteLength":6864,
			"byteOffset":210132,
			"target":34962
		},
		{
			"buffer":0,
			"byteLength":3600,
			"byteOffset":216996,
			"target":34963
		},
		{
			"buffer":0,
			"byteLength":4464,
			"byteOffset":220596,
			"target":34962
		},
		{
			"buffer":0,
			"byteLength":4464,
			"byteOffset":225060,
			"target":34962
		},
		{
			"buffer":0,
			"byteLength":2976,
			"byteOffset":229524,
			"target":34962
		},
		{
			"buffer":0,
			"byteLength":5952,
			"byteOffset":232500,
			"target":34962
		},
		{
			"buffer":0,
			"byteLength":3300,
			"byteOffset":238452,
			"target":34963
		},
		{
			"buffer":0,
			"byteLength":8004,
			"byteOffset":241752,
			"target":34962
		},
		{
			"buffer":0,
			"byteLength":8004,
			"byteOffset":249756,
			"target":34962
		},
		{
			"buffer":0,
			"byteLength":5336,
			"byteOffset":257760,
			"target":34962
		},
		{
			"buffer":0,
			"byteLength":10672,
			"byteOffset":263096,
			"target":34962
		},
		{
			"buffer":0,
			"byteLength":5484,
			"byteOffset":273768,
			"target":34963
		},
		{
			"buffer":0,
			"byteLength":5580,
			"byteOffset":279252,
			"target":34962
		},
		{
			"buffer":0,
			"byteLength":5580,
			"byteOffset":284832,
			"target":34962
		},
		{
			"buffer":0,
			"byteLength":3720,
			"byteOffset":290412,
			"target":34962
		},
		{
			"buffer":0,
			"byteLength":7440,
			"byteOffset":294132,
			"target":34962
		},
		{
			"buffer":0,
			"byteLength":3852,
			"byteOffset":301572,
			"target":34963
		},
		{
			"buffer":0,
			"byteLength":3840,
			"byteOffset":305424,
			"target":34962
		},
		{
			"buffer":0,
			"byteLength":3840,
			"byteOffset":309264,
			"target":34962
		},
		{
			"buffer":0,
			"byteLength":2560,
			"byteOffset":313104,
			"target":34962
		},
		{
			"buffer":0,
			"byteLength":5120,
			"byteOffset":315664,
			"target":34962
		},
		{
			"buffer":0,
			"byteLength":2160,
			"byteOffset":320784,
			"target":34963
		},
		{
			"buffer":0,
			"byteLength":4764,
			"byteOffset":322944,
			"target":34962
		},
		{
			"buffer":0,
			"byteLength":4764,
			"byteOffset":327708,
			"target":34962
		},
		{
			"buffer":0,
			"byteLength":3176,
			"byteOffset":332472,
			"target":34962
		},
		{
			"buffer":0,
			"byteLength":6352,
			"byteOffset":335648,
			"target":34962
		},
		{
			"buffer":0,
			"byteLength":3444,
			"byteOffset":342000,
			"target":34963
		},
		{
			"buffer":0,
			"byteLength":6948,
			"byteOffset":345444,
			"target":34962
		},
		{
			"buffer":0,
			"byteLength":6948,
			"byteOffset":352392,
			"target":34962
		},
		{
			"buffer":0,
			"byteLength":4632,
			"byteOffset":359340,
			"target":34962
		},
		{
			"buffer":0,
			"byteLength":9264,
			"byteOffset":363972,
			"target":34962
		},
		{
			"buffer":0,
			"byteLength":4428,
			"byteOffset":373236,
			"target":34963
		},
		{
			"buffer":0,
			"byteLength":5400,
			"byteOffset":377664,
			"target":34962
		},
		{
			"buffer":0,
			"byteLength":5400,
			"byteOffset":383064,
			"target":34962
		},
		{
			"buffer":0,
			"byteLength":3600,
			"byteOffset":388464,
			"target":34962
		},
		{
			"buffer":0,
			"byteLength":3600,
			"byteOffset":392064,
			"target":34962
		},
		{
			"buffer":0,
			"byteLength":7200,
			"byteOffset":395664,
			"target":34962
		},
		{
			"buffer":0,
			"byteLength":1800,
			"byteOffset":402864,
			"target":34962
		},
		{
			"buffer":0,
			"byteLength":5400,
			"byteOffset":404664,
			"target":34962
		},
		{
			"buffer":0,
			"byteLength":5400,
			"byteOffset":410064,
			"target":34962
		},
		{
			"buffer":0,
			"byteLength":4140,
			"byteOffset":415464,
			"target":34963
		},
		{
			"buffer":0,
			"byteLength":8088,
			"byteOffset":419604,
			"target":34962
		},
		{
			"buffer":0,
			"byteLength":8088,
			"byteOffset":427692,
			"target":34962
		},
		{
			"buffer":0,
			"byteLength":5392,
			"byteOffset":435780,
			"target":34962
		},
		{
			"buffer":0,
			"byteLength":10784,
			"byteOffset":441172,
			"target":34962
		},
		{
			"buffer":0,
			"byteLength":5826,
			"byteOffset":451956,
			"target":34963
		},
		{
			"buffer":0,
			"byteLength":13068,
			"byteOffset":457784,
			"target":34962
		},
		{
			"buffer":0,
			"byteLength":13068,
			"byteOffset":470852,
			"target":34962
		},
		{
			"buffer":0,
			"byteLength":8712,
			"byteOffset":483920,
			"target":34962
		},
		{
			"buffer":0,
			"byteLength":17424,
			"byteOffset":492632,
			"target":34962
		},
		{
			"buffer":0,
			"byteLength":9600,
			"byteOffset":510056,
			"target":34963
		},
		{
			"buffer":0,
			"byteLength":6600,
			"byteOffset":519656,
			"target":34962
		},
		{
			"buffer":0,
			"byteLength":6600,
			"byteOffset":526256,
			"target":34962
		},
		{
			"buffer":0,
			"byteLength":4400,
			"byteOffset":532856,
			"target":34962
		},
		{
			"buffer":0,
			"byteLength":8800,
			"byteOffset":537256,
			"target":34962
		},
		{
			"buffer":0,
			"byteLength":4272,
			"byteOffset":546056,
			"target":34963
		}
	],
	"samplers":[
		{
			"magFilter":9729,
			"minFilter":9987
		}
	],
	"buffers":[
		{
			"byteLength":550328,
			"uri":"Tributs_color_variation_lvl2.bin"
		}
	]
}
