{
	"asset":{
		"generator":"Khronos glTF Blender I/O v4.2.69",
		"version":"2.0"
	},
	"scene":0,
	"scenes":[
		{
			"name":"Scene",
			"nodes":[
				0,
				1,
				2,
				3,
				4,
				5,
				6,
				7,
				8,
				9,
				10,
				11,
				12
			]
		}
	],
	"nodes":[
		{
			"mesh":0,
			"name":"EN_Temple_Island_Start"
		},
		{
			"mesh":1,
			"name":"EN_Temple_Island_Start_Left"
		},
		{
			"mesh":2,
			"name":"EN_Temple_Island_Start_Left.001"
		},
		{
			"mesh":3,
			"name":"EN_Temple_Island_StartBack"
		},
		{
			"mesh":4,
			"name":"EN_Temple_Start_Ramp"
		},
		{
			"mesh":5,
			"name":"EN_TutorialIsland01_End"
		},
		{
			"mesh":6,
			"name":"EN_TutorialIsland02"
		},
		{
			"mesh":7,
			"name":"EN_TutorialIsland02_BottomRight"
		},
		{
			"mesh":8,
			"name":"EN_TutorialIsland02_v01"
		},
		{
			"mesh":9,
			"name":"EN_TutorialIsland03"
		},
		{
			"mesh":10,
			"name":"EN_TutorialIsland04.001"
		},
		{
			"mesh":11,
			"name":"Temple_BigWall"
		},
		{
			"mesh":12,
			"name":"Temple_Wall_Exit"
		}
	],
	"materials":[
		{
			"doubleSided":true,
			"name":"Tutorial_Islands",
			"normalTexture":{
				"index":0,
				"scale":0
			},
			"pbrMetallicRoughness":{
				"baseColorTexture":{
					"index":1
				},
				"metallicRoughnessTexture":{
					"index":2
				}
			}
		}
	],
	"meshes":[
		{
			"name":"Plane.005",
			"primitives":[
				{
					"attributes":{
						"POSITION":0,
						"NORMAL":1,
						"TEXCOORD_0":2,
						"TANGENT":3
					},
					"indices":4,
					"material":0
				}
			]
		},
		{
			"name":"Plane.001",
			"primitives":[
				{
					"attributes":{
						"POSITION":5,
						"NORMAL":6,
						"TEXCOORD_0":7,
						"TANGENT":8
					},
					"indices":9,
					"material":0
				}
			]
		},
		{
			"name":"Plane.002",
			"primitives":[
				{
					"attributes":{
						"POSITION":10,
						"NORMAL":11,
						"TEXCOORD_0":12,
						"TANGENT":13
					},
					"indices":14,
					"material":0
				}
			]
		},
		{
			"name":"Mesh.213",
			"primitives":[
				{
					"attributes":{
						"POSITION":15,
						"NORMAL":16,
						"TEXCOORD_0":17,
						"TANGENT":18
					},
					"indices":19,
					"material":0
				}
			]
		},
		{
			"name":"Mesh.212",
			"primitives":[
				{
					"attributes":{
						"POSITION":20,
						"NORMAL":21,
						"TEXCOORD_0":22,
						"TANGENT":23
					},
					"indices":24,
					"material":0
				}
			]
		},
		{
			"name":"Mesh.194",
			"primitives":[
				{
					"attributes":{
						"POSITION":25,
						"NORMAL":26,
						"TEXCOORD_0":27,
						"TANGENT":28
					},
					"indices":29,
					"material":0
				}
			]
		},
		{
			"name":"Mesh.193",
			"primitives":[
				{
					"attributes":{
						"POSITION":30,
						"NORMAL":31,
						"TEXCOORD_0":32,
						"TANGENT":33
					},
					"indices":34,
					"material":0
				}
			]
		},
		{
			"name":"Mesh.047",
			"primitives":[
				{
					"attributes":{
						"POSITION":35,
						"NORMAL":36,
						"TEXCOORD_0":37,
						"TANGENT":38
					},
					"indices":29,
					"material":0
				}
			]
		},
		{
			"name":"Mesh.430",
			"primitives":[
				{
					"attributes":{
						"POSITION":39,
						"NORMAL":40,
						"TEXCOORD_0":41,
						"TANGENT":42
					},
					"indices":43,
					"material":0
				}
			]
		},
		{
			"name":"Mesh.039",
			"primitives":[
				{
					"attributes":{
						"POSITION":44,
						"NORMAL":45,
						"TEXCOORD_0":46,
						"TANGENT":47
					},
					"indices":29,
					"material":0
				}
			]
		},
		{
			"name":"Mesh.214",
			"primitives":[
				{
					"attributes":{
						"POSITION":48,
						"NORMAL":49,
						"TEXCOORD_0":50,
						"TANGENT":51
					},
					"indices":29,
					"material":0
				}
			]
		},
		{
			"name":"Plane",
			"primitives":[
				{
					"attributes":{
						"POSITION":52,
						"NORMAL":53,
						"TEXCOORD_0":54,
						"TANGENT":55
					},
					"indices":56,
					"material":0
				}
			]
		},
		{
			"name":"Cylinder",
			"primitives":[
				{
					"attributes":{
						"POSITION":57,
						"NORMAL":58,
						"TEXCOORD_0":59,
						"TANGENT":60
					},
					"indices":61,
					"material":0
				}
			]
		}
	],
	"textures":[
		{
			"sampler":0,
			"source":0
		},
		{
			"sampler":0,
			"source":1
		},
		{
			"sampler":0,
			"source":2
		}
	],
	"images":[
		{
			"mimeType":"image/png",
			"name":"islands_Tutorial_Islands_Normal",
			"uri":"islands_Tutorial_Islands_Normal.png"
		},
		{
			"mimeType":"image/png",
			"name":"Painted_BaseColor",
			"uri":"Painted_BaseColor.png"
		},
		{
			"mimeType":"image/png",
			"name":"tutorial_islands_Tutorial_Islands_OcclusionRoughnessMetallic",
			"uri":"tutorial_islands_Tutorial_Islands_OcclusionRoughnessMetallic.png"
		}
	],
	"accessors":[
		{
			"bufferView":0,
			"componentType":5126,
			"count":14,
			"max":[
				5.87876033782959,
				0,
				9.197539329528809
			],
			"min":[
				-11.155839920043945,
				0,
				-10.398633003234863
			],
			"type":"VEC3"
		},
		{
			"bufferView":1,
			"componentType":5126,
			"count":14,
			"type":"VEC3"
		},
		{
			"bufferView":2,
			"componentType":5126,
			"count":14,
			"type":"VEC2"
		},
		{
			"bufferView":3,
			"componentType":5126,
			"count":14,
			"type":"VEC4"
		},
		{
			"bufferView":4,
			"componentType":5123,
			"count":36,
			"type":"SCALAR"
		},
		{
			"bufferView":5,
			"componentType":5126,
			"count":7,
			"max":[
				3.932523488998413,
				0,
				4.578967094421387
			],
			"min":[
				-4.461302757263184,
				0,
				-3.9466848373413086
			],
			"type":"VEC3"
		},
		{
			"bufferView":6,
			"componentType":5126,
			"count":7,
			"type":"VEC3"
		},
		{
			"bufferView":7,
			"componentType":5126,
			"count":7,
			"type":"VEC2"
		},
		{
			"bufferView":8,
			"componentType":5126,
			"count":7,
			"type":"VEC4"
		},
		{
			"bufferView":9,
			"componentType":5123,
			"count":15,
			"type":"SCALAR"
		},
		{
			"bufferView":10,
			"componentType":5126,
			"count":7,
			"max":[
				4.540857315063477,
				0,
				4.4964985847473145
			],
			"min":[
				-4.041148662567139,
				0,
				-3.839684247970581
			],
			"type":"VEC3"
		},
		{
			"bufferView":11,
			"componentType":5126,
			"count":7,
			"type":"VEC3"
		},
		{
			"bufferView":12,
			"componentType":5126,
			"count":7,
			"type":"VEC2"
		},
		{
			"bufferView":13,
			"componentType":5126,
			"count":7,
			"type":"VEC4"
		},
		{
			"bufferView":14,
			"componentType":5123,
			"count":15,
			"type":"SCALAR"
		},
		{
			"bufferView":15,
			"componentType":5126,
			"count":38,
			"max":[
				20.48550033569336,
				6.655593551840866e-06,
				18.662641525268555
			],
			"min":[
				-20.485488891601562,
				3.99335613110452e-06,
				-16.308279037475586
			],
			"type":"VEC3"
		},
		{
			"bufferView":16,
			"componentType":5126,
			"count":38,
			"type":"VEC3"
		},
		{
			"bufferView":17,
			"componentType":5126,
			"count":38,
			"type":"VEC2"
		},
		{
			"bufferView":18,
			"componentType":5126,
			"count":38,
			"type":"VEC4"
		},
		{
			"bufferView":19,
			"componentType":5123,
			"count":108,
			"type":"SCALAR"
		},
		{
			"bufferView":20,
			"componentType":5126,
			"count":18,
			"max":[
				1.5375709533691406,
				1.0133647918701172,
				2.9985544681549072
			],
			"min":[
				-1.537571907043457,
				-1.1800320148468018,
				-6.068041801452637
			],
			"type":"VEC3"
		},
		{
			"bufferView":21,
			"componentType":5126,
			"count":18,
			"type":"VEC3"
		},
		{
			"bufferView":22,
			"componentType":5126,
			"count":18,
			"type":"VEC2"
		},
		{
			"bufferView":23,
			"componentType":5126,
			"count":18,
			"type":"VEC4"
		},
		{
			"bufferView":24,
			"componentType":5123,
			"count":36,
			"type":"SCALAR"
		},
		{
			"bufferView":25,
			"componentType":5126,
			"count":4,
			"max":[
				2.3639001846313477,
				1.0829061238837312e-06,
				3.5787277221679688
			],
			"min":[
				-2.3638925552368164,
				-1.3880820688427775e-06,
				-3.5787270069122314
			],
			"type":"VEC3"
		},
		{
			"bufferView":26,
			"componentType":5126,
			"count":4,
			"type":"VEC3"
		},
		{
			"bufferView":27,
			"componentType":5126,
			"count":4,
			"type":"VEC2"
		},
		{
			"bufferView":28,
			"componentType":5126,
			"count":4,
			"type":"VEC4"
		},
		{
			"bufferView":29,
			"componentType":5123,
			"count":6,
			"type":"SCALAR"
		},
		{
			"bufferView":30,
			"componentType":5126,
			"count":19,
			"max":[
				15.999041557312012,
				-1.512215495109558,
				21.155731201171875
			],
			"min":[
				-13.095108985900879,
				-1.573635220527649,
				-5.4235358238220215
			],
			"type":"VEC3"
		},
		{
			"bufferView":31,
			"componentType":5126,
			"count":19,
			"type":"VEC3"
		},
		{
			"bufferView":32,
			"componentType":5126,
			"count":19,
			"type":"VEC2"
		},
		{
			"bufferView":33,
			"componentType":5126,
			"count":19,
			"type":"VEC4"
		},
		{
			"bufferView":34,
			"componentType":5123,
			"count":60,
			"type":"SCALAR"
		},
		{
			"bufferView":35,
			"componentType":5126,
			"count":4,
			"max":[
				2.7373440265655518,
				1.069227892003255e-06,
				3.529431104660034
			],
			"min":[
				-2.7373440265655518,
				-1.0692280056900927e-06,
				-3.529430866241455
			],
			"type":"VEC3"
		},
		{
			"bufferView":36,
			"componentType":5126,
			"count":4,
			"type":"VEC3"
		},
		{
			"bufferView":37,
			"componentType":5126,
			"count":4,
			"type":"VEC2"
		},
		{
			"bufferView":38,
			"componentType":5126,
			"count":4,
			"type":"VEC4"
		},
		{
			"bufferView":39,
			"componentType":5126,
			"count":18,
			"max":[
				-0.7794304490089417,
				0.7371392250061035,
				3.507753372192383
			],
			"min":[
				-17.33143424987793,
				0.7369096279144287,
				-11.483128547668457
			],
			"type":"VEC3"
		},
		{
			"bufferView":40,
			"componentType":5126,
			"count":18,
			"type":"VEC3"
		},
		{
			"bufferView":41,
			"componentType":5126,
			"count":18,
			"type":"VEC2"
		},
		{
			"bufferView":42,
			"componentType":5126,
			"count":18,
			"type":"VEC4"
		},
		{
			"bufferView":43,
			"componentType":5123,
			"count":36,
			"type":"SCALAR"
		},
		{
			"bufferView":44,
			"componentType":5126,
			"count":4,
			"max":[
				4.073696136474609,
				1.2355591252344311e-06,
				4.0784759521484375
			],
			"min":[
				-4.073696136474609,
				-1.2355591252344311e-06,
				-4.0784759521484375
			],
			"type":"VEC3"
		},
		{
			"bufferView":45,
			"componentType":5126,
			"count":4,
			"type":"VEC3"
		},
		{
			"bufferView":46,
			"componentType":5126,
			"count":4,
			"type":"VEC2"
		},
		{
			"bufferView":47,
			"componentType":5126,
			"count":4,
			"type":"VEC4"
		},
		{
			"bufferView":48,
			"componentType":5126,
			"count":4,
			"max":[
				8.75830078125,
				9.5367431640625e-07,
				4.0784759521484375
			],
			"min":[
				-8.758296966552734,
				-1.430511474609375e-06,
				-4.0784759521484375
			],
			"type":"VEC3"
		},
		{
			"bufferView":49,
			"componentType":5126,
			"count":4,
			"type":"VEC3"
		},
		{
			"bufferView":50,
			"componentType":5126,
			"count":4,
			"type":"VEC2"
		},
		{
			"bufferView":51,
			"componentType":5126,
			"count":4,
			"type":"VEC4"
		},
		{
			"bufferView":52,
			"componentType":5126,
			"count":4,
			"max":[
				16,
				19,
				3.814697265625e-06
			],
			"min":[
				-16,
				-19,
				-3.814697265625e-06
			],
			"type":"VEC3"
		},
		{
			"bufferView":53,
			"componentType":5126,
			"count":4,
			"type":"VEC3"
		},
		{
			"bufferView":54,
			"componentType":5126,
			"count":4,
			"type":"VEC2"
		},
		{
			"bufferView":55,
			"componentType":5126,
			"count":4,
			"type":"VEC4"
		},
		{
			"bufferView":56,
			"componentType":5123,
			"count":6,
			"type":"SCALAR"
		},
		{
			"bufferView":57,
			"componentType":5126,
			"count":28,
			"max":[
				8.15732192993164,
				10.390422821044922,
				4.977735996246338
			],
			"min":[
				-7.102471351623535,
				-10.390423774719238,
				-2.352203845977783
			],
			"type":"VEC3"
		},
		{
			"bufferView":58,
			"componentType":5126,
			"count":28,
			"type":"VEC3"
		},
		{
			"bufferView":59,
			"componentType":5126,
			"count":28,
			"type":"VEC2"
		},
		{
			"bufferView":60,
			"componentType":5126,
			"count":28,
			"type":"VEC4"
		},
		{
			"bufferView":61,
			"componentType":5123,
			"count":42,
			"type":"SCALAR"
		}
	],
	"bufferViews":[
		{
			"buffer":0,
			"byteLength":168,
			"byteOffset":0,
			"target":34962
		},
		{
			"buffer":0,
			"byteLength":168,
			"byteOffset":168,
			"target":34962
		},
		{
			"buffer":0,
			"byteLength":112,
			"byteOffset":336,
			"target":34962
		},
		{
			"buffer":0,
			"byteLength":224,
			"byteOffset":448,
			"target":34962
		},
		{
			"buffer":0,
			"byteLength":72,
			"byteOffset":672,
			"target":34963
		},
		{
			"buffer":0,
			"byteLength":84,
			"byteOffset":744,
			"target":34962
		},
		{
			"buffer":0,
			"byteLength":84,
			"byteOffset":828,
			"target":34962
		},
		{
			"buffer":0,
			"byteLength":56,
			"byteOffset":912,
			"target":34962
		},
		{
			"buffer":0,
			"byteLength":112,
			"byteOffset":968,
			"target":34962
		},
		{
			"buffer":0,
			"byteLength":30,
			"byteOffset":1080,
			"target":34963
		},
		{
			"buffer":0,
			"byteLength":84,
			"byteOffset":1112,
			"target":34962
		},
		{
			"buffer":0,
			"byteLength":84,
			"byteOffset":1196,
			"target":34962
		},
		{
			"buffer":0,
			"byteLength":56,
			"byteOffset":1280,
			"target":34962
		},
		{
			"buffer":0,
			"byteLength":112,
			"byteOffset":1336,
			"target":34962
		},
		{
			"buffer":0,
			"byteLength":30,
			"byteOffset":1448,
			"target":34963
		},
		{
			"buffer":0,
			"byteLength":456,
			"byteOffset":1480,
			"target":34962
		},
		{
			"buffer":0,
			"byteLength":456,
			"byteOffset":1936,
			"target":34962
		},
		{
			"buffer":0,
			"byteLength":304,
			"byteOffset":2392,
			"target":34962
		},
		{
			"buffer":0,
			"byteLength":608,
			"byteOffset":2696,
			"target":34962
		},
		{
			"buffer":0,
			"byteLength":216,
			"byteOffset":3304,
			"target":34963
		},
		{
			"buffer":0,
			"byteLength":216,
			"byteOffset":3520,
			"target":34962
		},
		{
			"buffer":0,
			"byteLength":216,
			"byteOffset":3736,
			"target":34962
		},
		{
			"buffer":0,
			"byteLength":144,
			"byteOffset":3952,
			"target":34962
		},
		{
			"buffer":0,
			"byteLength":288,
			"byteOffset":4096,
			"target":34962
		},
		{
			"buffer":0,
			"byteLength":72,
			"byteOffset":4384,
			"target":34963
		},
		{
			"buffer":0,
			"byteLength":48,
			"byteOffset":4456,
			"target":34962
		},
		{
			"buffer":0,
			"byteLength":48,
			"byteOffset":4504,
			"target":34962
		},
		{
			"buffer":0,
			"byteLength":32,
			"byteOffset":4552,
			"target":34962
		},
		{
			"buffer":0,
			"byteLength":64,
			"byteOffset":4584,
			"target":34962
		},
		{
			"buffer":0,
			"byteLength":12,
			"byteOffset":4648,
			"target":34963
		},
		{
			"buffer":0,
			"byteLength":228,
			"byteOffset":4660,
			"target":34962
		},
		{
			"buffer":0,
			"byteLength":228,
			"byteOffset":4888,
			"target":34962
		},
		{
			"buffer":0,
			"byteLength":152,
			"byteOffset":5116,
			"target":34962
		},
		{
			"buffer":0,
			"byteLength":304,
			"byteOffset":5268,
			"target":34962
		},
		{
			"buffer":0,
			"byteLength":120,
			"byteOffset":5572,
			"target":34963
		},
		{
			"buffer":0,
			"byteLength":48,
			"byteOffset":5692,
			"target":34962
		},
		{
			"buffer":0,
			"byteLength":48,
			"byteOffset":5740,
			"target":34962
		},
		{
			"buffer":0,
			"byteLength":32,
			"byteOffset":5788,
			"target":34962
		},
		{
			"buffer":0,
			"byteLength":64,
			"byteOffset":5820,
			"target":34962
		},
		{
			"buffer":0,
			"byteLength":216,
			"byteOffset":5884,
			"target":34962
		},
		{
			"buffer":0,
			"byteLength":216,
			"byteOffset":6100,
			"target":34962
		},
		{
			"buffer":0,
			"byteLength":144,
			"byteOffset":6316,
			"target":34962
		},
		{
			"buffer":0,
			"byteLength":288,
			"byteOffset":6460,
			"target":34962
		},
		{
			"buffer":0,
			"byteLength":72,
			"byteOffset":6748,
			"target":34963
		},
		{
			"buffer":0,
			"byteLength":48,
			"byteOffset":6820,
			"target":34962
		},
		{
			"buffer":0,
			"byteLength":48,
			"byteOffset":6868,
			"target":34962
		},
		{
			"buffer":0,
			"byteLength":32,
			"byteOffset":6916,
			"target":34962
		},
		{
			"buffer":0,
			"byteLength":64,
			"byteOffset":6948,
			"target":34962
		},
		{
			"buffer":0,
			"byteLength":48,
			"byteOffset":7012,
			"target":34962
		},
		{
			"buffer":0,
			"byteLength":48,
			"byteOffset":7060,
			"target":34962
		},
		{
			"buffer":0,
			"byteLength":32,
			"byteOffset":7108,
			"target":34962
		},
		{
			"buffer":0,
			"byteLength":64,
			"byteOffset":7140,
			"target":34962
		},
		{
			"buffer":0,
			"byteLength":48,
			"byteOffset":7204,
			"target":34962
		},
		{
			"buffer":0,
			"byteLength":48,
			"byteOffset":7252,
			"target":34962
		},
		{
			"buffer":0,
			"byteLength":32,
			"byteOffset":7300,
			"target":34962
		},
		{
			"buffer":0,
			"byteLength":64,
			"byteOffset":7332,
			"target":34962
		},
		{
			"buffer":0,
			"byteLength":12,
			"byteOffset":7396,
			"target":34963
		},
		{
			"buffer":0,
			"byteLength":336,
			"byteOffset":7408,
			"target":34962
		},
		{
			"buffer":0,
			"byteLength":336,
			"byteOffset":7744,
			"target":34962
		},
		{
			"buffer":0,
			"byteLength":224,
			"byteOffset":8080,
			"target":34962
		},
		{
			"buffer":0,
			"byteLength":448,
			"byteOffset":8304,
			"target":34962
		},
		{
			"buffer":0,
			"byteLength":84,
			"byteOffset":8752,
			"target":34963
		}
	],
	"samplers":[
		{
			"magFilter":9729,
			"minFilter":9987
		}
	],
	"buffers":[
		{
			"byteLength":8836,
			"uri":"tut.bin"
		}
	]
}
