{
	"asset":{
		"generator":"Khronos glTF Blender I/O v4.2.69",
		"version":"2.0"
	},
	"scene":0,
	"scenes":[
		{
			"name":"Scene",
			"nodes":[
				0,
				1,
				2,
				3,
				4,
				5,
				6,
				7,
				8,
				9,
				10,
				11,
				12,
				13,
				14,
				15
			]
		}
	],
	"nodes":[
		{
			"mesh":0,
			"name":"EN_TutorialIsland03"
		},
		{
			"mesh":1,
			"name":"EN_TutorialIsland02_BottomRight"
		},
		{
			"mesh":2,
			"name":"EN_TutorialIsland02"
		},
		{
			"mesh":3,
			"name":"EN_TutorialIsland01_End"
		},
		{
			"mesh":4,
			"name":"EN_Temple_Water"
		},
		{
			"mesh":5,
			"name":"EN_Temple_Start_Ramp"
		},
		{
			"mesh":6,
			"name":"EN_Temple_Island_StartBack"
		},
		{
			"mesh":7,
			"name":"EN_TutorialIsland04.001"
		},
		{
			"mesh":8,
			"name":"EN_Temple_Island_Start"
		},
		{
			"mesh":9,
			"name":"EN_Temple_Island_Start_Left"
		},
		{
			"mesh":10,
			"name":"EN_Temple_Island_Start_Left.001"
		},
		{
			"mesh":11,
			"name":"EN_Island_Side_4"
		},
		{
			"mesh":12,
			"name":"EN_Island_Side_3.001"
		},
		{
			"mesh":13,
			"name":"EN_Island_Side_1_2"
		},
		{
			"mesh":14,
			"name":"EN_Island_Side_1_1"
		},
		{
			"mesh":15,
			"name":"EN_Island_Side_2"
		}
	],
	"meshes":[
		{
			"name":"Mesh.824",
			"primitives":[
				{
					"attributes":{
						"POSITION":0,
						"NORMAL":1,
						"TEXCOORD_0":2
					},
					"indices":3
				}
			]
		},
		{
			"name":"Mesh.822",
			"primitives":[
				{
					"attributes":{
						"POSITION":4,
						"NORMAL":5,
						"TEXCOORD_0":6
					},
					"indices":3
				}
			]
		},
		{
			"name":"Mesh.823",
			"primitives":[
				{
					"attributes":{
						"POSITION":7,
						"NORMAL":8,
						"TEXCOORD_0":9
					},
					"indices":10
				}
			]
		},
		{
			"name":"Mesh.820",
			"primitives":[
				{
					"attributes":{
						"POSITION":11,
						"NORMAL":12,
						"TEXCOORD_0":13
					},
					"indices":3
				}
			]
		},
		{
			"name":"Mesh.878",
			"primitives":[
				{
					"attributes":{
						"POSITION":14,
						"NORMAL":15,
						"TEXCOORD_0":16
					},
					"indices":17
				}
			]
		},
		{
			"name":"Mesh.879",
			"primitives":[
				{
					"attributes":{
						"POSITION":18,
						"NORMAL":19,
						"TEXCOORD_0":20
					},
					"indices":21
				}
			]
		},
		{
			"name":"Mesh.005",
			"primitives":[
				{
					"attributes":{
						"POSITION":22,
						"NORMAL":23,
						"TEXCOORD_0":24
					},
					"indices":25
				}
			]
		},
		{
			"name":"Mesh.008",
			"primitives":[
				{
					"attributes":{
						"POSITION":26,
						"NORMAL":27,
						"TEXCOORD_0":28
					},
					"indices":3
				}
			]
		},
		{
			"name":"Plane.005",
			"primitives":[
				{
					"attributes":{
						"POSITION":29,
						"NORMAL":30,
						"TEXCOORD_0":31
					},
					"indices":32
				}
			]
		},
		{
			"name":"Plane.009",
			"primitives":[
				{
					"attributes":{
						"POSITION":33,
						"NORMAL":34,
						"TEXCOORD_0":35
					},
					"indices":36
				}
			]
		},
		{
			"name":"Plane.011",
			"primitives":[
				{
					"attributes":{
						"POSITION":37,
						"NORMAL":38,
						"TEXCOORD_0":39
					},
					"indices":36
				}
			]
		},
		{
			"name":"Plane",
			"primitives":[
				{
					"attributes":{
						"POSITION":40,
						"NORMAL":41,
						"TEXCOORD_0":42
					},
					"indices":43
				}
			]
		},
		{
			"name":"Plane.001",
			"primitives":[
				{
					"attributes":{
						"POSITION":44,
						"NORMAL":45,
						"TEXCOORD_0":46
					},
					"indices":3
				}
			]
		},
		{
			"name":"Plane.002",
			"primitives":[
				{
					"attributes":{
						"POSITION":47,
						"NORMAL":48,
						"TEXCOORD_0":49
					},
					"indices":3
				}
			]
		},
		{
			"name":"Plane.003",
			"primitives":[
				{
					"attributes":{
						"POSITION":50,
						"NORMAL":51,
						"TEXCOORD_0":52
					},
					"indices":3
				}
			]
		},
		{
			"name":"Plane.004",
			"primitives":[
				{
					"attributes":{
						"POSITION":53,
						"NORMAL":54,
						"TEXCOORD_0":55
					},
					"indices":56
				}
			]
		}
	],
	"accessors":[
		{
			"bufferView":0,
			"componentType":5126,
			"count":4,
			"max":[
				4.073696136474609,
				1.2355591252344311e-06,
				4.0784759521484375
			],
			"min":[
				-4.073696136474609,
				-1.2355591252344311e-06,
				-4.0784759521484375
			],
			"type":"VEC3"
		},
		{
			"bufferView":1,
			"componentType":5126,
			"count":4,
			"type":"VEC3"
		},
		{
			"bufferView":2,
			"componentType":5126,
			"count":4,
			"type":"VEC2"
		},
		{
			"bufferView":3,
			"componentType":5123,
			"count":6,
			"type":"SCALAR"
		},
		{
			"bufferView":4,
			"componentType":5126,
			"count":4,
			"max":[
				2.7373440265655518,
				1.069227892003255e-06,
				3.529431104660034
			],
			"min":[
				-2.7373440265655518,
				-1.0692280056900927e-06,
				-3.529430866241455
			],
			"type":"VEC3"
		},
		{
			"bufferView":5,
			"componentType":5126,
			"count":4,
			"type":"VEC3"
		},
		{
			"bufferView":6,
			"componentType":5126,
			"count":4,
			"type":"VEC2"
		},
		{
			"bufferView":7,
			"componentType":5126,
			"count":63,
			"max":[
				31.19025993347168,
				1.8858712911605835,
				21.155731201171875
			],
			"min":[
				-17.33143424987793,
				-1.573635220527649,
				-11.483128547668457
			],
			"type":"VEC3"
		},
		{
			"bufferView":8,
			"componentType":5126,
			"count":63,
			"type":"VEC3"
		},
		{
			"bufferView":9,
			"componentType":5126,
			"count":63,
			"type":"VEC2"
		},
		{
			"bufferView":10,
			"componentType":5123,
			"count":126,
			"type":"SCALAR"
		},
		{
			"bufferView":11,
			"componentType":5126,
			"count":4,
			"max":[
				2.3639001846313477,
				1.0829061238837312e-06,
				3.5787277221679688
			],
			"min":[
				-2.3638925552368164,
				-1.3880820688427775e-06,
				-3.5787270069122314
			],
			"type":"VEC3"
		},
		{
			"bufferView":12,
			"componentType":5126,
			"count":4,
			"type":"VEC3"
		},
		{
			"bufferView":13,
			"componentType":5126,
			"count":4,
			"type":"VEC2"
		},
		{
			"bufferView":14,
			"componentType":5126,
			"count":25,
			"max":[
				14.676748275756836,
				2.86102294921875e-06,
				14.676746368408203
			],
			"min":[
				-14.676742553710938,
				0,
				-14.676742553710938
			],
			"type":"VEC3"
		},
		{
			"bufferView":15,
			"componentType":5126,
			"count":25,
			"type":"VEC3"
		},
		{
			"bufferView":16,
			"componentType":5126,
			"count":25,
			"type":"VEC2"
		},
		{
			"bufferView":17,
			"componentType":5123,
			"count":72,
			"type":"SCALAR"
		},
		{
			"bufferView":18,
			"componentType":5126,
			"count":18,
			"max":[
				1.5375709533691406,
				1.0133647918701172,
				2.9985544681549072
			],
			"min":[
				-1.537571907043457,
				-1.1800320148468018,
				-6.068041801452637
			],
			"type":"VEC3"
		},
		{
			"bufferView":19,
			"componentType":5126,
			"count":18,
			"type":"VEC3"
		},
		{
			"bufferView":20,
			"componentType":5126,
			"count":18,
			"type":"VEC2"
		},
		{
			"bufferView":21,
			"componentType":5123,
			"count":36,
			"type":"SCALAR"
		},
		{
			"bufferView":22,
			"componentType":5126,
			"count":38,
			"max":[
				20.48550033569336,
				6.655593551840866e-06,
				18.662641525268555
			],
			"min":[
				-20.485488891601562,
				3.99335613110452e-06,
				-16.308279037475586
			],
			"type":"VEC3"
		},
		{
			"bufferView":23,
			"componentType":5126,
			"count":38,
			"type":"VEC3"
		},
		{
			"bufferView":24,
			"componentType":5126,
			"count":38,
			"type":"VEC2"
		},
		{
			"bufferView":25,
			"componentType":5123,
			"count":108,
			"type":"SCALAR"
		},
		{
			"bufferView":26,
			"componentType":5126,
			"count":4,
			"max":[
				8.75830078125,
				9.5367431640625e-07,
				4.0784759521484375
			],
			"min":[
				-8.758296966552734,
				-1.430511474609375e-06,
				-4.0784759521484375
			],
			"type":"VEC3"
		},
		{
			"bufferView":27,
			"componentType":5126,
			"count":4,
			"type":"VEC3"
		},
		{
			"bufferView":28,
			"componentType":5126,
			"count":4,
			"type":"VEC2"
		},
		{
			"bufferView":29,
			"componentType":5126,
			"count":14,
			"max":[
				21.429367065429688,
				0,
				9.197539329528809
			],
			"min":[
				-11.155839920043945,
				0,
				-10.398633003234863
			],
			"type":"VEC3"
		},
		{
			"bufferView":30,
			"componentType":5126,
			"count":14,
			"type":"VEC3"
		},
		{
			"bufferView":31,
			"componentType":5126,
			"count":14,
			"type":"VEC2"
		},
		{
			"bufferView":32,
			"componentType":5123,
			"count":36,
			"type":"SCALAR"
		},
		{
			"bufferView":33,
			"componentType":5126,
			"count":7,
			"max":[
				3.932523488998413,
				0,
				4.578967094421387
			],
			"min":[
				-4.461302757263184,
				0,
				-3.9466848373413086
			],
			"type":"VEC3"
		},
		{
			"bufferView":34,
			"componentType":5126,
			"count":7,
			"type":"VEC3"
		},
		{
			"bufferView":35,
			"componentType":5126,
			"count":7,
			"type":"VEC2"
		},
		{
			"bufferView":36,
			"componentType":5123,
			"count":15,
			"type":"SCALAR"
		},
		{
			"bufferView":37,
			"componentType":5126,
			"count":7,
			"max":[
				4.540857315063477,
				0,
				4.4964985847473145
			],
			"min":[
				-4.041148662567139,
				0,
				-3.839684247970581
			],
			"type":"VEC3"
		},
		{
			"bufferView":38,
			"componentType":5126,
			"count":7,
			"type":"VEC3"
		},
		{
			"bufferView":39,
			"componentType":5126,
			"count":7,
			"type":"VEC2"
		},
		{
			"bufferView":40,
			"componentType":5126,
			"count":8,
			"max":[
				8.811002731323242,
				-1.1920928955078125e-07,
				5.853599548339844
			],
			"min":[
				-6.853002548217773,
				-1.1920928955078125e-07,
				-7.778907775878906
			],
			"type":"VEC3"
		},
		{
			"bufferView":41,
			"componentType":5126,
			"count":8,
			"type":"VEC3"
		},
		{
			"bufferView":42,
			"componentType":5126,
			"count":8,
			"type":"VEC2"
		},
		{
			"bufferView":43,
			"componentType":5123,
			"count":18,
			"type":"SCALAR"
		},
		{
			"bufferView":44,
			"componentType":5126,
			"count":4,
			"max":[
				4.264010429382324,
				0,
				4.763885498046875
			],
			"min":[
				-4.264010429382324,
				0,
				-4.763885498046875
			],
			"type":"VEC3"
		},
		{
			"bufferView":45,
			"componentType":5126,
			"count":4,
			"type":"VEC3"
		},
		{
			"bufferView":46,
			"componentType":5126,
			"count":4,
			"type":"VEC2"
		},
		{
			"bufferView":47,
			"componentType":5126,
			"count":4,
			"max":[
				5.173925399780273,
				0,
				5.335792541503906
			],
			"min":[
				-5.173925399780273,
				0,
				-5.335792541503906
			],
			"type":"VEC3"
		},
		{
			"bufferView":48,
			"componentType":5126,
			"count":4,
			"type":"VEC3"
		},
		{
			"bufferView":49,
			"componentType":5126,
			"count":4,
			"type":"VEC2"
		},
		{
			"bufferView":50,
			"componentType":5126,
			"count":4,
			"max":[
				4.108549118041992,
				-9.5367431640625e-07,
				4.51607608795166
			],
			"min":[
				-4.108548164367676,
				-9.5367431640625e-07,
				-4.516071796417236
			],
			"type":"VEC3"
		},
		{
			"bufferView":51,
			"componentType":5126,
			"count":4,
			"type":"VEC3"
		},
		{
			"bufferView":52,
			"componentType":5126,
			"count":4,
			"type":"VEC2"
		},
		{
			"bufferView":53,
			"componentType":5126,
			"count":8,
			"max":[
				8.898910522460938,
				-9.5367431640625e-07,
				12.352603912353516
			],
			"min":[
				-10.83917236328125,
				-9.5367431640625e-07,
				-8.738948822021484
			],
			"type":"VEC3"
		},
		{
			"bufferView":54,
			"componentType":5126,
			"count":8,
			"type":"VEC3"
		},
		{
			"bufferView":55,
			"componentType":5126,
			"count":8,
			"type":"VEC2"
		},
		{
			"bufferView":56,
			"componentType":5123,
			"count":18,
			"type":"SCALAR"
		}
	],
	"bufferViews":[
		{
			"buffer":0,
			"byteLength":48,
			"byteOffset":0,
			"target":34962
		},
		{
			"buffer":0,
			"byteLength":48,
			"byteOffset":48,
			"target":34962
		},
		{
			"buffer":0,
			"byteLength":32,
			"byteOffset":96,
			"target":34962
		},
		{
			"buffer":0,
			"byteLength":12,
			"byteOffset":128,
			"target":34963
		},
		{
			"buffer":0,
			"byteLength":48,
			"byteOffset":140,
			"target":34962
		},
		{
			"buffer":0,
			"byteLength":48,
			"byteOffset":188,
			"target":34962
		},
		{
			"buffer":0,
			"byteLength":32,
			"byteOffset":236,
			"target":34962
		},
		{
			"buffer":0,
			"byteLength":756,
			"byteOffset":268,
			"target":34962
		},
		{
			"buffer":0,
			"byteLength":756,
			"byteOffset":1024,
			"target":34962
		},
		{
			"buffer":0,
			"byteLength":504,
			"byteOffset":1780,
			"target":34962
		},
		{
			"buffer":0,
			"byteLength":252,
			"byteOffset":2284,
			"target":34963
		},
		{
			"buffer":0,
			"byteLength":48,
			"byteOffset":2536,
			"target":34962
		},
		{
			"buffer":0,
			"byteLength":48,
			"byteOffset":2584,
			"target":34962
		},
		{
			"buffer":0,
			"byteLength":32,
			"byteOffset":2632,
			"target":34962
		},
		{
			"buffer":0,
			"byteLength":300,
			"byteOffset":2664,
			"target":34962
		},
		{
			"buffer":0,
			"byteLength":300,
			"byteOffset":2964,
			"target":34962
		},
		{
			"buffer":0,
			"byteLength":200,
			"byteOffset":3264,
			"target":34962
		},
		{
			"buffer":0,
			"byteLength":144,
			"byteOffset":3464,
			"target":34963
		},
		{
			"buffer":0,
			"byteLength":216,
			"byteOffset":3608,
			"target":34962
		},
		{
			"buffer":0,
			"byteLength":216,
			"byteOffset":3824,
			"target":34962
		},
		{
			"buffer":0,
			"byteLength":144,
			"byteOffset":4040,
			"target":34962
		},
		{
			"buffer":0,
			"byteLength":72,
			"byteOffset":4184,
			"target":34963
		},
		{
			"buffer":0,
			"byteLength":456,
			"byteOffset":4256,
			"target":34962
		},
		{
			"buffer":0,
			"byteLength":456,
			"byteOffset":4712,
			"target":34962
		},
		{
			"buffer":0,
			"byteLength":304,
			"byteOffset":5168,
			"target":34962
		},
		{
			"buffer":0,
			"byteLength":216,
			"byteOffset":5472,
			"target":34963
		},
		{
			"buffer":0,
			"byteLength":48,
			"byteOffset":5688,
			"target":34962
		},
		{
			"buffer":0,
			"byteLength":48,
			"byteOffset":5736,
			"target":34962
		},
		{
			"buffer":0,
			"byteLength":32,
			"byteOffset":5784,
			"target":34962
		},
		{
			"buffer":0,
			"byteLength":168,
			"byteOffset":5816,
			"target":34962
		},
		{
			"buffer":0,
			"byteLength":168,
			"byteOffset":5984,
			"target":34962
		},
		{
			"buffer":0,
			"byteLength":112,
			"byteOffset":6152,
			"target":34962
		},
		{
			"buffer":0,
			"byteLength":72,
			"byteOffset":6264,
			"target":34963
		},
		{
			"buffer":0,
			"byteLength":84,
			"byteOffset":6336,
			"target":34962
		},
		{
			"buffer":0,
			"byteLength":84,
			"byteOffset":6420,
			"target":34962
		},
		{
			"buffer":0,
			"byteLength":56,
			"byteOffset":6504,
			"target":34962
		},
		{
			"buffer":0,
			"byteLength":30,
			"byteOffset":6560,
			"target":34963
		},
		{
			"buffer":0,
			"byteLength":84,
			"byteOffset":6592,
			"target":34962
		},
		{
			"buffer":0,
			"byteLength":84,
			"byteOffset":6676,
			"target":34962
		},
		{
			"buffer":0,
			"byteLength":56,
			"byteOffset":6760,
			"target":34962
		},
		{
			"buffer":0,
			"byteLength":96,
			"byteOffset":6816,
			"target":34962
		},
		{
			"buffer":0,
			"byteLength":96,
			"byteOffset":6912,
			"target":34962
		},
		{
			"buffer":0,
			"byteLength":64,
			"byteOffset":7008,
			"target":34962
		},
		{
			"buffer":0,
			"byteLength":36,
			"byteOffset":7072,
			"target":34963
		},
		{
			"buffer":0,
			"byteLength":48,
			"byteOffset":7108,
			"target":34962
		},
		{
			"buffer":0,
			"byteLength":48,
			"byteOffset":7156,
			"target":34962
		},
		{
			"buffer":0,
			"byteLength":32,
			"byteOffset":7204,
			"target":34962
		},
		{
			"buffer":0,
			"byteLength":48,
			"byteOffset":7236,
			"target":34962
		},
		{
			"buffer":0,
			"byteLength":48,
			"byteOffset":7284,
			"target":34962
		},
		{
			"buffer":0,
			"byteLength":32,
			"byteOffset":7332,
			"target":34962
		},
		{
			"buffer":0,
			"byteLength":48,
			"byteOffset":7364,
			"target":34962
		},
		{
			"buffer":0,
			"byteLength":48,
			"byteOffset":7412,
			"target":34962
		},
		{
			"buffer":0,
			"byteLength":32,
			"byteOffset":7460,
			"target":34962
		},
		{
			"buffer":0,
			"byteLength":96,
			"byteOffset":7492,
			"target":34962
		},
		{
			"buffer":0,
			"byteLength":96,
			"byteOffset":7588,
			"target":34962
		},
		{
			"buffer":0,
			"byteLength":64,
			"byteOffset":7684,
			"target":34962
		},
		{
			"buffer":0,
			"byteLength":36,
			"byteOffset":7748,
			"target":34963
		}
	],
	"buffers":[
		{
			"byteLength":7784,
			"uri":"Tutorial_and_side_islands_of_lvl_1.bin"
		}
	]
}
