{
	"asset":{
		"generator":"Khronos glTF Blender I/O v4.2.69",
		"version":"2.0"
	},
	"scene":0,
	"scenes":[
		{
			"name":"Scene",
			"nodes":[
				0
			]
		}
	],
	"nodes":[
		{
			"mesh":0,
			"name":"TUTORIAL"
		}
	],
	"meshes":[
		{
			"name":"Cube.082",
			"primitives":[
				{
					"attributes":{
						"POSITION":0,
						"NORMAL":1,
						"TEXCOORD_0":2
					},
					"indices":3
				}
			]
		}
	],
	"accessors":[
		{
			"bufferView":0,
			"componentType":5126,
			"count":1465,
			"max":[
				67.77054595947266,
				40.662410736083984,
				25.86402702331543
			],
			"min":[
				-51.804473876953125,
				-15.621928215026855,
				-54.36811828613281
			],
			"type":"VEC3"
		},
		{
			"bufferView":1,
			"componentType":5126,
			"count":1465,
			"type":"VEC3"
		},
		{
			"bufferView":2,
			"componentType":5126,
			"count":1465,
			"type":"VEC2"
		},
		{
			"bufferView":3,
			"componentType":5123,
			"count":2436,
			"type":"SCALAR"
		}
	],
	"bufferViews":[
		{
			"buffer":0,
			"byteLength":17580,
			"byteOffset":0,
			"target":34962
		},
		{
			"buffer":0,
			"byteLength":17580,
			"byteOffset":17580,
			"target":34962
		},
		{
			"buffer":0,
			"byteLength":11720,
			"byteOffset":35160,
			"target":34962
		},
		{
			"buffer":0,
			"byteLength":4872,
			"byteOffset":46880,
			"target":34963
		}
	],
	"buffers":[
		{
			"byteLength":51752,
			"uri":"tutorial.bin"
		}
	]
}
