{
	"asset":{
		"generator":"Khronos glTF Blender I/O v4.2.69",
		"version":"2.0"
	},
	"scene":0,
	"scenes":[
		{
			"name":"Scene",
			"nodes":[
				0,
				1,
				2
			]
		}
	],
	"nodes":[
		{
			"mesh":0,
			"name":"VFX_Pooka_trail_head"
		},
		{
			"mesh":1,
			"name":"VFX_Pooka_trail_end"
		},
		{
			"mesh":2,
			"name":"VFX_Pooka_trail_middle"
		}
	],
	"materials":[
		{
			"alphaMode":"MASK",
			"doubleSided":true,
			"name":"MT_VFX_pooka_trail",
			"pbrMetallicRoughness":{
				"baseColorTexture":{
					"index":0
				},
				"metallicFactor":0
			}
		}
	],
	"meshes":[
		{
			"name":"Plane",
			"primitives":[
				{
					"attributes":{
						"POSITION":0,
						"NORMAL":1,
						"TEXCOORD_0":2,
						"TANGENT":3
					},
					"indices":4,
					"material":0
				}
			]
		},
		{
			"name":"Plane.002",
			"primitives":[
				{
					"attributes":{
						"POSITION":5,
						"NORMAL":6,
						"TEXCOORD_0":7,
						"TANGENT":8
					},
					"indices":4,
					"material":0
				}
			]
		},
		{
			"name":"Plane.003",
			"primitives":[
				{
					"attributes":{
						"POSITION":9,
						"NORMAL":10,
						"TEXCOORD_0":11,
						"TANGENT":12
					},
					"indices":4,
					"material":0
				}
			]
		}
	],
	"textures":[
		{
			"sampler":0,
			"source":0
		}
	],
	"images":[
		{
			"mimeType":"image/png",
			"name":"TX_Pooka_trail_test",
			"uri":"TX_Pooka_trail_test.png"
		}
	],
	"accessors":[
		{
			"bufferView":0,
			"componentType":5126,
			"count":8,
			"max":[
				2.130908966064453,
				0.037590187042951584,
				0.20000000298023224
			],
			"min":[
				1.5207606554031372,
				0.010307449847459793,
				-0.20000000298023224
			],
			"type":"VEC3"
		},
		{
			"bufferView":1,
			"componentType":5126,
			"count":8,
			"type":"VEC3"
		},
		{
			"bufferView":2,
			"componentType":5126,
			"count":8,
			"type":"VEC2"
		},
		{
			"bufferView":3,
			"componentType":5126,
			"count":8,
			"type":"VEC4"
		},
		{
			"bufferView":4,
			"componentType":5123,
			"count":18,
			"type":"SCALAR"
		},
		{
			"bufferView":5,
			"componentType":5126,
			"count":8,
			"max":[
				4.084070205688477,
				0.03155102580785751,
				0.16600008308887482
			],
			"min":[
				3.392444133758545,
				0,
				-0.16190007328987122
			],
			"type":"VEC3"
		},
		{
			"bufferView":6,
			"componentType":5126,
			"count":8,
			"type":"VEC3"
		},
		{
			"bufferView":7,
			"componentType":5126,
			"count":8,
			"type":"VEC2"
		},
		{
			"bufferView":8,
			"componentType":5126,
			"count":8,
			"type":"VEC4"
		},
		{
			"bufferView":9,
			"componentType":5126,
			"count":8,
			"max":[
				3.529256582260132,
				0.034186430275440216,
				0.20000000298023224
			],
			"min":[
				1.7293440103530884,
				0.0015016738325357437,
				-0.20000000298023224
			],
			"type":"VEC3"
		},
		{
			"bufferView":10,
			"componentType":5126,
			"count":8,
			"type":"VEC3"
		},
		{
			"bufferView":11,
			"componentType":5126,
			"count":8,
			"type":"VEC2"
		},
		{
			"bufferView":12,
			"componentType":5126,
			"count":8,
			"type":"VEC4"
		}
	],
	"bufferViews":[
		{
			"buffer":0,
			"byteLength":96,
			"byteOffset":0,
			"target":34962
		},
		{
			"buffer":0,
			"byteLength":96,
			"byteOffset":96,
			"target":34962
		},
		{
			"buffer":0,
			"byteLength":64,
			"byteOffset":192,
			"target":34962
		},
		{
			"buffer":0,
			"byteLength":128,
			"byteOffset":256,
			"target":34962
		},
		{
			"buffer":0,
			"byteLength":36,
			"byteOffset":384,
			"target":34963
		},
		{
			"buffer":0,
			"byteLength":96,
			"byteOffset":420,
			"target":34962
		},
		{
			"buffer":0,
			"byteLength":96,
			"byteOffset":516,
			"target":34962
		},
		{
			"buffer":0,
			"byteLength":64,
			"byteOffset":612,
			"target":34962
		},
		{
			"buffer":0,
			"byteLength":128,
			"byteOffset":676,
			"target":34962
		},
		{
			"buffer":0,
			"byteLength":96,
			"byteOffset":804,
			"target":34962
		},
		{
			"buffer":0,
			"byteLength":96,
			"byteOffset":900,
			"target":34962
		},
		{
			"buffer":0,
			"byteLength":64,
			"byteOffset":996,
			"target":34962
		},
		{
			"buffer":0,
			"byteLength":128,
			"byteOffset":1060,
			"target":34962
		}
	],
	"samplers":[
		{
			"magFilter":9729,
			"minFilter":9987
		}
	],
	"buffers":[
		{
			"byteLength":1188,
			"uri":"VFX_Pooka_Trail.bin"
		}
	]
}
