{
	"asset":{
		"generator":"Khronos glTF Blender I/O v4.2.69",
		"version":"2.0"
	},
	"extensionsUsed":[
		"KHR_materials_emissive_strength"
	],
	"scene":0,
	"scenes":[
		{
			"name":"Scene",
			"nodes":[
				0,
				1,
				2,
				3,
				4,
				5,
				6,
				7,
				8
			]
		}
	],
	"nodes":[
		{
			"mesh":0,
			"name":"VFX_Bomb_Light_Impact",
			"scale":[
				1.0186461210250854,
				1.0186461210250854,
				1.0186461210250854
			]
		},
		{
			"mesh":1,
			"name":"VFX_Bomb_Shadow",
			"scale":[
				0.7619116306304932,
				0.7619116306304932,
				0.7619116306304932
			]
		},
		{
			"mesh":2,
			"name":"VFX_Bomb_Fire_Ipact"
		},
		{
			"mesh":3,
			"name":"VFX_Bomb_Indicator",
			"scale":[
				1.8875768184661865,
				1.8875768184661865,
				1.8875768184661865
			]
		},
		{
			"mesh":4,
			"name":"VFX_Bomb_Indicator_Small",
			"rotation":[
				0,
				-0.42249828577041626,
				0,
				0.9063637256622314
			],
			"scale":[
				0.7688964009284973,
				0.7688964009284973,
				0.7688964009284973
			]
		},
		{
			"mesh":5,
			"name":"VFX_Bomb_Ground_After",
			"rotation":[
				0,
				-0.42249828577041626,
				0,
				0.9063637256622314
			],
			"scale":[
				2.1653168201446533,
				2.1653177738189697,
				2.1653168201446533
			]
		},
		{
			"mesh":6,
			"name":"VFX_Bomb_FireShadow_Ipact",
			"scale":[
				0.6417839527130127,
				0.6417839527130127,
				0.6417839527130127
			]
		},
		{
			"mesh":7,
			"name":"VFX_Bomb_Ground_BlackStains",
			"scale":[
				2.563161611557007,
				2.563161611557007,
				2.563161611557007
			]
		},
		{
			"mesh":8,
			"name":"VFX_Bomb_Main_Light_Impact",
			"scale":[
				1.1410431861877441,
				1.1410431861877441,
				1.1410431861877441
			]
		}
	],
	"materials":[
		{
			"alphaMode":"BLEND",
			"doubleSided":true,
			"emissiveFactor":[
				1,
				1,
				1
			],
			"emissiveTexture":{
				"index":0
			},
			"extensions":{
				"KHR_materials_emissive_strength":{
					"emissiveStrength":3.799999713897705
				}
			},
			"name":"M_Bomb_Light_Impact",
			"pbrMetallicRoughness":{
				"baseColorTexture":{
					"index":1
				},
				"metallicFactor":0
			}
		},
		{
			"alphaMode":"BLEND",
			"doubleSided":true,
			"emissiveFactor":[
				1,
				1,
				1
			],
			"emissiveTexture":{
				"index":2
			},
			"extensions":{
				"KHR_materials_emissive_strength":{
					"emissiveStrength":5.399999618530273
				}
			},
			"name":"M_Bomb_Shadow",
			"pbrMetallicRoughness":{
				"baseColorTexture":{
					"index":3
				},
				"metallicFactor":0
			}
		},
		{
			"alphaMode":"BLEND",
			"doubleSided":true,
			"emissiveFactor":[
				0.8999999761581421,
				0.8999999761581421,
				0.8999999761581421
			],
			"emissiveTexture":{
				"index":4
			},
			"name":"M_Bomb_Fire_Impact",
			"pbrMetallicRoughness":{
				"baseColorTexture":{
					"index":5
				},
				"metallicFactor":0
			}
		},
		{
			"alphaMode":"BLEND",
			"doubleSided":true,
			"emissiveFactor":[
				1,
				1,
				1
			],
			"emissiveTexture":{
				"index":6
			},
			"extensions":{
				"KHR_materials_emissive_strength":{
					"emissiveStrength":3.7000021934509277
				}
			},
			"name":"M_Bomb_Indicator",
			"pbrMetallicRoughness":{
				"baseColorTexture":{
					"index":7
				},
				"metallicFactor":0
			}
		},
		{
			"alphaMode":"BLEND",
			"doubleSided":true,
			"emissiveFactor":[
				1,
				1,
				1
			],
			"emissiveTexture":{
				"index":8
			},
			"extensions":{
				"KHR_materials_emissive_strength":{
					"emissiveStrength":1.6000022888183594
				}
			},
			"name":"M_Bomb_Indicator_Small",
			"pbrMetallicRoughness":{
				"baseColorTexture":{
					"index":9
				},
				"metallicFactor":0
			}
		},
		{
			"alphaMode":"BLEND",
			"doubleSided":true,
			"emissiveFactor":[
				1,
				1,
				1
			],
			"emissiveTexture":{
				"index":10
			},
			"extensions":{
				"KHR_materials_emissive_strength":{
					"emissiveStrength":4.300002098083496
				}
			},
			"name":"M_Bomb_Ground_After",
			"pbrMetallicRoughness":{
				"baseColorTexture":{
					"index":11
				},
				"metallicFactor":0
			}
		},
		{
			"alphaMode":"BLEND",
			"doubleSided":true,
			"name":"M_Bomb_FireShadow_Impact",
			"pbrMetallicRoughness":{
				"baseColorTexture":{
					"index":12
				},
				"metallicFactor":0
			}
		},
		{
			"alphaMode":"BLEND",
			"doubleSided":true,
			"name":"M_Bomb_Ground_Black_Stains",
			"pbrMetallicRoughness":{
				"baseColorTexture":{
					"index":13
				},
				"metallicFactor":0
			}
		},
		{
			"alphaMode":"BLEND",
			"doubleSided":true,
			"emissiveFactor":[
				1,
				1,
				1
			],
			"emissiveTexture":{
				"index":14
			},
			"extensions":{
				"KHR_materials_emissive_strength":{
					"emissiveStrength":1.6000003814697266
				}
			},
			"name":"M_Bomb_Main_Light",
			"pbrMetallicRoughness":{
				"baseColorTexture":{
					"index":15
				},
				"metallicFactor":0
			}
		}
	],
	"meshes":[
		{
			"name":"Cylinder.012",
			"primitives":[
				{
					"attributes":{
						"POSITION":0,
						"NORMAL":1,
						"TEXCOORD_0":2,
						"TANGENT":3
					},
					"indices":4,
					"material":0
				}
			]
		},
		{
			"name":"Cylinder.015",
			"primitives":[
				{
					"attributes":{
						"POSITION":5,
						"NORMAL":6,
						"TEXCOORD_0":7,
						"TANGENT":8
					},
					"indices":9,
					"material":1
				}
			]
		},
		{
			"name":"Cylinder.017",
			"primitives":[
				{
					"attributes":{
						"POSITION":10,
						"NORMAL":11,
						"TEXCOORD_0":12,
						"TANGENT":13
					},
					"indices":14,
					"material":2
				}
			]
		},
		{
			"name":"Cylinder.018",
			"primitives":[
				{
					"attributes":{
						"POSITION":15,
						"NORMAL":16,
						"TEXCOORD_0":17,
						"TEXCOORD_1":18,
						"TANGENT":19
					},
					"indices":20,
					"material":3
				}
			]
		},
		{
			"name":"Cylinder.019",
			"primitives":[
				{
					"attributes":{
						"POSITION":21,
						"NORMAL":22,
						"TEXCOORD_0":23,
						"TANGENT":24
					},
					"indices":25,
					"material":4
				}
			]
		},
		{
			"name":"Cylinder.021",
			"primitives":[
				{
					"attributes":{
						"POSITION":26,
						"NORMAL":27,
						"TEXCOORD_0":28,
						"TANGENT":29
					},
					"indices":30,
					"material":5
				}
			]
		},
		{
			"name":"Cylinder.025",
			"primitives":[
				{
					"attributes":{
						"POSITION":31,
						"NORMAL":32,
						"TEXCOORD_0":33,
						"TANGENT":34
					},
					"indices":35,
					"material":6
				}
			]
		},
		{
			"name":"Cylinder.026",
			"primitives":[
				{
					"attributes":{
						"POSITION":36,
						"NORMAL":37,
						"TEXCOORD_0":38,
						"TANGENT":39
					},
					"indices":40,
					"material":7
				}
			]
		},
		{
			"name":"Cylinder.027",
			"primitives":[
				{
					"attributes":{
						"POSITION":41,
						"NORMAL":42,
						"TEXCOORD_0":43,
						"TANGENT":44
					},
					"indices":45,
					"material":8
				}
			]
		}
	],
	"textures":[
		{
			"sampler":0,
			"source":0
		},
		{
			"sampler":0,
			"source":1
		},
		{
			"sampler":0,
			"source":2
		},
		{
			"sampler":0,
			"source":3
		},
		{
			"sampler":0,
			"source":4
		},
		{
			"sampler":0,
			"source":5
		},
		{
			"sampler":0,
			"source":6
		},
		{
			"sampler":0,
			"source":7
		},
		{
			"sampler":0,
			"source":8
		},
		{
			"sampler":0,
			"source":9
		},
		{
			"sampler":0,
			"source":10
		},
		{
			"sampler":0,
			"source":11
		},
		{
			"sampler":0,
			"source":12
		},
		{
			"sampler":0,
			"source":13
		},
		{
			"sampler":0,
			"source":14
		},
		{
			"sampler":0,
			"source":15
		}
	],
	"images":[
		{
			"mimeType":"image/png",
			"name":"Bomb_Light_Impact_Emissive",
			"uri":"Bomb_Light_Impact_Emissive.png"
		},
		{
			"mimeType":"image/png",
			"name":"Bomb_Light_Impact",
			"uri":"Bomb_Light_Impact.png"
		},
		{
			"mimeType":"image/png",
			"name":"Bomb_Shadow_Emissive",
			"uri":"Bomb_Shadow_Emissive.png"
		},
		{
			"mimeType":"image/png",
			"name":"Bomb_Shadow",
			"uri":"Bomb_Shadow.png"
		},
		{
			"mimeType":"image/png",
			"name":"Bomb_Fire_Impact_Emissive",
			"uri":"Bomb_Fire_Impact_Emissive.png"
		},
		{
			"mimeType":"image/png",
			"name":"Bomb_Fire_Impact",
			"uri":"Bomb_Fire_Impact.png"
		},
		{
			"mimeType":"image/png",
			"name":"Bomb_Indicator_Emissive",
			"uri":"Bomb_Indicator_Emissive.png"
		},
		{
			"mimeType":"image/png",
			"name":"Bomb_Indicator",
			"uri":"Bomb_Indicator.png"
		},
		{
			"mimeType":"image/png",
			"name":"Bomb_Indicator_Small_Emissive",
			"uri":"Bomb_Indicator_Small_Emissive.png"
		},
		{
			"mimeType":"image/png",
			"name":"Bomb_Indicator_Small",
			"uri":"Bomb_Indicator_Small.png"
		},
		{
			"mimeType":"image/png",
			"name":"Bomb_GroundAfter_Emissive",
			"uri":"Bomb_GroundAfter_Emissive.png"
		},
		{
			"mimeType":"image/png",
			"name":"Bomb_GroundAfter",
			"uri":"Bomb_GroundAfter.png"
		},
		{
			"mimeType":"image/png",
			"name":"Bomb_Fire_Shadow",
			"uri":"Bomb_Fire_Shadow.png"
		},
		{
			"mimeType":"image/png",
			"name":"Bomb_Ground_BlackStains",
			"uri":"Bomb_Ground_BlackStains.png"
		},
		{
			"mimeType":"image/png",
			"name":"Bomb_Main_Light_Impact-Emissive",
			"uri":"Bomb_Main_Light_Impact-Emissive.png"
		},
		{
			"mimeType":"image/png",
			"name":"Bomb_Main_Light_Impact",
			"uri":"Bomb_Main_Light_Impact.png"
		}
	],
	"accessors":[
		{
			"bufferView":0,
			"componentType":5126,
			"count":66,
			"max":[
				2.1056618690490723,
				0.0012878179550170898,
				2.1056618690490723
			],
			"min":[
				-2.1056618690490723,
				-0.0025667548179626465,
				-2.1056618690490723
			],
			"type":"VEC3"
		},
		{
			"bufferView":1,
			"componentType":5126,
			"count":66,
			"type":"VEC3"
		},
		{
			"bufferView":2,
			"componentType":5126,
			"count":66,
			"type":"VEC2"
		},
		{
			"bufferView":3,
			"componentType":5126,
			"count":66,
			"type":"VEC4"
		},
		{
			"bufferView":4,
			"componentType":5123,
			"count":192,
			"type":"SCALAR"
		},
		{
			"bufferView":5,
			"componentType":5126,
			"count":99,
			"max":[
				2.1056618690490723,
				0.001284480094909668,
				2.1056618690490723
			],
			"min":[
				-2.1056618690490723,
				-0.0025701522827148438,
				-2.1056618690490723
			],
			"type":"VEC3"
		},
		{
			"bufferView":6,
			"componentType":5126,
			"count":99,
			"type":"VEC3"
		},
		{
			"bufferView":7,
			"componentType":5126,
			"count":99,
			"type":"VEC2"
		},
		{
			"bufferView":8,
			"componentType":5126,
			"count":99,
			"type":"VEC4"
		},
		{
			"bufferView":9,
			"componentType":5123,
			"count":384,
			"type":"SCALAR"
		},
		{
			"bufferView":10,
			"componentType":5126,
			"count":132,
			"max":[
				2.1056618690490723,
				0.0007839798927307129,
				2.105661392211914
			],
			"min":[
				-2.1056618690490723,
				-0.0030707716941833496,
				-2.1056623458862305
			],
			"type":"VEC3"
		},
		{
			"bufferView":11,
			"componentType":5126,
			"count":132,
			"type":"VEC3"
		},
		{
			"bufferView":12,
			"componentType":5126,
			"count":132,
			"type":"VEC2"
		},
		{
			"bufferView":13,
			"componentType":5126,
			"count":132,
			"type":"VEC4"
		},
		{
			"bufferView":14,
			"componentType":5123,
			"count":576,
			"type":"SCALAR"
		},
		{
			"bufferView":15,
			"componentType":5126,
			"count":165,
			"max":[
				1.4532697200775146,
				0.001522362232208252,
				1.4532687664031982
			],
			"min":[
				-1.4532560110092163,
				-0.0022895336151123047,
				-1.4532569646835327
			],
			"type":"VEC3"
		},
		{
			"bufferView":16,
			"componentType":5126,
			"count":165,
			"type":"VEC3"
		},
		{
			"bufferView":17,
			"componentType":5126,
			"count":165,
			"type":"VEC2"
		},
		{
			"bufferView":18,
			"componentType":5126,
			"count":165,
			"type":"VEC2"
		},
		{
			"bufferView":19,
			"componentType":5126,
			"count":165,
			"type":"VEC4"
		},
		{
			"bufferView":20,
			"componentType":5123,
			"count":768,
			"type":"SCALAR"
		},
		{
			"bufferView":21,
			"componentType":5126,
			"count":160,
			"max":[
				1.4532697200775146,
				0.001522362232208252,
				1.4532687664031982
			],
			"min":[
				-1.4532560110092163,
				-0.0022895336151123047,
				-1.4532569646835327
			],
			"type":"VEC3"
		},
		{
			"bufferView":22,
			"componentType":5126,
			"count":160,
			"type":"VEC3"
		},
		{
			"bufferView":23,
			"componentType":5126,
			"count":160,
			"type":"VEC2"
		},
		{
			"bufferView":24,
			"componentType":5126,
			"count":160,
			"type":"VEC4"
		},
		{
			"bufferView":25,
			"componentType":5123,
			"count":768,
			"type":"SCALAR"
		},
		{
			"bufferView":26,
			"componentType":5126,
			"count":160,
			"max":[
				1.4532697200775146,
				0.001522362232208252,
				1.4532687664031982
			],
			"min":[
				-1.4532560110092163,
				-0.0022894716821610928,
				-1.4532569646835327
			],
			"type":"VEC3"
		},
		{
			"bufferView":27,
			"componentType":5126,
			"count":160,
			"type":"VEC3"
		},
		{
			"bufferView":28,
			"componentType":5126,
			"count":160,
			"type":"VEC2"
		},
		{
			"bufferView":29,
			"componentType":5126,
			"count":160,
			"type":"VEC4"
		},
		{
			"bufferView":30,
			"componentType":5123,
			"count":768,
			"type":"SCALAR"
		},
		{
			"bufferView":31,
			"componentType":5126,
			"count":99,
			"max":[
				2.1056618690490723,
				0.0012878179550170898,
				2.1056618690490723
			],
			"min":[
				-2.1056618690490723,
				-0.0025667548179626465,
				-2.1056618690490723
			],
			"type":"VEC3"
		},
		{
			"bufferView":32,
			"componentType":5126,
			"count":99,
			"type":"VEC3"
		},
		{
			"bufferView":33,
			"componentType":5126,
			"count":99,
			"type":"VEC2"
		},
		{
			"bufferView":34,
			"componentType":5126,
			"count":99,
			"type":"VEC4"
		},
		{
			"bufferView":35,
			"componentType":5123,
			"count":384,
			"type":"SCALAR"
		},
		{
			"bufferView":36,
			"componentType":5126,
			"count":98,
			"max":[
				2.1056618690490723,
				0.0012878179550170898,
				2.1056618690490723
			],
			"min":[
				-2.1056618690490723,
				-0.002567075891420245,
				-2.1056618690490723
			],
			"type":"VEC3"
		},
		{
			"bufferView":37,
			"componentType":5126,
			"count":98,
			"type":"VEC3"
		},
		{
			"bufferView":38,
			"componentType":5126,
			"count":98,
			"type":"VEC2"
		},
		{
			"bufferView":39,
			"componentType":5126,
			"count":98,
			"type":"VEC4"
		},
		{
			"bufferView":40,
			"componentType":5123,
			"count":288,
			"type":"SCALAR"
		},
		{
			"bufferView":41,
			"componentType":5126,
			"count":99,
			"max":[
				2.1056618690490723,
				0.0012878179550170898,
				2.1056618690490723
			],
			"min":[
				-2.1056618690490723,
				-0.0025667548179626465,
				-2.1056618690490723
			],
			"type":"VEC3"
		},
		{
			"bufferView":42,
			"componentType":5126,
			"count":99,
			"type":"VEC3"
		},
		{
			"bufferView":43,
			"componentType":5126,
			"count":99,
			"type":"VEC2"
		},
		{
			"bufferView":44,
			"componentType":5126,
			"count":99,
			"type":"VEC4"
		},
		{
			"bufferView":45,
			"componentType":5123,
			"count":384,
			"type":"SCALAR"
		}
	],
	"bufferViews":[
		{
			"buffer":0,
			"byteLength":792,
			"byteOffset":0,
			"target":34962
		},
		{
			"buffer":0,
			"byteLength":792,
			"byteOffset":792,
			"target":34962
		},
		{
			"buffer":0,
			"byteLength":528,
			"byteOffset":1584,
			"target":34962
		},
		{
			"buffer":0,
			"byteLength":1056,
			"byteOffset":2112,
			"target":34962
		},
		{
			"buffer":0,
			"byteLength":384,
			"byteOffset":3168,
			"target":34963
		},
		{
			"buffer":0,
			"byteLength":1188,
			"byteOffset":3552,
			"target":34962
		},
		{
			"buffer":0,
			"byteLength":1188,
			"byteOffset":4740,
			"target":34962
		},
		{
			"buffer":0,
			"byteLength":792,
			"byteOffset":5928,
			"target":34962
		},
		{
			"buffer":0,
			"byteLength":1584,
			"byteOffset":6720,
			"target":34962
		},
		{
			"buffer":0,
			"byteLength":768,
			"byteOffset":8304,
			"target":34963
		},
		{
			"buffer":0,
			"byteLength":1584,
			"byteOffset":9072,
			"target":34962
		},
		{
			"buffer":0,
			"byteLength":1584,
			"byteOffset":10656,
			"target":34962
		},
		{
			"buffer":0,
			"byteLength":1056,
			"byteOffset":12240,
			"target":34962
		},
		{
			"buffer":0,
			"byteLength":2112,
			"byteOffset":13296,
			"target":34962
		},
		{
			"buffer":0,
			"byteLength":1152,
			"byteOffset":15408,
			"target":34963
		},
		{
			"buffer":0,
			"byteLength":1980,
			"byteOffset":16560,
			"target":34962
		},
		{
			"buffer":0,
			"byteLength":1980,
			"byteOffset":18540,
			"target":34962
		},
		{
			"buffer":0,
			"byteLength":1320,
			"byteOffset":20520,
			"target":34962
		},
		{
			"buffer":0,
			"byteLength":1320,
			"byteOffset":21840,
			"target":34962
		},
		{
			"buffer":0,
			"byteLength":2640,
			"byteOffset":23160,
			"target":34962
		},
		{
			"buffer":0,
			"byteLength":1536,
			"byteOffset":25800,
			"target":34963
		},
		{
			"buffer":0,
			"byteLength":1920,
			"byteOffset":27336,
			"target":34962
		},
		{
			"buffer":0,
			"byteLength":1920,
			"byteOffset":29256,
			"target":34962
		},
		{
			"buffer":0,
			"byteLength":1280,
			"byteOffset":31176,
			"target":34962
		},
		{
			"buffer":0,
			"byteLength":2560,
			"byteOffset":32456,
			"target":34962
		},
		{
			"buffer":0,
			"byteLength":1536,
			"byteOffset":35016,
			"target":34963
		},
		{
			"buffer":0,
			"byteLength":1920,
			"byteOffset":36552,
			"target":34962
		},
		{
			"buffer":0,
			"byteLength":1920,
			"byteOffset":38472,
			"target":34962
		},
		{
			"buffer":0,
			"byteLength":1280,
			"byteOffset":40392,
			"target":34962
		},
		{
			"buffer":0,
			"byteLength":2560,
			"byteOffset":41672,
			"target":34962
		},
		{
			"buffer":0,
			"byteLength":1536,
			"byteOffset":44232,
			"target":34963
		},
		{
			"buffer":0,
			"byteLength":1188,
			"byteOffset":45768,
			"target":34962
		},
		{
			"buffer":0,
			"byteLength":1188,
			"byteOffset":46956,
			"target":34962
		},
		{
			"buffer":0,
			"byteLength":792,
			"byteOffset":48144,
			"target":34962
		},
		{
			"buffer":0,
			"byteLength":1584,
			"byteOffset":48936,
			"target":34962
		},
		{
			"buffer":0,
			"byteLength":768,
			"byteOffset":50520,
			"target":34963
		},
		{
			"buffer":0,
			"byteLength":1176,
			"byteOffset":51288,
			"target":34962
		},
		{
			"buffer":0,
			"byteLength":1176,
			"byteOffset":52464,
			"target":34962
		},
		{
			"buffer":0,
			"byteLength":784,
			"byteOffset":53640,
			"target":34962
		},
		{
			"buffer":0,
			"byteLength":1568,
			"byteOffset":54424,
			"target":34962
		},
		{
			"buffer":0,
			"byteLength":576,
			"byteOffset":55992,
			"target":34963
		},
		{
			"buffer":0,
			"byteLength":1188,
			"byteOffset":56568,
			"target":34962
		},
		{
			"buffer":0,
			"byteLength":1188,
			"byteOffset":57756,
			"target":34962
		},
		{
			"buffer":0,
			"byteLength":792,
			"byteOffset":58944,
			"target":34962
		},
		{
			"buffer":0,
			"byteLength":1584,
			"byteOffset":59736,
			"target":34962
		},
		{
			"buffer":0,
			"byteLength":768,
			"byteOffset":61320,
			"target":34963
		}
	],
	"samplers":[
		{
			"magFilter":9729,
			"minFilter":9987
		}
	],
	"buffers":[
		{
			"byteLength":62088,
			"uri":"VFX_Bomb_Details.bin"
		}
	]
}
