{
	"asset":{
		"generator":"Khronos glTF Blender I/O v4.4.56",
		"version":"2.0"
	},
	"scene":0,
	"scenes":[
		{
			"name":"Scene",
			"nodes":[
				12
			]
		}
	],
	"nodes":[
		{
			"name":"risastrad_jnt_aurora",
			"rotation":[
				-8.556183317409705e-09,
				2.2351741790771484e-08,
				-2.772730059705838e-16,
				1
			],
			"translation":[
				6.249565922189504e-05,
				0.18899565935134888,
				3.170813579345122e-05
			]
		},
		{
			"mesh":0,
			"name":"risastrad_mesh_stars",
			"skin":0
		},
		{
			"children":[
				1,
				0
			],
			"name":"risastrad_aurora",
			"rotation":[
				0,
				0.07774045318365097,
				0,
				0.9969736337661743
			],
			"translation":[
				0,
				-0.14165444672107697,
				0
			]
		},
		{
			"name":"risastrad_jnt_blur",
			"rotation":[
				-0.7071067690849304,
				0,
				0,
				0.7071067690849304
			],
			"translation":[
				0,
				-0.14424723386764526,
				0
			]
		},
		{
			"mesh":1,
			"name":"risastrad_mesh_blur",
			"skin":1
		},
		{
			"children":[
				4,
				3
			],
			"name":"risastrad_blur"
		},
		{
			"name":"risastrad_jnt_crack",
			"rotation":[
				-8.557136332854043e-09,
				2.4203236748121526e-08,
				-4.1422078995684666e-16,
				1
			],
			"translation":[
				0,
				-0.03980853781104088,
				0
			]
		},
		{
			"mesh":2,
			"name":"risastrad_mesh_crack",
			"skin":2
		},
		{
			"children":[
				7,
				6
			],
			"name":"risastrad_crack"
		},
		{
			"name":"risastrad_jnt_warning",
			"rotation":[
				-0.7071067690849304,
				0,
				0,
				0.7071067690849304
			],
			"translation":[
				0,
				0.063571497797966,
				0
			]
		},
		{
			"mesh":3,
			"name":"risastrad_mesh_warning",
			"skin":3
		},
		{
			"children":[
				10,
				9
			],
			"name":"risastrad_warning"
		},
		{
			"children":[
				2,
				5,
				8,
				11
			],
			"name":"riastrad_attack"
		}
	],
	"animations":[
		{
			"channels":[
				{
					"sampler":0,
					"target":{
						"node":0,
						"path":"translation"
					}
				},
				{
					"sampler":1,
					"target":{
						"node":0,
						"path":"rotation"
					}
				},
				{
					"sampler":2,
					"target":{
						"node":0,
						"path":"scale"
					}
				},
				{
					"sampler":3,
					"target":{
						"node":3,
						"path":"translation"
					}
				},
				{
					"sampler":4,
					"target":{
						"node":3,
						"path":"rotation"
					}
				},
				{
					"sampler":5,
					"target":{
						"node":3,
						"path":"scale"
					}
				},
				{
					"sampler":6,
					"target":{
						"node":6,
						"path":"translation"
					}
				},
				{
					"sampler":7,
					"target":{
						"node":6,
						"path":"rotation"
					}
				},
				{
					"sampler":8,
					"target":{
						"node":6,
						"path":"scale"
					}
				},
				{
					"sampler":9,
					"target":{
						"node":9,
						"path":"translation"
					}
				},
				{
					"sampler":10,
					"target":{
						"node":9,
						"path":"rotation"
					}
				},
				{
					"sampler":11,
					"target":{
						"node":9,
						"path":"scale"
					}
				}
			],
			"name":"Riastrad_Attack",
			"samplers":[
				{
					"input":31,
					"interpolation":"LINEAR",
					"output":32
				},
				{
					"input":33,
					"interpolation":"LINEAR",
					"output":34
				},
				{
					"input":31,
					"interpolation":"LINEAR",
					"output":35
				},
				{
					"input":31,
					"interpolation":"LINEAR",
					"output":36
				},
				{
					"input":33,
					"interpolation":"STEP",
					"output":37
				},
				{
					"input":31,
					"interpolation":"LINEAR",
					"output":38
				},
				{
					"input":31,
					"interpolation":"LINEAR",
					"output":39
				},
				{
					"input":33,
					"interpolation":"STEP",
					"output":40
				},
				{
					"input":33,
					"interpolation":"STEP",
					"output":41
				},
				{
					"input":33,
					"interpolation":"STEP",
					"output":42
				},
				{
					"input":33,
					"interpolation":"STEP",
					"output":43
				},
				{
					"input":31,
					"interpolation":"LINEAR",
					"output":44
				}
			]
		}
	],
	"materials":[
		{
			"alphaMode":"BLEND",
			"name":"M_ria_stars",
			"pbrMetallicRoughness":{
				"baseColorTexture":{
					"index":0
				},
				"metallicFactor":0
			}
		},
		{
			"alphaMode":"BLEND",
			"name":"M_ria_glow",
			"pbrMetallicRoughness":{
				"baseColorTexture":{
					"index":1
				},
				"metallicFactor":0
			}
		},
		{
			"alphaMode":"BLEND",
			"name":"M_ria_crack",
			"pbrMetallicRoughness":{
				"baseColorTexture":{
					"index":2
				},
				"metallicFactor":0
			}
		},
		{
			"alphaMode":"BLEND",
			"name":"M_ria_warning",
			"pbrMetallicRoughness":{
				"baseColorTexture":{
					"index":3
				},
				"metallicFactor":0
			}
		}
	],
	"meshes":[
		{
			"name":"risastrad_mesh_stars",
			"primitives":[
				{
					"attributes":{
						"POSITION":0,
						"NORMAL":1,
						"TEXCOORD_0":2,
						"TANGENT":3,
						"JOINTS_0":4,
						"WEIGHTS_0":5
					},
					"indices":6,
					"material":0
				}
			]
		},
		{
			"name":"risastrad_mesh_blur",
			"primitives":[
				{
					"attributes":{
						"POSITION":8,
						"NORMAL":9,
						"TEXCOORD_0":10,
						"TANGENT":11,
						"JOINTS_0":12,
						"WEIGHTS_0":13
					},
					"indices":14,
					"material":1
				}
			]
		},
		{
			"name":"risastrad_mesh_crack",
			"primitives":[
				{
					"attributes":{
						"POSITION":16,
						"NORMAL":17,
						"TEXCOORD_0":18,
						"TANGENT":19,
						"JOINTS_0":20,
						"WEIGHTS_0":21
					},
					"indices":22,
					"material":2
				}
			]
		},
		{
			"name":"risastrad_mesh_warning",
			"primitives":[
				{
					"attributes":{
						"POSITION":24,
						"NORMAL":25,
						"TEXCOORD_0":26,
						"TANGENT":27,
						"JOINTS_0":28,
						"WEIGHTS_0":29
					},
					"indices":22,
					"material":3
				}
			]
		}
	],
	"textures":[
		{
			"sampler":0,
			"source":0
		},
		{
			"sampler":0,
			"source":1
		},
		{
			"sampler":0,
			"source":2
		},
		{
			"sampler":0,
			"source":3
		}
	],
	"images":[
		{
			"mimeType":"image/png",
			"name":"vfx_r_stars",
			"uri":"vfx_r_stars.png"
		},
		{
			"mimeType":"image/png",
			"name":"vfx_r_brust",
			"uri":"vfx_r_brust.png"
		},
		{
			"mimeType":"image/png",
			"name":"vfx_r_crack",
			"uri":"vfx_r_crack.png"
		},
		{
			"mimeType":"image/png",
			"name":"vfx_ria_Waring",
			"uri":"vfx_ria_Waring.png"
		}
	],
	"skins":[
		{
			"inverseBindMatrices":7,
			"joints":[
				0
			],
			"name":"risastrad_aurora"
		},
		{
			"inverseBindMatrices":15,
			"joints":[
				3
			],
			"name":"risastrad_blur"
		},
		{
			"inverseBindMatrices":23,
			"joints":[
				6
			],
			"name":"risastrad_crack"
		},
		{
			"inverseBindMatrices":30,
			"joints":[
				9
			],
			"name":"risastrad_warning"
		}
	],
	"accessors":[
		{
			"bufferView":0,
			"componentType":5126,
			"count":193,
			"max":[
				2.4179306030273438,
				0.03402350842952728,
				2.4180445671081543
			],
			"min":[
				-2.4182639122009277,
				0.03402341902256012,
				-2.4181506633758545
			],
			"type":"VEC3"
		},
		{
			"bufferView":1,
			"componentType":5126,
			"count":193,
			"type":"VEC3"
		},
		{
			"bufferView":2,
			"componentType":5126,
			"count":193,
			"type":"VEC2"
		},
		{
			"bufferView":3,
			"componentType":5126,
			"count":193,
			"type":"VEC4"
		},
		{
			"bufferView":4,
			"componentType":5121,
			"count":193,
			"type":"VEC4"
		},
		{
			"bufferView":5,
			"componentType":5126,
			"count":193,
			"type":"VEC4"
		},
		{
			"bufferView":6,
			"componentType":5123,
			"count":360,
			"type":"SCALAR"
		},
		{
			"bufferView":7,
			"componentType":5126,
			"count":1,
			"type":"MAT4"
		},
		{
			"bufferView":8,
			"componentType":5126,
			"count":164,
			"max":[
				1.1352838277816772,
				-0.14761938154697418,
				1.1352840662002563
			],
			"min":[
				-1.135284185409546,
				-0.1476196050643921,
				-1.135284423828125
			],
			"type":"VEC3"
		},
		{
			"bufferView":9,
			"componentType":5126,
			"count":164,
			"type":"VEC3"
		},
		{
			"bufferView":10,
			"componentType":5126,
			"count":164,
			"type":"VEC2"
		},
		{
			"bufferView":11,
			"componentType":5126,
			"count":164,
			"type":"VEC4"
		},
		{
			"bufferView":12,
			"componentType":5121,
			"count":164,
			"type":"VEC4"
		},
		{
			"bufferView":13,
			"componentType":5126,
			"count":164,
			"type":"VEC4"
		},
		{
			"bufferView":14,
			"componentType":5123,
			"count":360,
			"type":"SCALAR"
		},
		{
			"bufferView":15,
			"componentType":5126,
			"count":1,
			"type":"MAT4"
		},
		{
			"bufferView":16,
			"componentType":5126,
			"count":4,
			"max":[
				1.2448601722717285,
				-0.1271575540304184,
				1.2448601722717285
			],
			"min":[
				-1.2448601722717285,
				-0.12715758383274078,
				-1.2448601722717285
			],
			"type":"VEC3"
		},
		{
			"bufferView":17,
			"componentType":5126,
			"count":4,
			"type":"VEC3"
		},
		{
			"bufferView":18,
			"componentType":5126,
			"count":4,
			"type":"VEC2"
		},
		{
			"bufferView":19,
			"componentType":5126,
			"count":4,
			"type":"VEC4"
		},
		{
			"bufferView":20,
			"componentType":5121,
			"count":4,
			"type":"VEC4"
		},
		{
			"bufferView":21,
			"componentType":5126,
			"count":4,
			"type":"VEC4"
		},
		{
			"bufferView":22,
			"componentType":5123,
			"count":6,
			"type":"SCALAR"
		},
		{
			"bufferView":23,
			"componentType":5126,
			"count":1,
			"type":"MAT4"
		},
		{
			"bufferView":24,
			"componentType":5126,
			"count":4,
			"max":[
				0.8389203548431396,
				0.06357157975435257,
				0.8389204144477844
			],
			"min":[
				-0.8389203548431396,
				0.06357141584157944,
				-0.8389204144477844
			],
			"type":"VEC3"
		},
		{
			"bufferView":25,
			"componentType":5126,
			"count":4,
			"type":"VEC3"
		},
		{
			"bufferView":26,
			"componentType":5126,
			"count":4,
			"type":"VEC2"
		},
		{
			"bufferView":27,
			"componentType":5126,
			"count":4,
			"type":"VEC4"
		},
		{
			"bufferView":28,
			"componentType":5121,
			"count":4,
			"type":"VEC4"
		},
		{
			"bufferView":29,
			"componentType":5126,
			"count":4,
			"type":"VEC4"
		},
		{
			"bufferView":30,
			"componentType":5126,
			"count":1,
			"type":"MAT4"
		},
		{
			"bufferView":31,
			"componentType":5126,
			"count":32,
			"max":[
				1.2916666666666667
			],
			"min":[
				0
			],
			"type":"SCALAR"
		},
		{
			"bufferView":32,
			"componentType":5126,
			"count":32,
			"type":"VEC3"
		},
		{
			"bufferView":33,
			"componentType":5126,
			"count":2,
			"max":[
				1.2916666666666667
			],
			"min":[
				0
			],
			"type":"SCALAR"
		},
		{
			"bufferView":34,
			"componentType":5126,
			"count":2,
			"type":"VEC4"
		},
		{
			"bufferView":35,
			"componentType":5126,
			"count":32,
			"type":"VEC3"
		},
		{
			"bufferView":36,
			"componentType":5126,
			"count":32,
			"type":"VEC3"
		},
		{
			"bufferView":37,
			"componentType":5126,
			"count":2,
			"type":"VEC4"
		},
		{
			"bufferView":38,
			"componentType":5126,
			"count":32,
			"type":"VEC3"
		},
		{
			"bufferView":39,
			"componentType":5126,
			"count":32,
			"type":"VEC3"
		},
		{
			"bufferView":40,
			"componentType":5126,
			"count":2,
			"type":"VEC4"
		},
		{
			"bufferView":41,
			"componentType":5126,
			"count":2,
			"type":"VEC3"
		},
		{
			"bufferView":42,
			"componentType":5126,
			"count":2,
			"type":"VEC3"
		},
		{
			"bufferView":43,
			"componentType":5126,
			"count":2,
			"type":"VEC4"
		},
		{
			"bufferView":44,
			"componentType":5126,
			"count":32,
			"type":"VEC3"
		}
	],
	"bufferViews":[
		{
			"buffer":0,
			"byteLength":2316,
			"byteOffset":0,
			"target":34962
		},
		{
			"buffer":0,
			"byteLength":2316,
			"byteOffset":2316,
			"target":34962
		},
		{
			"buffer":0,
			"byteLength":1544,
			"byteOffset":4632,
			"target":34962
		},
		{
			"buffer":0,
			"byteLength":3088,
			"byteOffset":6176,
			"target":34962
		},
		{
			"buffer":0,
			"byteLength":772,
			"byteOffset":9264,
			"target":34962
		},
		{
			"buffer":0,
			"byteLength":3088,
			"byteOffset":10036,
			"target":34962
		},
		{
			"buffer":0,
			"byteLength":720,
			"byteOffset":13124,
			"target":34963
		},
		{
			"buffer":0,
			"byteLength":64,
			"byteOffset":13844
		},
		{
			"buffer":0,
			"byteLength":1968,
			"byteOffset":13908,
			"target":34962
		},
		{
			"buffer":0,
			"byteLength":1968,
			"byteOffset":15876,
			"target":34962
		},
		{
			"buffer":0,
			"byteLength":1312,
			"byteOffset":17844,
			"target":34962
		},
		{
			"buffer":0,
			"byteLength":2624,
			"byteOffset":19156,
			"target":34962
		},
		{
			"buffer":0,
			"byteLength":656,
			"byteOffset":21780,
			"target":34962
		},
		{
			"buffer":0,
			"byteLength":2624,
			"byteOffset":22436,
			"target":34962
		},
		{
			"buffer":0,
			"byteLength":720,
			"byteOffset":25060,
			"target":34963
		},
		{
			"buffer":0,
			"byteLength":64,
			"byteOffset":25780
		},
		{
			"buffer":0,
			"byteLength":48,
			"byteOffset":25844,
			"target":34962
		},
		{
			"buffer":0,
			"byteLength":48,
			"byteOffset":25892,
			"target":34962
		},
		{
			"buffer":0,
			"byteLength":32,
			"byteOffset":25940,
			"target":34962
		},
		{
			"buffer":0,
			"byteLength":64,
			"byteOffset":25972,
			"target":34962
		},
		{
			"buffer":0,
			"byteLength":16,
			"byteOffset":26036,
			"target":34962
		},
		{
			"buffer":0,
			"byteLength":64,
			"byteOffset":26052,
			"target":34962
		},
		{
			"buffer":0,
			"byteLength":12,
			"byteOffset":26116,
			"target":34963
		},
		{
			"buffer":0,
			"byteLength":64,
			"byteOffset":26128
		},
		{
			"buffer":0,
			"byteLength":48,
			"byteOffset":26192,
			"target":34962
		},
		{
			"buffer":0,
			"byteLength":48,
			"byteOffset":26240,
			"target":34962
		},
		{
			"buffer":0,
			"byteLength":32,
			"byteOffset":26288,
			"target":34962
		},
		{
			"buffer":0,
			"byteLength":64,
			"byteOffset":26320,
			"target":34962
		},
		{
			"buffer":0,
			"byteLength":16,
			"byteOffset":26384,
			"target":34962
		},
		{
			"buffer":0,
			"byteLength":64,
			"byteOffset":26400,
			"target":34962
		},
		{
			"buffer":0,
			"byteLength":64,
			"byteOffset":26464
		},
		{
			"buffer":0,
			"byteLength":128,
			"byteOffset":26528
		},
		{
			"buffer":0,
			"byteLength":384,
			"byteOffset":26656
		},
		{
			"buffer":0,
			"byteLength":8,
			"byteOffset":27040
		},
		{
			"buffer":0,
			"byteLength":32,
			"byteOffset":27048
		},
		{
			"buffer":0,
			"byteLength":384,
			"byteOffset":27080
		},
		{
			"buffer":0,
			"byteLength":384,
			"byteOffset":27464
		},
		{
			"buffer":0,
			"byteLength":32,
			"byteOffset":27848
		},
		{
			"buffer":0,
			"byteLength":384,
			"byteOffset":27880
		},
		{
			"buffer":0,
			"byteLength":384,
			"byteOffset":28264
		},
		{
			"buffer":0,
			"byteLength":32,
			"byteOffset":28648
		},
		{
			"buffer":0,
			"byteLength":24,
			"byteOffset":28680
		},
		{
			"buffer":0,
			"byteLength":24,
			"byteOffset":28704
		},
		{
			"buffer":0,
			"byteLength":32,
			"byteOffset":28728
		},
		{
			"buffer":0,
			"byteLength":384,
			"byteOffset":28760
		}
	],
	"samplers":[
		{
			"magFilter":9729,
			"minFilter":9987
		}
	],
	"buffers":[
		{
			"byteLength":29144,
			"uri":"VFX_Riastrad.bin"
		}
	]
}
