{
	"asset":{
		"generator":"Khronos glTF Blender I/O v4.4.56",
		"version":"2.0"
	},
	"scene":0,
	"scenes":[
		{
			"name":"Scene",
			"nodes":[
				17
			]
		}
	],
	"nodes":[
		{
			"name":"jnt_glow",
			"rotation":[
				-8.557128339248266e-09,
				1.4901162970204496e-08,
				-2.9289774629255106e-16,
				1
			],
			"scale":[
				0.9999999403953552,
				0.9999998807907104,
				0.9999999403953552
			],
			"translation":[
				3.0407682061195374e-07,
				0.2486914098262787,
				3.795139491558075e-07
			]
		},
		{
			"mesh":0,
			"name":"mesh_general_glow",
			"skin":0
		},
		{
			"children":[
				1,
				0
			],
			"name":"vfx_glow",
			"scale":[
				1.0709131956100464,
				1.0709131956100464,
				1.0709131956100464
			],
			"translation":[
				0,
				1.7451934814453125,
				0
			]
		},
		{
			"name":"jnt_shadow",
			"rotation":[
				-8.557125674713006e-09,
				1.4901162970204496e-08,
				-4.039198899363891e-16,
				1
			],
			"scale":[
				0.9999999403953552,
				0.9999998807907104,
				0.9999999403953552
			],
			"translation":[
				3.0081719160079956e-07,
				0.2445698082447052,
				3.045424818992615e-07
			]
		},
		{
			"mesh":1,
			"name":"mesh_dark_glow",
			"skin":1
		},
		{
			"children":[
				4,
				3
			],
			"name":"vfx_shadow",
			"scale":[
				1.0709131956100464,
				1.0709131956100464,
				1.0709131956100464
			],
			"translation":[
				0,
				1.7072738409042358,
				0
			]
		},
		{
			"children":[
				2,
				5
			],
			"name":"VFX_Banshee_ShoutBase_Ring",
			"rotation":[
				0,
				0.07774046063423157,
				0,
				0.9969736337661743
			],
			"translation":[
				-0.05375399440526962,
				-1.312767744064331,
				-0.026393814012408257
			]
		},
		{
			"name":"jnt_smoke",
			"rotation":[
				-3.8359463161441454e-08,
				4.24903703333257e-08,
				-7.271918142010057e-16,
				1
			],
			"scale":[
				0.9999999403953552,
				0.9999998211860657,
				0.9999998211860657
			],
			"translation":[
				-3.3155083656311035e-07,
				0.031325697898864746,
				0
			]
		},
		{
			"mesh":2,
			"name":"mesh_smoke_a",
			"skin":2
		},
		{
			"children":[
				8,
				7
			],
			"name":"vfx_smoke_a",
			"scale":[
				1.0709131956100464,
				1.0709131956100464,
				1.0709131956100464
			]
		},
		{
			"name":"jnt_smoke",
			"rotation":[
				-8.557136332854043e-09,
				1.4901162970204496e-08,
				-7.085364429333218e-17,
				1
			],
			"scale":[
				0.9999999403953552,
				0.9999998807907104,
				0.9999999403953552
			],
			"translation":[
				-2.9206275939941406e-06,
				0.015633821487426758,
				9.313225746154785e-10
			]
		},
		{
			"mesh":3,
			"name":"mesh_smoke_a.001",
			"skin":3
		},
		{
			"children":[
				11,
				10
			],
			"name":"vfx_smoke_b",
			"rotation":[
				0,
				-0.6087614297866821,
				0,
				0.7933533787727356
			],
			"scale":[
				1.0709131956100464,
				1.0709131956100464,
				1.0709131956100464
			]
		},
		{
			"name":"jnt_smoke",
			"rotation":[
				-8.557137221032463e-09,
				1.4901161193847656e-08,
				-2.928983286277023e-16,
				1
			],
			"scale":[
				1,
				0.9999999403953552,
				1
			],
			"translation":[
				-5.502719432115555e-06,
				-5.805492401123047e-05,
				-9.313225746154785e-10
			]
		},
		{
			"mesh":4,
			"name":"mesh_smoke_a.002",
			"skin":4
		},
		{
			"children":[
				14,
				13
			],
			"name":"vfx_smoke_c",
			"rotation":[
				0,
				0.4738803207874298,
				0,
				0.8805893063545227
			],
			"scale":[
				1.0709131956100464,
				1.0709131956100464,
				1.0709131956100464
			]
		},
		{
			"children":[
				9,
				12,
				15
			],
			"name":"VFX_Banshee_ShoutBase_Smoke",
			"translation":[
				-0.05375399440526962,
				-1.312767744064331,
				-0.026393814012408257
			]
		},
		{
			"children":[
				6,
				16
			],
			"name":"VFX_Banshee_shoutBase"
		}
	],
	"animations":[
		{
			"channels":[
				{
					"sampler":0,
					"target":{
						"node":7,
						"path":"translation"
					}
				},
				{
					"sampler":1,
					"target":{
						"node":7,
						"path":"rotation"
					}
				},
				{
					"sampler":2,
					"target":{
						"node":7,
						"path":"scale"
					}
				},
				{
					"sampler":3,
					"target":{
						"node":10,
						"path":"translation"
					}
				},
				{
					"sampler":4,
					"target":{
						"node":10,
						"path":"rotation"
					}
				},
				{
					"sampler":5,
					"target":{
						"node":10,
						"path":"scale"
					}
				},
				{
					"sampler":6,
					"target":{
						"node":13,
						"path":"translation"
					}
				},
				{
					"sampler":7,
					"target":{
						"node":13,
						"path":"rotation"
					}
				},
				{
					"sampler":8,
					"target":{
						"node":13,
						"path":"scale"
					}
				}
			],
			"name":"VFX_smoke",
			"samplers":[
				{
					"input":39,
					"interpolation":"LINEAR",
					"output":40
				},
				{
					"input":41,
					"interpolation":"STEP",
					"output":42
				},
				{
					"input":39,
					"interpolation":"LINEAR",
					"output":43
				},
				{
					"input":39,
					"interpolation":"LINEAR",
					"output":44
				},
				{
					"input":41,
					"interpolation":"STEP",
					"output":45
				},
				{
					"input":39,
					"interpolation":"LINEAR",
					"output":46
				},
				{
					"input":39,
					"interpolation":"LINEAR",
					"output":47
				},
				{
					"input":41,
					"interpolation":"STEP",
					"output":48
				},
				{
					"input":39,
					"interpolation":"LINEAR",
					"output":49
				}
			]
		}
	],
	"materials":[
		{
			"alphaMode":"BLEND",
			"name":"general_glow_darker",
			"pbrMetallicRoughness":{
				"baseColorFactor":[
					0.6038274168968201,
					0.6038274168968201,
					0.6038274168968201,
					1
				],
				"baseColorTexture":{
					"index":0
				},
				"metallicFactor":0
			}
		},
		{
			"alphaMode":"BLEND",
			"name":"general_glow1",
			"pbrMetallicRoughness":{
				"baseColorFactor":[
					0.6038274168968201,
					0.6038274168968201,
					0.6038274168968201,
					1
				],
				"baseColorTexture":{
					"index":1
				},
				"metallicFactor":0
			}
		},
		{
			"alphaMode":"BLEND",
			"name":"dark_glow1",
			"pbrMetallicRoughness":{
				"baseColorFactor":[
					0.6038274168968201,
					0.6038274168968201,
					0.6038274168968201,
					1
				],
				"baseColorTexture":{
					"index":2
				},
				"metallicFactor":0
			}
		},
		{
			"alphaMode":"BLEND",
			"name":"smoke",
			"pbrMetallicRoughness":{
				"baseColorFactor":[
					0.6038274168968201,
					0.6038274168968201,
					0.6038274168968201,
					1
				],
				"baseColorTexture":{
					"index":3
				},
				"metallicFactor":0
			}
		}
	],
	"meshes":[
		{
			"name":"mesh_general_glow",
			"primitives":[
				{
					"attributes":{
						"POSITION":0,
						"NORMAL":1,
						"TEXCOORD_0":2,
						"JOINTS_0":3,
						"WEIGHTS_0":4
					},
					"indices":5,
					"material":0
				},
				{
					"attributes":{
						"POSITION":6,
						"NORMAL":7,
						"TEXCOORD_0":8,
						"JOINTS_0":9,
						"WEIGHTS_0":10
					},
					"indices":11,
					"material":1
				}
			]
		},
		{
			"name":"mesh_dark_glow",
			"primitives":[
				{
					"attributes":{
						"POSITION":13,
						"NORMAL":14,
						"TEXCOORD_0":15,
						"JOINTS_0":16,
						"WEIGHTS_0":17
					},
					"indices":18,
					"material":2
				}
			]
		},
		{
			"name":"mesh_smoke_a",
			"primitives":[
				{
					"attributes":{
						"POSITION":20,
						"NORMAL":21,
						"TEXCOORD_0":22,
						"JOINTS_0":23,
						"WEIGHTS_0":24
					},
					"indices":25,
					"material":3
				}
			]
		},
		{
			"name":"mesh_smoke_a.001",
			"primitives":[
				{
					"attributes":{
						"POSITION":27,
						"NORMAL":28,
						"TEXCOORD_0":29,
						"JOINTS_0":30,
						"WEIGHTS_0":31
					},
					"indices":25,
					"material":3
				}
			]
		},
		{
			"name":"mesh_smoke_a.002",
			"primitives":[
				{
					"attributes":{
						"POSITION":33,
						"NORMAL":34,
						"TEXCOORD_0":35,
						"JOINTS_0":36,
						"WEIGHTS_0":37
					},
					"indices":25,
					"material":3
				}
			]
		}
	],
	"textures":[
		{
			"sampler":0,
			"source":0
		},
		{
			"sampler":0,
			"source":1
		},
		{
			"sampler":0,
			"source":2
		},
		{
			"sampler":0,
			"source":3
		}
	],
	"images":[
		{
			"mimeType":"image/png",
			"name":"v2",
			"uri":"v2.png"
		},
		{
			"mimeType":"image/png",
			"name":"v2",
			"uri":"v2-1.png"
		},
		{
			"mimeType":"image/png",
			"name":"v3",
			"uri":"v3.png"
		},
		{
			"mimeType":"image/png",
			"name":"v5",
			"uri":"v5.png"
		}
	],
	"skins":[
		{
			"inverseBindMatrices":12,
			"joints":[
				0
			],
			"name":"vfx_glow"
		},
		{
			"inverseBindMatrices":19,
			"joints":[
				3
			],
			"name":"vfx_shadow"
		},
		{
			"inverseBindMatrices":26,
			"joints":[
				7
			],
			"name":"vfx_smoke_a"
		},
		{
			"inverseBindMatrices":32,
			"joints":[
				10
			],
			"name":"vfx_smoke_b"
		},
		{
			"inverseBindMatrices":38,
			"joints":[
				13
			],
			"name":"vfx_smoke_c"
		}
	],
	"accessors":[
		{
			"bufferView":0,
			"componentType":5126,
			"count":65,
			"max":[
				2.3177146911621094,
				0.698753297328949,
				1.0664849281311035
			],
			"min":[
				-2.4252235889434814,
				0.698753297328949,
				-2.3978636264801025
			],
			"type":"VEC3"
		},
		{
			"bufferView":1,
			"componentType":5126,
			"count":65,
			"type":"VEC3"
		},
		{
			"bufferView":2,
			"componentType":5126,
			"count":65,
			"type":"VEC2"
		},
		{
			"bufferView":3,
			"componentType":5121,
			"count":65,
			"type":"VEC4"
		},
		{
			"bufferView":4,
			"componentType":5126,
			"count":65,
			"type":"VEC4"
		},
		{
			"bufferView":5,
			"componentType":5123,
			"count":288,
			"type":"SCALAR"
		},
		{
			"bufferView":6,
			"componentType":5126,
			"count":50,
			"max":[
				2.08351993560791,
				0.698753297328949,
				2.3450756072998047
			],
			"min":[
				-2.4252235889434814,
				0.698753297328949,
				-0.007788749877363443
			],
			"type":"VEC3"
		},
		{
			"bufferView":7,
			"componentType":5126,
			"count":50,
			"type":"VEC3"
		},
		{
			"bufferView":8,
			"componentType":5126,
			"count":50,
			"type":"VEC2"
		},
		{
			"bufferView":9,
			"componentType":5121,
			"count":50,
			"type":"VEC4"
		},
		{
			"bufferView":10,
			"componentType":5126,
			"count":50,
			"type":"VEC4"
		},
		{
			"bufferView":11,
			"componentType":5123,
			"count":192,
			"type":"SCALAR"
		},
		{
			"bufferView":12,
			"componentType":5126,
			"count":1,
			"type":"MAT4"
		},
		{
			"bufferView":13,
			"componentType":5126,
			"count":63,
			"max":[
				2.086108684539795,
				0.656420111656189,
				2.113469123840332
			],
			"min":[
				-2.193617582321167,
				0.656420111656189,
				-2.166257619857788
			],
			"type":"VEC3"
		},
		{
			"bufferView":14,
			"componentType":5126,
			"count":63,
			"type":"VEC3"
		},
		{
			"bufferView":15,
			"componentType":5126,
			"count":63,
			"type":"VEC2"
		},
		{
			"bufferView":16,
			"componentType":5121,
			"count":63,
			"type":"VEC4"
		},
		{
			"bufferView":17,
			"componentType":5126,
			"count":63,
			"type":"VEC4"
		},
		{
			"bufferView":18,
			"componentType":5123,
			"count":240,
			"type":"SCALAR"
		},
		{
			"bufferView":19,
			"componentType":5126,
			"count":1,
			"type":"MAT4"
		},
		{
			"bufferView":20,
			"componentType":5126,
			"count":44,
			"max":[
				1.9628872871398926,
				-0.6771907806396484,
				1.9902421236038208
			],
			"min":[
				-2.070384979248047,
				-1.2926321029663086,
				-2.043030261993408
			],
			"type":"VEC3"
		},
		{
			"bufferView":21,
			"componentType":5126,
			"count":44,
			"type":"VEC3"
		},
		{
			"bufferView":22,
			"componentType":5126,
			"count":44,
			"type":"VEC2"
		},
		{
			"bufferView":23,
			"componentType":5121,
			"count":44,
			"type":"VEC4"
		},
		{
			"bufferView":24,
			"componentType":5126,
			"count":44,
			"type":"VEC4"
		},
		{
			"bufferView":25,
			"componentType":5123,
			"count":120,
			"type":"SCALAR"
		},
		{
			"bufferView":26,
			"componentType":5126,
			"count":1,
			"type":"MAT4"
		},
		{
			"bufferView":27,
			"componentType":5126,
			"count":44,
			"max":[
				1.9601205587387085,
				-0.6939952373504639,
				1.987481951713562
			],
			"min":[
				-2.067626714706421,
				-1.3094367980957031,
				-2.040264844894409
			],
			"type":"VEC3"
		},
		{
			"bufferView":28,
			"componentType":5126,
			"count":44,
			"type":"VEC3"
		},
		{
			"bufferView":29,
			"componentType":5126,
			"count":44,
			"type":"VEC2"
		},
		{
			"bufferView":30,
			"componentType":5121,
			"count":44,
			"type":"VEC4"
		},
		{
			"bufferView":31,
			"componentType":5126,
			"count":44,
			"type":"VEC4"
		},
		{
			"bufferView":32,
			"componentType":5126,
			"count":1,
			"type":"MAT4"
		},
		{
			"bufferView":33,
			"componentType":5126,
			"count":44,
			"max":[
				1.960849642753601,
				-0.7107998132705688,
				1.9882104396820068
			],
			"min":[
				-2.0683586597442627,
				-1.3262414932250977,
				-2.040998935699463
			],
			"type":"VEC3"
		},
		{
			"bufferView":34,
			"componentType":5126,
			"count":44,
			"type":"VEC3"
		},
		{
			"bufferView":35,
			"componentType":5126,
			"count":44,
			"type":"VEC2"
		},
		{
			"bufferView":36,
			"componentType":5121,
			"count":44,
			"type":"VEC4"
		},
		{
			"bufferView":37,
			"componentType":5126,
			"count":44,
			"type":"VEC4"
		},
		{
			"bufferView":38,
			"componentType":5126,
			"count":1,
			"type":"MAT4"
		},
		{
			"bufferView":39,
			"componentType":5126,
			"count":17,
			"max":[
				0.6666666666666666
			],
			"min":[
				0
			],
			"type":"SCALAR"
		},
		{
			"bufferView":40,
			"componentType":5126,
			"count":17,
			"type":"VEC3"
		},
		{
			"bufferView":41,
			"componentType":5126,
			"count":2,
			"max":[
				0.6666666666666666
			],
			"min":[
				0
			],
			"type":"SCALAR"
		},
		{
			"bufferView":42,
			"componentType":5126,
			"count":2,
			"type":"VEC4"
		},
		{
			"bufferView":43,
			"componentType":5126,
			"count":17,
			"type":"VEC3"
		},
		{
			"bufferView":44,
			"componentType":5126,
			"count":17,
			"type":"VEC3"
		},
		{
			"bufferView":45,
			"componentType":5126,
			"count":2,
			"type":"VEC4"
		},
		{
			"bufferView":46,
			"componentType":5126,
			"count":17,
			"type":"VEC3"
		},
		{
			"bufferView":47,
			"componentType":5126,
			"count":17,
			"type":"VEC3"
		},
		{
			"bufferView":48,
			"componentType":5126,
			"count":2,
			"type":"VEC4"
		},
		{
			"bufferView":49,
			"componentType":5126,
			"count":17,
			"type":"VEC3"
		}
	],
	"bufferViews":[
		{
			"buffer":0,
			"byteLength":780,
			"byteOffset":0,
			"target":34962
		},
		{
			"buffer":0,
			"byteLength":780,
			"byteOffset":780,
			"target":34962
		},
		{
			"buffer":0,
			"byteLength":520,
			"byteOffset":1560,
			"target":34962
		},
		{
			"buffer":0,
			"byteLength":260,
			"byteOffset":2080,
			"target":34962
		},
		{
			"buffer":0,
			"byteLength":1040,
			"byteOffset":2340,
			"target":34962
		},
		{
			"buffer":0,
			"byteLength":576,
			"byteOffset":3380,
			"target":34963
		},
		{
			"buffer":0,
			"byteLength":600,
			"byteOffset":3956,
			"target":34962
		},
		{
			"buffer":0,
			"byteLength":600,
			"byteOffset":4556,
			"target":34962
		},
		{
			"buffer":0,
			"byteLength":400,
			"byteOffset":5156,
			"target":34962
		},
		{
			"buffer":0,
			"byteLength":200,
			"byteOffset":5556,
			"target":34962
		},
		{
			"buffer":0,
			"byteLength":800,
			"byteOffset":5756,
			"target":34962
		},
		{
			"buffer":0,
			"byteLength":384,
			"byteOffset":6556,
			"target":34963
		},
		{
			"buffer":0,
			"byteLength":64,
			"byteOffset":6940
		},
		{
			"buffer":0,
			"byteLength":756,
			"byteOffset":7004,
			"target":34962
		},
		{
			"buffer":0,
			"byteLength":756,
			"byteOffset":7760,
			"target":34962
		},
		{
			"buffer":0,
			"byteLength":504,
			"byteOffset":8516,
			"target":34962
		},
		{
			"buffer":0,
			"byteLength":252,
			"byteOffset":9020,
			"target":34962
		},
		{
			"buffer":0,
			"byteLength":1008,
			"byteOffset":9272,
			"target":34962
		},
		{
			"buffer":0,
			"byteLength":480,
			"byteOffset":10280,
			"target":34963
		},
		{
			"buffer":0,
			"byteLength":64,
			"byteOffset":10760
		},
		{
			"buffer":0,
			"byteLength":528,
			"byteOffset":10824,
			"target":34962
		},
		{
			"buffer":0,
			"byteLength":528,
			"byteOffset":11352,
			"target":34962
		},
		{
			"buffer":0,
			"byteLength":352,
			"byteOffset":11880,
			"target":34962
		},
		{
			"buffer":0,
			"byteLength":176,
			"byteOffset":12232,
			"target":34962
		},
		{
			"buffer":0,
			"byteLength":704,
			"byteOffset":12408,
			"target":34962
		},
		{
			"buffer":0,
			"byteLength":240,
			"byteOffset":13112,
			"target":34963
		},
		{
			"buffer":0,
			"byteLength":64,
			"byteOffset":13352
		},
		{
			"buffer":0,
			"byteLength":528,
			"byteOffset":13416,
			"target":34962
		},
		{
			"buffer":0,
			"byteLength":528,
			"byteOffset":13944,
			"target":34962
		},
		{
			"buffer":0,
			"byteLength":352,
			"byteOffset":14472,
			"target":34962
		},
		{
			"buffer":0,
			"byteLength":176,
			"byteOffset":14824,
			"target":34962
		},
		{
			"buffer":0,
			"byteLength":704,
			"byteOffset":15000,
			"target":34962
		},
		{
			"buffer":0,
			"byteLength":64,
			"byteOffset":15704
		},
		{
			"buffer":0,
			"byteLength":528,
			"byteOffset":15768,
			"target":34962
		},
		{
			"buffer":0,
			"byteLength":528,
			"byteOffset":16296,
			"target":34962
		},
		{
			"buffer":0,
			"byteLength":352,
			"byteOffset":16824,
			"target":34962
		},
		{
			"buffer":0,
			"byteLength":176,
			"byteOffset":17176,
			"target":34962
		},
		{
			"buffer":0,
			"byteLength":704,
			"byteOffset":17352,
			"target":34962
		},
		{
			"buffer":0,
			"byteLength":64,
			"byteOffset":18056
		},
		{
			"buffer":0,
			"byteLength":68,
			"byteOffset":18120
		},
		{
			"buffer":0,
			"byteLength":204,
			"byteOffset":18188
		},
		{
			"buffer":0,
			"byteLength":8,
			"byteOffset":18392
		},
		{
			"buffer":0,
			"byteLength":32,
			"byteOffset":18400
		},
		{
			"buffer":0,
			"byteLength":204,
			"byteOffset":18432
		},
		{
			"buffer":0,
			"byteLength":204,
			"byteOffset":18636
		},
		{
			"buffer":0,
			"byteLength":32,
			"byteOffset":18840
		},
		{
			"buffer":0,
			"byteLength":204,
			"byteOffset":18872
		},
		{
			"buffer":0,
			"byteLength":204,
			"byteOffset":19076
		},
		{
			"buffer":0,
			"byteLength":32,
			"byteOffset":19280
		},
		{
			"buffer":0,
			"byteLength":204,
			"byteOffset":19312
		}
	],
	"samplers":[
		{
			"magFilter":9729,
			"minFilter":9987
		}
	],
	"buffers":[
		{
			"byteLength":19516,
			"uri":"vfx_banshee_shoutbase.bin"
		}
	]
}
