{
	"asset":{
		"generator":"Khronos glTF Blender I/O v4.4.56",
		"version":"2.0"
	},
	"scene":0,
	"scenes":[
		{
			"name":"Scene",
			"nodes":[
				153
			]
		}
	],
	"nodes":[
		{
			"name":"transform27"
		},
		{
			"children":[
				0
			],
			"name":"vfx_banshee_index_tip",
			"rotation":[
				0.19571422040462494,
				0.00642172759398818,
				0.731820285320282,
				0.6527586579322815
			],
			"translation":[
				0.8928127288818359,
				1.075688123703003,
				-0.3371240496635437
			]
		},
		{
			"children":[
				1
			],
			"name":"jnt_index_3",
			"rotation":[
				0.015676556155085564,
				0.10243718326091766,
				0.15046066045761108,
				0.9831696152687073
			],
			"scale":[
				1.0000001192092896,
				1.0000001192092896,
				1.0000001192092896
			],
			"translation":[
				0.06861795485019684,
				8.649512892588973e-05,
				-0.0028631105087697506
			]
		},
		{
			"name":"transform28"
		},
		{
			"children":[
				3
			],
			"name":"vfx_banshee_index_2",
			"rotation":[
				0.27665266394615173,
				0.0911552831530571,
				0.7977701425552368,
				0.5279363989830017
			],
			"scale":[
				1.0000001192092896,
				1,
				1.0000001192092896
			],
			"translation":[
				0.5179787874221802,
				1.2935541868209839,
				-0.44205304980278015
			]
		},
		{
			"children":[
				2,
				4
			],
			"name":"jnt_index_2",
			"rotation":[
				0.03265933319926262,
				0.14051124453544617,
				0.22403299808502197,
				0.9638460278511047
			],
			"scale":[
				1.0000001192092896,
				0.9999998807907104,
				1
			],
			"translation":[
				0.08675314486026764,
				-0.001909592654556036,
				-0.0045539215207099915
			]
		},
		{
			"name":"transform29"
		},
		{
			"children":[
				6
			],
			"name":"vfx_banshee_index_1",
			"rotation":[
				0.37556540966033936,
				0.19796431064605713,
				0.8513076305389404,
				0.3082791864871979
			],
			"scale":[
				0.9999999403953552,
				1.0000001192092896,
				1
			],
			"translation":[
				-0.1406903713941574,
				1.387487530708313,
				-0.398050457239151
			]
		},
		{
			"children":[
				5,
				7
			],
			"name":"jnt_index_1",
			"rotation":[
				2.1737012190214955e-08,
				-0.3339514136314392,
				-7.237436960849664e-08,
				0.9425902962684631
			],
			"scale":[
				0.9999998807907104,
				1,
				0.9999999403953552
			],
			"translation":[
				0.05616508424282074,
				1.83936208486557e-08,
				0.04074554890394211
			]
		},
		{
			"name":"transform24"
		},
		{
			"children":[
				9
			],
			"name":"vfx_banshee_mid__tip",
			"rotation":[
				0.06412739306688309,
				0.05677345022559166,
				0.7754983901977539,
				0.6255131959915161
			],
			"translation":[
				0.7971789240837097,
				1.1282532215118408,
				-0.44447875022888184
			]
		},
		{
			"children":[
				10
			],
			"name":"jnt_mid_3",
			"rotation":[
				0.04679536446928978,
				0.14596013724803925,
				0.3016902506351471,
				0.9410041570663452
			],
			"scale":[
				1,
				1,
				1.0000001192092896
			],
			"translation":[
				0.06854765117168427,
				0.02236640453338623,
				-0.0014738428872078657
			]
		},
		{
			"name":"transform25"
		},
		{
			"children":[
				12
			],
			"name":"vfx_banshee_mid_2",
			"rotation":[
				0.18567915260791779,
				0.12778088450431824,
				0.9117550253868103,
				0.3433627486228943
			],
			"scale":[
				1,
				1.0000001192092896,
				1
			],
			"translation":[
				-0.07319235056638718,
				1.4038127660751343,
				-0.422812819480896
			]
		},
		{
			"children":[
				11,
				13
			],
			"name":"jnt_mid_2",
			"rotation":[
				-1.6398657987082288e-09,
				0.11054982244968414,
				-9.80552030682702e-08,
				0.9938706159591675
			],
			"scale":[
				0.9999999403953552,
				1,
				1
			],
			"translation":[
				0.10262377560138702,
				-0.01632516272366047,
				-0.004002273082733154
			]
		},
		{
			"name":"transform26"
		},
		{
			"children":[
				15
			],
			"name":"vfx_banshee_mid_1",
			"rotation":[
				0.28533461689949036,
				0.1649560034275055,
				0.885640025138855,
				0.32713210582733154
			],
			"scale":[
				1.000000238418579,
				1.0000001192092896,
				1.0000003576278687
			],
			"translation":[
				-0.061689600348472595,
				1.3874880075454712,
				-0.4003971815109253
			]
		},
		{
			"children":[
				14,
				16
			],
			"name":"jnt_mid_1",
			"rotation":[
				1.1496397611665543e-08,
				-0.23448607325553894,
				-5.34103463678548e-08,
				0.9721195101737976
			],
			"scale":[
				0.9999999403953552,
				0.9999999403953552,
				0.9999998807907104
			],
			"translation":[
				0.06981737166643143,
				-6.9267116487026215e-09,
				0.027396610006690025
			]
		},
		{
			"name":"transform18"
		},
		{
			"children":[
				18
			],
			"name":"vfx_banshee_pinky_tip",
			"rotation":[
				0.41645875573158264,
				0.21269969642162323,
				0.8320674300193787,
				0.29830309748649597
			],
			"translation":[
				-0.2513855993747711,
				1.3600366115570068,
				-0.25692424178123474
			]
		},
		{
			"children":[
				19
			],
			"name":"jnt_pinky_3",
			"rotation":[
				-4.059070946027532e-08,
				-0.2671400308609009,
				1.7483321457234524e-08,
				0.9636577367782593
			],
			"scale":[
				0.9999999403953552,
				0.9999999403953552,
				1
			],
			"translation":[
				0.055143292993307114,
				0.027451109141111374,
				-0.0016712199430912733
			]
		},
		{
			"name":"transform19"
		},
		{
			"children":[
				21
			],
			"name":"vfx_banshee_pinky_2",
			"rotation":[
				0.17904525995254517,
				0.12528103590011597,
				0.9130810499191284,
				0.34428268671035767
			],
			"scale":[
				1.0000001192092896,
				0.9999998211860657,
				1
			],
			"translation":[
				-0.028081947937607765,
				1.3874874114990234,
				-0.3513544797897339
			]
		},
		{
			"children":[
				20,
				22
			],
			"name":"jnt_pinky_2",
			"rotation":[
				-0.9953494071960449,
				2.818619861955085e-07,
				0.09633071720600128,
				7.391825818103825e-08
			],
			"scale":[
				0.9999998807907104,
				0.9999998807907104,
				0.9999999403953552
			],
			"translation":[
				0.057977039366960526,
				-1.1874362826347351e-08,
				1.1548399925231934e-07
			]
		},
		{
			"name":"transform20"
		},
		{
			"children":[
				24
			],
			"name":"vfx_banshee_pinky_1",
			"rotation":[
				-0.3547499477863312,
				0.926082193851471,
				-0.0915333554148674,
				0.09025479108095169
			],
			"scale":[
				0.9999999403953552,
				1,
				0.9999998807907104
			],
			"translation":[
				0.09779404103755951,
				-1.3874874114990234,
				0.3502185642719269
			]
		},
		{
			"children":[
				23,
				25
			],
			"name":"jnt_pinky_1",
			"rotation":[
				-0.9997543692588806,
				2.60834440268809e-07,
				-0.02216177247464657,
				1.58363775426551e-08
			],
			"scale":[
				0.9999999403953552,
				0.9999997615814209,
				0.9999999403953552
			],
			"translation":[
				0.08423439413309097,
				-7.62520357966423e-08,
				-0.011552928015589714
			]
		},
		{
			"name":"transform23"
		},
		{
			"children":[
				27
			],
			"name":"vfx_banshee_mid_tip",
			"rotation":[
				0.21598650515079498,
				0.11398476362228394,
				0.8210246562957764,
				0.5160192251205444
			],
			"translation":[
				0.3877934515476227,
				1.2884851694107056,
				-0.4496443271636963
			]
		},
		{
			"children":[
				28
			],
			"name":"jnt_ring_3",
			"rotation":[
				-7.196567963774214e-08,
				-0.06177009269595146,
				-2.9159515690935223e-08,
				0.998090386390686
			],
			"scale":[
				0.9999999403953552,
				1.0000001192092896,
				1.0000001192092896
			],
			"translation":[
				0.06791877746582031,
				0.0034861774183809757,
				0.000770237238612026
			]
		},
		{
			"name":"transform22"
		},
		{
			"children":[
				30
			],
			"name":"vfx_banshee_ring_2",
			"rotation":[
				0.164859339594841,
				0.08189258724451065,
				0.8327983617782593,
				0.5220746397972107
			],
			"scale":[
				0.9999999403953552,
				0.9999999403953552,
				1.0000001192092896
			],
			"translation":[
				0.5081960558891296,
				1.2919710874557495,
				-0.39762625098228455
			]
		},
		{
			"children":[
				29,
				31
			],
			"name":"jnt_ring_2",
			"rotation":[
				0.022328762337565422,
				0.11165356636047363,
				0.1948249638080597,
				0.9742064476013184
			],
			"scale":[
				0.9999999403953552,
				0.9999999403953552,
				1
			],
			"translation":[
				0.08261528611183167,
				-0.000561953173018992,
				-0.0012894331011921167
			]
		},
		{
			"name":"transform21"
		},
		{
			"children":[
				33
			],
			"name":"vfx_banshee_ring_1",
			"rotation":[
				0.24929362535476685,
				0.15159471333026886,
				0.8964523673057556,
				0.33353397250175476
			],
			"scale":[
				1,
				0.9999998807907104,
				0.9999999403953552
			],
			"translation":[
				-0.03438922390341759,
				1.3874876499176025,
				-0.38232406973838806
			]
		},
		{
			"children":[
				32,
				34
			],
			"name":"jnt_ring_1",
			"rotation":[
				9.495489949884472e-10,
				-0.194990336894989,
				-1.3174992830045085e-07,
				0.9808051586151123
			],
			"scale":[
				0.9999999403953552,
				1,
				1
			],
			"translation":[
				0.08298877626657486,
				-2.4738255888223648e-08,
				0.009310845285654068
			]
		},
		{
			"name":"transform30"
		},
		{
			"children":[
				36
			],
			"name":"vfx_banshee_thumb_tip",
			"rotation":[
				0.25057923793792725,
				-0.11538482457399368,
				0.839922308921814,
				0.4673616588115692
			],
			"translation":[
				0.49387189745903015,
				1.2968482971191406,
				0.12362438440322876
			]
		},
		{
			"children":[
				37
			],
			"name":"jnt_thumb_3",
			"rotation":[
				-6.921628425970994e-08,
				0.092758409678936,
				-1.9642460102886616e-08,
				0.9956886768341064
			],
			"scale":[
				0.9999998807907104,
				1,
				1
			],
			"translation":[
				0.048410288989543915,
				0.002881895750761032,
				0.002666715532541275
			]
		},
		{
			"name":"transform31"
		},
		{
			"children":[
				39
			],
			"name":"vfx_banshee_thumb_2",
			"rotation":[
				0.32740873098373413,
				-0.07153559476137161,
				0.8130578398704529,
				0.4760495722293854
			],
			"scale":[
				1,
				1,
				0.9999999403953552
			],
			"translation":[
				0.5566190481185913,
				1.2997300624847412,
				0.03293716907501221
			]
		},
		{
			"children":[
				38,
				40
			],
			"name":"jnt_thumb_2",
			"rotation":[
				4.345684345707923e-08,
				0.3328975737094879,
				2.3703732310309533e-08,
				0.9429630041122437
			],
			"scale":[
				1,
				1,
				0.9999999403953552
			],
			"translation":[
				0.08757545053958893,
				0.0038288962095975876,
				-0.014732711017131805
			]
		},
		{
			"name":"transform32"
		},
		{
			"children":[
				42
			],
			"name":"vfx_banshee_thumb_1",
			"rotation":[
				0.5793980956077576,
				0.09101951122283936,
				0.6576908826828003,
				0.47271135449409485
			],
			"scale":[
				1.000000238418579,
				1.000000238418579,
				1
			],
			"translation":[
				0.5415042638778687,
				1.3035591840744019,
				-0.33855098485946655
			]
		},
		{
			"children":[
				41,
				43
			],
			"name":"jnt_thumb_1",
			"rotation":[
				-0.14427700638771057,
				-0.4846744239330292,
				0.2461363524198532,
				0.8268565535545349
			],
			"scale":[
				0.9999999403953552,
				0.9999999403953552,
				0.9999998807907104
			],
			"translation":[
				0.02886068820953369,
				5.21540641784668e-08,
				0.03477899730205536
			]
		},
		{
			"name":"transform17"
		},
		{
			"children":[
				45
			],
			"name":"vfx_banshee_palm",
			"rotation":[
				0.06970963627099991,
				0.08364927023649216,
				0.9278548955917358,
				0.35669130086898804
			],
			"scale":[
				1,
				1,
				0.9999998807907104
			],
			"translation":[
				0.19745099544525146,
				1.387487769126892,
				-0.35709404945373535
			]
		},
		{
			"children":[
				8,
				17,
				26,
				35,
				44,
				46
			],
			"name":"jnt_wrist",
			"rotation":[
				-0.09403054416179657,
				0.07801951467990875,
				0.8983795046806335,
				0.4218832552433014
			],
			"scale":[
				1,
				1,
				1.0000001192092896
			],
			"translation":[
				0.28875213861465454,
				0.008959989994764328,
				0.000294690253213048
			]
		},
		{
			"children":[
				47
			],
			"name":"jnt_arm",
			"rotation":[
				0.4712579846382141,
				0.527177095413208,
				0.47125810384750366,
				0.5271772742271423
			],
			"scale":[
				0.9999999403953552,
				0.9999998211860657,
				0.9999954104423523
			],
			"translation":[
				3.3306689994292145e-18,
				-0.3727429211139679,
				-0.1970309019088745
			]
		},
		{
			"mesh":0,
			"name":"H1_vfx_banshee",
			"skin":0
		},
		{
			"children":[
				49,
				48
			],
			"name":"H1"
		},
		{
			"name":"transform42"
		},
		{
			"children":[
				51
			],
			"name":"vfx_banshee_index_tip.001",
			"rotation":[
				0.19571422040462494,
				0.00642172759398818,
				0.731820285320282,
				0.6527585983276367
			],
			"translation":[
				0.8928123712539673,
				1.075688123703003,
				-0.3371240198612213
			]
		},
		{
			"children":[
				52
			],
			"name":"jnt_index_3.001",
			"rotation":[
				0.01567651890218258,
				0.10243716835975647,
				0.15046066045761108,
				0.9831696152687073
			],
			"scale":[
				1,
				1.0000001192092896,
				1.0000001192092896
			],
			"translation":[
				0.06861791014671326,
				8.64444300532341e-05,
				-0.002863050438463688
			]
		},
		{
			"name":"transform44"
		},
		{
			"children":[
				54
			],
			"name":"vfx_banshee_index_2.001",
			"rotation":[
				0.27665266394615173,
				0.0911552831530571,
				0.7977701425552368,
				0.5279363989830017
			],
			"scale":[
				1,
				0.9999999403953552,
				1.0000001192092896
			],
			"translation":[
				0.5179786682128906,
				1.2935540676116943,
				-0.44205302000045776
			]
		},
		{
			"children":[
				53,
				55
			],
			"name":"jnt_index_2",
			"rotation":[
				0.032659463584423065,
				0.14051073789596558,
				0.22403302788734436,
				0.9638460874557495
			],
			"scale":[
				0.9999999403953552,
				0.9999998807907104,
				1
			],
			"translation":[
				0.08675310760736465,
				-0.0019095961470156908,
				-0.00455392524600029
			]
		},
		{
			"name":"transform43"
		},
		{
			"children":[
				57
			],
			"name":"vfx_banshee_index_1.001",
			"rotation":[
				0.37556546926498413,
				0.19796428084373474,
				0.8513076901435852,
				0.3082791566848755
			],
			"scale":[
				0.9999999403953552,
				0.9999999403953552,
				0.9999999403953552
			],
			"translation":[
				-0.1406903862953186,
				1.3874876499176025,
				-0.3980504870414734
			]
		},
		{
			"children":[
				56,
				58
			],
			"name":"jnt_index_1",
			"rotation":[
				3.5569652112599215e-08,
				-0.33395108580589294,
				2.0946573897617782e-07,
				0.9425904154777527
			],
			"scale":[
				1,
				0.9999998807907104,
				1
			],
			"translation":[
				0.05616515129804611,
				5.587935447692871e-08,
				0.04074550420045853
			]
		},
		{
			"name":"transform39"
		},
		{
			"children":[
				60
			],
			"name":"vfx_banshee_mid__tip.001",
			"rotation":[
				0.0641273707151413,
				0.05677346885204315,
				0.7754983901977539,
				0.6255131959915161
			],
			"translation":[
				0.797179102897644,
				1.1282531023025513,
				-0.44447869062423706
			]
		},
		{
			"children":[
				61
			],
			"name":"jnt_mid_3.001",
			"rotation":[
				0.04679536819458008,
				0.14596012234687805,
				0.3016902506351471,
				0.9410041570663452
			],
			"scale":[
				1,
				1,
				1.000000238418579
			],
			"translation":[
				0.06854768842458725,
				0.022366415709257126,
				-0.001473827287554741
			]
		},
		{
			"name":"transform41"
		},
		{
			"children":[
				63
			],
			"name":"vfx_banshee_mid_2.001",
			"rotation":[
				0.18567915260791779,
				0.12778091430664062,
				0.9117550849914551,
				0.3433627486228943
			],
			"translation":[
				-0.07319219410419464,
				1.4038128852844238,
				-0.42281290888786316
			]
		},
		{
			"children":[
				62,
				64
			],
			"name":"jnt_mid_2",
			"rotation":[
				2.1552523321588524e-08,
				0.11054962873458862,
				4.123091201790885e-08,
				0.9938706159591675
			],
			"translation":[
				0.10262385755777359,
				-0.016325119882822037,
				-0.004002314992249012
			]
		},
		{
			"name":"transform40"
		},
		{
			"children":[
				66
			],
			"name":"vfx_banshee_mid_1.001",
			"rotation":[
				0.28533464670181274,
				0.1649560183286667,
				0.885640025138855,
				0.32713210582733154
			],
			"scale":[
				1.000000238418579,
				1,
				1.000000238418579
			],
			"translation":[
				-0.06168965995311737,
				1.387487769126892,
				-0.40039706230163574
			]
		},
		{
			"children":[
				65,
				67
			],
			"name":"jnt_mid_1",
			"rotation":[
				-3.6546058131245625e-15,
				-0.2344859093427658,
				1.41788902396911e-07,
				0.9721195101737976
			],
			"scale":[
				0.9999999403953552,
				0.9999998807907104,
				1.0000001192092896
			],
			"translation":[
				0.06981737166643143,
				3.5390257835388184e-08,
				0.02739661931991577
			]
		},
		{
			"name":"transform33"
		},
		{
			"children":[
				69
			],
			"name":"vfx_banshee_pinky_tip.001",
			"rotation":[
				0.41645869612693787,
				0.21269969642162323,
				0.8320674896240234,
				0.2983030676841736
			],
			"scale":[
				1.0000001192092896,
				1.0000001192092896,
				1.0000001192092896
			],
			"translation":[
				-0.25138548016548157,
				1.360036849975586,
				-0.2569243013858795
			]
		},
		{
			"children":[
				70
			],
			"name":"jnt_pinky_3",
			"rotation":[
				1.517319105914794e-07,
				-0.2671397030353546,
				1.3916813657033344e-07,
				0.9636578559875488
			],
			"scale":[
				0.9999999403953552,
				0.9999998807907104,
				1
			],
			"translation":[
				0.055143263190984726,
				0.02745114453136921,
				-0.0016712695360183716
			]
		},
		{
			"name":"transform35"
		},
		{
			"children":[
				72
			],
			"name":"vfx_banshee_pinky_2.001",
			"rotation":[
				0.17904523015022278,
				0.12528102099895477,
				0.9130809903144836,
				0.34428268671035767
			],
			"scale":[
				1.000000238418579,
				1.0000001192092896,
				1.0000003576278687
			],
			"translation":[
				-0.028081931173801422,
				1.3874880075454712,
				-0.3513544201850891
			]
		},
		{
			"children":[
				71,
				73
			],
			"name":"jnt_pinky_2",
			"rotation":[
				0.9953494071960449,
				3.4058533060488116e-07,
				-0.09633070975542068,
				1.927488568753688e-07
			],
			"scale":[
				1,
				1,
				0.9999999403953552
			],
			"translation":[
				0.05797712877392769,
				2.60770320892334e-08,
				1.2852251529693604e-07
			]
		},
		{
			"name":"transform34"
		},
		{
			"children":[
				75
			],
			"name":"vfx_banshee_pinky_1.001",
			"rotation":[
				-0.35474997758865356,
				0.9260821342468262,
				-0.0915333554148674,
				0.0902547612786293
			],
			"scale":[
				0.9999999403953552,
				1.0000001192092896,
				1.0000001192092896
			],
			"translation":[
				0.09779410809278488,
				-1.3874880075454712,
				0.35021862387657166
			]
		},
		{
			"children":[
				74,
				76
			],
			"name":"jnt_pinky_1",
			"rotation":[
				-0.9997543692588806,
				-3.819361893420137e-07,
				-0.02216162532567978,
				1.620899752197147e-07
			],
			"scale":[
				0.9999999403953552,
				0.9999996423721313,
				0.9999999403953552
			],
			"translation":[
				0.08423441648483276,
				-1.862645149230957e-08,
				-0.011552910320460796
			]
		},
		{
			"name":"transform37"
		},
		{
			"children":[
				78
			],
			"name":"vfx_banshee_mid_tip.001",
			"rotation":[
				0.21598656475543976,
				0.11398480832576752,
				0.8210247159004211,
				0.5160192251205444
			],
			"translation":[
				0.3877934217453003,
				1.288484811782837,
				-0.44964420795440674
			]
		},
		{
			"children":[
				79
			],
			"name":"jnt_ring_3.001",
			"rotation":[
				-7.173240135216474e-08,
				-0.061770062893629074,
				-1.1197252014483183e-08,
				0.998090386390686
			],
			"scale":[
				1.0000001192092896,
				1.0000001192092896,
				1.0000001192092896
			],
			"translation":[
				0.06791873276233673,
				0.003486202098429203,
				0.0007702060975134373
			]
		},
		{
			"name":"transform38"
		},
		{
			"children":[
				81
			],
			"name":"vfx_banshee_ring_2.001",
			"rotation":[
				0.16485938429832458,
				0.08189260959625244,
				0.8327983617782593,
				0.5220745801925659
			],
			"scale":[
				1.0000001192092896,
				1,
				1
			],
			"translation":[
				0.5081957578659058,
				1.291971206665039,
				-0.3976261615753174
			]
		},
		{
			"children":[
				80,
				82
			],
			"name":"jnt_ring_2",
			"rotation":[
				0.022328734397888184,
				0.1116533949971199,
				0.19482508301734924,
				0.9742063879966736
			],
			"scale":[
				0.9999998807907104,
				0.9999999403953552,
				1
			],
			"translation":[
				0.08261526376008987,
				-0.0005619330331683159,
				-0.0012894412502646446
			]
		},
		{
			"name":"transform36"
		},
		{
			"children":[
				84
			],
			"name":"vfx_banshee_ring_1.001",
			"rotation":[
				0.24929361045360565,
				0.15159474313259125,
				0.8964523077011108,
				0.33353403210639954
			],
			"scale":[
				0.9999998807907104,
				0.9999998807907104,
				1
			],
			"translation":[
				-0.034389346837997437,
				1.3874872922897339,
				-0.38232406973838806
			]
		},
		{
			"children":[
				83,
				85
			],
			"name":"jnt_ring_1",
			"rotation":[
				-1.8991015426905733e-09,
				-0.1949901133775711,
				1.7091883819375653e-07,
				0.9808052182197571
			],
			"scale":[
				0.9999999403953552,
				0.9999998807907104,
				1
			],
			"translation":[
				0.08298883587121964,
				2.0489096641540527e-08,
				0.009310869500041008
			]
		},
		{
			"name":"transform46"
		},
		{
			"children":[
				87
			],
			"name":"vfx_banshee_thumb_tip.001",
			"rotation":[
				0.25057923793792725,
				-0.11538484692573547,
				0.8399223685264587,
				0.4673616290092468
			],
			"translation":[
				0.4938719570636749,
				1.2968480587005615,
				0.12362439930438995
			]
		},
		{
			"children":[
				88
			],
			"name":"jnt_thumb_3.001",
			"rotation":[
				-7.295771098370096e-08,
				0.0927584320306778,
				7.482847230733114e-09,
				0.9956886768341064
			],
			"scale":[
				0.9999999403953552,
				1.0000001192092896,
				1
			],
			"translation":[
				0.048410262912511826,
				0.002881886437535286,
				0.0026666969060897827
			]
		},
		{
			"name":"transform47"
		},
		{
			"children":[
				90
			],
			"name":"vfx_banshee_thumb_2.001",
			"rotation":[
				0.32740870118141174,
				-0.07153558731079102,
				0.8130578398704529,
				0.476049542427063
			],
			"scale":[
				1.0000001192092896,
				1.0000001192092896,
				0.9999999403953552
			],
			"translation":[
				0.5566191673278809,
				1.2997300624847412,
				0.032937198877334595
			]
		},
		{
			"children":[
				89,
				91
			],
			"name":"jnt_thumb_2",
			"rotation":[
				1.1851865266976347e-08,
				0.33289721608161926,
				1.5012362553079583e-07,
				0.9429631233215332
			],
			"scale":[
				0.9999999403953552,
				1,
				1
			],
			"translation":[
				0.08757548034191132,
				0.0038288775831460953,
				-0.014732792973518372
			]
		},
		{
			"name":"transform45"
		},
		{
			"children":[
				93
			],
			"name":"vfx_banshee_thumb_1.001",
			"rotation":[
				0.5793980956077576,
				0.09101948887109756,
				0.6576908826828003,
				0.47271135449409485
			],
			"scale":[
				1,
				1.0000001192092896,
				1
			],
			"translation":[
				0.5415043830871582,
				1.3035591840744019,
				-0.3385511040687561
			]
		},
		{
			"children":[
				92,
				94
			],
			"name":"jnt_thumb_1",
			"rotation":[
				-0.1442766785621643,
				-0.4846744239330292,
				0.2461365908384323,
				0.8268565535545349
			],
			"scale":[
				0.9999999403953552,
				0.9999998211860657,
				0.9999998807907104
			],
			"translation":[
				0.028860710561275482,
				6.332993507385254e-08,
				0.034778960049152374
			]
		},
		{
			"name":"transform48"
		},
		{
			"children":[
				96
			],
			"name":"vfx_banshee_palm.001",
			"rotation":[
				0.06970963627099991,
				0.08364928513765335,
				0.9278548955917358,
				0.3566913604736328
			],
			"scale":[
				0.9999998211860657,
				0.9999998211860657,
				0.9999998807907104
			],
			"translation":[
				0.19745111465454102,
				1.3874872922897339,
				-0.35709404945373535
			]
		},
		{
			"children":[
				59,
				68,
				77,
				86,
				95,
				97
			],
			"name":"jnt_wrist",
			"rotation":[
				-0.09403038024902344,
				0.07801955938339233,
				0.898379385471344,
				0.42188355326652527
			],
			"scale":[
				0.9999997615814209,
				0.9999998211860657,
				0.9999999403953552
			],
			"translation":[
				0.28875213861465454,
				0.008959975093603134,
				0.0002946339373011142
			]
		},
		{
			"children":[
				98
			],
			"name":"jnt_arm",
			"rotation":[
				0.4712580442428589,
				0.527177095413208,
				0.4712580144405365,
				0.5271773338317871
			],
			"scale":[
				0.9999999403953552,
				0.9999998807907104,
				0.9999963045120239
			],
			"translation":[
				2.7391700518528062e-17,
				-0.3727429211139679,
				-0.1970309019088745
			]
		},
		{
			"mesh":1,
			"name":"H2_vfx_banshee",
			"skin":1
		},
		{
			"children":[
				100,
				99
			],
			"name":"H2",
			"rotation":[
				0,
				0.8944456577301025,
				0,
				0.44717690348625183
			]
		},
		{
			"name":"transform4"
		},
		{
			"children":[
				102
			],
			"name":"vfx_banshee_index_tip.002",
			"rotation":[
				0.19571414589881897,
				0.006421707570552826,
				0.7318202257156372,
				0.6527587175369263
			],
			"translation":[
				0.8928124308586121,
				1.0756878852844238,
				-0.3371239900588989
			]
		},
		{
			"children":[
				103
			],
			"name":"jnt_index_3.002",
			"rotation":[
				0.015676533803343773,
				0.10243715345859528,
				0.1504606306552887,
				0.9831696152687073
			],
			"scale":[
				1,
				1.0000001192092896,
				1
			],
			"translation":[
				0.06861797720193863,
				8.647982031106949e-05,
				-0.0028631165623664856
			]
		},
		{
			"name":"transform7"
		},
		{
			"children":[
				105
			],
			"name":"vfx_banshee_index_2.002",
			"rotation":[
				0.27665266394615173,
				0.09115526080131531,
				0.7977701425552368,
				0.5279365181922913
			],
			"scale":[
				0.9999999403953552,
				0.9999999403953552,
				0.9999998807907104
			],
			"translation":[
				0.5179790258407593,
				1.2935540676116943,
				-0.44205307960510254
			]
		},
		{
			"children":[
				104,
				106
			],
			"name":"jnt_index_2",
			"rotation":[
				0.03265935555100441,
				0.1405107080936432,
				0.22403298318386078,
				0.9638461470603943
			],
			"translation":[
				0.08675306290388107,
				-0.001909581944346428,
				-0.004553929902613163
			]
		},
		{
			"name":"transform6"
		},
		{
			"children":[
				108
			],
			"name":"vfx_banshee_index_1.002",
			"rotation":[
				0.37556537985801697,
				0.19796425104141235,
				0.8513076901435852,
				0.3082791566848755
			],
			"scale":[
				1.0000001192092896,
				1,
				0.9999998807907104
			],
			"translation":[
				-0.1406903862953186,
				1.3874876499176025,
				-0.3980505168437958
			]
		},
		{
			"children":[
				107,
				109
			],
			"name":"jnt_index_1",
			"rotation":[
				1.976107055767784e-09,
				-0.33395126461982727,
				4.1408389961361536e-07,
				0.9425903558731079
			],
			"scale":[
				0.9999999403953552,
				1.0000001192092896,
				0.9999999403953552
			],
			"translation":[
				0.0561651773750782,
				2.60770320892334e-08,
				0.04074551537632942
			]
		},
		{
			"name":"transform3"
		},
		{
			"children":[
				111
			],
			"name":"vfx_banshee_mid__tip.002",
			"rotation":[
				0.06412740051746368,
				0.05677345022559166,
				0.7754984498023987,
				0.6255131363868713
			],
			"translation":[
				0.7971792221069336,
				1.1282532215118408,
				-0.44447872042655945
			]
		},
		{
			"children":[
				112
			],
			"name":"jnt_mid_3.002",
			"rotation":[
				0.04679535701870918,
				0.14596015214920044,
				0.30169031023979187,
				0.9410040974617004
			],
			"scale":[
				1,
				1.0000001192092896,
				1.0000001192092896
			],
			"translation":[
				0.06854765117168427,
				0.02236642874777317,
				-0.0014738759491592646
			]
		},
		{
			"name":"transform12"
		},
		{
			"children":[
				114
			],
			"name":"vfx_banshee_mid_2.002",
			"rotation":[
				0.1856791377067566,
				0.12778086960315704,
				0.9117551445960999,
				0.3433627188205719
			],
			"scale":[
				1,
				1,
				1.0000001192092896
			],
			"translation":[
				-0.07319225370883942,
				1.4038127660751343,
				-0.4228127896785736
			]
		},
		{
			"children":[
				113,
				115
			],
			"name":"jnt_mid_2",
			"rotation":[
				2.623785277933166e-08,
				0.1105496883392334,
				-4.216797933054295e-08,
				0.9938706159591675
			],
			"translation":[
				0.10262371599674225,
				-0.01632511429488659,
				-0.004002280533313751
			]
		},
		{
			"name":"transform15"
		},
		{
			"children":[
				117
			],
			"name":"vfx_banshee_mid_1.002",
			"rotation":[
				0.28533464670181274,
				0.1649560034275055,
				0.885640025138855,
				0.32713213562965393
			],
			"scale":[
				1.000000238418579,
				0.9999999403953552,
				1.0000001192092896
			],
			"translation":[
				-0.061689674854278564,
				1.3874878883361816,
				-0.40039709210395813
			]
		},
		{
			"children":[
				116,
				118
			],
			"name":"jnt_mid_1",
			"rotation":[
				-3.640525036985309e-08,
				-0.23448602855205536,
				3.6117842228122754e-07,
				0.9721194505691528
			],
			"scale":[
				1.0000001192092896,
				1.0000001192092896,
				1
			],
			"translation":[
				0.069817453622818,
				1.30385160446167e-08,
				0.027396630495786667
			]
		},
		{
			"name":"transform10"
		},
		{
			"children":[
				120
			],
			"name":"vfx_banshee_pinky_tip.002",
			"rotation":[
				0.41645878553390503,
				0.21269972622394562,
				0.8320675492286682,
				0.29830309748649597
			],
			"translation":[
				-0.25138571858406067,
				1.3600364923477173,
				-0.25692424178123474
			]
		},
		{
			"children":[
				121
			],
			"name":"jnt_pinky_3.001",
			"rotation":[
				-4.3490032908266585e-08,
				-0.2671400308609009,
				1.836245999697894e-08,
				0.9636577367782593
			],
			"scale":[
				1,
				1.000000238418579,
				1.0000001192092896
			],
			"translation":[
				0.05514325574040413,
				0.027451036497950554,
				-0.0016712215729057789
			]
		},
		{
			"name":"transform11"
		},
		{
			"children":[
				123
			],
			"name":"vfx_banshee_pinky_2.002",
			"rotation":[
				0.17904525995254517,
				0.12528102099895477,
				0.9130809903144836,
				0.34428271651268005
			],
			"scale":[
				1.000000238418579,
				1.0000001192092896,
				1.0000001192092896
			],
			"translation":[
				-0.028081845492124557,
				1.3874878883361816,
				-0.3513544499874115
			]
		},
		{
			"children":[
				122,
				124
			],
			"name":"jnt_pinky_2",
			"rotation":[
				-0.9953494071960449,
				-8.458493425678171e-07,
				0.09633059054613113,
				2.152050342374423e-07
			],
			"scale":[
				1,
				0.9999998807907104,
				1
			],
			"translation":[
				0.057977087795734406,
				9.406358003616333e-08,
				5.4016709327697754e-08
			]
		},
		{
			"name":"transform14"
		},
		{
			"children":[
				126
			],
			"name":"vfx_banshee_pinky_1.002",
			"rotation":[
				-0.35474997758865356,
				0.926082193851471,
				-0.091533362865448,
				0.0902547836303711
			],
			"scale":[
				0.9999999403953552,
				0.9999999403953552,
				0.9999998807907104
			],
			"translation":[
				0.09779402613639832,
				-1.387487769126892,
				0.35021862387657166
			]
		},
		{
			"children":[
				125,
				127
			],
			"name":"jnt_pinky_1",
			"rotation":[
				0.9997543692588806,
				7.86229350069334e-07,
				0.022161664441227913,
				2.1705147901229793e-07
			],
			"translation":[
				0.08423442393541336,
				-1.862645149230957e-08,
				-0.011552912183105946
			]
		},
		{
			"name":"transform2"
		},
		{
			"children":[
				129
			],
			"name":"vfx_banshee_mid_tip.002",
			"rotation":[
				0.21598650515079498,
				0.11398477107286453,
				0.8210246562957764,
				0.5160192251205444
			],
			"translation":[
				0.3877936005592346,
				1.2884851694107056,
				-0.4496443569660187
			]
		},
		{
			"children":[
				130
			],
			"name":"jnt_ring_3.002",
			"rotation":[
				-4.6771862827199584e-08,
				-0.06177007779479027,
				-1.492967172112003e-08,
				0.998090386390686
			],
			"scale":[
				1,
				1,
				1.0000001192092896
			],
			"translation":[
				0.0679188072681427,
				0.003486200235784054,
				0.0007702282164245844
			]
		},
		{
			"name":"transform13"
		},
		{
			"children":[
				132
			],
			"name":"vfx_banshee_ring_2.002",
			"rotation":[
				0.164859339594841,
				0.08189255744218826,
				0.8327983617782593,
				0.5220746397972107
			],
			"scale":[
				1,
				1,
				1.0000001192092896
			],
			"translation":[
				0.5081959962844849,
				1.2919710874557495,
				-0.39762619137763977
			]
		},
		{
			"children":[
				131,
				133
			],
			"name":"jnt_ring_2",
			"rotation":[
				0.02232866920530796,
				0.11165337264537811,
				0.19482490420341492,
				0.9742064476013184
			],
			"scale":[
				1.0000001192092896,
				1,
				1
			],
			"translation":[
				0.08261527866125107,
				-0.0005619358271360397,
				-0.0012894105166196823
			]
		},
		{
			"name":"transform1"
		},
		{
			"children":[
				135
			],
			"name":"vfx_banshee_ring_1.002",
			"rotation":[
				0.24929359555244446,
				0.15159469842910767,
				0.8964523673057556,
				0.33353397250175476
			],
			"scale":[
				1,
				1.0000001192092896,
				1
			],
			"translation":[
				-0.03438913822174072,
				1.3874876499176025,
				-0.38232389092445374
			]
		},
		{
			"children":[
				134,
				136
			],
			"name":"jnt_ring_1",
			"rotation":[
				-3.608285581435666e-08,
				-0.19499005377292633,
				4.0260874811792746e-07,
				0.9808052182197571
			],
			"scale":[
				1,
				1.0000001192092896,
				1
			],
			"translation":[
				0.08298879861831665,
				-3.725290298461914e-09,
				0.00931088998913765
			]
		},
		{
			"name":"transform9"
		},
		{
			"children":[
				138
			],
			"name":"vfx_banshee_thumb_tip.002",
			"rotation":[
				0.25057917833328247,
				-0.11538484692573547,
				0.839922308921814,
				0.467361718416214
			],
			"translation":[
				0.4938719570636749,
				1.296847939491272,
				0.12362444400787354
			]
		},
		{
			"children":[
				139
			],
			"name":"jnt_thumb_3.002",
			"rotation":[
				-6.360414772643708e-08,
				0.0927584320306778,
				2.104550089754298e-09,
				0.9956886768341064
			],
			"scale":[
				1,
				1.0000001192092896,
				1.0000001192092896
			],
			"translation":[
				0.048410266637802124,
				0.002881910651922226,
				0.002666701562702656
			]
		},
		{
			"name":"transform8"
		},
		{
			"children":[
				141
			],
			"name":"vfx_banshee_thumb_2.002",
			"rotation":[
				0.32740873098373413,
				-0.07153557240962982,
				0.8130578398704529,
				0.47604963183403015
			],
			"scale":[
				1.0000001192092896,
				1,
				1
			],
			"translation":[
				0.5566190481185913,
				1.2997303009033203,
				0.03293715417385101
			]
		},
		{
			"children":[
				140,
				142
			],
			"name":"jnt_thumb_2",
			"rotation":[
				3.85185607854055e-08,
				0.33289727568626404,
				2.0740763773119397e-08,
				0.9429631233215332
			],
			"translation":[
				0.08757548034191132,
				0.0038289399817585945,
				-0.014732817187905312
			]
		},
		{
			"name":"transform5"
		},
		{
			"children":[
				144
			],
			"name":"vfx_banshee_thumb_1.002",
			"rotation":[
				0.5793980360031128,
				0.09101949632167816,
				0.6576908826828003,
				0.47271135449409485
			],
			"scale":[
				1.0000001192092896,
				1,
				1.0000001192092896
			],
			"translation":[
				0.5415041446685791,
				1.3035590648651123,
				-0.3385509252548218
			]
		},
		{
			"children":[
				143,
				145
			],
			"name":"jnt_thumb_1",
			"rotation":[
				-0.1442766785621643,
				-0.4846743643283844,
				0.24613668024539948,
				0.8268565535545349
			],
			"scale":[
				0.9999998807907104,
				0.9999998211860657,
				1
			],
			"translation":[
				0.028860725462436676,
				-3.725290298461914e-09,
				0.03477901965379715
			]
		},
		{
			"name":"transform16"
		},
		{
			"children":[
				147
			],
			"name":"vfx_banshee_palm.002",
			"rotation":[
				0.06970961391925812,
				0.08364926278591156,
				0.9278548955917358,
				0.35669130086898804
			],
			"scale":[
				1,
				1.0000001192092896,
				1
			],
			"translation":[
				0.19745095074176788,
				1.3874878883361816,
				-0.3570942282676697
			]
		},
		{
			"children":[
				110,
				119,
				128,
				137,
				146,
				148
			],
			"name":"jnt_wrist",
			"rotation":[
				-0.09403035789728165,
				0.07801958918571472,
				0.8983793258666992,
				0.4218836724758148
			],
			"scale":[
				1.0000001192092896,
				1,
				1
			],
			"translation":[
				0.28875210881233215,
				0.008959951810538769,
				0.00029458588687703013
			]
		},
		{
			"children":[
				149
			],
			"name":"jnt_arm",
			"rotation":[
				0.4712580442428589,
				0.527177095413208,
				0.4712580442428589,
				0.5271773338317871
			],
			"scale":[
				0.9999999403953552,
				0.9999998807907104,
				0.9999963641166687
			],
			"translation":[
				2.193131420458179e-17,
				-0.3727429211139679,
				-0.1970309019088745
			]
		},
		{
			"mesh":2,
			"name":"H3t_vfx_banshee",
			"skin":2
		},
		{
			"children":[
				151,
				150
			],
			"name":"H3",
			"rotation":[
				0,
				-0.8603620529174805,
				0,
				0.5096834301948547
			]
		},
		{
			"children":[
				50,
				101,
				152
			],
			"name":"handvfx_ring"
		}
	],
	"animations":[
		{
			"channels":[
				{
					"sampler":0,
					"target":{
						"node":48,
						"path":"translation"
					}
				},
				{
					"sampler":1,
					"target":{
						"node":48,
						"path":"rotation"
					}
				},
				{
					"sampler":2,
					"target":{
						"node":48,
						"path":"scale"
					}
				},
				{
					"sampler":3,
					"target":{
						"node":47,
						"path":"translation"
					}
				},
				{
					"sampler":4,
					"target":{
						"node":47,
						"path":"rotation"
					}
				},
				{
					"sampler":5,
					"target":{
						"node":47,
						"path":"scale"
					}
				},
				{
					"sampler":6,
					"target":{
						"node":8,
						"path":"translation"
					}
				},
				{
					"sampler":7,
					"target":{
						"node":8,
						"path":"rotation"
					}
				},
				{
					"sampler":8,
					"target":{
						"node":8,
						"path":"scale"
					}
				},
				{
					"sampler":9,
					"target":{
						"node":5,
						"path":"translation"
					}
				},
				{
					"sampler":10,
					"target":{
						"node":5,
						"path":"rotation"
					}
				},
				{
					"sampler":11,
					"target":{
						"node":5,
						"path":"scale"
					}
				},
				{
					"sampler":12,
					"target":{
						"node":17,
						"path":"translation"
					}
				},
				{
					"sampler":13,
					"target":{
						"node":17,
						"path":"rotation"
					}
				},
				{
					"sampler":14,
					"target":{
						"node":17,
						"path":"scale"
					}
				},
				{
					"sampler":15,
					"target":{
						"node":14,
						"path":"translation"
					}
				},
				{
					"sampler":16,
					"target":{
						"node":14,
						"path":"rotation"
					}
				},
				{
					"sampler":17,
					"target":{
						"node":14,
						"path":"scale"
					}
				},
				{
					"sampler":18,
					"target":{
						"node":26,
						"path":"translation"
					}
				},
				{
					"sampler":19,
					"target":{
						"node":26,
						"path":"rotation"
					}
				},
				{
					"sampler":20,
					"target":{
						"node":26,
						"path":"scale"
					}
				},
				{
					"sampler":21,
					"target":{
						"node":23,
						"path":"translation"
					}
				},
				{
					"sampler":22,
					"target":{
						"node":23,
						"path":"rotation"
					}
				},
				{
					"sampler":23,
					"target":{
						"node":23,
						"path":"scale"
					}
				},
				{
					"sampler":24,
					"target":{
						"node":35,
						"path":"translation"
					}
				},
				{
					"sampler":25,
					"target":{
						"node":35,
						"path":"rotation"
					}
				},
				{
					"sampler":26,
					"target":{
						"node":35,
						"path":"scale"
					}
				},
				{
					"sampler":27,
					"target":{
						"node":32,
						"path":"translation"
					}
				},
				{
					"sampler":28,
					"target":{
						"node":32,
						"path":"rotation"
					}
				},
				{
					"sampler":29,
					"target":{
						"node":32,
						"path":"scale"
					}
				},
				{
					"sampler":30,
					"target":{
						"node":44,
						"path":"translation"
					}
				},
				{
					"sampler":31,
					"target":{
						"node":44,
						"path":"rotation"
					}
				},
				{
					"sampler":32,
					"target":{
						"node":44,
						"path":"scale"
					}
				},
				{
					"sampler":33,
					"target":{
						"node":41,
						"path":"translation"
					}
				},
				{
					"sampler":34,
					"target":{
						"node":41,
						"path":"rotation"
					}
				},
				{
					"sampler":35,
					"target":{
						"node":41,
						"path":"scale"
					}
				},
				{
					"sampler":36,
					"target":{
						"node":2,
						"path":"translation"
					}
				},
				{
					"sampler":37,
					"target":{
						"node":2,
						"path":"rotation"
					}
				},
				{
					"sampler":38,
					"target":{
						"node":2,
						"path":"scale"
					}
				},
				{
					"sampler":39,
					"target":{
						"node":11,
						"path":"translation"
					}
				},
				{
					"sampler":40,
					"target":{
						"node":11,
						"path":"rotation"
					}
				},
				{
					"sampler":41,
					"target":{
						"node":11,
						"path":"scale"
					}
				},
				{
					"sampler":42,
					"target":{
						"node":20,
						"path":"translation"
					}
				},
				{
					"sampler":43,
					"target":{
						"node":20,
						"path":"rotation"
					}
				},
				{
					"sampler":44,
					"target":{
						"node":20,
						"path":"scale"
					}
				},
				{
					"sampler":45,
					"target":{
						"node":29,
						"path":"translation"
					}
				},
				{
					"sampler":46,
					"target":{
						"node":29,
						"path":"rotation"
					}
				},
				{
					"sampler":47,
					"target":{
						"node":29,
						"path":"scale"
					}
				},
				{
					"sampler":48,
					"target":{
						"node":38,
						"path":"translation"
					}
				},
				{
					"sampler":49,
					"target":{
						"node":38,
						"path":"rotation"
					}
				},
				{
					"sampler":50,
					"target":{
						"node":38,
						"path":"scale"
					}
				},
				{
					"sampler":51,
					"target":{
						"node":99,
						"path":"translation"
					}
				},
				{
					"sampler":52,
					"target":{
						"node":99,
						"path":"rotation"
					}
				},
				{
					"sampler":53,
					"target":{
						"node":99,
						"path":"scale"
					}
				},
				{
					"sampler":54,
					"target":{
						"node":98,
						"path":"translation"
					}
				},
				{
					"sampler":55,
					"target":{
						"node":98,
						"path":"rotation"
					}
				},
				{
					"sampler":56,
					"target":{
						"node":98,
						"path":"scale"
					}
				},
				{
					"sampler":57,
					"target":{
						"node":59,
						"path":"translation"
					}
				},
				{
					"sampler":58,
					"target":{
						"node":59,
						"path":"rotation"
					}
				},
				{
					"sampler":59,
					"target":{
						"node":59,
						"path":"scale"
					}
				},
				{
					"sampler":60,
					"target":{
						"node":56,
						"path":"translation"
					}
				},
				{
					"sampler":61,
					"target":{
						"node":56,
						"path":"rotation"
					}
				},
				{
					"sampler":62,
					"target":{
						"node":56,
						"path":"scale"
					}
				},
				{
					"sampler":63,
					"target":{
						"node":68,
						"path":"translation"
					}
				},
				{
					"sampler":64,
					"target":{
						"node":68,
						"path":"rotation"
					}
				},
				{
					"sampler":65,
					"target":{
						"node":68,
						"path":"scale"
					}
				},
				{
					"sampler":66,
					"target":{
						"node":65,
						"path":"translation"
					}
				},
				{
					"sampler":67,
					"target":{
						"node":65,
						"path":"rotation"
					}
				},
				{
					"sampler":68,
					"target":{
						"node":65,
						"path":"scale"
					}
				},
				{
					"sampler":69,
					"target":{
						"node":77,
						"path":"translation"
					}
				},
				{
					"sampler":70,
					"target":{
						"node":77,
						"path":"rotation"
					}
				},
				{
					"sampler":71,
					"target":{
						"node":77,
						"path":"scale"
					}
				},
				{
					"sampler":72,
					"target":{
						"node":74,
						"path":"translation"
					}
				},
				{
					"sampler":73,
					"target":{
						"node":74,
						"path":"rotation"
					}
				},
				{
					"sampler":74,
					"target":{
						"node":74,
						"path":"scale"
					}
				},
				{
					"sampler":75,
					"target":{
						"node":71,
						"path":"translation"
					}
				},
				{
					"sampler":76,
					"target":{
						"node":71,
						"path":"rotation"
					}
				},
				{
					"sampler":77,
					"target":{
						"node":71,
						"path":"scale"
					}
				},
				{
					"sampler":78,
					"target":{
						"node":86,
						"path":"translation"
					}
				},
				{
					"sampler":79,
					"target":{
						"node":86,
						"path":"rotation"
					}
				},
				{
					"sampler":80,
					"target":{
						"node":86,
						"path":"scale"
					}
				},
				{
					"sampler":81,
					"target":{
						"node":83,
						"path":"translation"
					}
				},
				{
					"sampler":82,
					"target":{
						"node":83,
						"path":"rotation"
					}
				},
				{
					"sampler":83,
					"target":{
						"node":83,
						"path":"scale"
					}
				},
				{
					"sampler":84,
					"target":{
						"node":95,
						"path":"translation"
					}
				},
				{
					"sampler":85,
					"target":{
						"node":95,
						"path":"rotation"
					}
				},
				{
					"sampler":86,
					"target":{
						"node":95,
						"path":"scale"
					}
				},
				{
					"sampler":87,
					"target":{
						"node":92,
						"path":"translation"
					}
				},
				{
					"sampler":88,
					"target":{
						"node":92,
						"path":"rotation"
					}
				},
				{
					"sampler":89,
					"target":{
						"node":92,
						"path":"scale"
					}
				},
				{
					"sampler":90,
					"target":{
						"node":53,
						"path":"translation"
					}
				},
				{
					"sampler":91,
					"target":{
						"node":53,
						"path":"rotation"
					}
				},
				{
					"sampler":92,
					"target":{
						"node":53,
						"path":"scale"
					}
				},
				{
					"sampler":93,
					"target":{
						"node":62,
						"path":"translation"
					}
				},
				{
					"sampler":94,
					"target":{
						"node":62,
						"path":"rotation"
					}
				},
				{
					"sampler":95,
					"target":{
						"node":62,
						"path":"scale"
					}
				},
				{
					"sampler":96,
					"target":{
						"node":80,
						"path":"translation"
					}
				},
				{
					"sampler":97,
					"target":{
						"node":80,
						"path":"rotation"
					}
				},
				{
					"sampler":98,
					"target":{
						"node":80,
						"path":"scale"
					}
				},
				{
					"sampler":99,
					"target":{
						"node":89,
						"path":"translation"
					}
				},
				{
					"sampler":100,
					"target":{
						"node":89,
						"path":"rotation"
					}
				},
				{
					"sampler":101,
					"target":{
						"node":89,
						"path":"scale"
					}
				},
				{
					"sampler":102,
					"target":{
						"node":150,
						"path":"translation"
					}
				},
				{
					"sampler":103,
					"target":{
						"node":150,
						"path":"rotation"
					}
				},
				{
					"sampler":104,
					"target":{
						"node":150,
						"path":"scale"
					}
				},
				{
					"sampler":105,
					"target":{
						"node":149,
						"path":"translation"
					}
				},
				{
					"sampler":106,
					"target":{
						"node":149,
						"path":"rotation"
					}
				},
				{
					"sampler":107,
					"target":{
						"node":149,
						"path":"scale"
					}
				},
				{
					"sampler":108,
					"target":{
						"node":110,
						"path":"translation"
					}
				},
				{
					"sampler":109,
					"target":{
						"node":110,
						"path":"rotation"
					}
				},
				{
					"sampler":110,
					"target":{
						"node":110,
						"path":"scale"
					}
				},
				{
					"sampler":111,
					"target":{
						"node":107,
						"path":"translation"
					}
				},
				{
					"sampler":112,
					"target":{
						"node":107,
						"path":"rotation"
					}
				},
				{
					"sampler":113,
					"target":{
						"node":107,
						"path":"scale"
					}
				},
				{
					"sampler":114,
					"target":{
						"node":119,
						"path":"translation"
					}
				},
				{
					"sampler":115,
					"target":{
						"node":119,
						"path":"rotation"
					}
				},
				{
					"sampler":116,
					"target":{
						"node":119,
						"path":"scale"
					}
				},
				{
					"sampler":117,
					"target":{
						"node":116,
						"path":"translation"
					}
				},
				{
					"sampler":118,
					"target":{
						"node":116,
						"path":"rotation"
					}
				},
				{
					"sampler":119,
					"target":{
						"node":116,
						"path":"scale"
					}
				},
				{
					"sampler":120,
					"target":{
						"node":128,
						"path":"translation"
					}
				},
				{
					"sampler":121,
					"target":{
						"node":128,
						"path":"rotation"
					}
				},
				{
					"sampler":122,
					"target":{
						"node":128,
						"path":"scale"
					}
				},
				{
					"sampler":123,
					"target":{
						"node":125,
						"path":"translation"
					}
				},
				{
					"sampler":124,
					"target":{
						"node":125,
						"path":"rotation"
					}
				},
				{
					"sampler":125,
					"target":{
						"node":125,
						"path":"scale"
					}
				},
				{
					"sampler":126,
					"target":{
						"node":137,
						"path":"translation"
					}
				},
				{
					"sampler":127,
					"target":{
						"node":137,
						"path":"rotation"
					}
				},
				{
					"sampler":128,
					"target":{
						"node":137,
						"path":"scale"
					}
				},
				{
					"sampler":129,
					"target":{
						"node":134,
						"path":"translation"
					}
				},
				{
					"sampler":130,
					"target":{
						"node":134,
						"path":"rotation"
					}
				},
				{
					"sampler":131,
					"target":{
						"node":134,
						"path":"scale"
					}
				},
				{
					"sampler":132,
					"target":{
						"node":146,
						"path":"translation"
					}
				},
				{
					"sampler":133,
					"target":{
						"node":146,
						"path":"rotation"
					}
				},
				{
					"sampler":134,
					"target":{
						"node":146,
						"path":"scale"
					}
				},
				{
					"sampler":135,
					"target":{
						"node":143,
						"path":"translation"
					}
				},
				{
					"sampler":136,
					"target":{
						"node":143,
						"path":"rotation"
					}
				},
				{
					"sampler":137,
					"target":{
						"node":143,
						"path":"scale"
					}
				},
				{
					"sampler":138,
					"target":{
						"node":104,
						"path":"translation"
					}
				},
				{
					"sampler":139,
					"target":{
						"node":104,
						"path":"rotation"
					}
				},
				{
					"sampler":140,
					"target":{
						"node":104,
						"path":"scale"
					}
				},
				{
					"sampler":141,
					"target":{
						"node":113,
						"path":"translation"
					}
				},
				{
					"sampler":142,
					"target":{
						"node":113,
						"path":"rotation"
					}
				},
				{
					"sampler":143,
					"target":{
						"node":113,
						"path":"scale"
					}
				},
				{
					"sampler":144,
					"target":{
						"node":122,
						"path":"translation"
					}
				},
				{
					"sampler":145,
					"target":{
						"node":122,
						"path":"rotation"
					}
				},
				{
					"sampler":146,
					"target":{
						"node":122,
						"path":"scale"
					}
				},
				{
					"sampler":147,
					"target":{
						"node":131,
						"path":"translation"
					}
				},
				{
					"sampler":148,
					"target":{
						"node":131,
						"path":"rotation"
					}
				},
				{
					"sampler":149,
					"target":{
						"node":131,
						"path":"scale"
					}
				},
				{
					"sampler":150,
					"target":{
						"node":140,
						"path":"translation"
					}
				},
				{
					"sampler":151,
					"target":{
						"node":140,
						"path":"rotation"
					}
				},
				{
					"sampler":152,
					"target":{
						"node":140,
						"path":"scale"
					}
				}
			],
			"name":"Hand_Launch",
			"samplers":[
				{
					"input":24,
					"interpolation":"LINEAR",
					"output":25
				},
				{
					"input":26,
					"interpolation":"STEP",
					"output":27
				},
				{
					"input":26,
					"interpolation":"STEP",
					"output":28
				},
				{
					"input":24,
					"interpolation":"LINEAR",
					"output":29
				},
				{
					"input":24,
					"interpolation":"LINEAR",
					"output":30
				},
				{
					"input":26,
					"interpolation":"STEP",
					"output":31
				},
				{
					"input":26,
					"interpolation":"LINEAR",
					"output":32
				},
				{
					"input":24,
					"interpolation":"LINEAR",
					"output":33
				},
				{
					"input":26,
					"interpolation":"STEP",
					"output":34
				},
				{
					"input":26,
					"interpolation":"LINEAR",
					"output":35
				},
				{
					"input":26,
					"interpolation":"LINEAR",
					"output":36
				},
				{
					"input":26,
					"interpolation":"STEP",
					"output":37
				},
				{
					"input":26,
					"interpolation":"LINEAR",
					"output":38
				},
				{
					"input":24,
					"interpolation":"LINEAR",
					"output":39
				},
				{
					"input":26,
					"interpolation":"STEP",
					"output":40
				},
				{
					"input":26,
					"interpolation":"LINEAR",
					"output":41
				},
				{
					"input":26,
					"interpolation":"LINEAR",
					"output":42
				},
				{
					"input":26,
					"interpolation":"STEP",
					"output":43
				},
				{
					"input":24,
					"interpolation":"LINEAR",
					"output":44
				},
				{
					"input":24,
					"interpolation":"LINEAR",
					"output":45
				},
				{
					"input":26,
					"interpolation":"LINEAR",
					"output":46
				},
				{
					"input":26,
					"interpolation":"LINEAR",
					"output":47
				},
				{
					"input":26,
					"interpolation":"LINEAR",
					"output":48
				},
				{
					"input":26,
					"interpolation":"STEP",
					"output":49
				},
				{
					"input":24,
					"interpolation":"LINEAR",
					"output":50
				},
				{
					"input":24,
					"interpolation":"LINEAR",
					"output":51
				},
				{
					"input":26,
					"interpolation":"LINEAR",
					"output":52
				},
				{
					"input":26,
					"interpolation":"LINEAR",
					"output":53
				},
				{
					"input":26,
					"interpolation":"LINEAR",
					"output":54
				},
				{
					"input":26,
					"interpolation":"STEP",
					"output":55
				},
				{
					"input":24,
					"interpolation":"LINEAR",
					"output":56
				},
				{
					"input":24,
					"interpolation":"LINEAR",
					"output":57
				},
				{
					"input":26,
					"interpolation":"STEP",
					"output":58
				},
				{
					"input":26,
					"interpolation":"LINEAR",
					"output":59
				},
				{
					"input":26,
					"interpolation":"LINEAR",
					"output":60
				},
				{
					"input":26,
					"interpolation":"STEP",
					"output":61
				},
				{
					"input":26,
					"interpolation":"LINEAR",
					"output":62
				},
				{
					"input":26,
					"interpolation":"LINEAR",
					"output":63
				},
				{
					"input":26,
					"interpolation":"LINEAR",
					"output":64
				},
				{
					"input":26,
					"interpolation":"LINEAR",
					"output":65
				},
				{
					"input":26,
					"interpolation":"LINEAR",
					"output":66
				},
				{
					"input":26,
					"interpolation":"STEP",
					"output":67
				},
				{
					"input":26,
					"interpolation":"LINEAR",
					"output":68
				},
				{
					"input":26,
					"interpolation":"LINEAR",
					"output":69
				},
				{
					"input":26,
					"interpolation":"STEP",
					"output":70
				},
				{
					"input":26,
					"interpolation":"LINEAR",
					"output":71
				},
				{
					"input":26,
					"interpolation":"LINEAR",
					"output":72
				},
				{
					"input":26,
					"interpolation":"STEP",
					"output":73
				},
				{
					"input":26,
					"interpolation":"LINEAR",
					"output":74
				},
				{
					"input":26,
					"interpolation":"LINEAR",
					"output":75
				},
				{
					"input":26,
					"interpolation":"LINEAR",
					"output":76
				},
				{
					"input":24,
					"interpolation":"LINEAR",
					"output":77
				},
				{
					"input":26,
					"interpolation":"STEP",
					"output":78
				},
				{
					"input":26,
					"interpolation":"STEP",
					"output":79
				},
				{
					"input":24,
					"interpolation":"LINEAR",
					"output":80
				},
				{
					"input":24,
					"interpolation":"LINEAR",
					"output":81
				},
				{
					"input":26,
					"interpolation":"LINEAR",
					"output":82
				},
				{
					"input":26,
					"interpolation":"LINEAR",
					"output":83
				},
				{
					"input":24,
					"interpolation":"LINEAR",
					"output":84
				},
				{
					"input":26,
					"interpolation":"LINEAR",
					"output":85
				},
				{
					"input":26,
					"interpolation":"LINEAR",
					"output":86
				},
				{
					"input":26,
					"interpolation":"LINEAR",
					"output":87
				},
				{
					"input":26,
					"interpolation":"STEP",
					"output":88
				},
				{
					"input":26,
					"interpolation":"LINEAR",
					"output":89
				},
				{
					"input":24,
					"interpolation":"LINEAR",
					"output":90
				},
				{
					"input":26,
					"interpolation":"STEP",
					"output":91
				},
				{
					"input":26,
					"interpolation":"LINEAR",
					"output":92
				},
				{
					"input":26,
					"interpolation":"LINEAR",
					"output":93
				},
				{
					"input":26,
					"interpolation":"LINEAR",
					"output":94
				},
				{
					"input":24,
					"interpolation":"LINEAR",
					"output":95
				},
				{
					"input":24,
					"interpolation":"LINEAR",
					"output":96
				},
				{
					"input":26,
					"interpolation":"STEP",
					"output":97
				},
				{
					"input":26,
					"interpolation":"LINEAR",
					"output":98
				},
				{
					"input":26,
					"interpolation":"LINEAR",
					"output":99
				},
				{
					"input":26,
					"interpolation":"STEP",
					"output":100
				},
				{
					"input":26,
					"interpolation":"LINEAR",
					"output":101
				},
				{
					"input":26,
					"interpolation":"LINEAR",
					"output":102
				},
				{
					"input":26,
					"interpolation":"LINEAR",
					"output":103
				},
				{
					"input":24,
					"interpolation":"LINEAR",
					"output":104
				},
				{
					"input":24,
					"interpolation":"LINEAR",
					"output":105
				},
				{
					"input":26,
					"interpolation":"LINEAR",
					"output":106
				},
				{
					"input":26,
					"interpolation":"LINEAR",
					"output":107
				},
				{
					"input":26,
					"interpolation":"LINEAR",
					"output":108
				},
				{
					"input":26,
					"interpolation":"LINEAR",
					"output":109
				},
				{
					"input":24,
					"interpolation":"LINEAR",
					"output":110
				},
				{
					"input":24,
					"interpolation":"LINEAR",
					"output":111
				},
				{
					"input":26,
					"interpolation":"STEP",
					"output":112
				},
				{
					"input":26,
					"interpolation":"LINEAR",
					"output":113
				},
				{
					"input":26,
					"interpolation":"LINEAR",
					"output":114
				},
				{
					"input":26,
					"interpolation":"LINEAR",
					"output":115
				},
				{
					"input":26,
					"interpolation":"LINEAR",
					"output":116
				},
				{
					"input":26,
					"interpolation":"LINEAR",
					"output":117
				},
				{
					"input":26,
					"interpolation":"STEP",
					"output":118
				},
				{
					"input":26,
					"interpolation":"LINEAR",
					"output":119
				},
				{
					"input":26,
					"interpolation":"LINEAR",
					"output":120
				},
				{
					"input":26,
					"interpolation":"STEP",
					"output":121
				},
				{
					"input":26,
					"interpolation":"LINEAR",
					"output":122
				},
				{
					"input":26,
					"interpolation":"LINEAR",
					"output":123
				},
				{
					"input":26,
					"interpolation":"STEP",
					"output":124
				},
				{
					"input":26,
					"interpolation":"LINEAR",
					"output":125
				},
				{
					"input":26,
					"interpolation":"LINEAR",
					"output":126
				},
				{
					"input":26,
					"interpolation":"STEP",
					"output":127
				},
				{
					"input":24,
					"interpolation":"LINEAR",
					"output":128
				},
				{
					"input":26,
					"interpolation":"STEP",
					"output":129
				},
				{
					"input":26,
					"interpolation":"STEP",
					"output":130
				},
				{
					"input":24,
					"interpolation":"LINEAR",
					"output":131
				},
				{
					"input":24,
					"interpolation":"LINEAR",
					"output":132
				},
				{
					"input":26,
					"interpolation":"STEP",
					"output":133
				},
				{
					"input":26,
					"interpolation":"LINEAR",
					"output":134
				},
				{
					"input":24,
					"interpolation":"LINEAR",
					"output":135
				},
				{
					"input":26,
					"interpolation":"STEP",
					"output":136
				},
				{
					"input":26,
					"interpolation":"LINEAR",
					"output":137
				},
				{
					"input":26,
					"interpolation":"LINEAR",
					"output":138
				},
				{
					"input":26,
					"interpolation":"LINEAR",
					"output":139
				},
				{
					"input":26,
					"interpolation":"LINEAR",
					"output":140
				},
				{
					"input":24,
					"interpolation":"LINEAR",
					"output":141
				},
				{
					"input":26,
					"interpolation":"STEP",
					"output":142
				},
				{
					"input":26,
					"interpolation":"LINEAR",
					"output":143
				},
				{
					"input":26,
					"interpolation":"LINEAR",
					"output":144
				},
				{
					"input":26,
					"interpolation":"STEP",
					"output":145
				},
				{
					"input":24,
					"interpolation":"LINEAR",
					"output":146
				},
				{
					"input":24,
					"interpolation":"LINEAR",
					"output":147
				},
				{
					"input":26,
					"interpolation":"LINEAR",
					"output":148
				},
				{
					"input":26,
					"interpolation":"LINEAR",
					"output":149
				},
				{
					"input":26,
					"interpolation":"LINEAR",
					"output":150
				},
				{
					"input":26,
					"interpolation":"STEP",
					"output":151
				},
				{
					"input":24,
					"interpolation":"LINEAR",
					"output":152
				},
				{
					"input":24,
					"interpolation":"LINEAR",
					"output":153
				},
				{
					"input":26,
					"interpolation":"LINEAR",
					"output":154
				},
				{
					"input":26,
					"interpolation":"LINEAR",
					"output":155
				},
				{
					"input":26,
					"interpolation":"LINEAR",
					"output":156
				},
				{
					"input":26,
					"interpolation":"LINEAR",
					"output":157
				},
				{
					"input":24,
					"interpolation":"LINEAR",
					"output":158
				},
				{
					"input":24,
					"interpolation":"LINEAR",
					"output":159
				},
				{
					"input":26,
					"interpolation":"STEP",
					"output":160
				},
				{
					"input":26,
					"interpolation":"LINEAR",
					"output":161
				},
				{
					"input":26,
					"interpolation":"LINEAR",
					"output":162
				},
				{
					"input":26,
					"interpolation":"LINEAR",
					"output":163
				},
				{
					"input":26,
					"interpolation":"LINEAR",
					"output":164
				},
				{
					"input":26,
					"interpolation":"LINEAR",
					"output":165
				},
				{
					"input":26,
					"interpolation":"STEP",
					"output":166
				},
				{
					"input":26,
					"interpolation":"LINEAR",
					"output":167
				},
				{
					"input":26,
					"interpolation":"LINEAR",
					"output":168
				},
				{
					"input":26,
					"interpolation":"STEP",
					"output":169
				},
				{
					"input":26,
					"interpolation":"LINEAR",
					"output":170
				},
				{
					"input":26,
					"interpolation":"LINEAR",
					"output":171
				},
				{
					"input":26,
					"interpolation":"STEP",
					"output":172
				},
				{
					"input":26,
					"interpolation":"LINEAR",
					"output":173
				},
				{
					"input":26,
					"interpolation":"LINEAR",
					"output":174
				},
				{
					"input":26,
					"interpolation":"STEP",
					"output":175
				},
				{
					"input":26,
					"interpolation":"LINEAR",
					"output":176
				},
				{
					"input":26,
					"interpolation":"LINEAR",
					"output":177
				},
				{
					"input":26,
					"interpolation":"STEP",
					"output":178
				}
			]
		}
	],
	"materials":[
		{
			"alphaMode":"BLEND",
			"emissiveFactor":[
				1,
				1,
				1
			],
			"emissiveTexture":{
				"index":0
			},
			"name":"M_Banshee_Hand_VFX",
			"pbrMetallicRoughness":{
				"baseColorTexture":{
					"index":1
				},
				"metallicFactor":0
			}
		}
	],
	"meshes":[
		{
			"name":"H1_vfx_banshee",
			"primitives":[
				{
					"attributes":{
						"POSITION":0,
						"NORMAL":1,
						"TEXCOORD_0":2,
						"TANGENT":3,
						"JOINTS_0":4,
						"WEIGHTS_0":5
					},
					"indices":6,
					"material":0
				}
			]
		},
		{
			"name":"H2_vfx_banshee",
			"primitives":[
				{
					"attributes":{
						"POSITION":8,
						"NORMAL":9,
						"TEXCOORD_0":10,
						"TANGENT":11,
						"JOINTS_0":12,
						"WEIGHTS_0":13
					},
					"indices":14,
					"material":0
				}
			]
		},
		{
			"name":"H3t_vfx_banshee",
			"primitives":[
				{
					"attributes":{
						"POSITION":16,
						"NORMAL":17,
						"TEXCOORD_0":18,
						"TANGENT":19,
						"JOINTS_0":20,
						"WEIGHTS_0":21
					},
					"indices":22,
					"material":0
				}
			]
		}
	],
	"textures":[
		{
			"sampler":0,
			"source":0
		},
		{
			"sampler":0,
			"source":1
		}
	],
	"images":[
		{
			"mimeType":"image/jpeg",
			"name":"VFX_Banshee_TXT_handUV_alpha",
			"uri":"VFX_Banshee_TXT_handUV_alpha.jpg"
		},
		{
			"mimeType":"image/png",
			"name":"VFX_Banshee_TXT_handUV_1",
			"uri":"VFX_Banshee_TXT_handUV_1.png"
		}
	],
	"skins":[
		{
			"inverseBindMatrices":7,
			"joints":[
				48,
				47,
				8,
				5,
				17,
				14,
				26,
				23,
				35,
				32,
				44,
				41
			],
			"name":"H1"
		},
		{
			"inverseBindMatrices":15,
			"joints":[
				99,
				98,
				59,
				56,
				68,
				65,
				77,
				74,
				71,
				86,
				83,
				95,
				92
			],
			"name":"H2"
		},
		{
			"inverseBindMatrices":23,
			"joints":[
				150,
				149,
				110,
				107,
				119,
				116,
				128,
				125,
				137,
				134,
				146,
				143
			],
			"name":"H3"
		}
	],
	"accessors":[
		{
			"bufferView":0,
			"componentType":5126,
			"count":1442,
			"max":[
				0.0833444595336914,
				-0.08126205205917358,
				-0.0019372515380382538
			],
			"min":[
				-0.05471005290746689,
				-0.26947325468063354,
				-0.23124246299266815
			],
			"type":"VEC3"
		},
		{
			"bufferView":1,
			"componentType":5126,
			"count":1442,
			"type":"VEC3"
		},
		{
			"bufferView":2,
			"componentType":5126,
			"count":1442,
			"type":"VEC2"
		},
		{
			"bufferView":3,
			"componentType":5126,
			"count":1442,
			"type":"VEC4"
		},
		{
			"bufferView":4,
			"componentType":5121,
			"count":1442,
			"type":"VEC4"
		},
		{
			"bufferView":5,
			"componentType":5126,
			"count":1442,
			"type":"VEC4"
		},
		{
			"bufferView":6,
			"componentType":5123,
			"count":6930,
			"type":"SCALAR"
		},
		{
			"bufferView":7,
			"componentType":5126,
			"count":12,
			"type":"MAT4"
		},
		{
			"bufferView":8,
			"componentType":5126,
			"count":1442,
			"max":[
				-0.01478028018027544,
				-0.08126204460859299,
				0.1562965214252472
			],
			"min":[
				-0.1913968175649643,
				-0.26947328448295593,
				-0.026753582060337067
			],
			"type":"VEC3"
		},
		{
			"bufferView":9,
			"componentType":5126,
			"count":1442,
			"type":"VEC3"
		},
		{
			"bufferView":10,
			"componentType":5126,
			"count":1442,
			"type":"VEC2"
		},
		{
			"bufferView":11,
			"componentType":5126,
			"count":1442,
			"type":"VEC4"
		},
		{
			"bufferView":12,
			"componentType":5121,
			"count":1442,
			"type":"VEC4"
		},
		{
			"bufferView":13,
			"componentType":5126,
			"count":1442,
			"type":"VEC4"
		},
		{
			"bufferView":14,
			"componentType":5123,
			"count":6930,
			"type":"SCALAR"
		},
		{
			"bufferView":15,
			"componentType":5126,
			"count":13,
			"type":"MAT4"
		},
		{
			"bufferView":16,
			"componentType":5126,
			"count":1442,
			"max":[
				0.20921361446380615,
				-0.08126204460859299,
				0.1547485888004303
			],
			"min":[
				-0.010511724278330803,
				-0.2694733142852783,
				-0.0094279320910573
			],
			"type":"VEC3"
		},
		{
			"bufferView":17,
			"componentType":5126,
			"count":1442,
			"type":"VEC3"
		},
		{
			"bufferView":18,
			"componentType":5126,
			"count":1442,
			"type":"VEC2"
		},
		{
			"bufferView":19,
			"componentType":5126,
			"count":1442,
			"type":"VEC4"
		},
		{
			"bufferView":20,
			"componentType":5121,
			"count":1442,
			"type":"VEC4"
		},
		{
			"bufferView":21,
			"componentType":5126,
			"count":1442,
			"type":"VEC4"
		},
		{
			"bufferView":22,
			"componentType":5123,
			"count":6930,
			"type":"SCALAR"
		},
		{
			"bufferView":23,
			"componentType":5126,
			"count":12,
			"type":"MAT4"
		},
		{
			"bufferView":24,
			"componentType":5126,
			"count":32,
			"max":[
				1.2916666666666667
			],
			"min":[
				0
			],
			"type":"SCALAR"
		},
		{
			"bufferView":25,
			"componentType":5126,
			"count":32,
			"type":"VEC3"
		},
		{
			"bufferView":26,
			"componentType":5126,
			"count":2,
			"max":[
				1.2916666666666667
			],
			"min":[
				0
			],
			"type":"SCALAR"
		},
		{
			"bufferView":27,
			"componentType":5126,
			"count":2,
			"type":"VEC4"
		},
		{
			"bufferView":28,
			"componentType":5126,
			"count":2,
			"type":"VEC3"
		},
		{
			"bufferView":29,
			"componentType":5126,
			"count":32,
			"type":"VEC3"
		},
		{
			"bufferView":30,
			"componentType":5126,
			"count":32,
			"type":"VEC4"
		},
		{
			"bufferView":31,
			"componentType":5126,
			"count":2,
			"type":"VEC3"
		},
		{
			"bufferView":32,
			"componentType":5126,
			"count":2,
			"type":"VEC3"
		},
		{
			"bufferView":33,
			"componentType":5126,
			"count":32,
			"type":"VEC4"
		},
		{
			"bufferView":34,
			"componentType":5126,
			"count":2,
			"type":"VEC3"
		},
		{
			"bufferView":35,
			"componentType":5126,
			"count":2,
			"type":"VEC3"
		},
		{
			"bufferView":36,
			"componentType":5126,
			"count":2,
			"type":"VEC4"
		},
		{
			"bufferView":37,
			"componentType":5126,
			"count":2,
			"type":"VEC3"
		},
		{
			"bufferView":38,
			"componentType":5126,
			"count":2,
			"type":"VEC3"
		},
		{
			"bufferView":39,
			"componentType":5126,
			"count":32,
			"type":"VEC4"
		},
		{
			"bufferView":40,
			"componentType":5126,
			"count":2,
			"type":"VEC3"
		},
		{
			"bufferView":41,
			"componentType":5126,
			"count":2,
			"type":"VEC3"
		},
		{
			"bufferView":42,
			"componentType":5126,
			"count":2,
			"type":"VEC4"
		},
		{
			"bufferView":43,
			"componentType":5126,
			"count":2,
			"type":"VEC3"
		},
		{
			"bufferView":44,
			"componentType":5126,
			"count":32,
			"type":"VEC3"
		},
		{
			"bufferView":45,
			"componentType":5126,
			"count":32,
			"type":"VEC4"
		},
		{
			"bufferView":46,
			"componentType":5126,
			"count":2,
			"type":"VEC3"
		},
		{
			"bufferView":47,
			"componentType":5126,
			"count":2,
			"type":"VEC3"
		},
		{
			"bufferView":48,
			"componentType":5126,
			"count":2,
			"type":"VEC4"
		},
		{
			"bufferView":49,
			"componentType":5126,
			"count":2,
			"type":"VEC3"
		},
		{
			"bufferView":50,
			"componentType":5126,
			"count":32,
			"type":"VEC3"
		},
		{
			"bufferView":51,
			"componentType":5126,
			"count":32,
			"type":"VEC4"
		},
		{
			"bufferView":52,
			"componentType":5126,
			"count":2,
			"type":"VEC3"
		},
		{
			"bufferView":53,
			"componentType":5126,
			"count":2,
			"type":"VEC3"
		},
		{
			"bufferView":54,
			"componentType":5126,
			"count":2,
			"type":"VEC4"
		},
		{
			"bufferView":55,
			"componentType":5126,
			"count":2,
			"type":"VEC3"
		},
		{
			"bufferView":56,
			"componentType":5126,
			"count":32,
			"type":"VEC3"
		},
		{
			"bufferView":57,
			"componentType":5126,
			"count":32,
			"type":"VEC4"
		},
		{
			"bufferView":58,
			"componentType":5126,
			"count":2,
			"type":"VEC3"
		},
		{
			"bufferView":59,
			"componentType":5126,
			"count":2,
			"type":"VEC3"
		},
		{
			"bufferView":60,
			"componentType":5126,
			"count":2,
			"type":"VEC4"
		},
		{
			"bufferView":61,
			"componentType":5126,
			"count":2,
			"type":"VEC3"
		},
		{
			"bufferView":62,
			"componentType":5126,
			"count":2,
			"type":"VEC3"
		},
		{
			"bufferView":63,
			"componentType":5126,
			"count":2,
			"type":"VEC4"
		},
		{
			"bufferView":64,
			"componentType":5126,
			"count":2,
			"type":"VEC3"
		},
		{
			"bufferView":65,
			"componentType":5126,
			"count":2,
			"type":"VEC3"
		},
		{
			"bufferView":66,
			"componentType":5126,
			"count":2,
			"type":"VEC4"
		},
		{
			"bufferView":67,
			"componentType":5126,
			"count":2,
			"type":"VEC3"
		},
		{
			"bufferView":68,
			"componentType":5126,
			"count":2,
			"type":"VEC3"
		},
		{
			"bufferView":69,
			"componentType":5126,
			"count":2,
			"type":"VEC4"
		},
		{
			"bufferView":70,
			"componentType":5126,
			"count":2,
			"type":"VEC3"
		},
		{
			"bufferView":71,
			"componentType":5126,
			"count":2,
			"type":"VEC3"
		},
		{
			"bufferView":72,
			"componentType":5126,
			"count":2,
			"type":"VEC4"
		},
		{
			"bufferView":73,
			"componentType":5126,
			"count":2,
			"type":"VEC3"
		},
		{
			"bufferView":74,
			"componentType":5126,
			"count":2,
			"type":"VEC3"
		},
		{
			"bufferView":75,
			"componentType":5126,
			"count":2,
			"type":"VEC4"
		},
		{
			"bufferView":76,
			"componentType":5126,
			"count":2,
			"type":"VEC3"
		},
		{
			"bufferView":77,
			"componentType":5126,
			"count":32,
			"type":"VEC3"
		},
		{
			"bufferView":78,
			"componentType":5126,
			"count":2,
			"type":"VEC4"
		},
		{
			"bufferView":79,
			"componentType":5126,
			"count":2,
			"type":"VEC3"
		},
		{
			"bufferView":80,
			"componentType":5126,
			"count":32,
			"type":"VEC3"
		},
		{
			"bufferView":81,
			"componentType":5126,
			"count":32,
			"type":"VEC4"
		},
		{
			"bufferView":82,
			"componentType":5126,
			"count":2,
			"type":"VEC3"
		},
		{
			"bufferView":83,
			"componentType":5126,
			"count":2,
			"type":"VEC3"
		},
		{
			"bufferView":84,
			"componentType":5126,
			"count":32,
			"type":"VEC4"
		},
		{
			"bufferView":85,
			"componentType":5126,
			"count":2,
			"type":"VEC3"
		},
		{
			"bufferView":86,
			"componentType":5126,
			"count":2,
			"type":"VEC3"
		},
		{
			"bufferView":87,
			"componentType":5126,
			"count":2,
			"type":"VEC4"
		},
		{
			"bufferView":88,
			"componentType":5126,
			"count":2,
			"type":"VEC3"
		},
		{
			"bufferView":89,
			"componentType":5126,
			"count":2,
			"type":"VEC3"
		},
		{
			"bufferView":90,
			"componentType":5126,
			"count":32,
			"type":"VEC4"
		},
		{
			"bufferView":91,
			"componentType":5126,
			"count":2,
			"type":"VEC3"
		},
		{
			"bufferView":92,
			"componentType":5126,
			"count":2,
			"type":"VEC3"
		},
		{
			"bufferView":93,
			"componentType":5126,
			"count":2,
			"type":"VEC4"
		},
		{
			"bufferView":94,
			"componentType":5126,
			"count":2,
			"type":"VEC3"
		},
		{
			"bufferView":95,
			"componentType":5126,
			"count":32,
			"type":"VEC3"
		},
		{
			"bufferView":96,
			"componentType":5126,
			"count":32,
			"type":"VEC4"
		},
		{
			"bufferView":97,
			"componentType":5126,
			"count":2,
			"type":"VEC3"
		},
		{
			"bufferView":98,
			"componentType":5126,
			"count":2,
			"type":"VEC3"
		},
		{
			"bufferView":99,
			"componentType":5126,
			"count":2,
			"type":"VEC4"
		},
		{
			"bufferView":100,
			"componentType":5126,
			"count":2,
			"type":"VEC3"
		},
		{
			"bufferView":101,
			"componentType":5126,
			"count":2,
			"type":"VEC3"
		},
		{
			"bufferView":102,
			"componentType":5126,
			"count":2,
			"type":"VEC4"
		},
		{
			"bufferView":103,
			"componentType":5126,
			"count":2,
			"type":"VEC3"
		},
		{
			"bufferView":104,
			"componentType":5126,
			"count":32,
			"type":"VEC3"
		},
		{
			"bufferView":105,
			"componentType":5126,
			"count":32,
			"type":"VEC4"
		},
		{
			"bufferView":106,
			"componentType":5126,
			"count":2,
			"type":"VEC3"
		},
		{
			"bufferView":107,
			"componentType":5126,
			"count":2,
			"type":"VEC3"
		},
		{
			"bufferView":108,
			"componentType":5126,
			"count":2,
			"type":"VEC4"
		},
		{
			"bufferView":109,
			"componentType":5126,
			"count":2,
			"type":"VEC3"
		},
		{
			"bufferView":110,
			"componentType":5126,
			"count":32,
			"type":"VEC3"
		},
		{
			"bufferView":111,
			"componentType":5126,
			"count":32,
			"type":"VEC4"
		},
		{
			"bufferView":112,
			"componentType":5126,
			"count":2,
			"type":"VEC3"
		},
		{
			"bufferView":113,
			"componentType":5126,
			"count":2,
			"type":"VEC3"
		},
		{
			"bufferView":114,
			"componentType":5126,
			"count":2,
			"type":"VEC4"
		},
		{
			"bufferView":115,
			"componentType":5126,
			"count":2,
			"type":"VEC3"
		},
		{
			"bufferView":116,
			"componentType":5126,
			"count":2,
			"type":"VEC3"
		},
		{
			"bufferView":117,
			"componentType":5126,
			"count":2,
			"type":"VEC4"
		},
		{
			"bufferView":118,
			"componentType":5126,
			"count":2,
			"type":"VEC3"
		},
		{
			"bufferView":119,
			"componentType":5126,
			"count":2,
			"type":"VEC3"
		},
		{
			"bufferView":120,
			"componentType":5126,
			"count":2,
			"type":"VEC4"
		},
		{
			"bufferView":121,
			"componentType":5126,
			"count":2,
			"type":"VEC3"
		},
		{
			"bufferView":122,
			"componentType":5126,
			"count":2,
			"type":"VEC3"
		},
		{
			"bufferView":123,
			"componentType":5126,
			"count":2,
			"type":"VEC4"
		},
		{
			"bufferView":124,
			"componentType":5126,
			"count":2,
			"type":"VEC3"
		},
		{
			"bufferView":125,
			"componentType":5126,
			"count":2,
			"type":"VEC3"
		},
		{
			"bufferView":126,
			"componentType":5126,
			"count":2,
			"type":"VEC4"
		},
		{
			"bufferView":127,
			"componentType":5126,
			"count":2,
			"type":"VEC3"
		},
		{
			"bufferView":128,
			"componentType":5126,
			"count":32,
			"type":"VEC3"
		},
		{
			"bufferView":129,
			"componentType":5126,
			"count":2,
			"type":"VEC4"
		},
		{
			"bufferView":130,
			"componentType":5126,
			"count":2,
			"type":"VEC3"
		},
		{
			"bufferView":131,
			"componentType":5126,
			"count":32,
			"type":"VEC3"
		},
		{
			"bufferView":132,
			"componentType":5126,
			"count":32,
			"type":"VEC4"
		},
		{
			"bufferView":133,
			"componentType":5126,
			"count":2,
			"type":"VEC3"
		},
		{
			"bufferView":134,
			"componentType":5126,
			"count":2,
			"type":"VEC3"
		},
		{
			"bufferView":135,
			"componentType":5126,
			"count":32,
			"type":"VEC4"
		},
		{
			"bufferView":136,
			"componentType":5126,
			"count":2,
			"type":"VEC3"
		},
		{
			"bufferView":137,
			"componentType":5126,
			"count":2,
			"type":"VEC3"
		},
		{
			"bufferView":138,
			"componentType":5126,
			"count":2,
			"type":"VEC4"
		},
		{
			"bufferView":139,
			"componentType":5126,
			"count":2,
			"type":"VEC3"
		},
		{
			"bufferView":140,
			"componentType":5126,
			"count":2,
			"type":"VEC3"
		},
		{
			"bufferView":141,
			"componentType":5126,
			"count":32,
			"type":"VEC4"
		},
		{
			"bufferView":142,
			"componentType":5126,
			"count":2,
			"type":"VEC3"
		},
		{
			"bufferView":143,
			"componentType":5126,
			"count":2,
			"type":"VEC3"
		},
		{
			"bufferView":144,
			"componentType":5126,
			"count":2,
			"type":"VEC4"
		},
		{
			"bufferView":145,
			"componentType":5126,
			"count":2,
			"type":"VEC3"
		},
		{
			"bufferView":146,
			"componentType":5126,
			"count":32,
			"type":"VEC3"
		},
		{
			"bufferView":147,
			"componentType":5126,
			"count":32,
			"type":"VEC4"
		},
		{
			"bufferView":148,
			"componentType":5126,
			"count":2,
			"type":"VEC3"
		},
		{
			"bufferView":149,
			"componentType":5126,
			"count":2,
			"type":"VEC3"
		},
		{
			"bufferView":150,
			"componentType":5126,
			"count":2,
			"type":"VEC4"
		},
		{
			"bufferView":151,
			"componentType":5126,
			"count":2,
			"type":"VEC3"
		},
		{
			"bufferView":152,
			"componentType":5126,
			"count":32,
			"type":"VEC3"
		},
		{
			"bufferView":153,
			"componentType":5126,
			"count":32,
			"type":"VEC4"
		},
		{
			"bufferView":154,
			"componentType":5126,
			"count":2,
			"type":"VEC3"
		},
		{
			"bufferView":155,
			"componentType":5126,
			"count":2,
			"type":"VEC3"
		},
		{
			"bufferView":156,
			"componentType":5126,
			"count":2,
			"type":"VEC4"
		},
		{
			"bufferView":157,
			"componentType":5126,
			"count":2,
			"type":"VEC3"
		},
		{
			"bufferView":158,
			"componentType":5126,
			"count":32,
			"type":"VEC3"
		},
		{
			"bufferView":159,
			"componentType":5126,
			"count":32,
			"type":"VEC4"
		},
		{
			"bufferView":160,
			"componentType":5126,
			"count":2,
			"type":"VEC3"
		},
		{
			"bufferView":161,
			"componentType":5126,
			"count":2,
			"type":"VEC3"
		},
		{
			"bufferView":162,
			"componentType":5126,
			"count":2,
			"type":"VEC4"
		},
		{
			"bufferView":163,
			"componentType":5126,
			"count":2,
			"type":"VEC3"
		},
		{
			"bufferView":164,
			"componentType":5126,
			"count":2,
			"type":"VEC3"
		},
		{
			"bufferView":165,
			"componentType":5126,
			"count":2,
			"type":"VEC4"
		},
		{
			"bufferView":166,
			"componentType":5126,
			"count":2,
			"type":"VEC3"
		},
		{
			"bufferView":167,
			"componentType":5126,
			"count":2,
			"type":"VEC3"
		},
		{
			"bufferView":168,
			"componentType":5126,
			"count":2,
			"type":"VEC4"
		},
		{
			"bufferView":169,
			"componentType":5126,
			"count":2,
			"type":"VEC3"
		},
		{
			"bufferView":170,
			"componentType":5126,
			"count":2,
			"type":"VEC3"
		},
		{
			"bufferView":171,
			"componentType":5126,
			"count":2,
			"type":"VEC4"
		},
		{
			"bufferView":172,
			"componentType":5126,
			"count":2,
			"type":"VEC3"
		},
		{
			"bufferView":173,
			"componentType":5126,
			"count":2,
			"type":"VEC3"
		},
		{
			"bufferView":174,
			"componentType":5126,
			"count":2,
			"type":"VEC4"
		},
		{
			"bufferView":175,
			"componentType":5126,
			"count":2,
			"type":"VEC3"
		},
		{
			"bufferView":176,
			"componentType":5126,
			"count":2,
			"type":"VEC3"
		},
		{
			"bufferView":177,
			"componentType":5126,
			"count":2,
			"type":"VEC4"
		},
		{
			"bufferView":178,
			"componentType":5126,
			"count":2,
			"type":"VEC3"
		}
	],
	"bufferViews":[
		{
			"buffer":0,
			"byteLength":17304,
			"byteOffset":0,
			"target":34962
		},
		{
			"buffer":0,
			"byteLength":17304,
			"byteOffset":17304,
			"target":34962
		},
		{
			"buffer":0,
			"byteLength":11536,
			"byteOffset":34608,
			"target":34962
		},
		{
			"buffer":0,
			"byteLength":23072,
			"byteOffset":46144,
			"target":34962
		},
		{
			"buffer":0,
			"byteLength":5768,
			"byteOffset":69216,
			"target":34962
		},
		{
			"buffer":0,
			"byteLength":23072,
			"byteOffset":74984,
			"target":34962
		},
		{
			"buffer":0,
			"byteLength":13860,
			"byteOffset":98056,
			"target":34963
		},
		{
			"buffer":0,
			"byteLength":768,
			"byteOffset":111916
		},
		{
			"buffer":0,
			"byteLength":17304,
			"byteOffset":112684,
			"target":34962
		},
		{
			"buffer":0,
			"byteLength":17304,
			"byteOffset":129988,
			"target":34962
		},
		{
			"buffer":0,
			"byteLength":11536,
			"byteOffset":147292,
			"target":34962
		},
		{
			"buffer":0,
			"byteLength":23072,
			"byteOffset":158828,
			"target":34962
		},
		{
			"buffer":0,
			"byteLength":5768,
			"byteOffset":181900,
			"target":34962
		},
		{
			"buffer":0,
			"byteLength":23072,
			"byteOffset":187668,
			"target":34962
		},
		{
			"buffer":0,
			"byteLength":13860,
			"byteOffset":210740,
			"target":34963
		},
		{
			"buffer":0,
			"byteLength":832,
			"byteOffset":224600
		},
		{
			"buffer":0,
			"byteLength":17304,
			"byteOffset":225432,
			"target":34962
		},
		{
			"buffer":0,
			"byteLength":17304,
			"byteOffset":242736,
			"target":34962
		},
		{
			"buffer":0,
			"byteLength":11536,
			"byteOffset":260040,
			"target":34962
		},
		{
			"buffer":0,
			"byteLength":23072,
			"byteOffset":271576,
			"target":34962
		},
		{
			"buffer":0,
			"byteLength":5768,
			"byteOffset":294648,
			"target":34962
		},
		{
			"buffer":0,
			"byteLength":23072,
			"byteOffset":300416,
			"target":34962
		},
		{
			"buffer":0,
			"byteLength":13860,
			"byteOffset":323488,
			"target":34963
		},
		{
			"buffer":0,
			"byteLength":768,
			"byteOffset":337348
		},
		{
			"buffer":0,
			"byteLength":128,
			"byteOffset":338116
		},
		{
			"buffer":0,
			"byteLength":384,
			"byteOffset":338244
		},
		{
			"buffer":0,
			"byteLength":8,
			"byteOffset":338628
		},
		{
			"buffer":0,
			"byteLength":32,
			"byteOffset":338636
		},
		{
			"buffer":0,
			"byteLength":24,
			"byteOffset":338668
		},
		{
			"buffer":0,
			"byteLength":384,
			"byteOffset":338692
		},
		{
			"buffer":0,
			"byteLength":512,
			"byteOffset":339076
		},
		{
			"buffer":0,
			"byteLength":24,
			"byteOffset":339588
		},
		{
			"buffer":0,
			"byteLength":24,
			"byteOffset":339612
		},
		{
			"buffer":0,
			"byteLength":512,
			"byteOffset":339636
		},
		{
			"buffer":0,
			"byteLength":24,
			"byteOffset":340148
		},
		{
			"buffer":0,
			"byteLength":24,
			"byteOffset":340172
		},
		{
			"buffer":0,
			"byteLength":32,
			"byteOffset":340196
		},
		{
			"buffer":0,
			"byteLength":24,
			"byteOffset":340228
		},
		{
			"buffer":0,
			"byteLength":24,
			"byteOffset":340252
		},
		{
			"buffer":0,
			"byteLength":512,
			"byteOffset":340276
		},
		{
			"buffer":0,
			"byteLength":24,
			"byteOffset":340788
		},
		{
			"buffer":0,
			"byteLength":24,
			"byteOffset":340812
		},
		{
			"buffer":0,
			"byteLength":32,
			"byteOffset":340836
		},
		{
			"buffer":0,
			"byteLength":24,
			"byteOffset":340868
		},
		{
			"buffer":0,
			"byteLength":384,
			"byteOffset":340892
		},
		{
			"buffer":0,
			"byteLength":512,
			"byteOffset":341276
		},
		{
			"buffer":0,
			"byteLength":24,
			"byteOffset":341788
		},
		{
			"buffer":0,
			"byteLength":24,
			"byteOffset":341812
		},
		{
			"buffer":0,
			"byteLength":32,
			"byteOffset":341836
		},
		{
			"buffer":0,
			"byteLength":24,
			"byteOffset":341868
		},
		{
			"buffer":0,
			"byteLength":384,
			"byteOffset":341892
		},
		{
			"buffer":0,
			"byteLength":512,
			"byteOffset":342276
		},
		{
			"buffer":0,
			"byteLength":24,
			"byteOffset":342788
		},
		{
			"buffer":0,
			"byteLength":24,
			"byteOffset":342812
		},
		{
			"buffer":0,
			"byteLength":32,
			"byteOffset":342836
		},
		{
			"buffer":0,
			"byteLength":24,
			"byteOffset":342868
		},
		{
			"buffer":0,
			"byteLength":384,
			"byteOffset":342892
		},
		{
			"buffer":0,
			"byteLength":512,
			"byteOffset":343276
		},
		{
			"buffer":0,
			"byteLength":24,
			"byteOffset":343788
		},
		{
			"buffer":0,
			"byteLength":24,
			"byteOffset":343812
		},
		{
			"buffer":0,
			"byteLength":32,
			"byteOffset":343836
		},
		{
			"buffer":0,
			"byteLength":24,
			"byteOffset":343868
		},
		{
			"buffer":0,
			"byteLength":24,
			"byteOffset":343892
		},
		{
			"buffer":0,
			"byteLength":32,
			"byteOffset":343916
		},
		{
			"buffer":0,
			"byteLength":24,
			"byteOffset":343948
		},
		{
			"buffer":0,
			"byteLength":24,
			"byteOffset":343972
		},
		{
			"buffer":0,
			"byteLength":32,
			"byteOffset":343996
		},
		{
			"buffer":0,
			"byteLength":24,
			"byteOffset":344028
		},
		{
			"buffer":0,
			"byteLength":24,
			"byteOffset":344052
		},
		{
			"buffer":0,
			"byteLength":32,
			"byteOffset":344076
		},
		{
			"buffer":0,
			"byteLength":24,
			"byteOffset":344108
		},
		{
			"buffer":0,
			"byteLength":24,
			"byteOffset":344132
		},
		{
			"buffer":0,
			"byteLength":32,
			"byteOffset":344156
		},
		{
			"buffer":0,
			"byteLength":24,
			"byteOffset":344188
		},
		{
			"buffer":0,
			"byteLength":24,
			"byteOffset":344212
		},
		{
			"buffer":0,
			"byteLength":32,
			"byteOffset":344236
		},
		{
			"buffer":0,
			"byteLength":24,
			"byteOffset":344268
		},
		{
			"buffer":0,
			"byteLength":384,
			"byteOffset":344292
		},
		{
			"buffer":0,
			"byteLength":32,
			"byteOffset":344676
		},
		{
			"buffer":0,
			"byteLength":24,
			"byteOffset":344708
		},
		{
			"buffer":0,
			"byteLength":384,
			"byteOffset":344732
		},
		{
			"buffer":0,
			"byteLength":512,
			"byteOffset":345116
		},
		{
			"buffer":0,
			"byteLength":24,
			"byteOffset":345628
		},
		{
			"buffer":0,
			"byteLength":24,
			"byteOffset":345652
		},
		{
			"buffer":0,
			"byteLength":512,
			"byteOffset":345676
		},
		{
			"buffer":0,
			"byteLength":24,
			"byteOffset":346188
		},
		{
			"buffer":0,
			"byteLength":24,
			"byteOffset":346212
		},
		{
			"buffer":0,
			"byteLength":32,
			"byteOffset":346236
		},
		{
			"buffer":0,
			"byteLength":24,
			"byteOffset":346268
		},
		{
			"buffer":0,
			"byteLength":24,
			"byteOffset":346292
		},
		{
			"buffer":0,
			"byteLength":512,
			"byteOffset":346316
		},
		{
			"buffer":0,
			"byteLength":24,
			"byteOffset":346828
		},
		{
			"buffer":0,
			"byteLength":24,
			"byteOffset":346852
		},
		{
			"buffer":0,
			"byteLength":32,
			"byteOffset":346876
		},
		{
			"buffer":0,
			"byteLength":24,
			"byteOffset":346908
		},
		{
			"buffer":0,
			"byteLength":384,
			"byteOffset":346932
		},
		{
			"buffer":0,
			"byteLength":512,
			"byteOffset":347316
		},
		{
			"buffer":0,
			"byteLength":24,
			"byteOffset":347828
		},
		{
			"buffer":0,
			"byteLength":24,
			"byteOffset":347852
		},
		{
			"buffer":0,
			"byteLength":32,
			"byteOffset":347876
		},
		{
			"buffer":0,
			"byteLength":24,
			"byteOffset":347908
		},
		{
			"buffer":0,
			"byteLength":24,
			"byteOffset":347932
		},
		{
			"buffer":0,
			"byteLength":32,
			"byteOffset":347956
		},
		{
			"buffer":0,
			"byteLength":24,
			"byteOffset":347988
		},
		{
			"buffer":0,
			"byteLength":384,
			"byteOffset":348012
		},
		{
			"buffer":0,
			"byteLength":512,
			"byteOffset":348396
		},
		{
			"buffer":0,
			"byteLength":24,
			"byteOffset":348908
		},
		{
			"buffer":0,
			"byteLength":24,
			"byteOffset":348932
		},
		{
			"buffer":0,
			"byteLength":32,
			"byteOffset":348956
		},
		{
			"buffer":0,
			"byteLength":24,
			"byteOffset":348988
		},
		{
			"buffer":0,
			"byteLength":384,
			"byteOffset":349012
		},
		{
			"buffer":0,
			"byteLength":512,
			"byteOffset":349396
		},
		{
			"buffer":0,
			"byteLength":24,
			"byteOffset":349908
		},
		{
			"buffer":0,
			"byteLength":24,
			"byteOffset":349932
		},
		{
			"buffer":0,
			"byteLength":32,
			"byteOffset":349956
		},
		{
			"buffer":0,
			"byteLength":24,
			"byteOffset":349988
		},
		{
			"buffer":0,
			"byteLength":24,
			"byteOffset":350012
		},
		{
			"buffer":0,
			"byteLength":32,
			"byteOffset":350036
		},
		{
			"buffer":0,
			"byteLength":24,
			"byteOffset":350068
		},
		{
			"buffer":0,
			"byteLength":24,
			"byteOffset":350092
		},
		{
			"buffer":0,
			"byteLength":32,
			"byteOffset":350116
		},
		{
			"buffer":0,
			"byteLength":24,
			"byteOffset":350148
		},
		{
			"buffer":0,
			"byteLength":24,
			"byteOffset":350172
		},
		{
			"buffer":0,
			"byteLength":32,
			"byteOffset":350196
		},
		{
			"buffer":0,
			"byteLength":24,
			"byteOffset":350228
		},
		{
			"buffer":0,
			"byteLength":24,
			"byteOffset":350252
		},
		{
			"buffer":0,
			"byteLength":32,
			"byteOffset":350276
		},
		{
			"buffer":0,
			"byteLength":24,
			"byteOffset":350308
		},
		{
			"buffer":0,
			"byteLength":384,
			"byteOffset":350332
		},
		{
			"buffer":0,
			"byteLength":32,
			"byteOffset":350716
		},
		{
			"buffer":0,
			"byteLength":24,
			"byteOffset":350748
		},
		{
			"buffer":0,
			"byteLength":384,
			"byteOffset":350772
		},
		{
			"buffer":0,
			"byteLength":512,
			"byteOffset":351156
		},
		{
			"buffer":0,
			"byteLength":24,
			"byteOffset":351668
		},
		{
			"buffer":0,
			"byteLength":24,
			"byteOffset":351692
		},
		{
			"buffer":0,
			"byteLength":512,
			"byteOffset":351716
		},
		{
			"buffer":0,
			"byteLength":24,
			"byteOffset":352228
		},
		{
			"buffer":0,
			"byteLength":24,
			"byteOffset":352252
		},
		{
			"buffer":0,
			"byteLength":32,
			"byteOffset":352276
		},
		{
			"buffer":0,
			"byteLength":24,
			"byteOffset":352308
		},
		{
			"buffer":0,
			"byteLength":24,
			"byteOffset":352332
		},
		{
			"buffer":0,
			"byteLength":512,
			"byteOffset":352356
		},
		{
			"buffer":0,
			"byteLength":24,
			"byteOffset":352868
		},
		{
			"buffer":0,
			"byteLength":24,
			"byteOffset":352892
		},
		{
			"buffer":0,
			"byteLength":32,
			"byteOffset":352916
		},
		{
			"buffer":0,
			"byteLength":24,
			"byteOffset":352948
		},
		{
			"buffer":0,
			"byteLength":384,
			"byteOffset":352972
		},
		{
			"buffer":0,
			"byteLength":512,
			"byteOffset":353356
		},
		{
			"buffer":0,
			"byteLength":24,
			"byteOffset":353868
		},
		{
			"buffer":0,
			"byteLength":24,
			"byteOffset":353892
		},
		{
			"buffer":0,
			"byteLength":32,
			"byteOffset":353916
		},
		{
			"buffer":0,
			"byteLength":24,
			"byteOffset":353948
		},
		{
			"buffer":0,
			"byteLength":384,
			"byteOffset":353972
		},
		{
			"buffer":0,
			"byteLength":512,
			"byteOffset":354356
		},
		{
			"buffer":0,
			"byteLength":24,
			"byteOffset":354868
		},
		{
			"buffer":0,
			"byteLength":24,
			"byteOffset":354892
		},
		{
			"buffer":0,
			"byteLength":32,
			"byteOffset":354916
		},
		{
			"buffer":0,
			"byteLength":24,
			"byteOffset":354948
		},
		{
			"buffer":0,
			"byteLength":384,
			"byteOffset":354972
		},
		{
			"buffer":0,
			"byteLength":512,
			"byteOffset":355356
		},
		{
			"buffer":0,
			"byteLength":24,
			"byteOffset":355868
		},
		{
			"buffer":0,
			"byteLength":24,
			"byteOffset":355892
		},
		{
			"buffer":0,
			"byteLength":32,
			"byteOffset":355916
		},
		{
			"buffer":0,
			"byteLength":24,
			"byteOffset":355948
		},
		{
			"buffer":0,
			"byteLength":24,
			"byteOffset":355972
		},
		{
			"buffer":0,
			"byteLength":32,
			"byteOffset":355996
		},
		{
			"buffer":0,
			"byteLength":24,
			"byteOffset":356028
		},
		{
			"buffer":0,
			"byteLength":24,
			"byteOffset":356052
		},
		{
			"buffer":0,
			"byteLength":32,
			"byteOffset":356076
		},
		{
			"buffer":0,
			"byteLength":24,
			"byteOffset":356108
		},
		{
			"buffer":0,
			"byteLength":24,
			"byteOffset":356132
		},
		{
			"buffer":0,
			"byteLength":32,
			"byteOffset":356156
		},
		{
			"buffer":0,
			"byteLength":24,
			"byteOffset":356188
		},
		{
			"buffer":0,
			"byteLength":24,
			"byteOffset":356212
		},
		{
			"buffer":0,
			"byteLength":32,
			"byteOffset":356236
		},
		{
			"buffer":0,
			"byteLength":24,
			"byteOffset":356268
		},
		{
			"buffer":0,
			"byteLength":24,
			"byteOffset":356292
		},
		{
			"buffer":0,
			"byteLength":32,
			"byteOffset":356316
		},
		{
			"buffer":0,
			"byteLength":24,
			"byteOffset":356348
		}
	],
	"samplers":[
		{
			"magFilter":9729,
			"minFilter":9987
		}
	],
	"buffers":[
		{
			"byteLength":356372,
			"uri":"VFX_Banshee_Hand_attack.bin"
		}
	]
}
