{
	"asset":{
		"generator":"Khronos glTF Blender I/O v4.4.56",
		"version":"2.0"
	},
	"scene":0,
	"scenes":[
		{
			"name":"Scene",
			"nodes":[
				2,
				5,
				8,
				11,
				12
			]
		}
	],
	"nodes":[
		{
			"mesh":0,
			"name":"Banshee_VFX_base_ground_ring_particles",
			"scale":[
				6.199243068695068,
				6.199243068695068,
				0.39897847175598145
			],
			"translation":[
				0,
				0,
				-0.9999999403953552
			]
		},
		{
			"mesh":1,
			"name":"Banshee_VFX_base_ground_ring_shout",
			"scale":[
				6.199243068695068,
				6.199243068695068,
				1
			],
			"translation":[
				0,
				0,
				-0.9999999403953552
			]
		},
		{
			"children":[
				0,
				1
			],
			"name":"Banshee_Ground_Ring",
			"rotation":[
				0.7071068286895752,
				0,
				0,
				0.7071068286895752
			],
			"scale":[
				0.16698592901229858,
				0.16698592901229858,
				0.16698592901229858
			]
		},
		{
			"mesh":2,
			"name":"Banshee_VFX_triangle_Shout"
		},
		{
			"mesh":3,
			"name":"Banshee_VFX_triangle_Shout1"
		},
		{
			"children":[
				3,
				4
			],
			"name":"Banshee_triangle_Shout",
			"rotation":[
				0.7071068286895752,
				0,
				0,
				0.7071068286895752
			],
			"scale":[
				0.12064444273710251,
				0.12064444273710251,
				0.12064444273710251
			]
		},
		{
			"mesh":4,
			"name":"Banshee_VFX_Particle_long",
			"scale":[
				1.1344070434570312,
				2.4411838054656982,
				1.1344070434570312
			]
		},
		{
			"mesh":5,
			"name":"Banshee_VFX_Particle_short",
			"scale":[
				1.1344070434570312,
				2.4411838054656982,
				1.1344070434570312
			]
		},
		{
			"children":[
				6,
				7
			],
			"name":"Banshee_particle_Shout",
			"rotation":[
				0.7071068286895752,
				0,
				0,
				0.7071068286895752
			],
			"scale":[
				0.12064444273710251,
				0.12064444273710251,
				0.12064444273710251
			]
		},
		{
			"mesh":6,
			"name":"Banshee_VFX_mouth_long"
		},
		{
			"mesh":7,
			"name":"Banshee_VFX_mouth_long1",
			"translation":[
				0,
				-0.11713743209838867,
				0
			]
		},
		{
			"children":[
				9,
				10
			],
			"name":"Banshee_mouth_Shout",
			"rotation":[
				0.7071068286895752,
				0,
				0,
				0.7071068286895752
			],
			"scale":[
				0.12064444273710251,
				0.12064444273710251,
				0.12064444273710251
			]
		},
		{
			"mesh":8,
			"name":"Banshee_VFX_SlowHalo",
			"rotation":[
				0.7071068286895752,
				0,
				0,
				0.7071068286895752
			],
			"scale":[
				0.4639422297477722,
				0.4639422297477722,
				0.4639422297477722
			]
		}
	],
	"materials":[
		{
			"alphaMode":"BLEND",
			"doubleSided":true,
			"name":"M_VFX_Banshee_particle_shout",
			"pbrMetallicRoughness":{
				"baseColorTexture":{
					"index":0
				},
				"metallicFactor":0,
				"roughnessFactor":0.5527864098548889
			}
		},
		{
			"alphaMode":"BLEND",
			"doubleSided":true,
			"name":"M_VFX_Banshee_Base_shout",
			"pbrMetallicRoughness":{
				"baseColorTexture":{
					"index":1
				},
				"metallicFactor":0,
				"roughnessFactor":0.5527864098548889
			}
		},
		{
			"alphaMode":"BLEND",
			"doubleSided":true,
			"name":"M_VFX_Banshee_triangle_shout",
			"pbrMetallicRoughness":{
				"baseColorTexture":{
					"index":2
				},
				"metallicFactor":0,
				"roughnessFactor":0.5527864098548889
			}
		},
		{
			"alphaMode":"BLEND",
			"doubleSided":true,
			"name":"M_VFX_Banshee_ring_shout",
			"pbrMetallicRoughness":{
				"baseColorTexture":{
					"index":3
				},
				"metallicFactor":0,
				"roughnessFactor":0.5527864098548889
			}
		},
		{
			"alphaMode":"BLEND",
			"doubleSided":true,
			"name":"M_VFX_Banshee_Slow_ring",
			"pbrMetallicRoughness":{
				"baseColorTexture":{
					"index":4
				},
				"metallicFactor":0,
				"roughnessFactor":0.5527864098548889
			}
		}
	],
	"meshes":[
		{
			"name":"Mesh",
			"primitives":[
				{
					"attributes":{
						"POSITION":0,
						"NORMAL":1,
						"TEXCOORD_0":2,
						"TANGENT":3
					},
					"indices":4,
					"material":0
				}
			]
		},
		{
			"name":"Mesh.001",
			"primitives":[
				{
					"attributes":{
						"POSITION":5,
						"NORMAL":6,
						"TEXCOORD_0":7,
						"TANGENT":8
					},
					"indices":9,
					"material":1
				}
			]
		},
		{
			"name":"Mesh.002",
			"primitives":[
				{
					"attributes":{
						"POSITION":10,
						"NORMAL":11,
						"TEXCOORD_0":12,
						"TANGENT":13
					},
					"indices":14,
					"material":2
				}
			]
		},
		{
			"name":"Mesh.003",
			"primitives":[
				{
					"attributes":{
						"POSITION":15,
						"NORMAL":16,
						"TEXCOORD_0":17,
						"TANGENT":18
					},
					"indices":14,
					"material":2
				}
			]
		},
		{
			"name":"Mesh.004",
			"primitives":[
				{
					"attributes":{
						"POSITION":19,
						"NORMAL":20,
						"TEXCOORD_0":21,
						"TANGENT":22
					},
					"indices":23,
					"material":0
				}
			]
		},
		{
			"name":"Mesh.005",
			"primitives":[
				{
					"attributes":{
						"POSITION":24,
						"NORMAL":25,
						"TEXCOORD_0":26,
						"TANGENT":27
					},
					"indices":28,
					"material":0
				}
			]
		},
		{
			"name":"Mesh.006",
			"primitives":[
				{
					"attributes":{
						"POSITION":29,
						"NORMAL":30,
						"TEXCOORD_0":31,
						"TANGENT":32
					},
					"indices":33,
					"material":3
				}
			]
		},
		{
			"name":"Mesh.007",
			"primitives":[
				{
					"attributes":{
						"POSITION":34,
						"NORMAL":35,
						"TEXCOORD_0":36,
						"TANGENT":37
					},
					"indices":38,
					"material":3
				}
			]
		},
		{
			"name":"Mesh.008",
			"primitives":[
				{
					"attributes":{
						"POSITION":39,
						"NORMAL":40,
						"TEXCOORD_0":41,
						"TANGENT":42
					},
					"indices":43,
					"material":4
				}
			]
		}
	],
	"textures":[
		{
			"sampler":0,
			"source":0
		},
		{
			"sampler":0,
			"source":1
		},
		{
			"sampler":0,
			"source":2
		},
		{
			"sampler":0,
			"source":3
		},
		{
			"sampler":0,
			"source":4
		}
	],
	"images":[
		{
			"mimeType":"image/png",
			"name":"T_Banshee_VFX_particles",
			"uri":"T_Banshee_VFX_particles.png"
		},
		{
			"mimeType":"image/png",
			"name":"T_Banshee_VFX_ground_ring",
			"uri":"T_Banshee_VFX_ground_ring.png"
		},
		{
			"mimeType":"image/png",
			"name":"T_Banshee_VFX_Triangle_shout",
			"uri":"T_Banshee_VFX_Triangle_shout.png"
		},
		{
			"mimeType":"image/png",
			"name":"T_Banshee_VFX_mouth_shout",
			"uri":"T_Banshee_VFX_mouth_shout.png"
		},
		{
			"mimeType":"image/png",
			"name":"T_Banshee_VFX_ring_test",
			"uri":"T_Banshee_VFX_ring_test.png"
		}
	],
	"accessors":[
		{
			"bufferView":0,
			"componentType":5126,
			"count":105,
			"max":[
				1,
				1.0000001192092896,
				2.849794626235962
			],
			"min":[
				-1.000000238418579,
				-1.0000004768371582,
				0.9388554096221924
			],
			"type":"VEC3"
		},
		{
			"bufferView":1,
			"componentType":5126,
			"count":105,
			"type":"VEC3"
		},
		{
			"bufferView":2,
			"componentType":5126,
			"count":105,
			"type":"VEC2"
		},
		{
			"bufferView":3,
			"componentType":5126,
			"count":105,
			"type":"VEC4"
		},
		{
			"bufferView":4,
			"componentType":5123,
			"count":480,
			"type":"SCALAR"
		},
		{
			"bufferView":5,
			"componentType":5126,
			"count":105,
			"max":[
				1,
				1.0000001192092896,
				1
			],
			"min":[
				-1.000000238418579,
				-1.0000004768371582,
				0.9999997615814209
			],
			"type":"VEC3"
		},
		{
			"bufferView":6,
			"componentType":5126,
			"count":105,
			"type":"VEC3"
		},
		{
			"bufferView":7,
			"componentType":5126,
			"count":105,
			"type":"VEC2"
		},
		{
			"bufferView":8,
			"componentType":5126,
			"count":105,
			"type":"VEC4"
		},
		{
			"bufferView":9,
			"componentType":5123,
			"count":480,
			"type":"SCALAR"
		},
		{
			"bufferView":10,
			"componentType":5126,
			"count":36,
			"max":[
				0.10953730344772339,
				-0.1813526749610901,
				6.6064324378967285
			],
			"min":[
				-0.09108559787273407,
				-13.714937210083008,
				-6.6064324378967285
			],
			"type":"VEC3"
		},
		{
			"bufferView":11,
			"componentType":5126,
			"count":36,
			"type":"VEC3"
		},
		{
			"bufferView":12,
			"componentType":5126,
			"count":36,
			"type":"VEC2"
		},
		{
			"bufferView":13,
			"componentType":5126,
			"count":36,
			"type":"VEC4"
		},
		{
			"bufferView":14,
			"componentType":5123,
			"count":114,
			"type":"SCALAR"
		},
		{
			"bufferView":15,
			"componentType":5126,
			"count":36,
			"max":[
				6.6064324378967285,
				-0.1813526749610901,
				0.09108559787273407
			],
			"min":[
				-6.6064324378967285,
				-13.714937210083008,
				-0.10953730344772339
			],
			"type":"VEC3"
		},
		{
			"bufferView":16,
			"componentType":5126,
			"count":36,
			"type":"VEC3"
		},
		{
			"bufferView":17,
			"componentType":5126,
			"count":36,
			"type":"VEC2"
		},
		{
			"bufferView":18,
			"componentType":5126,
			"count":36,
			"type":"VEC4"
		},
		{
			"bufferView":19,
			"componentType":5126,
			"count":42,
			"max":[
				2.2385597229003906,
				-0.06059515103697777,
				2.2385597229003906
			],
			"min":[
				-2.238560199737549,
				-1.6238809823989868,
				-2.238560676574707
			],
			"type":"VEC3"
		},
		{
			"bufferView":20,
			"componentType":5126,
			"count":42,
			"type":"VEC3"
		},
		{
			"bufferView":21,
			"componentType":5126,
			"count":42,
			"type":"VEC2"
		},
		{
			"bufferView":22,
			"componentType":5126,
			"count":42,
			"type":"VEC4"
		},
		{
			"bufferView":23,
			"componentType":5123,
			"count":120,
			"type":"SCALAR"
		},
		{
			"bufferView":24,
			"componentType":5126,
			"count":42,
			"max":[
				3.0168347358703613,
				4.470348358154297e-08,
				3.0168352127075195
			],
			"min":[
				-3.0168352127075195,
				-0.5627302527427673,
				-3.016836166381836
			],
			"type":"VEC3"
		},
		{
			"bufferView":25,
			"componentType":5126,
			"count":42,
			"type":"VEC3"
		},
		{
			"bufferView":26,
			"componentType":5126,
			"count":42,
			"type":"VEC2"
		},
		{
			"bufferView":27,
			"componentType":5126,
			"count":42,
			"type":"VEC4"
		},
		{
			"bufferView":28,
			"componentType":5123,
			"count":120,
			"type":"SCALAR"
		},
		{
			"bufferView":29,
			"componentType":5126,
			"count":42,
			"max":[
				2.3601834774017334,
				0,
				2.3601837158203125
			],
			"min":[
				-2.3601839542388916,
				-0.4691348075866699,
				-2.360184669494629
			],
			"type":"VEC3"
		},
		{
			"bufferView":30,
			"componentType":5126,
			"count":42,
			"type":"VEC3"
		},
		{
			"bufferView":31,
			"componentType":5126,
			"count":42,
			"type":"VEC2"
		},
		{
			"bufferView":32,
			"componentType":5126,
			"count":42,
			"type":"VEC4"
		},
		{
			"bufferView":33,
			"componentType":5123,
			"count":120,
			"type":"SCALAR"
		},
		{
			"bufferView":34,
			"componentType":5126,
			"count":42,
			"max":[
				1.8939414024353027,
				0.16285604238510132,
				1.8939411640167236
			],
			"min":[
				-1.893941879272461,
				-1.1400043964385986,
				-1.89394211769104
			],
			"type":"VEC3"
		},
		{
			"bufferView":35,
			"componentType":5126,
			"count":42,
			"type":"VEC3"
		},
		{
			"bufferView":36,
			"componentType":5126,
			"count":42,
			"type":"VEC2"
		},
		{
			"bufferView":37,
			"componentType":5126,
			"count":42,
			"type":"VEC4"
		},
		{
			"bufferView":38,
			"componentType":5123,
			"count":120,
			"type":"SCALAR"
		},
		{
			"bufferView":39,
			"componentType":5126,
			"count":404,
			"max":[
				2,
				2,
				0.6129116415977478
			],
			"min":[
				-2,
				-1.9990134239196777,
				-0.6479970216751099
			],
			"type":"VEC3"
		},
		{
			"bufferView":40,
			"componentType":5126,
			"count":404,
			"type":"VEC3"
		},
		{
			"bufferView":41,
			"componentType":5126,
			"count":404,
			"type":"VEC2"
		},
		{
			"bufferView":42,
			"componentType":5126,
			"count":404,
			"type":"VEC4"
		},
		{
			"bufferView":43,
			"componentType":5123,
			"count":1200,
			"type":"SCALAR"
		}
	],
	"bufferViews":[
		{
			"buffer":0,
			"byteLength":1260,
			"byteOffset":0,
			"target":34962
		},
		{
			"buffer":0,
			"byteLength":1260,
			"byteOffset":1260,
			"target":34962
		},
		{
			"buffer":0,
			"byteLength":840,
			"byteOffset":2520,
			"target":34962
		},
		{
			"buffer":0,
			"byteLength":1680,
			"byteOffset":3360,
			"target":34962
		},
		{
			"buffer":0,
			"byteLength":960,
			"byteOffset":5040,
			"target":34963
		},
		{
			"buffer":0,
			"byteLength":1260,
			"byteOffset":6000,
			"target":34962
		},
		{
			"buffer":0,
			"byteLength":1260,
			"byteOffset":7260,
			"target":34962
		},
		{
			"buffer":0,
			"byteLength":840,
			"byteOffset":8520,
			"target":34962
		},
		{
			"buffer":0,
			"byteLength":1680,
			"byteOffset":9360,
			"target":34962
		},
		{
			"buffer":0,
			"byteLength":960,
			"byteOffset":11040,
			"target":34963
		},
		{
			"buffer":0,
			"byteLength":432,
			"byteOffset":12000,
			"target":34962
		},
		{
			"buffer":0,
			"byteLength":432,
			"byteOffset":12432,
			"target":34962
		},
		{
			"buffer":0,
			"byteLength":288,
			"byteOffset":12864,
			"target":34962
		},
		{
			"buffer":0,
			"byteLength":576,
			"byteOffset":13152,
			"target":34962
		},
		{
			"buffer":0,
			"byteLength":228,
			"byteOffset":13728,
			"target":34963
		},
		{
			"buffer":0,
			"byteLength":432,
			"byteOffset":13956,
			"target":34962
		},
		{
			"buffer":0,
			"byteLength":432,
			"byteOffset":14388,
			"target":34962
		},
		{
			"buffer":0,
			"byteLength":288,
			"byteOffset":14820,
			"target":34962
		},
		{
			"buffer":0,
			"byteLength":576,
			"byteOffset":15108,
			"target":34962
		},
		{
			"buffer":0,
			"byteLength":504,
			"byteOffset":15684,
			"target":34962
		},
		{
			"buffer":0,
			"byteLength":504,
			"byteOffset":16188,
			"target":34962
		},
		{
			"buffer":0,
			"byteLength":336,
			"byteOffset":16692,
			"target":34962
		},
		{
			"buffer":0,
			"byteLength":672,
			"byteOffset":17028,
			"target":34962
		},
		{
			"buffer":0,
			"byteLength":240,
			"byteOffset":17700,
			"target":34963
		},
		{
			"buffer":0,
			"byteLength":504,
			"byteOffset":17940,
			"target":34962
		},
		{
			"buffer":0,
			"byteLength":504,
			"byteOffset":18444,
			"target":34962
		},
		{
			"buffer":0,
			"byteLength":336,
			"byteOffset":18948,
			"target":34962
		},
		{
			"buffer":0,
			"byteLength":672,
			"byteOffset":19284,
			"target":34962
		},
		{
			"buffer":0,
			"byteLength":240,
			"byteOffset":19956,
			"target":34963
		},
		{
			"buffer":0,
			"byteLength":504,
			"byteOffset":20196,
			"target":34962
		},
		{
			"buffer":0,
			"byteLength":504,
			"byteOffset":20700,
			"target":34962
		},
		{
			"buffer":0,
			"byteLength":336,
			"byteOffset":21204,
			"target":34962
		},
		{
			"buffer":0,
			"byteLength":672,
			"byteOffset":21540,
			"target":34962
		},
		{
			"buffer":0,
			"byteLength":240,
			"byteOffset":22212,
			"target":34963
		},
		{
			"buffer":0,
			"byteLength":504,
			"byteOffset":22452,
			"target":34962
		},
		{
			"buffer":0,
			"byteLength":504,
			"byteOffset":22956,
			"target":34962
		},
		{
			"buffer":0,
			"byteLength":336,
			"byteOffset":23460,
			"target":34962
		},
		{
			"buffer":0,
			"byteLength":672,
			"byteOffset":23796,
			"target":34962
		},
		{
			"buffer":0,
			"byteLength":240,
			"byteOffset":24468,
			"target":34963
		},
		{
			"buffer":0,
			"byteLength":4848,
			"byteOffset":24708,
			"target":34962
		},
		{
			"buffer":0,
			"byteLength":4848,
			"byteOffset":29556,
			"target":34962
		},
		{
			"buffer":0,
			"byteLength":3232,
			"byteOffset":34404,
			"target":34962
		},
		{
			"buffer":0,
			"byteLength":6464,
			"byteOffset":37636,
			"target":34962
		},
		{
			"buffer":0,
			"byteLength":2400,
			"byteOffset":44100,
			"target":34963
		}
	],
	"samplers":[
		{
			"magFilter":9729,
			"minFilter":9987
		}
	],
	"buffers":[
		{
			"byteLength":46500,
			"uri":"VFX_Banshee_Meshes.bin"
		}
	]
}
