{
  "asset": {
    "generator": "UnityGltf 2.16.1, Unity 2022.3.44f1, Built-in RP",
    "version": "2.0"
  },
  "extensionsUsed": [
    "KHR_texture_transform"
  ],
  "scene": 0,
  "scenes": [
    {
      "nodes": [
        0
      ],
      "name": "VFX_Banshee_ShoutStart_Aurora"
    }
  ],
  "accessors": [
    {
      "bufferView": 0,
      "componentType": 5126,
      "count": 89,
      "type": "VEC3",
      "max": [
        2.581063985824585,
        1.6815664768218994,
        2.5810644626617432
      ],
      "min": [
        -2.5810647010803223,
        1.6815664768218994,
        -2.5810656547546387
      ]
    },
    {
      "bufferView": 1,
      "componentType": 5126,
      "count": 89,
      "type": "VEC3",
      "max": [
        0.0,
        1.0,
        6.9139269953666371E-07
      ],
      "min": [
        0.0,
        1.0,
        -1.3827877864969196E-06
      ]
    },
    {
      "bufferView": 2,
      "componentType": 5126,
      "count": 89,
      "type": "VEC4",
      "max": [
        1.0,
        0.0,
        1.0,
        1.0
      ],
      "min": [
        -1.0,
        0.0,
        -1.0,
        -1.0
      ]
    },
    {
      "bufferView": 3,
      "componentType": 5126,
      "count": 89,
      "type": "VEC2",
      "max": [
        3.7996952533721924,
        1.1166312694549561
      ],
      "min": [
        0.19998367130756378,
        0.62624359130859375
      ]
    },
    {
      "bufferView": 4,
      "componentType": 5121,
      "count": 360,
      "type": "SCALAR",
      "max": [
        88.0
      ],
      "min": [
        0.0
      ]
    },
    {
      "bufferView": 5,
      "componentType": 5126,
      "count": 84,
      "type": "VEC3",
      "max": [
        2.581063985824585,
        1.6815664768218994,
        2.5810644626617432
      ],
      "min": [
        -2.5810647010803223,
        1.6815664768218994,
        -2.5810656547546387
      ]
    },
    {
      "bufferView": 6,
      "componentType": 5126,
      "count": 84,
      "type": "VEC3",
      "max": [
        0.0,
        1.0,
        1.382783921144437E-06
      ],
      "min": [
        0.0,
        1.0,
        -6.9139127845119219E-07
      ]
    },
    {
      "bufferView": 7,
      "componentType": 5126,
      "count": 84,
      "type": "VEC4",
      "max": [
        1.0,
        0.0,
        1.0,
        1.0
      ],
      "min": [
        -1.0,
        0.0,
        -1.0,
        1.0
      ]
    },
    {
      "bufferView": 8,
      "componentType": 5126,
      "count": 84,
      "type": "VEC2",
      "max": [
        1.5027085542678833,
        1.499273419380188
      ],
      "min": [
        -1.5027084350585938,
        0.500726580619812
      ]
    },
    {
      "bufferView": 9,
      "componentType": 5121,
      "count": 360,
      "type": "SCALAR",
      "max": [
        83.0
      ],
      "min": [
        0.0
      ]
    },
    {
      "bufferView": 10,
      "componentType": 5126,
      "count": 42,
      "type": "VEC3",
      "max": [
        2.0947649478912354,
        1.8023372888565063,
        2.0947651863098145
      ],
      "min": [
        -2.0947654247283936,
        1.8023372888565063,
        -2.0947659015655518
      ]
    },
    {
      "bufferView": 11,
      "componentType": 5126,
      "count": 42,
      "type": "VEC3",
      "max": [
        0.0,
        1.0,
        5.7759541505220113E-07
      ],
      "min": [
        0.0,
        1.0,
        -4.1514701365485962E-07
      ]
    },
    {
      "bufferView": 12,
      "componentType": 5126,
      "count": 42,
      "type": "VEC4",
      "max": [
        1.0,
        0.0,
        1.0,
        1.0
      ],
      "min": [
        -1.0,
        0.0,
        -1.0,
        1.0
      ]
    },
    {
      "bufferView": 13,
      "componentType": 5126,
      "count": 42,
      "type": "VEC2",
      "max": [
        5.0048303604125977,
        1.1228408813476563
      ],
      "min": [
        0.0063257813453674316,
        0.45701509714126587
      ]
    },
    {
      "bufferView": 14,
      "componentType": 5121,
      "count": 120,
      "type": "SCALAR",
      "max": [
        41.0
      ],
      "min": [
        0.0
      ]
    },
    {
      "bufferView": 15,
      "componentType": 5126,
      "count": 13,
      "type": "SCALAR",
      "max": [
        0.4583333432674408
      ],
      "min": [
        0.0
      ]
    },
    {
      "bufferView": 16,
      "componentType": 5126,
      "count": 13,
      "type": "VEC3",
      "max": [
        0.00021894746168982238,
        0.57705903053283691,
        0.00010994043987011537
      ],
      "min": [
        9.6988915174733847E-06,
        0.5263945460319519,
        5.3075932555657346E-06
      ]
    },
    {
      "bufferView": 17,
      "componentType": 5126,
      "count": 2,
      "type": "SCALAR",
      "max": [
        0.4583333432674408
      ],
      "min": [
        0.0
      ]
    },
    {
      "bufferView": 18,
      "componentType": 5126,
      "count": 2,
      "type": "VEC4",
      "max": [
        0.0,
        0.0,
        0.0,
        -1.0
      ],
      "min": [
        0.0,
        0.0,
        0.0,
        -1.0
      ]
    },
    {
      "bufferView": 19,
      "componentType": 5126,
      "count": 13,
      "type": "SCALAR",
      "max": [
        0.4583333432674408
      ],
      "min": [
        0.0
      ]
    },
    {
      "bufferView": 20,
      "componentType": 5126,
      "count": 13,
      "type": "VEC3",
      "max": [
        1.000113844871521,
        1.000113844871521,
        1.000113844871521
      ],
      "min": [
        0.04296875,
        0.04296875,
        0.04296875
      ]
    },
    {
      "bufferView": 21,
      "componentType": 5126,
      "count": 2,
      "type": "SCALAR",
      "max": [
        0.4583333432674408
      ],
      "min": [
        0.0
      ]
    },
    {
      "bufferView": 22,
      "componentType": 5126,
      "count": 2,
      "type": "VEC3",
      "max": [
        2.288818308215923E-07,
        0.52460372447967529,
        3.0517577442878974E-07
      ],
      "min": [
        2.288818308215923E-07,
        0.52460372447967529,
        3.0517577442878974E-07
      ]
    },
    {
      "bufferView": 23,
      "componentType": 5126,
      "count": 2,
      "type": "SCALAR",
      "max": [
        0.4583333432674408
      ],
      "min": [
        0.0
      ]
    },
    {
      "bufferView": 24,
      "componentType": 5126,
      "count": 2,
      "type": "VEC4",
      "max": [
        0.0,
        0.0,
        0.0,
        -1.0
      ],
      "min": [
        0.0,
        0.0,
        0.0,
        -1.0
      ]
    },
    {
      "bufferView": 25,
      "componentType": 5126,
      "count": 11,
      "type": "SCALAR",
      "max": [
        0.4583333432674408
      ],
      "min": [
        0.0
      ]
    },
    {
      "bufferView": 26,
      "componentType": 5126,
      "count": 11,
      "type": "VEC3",
      "max": [
        1.0001062154769897,
        1.0001062154769897,
        1.0001062154769897
      ],
      "min": [
        0.055393587797880173,
        0.055393587797880173,
        0.055393587797880173
      ]
    },
    {
      "bufferView": 27,
      "componentType": 5126,
      "count": 1,
      "type": "MAT4"
    },
    {
      "bufferView": 28,
      "componentType": 5123,
      "count": 89,
      "type": "VEC4",
      "max": [
        0.0,
        0.0,
        0.0,
        0.0
      ],
      "min": [
        0.0,
        0.0,
        0.0,
        0.0
      ]
    },
    {
      "bufferView": 29,
      "componentType": 5126,
      "count": 89,
      "type": "VEC4",
      "max": [
        1.0,
        0.0,
        0.0,
        0.0
      ],
      "min": [
        1.0,
        0.0,
        0.0,
        0.0
      ]
    },
    {
      "bufferView": 30,
      "componentType": 5126,
      "count": 1,
      "type": "MAT4"
    },
    {
      "bufferView": 31,
      "componentType": 5123,
      "count": 84,
      "type": "VEC4",
      "max": [
        0.0,
        0.0,
        0.0,
        0.0
      ],
      "min": [
        0.0,
        0.0,
        0.0,
        0.0
      ]
    },
    {
      "bufferView": 32,
      "componentType": 5126,
      "count": 84,
      "type": "VEC4",
      "max": [
        1.0,
        0.0,
        0.0,
        0.0
      ],
      "min": [
        1.0,
        0.0,
        0.0,
        0.0
      ]
    },
    {
      "bufferView": 33,
      "componentType": 5126,
      "count": 1,
      "type": "MAT4"
    },
    {
      "bufferView": 34,
      "componentType": 5123,
      "count": 42,
      "type": "VEC4",
      "max": [
        0.0,
        0.0,
        0.0,
        0.0
      ],
      "min": [
        0.0,
        0.0,
        0.0,
        0.0
      ]
    },
    {
      "bufferView": 35,
      "componentType": 5126,
      "count": 42,
      "type": "VEC4",
      "max": [
        1.0,
        0.0,
        0.0,
        0.0
      ],
      "min": [
        1.0,
        0.0,
        0.0,
        0.0
      ]
    }
  ],
  "animations": [
    {
      "channels": [
        {
          "sampler": 0,
          "target": {
            "node": 2,
            "path": "translation"
          }
        },
        {
          "sampler": 1,
          "target": {
            "node": 2,
            "path": "rotation"
          }
        },
        {
          "sampler": 2,
          "target": {
            "node": 2,
            "path": "scale"
          }
        },
        {
          "sampler": 3,
          "target": {
            "node": 6,
            "path": "translation"
          }
        },
        {
          "sampler": 4,
          "target": {
            "node": 6,
            "path": "rotation"
          }
        },
        {
          "sampler": 5,
          "target": {
            "node": 6,
            "path": "scale"
          }
        }
      ],
      "samplers": [
        {
          "input": 15,
          "interpolation": "LINEAR",
          "output": 16
        },
        {
          "input": 17,
          "interpolation": "LINEAR",
          "output": 18
        },
        {
          "input": 19,
          "interpolation": "LINEAR",
          "output": 20
        },
        {
          "input": 21,
          "interpolation": "LINEAR",
          "output": 22
        },
        {
          "input": 23,
          "interpolation": "LINEAR",
          "output": 24
        },
        {
          "input": 25,
          "interpolation": "LINEAR",
          "output": 26
        }
      ],
      "name": "vfx_shoutStart"
    }
  ],
  "buffers": [
    {
      "uri": "VFX_Banshee_ShoutStart_Aurora.bin",
      "byteLength": 17216
    }
  ],
  "bufferViews": [
    {
      "buffer": 0,
      "byteLength": 1068,
      "byteStride": 12,
      "target": 34962
    },
    {
      "buffer": 0,
      "byteOffset": 1068,
      "byteLength": 1068,
      "byteStride": 12,
      "target": 34962
    },
    {
      "buffer": 0,
      "byteOffset": 2136,
      "byteLength": 1424,
      "target": 34962
    },
    {
      "buffer": 0,
      "byteOffset": 3560,
      "byteLength": 712,
      "target": 34962
    },
    {
      "buffer": 0,
      "byteOffset": 4272,
      "byteLength": 360,
      "target": 34963
    },
    {
      "buffer": 0,
      "byteOffset": 4632,
      "byteLength": 1008,
      "byteStride": 12,
      "target": 34962
    },
    {
      "buffer": 0,
      "byteOffset": 5640,
      "byteLength": 1008,
      "byteStride": 12,
      "target": 34962
    },
    {
      "buffer": 0,
      "byteOffset": 6648,
      "byteLength": 1344,
      "target": 34962
    },
    {
      "buffer": 0,
      "byteOffset": 7992,
      "byteLength": 672,
      "target": 34962
    },
    {
      "buffer": 0,
      "byteOffset": 8664,
      "byteLength": 360,
      "target": 34963
    },
    {
      "buffer": 0,
      "byteOffset": 9024,
      "byteLength": 504,
      "byteStride": 12,
      "target": 34962
    },
    {
      "buffer": 0,
      "byteOffset": 9528,
      "byteLength": 504,
      "byteStride": 12,
      "target": 34962
    },
    {
      "buffer": 0,
      "byteOffset": 10032,
      "byteLength": 672,
      "target": 34962
    },
    {
      "buffer": 0,
      "byteOffset": 10704,
      "byteLength": 336,
      "target": 34962
    },
    {
      "buffer": 0,
      "byteOffset": 11040,
      "byteLength": 120,
      "target": 34963
    },
    {
      "buffer": 0,
      "byteOffset": 11160,
      "byteLength": 52
    },
    {
      "buffer": 0,
      "byteOffset": 11212,
      "byteLength": 156
    },
    {
      "buffer": 0,
      "byteOffset": 11368,
      "byteLength": 8
    },
    {
      "buffer": 0,
      "byteOffset": 11376,
      "byteLength": 32
    },
    {
      "buffer": 0,
      "byteOffset": 11408,
      "byteLength": 52
    },
    {
      "buffer": 0,
      "byteOffset": 11460,
      "byteLength": 156
    },
    {
      "buffer": 0,
      "byteOffset": 11616,
      "byteLength": 8
    },
    {
      "buffer": 0,
      "byteOffset": 11624,
      "byteLength": 24
    },
    {
      "buffer": 0,
      "byteOffset": 11648,
      "byteLength": 8
    },
    {
      "buffer": 0,
      "byteOffset": 11656,
      "byteLength": 32
    },
    {
      "buffer": 0,
      "byteOffset": 11688,
      "byteLength": 44
    },
    {
      "buffer": 0,
      "byteOffset": 11732,
      "byteLength": 132
    },
    {
      "buffer": 0,
      "byteOffset": 11864,
      "byteLength": 64
    },
    {
      "buffer": 0,
      "byteOffset": 11928,
      "byteLength": 712,
      "target": 34962
    },
    {
      "buffer": 0,
      "byteOffset": 12640,
      "byteLength": 1424,
      "target": 34962
    },
    {
      "buffer": 0,
      "byteOffset": 14064,
      "byteLength": 64
    },
    {
      "buffer": 0,
      "byteOffset": 14128,
      "byteLength": 672,
      "target": 34962
    },
    {
      "buffer": 0,
      "byteOffset": 14800,
      "byteLength": 1344,
      "target": 34962
    },
    {
      "buffer": 0,
      "byteOffset": 16144,
      "byteLength": 64
    },
    {
      "buffer": 0,
      "byteOffset": 16208,
      "byteLength": 336,
      "target": 34962
    },
    {
      "buffer": 0,
      "byteOffset": 16544,
      "byteLength": 672,
      "target": 34962
    }
  ],
  "images": [
    {
      "uri": "v4.png",
      "name": "v4"
    },
    {
      "uri": "star.png",
      "name": "star"
    },
    {
      "uri": "v1.png",
      "name": "v1"
    }
  ],
  "materials": [
    {
      "pbrMetallicRoughness": {
        "baseColorFactor": [
          0.6038274,
          0.6038274,
          0.6038274,
          1.0
        ],
        "baseColorTexture": {
          "index": 0,
          "extensions": {
            "KHR_texture_transform": {
              "texCoord": 0
            }
          }
        },
        "metallicFactor": 0.0
      },
      "alphaMode": "BLEND",
      "name": "aurora_glow"
    },
    {
      "pbrMetallicRoughness": {
        "baseColorFactor": [
          0.6038274,
          0.6038274,
          0.6038274,
          1.0
        ],
        "baseColorTexture": {
          "index": 1,
          "extensions": {
            "KHR_texture_transform": {
              "texCoord": 0
            }
          }
        },
        "metallicFactor": 0.0
      },
      "alphaMode": "BLEND",
      "name": "stars"
    },
    {
      "pbrMetallicRoughness": {
        "baseColorFactor": [
          0.6038274,
          0.6038274,
          0.6038274,
          1.0
        ],
        "baseColorTexture": {
          "index": 2,
          "extensions": {
            "KHR_texture_transform": {
              "texCoord": 0
            }
          }
        },
        "metallicFactor": 0.0
      },
      "alphaMode": "BLEND",
      "name": "first_glow"
    }
  ],
  "meshes": [
    {
      "primitives": [
        {
          "attributes": {
            "POSITION": 0,
            "NORMAL": 1,
            "TANGENT": 2,
            "TEXCOORD_0": 3,
            "JOINTS_0": 28,
            "WEIGHTS_0": 29
          },
          "indices": 4,
          "material": 0
        }
      ],
      "name": "mesh_aurora"
    },
    {
      "primitives": [
        {
          "attributes": {
            "POSITION": 5,
            "NORMAL": 6,
            "TANGENT": 7,
            "TEXCOORD_0": 8,
            "JOINTS_0": 31,
            "WEIGHTS_0": 32
          },
          "indices": 9,
          "material": 1
        }
      ],
      "name": "mesh_stars"
    },
    {
      "primitives": [
        {
          "attributes": {
            "POSITION": 10,
            "NORMAL": 11,
            "TANGENT": 12,
            "TEXCOORD_0": 13,
            "JOINTS_0": 34,
            "WEIGHTS_0": 35
          },
          "indices": 14,
          "material": 2
        }
      ],
      "name": "mesh_start_glow"
    }
  ],
  "nodes": [
    {
      "children": [
        1,
        5
      ],
      "rotation": [
        0.0,
        0.07774047,
        0.0,
        0.996973634
      ],
      "name": "VFX_Banshee_ShoutStart_Aurora"
    },
    {
      "children": [
        2,
        3,
        4
      ],
      "translation": [
        -3.05175774E-07,
        1.68156648,
        -6.10351549E-07
      ],
      "name": "vfx_aurora"
    },
    {
      "scale": [
        0.04296875,
        0.04296875,
        0.04296875
      ],
      "translation": [
        9.69889152E-06,
        0.577059031,
        5.30759326E-06
      ],
      "name": "jnt_aurora"
    },
    {
      "skin": 0,
      "mesh": 0,
      "translation": [
        3.05175774E-07,
        -1.68156648,
        6.10351549E-07
      ],
      "name": "mesh_aurora"
    },
    {
      "skin": 1,
      "mesh": 1,
      "scale": [
        0.94832325,
        0.853772759,
        0.94832325
      ],
      "translation": [
        3.05175774E-07,
        -1.65180326,
        6.10351549E-07
      ],
      "name": "mesh_stars"
    },
    {
      "children": [
        6,
        7
      ],
      "translation": [
        -2.28881831E-07,
        1.84444439,
        -3.05175774E-07
      ],
      "name": "vfx_start"
    },
    {
      "scale": [
        0.0553935878,
        0.0553935878,
        0.0553935878
      ],
      "translation": [
        2.28881831E-07,
        0.5247032,
        3.05175774E-07
      ],
      "name": "jnt_start"
    },
    {
      "skin": 2,
      "mesh": 2,
      "translation": [
        2.28881831E-07,
        -1.84444439,
        3.05175774E-07
      ],
      "name": "mesh_start_glow"
    }
  ],
  "samplers": [
    {
      "minFilter": 9987
    }
  ],
  "skins": [
    {
      "inverseBindMatrices": 27,
      "joints": [
        2
      ]
    },
    {
      "inverseBindMatrices": 30,
      "joints": [
        2
      ]
    },
    {
      "inverseBindMatrices": 33,
      "joints": [
        6
      ]
    }
  ],
  "textures": [
    {
      "sampler": 0,
      "source": 0,
      "name": "v4"
    },
    {
      "sampler": 0,
      "source": 1,
      "name": "star"
    },
    {
      "sampler": 0,
      "source": 2,
      "name": "v1"
    }
  ]
}