{
	"asset":{
		"generator":"Khronos glTF Blender I/O v4.2.57",
		"version":"2.0"
	},
	"extensionsUsed":[
		"KHR_materials_specular"
	],
	"scene":0,
	"scenes":[
		{
			"name":"Scene",
			"nodes":[
				0,
				1,
				2,
				3,
				4
			]
		}
	],
	"nodes":[
		{
			"mesh":0,
			"name":"Sproud_Vertical_Mesh",
			"rotation":[
				0,
				0.5735764503479004,
				0,
				0.8191521763801575
			],
			"scale":[
				0.03509309142827988,
				0.20561543107032776,
				0.035093117505311966
			],
			"translation":[
				0,
				-0.045402392745018005,
				0
			]
		},
		{
			"mesh":1,
			"name":"White_Waves",
			"scale":[
				0.05643755942583084,
				0.05643755942583084,
				0.05643755942583084
			],
			"translation":[
				0,
				-0.10952071845531464,
				-0.6636943817138672
			]
		},
		{
			"mesh":2,
			"name":"Waves_Cylinder_Mesh",
			"scale":[
				0.0614241361618042,
				0.0614241361618042,
				0.0614241361618042
			],
			"translation":[
				0,
				0.042503051459789276,
				0
			]
		},
		{
			"mesh":3,
			"name":"Circle_Big_Mesh",
			"scale":[
				0.08911711722612381,
				0.08911711722612381,
				0.08911711722612381
			],
			"translation":[
				0,
				-0.11052606999874115,
				-0.044927120208740234
			]
		},
		{
			"mesh":4,
			"name":"Explosion_Sphere_Mesh",
			"scale":[
				1.4555071592330933,
				0.6225265264511108,
				1.4555071592330933
			],
			"translation":[
				0,
				0.3378473222255707,
				0.033741436898708344
			]
		}
	],
	"animations":[
		{
			"channels":[
				{
					"sampler":0,
					"target":{
						"node":0,
						"path":"rotation"
					}
				}
			],
			"name":"Sproud_Vertical_AN",
			"samplers":[
				{
					"input":20,
					"interpolation":"LINEAR",
					"output":21
				}
			]
		}
	],
	"materials":[
		{
			"alphaMode":"BLEND",
			"doubleSided":true,
			"extensions":{
				"KHR_materials_specular":{
					"specularColorFactor":[
						2.0,
						2.0,
						2.0
					]
				}
			},
			"name":"M_CylinderBig",
			"pbrMetallicRoughness":{
				"baseColorTexture":{
					"index":0
				},
				"metallicFactor":0,
				"roughnessFactor":0.5527864098548889
			}
		},
		{
			"alphaMode":"BLEND",
			"doubleSided":true,
			"extensions":{
				"KHR_materials_specular":{
					"specularColorFactor":[
						2.0,
						2.0,
						2.0
					]
				}
			},
			"name":"02 - Default",
			"pbrMetallicRoughness":{
				"baseColorTexture":{
					"index":1
				},
				"metallicFactor":0,
				"roughnessFactor":0.5527864098548889
			}
		},
		{
			"alphaMode":"BLEND",
			"doubleSided":true,
			"extensions":{
				"KHR_materials_specular":{
					"specularColorFactor":[
						2.0,
						2.0,
						2.0
					]
				}
			},
			"name":"02 - Default.002",
			"pbrMetallicRoughness":{
				"baseColorTexture":{
					"index":2
				},
				"metallicFactor":0,
				"roughnessFactor":0.5527864098548889
			}
		},
		{
			"alphaMode":"BLEND",
			"doubleSided":true,
			"extensions":{
				"KHR_materials_specular":{
					"specularColorFactor":[
						2.0,
						2.0,
						2.0
					]
				}
			},
			"name":"02 - Default.004",
			"pbrMetallicRoughness":{
				"baseColorTexture":{
					"index":3
				},
				"metallicFactor":0,
				"roughnessFactor":0.5527864098548889
			}
		},
		{
			"alphaMode":"BLEND",
			"doubleSided":true,
			"extensions":{
				"KHR_materials_specular":{
					"specularColorFactor":[
						2.0,
						2.0,
						2.0
					]
				}
			},
			"name":"Explosion",
			"pbrMetallicRoughness":{
				"baseColorTexture":{
					"index":4
				},
				"metallicFactor":0,
				"roughnessFactor":0.5527864098548889
			}
		}
	],
	"meshes":[
		{
			"name":"Mesh.006",
			"primitives":[
				{
					"attributes":{
						"POSITION":0,
						"NORMAL":1,
						"TEXCOORD_0":2
					},
					"indices":3,
					"material":0
				}
			]
		},
		{
			"name":"Mesh.007",
			"primitives":[
				{
					"attributes":{
						"POSITION":4,
						"NORMAL":5,
						"TEXCOORD_0":6
					},
					"indices":7,
					"material":1
				}
			]
		},
		{
			"name":"Mesh.008",
			"primitives":[
				{
					"attributes":{
						"POSITION":8,
						"NORMAL":9,
						"TEXCOORD_0":10
					},
					"indices":11,
					"material":2
				}
			]
		},
		{
			"name":"Mesh.004",
			"primitives":[
				{
					"attributes":{
						"POSITION":12,
						"NORMAL":13,
						"TEXCOORD_0":14
					},
					"indices":15,
					"material":3
				}
			]
		},
		{
			"name":"Mesh.002",
			"primitives":[
				{
					"attributes":{
						"POSITION":16,
						"NORMAL":17,
						"TEXCOORD_0":18
					},
					"indices":19,
					"material":4
				}
			]
		}
	],
	"textures":[
		{
			"sampler":0,
			"source":0
		},
		{
			"sampler":1,
			"source":1
		},
		{
			"sampler":0,
			"source":2
		},
		{
			"sampler":0,
			"source":3
		},
		{
			"sampler":0,
			"source":4
		}
	],
	"images":[
		{
			"mimeType":"image/png",
			"name":"Vertical_Water",
			"uri":"Vertical_Water.png"
		},
		{
			"mimeType":"image/png",
			"name":"Decal_Ground2",
			"uri":"Decal_Ground2.png"
		},
		{
			"mimeType":"image/png",
			"name":"Waves_Sides.png",
			"uri":"Waves_Sides_png.png"
		},
		{
			"mimeType":"image/png",
			"name":"Decal_2",
			"uri":"Decal_2.png"
		},
		{
			"mimeType":"image/png",
			"name":"Explosion2",
			"uri":"Explosion2.png"
		}
	],
	"accessors":[
		{
			"bufferView":0,
			"componentType":5126,
			"count":296,
			"max":[
				24.96632194519043,
				50.00001525878906,
				24.963394165039062
			],
			"min":[
				-24.966320037841797,
				0,
				-24.963394165039062
			],
			"type":"VEC3"
		},
		{
			"bufferView":1,
			"componentType":5126,
			"count":296,
			"type":"VEC3"
		},
		{
			"bufferView":2,
			"componentType":5126,
			"count":296,
			"type":"VEC2"
		},
		{
			"bufferView":3,
			"componentType":5123,
			"count":1512,
			"type":"SCALAR"
		},
		{
			"bufferView":4,
			"componentType":5126,
			"count":185,
			"max":[
				26.996755599975586,
				1.4314842224121094,
				38.19626235961914
			],
			"min":[
				-26.996755599975586,
				1.4314842224121094,
				-15.536907196044922
			],
			"type":"VEC3"
		},
		{
			"bufferView":5,
			"componentType":5126,
			"count":185,
			"type":"VEC3"
		},
		{
			"bufferView":6,
			"componentType":5126,
			"count":185,
			"type":"VEC2"
		},
		{
			"bufferView":7,
			"componentType":5123,
			"count":864,
			"type":"SCALAR"
		},
		{
			"bufferView":8,
			"componentType":5126,
			"count":111,
			"max":[
				19.139202117919922,
				5.052165985107422,
				19.136962890625
			],
			"min":[
				-19.139205932617188,
				0,
				-19.136960983276367
			],
			"type":"VEC3"
		},
		{
			"bufferView":9,
			"componentType":5126,
			"count":111,
			"type":"VEC3"
		},
		{
			"bufferView":10,
			"componentType":5126,
			"count":111,
			"type":"VEC2"
		},
		{
			"bufferView":11,
			"componentType":5123,
			"count":432,
			"type":"SCALAR"
		},
		{
			"bufferView":12,
			"componentType":5126,
			"count":37,
			"max":[
				28.284271240234375,
				0,
				27.854572296142578
			],
			"min":[
				-28.284271240234375,
				0,
				-27.854570388793945
			],
			"type":"VEC3"
		},
		{
			"bufferView":13,
			"componentType":5126,
			"count":37,
			"type":"VEC3"
		},
		{
			"bufferView":14,
			"componentType":5126,
			"count":37,
			"type":"VEC2"
		},
		{
			"bufferView":15,
			"componentType":5123,
			"count":108,
			"type":"SCALAR"
		},
		{
			"bufferView":16,
			"componentType":5126,
			"count":198,
			"max":[
				1.0699957609176636,
				1.2143731117248535,
				1.058593988418579
			],
			"min":[
				-1.0699957609176636,
				-0.3671867847442627,
				-1.0813974142074585
			],
			"type":"VEC3"
		},
		{
			"bufferView":17,
			"componentType":5126,
			"count":198,
			"type":"VEC3"
		},
		{
			"bufferView":18,
			"componentType":5126,
			"count":198,
			"type":"VEC2"
		},
		{
			"bufferView":19,
			"componentType":5123,
			"count":960,
			"type":"SCALAR"
		},
		{
			"bufferView":20,
			"componentType":5126,
			"count":50,
			"max":[
				5.633333333333334
			],
			"min":[
				4
			],
			"type":"SCALAR"
		},
		{
			"bufferView":21,
			"componentType":5126,
			"count":50,
			"type":"VEC4"
		}
	],
	"bufferViews":[
		{
			"buffer":0,
			"byteLength":3552,
			"byteOffset":0,
			"target":34962
		},
		{
			"buffer":0,
			"byteLength":3552,
			"byteOffset":3552,
			"target":34962
		},
		{
			"buffer":0,
			"byteLength":2368,
			"byteOffset":7104,
			"target":34962
		},
		{
			"buffer":0,
			"byteLength":3024,
			"byteOffset":9472,
			"target":34963
		},
		{
			"buffer":0,
			"byteLength":2220,
			"byteOffset":12496,
			"target":34962
		},
		{
			"buffer":0,
			"byteLength":2220,
			"byteOffset":14716,
			"target":34962
		},
		{
			"buffer":0,
			"byteLength":1480,
			"byteOffset":16936,
			"target":34962
		},
		{
			"buffer":0,
			"byteLength":1728,
			"byteOffset":18416,
			"target":34963
		},
		{
			"buffer":0,
			"byteLength":1332,
			"byteOffset":20144,
			"target":34962
		},
		{
			"buffer":0,
			"byteLength":1332,
			"byteOffset":21476,
			"target":34962
		},
		{
			"buffer":0,
			"byteLength":888,
			"byteOffset":22808,
			"target":34962
		},
		{
			"buffer":0,
			"byteLength":864,
			"byteOffset":23696,
			"target":34963
		},
		{
			"buffer":0,
			"byteLength":444,
			"byteOffset":24560,
			"target":34962
		},
		{
			"buffer":0,
			"byteLength":444,
			"byteOffset":25004,
			"target":34962
		},
		{
			"buffer":0,
			"byteLength":296,
			"byteOffset":25448,
			"target":34962
		},
		{
			"buffer":0,
			"byteLength":216,
			"byteOffset":25744,
			"target":34963
		},
		{
			"buffer":0,
			"byteLength":2376,
			"byteOffset":25960,
			"target":34962
		},
		{
			"buffer":0,
			"byteLength":2376,
			"byteOffset":28336,
			"target":34962
		},
		{
			"buffer":0,
			"byteLength":1584,
			"byteOffset":30712,
			"target":34962
		},
		{
			"buffer":0,
			"byteLength":1920,
			"byteOffset":32296,
			"target":34963
		},
		{
			"buffer":0,
			"byteLength":200,
			"byteOffset":34216
		},
		{
			"buffer":0,
			"byteLength":800,
			"byteOffset":34416
		}
	],
	"samplers":[
		{
			"magFilter":9729,
			"minFilter":9987
		},
		{
			"magFilter":9729,
			"minFilter":9987,
			"wrapS":33071,
			"wrapT":33071
		}
	],
	"buffers":[
		{
			"byteLength":35216,
			"uri":"VFX_WaterSproudBlockout_GLTF.bin"
		}
	]
}
