{
	"asset":{
		"generator":"Khronos glTF Blender I/O v4.4.56",
		"version":"2.0"
	},
	"scene":0,
	"scenes":[
		{
			"name":"Scene",
			"nodes":[
				9
			]
		}
	],
	"nodes":[
		{
			"name":"grp_heal_tube.001"
		},
		{
			"children":[
				0
			],
			"name":"grp_heal_tube",
			"scale":[
				0.7104231715202332,
				1,
				0.7104231715202332
			],
			"translation":[
				0,
				0.005777777638286352,
				0
			]
		},
		{
			"children":[
				1
			],
			"name":"grp_heal.001",
			"scale":[
				0.14372384548187256,
				0.9721765518188477,
				0.14372384548187256
			]
		},
		{
			"children":[
				2
			],
			"name":"grp_heal"
		},
		{
			"name":"pCylinder1"
		},
		{
			"name":"jnt_heal1",
			"rotation":[
				1.0584008194690817e-30,
				-4.263256414560601e-14,
				2.6469779601696886e-23,
				1
			],
			"translation":[
				-2.9898779757786542e-05,
				0.006777778267860413,
				-1.0233918747160065e-12
			]
		},
		{
			"children":[
				5
			],
			"name":"jnt_heal",
			"rotation":[
				-8.557135444675623e-09,
				1.7114270889351246e-08,
				-2.928982492183635e-16,
				1
			],
			"translation":[
				-0.00011111111234640703,
				0,
				0
			]
		},
		{
			"mesh":0,
			"name":"polySurface1",
			"skin":0
		},
		{
			"mesh":1,
			"name":"polySurface2",
			"skin":0
		},
		{
			"children":[
				3,
				4,
				7,
				8,
				6
			],
			"name":"x_heal",
			"scale":[
				100,
				100,
				100
			]
		}
	],
	"animations":[
		{
			"channels":[
				{
					"sampler":0,
					"target":{
						"node":6,
						"path":"translation"
					}
				},
				{
					"sampler":1,
					"target":{
						"node":6,
						"path":"rotation"
					}
				},
				{
					"sampler":2,
					"target":{
						"node":6,
						"path":"scale"
					}
				},
				{
					"sampler":3,
					"target":{
						"node":5,
						"path":"translation"
					}
				},
				{
					"sampler":4,
					"target":{
						"node":5,
						"path":"rotation"
					}
				},
				{
					"sampler":5,
					"target":{
						"node":5,
						"path":"scale"
					}
				},
				{
					"sampler":6,
					"target":{
						"node":2,
						"path":"scale"
					}
				},
				{
					"sampler":7,
					"target":{
						"node":0,
						"path":"scale"
					}
				}
			],
			"name":"heal_finish",
			"samplers":[
				{
					"input":13,
					"interpolation":"STEP",
					"output":14
				},
				{
					"input":13,
					"interpolation":"LINEAR",
					"output":15
				},
				{
					"input":16,
					"interpolation":"LINEAR",
					"output":17
				},
				{
					"input":16,
					"interpolation":"LINEAR",
					"output":18
				},
				{
					"input":13,
					"interpolation":"LINEAR",
					"output":19
				},
				{
					"input":16,
					"interpolation":"LINEAR",
					"output":20
				},
				{
					"input":16,
					"interpolation":"LINEAR",
					"output":21
				},
				{
					"input":16,
					"interpolation":"LINEAR",
					"output":22
				}
			]
		},
		{
			"channels":[
				{
					"sampler":0,
					"target":{
						"node":6,
						"path":"translation"
					}
				},
				{
					"sampler":1,
					"target":{
						"node":6,
						"path":"rotation"
					}
				},
				{
					"sampler":2,
					"target":{
						"node":6,
						"path":"scale"
					}
				},
				{
					"sampler":3,
					"target":{
						"node":5,
						"path":"translation"
					}
				},
				{
					"sampler":4,
					"target":{
						"node":5,
						"path":"rotation"
					}
				},
				{
					"sampler":5,
					"target":{
						"node":5,
						"path":"scale"
					}
				},
				{
					"sampler":6,
					"target":{
						"node":2,
						"path":"scale"
					}
				},
				{
					"sampler":7,
					"target":{
						"node":0,
						"path":"scale"
					}
				}
			],
			"name":"heal_start",
			"samplers":[
				{
					"input":23,
					"interpolation":"STEP",
					"output":24
				},
				{
					"input":23,
					"interpolation":"LINEAR",
					"output":25
				},
				{
					"input":26,
					"interpolation":"LINEAR",
					"output":27
				},
				{
					"input":26,
					"interpolation":"LINEAR",
					"output":28
				},
				{
					"input":23,
					"interpolation":"LINEAR",
					"output":29
				},
				{
					"input":26,
					"interpolation":"LINEAR",
					"output":30
				},
				{
					"input":26,
					"interpolation":"LINEAR",
					"output":31
				},
				{
					"input":26,
					"interpolation":"LINEAR",
					"output":32
				}
			]
		}
	],
	"materials":[
		{
			"alphaMode":"BLEND",
			"name":"lambert2",
			"pbrMetallicRoughness":{
				"baseColorFactor":[
					0.6038274168968201,
					0.6038274168968201,
					0.6038274168968201,
					1
				],
				"baseColorTexture":{
					"index":0
				},
				"metallicFactor":0
			}
		}
	],
	"meshes":[
		{
			"name":"polySurface1",
			"primitives":[
				{
					"attributes":{
						"POSITION":0,
						"NORMAL":1,
						"TEXCOORD_0":2,
						"JOINTS_0":3,
						"WEIGHTS_0":4
					},
					"indices":5,
					"material":0
				}
			]
		},
		{
			"name":"polySurface2",
			"primitives":[
				{
					"attributes":{
						"POSITION":7,
						"NORMAL":8,
						"TEXCOORD_0":9,
						"JOINTS_0":10,
						"WEIGHTS_0":11
					},
					"indices":12,
					"material":0
				}
			]
		}
	],
	"textures":[
		{
			"sampler":0,
			"source":0
		}
	],
	"images":[
		{
			"mimeType":"image/png",
			"name":"heal_radio",
			"uri":"heal_radio.png"
		}
	],
	"skins":[
		{
			"inverseBindMatrices":6,
			"joints":[
				6,
				5
			],
			"name":"x_heal"
		}
	],
	"accessors":[
		{
			"bufferView":0,
			"componentType":5126,
			"count":34,
			"max":[
				1.4091508388519287,
				1.9888888597488403,
				1.4076117277145386
			],
			"min":[
				-1.4060726165771484,
				-0.011111143976449966,
				-1.407611608505249
			],
			"type":"VEC3"
		},
		{
			"bufferView":1,
			"componentType":5126,
			"count":34,
			"type":"VEC3"
		},
		{
			"bufferView":2,
			"componentType":5126,
			"count":34,
			"type":"VEC2"
		},
		{
			"bufferView":3,
			"componentType":5121,
			"count":34,
			"type":"VEC4"
		},
		{
			"bufferView":4,
			"componentType":5126,
			"count":34,
			"type":"VEC4"
		},
		{
			"bufferView":5,
			"componentType":5123,
			"count":96,
			"type":"SCALAR"
		},
		{
			"bufferView":6,
			"componentType":5126,
			"count":2,
			"type":"MAT4"
		},
		{
			"bufferView":7,
			"componentType":5126,
			"count":68,
			"max":[
				1.2690882682800293,
				-0.011110678315162659,
				1.2690882682800293
			],
			"min":[
				-1.2690882682800293,
				-0.011111050844192505,
				-1.2690881490707397
			],
			"type":"VEC3"
		},
		{
			"bufferView":8,
			"componentType":5126,
			"count":68,
			"type":"VEC3"
		},
		{
			"bufferView":9,
			"componentType":5126,
			"count":68,
			"type":"VEC2"
		},
		{
			"bufferView":10,
			"componentType":5121,
			"count":68,
			"type":"VEC4"
		},
		{
			"bufferView":11,
			"componentType":5126,
			"count":68,
			"type":"VEC4"
		},
		{
			"bufferView":12,
			"componentType":5123,
			"count":288,
			"type":"SCALAR"
		},
		{
			"bufferView":13,
			"componentType":5126,
			"count":2,
			"max":[
				0.6666666666666666
			],
			"min":[
				0
			],
			"type":"SCALAR"
		},
		{
			"bufferView":14,
			"componentType":5126,
			"count":2,
			"type":"VEC3"
		},
		{
			"bufferView":15,
			"componentType":5126,
			"count":2,
			"type":"VEC4"
		},
		{
			"bufferView":16,
			"componentType":5126,
			"count":17,
			"max":[
				0.6666666666666666
			],
			"min":[
				0
			],
			"type":"SCALAR"
		},
		{
			"bufferView":17,
			"componentType":5126,
			"count":17,
			"type":"VEC3"
		},
		{
			"bufferView":18,
			"componentType":5126,
			"count":17,
			"type":"VEC3"
		},
		{
			"bufferView":19,
			"componentType":5126,
			"count":2,
			"type":"VEC4"
		},
		{
			"bufferView":20,
			"componentType":5126,
			"count":17,
			"type":"VEC3"
		},
		{
			"bufferView":21,
			"componentType":5126,
			"count":17,
			"type":"VEC3"
		},
		{
			"bufferView":22,
			"componentType":5126,
			"count":17,
			"type":"VEC3"
		},
		{
			"bufferView":23,
			"componentType":5126,
			"count":2,
			"max":[
				0.5416666666666666
			],
			"min":[
				0
			],
			"type":"SCALAR"
		},
		{
			"bufferView":24,
			"componentType":5126,
			"count":2,
			"type":"VEC3"
		},
		{
			"bufferView":25,
			"componentType":5126,
			"count":2,
			"type":"VEC4"
		},
		{
			"bufferView":26,
			"componentType":5126,
			"count":14,
			"max":[
				0.5416666666666666
			],
			"min":[
				0
			],
			"type":"SCALAR"
		},
		{
			"bufferView":27,
			"componentType":5126,
			"count":14,
			"type":"VEC3"
		},
		{
			"bufferView":28,
			"componentType":5126,
			"count":14,
			"type":"VEC3"
		},
		{
			"bufferView":29,
			"componentType":5126,
			"count":2,
			"type":"VEC4"
		},
		{
			"bufferView":30,
			"componentType":5126,
			"count":14,
			"type":"VEC3"
		},
		{
			"bufferView":31,
			"componentType":5126,
			"count":14,
			"type":"VEC3"
		},
		{
			"bufferView":32,
			"componentType":5126,
			"count":14,
			"type":"VEC3"
		}
	],
	"bufferViews":[
		{
			"buffer":0,
			"byteLength":408,
			"byteOffset":0,
			"target":34962
		},
		{
			"buffer":0,
			"byteLength":408,
			"byteOffset":408,
			"target":34962
		},
		{
			"buffer":0,
			"byteLength":272,
			"byteOffset":816,
			"target":34962
		},
		{
			"buffer":0,
			"byteLength":136,
			"byteOffset":1088,
			"target":34962
		},
		{
			"buffer":0,
			"byteLength":544,
			"byteOffset":1224,
			"target":34962
		},
		{
			"buffer":0,
			"byteLength":192,
			"byteOffset":1768,
			"target":34963
		},
		{
			"buffer":0,
			"byteLength":128,
			"byteOffset":1960
		},
		{
			"buffer":0,
			"byteLength":816,
			"byteOffset":2088,
			"target":34962
		},
		{
			"buffer":0,
			"byteLength":816,
			"byteOffset":2904,
			"target":34962
		},
		{
			"buffer":0,
			"byteLength":544,
			"byteOffset":3720,
			"target":34962
		},
		{
			"buffer":0,
			"byteLength":272,
			"byteOffset":4264,
			"target":34962
		},
		{
			"buffer":0,
			"byteLength":1088,
			"byteOffset":4536,
			"target":34962
		},
		{
			"buffer":0,
			"byteLength":576,
			"byteOffset":5624,
			"target":34963
		},
		{
			"buffer":0,
			"byteLength":8,
			"byteOffset":6200
		},
		{
			"buffer":0,
			"byteLength":24,
			"byteOffset":6208
		},
		{
			"buffer":0,
			"byteLength":32,
			"byteOffset":6232
		},
		{
			"buffer":0,
			"byteLength":68,
			"byteOffset":6264
		},
		{
			"buffer":0,
			"byteLength":204,
			"byteOffset":6332
		},
		{
			"buffer":0,
			"byteLength":204,
			"byteOffset":6536
		},
		{
			"buffer":0,
			"byteLength":32,
			"byteOffset":6740
		},
		{
			"buffer":0,
			"byteLength":204,
			"byteOffset":6772
		},
		{
			"buffer":0,
			"byteLength":204,
			"byteOffset":6976
		},
		{
			"buffer":0,
			"byteLength":204,
			"byteOffset":7180
		},
		{
			"buffer":0,
			"byteLength":8,
			"byteOffset":7384
		},
		{
			"buffer":0,
			"byteLength":24,
			"byteOffset":7392
		},
		{
			"buffer":0,
			"byteLength":32,
			"byteOffset":7416
		},
		{
			"buffer":0,
			"byteLength":56,
			"byteOffset":7448
		},
		{
			"buffer":0,
			"byteLength":168,
			"byteOffset":7504
		},
		{
			"buffer":0,
			"byteLength":168,
			"byteOffset":7672
		},
		{
			"buffer":0,
			"byteLength":32,
			"byteOffset":7840
		},
		{
			"buffer":0,
			"byteLength":168,
			"byteOffset":7872
		},
		{
			"buffer":0,
			"byteLength":168,
			"byteOffset":8040
		},
		{
			"buffer":0,
			"byteLength":168,
			"byteOffset":8208
		}
	],
	"samplers":[
		{
			"magFilter":9729,
			"minFilter":9987
		}
	],
	"buffers":[
		{
			"byteLength":8376,
			"uri":"vfx_heal.bin"
		}
	]
}
