{
	"asset":{
		"generator":"Khronos glTF Blender I/O v4.4.56",
		"version":"2.0"
	},
	"scene":0,
	"scenes":[
		{
			"name":"Scene",
			"nodes":[
				16
			]
		}
	],
	"nodes":[
		{
			"name":"jnt_aurora",
			"rotation":[
				-8.557147879173499e-09,
				1.4901161193847656e-08,
				-1.818768202585747e-16,
				1
			],
			"translation":[
				3.0517577442878974e-07,
				0.5793336629867554,
				6.103515488575795e-07
			]
		},
		{
			"mesh":0,
			"name":"mesh_aurora",
			"skin":0
		},
		{
			"mesh":1,
			"name":"mesh_stars",
			"skin":0
		},
		{
			"children":[
				1,
				2,
				0
			],
			"name":"vfx_aurora",
			"translation":[
				0,
				1.6815664768218994,
				0
			]
		},
		{
			"name":"jnt_glow",
			"rotation":[
				-8.5571434382814e-09,
				1.4901161193847656e-08,
				-2.9289880508373512e-16,
				1
			],
			"translation":[
				3.051757460070803e-07,
				0.5870909690856934,
				3.814697322468419e-07
			]
		},
		{
			"mesh":2,
			"name":"mesh_general_glow",
			"skin":1
		},
		{
			"children":[
				5,
				4
			],
			"name":"vfx_glow",
			"translation":[
				0,
				1.7451934814453125,
				0
			]
		},
		{
			"name":"jnt_shadow",
			"rotation":[
				-8.557133668318784e-09,
				1.4901161193847656e-08,
				-1.8187589381628863e-16,
				1
			],
			"translation":[
				3.0517577442878974e-07,
				0.6076003313064575,
				3.0517577442878974e-07
			]
		},
		{
			"mesh":3,
			"name":"mesh_dark_glow",
			"skin":2
		},
		{
			"children":[
				8,
				7
			],
			"name":"vfx_shadow",
			"translation":[
				0,
				1.7072738409042358,
				0
			]
		},
		{
			"name":"jnt_start",
			"rotation":[
				-8.55714432645982e-09,
				1.4901161193847656e-08,
				-1.8187658203055828e-16,
				1
			],
			"translation":[
				2.2888184503244702e-07,
				0.5246038436889648,
				3.0517577442878974e-07
			]
		},
		{
			"mesh":4,
			"name":"mesh_start_glow",
			"skin":3
		},
		{
			"children":[
				11,
				10
			],
			"name":"vfx_start",
			"translation":[
				0,
				1.8444443941116333,
				0
			]
		},
		{
			"name":"jnt_warning",
			"rotation":[
				-8.557135444675623e-09,
				1.4901161193847656e-08,
				-1.8187602616518664e-16,
				1
			],
			"translation":[
				0,
				0.5153704881668091,
				0
			]
		},
		{
			"mesh":5,
			"name":"star_warning",
			"skin":4
		},
		{
			"children":[
				14,
				13
			],
			"name":"vfx_warning",
			"translation":[
				0,
				1.9221410751342773,
				0
			]
		},
		{
			"children":[
				3,
				6,
				9,
				12,
				15
			],
			"name":"VFX_Banshee_shoutStart",
			"rotation":[
				0,
				0.07774046063423157,
				0,
				0.9969736337661743
			]
		}
	],
	"animations":[
		{
			"channels":[
				{
					"sampler":0,
					"target":{
						"node":0,
						"path":"translation"
					}
				},
				{
					"sampler":1,
					"target":{
						"node":0,
						"path":"rotation"
					}
				},
				{
					"sampler":2,
					"target":{
						"node":0,
						"path":"scale"
					}
				},
				{
					"sampler":3,
					"target":{
						"node":4,
						"path":"translation"
					}
				},
				{
					"sampler":4,
					"target":{
						"node":4,
						"path":"rotation"
					}
				},
				{
					"sampler":5,
					"target":{
						"node":4,
						"path":"scale"
					}
				},
				{
					"sampler":6,
					"target":{
						"node":7,
						"path":"translation"
					}
				},
				{
					"sampler":7,
					"target":{
						"node":7,
						"path":"rotation"
					}
				},
				{
					"sampler":8,
					"target":{
						"node":7,
						"path":"scale"
					}
				},
				{
					"sampler":9,
					"target":{
						"node":10,
						"path":"translation"
					}
				},
				{
					"sampler":10,
					"target":{
						"node":10,
						"path":"rotation"
					}
				},
				{
					"sampler":11,
					"target":{
						"node":10,
						"path":"scale"
					}
				},
				{
					"sampler":12,
					"target":{
						"node":13,
						"path":"translation"
					}
				},
				{
					"sampler":13,
					"target":{
						"node":13,
						"path":"rotation"
					}
				},
				{
					"sampler":14,
					"target":{
						"node":13,
						"path":"scale"
					}
				}
			],
			"name":"VFX_shoutStart",
			"samplers":[
				{
					"input":47,
					"interpolation":"LINEAR",
					"output":48
				},
				{
					"input":49,
					"interpolation":"LINEAR",
					"output":50
				},
				{
					"input":47,
					"interpolation":"LINEAR",
					"output":51
				},
				{
					"input":47,
					"interpolation":"LINEAR",
					"output":52
				},
				{
					"input":49,
					"interpolation":"LINEAR",
					"output":53
				},
				{
					"input":47,
					"interpolation":"LINEAR",
					"output":54
				},
				{
					"input":47,
					"interpolation":"LINEAR",
					"output":55
				},
				{
					"input":49,
					"interpolation":"LINEAR",
					"output":56
				},
				{
					"input":47,
					"interpolation":"LINEAR",
					"output":57
				},
				{
					"input":49,
					"interpolation":"STEP",
					"output":58
				},
				{
					"input":49,
					"interpolation":"LINEAR",
					"output":59
				},
				{
					"input":47,
					"interpolation":"LINEAR",
					"output":60
				},
				{
					"input":47,
					"interpolation":"LINEAR",
					"output":61
				},
				{
					"input":49,
					"interpolation":"LINEAR",
					"output":62
				},
				{
					"input":47,
					"interpolation":"LINEAR",
					"output":63
				}
			]
		}
	],
	"materials":[
		{
			"alphaMode":"BLEND",
			"name":"aurora_glow",
			"pbrMetallicRoughness":{
				"baseColorFactor":[
					0.6038274168968201,
					0.6038274168968201,
					0.6038274168968201,
					1
				],
				"baseColorTexture":{
					"index":0
				},
				"metallicFactor":0
			}
		},
		{
			"alphaMode":"BLEND",
			"name":"stars",
			"pbrMetallicRoughness":{
				"baseColorFactor":[
					0.6038274168968201,
					0.6038274168968201,
					0.6038274168968201,
					1
				],
				"baseColorTexture":{
					"index":1
				},
				"metallicFactor":0
			}
		},
		{
			"alphaMode":"BLEND",
			"name":"general_glow_darker",
			"pbrMetallicRoughness":{
				"baseColorFactor":[
					0.6038274168968201,
					0.6038274168968201,
					0.6038274168968201,
					1
				],
				"baseColorTexture":{
					"index":2
				},
				"metallicFactor":0
			}
		},
		{
			"alphaMode":"BLEND",
			"name":"general_glow1",
			"pbrMetallicRoughness":{
				"baseColorFactor":[
					0.6038274168968201,
					0.6038274168968201,
					0.6038274168968201,
					1
				],
				"baseColorTexture":{
					"index":3
				},
				"metallicFactor":0
			}
		},
		{
			"alphaMode":"BLEND",
			"name":"dark_glow1",
			"pbrMetallicRoughness":{
				"baseColorFactor":[
					0.6038274168968201,
					0.6038274168968201,
					0.6038274168968201,
					1
				],
				"baseColorTexture":{
					"index":4
				},
				"metallicFactor":0
			}
		},
		{
			"alphaMode":"BLEND",
			"name":"first_glow",
			"pbrMetallicRoughness":{
				"baseColorFactor":[
					0.6038274168968201,
					0.6038274168968201,
					0.6038274168968201,
					1
				],
				"baseColorTexture":{
					"index":5
				},
				"metallicFactor":0
			}
		},
		{
			"alphaMode":"BLEND",
			"name":"star",
			"pbrMetallicRoughness":{
				"baseColorFactor":[
					0.6038274168968201,
					0.6038274168968201,
					0.6038274168968201,
					1
				],
				"baseColorTexture":{
					"index":6
				},
				"metallicFactor":0
			}
		}
	],
	"meshes":[
		{
			"name":"mesh_aurora",
			"primitives":[
				{
					"attributes":{
						"POSITION":0,
						"NORMAL":1,
						"TEXCOORD_0":2,
						"JOINTS_0":3,
						"WEIGHTS_0":4
					},
					"indices":5,
					"material":0
				}
			]
		},
		{
			"name":"mesh_stars",
			"primitives":[
				{
					"attributes":{
						"POSITION":7,
						"NORMAL":8,
						"TEXCOORD_0":9,
						"JOINTS_0":10,
						"WEIGHTS_0":11
					},
					"indices":12,
					"material":1
				}
			]
		},
		{
			"name":"mesh_general_glow",
			"primitives":[
				{
					"attributes":{
						"POSITION":13,
						"NORMAL":14,
						"TEXCOORD_0":15,
						"JOINTS_0":16,
						"WEIGHTS_0":17
					},
					"indices":18,
					"material":2
				},
				{
					"attributes":{
						"POSITION":19,
						"NORMAL":20,
						"TEXCOORD_0":21,
						"JOINTS_0":22,
						"WEIGHTS_0":23
					},
					"indices":24,
					"material":3
				}
			]
		},
		{
			"name":"mesh_dark_glow",
			"primitives":[
				{
					"attributes":{
						"POSITION":26,
						"NORMAL":27,
						"TEXCOORD_0":28,
						"JOINTS_0":29,
						"WEIGHTS_0":30
					},
					"indices":31,
					"material":4
				}
			]
		},
		{
			"name":"mesh_start_glow",
			"primitives":[
				{
					"attributes":{
						"POSITION":33,
						"NORMAL":34,
						"TEXCOORD_0":35,
						"JOINTS_0":36,
						"WEIGHTS_0":37
					},
					"indices":38,
					"material":5
				}
			]
		},
		{
			"name":"star_warning",
			"primitives":[
				{
					"attributes":{
						"POSITION":40,
						"NORMAL":41,
						"TEXCOORD_0":42,
						"JOINTS_0":43,
						"WEIGHTS_0":44
					},
					"indices":45,
					"material":6
				}
			]
		}
	],
	"textures":[
		{
			"sampler":0,
			"source":0
		},
		{
			"sampler":0,
			"source":1
		},
		{
			"sampler":0,
			"source":2
		},
		{
			"sampler":0,
			"source":3
		},
		{
			"sampler":0,
			"source":4
		},
		{
			"sampler":0,
			"source":5
		},
		{
			"sampler":0,
			"source":6
		}
	],
	"images":[
		{
			"mimeType":"image/png",
			"name":"v4",
			"uri":"v4.png"
		},
		{
			"mimeType":"image/png",
			"name":"star",
			"uri":"star.png"
		},
		{
			"mimeType":"image/png",
			"name":"v2",
			"uri":"v2.png"
		},
		{
			"mimeType":"image/png",
			"name":"v2",
			"uri":"v2-1.png"
		},
		{
			"mimeType":"image/png",
			"name":"v3",
			"uri":"v3.png"
		},
		{
			"mimeType":"image/png",
			"name":"v1",
			"uri":"v1.png"
		},
		{
			"mimeType":"image/png",
			"name":"v0",
			"uri":"v0.png"
		}
	],
	"skins":[
		{
			"inverseBindMatrices":6,
			"joints":[
				0
			],
			"name":"vfx_aurora"
		},
		{
			"inverseBindMatrices":25,
			"joints":[
				4
			],
			"name":"vfx_glow"
		},
		{
			"inverseBindMatrices":32,
			"joints":[
				7
			],
			"name":"vfx_shadow"
		},
		{
			"inverseBindMatrices":39,
			"joints":[
				10
			],
			"name":"vfx_start"
		},
		{
			"inverseBindMatrices":46,
			"joints":[
				13
			],
			"name":"vfx_warning"
		}
	],
	"accessors":[
		{
			"bufferView":0,
			"componentType":5126,
			"count":89,
			"max":[
				-3.960979029216105e-07,
				1.6815664768218994,
				-5.556686915042519e-07
			],
			"min":[
				-3.960979029216105e-07,
				1.6815664768218994,
				-5.556686915042519e-07
			],
			"type":"VEC3"
		},
		{
			"bufferView":1,
			"componentType":5126,
			"count":89,
			"type":"VEC3"
		},
		{
			"bufferView":2,
			"componentType":5126,
			"count":89,
			"type":"VEC2"
		},
		{
			"bufferView":3,
			"componentType":5121,
			"count":89,
			"type":"VEC4"
		},
		{
			"bufferView":4,
			"componentType":5126,
			"count":89,
			"type":"VEC4"
		},
		{
			"bufferView":5,
			"componentType":5123,
			"count":360,
			"type":"SCALAR"
		},
		{
			"bufferView":6,
			"componentType":5126,
			"count":1,
			"type":"MAT4"
		},
		{
			"bufferView":7,
			"componentType":5126,
			"count":84,
			"max":[
				-3.960979029216105e-07,
				1.6815664768218994,
				-5.556686915042519e-07
			],
			"min":[
				-3.960979029216105e-07,
				1.6815664768218994,
				-5.556686915042519e-07
			],
			"type":"VEC3"
		},
		{
			"bufferView":8,
			"componentType":5126,
			"count":84,
			"type":"VEC3"
		},
		{
			"bufferView":9,
			"componentType":5126,
			"count":84,
			"type":"VEC2"
		},
		{
			"bufferView":10,
			"componentType":5121,
			"count":84,
			"type":"VEC4"
		},
		{
			"bufferView":11,
			"componentType":5126,
			"count":84,
			"type":"VEC4"
		},
		{
			"bufferView":12,
			"componentType":5123,
			"count":360,
			"type":"SCALAR"
		},
		{
			"bufferView":13,
			"componentType":5126,
			"count":65,
			"max":[
				2.2144358158111572,
				2.332284450531006,
				1.0205113887786865
			],
			"min":[
				-2.2144367694854736,
				2.332284450531006,
				-2.2144367694854736
			],
			"type":"VEC3"
		},
		{
			"bufferView":14,
			"componentType":5126,
			"count":65,
			"type":"VEC3"
		},
		{
			"bufferView":15,
			"componentType":5126,
			"count":65,
			"type":"VEC2"
		},
		{
			"bufferView":16,
			"componentType":5121,
			"count":65,
			"type":"VEC4"
		},
		{
			"bufferView":17,
			"componentType":5126,
			"count":65,
			"type":"VEC4"
		},
		{
			"bufferView":18,
			"componentType":5123,
			"count":288,
			"type":"SCALAR"
		},
		{
			"bufferView":19,
			"componentType":5126,
			"count":50,
			"max":[
				1.9957486391067505,
				2.332284450531006,
				2.2144362926483154
			],
			"min":[
				-2.2144367694854736,
				2.332284450531006,
				0.01737302541732788
			],
			"type":"VEC3"
		},
		{
			"bufferView":20,
			"componentType":5126,
			"count":50,
			"type":"VEC3"
		},
		{
			"bufferView":21,
			"componentType":5126,
			"count":50,
			"type":"VEC2"
		},
		{
			"bufferView":22,
			"componentType":5121,
			"count":50,
			"type":"VEC4"
		},
		{
			"bufferView":23,
			"componentType":5126,
			"count":50,
			"type":"VEC4"
		},
		{
			"bufferView":24,
			"componentType":5123,
			"count":192,
			"type":"SCALAR"
		},
		{
			"bufferView":25,
			"componentType":5126,
			"count":1,
			"type":"MAT4"
		},
		{
			"bufferView":26,
			"componentType":5126,
			"count":63,
			"max":[
				1.9981658458709717,
				2.3148717880249023,
				1.9981660842895508
			],
			"min":[
				-1.9981666803359985,
				2.3148717880249023,
				-1.9981669187545776
			],
			"type":"VEC3"
		},
		{
			"bufferView":27,
			"componentType":5126,
			"count":63,
			"type":"VEC3"
		},
		{
			"bufferView":28,
			"componentType":5126,
			"count":63,
			"type":"VEC2"
		},
		{
			"bufferView":29,
			"componentType":5121,
			"count":63,
			"type":"VEC4"
		},
		{
			"bufferView":30,
			"componentType":5126,
			"count":63,
			"type":"VEC4"
		},
		{
			"bufferView":31,
			"componentType":5123,
			"count":240,
			"type":"SCALAR"
		},
		{
			"bufferView":32,
			"componentType":5126,
			"count":1,
			"type":"MAT4"
		},
		{
			"bufferView":33,
			"componentType":5126,
			"count":42,
			"max":[
				-2.734207100729691e-07,
				1.8444443941116333,
				-2.6600798719300656e-07
			],
			"min":[
				-2.734207100729691e-07,
				1.8444443941116333,
				-2.6600798719300656e-07
			],
			"type":"VEC3"
		},
		{
			"bufferView":34,
			"componentType":5126,
			"count":42,
			"type":"VEC3"
		},
		{
			"bufferView":35,
			"componentType":5126,
			"count":42,
			"type":"VEC2"
		},
		{
			"bufferView":36,
			"componentType":5121,
			"count":42,
			"type":"VEC4"
		},
		{
			"bufferView":37,
			"componentType":5126,
			"count":42,
			"type":"VEC4"
		},
		{
			"bufferView":38,
			"componentType":5123,
			"count":120,
			"type":"SCALAR"
		},
		{
			"bufferView":39,
			"componentType":5126,
			"count":1,
			"type":"MAT4"
		},
		{
			"bufferView":40,
			"componentType":5126,
			"count":4,
			"max":[
				0.5714617371559143,
				2.446232557296753,
				0.5714617371559143
			],
			"min":[
				-0.5714617371559143,
				2.446232557296753,
				-0.5714617371559143
			],
			"type":"VEC3"
		},
		{
			"bufferView":41,
			"componentType":5126,
			"count":4,
			"type":"VEC3"
		},
		{
			"bufferView":42,
			"componentType":5126,
			"count":4,
			"type":"VEC2"
		},
		{
			"bufferView":43,
			"componentType":5121,
			"count":4,
			"type":"VEC4"
		},
		{
			"bufferView":44,
			"componentType":5126,
			"count":4,
			"type":"VEC4"
		},
		{
			"bufferView":45,
			"componentType":5123,
			"count":6,
			"type":"SCALAR"
		},
		{
			"bufferView":46,
			"componentType":5126,
			"count":1,
			"type":"MAT4"
		},
		{
			"bufferView":47,
			"componentType":5126,
			"count":25,
			"max":[
				1
			],
			"min":[
				0
			],
			"type":"SCALAR"
		},
		{
			"bufferView":48,
			"componentType":5126,
			"count":25,
			"type":"VEC3"
		},
		{
			"bufferView":49,
			"componentType":5126,
			"count":2,
			"max":[
				1
			],
			"min":[
				0
			],
			"type":"SCALAR"
		},
		{
			"bufferView":50,
			"componentType":5126,
			"count":2,
			"type":"VEC4"
		},
		{
			"bufferView":51,
			"componentType":5126,
			"count":25,
			"type":"VEC3"
		},
		{
			"bufferView":52,
			"componentType":5126,
			"count":25,
			"type":"VEC3"
		},
		{
			"bufferView":53,
			"componentType":5126,
			"count":2,
			"type":"VEC4"
		},
		{
			"bufferView":54,
			"componentType":5126,
			"count":25,
			"type":"VEC3"
		},
		{
			"bufferView":55,
			"componentType":5126,
			"count":25,
			"type":"VEC3"
		},
		{
			"bufferView":56,
			"componentType":5126,
			"count":2,
			"type":"VEC4"
		},
		{
			"bufferView":57,
			"componentType":5126,
			"count":25,
			"type":"VEC3"
		},
		{
			"bufferView":58,
			"componentType":5126,
			"count":2,
			"type":"VEC3"
		},
		{
			"bufferView":59,
			"componentType":5126,
			"count":2,
			"type":"VEC4"
		},
		{
			"bufferView":60,
			"componentType":5126,
			"count":25,
			"type":"VEC3"
		},
		{
			"bufferView":61,
			"componentType":5126,
			"count":25,
			"type":"VEC3"
		},
		{
			"bufferView":62,
			"componentType":5126,
			"count":2,
			"type":"VEC4"
		},
		{
			"bufferView":63,
			"componentType":5126,
			"count":25,
			"type":"VEC3"
		}
	],
	"bufferViews":[
		{
			"buffer":0,
			"byteLength":1068,
			"byteOffset":0,
			"target":34962
		},
		{
			"buffer":0,
			"byteLength":1068,
			"byteOffset":1068,
			"target":34962
		},
		{
			"buffer":0,
			"byteLength":712,
			"byteOffset":2136,
			"target":34962
		},
		{
			"buffer":0,
			"byteLength":356,
			"byteOffset":2848,
			"target":34962
		},
		{
			"buffer":0,
			"byteLength":1424,
			"byteOffset":3204,
			"target":34962
		},
		{
			"buffer":0,
			"byteLength":720,
			"byteOffset":4628,
			"target":34963
		},
		{
			"buffer":0,
			"byteLength":64,
			"byteOffset":5348
		},
		{
			"buffer":0,
			"byteLength":1008,
			"byteOffset":5412,
			"target":34962
		},
		{
			"buffer":0,
			"byteLength":1008,
			"byteOffset":6420,
			"target":34962
		},
		{
			"buffer":0,
			"byteLength":672,
			"byteOffset":7428,
			"target":34962
		},
		{
			"buffer":0,
			"byteLength":336,
			"byteOffset":8100,
			"target":34962
		},
		{
			"buffer":0,
			"byteLength":1344,
			"byteOffset":8436,
			"target":34962
		},
		{
			"buffer":0,
			"byteLength":720,
			"byteOffset":9780,
			"target":34963
		},
		{
			"buffer":0,
			"byteLength":780,
			"byteOffset":10500,
			"target":34962
		},
		{
			"buffer":0,
			"byteLength":780,
			"byteOffset":11280,
			"target":34962
		},
		{
			"buffer":0,
			"byteLength":520,
			"byteOffset":12060,
			"target":34962
		},
		{
			"buffer":0,
			"byteLength":260,
			"byteOffset":12580,
			"target":34962
		},
		{
			"buffer":0,
			"byteLength":1040,
			"byteOffset":12840,
			"target":34962
		},
		{
			"buffer":0,
			"byteLength":576,
			"byteOffset":13880,
			"target":34963
		},
		{
			"buffer":0,
			"byteLength":600,
			"byteOffset":14456,
			"target":34962
		},
		{
			"buffer":0,
			"byteLength":600,
			"byteOffset":15056,
			"target":34962
		},
		{
			"buffer":0,
			"byteLength":400,
			"byteOffset":15656,
			"target":34962
		},
		{
			"buffer":0,
			"byteLength":200,
			"byteOffset":16056,
			"target":34962
		},
		{
			"buffer":0,
			"byteLength":800,
			"byteOffset":16256,
			"target":34962
		},
		{
			"buffer":0,
			"byteLength":384,
			"byteOffset":17056,
			"target":34963
		},
		{
			"buffer":0,
			"byteLength":64,
			"byteOffset":17440
		},
		{
			"buffer":0,
			"byteLength":756,
			"byteOffset":17504,
			"target":34962
		},
		{
			"buffer":0,
			"byteLength":756,
			"byteOffset":18260,
			"target":34962
		},
		{
			"buffer":0,
			"byteLength":504,
			"byteOffset":19016,
			"target":34962
		},
		{
			"buffer":0,
			"byteLength":252,
			"byteOffset":19520,
			"target":34962
		},
		{
			"buffer":0,
			"byteLength":1008,
			"byteOffset":19772,
			"target":34962
		},
		{
			"buffer":0,
			"byteLength":480,
			"byteOffset":20780,
			"target":34963
		},
		{
			"buffer":0,
			"byteLength":64,
			"byteOffset":21260
		},
		{
			"buffer":0,
			"byteLength":504,
			"byteOffset":21324,
			"target":34962
		},
		{
			"buffer":0,
			"byteLength":504,
			"byteOffset":21828,
			"target":34962
		},
		{
			"buffer":0,
			"byteLength":336,
			"byteOffset":22332,
			"target":34962
		},
		{
			"buffer":0,
			"byteLength":168,
			"byteOffset":22668,
			"target":34962
		},
		{
			"buffer":0,
			"byteLength":672,
			"byteOffset":22836,
			"target":34962
		},
		{
			"buffer":0,
			"byteLength":240,
			"byteOffset":23508,
			"target":34963
		},
		{
			"buffer":0,
			"byteLength":64,
			"byteOffset":23748
		},
		{
			"buffer":0,
			"byteLength":48,
			"byteOffset":23812,
			"target":34962
		},
		{
			"buffer":0,
			"byteLength":48,
			"byteOffset":23860,
			"target":34962
		},
		{
			"buffer":0,
			"byteLength":32,
			"byteOffset":23908,
			"target":34962
		},
		{
			"buffer":0,
			"byteLength":16,
			"byteOffset":23940,
			"target":34962
		},
		{
			"buffer":0,
			"byteLength":64,
			"byteOffset":23956,
			"target":34962
		},
		{
			"buffer":0,
			"byteLength":12,
			"byteOffset":24020,
			"target":34963
		},
		{
			"buffer":0,
			"byteLength":64,
			"byteOffset":24032
		},
		{
			"buffer":0,
			"byteLength":100,
			"byteOffset":24096
		},
		{
			"buffer":0,
			"byteLength":300,
			"byteOffset":24196
		},
		{
			"buffer":0,
			"byteLength":8,
			"byteOffset":24496
		},
		{
			"buffer":0,
			"byteLength":32,
			"byteOffset":24504
		},
		{
			"buffer":0,
			"byteLength":300,
			"byteOffset":24536
		},
		{
			"buffer":0,
			"byteLength":300,
			"byteOffset":24836
		},
		{
			"buffer":0,
			"byteLength":32,
			"byteOffset":25136
		},
		{
			"buffer":0,
			"byteLength":300,
			"byteOffset":25168
		},
		{
			"buffer":0,
			"byteLength":300,
			"byteOffset":25468
		},
		{
			"buffer":0,
			"byteLength":32,
			"byteOffset":25768
		},
		{
			"buffer":0,
			"byteLength":300,
			"byteOffset":25800
		},
		{
			"buffer":0,
			"byteLength":24,
			"byteOffset":26100
		},
		{
			"buffer":0,
			"byteLength":32,
			"byteOffset":26124
		},
		{
			"buffer":0,
			"byteLength":300,
			"byteOffset":26156
		},
		{
			"buffer":0,
			"byteLength":300,
			"byteOffset":26456
		},
		{
			"buffer":0,
			"byteLength":32,
			"byteOffset":26756
		},
		{
			"buffer":0,
			"byteLength":300,
			"byteOffset":26788
		}
	],
	"samplers":[
		{
			"magFilter":9729,
			"minFilter":9987
		}
	],
	"buffers":[
		{
			"byteLength":27088,
			"uri":"vfx_banshee_shoutstart.bin"
		}
	]
}
