{
	"asset":{
		"generator":"Khronos glTF Blender I/O v4.2.69",
		"version":"2.0"
	},
	"scene":0,
	"scenes":[
		{
			"name":"Scene",
			"nodes":[
				0
			]
		}
	],
	"nodes":[
		{
			"mesh":0,
			"name":"VFX_Bomb_Rock"
		}
	],
	"materials":[
		{
			"doubleSided":true,
			"emissiveTexture":{
				"index":0
			},
			"name":"M_Bomb_FireRock",
			"normalTexture":{
				"index":1
			},
			"pbrMetallicRoughness":{
				"baseColorTexture":{
					"index":2
				},
				"metallicRoughnessTexture":{
					"index":3
				}
			}
		}
	],
	"meshes":[
		{
			"name":"Cube",
			"primitives":[
				{
					"attributes":{
						"POSITION":0,
						"NORMAL":1,
						"TEXCOORD_0":2,
						"TANGENT":3
					},
					"indices":4,
					"material":0
				}
			]
		}
	],
	"textures":[
		{
			"sampler":0,
			"source":0
		},
		{
			"sampler":0,
			"source":1
		},
		{
			"sampler":0,
			"source":2
		},
		{
			"sampler":0,
			"source":3
		}
	],
	"images":[
		{
			"mimeType":"image/png",
			"name":"firerock_DefaultMaterial_Emissive",
			"uri":"firerock_DefaultMaterial_Emissive.png"
		},
		{
			"mimeType":"image/png",
			"name":"firerock_DefaultMaterial_Normal",
			"uri":"firerock_DefaultMaterial_Normal.png"
		},
		{
			"mimeType":"image/png",
			"name":"firerock_DefaultMaterial_BaseColor",
			"uri":"firerock_DefaultMaterial_BaseColor.png"
		},
		{
			"mimeType":"image/png",
			"name":"firerock_DefaultMaterial_OcclusionRoughnessMetallic",
			"uri":"firerock_DefaultMaterial_OcclusionRoughnessMetallic.png"
		}
	],
	"accessors":[
		{
			"bufferView":0,
			"componentType":5126,
			"count":125,
			"max":[
				0.5769492387771606,
				0.521336019039154,
				0.5929902195930481
			],
			"min":[
				-0.5640537738800049,
				-0.5368009209632874,
				-0.5708085298538208
			],
			"type":"VEC3"
		},
		{
			"bufferView":1,
			"componentType":5126,
			"count":125,
			"type":"VEC3"
		},
		{
			"bufferView":2,
			"componentType":5126,
			"count":125,
			"type":"VEC2"
		},
		{
			"bufferView":3,
			"componentType":5126,
			"count":125,
			"type":"VEC4"
		},
		{
			"bufferView":4,
			"componentType":5123,
			"count":576,
			"type":"SCALAR"
		}
	],
	"bufferViews":[
		{
			"buffer":0,
			"byteLength":1500,
			"byteOffset":0,
			"target":34962
		},
		{
			"buffer":0,
			"byteLength":1500,
			"byteOffset":1500,
			"target":34962
		},
		{
			"buffer":0,
			"byteLength":1000,
			"byteOffset":3000,
			"target":34962
		},
		{
			"buffer":0,
			"byteLength":2000,
			"byteOffset":4000,
			"target":34962
		},
		{
			"buffer":0,
			"byteLength":1152,
			"byteOffset":6000,
			"target":34963
		}
	],
	"samplers":[
		{
			"magFilter":9729,
			"minFilter":9987
		}
	],
	"buffers":[
		{
			"byteLength":7152,
			"uri":"VFX_Bomb-Rock.bin"
		}
	]
}
