{
	"asset":{
		"generator":"Khronos glTF Blender I/O v4.2.69",
		"version":"2.0"
	},
	"extensionsUsed":[
		"KHR_materials_emissive_strength"
	],
	"scene":0,
	"scenes":[
		{
			"name":"Scene",
			"nodes":[
				0,
				1,
				2,
				3,
				4,
				5,
				6,
				7,
				8,
				9
			]
		}
	],
	"nodes":[
		{
			"mesh":0,
			"name":"VFX_Bomb_Light_Impact"
		},
		{
			"mesh":1,
			"name":"VFX_Bomb_Shadow"
		},
		{
			"mesh":2,
			"name":"VFX_Bomb_Fire_Ipact"
		},
		{
			"mesh":3,
			"name":"VFX_Bomb_Indicator"
		},
		{
			"mesh":4,
			"name":"VFX_Bomb_Indicator_Small",
			"rotation":[
				0,
				-0.42249831557273865,
				0,
				0.906363844871521
			]
		},
		{
			"mesh":5,
			"name":"VFX_Bomb_Ground_After",
			"rotation":[
				0,
				-0.42249831557273865,
				0,
				0.906363844871521
			]
		},
		{
			"mesh":6,
			"name":"VFX_Bomb_FireShadow_Ipact"
		},
		{
			"mesh":7,
			"name":"VFX_Bomb_Ground_BlackStains"
		},
		{
			"mesh":8,
			"name":"VFX_Bomb_Main_Light_Impact"
		},
		{
			"mesh":9,
			"name":"VFX_Bomb_Indicator_Small_Symbol",
			"rotation":[
				0,
				-0.42249831557273865,
				0,
				0.906363844871521
			],
			"scale":[
				0.6021377444267273,
				0.6021377444267273,
				0.6021377444267273
			]
		}
	],
	"materials":[
		{
			"alphaMode":"BLEND",
			"doubleSided":true,
			"emissiveFactor":[
				1,
				1,
				1
			],
			"emissiveTexture":{
				"index":0
			},
			"extensions":{
				"KHR_materials_emissive_strength":{
					"emissiveStrength":3.799999713897705
				}
			},
			"name":"M_Bomb_Light_Impact",
			"pbrMetallicRoughness":{
				"baseColorTexture":{
					"index":1
				},
				"metallicFactor":0
			}
		},
		{
			"alphaMode":"BLEND",
			"doubleSided":true,
			"emissiveFactor":[
				1,
				1,
				1
			],
			"emissiveTexture":{
				"index":2
			},
			"extensions":{
				"KHR_materials_emissive_strength":{
					"emissiveStrength":5.399999618530273
				}
			},
			"name":"M_Bomb_Shadow",
			"pbrMetallicRoughness":{
				"baseColorTexture":{
					"index":3
				},
				"metallicFactor":0
			}
		},
		{
			"alphaMode":"BLEND",
			"doubleSided":true,
			"emissiveFactor":[
				0.8999999761581421,
				0.8999999761581421,
				0.8999999761581421
			],
			"emissiveTexture":{
				"index":4
			},
			"name":"M_Bomb_Fire_Impact",
			"pbrMetallicRoughness":{
				"baseColorTexture":{
					"index":5
				},
				"metallicFactor":0
			}
		},
		{
			"alphaMode":"BLEND",
			"doubleSided":true,
			"emissiveFactor":[
				1,
				1,
				1
			],
			"emissiveTexture":{
				"index":6
			},
			"extensions":{
				"KHR_materials_emissive_strength":{
					"emissiveStrength":3.7000021934509277
				}
			},
			"name":"M_Bomb_Indicator",
			"pbrMetallicRoughness":{
				"baseColorTexture":{
					"index":7
				},
				"metallicFactor":0
			}
		},
		{
			"alphaMode":"BLEND",
			"doubleSided":true,
			"emissiveFactor":[
				1,
				1,
				1
			],
			"emissiveTexture":{
				"index":8
			},
			"extensions":{
				"KHR_materials_emissive_strength":{
					"emissiveStrength":1.6000022888183594
				}
			},
			"name":"M_Bomb_Indicator_Small",
			"pbrMetallicRoughness":{
				"baseColorTexture":{
					"index":9
				},
				"metallicFactor":0
			}
		},
		{
			"alphaMode":"BLEND",
			"doubleSided":true,
			"emissiveFactor":[
				1,
				1,
				1
			],
			"emissiveTexture":{
				"index":10
			},
			"extensions":{
				"KHR_materials_emissive_strength":{
					"emissiveStrength":4.300002098083496
				}
			},
			"name":"M_Bomb_Ground_After",
			"pbrMetallicRoughness":{
				"baseColorTexture":{
					"index":11
				},
				"metallicFactor":0
			}
		},
		{
			"alphaMode":"BLEND",
			"doubleSided":true,
			"name":"M_Bomb_FireShadow_Impact",
			"pbrMetallicRoughness":{
				"baseColorTexture":{
					"index":12
				},
				"metallicFactor":0
			}
		},
		{
			"alphaMode":"BLEND",
			"doubleSided":true,
			"name":"M_Bomb_Ground_Black_Stains",
			"pbrMetallicRoughness":{
				"baseColorTexture":{
					"index":13
				},
				"metallicFactor":0
			}
		},
		{
			"alphaMode":"BLEND",
			"doubleSided":true,
			"emissiveFactor":[
				1,
				1,
				1
			],
			"emissiveTexture":{
				"index":14
			},
			"extensions":{
				"KHR_materials_emissive_strength":{
					"emissiveStrength":1.6000003814697266
				}
			},
			"name":"M_Bomb_Main_Light",
			"pbrMetallicRoughness":{
				"baseColorTexture":{
					"index":15
				},
				"metallicFactor":0
			}
		},
		{
			"alphaMode":"BLEND",
			"doubleSided":true,
			"emissiveFactor":[
				1,
				1,
				1
			],
			"emissiveTexture":{
				"index":16
			},
			"extensions":{
				"KHR_materials_emissive_strength":{
					"emissiveStrength":1.6000022888183594
				}
			},
			"name":"M_Bomb_Indicator_Small_Symbol",
			"pbrMetallicRoughness":{
				"baseColorTexture":{
					"index":17
				},
				"metallicFactor":0
			}
		}
	],
	"meshes":[
		{
			"name":"Cylinder.001",
			"primitives":[
				{
					"attributes":{
						"POSITION":0,
						"NORMAL":1,
						"TEXCOORD_0":2,
						"TANGENT":3
					},
					"indices":4,
					"material":0
				}
			]
		},
		{
			"name":"Cylinder.004",
			"primitives":[
				{
					"attributes":{
						"POSITION":5,
						"NORMAL":6,
						"TEXCOORD_0":7,
						"TANGENT":8
					},
					"indices":9,
					"material":1
				}
			]
		},
		{
			"name":"Cylinder.005",
			"primitives":[
				{
					"attributes":{
						"POSITION":10,
						"NORMAL":11,
						"TEXCOORD_0":12,
						"TANGENT":13
					},
					"indices":14,
					"material":2
				}
			]
		},
		{
			"name":"Cylinder.008",
			"primitives":[
				{
					"attributes":{
						"POSITION":15,
						"NORMAL":16,
						"TEXCOORD_0":17,
						"TEXCOORD_1":18,
						"TANGENT":19
					},
					"indices":20,
					"material":3
				}
			]
		},
		{
			"name":"Cylinder.003",
			"primitives":[
				{
					"attributes":{
						"POSITION":21,
						"NORMAL":22,
						"TEXCOORD_0":23,
						"TANGENT":24
					},
					"indices":25,
					"material":4
				}
			]
		},
		{
			"name":"Cylinder.002",
			"primitives":[
				{
					"attributes":{
						"POSITION":26,
						"NORMAL":27,
						"TEXCOORD_0":28,
						"TANGENT":29
					},
					"indices":30,
					"material":5
				}
			]
		},
		{
			"name":"Cylinder.006",
			"primitives":[
				{
					"attributes":{
						"POSITION":31,
						"NORMAL":32,
						"TEXCOORD_0":33,
						"TANGENT":34
					},
					"indices":9,
					"material":6
				}
			]
		},
		{
			"name":"Cylinder.009",
			"primitives":[
				{
					"attributes":{
						"POSITION":35,
						"NORMAL":36,
						"TEXCOORD_0":37,
						"TANGENT":38
					},
					"indices":39,
					"material":7
				}
			]
		},
		{
			"name":"Cylinder.011",
			"primitives":[
				{
					"attributes":{
						"POSITION":40,
						"NORMAL":41,
						"TEXCOORD_0":42,
						"TANGENT":43
					},
					"indices":44,
					"material":8
				}
			]
		},
		{
			"name":"Cylinder.012",
			"primitives":[
				{
					"attributes":{
						"POSITION":45,
						"NORMAL":46,
						"TEXCOORD_0":47,
						"TANGENT":48
					},
					"indices":25,
					"material":9
				}
			]
		}
	],
	"textures":[
		{
			"sampler":0,
			"source":0
		},
		{
			"sampler":0,
			"source":1
		},
		{
			"sampler":0,
			"source":2
		},
		{
			"sampler":0,
			"source":3
		},
		{
			"sampler":0,
			"source":4
		},
		{
			"sampler":0,
			"source":5
		},
		{
			"sampler":0,
			"source":6
		},
		{
			"sampler":0,
			"source":7
		},
		{
			"sampler":0,
			"source":8
		},
		{
			"sampler":0,
			"source":9
		},
		{
			"sampler":0,
			"source":10
		},
		{
			"sampler":0,
			"source":11
		},
		{
			"sampler":0,
			"source":12
		},
		{
			"sampler":0,
			"source":13
		},
		{
			"sampler":0,
			"source":14
		},
		{
			"sampler":0,
			"source":15
		},
		{
			"sampler":0,
			"source":16
		},
		{
			"sampler":0,
			"source":17
		}
	],
	"images":[
		{
			"mimeType":"image/png",
			"name":"Bomb_Light_Impact_Emissive",
			"uri":"Bomb_Light_Impact_Emissive.png"
		},
		{
			"mimeType":"image/png",
			"name":"Bomb_Light_Impact",
			"uri":"Bomb_Light_Impact.png"
		},
		{
			"mimeType":"image/png",
			"name":"Bomb_Shadow_Emissive",
			"uri":"Bomb_Shadow_Emissive.png"
		},
		{
			"mimeType":"image/png",
			"name":"Bomb_Shadow",
			"uri":"Bomb_Shadow.png"
		},
		{
			"mimeType":"image/png",
			"name":"Bomb_Fire_Impact_Emissive",
			"uri":"Bomb_Fire_Impact_Emissive.png"
		},
		{
			"mimeType":"image/png",
			"name":"Bomb_Fire_Impact",
			"uri":"Bomb_Fire_Impact.png"
		},
		{
			"mimeType":"image/png",
			"name":"Bomb_Indicator_Emissive",
			"uri":"Bomb_Indicator_Emissive.png"
		},
		{
			"mimeType":"image/png",
			"name":"Bomb_Indicator",
			"uri":"Bomb_Indicator.png"
		},
		{
			"mimeType":"image/png",
			"name":"Bomb_Indicator_Small_Emissive",
			"uri":"Bomb_Indicator_Small_Emissive.png"
		},
		{
			"mimeType":"image/png",
			"name":"Bomb_Indicator_Small",
			"uri":"Bomb_Indicator_Small.png"
		},
		{
			"mimeType":"image/png",
			"name":"Bomb_GroundAfter_Emissive",
			"uri":"Bomb_GroundAfter_Emissive.png"
		},
		{
			"mimeType":"image/png",
			"name":"Bomb_GroundAfter",
			"uri":"Bomb_GroundAfter.png"
		},
		{
			"mimeType":"image/png",
			"name":"Bomb_Fire_Shadow",
			"uri":"Bomb_Fire_Shadow.png"
		},
		{
			"mimeType":"image/png",
			"name":"Bomb_Ground_BlackStains",
			"uri":"Bomb_Ground_BlackStains.png"
		},
		{
			"mimeType":"image/png",
			"name":"Bomb_Main_Light_Impact-Emissive",
			"uri":"Bomb_Main_Light_Impact-Emissive.png"
		},
		{
			"mimeType":"image/png",
			"name":"Bomb_Main_Light_Impact",
			"uri":"Bomb_Main_Light_Impact.png"
		},
		{
			"mimeType":"image/png",
			"name":"Bomb_Indicator_Small_Symbol_Emissive",
			"uri":"Bomb_Indicator_Small_Symbol_Emissive.png"
		},
		{
			"mimeType":"image/png",
			"name":"Bomb_Indicator_Small_Symbol",
			"uri":"Bomb_Indicator_Small_Symbol.png"
		}
	],
	"accessors":[
		{
			"bufferView":0,
			"componentType":5126,
			"count":66,
			"max":[
				2.1449244022369385,
				0.017684772610664368,
				2.1449244022369385
			],
			"min":[
				-2.1449244022369385,
				0.013758326880633831,
				-2.1449244022369385
			],
			"type":"VEC3"
		},
		{
			"bufferView":1,
			"componentType":5126,
			"count":66,
			"type":"VEC3"
		},
		{
			"bufferView":2,
			"componentType":5126,
			"count":66,
			"type":"VEC2"
		},
		{
			"bufferView":3,
			"componentType":5126,
			"count":66,
			"type":"VEC4"
		},
		{
			"bufferView":4,
			"componentType":5123,
			"count":192,
			"type":"SCALAR"
		},
		{
			"bufferView":5,
			"componentType":5126,
			"count":99,
			"max":[
				1.6043282747268677,
				0.0009786603040993214,
				1.6043282747268677
			],
			"min":[
				-1.6043282747268677,
				-0.0019582288805395365,
				-1.6043282747268677
			],
			"type":"VEC3"
		},
		{
			"bufferView":6,
			"componentType":5126,
			"count":99,
			"type":"VEC3"
		},
		{
			"bufferView":7,
			"componentType":5126,
			"count":99,
			"type":"VEC2"
		},
		{
			"bufferView":8,
			"componentType":5126,
			"count":99,
			"type":"VEC4"
		},
		{
			"bufferView":9,
			"componentType":5123,
			"count":384,
			"type":"SCALAR"
		},
		{
			"bufferView":10,
			"componentType":5126,
			"count":132,
			"max":[
				2.1056618690490723,
				0.0007839798927307129,
				2.105661392211914
			],
			"min":[
				-2.1056618690490723,
				-0.0030707716941833496,
				-2.1056623458862305
			],
			"type":"VEC3"
		},
		{
			"bufferView":11,
			"componentType":5126,
			"count":132,
			"type":"VEC3"
		},
		{
			"bufferView":12,
			"componentType":5126,
			"count":132,
			"type":"VEC2"
		},
		{
			"bufferView":13,
			"componentType":5126,
			"count":132,
			"type":"VEC4"
		},
		{
			"bufferView":14,
			"componentType":5123,
			"count":576,
			"type":"SCALAR"
		},
		{
			"bufferView":15,
			"componentType":5126,
			"count":165,
			"max":[
				2.7431578636169434,
				0.00287357484921813,
				2.7431561946868896
			],
			"min":[
				-2.7431321144104004,
				-0.004321670159697533,
				-2.743133783340454
			],
			"type":"VEC3"
		},
		{
			"bufferView":16,
			"componentType":5126,
			"count":165,
			"type":"VEC3"
		},
		{
			"bufferView":17,
			"componentType":5126,
			"count":165,
			"type":"VEC2"
		},
		{
			"bufferView":18,
			"componentType":5126,
			"count":165,
			"type":"VEC2"
		},
		{
			"bufferView":19,
			"componentType":5126,
			"count":165,
			"type":"VEC4"
		},
		{
			"bufferView":20,
			"componentType":5123,
			"count":768,
			"type":"SCALAR"
		},
		{
			"bufferView":21,
			"componentType":5126,
			"count":132,
			"max":[
				1.1174139976501465,
				0.03534451499581337,
				1.1174131631851196
			],
			"min":[
				-1.1174033880233765,
				0.03314632922410965,
				-1.1174041032791138
			],
			"type":"VEC3"
		},
		{
			"bufferView":22,
			"componentType":5126,
			"count":132,
			"type":"VEC3"
		},
		{
			"bufferView":23,
			"componentType":5126,
			"count":132,
			"type":"VEC2"
		},
		{
			"bufferView":24,
			"componentType":5126,
			"count":132,
			"type":"VEC4"
		},
		{
			"bufferView":25,
			"componentType":5123,
			"count":576,
			"type":"SCALAR"
		},
		{
			"bufferView":26,
			"componentType":5126,
			"count":160,
			"max":[
				3.146789789199829,
				-0.00920424796640873,
				3.146787643432617
			],
			"min":[
				-3.1467599868774414,
				-0.017458077520132065,
				-3.1467621326446533
			],
			"type":"VEC3"
		},
		{
			"bufferView":27,
			"componentType":5126,
			"count":160,
			"type":"VEC3"
		},
		{
			"bufferView":28,
			"componentType":5126,
			"count":160,
			"type":"VEC2"
		},
		{
			"bufferView":29,
			"componentType":5126,
			"count":160,
			"type":"VEC4"
		},
		{
			"bufferView":30,
			"componentType":5123,
			"count":768,
			"type":"SCALAR"
		},
		{
			"bufferView":31,
			"componentType":5126,
			"count":99,
			"max":[
				1.3513801097869873,
				0.0008265009964816272,
				1.3513801097869873
			],
			"min":[
				-1.3513801097869873,
				-0.001647302182391286,
				-1.3513801097869873
			],
			"type":"VEC3"
		},
		{
			"bufferView":32,
			"componentType":5126,
			"count":99,
			"type":"VEC3"
		},
		{
			"bufferView":33,
			"componentType":5126,
			"count":99,
			"type":"VEC2"
		},
		{
			"bufferView":34,
			"componentType":5126,
			"count":99,
			"type":"VEC4"
		},
		{
			"bufferView":35,
			"componentType":5126,
			"count":98,
			"max":[
				5.397151470184326,
				-0.020276155322790146,
				5.397151470184326
			],
			"min":[
				-5.397151470184326,
				-0.030156869441270828,
				-5.397151470184326
			],
			"type":"VEC3"
		},
		{
			"bufferView":36,
			"componentType":5126,
			"count":98,
			"type":"VEC3"
		},
		{
			"bufferView":37,
			"componentType":5126,
			"count":98,
			"type":"VEC2"
		},
		{
			"bufferView":38,
			"componentType":5126,
			"count":98,
			"type":"VEC4"
		},
		{
			"bufferView":39,
			"componentType":5123,
			"count":288,
			"type":"SCALAR"
		},
		{
			"bufferView":40,
			"componentType":5126,
			"count":99,
			"max":[
				2.402651071548462,
				0.04403911530971527,
				2.402651071548462
			],
			"min":[
				-2.402651071548462,
				0.0396408811211586,
				-2.402651071548462
			],
			"type":"VEC3"
		},
		{
			"bufferView":41,
			"componentType":5126,
			"count":99,
			"type":"VEC3"
		},
		{
			"bufferView":42,
			"componentType":5126,
			"count":99,
			"type":"VEC2"
		},
		{
			"bufferView":43,
			"componentType":5126,
			"count":99,
			"type":"VEC4"
		},
		{
			"bufferView":44,
			"componentType":5123,
			"count":384,
			"type":"SCALAR"
		},
		{
			"bufferView":45,
			"componentType":5126,
			"count":132,
			"max":[
				1.1174139976501465,
				0.03534451499581337,
				1.1174131631851196
			],
			"min":[
				-1.1174033880233765,
				0.03314632922410965,
				-1.1174041032791138
			],
			"type":"VEC3"
		},
		{
			"bufferView":46,
			"componentType":5126,
			"count":132,
			"type":"VEC3"
		},
		{
			"bufferView":47,
			"componentType":5126,
			"count":132,
			"type":"VEC2"
		},
		{
			"bufferView":48,
			"componentType":5126,
			"count":132,
			"type":"VEC4"
		}
	],
	"bufferViews":[
		{
			"buffer":0,
			"byteLength":792,
			"byteOffset":0,
			"target":34962
		},
		{
			"buffer":0,
			"byteLength":792,
			"byteOffset":792,
			"target":34962
		},
		{
			"buffer":0,
			"byteLength":528,
			"byteOffset":1584,
			"target":34962
		},
		{
			"buffer":0,
			"byteLength":1056,
			"byteOffset":2112,
			"target":34962
		},
		{
			"buffer":0,
			"byteLength":384,
			"byteOffset":3168,
			"target":34963
		},
		{
			"buffer":0,
			"byteLength":1188,
			"byteOffset":3552,
			"target":34962
		},
		{
			"buffer":0,
			"byteLength":1188,
			"byteOffset":4740,
			"target":34962
		},
		{
			"buffer":0,
			"byteLength":792,
			"byteOffset":5928,
			"target":34962
		},
		{
			"buffer":0,
			"byteLength":1584,
			"byteOffset":6720,
			"target":34962
		},
		{
			"buffer":0,
			"byteLength":768,
			"byteOffset":8304,
			"target":34963
		},
		{
			"buffer":0,
			"byteLength":1584,
			"byteOffset":9072,
			"target":34962
		},
		{
			"buffer":0,
			"byteLength":1584,
			"byteOffset":10656,
			"target":34962
		},
		{
			"buffer":0,
			"byteLength":1056,
			"byteOffset":12240,
			"target":34962
		},
		{
			"buffer":0,
			"byteLength":2112,
			"byteOffset":13296,
			"target":34962
		},
		{
			"buffer":0,
			"byteLength":1152,
			"byteOffset":15408,
			"target":34963
		},
		{
			"buffer":0,
			"byteLength":1980,
			"byteOffset":16560,
			"target":34962
		},
		{
			"buffer":0,
			"byteLength":1980,
			"byteOffset":18540,
			"target":34962
		},
		{
			"buffer":0,
			"byteLength":1320,
			"byteOffset":20520,
			"target":34962
		},
		{
			"buffer":0,
			"byteLength":1320,
			"byteOffset":21840,
			"target":34962
		},
		{
			"buffer":0,
			"byteLength":2640,
			"byteOffset":23160,
			"target":34962
		},
		{
			"buffer":0,
			"byteLength":1536,
			"byteOffset":25800,
			"target":34963
		},
		{
			"buffer":0,
			"byteLength":1584,
			"byteOffset":27336,
			"target":34962
		},
		{
			"buffer":0,
			"byteLength":1584,
			"byteOffset":28920,
			"target":34962
		},
		{
			"buffer":0,
			"byteLength":1056,
			"byteOffset":30504,
			"target":34962
		},
		{
			"buffer":0,
			"byteLength":2112,
			"byteOffset":31560,
			"target":34962
		},
		{
			"buffer":0,
			"byteLength":1152,
			"byteOffset":33672,
			"target":34963
		},
		{
			"buffer":0,
			"byteLength":1920,
			"byteOffset":34824,
			"target":34962
		},
		{
			"buffer":0,
			"byteLength":1920,
			"byteOffset":36744,
			"target":34962
		},
		{
			"buffer":0,
			"byteLength":1280,
			"byteOffset":38664,
			"target":34962
		},
		{
			"buffer":0,
			"byteLength":2560,
			"byteOffset":39944,
			"target":34962
		},
		{
			"buffer":0,
			"byteLength":1536,
			"byteOffset":42504,
			"target":34963
		},
		{
			"buffer":0,
			"byteLength":1188,
			"byteOffset":44040,
			"target":34962
		},
		{
			"buffer":0,
			"byteLength":1188,
			"byteOffset":45228,
			"target":34962
		},
		{
			"buffer":0,
			"byteLength":792,
			"byteOffset":46416,
			"target":34962
		},
		{
			"buffer":0,
			"byteLength":1584,
			"byteOffset":47208,
			"target":34962
		},
		{
			"buffer":0,
			"byteLength":1176,
			"byteOffset":48792,
			"target":34962
		},
		{
			"buffer":0,
			"byteLength":1176,
			"byteOffset":49968,
			"target":34962
		},
		{
			"buffer":0,
			"byteLength":784,
			"byteOffset":51144,
			"target":34962
		},
		{
			"buffer":0,
			"byteLength":1568,
			"byteOffset":51928,
			"target":34962
		},
		{
			"buffer":0,
			"byteLength":576,
			"byteOffset":53496,
			"target":34963
		},
		{
			"buffer":0,
			"byteLength":1188,
			"byteOffset":54072,
			"target":34962
		},
		{
			"buffer":0,
			"byteLength":1188,
			"byteOffset":55260,
			"target":34962
		},
		{
			"buffer":0,
			"byteLength":792,
			"byteOffset":56448,
			"target":34962
		},
		{
			"buffer":0,
			"byteLength":1584,
			"byteOffset":57240,
			"target":34962
		},
		{
			"buffer":0,
			"byteLength":768,
			"byteOffset":58824,
			"target":34963
		},
		{
			"buffer":0,
			"byteLength":1584,
			"byteOffset":59592,
			"target":34962
		},
		{
			"buffer":0,
			"byteLength":1584,
			"byteOffset":61176,
			"target":34962
		},
		{
			"buffer":0,
			"byteLength":1056,
			"byteOffset":62760,
			"target":34962
		},
		{
			"buffer":0,
			"byteLength":2112,
			"byteOffset":63816,
			"target":34962
		}
	],
	"samplers":[
		{
			"magFilter":9729,
			"minFilter":9987
		}
	],
	"buffers":[
		{
			"byteLength":65928,
			"uri":"VFX_Bomb_Details.bin"
		}
	]
}
