{
	"asset":{
		"generator":"Khronos glTF Blender I/O v4.2.69",
		"version":"2.0"
	},
	"scene":0,
	"scenes":[
		{
			"name":"Scene",
			"nodes":[
				0,
				1,
				2,
				3,
				4,
				5,
				6,
				7,
				8,
				9,
				10
			]
		}
	],
	"nodes":[
		{
			"mesh":0,
			"name":"EN_WaterfallRock_02"
		},
		{
			"mesh":1,
			"name":"EN_WaterfallRock_01"
		},
		{
			"mesh":2,
			"name":"EN_WaterfallRock_03"
		},
		{
			"mesh":3,
			"name":"EN_WaterfallRock_04"
		},
		{
			"mesh":4,
			"name":"EN_WaterfallRock_05"
		},
		{
			"mesh":5,
			"name":"EN_WaterfallRock_06"
		},
		{
			"mesh":6,
			"name":"EN_WaterfallRock_10"
		},
		{
			"mesh":7,
			"name":"EN_WaterfallRock_11"
		},
		{
			"mesh":8,
			"name":"EN_WaterfallRock_07"
		},
		{
			"mesh":9,
			"name":"EN_WaterfallRock_08"
		},
		{
			"mesh":10,
			"name":"EN_WaterfallRock_09"
		}
	],
	"materials":[
		{
			"doubleSided":true,
			"name":"M_WaterfallRocks_FloatingRocks",
			"normalTexture":{
				"index":0
			},
			"pbrMetallicRoughness":{
				"baseColorTexture":{
					"index":1
				},
				"metallicRoughnessTexture":{
					"index":2
				}
			}
		},
		{
			"doubleSided":true,
			"name":"M_WaterfallRocks_FloatingRocks_boss",
			"normalTexture":{
				"index":3
			},
			"pbrMetallicRoughness":{
				"baseColorTexture":{
					"index":4
				},
				"metallicRoughnessTexture":{
					"index":5
				}
			}
		}
	],
	"meshes":[
		{
			"name":"Mesh.024",
			"primitives":[
				{
					"attributes":{
						"POSITION":0,
						"NORMAL":1,
						"TEXCOORD_0":2,
						"TANGENT":3
					},
					"indices":4,
					"material":0
				}
			]
		},
		{
			"name":"Mesh.025",
			"primitives":[
				{
					"attributes":{
						"POSITION":5,
						"NORMAL":6,
						"TEXCOORD_0":7,
						"TANGENT":8
					},
					"indices":9,
					"material":0
				}
			]
		},
		{
			"name":"Mesh.026",
			"primitives":[
				{
					"attributes":{
						"POSITION":10,
						"NORMAL":11,
						"TEXCOORD_0":12,
						"TANGENT":13
					},
					"indices":14,
					"material":0
				}
			]
		},
		{
			"name":"Mesh.027",
			"primitives":[
				{
					"attributes":{
						"POSITION":15,
						"NORMAL":16,
						"TEXCOORD_0":17,
						"TANGENT":18
					},
					"indices":19,
					"material":0
				}
			]
		},
		{
			"name":"Mesh.028",
			"primitives":[
				{
					"attributes":{
						"POSITION":20,
						"NORMAL":21,
						"TEXCOORD_0":22,
						"TANGENT":23
					},
					"indices":24,
					"material":0
				}
			]
		},
		{
			"name":"Mesh.029",
			"primitives":[
				{
					"attributes":{
						"POSITION":25,
						"NORMAL":26,
						"TEXCOORD_0":27,
						"TANGENT":28
					},
					"indices":29,
					"material":0
				}
			]
		},
		{
			"name":"Mesh.030",
			"primitives":[
				{
					"attributes":{
						"POSITION":30,
						"NORMAL":31,
						"TEXCOORD_0":32,
						"TANGENT":33
					},
					"indices":34,
					"material":0
				}
			]
		},
		{
			"name":"Mesh.031",
			"primitives":[
				{
					"attributes":{
						"POSITION":35,
						"NORMAL":36,
						"TEXCOORD_0":37,
						"TANGENT":38
					},
					"indices":39,
					"material":0
				}
			]
		},
		{
			"name":"Mesh.032",
			"primitives":[
				{
					"attributes":{
						"POSITION":40,
						"NORMAL":41,
						"TEXCOORD_0":42,
						"TANGENT":43
					},
					"indices":44,
					"material":0
				}
			]
		},
		{
			"name":"Mesh.033",
			"primitives":[
				{
					"attributes":{
						"POSITION":45,
						"NORMAL":46,
						"TEXCOORD_0":47,
						"TANGENT":48
					},
					"indices":49,
					"material":1
				}
			]
		},
		{
			"name":"Mesh.034",
			"primitives":[
				{
					"attributes":{
						"POSITION":50,
						"NORMAL":51,
						"TEXCOORD_0":52,
						"TANGENT":53
					},
					"indices":49,
					"material":0
				}
			]
		}
	],
	"textures":[
		{
			"sampler":0,
			"source":0
		},
		{
			"sampler":0,
			"source":1
		},
		{
			"sampler":0,
			"source":2
		},
		{
			"sampler":0,
			"source":0
		},
		{
			"sampler":0,
			"source":1
		},
		{
			"sampler":0,
			"source":2
		}
	],
	"images":[
		{
			"mimeType":"image/png",
			"name":"T_WaterFallRocks_FloatingRocks_Normal",
			"uri":"T_WaterFallRocks_FloatingRocks_Normal.png"
		},
		{
			"mimeType":"image/png",
			"name":"T_WaterFallRocks_FloatingRocks_BaseColor",
			"uri":"T_WaterFallRocks_FloatingRocks_BaseColor.png"
		},
		{
			"mimeType":"image/png",
			"name":"T_WaterFallRocks_FloatingRocks_OcclusionRoughnessMetallic",
			"uri":"T_WaterFallRocks_FloatingRocks_OcclusionRoughnessMetallic.png"
		}
	],
	"accessors":[
		{
			"bufferView":0,
			"componentType":5126,
			"count":1031,
			"max":[
				2.4422085285186768,
				4.2109575271606445,
				2.1909103393554688
			],
			"min":[
				-2.590491533279419,
				-5.650722503662109,
				-2.4193296432495117
			],
			"type":"VEC3"
		},
		{
			"bufferView":1,
			"componentType":5126,
			"count":1031,
			"type":"VEC3"
		},
		{
			"bufferView":2,
			"componentType":5126,
			"count":1031,
			"type":"VEC2"
		},
		{
			"bufferView":3,
			"componentType":5126,
			"count":1031,
			"type":"VEC4"
		},
		{
			"bufferView":4,
			"componentType":5123,
			"count":2814,
			"type":"SCALAR"
		},
		{
			"bufferView":5,
			"componentType":5126,
			"count":788,
			"max":[
				2.4551639556884766,
				3.3414077758789062,
				2.3713672161102295
			],
			"min":[
				-2.8791656494140625,
				-3.8330535888671875,
				-2.242582082748413
			],
			"type":"VEC3"
		},
		{
			"bufferView":6,
			"componentType":5126,
			"count":788,
			"type":"VEC3"
		},
		{
			"bufferView":7,
			"componentType":5126,
			"count":788,
			"type":"VEC2"
		},
		{
			"bufferView":8,
			"componentType":5126,
			"count":788,
			"type":"VEC4"
		},
		{
			"bufferView":9,
			"componentType":5123,
			"count":2814,
			"type":"SCALAR"
		},
		{
			"bufferView":10,
			"componentType":5126,
			"count":887,
			"max":[
				2.8942277431488037,
				3.4178247451782227,
				2.4295997619628906
			],
			"min":[
				-2.9025826454162598,
				-4.293695449829102,
				-2.7373504638671875
			],
			"type":"VEC3"
		},
		{
			"bufferView":11,
			"componentType":5126,
			"count":887,
			"type":"VEC3"
		},
		{
			"bufferView":12,
			"componentType":5126,
			"count":887,
			"type":"VEC2"
		},
		{
			"bufferView":13,
			"componentType":5126,
			"count":887,
			"type":"VEC4"
		},
		{
			"bufferView":14,
			"componentType":5123,
			"count":2814,
			"type":"SCALAR"
		},
		{
			"bufferView":15,
			"componentType":5126,
			"count":617,
			"max":[
				1.834615707397461,
				4.316208839416504,
				2.19500732421875
			],
			"min":[
				-2.465144157409668,
				-4.757091522216797,
				-2.2305126190185547
			],
			"type":"VEC3"
		},
		{
			"bufferView":16,
			"componentType":5126,
			"count":617,
			"type":"VEC3"
		},
		{
			"bufferView":17,
			"componentType":5126,
			"count":617,
			"type":"VEC2"
		},
		{
			"bufferView":18,
			"componentType":5126,
			"count":617,
			"type":"VEC4"
		},
		{
			"bufferView":19,
			"componentType":5123,
			"count":1944,
			"type":"SCALAR"
		},
		{
			"bufferView":20,
			"componentType":5126,
			"count":579,
			"max":[
				1.9327319860458374,
				7.898292064666748,
				1.7434196472167969
			],
			"min":[
				-2.0453379154205322,
				-0.0590672492980957,
				-1.7289085388183594
			],
			"type":"VEC3"
		},
		{
			"bufferView":21,
			"componentType":5126,
			"count":579,
			"type":"VEC3"
		},
		{
			"bufferView":22,
			"componentType":5126,
			"count":579,
			"type":"VEC2"
		},
		{
			"bufferView":23,
			"componentType":5126,
			"count":579,
			"type":"VEC4"
		},
		{
			"bufferView":24,
			"componentType":5123,
			"count":1356,
			"type":"SCALAR"
		},
		{
			"bufferView":25,
			"componentType":5126,
			"count":448,
			"max":[
				1.8588111400604248,
				4.555425643920898,
				1.5268516540527344
			],
			"min":[
				-1.8531389236450195,
				-5.157093524932861,
				-1.6503677368164062
			],
			"type":"VEC3"
		},
		{
			"bufferView":26,
			"componentType":5126,
			"count":448,
			"type":"VEC3"
		},
		{
			"bufferView":27,
			"componentType":5126,
			"count":448,
			"type":"VEC2"
		},
		{
			"bufferView":28,
			"componentType":5126,
			"count":448,
			"type":"VEC4"
		},
		{
			"bufferView":29,
			"componentType":5123,
			"count":990,
			"type":"SCALAR"
		},
		{
			"bufferView":30,
			"componentType":5126,
			"count":415,
			"max":[
				1.511307716369629,
				5.52109432220459,
				1.8314628601074219
			],
			"min":[
				-1.628002643585205,
				-7.131706237792969,
				-1.7552680969238281
			],
			"type":"VEC3"
		},
		{
			"bufferView":31,
			"componentType":5126,
			"count":415,
			"type":"VEC3"
		},
		{
			"bufferView":32,
			"componentType":5126,
			"count":415,
			"type":"VEC2"
		},
		{
			"bufferView":33,
			"componentType":5126,
			"count":415,
			"type":"VEC4"
		},
		{
			"bufferView":34,
			"componentType":5123,
			"count":1596,
			"type":"SCALAR"
		},
		{
			"bufferView":35,
			"componentType":5126,
			"count":351,
			"max":[
				1.2300748825073242,
				3.850095510482788,
				1.3444671630859375
			],
			"min":[
				-1.2770147323608398,
				-3.2140140533447266,
				-1.5948448181152344
			],
			"type":"VEC3"
		},
		{
			"bufferView":36,
			"componentType":5126,
			"count":351,
			"type":"VEC3"
		},
		{
			"bufferView":37,
			"componentType":5126,
			"count":351,
			"type":"VEC2"
		},
		{
			"bufferView":38,
			"componentType":5126,
			"count":351,
			"type":"VEC4"
		},
		{
			"bufferView":39,
			"componentType":5123,
			"count":1398,
			"type":"SCALAR"
		},
		{
			"bufferView":40,
			"componentType":5126,
			"count":782,
			"max":[
				6.225246429443359,
				6.761939525604248,
				4.77946662902832
			],
			"min":[
				-6.669055938720703,
				-0.23193073272705078,
				-4.355474472045898
			],
			"type":"VEC3"
		},
		{
			"bufferView":41,
			"componentType":5126,
			"count":782,
			"type":"VEC3"
		},
		{
			"bufferView":42,
			"componentType":5126,
			"count":782,
			"type":"VEC2"
		},
		{
			"bufferView":43,
			"componentType":5126,
			"count":782,
			"type":"VEC4"
		},
		{
			"bufferView":44,
			"componentType":5123,
			"count":2394,
			"type":"SCALAR"
		},
		{
			"bufferView":45,
			"componentType":5126,
			"count":898,
			"max":[
				6.71282958984375,
				8.176329612731934,
				4.764654159545898
			],
			"min":[
				-6.352870941162109,
				-0.13573074340820312,
				-3.693675994873047
			],
			"type":"VEC3"
		},
		{
			"bufferView":46,
			"componentType":5126,
			"count":898,
			"type":"VEC3"
		},
		{
			"bufferView":47,
			"componentType":5126,
			"count":898,
			"type":"VEC2"
		},
		{
			"bufferView":48,
			"componentType":5126,
			"count":898,
			"type":"VEC4"
		},
		{
			"bufferView":49,
			"componentType":5123,
			"count":2700,
			"type":"SCALAR"
		},
		{
			"bufferView":50,
			"componentType":5126,
			"count":898,
			"max":[
				8.196685791015625,
				4.577927589416504,
				6.088539123535156
			],
			"min":[
				-6.650215148925781,
				0.03530740737915039,
				-5.964260101318359
			],
			"type":"VEC3"
		},
		{
			"bufferView":51,
			"componentType":5126,
			"count":898,
			"type":"VEC3"
		},
		{
			"bufferView":52,
			"componentType":5126,
			"count":898,
			"type":"VEC2"
		},
		{
			"bufferView":53,
			"componentType":5126,
			"count":898,
			"type":"VEC4"
		}
	],
	"bufferViews":[
		{
			"buffer":0,
			"byteLength":12372,
			"byteOffset":0,
			"target":34962
		},
		{
			"buffer":0,
			"byteLength":12372,
			"byteOffset":12372,
			"target":34962
		},
		{
			"buffer":0,
			"byteLength":8248,
			"byteOffset":24744,
			"target":34962
		},
		{
			"buffer":0,
			"byteLength":16496,
			"byteOffset":32992,
			"target":34962
		},
		{
			"buffer":0,
			"byteLength":5628,
			"byteOffset":49488,
			"target":34963
		},
		{
			"buffer":0,
			"byteLength":9456,
			"byteOffset":55116,
			"target":34962
		},
		{
			"buffer":0,
			"byteLength":9456,
			"byteOffset":64572,
			"target":34962
		},
		{
			"buffer":0,
			"byteLength":6304,
			"byteOffset":74028,
			"target":34962
		},
		{
			"buffer":0,
			"byteLength":12608,
			"byteOffset":80332,
			"target":34962
		},
		{
			"buffer":0,
			"byteLength":5628,
			"byteOffset":92940,
			"target":34963
		},
		{
			"buffer":0,
			"byteLength":10644,
			"byteOffset":98568,
			"target":34962
		},
		{
			"buffer":0,
			"byteLength":10644,
			"byteOffset":109212,
			"target":34962
		},
		{
			"buffer":0,
			"byteLength":7096,
			"byteOffset":119856,
			"target":34962
		},
		{
			"buffer":0,
			"byteLength":14192,
			"byteOffset":126952,
			"target":34962
		},
		{
			"buffer":0,
			"byteLength":5628,
			"byteOffset":141144,
			"target":34963
		},
		{
			"buffer":0,
			"byteLength":7404,
			"byteOffset":146772,
			"target":34962
		},
		{
			"buffer":0,
			"byteLength":7404,
			"byteOffset":154176,
			"target":34962
		},
		{
			"buffer":0,
			"byteLength":4936,
			"byteOffset":161580,
			"target":34962
		},
		{
			"buffer":0,
			"byteLength":9872,
			"byteOffset":166516,
			"target":34962
		},
		{
			"buffer":0,
			"byteLength":3888,
			"byteOffset":176388,
			"target":34963
		},
		{
			"buffer":0,
			"byteLength":6948,
			"byteOffset":180276,
			"target":34962
		},
		{
			"buffer":0,
			"byteLength":6948,
			"byteOffset":187224,
			"target":34962
		},
		{
			"buffer":0,
			"byteLength":4632,
			"byteOffset":194172,
			"target":34962
		},
		{
			"buffer":0,
			"byteLength":9264,
			"byteOffset":198804,
			"target":34962
		},
		{
			"buffer":0,
			"byteLength":2712,
			"byteOffset":208068,
			"target":34963
		},
		{
			"buffer":0,
			"byteLength":5376,
			"byteOffset":210780,
			"target":34962
		},
		{
			"buffer":0,
			"byteLength":5376,
			"byteOffset":216156,
			"target":34962
		},
		{
			"buffer":0,
			"byteLength":3584,
			"byteOffset":221532,
			"target":34962
		},
		{
			"buffer":0,
			"byteLength":7168,
			"byteOffset":225116,
			"target":34962
		},
		{
			"buffer":0,
			"byteLength":1980,
			"byteOffset":232284,
			"target":34963
		},
		{
			"buffer":0,
			"byteLength":4980,
			"byteOffset":234264,
			"target":34962
		},
		{
			"buffer":0,
			"byteLength":4980,
			"byteOffset":239244,
			"target":34962
		},
		{
			"buffer":0,
			"byteLength":3320,
			"byteOffset":244224,
			"target":34962
		},
		{
			"buffer":0,
			"byteLength":6640,
			"byteOffset":247544,
			"target":34962
		},
		{
			"buffer":0,
			"byteLength":3192,
			"byteOffset":254184,
			"target":34963
		},
		{
			"buffer":0,
			"byteLength":4212,
			"byteOffset":257376,
			"target":34962
		},
		{
			"buffer":0,
			"byteLength":4212,
			"byteOffset":261588,
			"target":34962
		},
		{
			"buffer":0,
			"byteLength":2808,
			"byteOffset":265800,
			"target":34962
		},
		{
			"buffer":0,
			"byteLength":5616,
			"byteOffset":268608,
			"target":34962
		},
		{
			"buffer":0,
			"byteLength":2796,
			"byteOffset":274224,
			"target":34963
		},
		{
			"buffer":0,
			"byteLength":9384,
			"byteOffset":277020,
			"target":34962
		},
		{
			"buffer":0,
			"byteLength":9384,
			"byteOffset":286404,
			"target":34962
		},
		{
			"buffer":0,
			"byteLength":6256,
			"byteOffset":295788,
			"target":34962
		},
		{
			"buffer":0,
			"byteLength":12512,
			"byteOffset":302044,
			"target":34962
		},
		{
			"buffer":0,
			"byteLength":4788,
			"byteOffset":314556,
			"target":34963
		},
		{
			"buffer":0,
			"byteLength":10776,
			"byteOffset":319344,
			"target":34962
		},
		{
			"buffer":0,
			"byteLength":10776,
			"byteOffset":330120,
			"target":34962
		},
		{
			"buffer":0,
			"byteLength":7184,
			"byteOffset":340896,
			"target":34962
		},
		{
			"buffer":0,
			"byteLength":14368,
			"byteOffset":348080,
			"target":34962
		},
		{
			"buffer":0,
			"byteLength":5400,
			"byteOffset":362448,
			"target":34963
		},
		{
			"buffer":0,
			"byteLength":10776,
			"byteOffset":367848,
			"target":34962
		},
		{
			"buffer":0,
			"byteLength":10776,
			"byteOffset":378624,
			"target":34962
		},
		{
			"buffer":0,
			"byteLength":7184,
			"byteOffset":389400,
			"target":34962
		},
		{
			"buffer":0,
			"byteLength":14368,
			"byteOffset":396584,
			"target":34962
		}
	],
	"samplers":[
		{
			"magFilter":9729,
			"minFilter":9987
		}
	],
	"buffers":[
		{
			"byteLength":410952,
			"uri":"waterfall_rocks.bin"
		}
	]
}
