{
	"asset":{
		"generator":"Khronos glTF Blender I/O v4.2.57",
		"version":"2.0"
	},
	"extensionsUsed":[
		"KHR_materials_specular"
	],
	"scene":0,
	"scenes":[
		{
			"name":"Scene",
			"nodes":[
				0,
				1,
				2,
				3,
				4
			]
		}
	],
	"nodes":[
		{
			"mesh":0,
			"name":"W_Waves",
			"scale":[
				0.05643755942583084,
				0.05643755942583084,
				0.05643755942583084
			],
			"translation":[
				0,
				-0.10952071845531464,
				-0.6636943817138672
			]
		},
		{
			"mesh":1,
			"name":"Waves_Cyl_Mesh",
			"scale":[
				0.0614241361618042,
				0.0614241361618042,
				0.0614241361618042
			],
			"translation":[
				0,
				0.042503051459789276,
				0
			]
		},
		{
			"mesh":2,
			"name":"Circle_B_Mesh",
			"scale":[
				0.08911711722612381,
				0.08911711722612381,
				0.08911711722612381
			],
			"translation":[
				0,
				-0.11052606999874115,
				-0.044927120208740234
			]
		},
		{
			"mesh":3,
			"name":"Explosion_Mesh",
			"scale":[
				1.4555071592330933,
				0.6225265264511108,
				1.4555071592330933
			],
			"translation":[
				0,
				0.3378473222255707,
				0.033741436898708344
			]
		},
		{
			"mesh":4,
			"name":"Cyl_Vertical_Mesh",
			"rotation":[
				0,
				0.6344590187072754,
				0,
				0.7729564905166626
			],
			"scale":[
				0.03509309142827988,
				0.3338871896266937,
				0.03509311378002167
			]
		}
	],
	"materials":[
		{
			"alphaMode":"BLEND",
			"doubleSided":true,
			"extensions":{
				"KHR_materials_specular":{
					"specularColorFactor":[
						2.0,
						2.0,
						2.0
					]
				}
			},
			"name":"M_W_Waves",
			"pbrMetallicRoughness":{
				"baseColorTexture":{
					"index":0
				},
				"metallicFactor":0,
				"roughnessFactor":0.5527864098548889
			}
		},
		{
			"alphaMode":"BLEND",
			"doubleSided":true,
			"extensions":{
				"KHR_materials_specular":{
					"specularColorFactor":[
						2.0,
						2.0,
						2.0
					]
				}
			},
			"name":"M_Waves_Cyl",
			"pbrMetallicRoughness":{
				"baseColorTexture":{
					"index":1
				},
				"metallicFactor":0,
				"roughnessFactor":0.5527864098548889
			}
		},
		{
			"alphaMode":"BLEND",
			"doubleSided":true,
			"extensions":{
				"KHR_materials_specular":{
					"specularColorFactor":[
						2.0,
						2.0,
						2.0
					]
				}
			},
			"name":"M_CircleB",
			"pbrMetallicRoughness":{
				"baseColorTexture":{
					"index":2
				},
				"metallicFactor":0
			}
		},
		{
			"alphaMode":"BLEND",
			"doubleSided":true,
			"extensions":{
				"KHR_materials_specular":{
					"specularColorFactor":[
						2.0,
						2.0,
						2.0
					]
				}
			},
			"name":"M_Explosion",
			"pbrMetallicRoughness":{
				"baseColorTexture":{
					"index":3
				},
				"metallicFactor":0,
				"roughnessFactor":0.5527864098548889
			}
		},
		{
			"alphaMode":"BLEND",
			"doubleSided":true,
			"extensions":{
				"KHR_materials_specular":{
					"specularColorFactor":[
						2.0,
						2.0,
						2.0
					]
				}
			},
			"name":"M_CylinderBig",
			"pbrMetallicRoughness":{
				"baseColorTexture":{
					"index":4
				},
				"metallicFactor":0,
				"roughnessFactor":0.5527864098548889
			}
		}
	],
	"meshes":[
		{
			"name":"Mesh.007",
			"primitives":[
				{
					"attributes":{
						"POSITION":0,
						"NORMAL":1,
						"TEXCOORD_0":2,
						"TANGENT":3
					},
					"indices":4,
					"material":0
				}
			]
		},
		{
			"name":"Mesh.008",
			"primitives":[
				{
					"attributes":{
						"POSITION":5,
						"NORMAL":6,
						"TEXCOORD_0":7,
						"TANGENT":8
					},
					"indices":9,
					"material":1
				}
			]
		},
		{
			"name":"Mesh.004",
			"primitives":[
				{
					"attributes":{
						"POSITION":10,
						"NORMAL":11,
						"TEXCOORD_0":12,
						"TANGENT":13
					},
					"indices":14,
					"material":2
				}
			]
		},
		{
			"name":"Mesh.002",
			"primitives":[
				{
					"attributes":{
						"POSITION":15,
						"NORMAL":16,
						"TEXCOORD_0":17,
						"TANGENT":18
					},
					"indices":19,
					"material":3
				}
			]
		},
		{
			"name":"Mesh.003",
			"primitives":[
				{
					"attributes":{
						"POSITION":20,
						"NORMAL":21,
						"TEXCOORD_0":22,
						"TANGENT":23
					},
					"indices":24,
					"material":4
				}
			]
		}
	],
	"textures":[
		{
			"sampler":0,
			"source":0
		},
		{
			"sampler":1,
			"source":1
		},
		{
			"sampler":1,
			"source":2
		},
		{
			"sampler":1,
			"source":3
		},
		{
			"sampler":1,
			"source":4
		}
	],
	"images":[
		{
			"mimeType":"image/png",
			"name":"Decal_Ground2",
			"uri":"Decal_Ground2.png"
		},
		{
			"mimeType":"image/png",
			"name":"Waves_Sides",
			"uri":"Waves_Sides.png"
		},
		{
			"mimeType":"image/png",
			"name":"Decal_2",
			"uri":"Decal_2.png"
		},
		{
			"mimeType":"image/png",
			"name":"Explosion2",
			"uri":"Explosion2.png"
		},
		{
			"mimeType":"image/png",
			"name":"Vertical_Water_png",
			"uri":"Vertical_Water_png.png"
		}
	],
	"accessors":[
		{
			"bufferView":0,
			"componentType":5126,
			"count":185,
			"max":[
				26.996755599975586,
				1.4314842224121094,
				38.19626235961914
			],
			"min":[
				-26.996755599975586,
				1.4314842224121094,
				-15.536907196044922
			],
			"type":"VEC3"
		},
		{
			"bufferView":1,
			"componentType":5126,
			"count":185,
			"type":"VEC3"
		},
		{
			"bufferView":2,
			"componentType":5126,
			"count":185,
			"type":"VEC2"
		},
		{
			"bufferView":3,
			"componentType":5126,
			"count":185,
			"type":"VEC4"
		},
		{
			"bufferView":4,
			"componentType":5123,
			"count":864,
			"type":"SCALAR"
		},
		{
			"bufferView":5,
			"componentType":5126,
			"count":111,
			"max":[
				19.139202117919922,
				5.052165985107422,
				19.136962890625
			],
			"min":[
				-19.139205932617188,
				0,
				-19.136960983276367
			],
			"type":"VEC3"
		},
		{
			"bufferView":6,
			"componentType":5126,
			"count":111,
			"type":"VEC3"
		},
		{
			"bufferView":7,
			"componentType":5126,
			"count":111,
			"type":"VEC2"
		},
		{
			"bufferView":8,
			"componentType":5126,
			"count":111,
			"type":"VEC4"
		},
		{
			"bufferView":9,
			"componentType":5123,
			"count":432,
			"type":"SCALAR"
		},
		{
			"bufferView":10,
			"componentType":5126,
			"count":37,
			"max":[
				28.284271240234375,
				0,
				27.854572296142578
			],
			"min":[
				-28.284271240234375,
				0,
				-27.854570388793945
			],
			"type":"VEC3"
		},
		{
			"bufferView":11,
			"componentType":5126,
			"count":37,
			"type":"VEC3"
		},
		{
			"bufferView":12,
			"componentType":5126,
			"count":37,
			"type":"VEC2"
		},
		{
			"bufferView":13,
			"componentType":5126,
			"count":37,
			"type":"VEC4"
		},
		{
			"bufferView":14,
			"componentType":5123,
			"count":108,
			"type":"SCALAR"
		},
		{
			"bufferView":15,
			"componentType":5126,
			"count":198,
			"max":[
				1.0699957609176636,
				1.2143731117248535,
				1.058593988418579
			],
			"min":[
				-1.0699957609176636,
				-0.3671867847442627,
				-1.0813974142074585
			],
			"type":"VEC3"
		},
		{
			"bufferView":16,
			"componentType":5126,
			"count":198,
			"type":"VEC3"
		},
		{
			"bufferView":17,
			"componentType":5126,
			"count":198,
			"type":"VEC2"
		},
		{
			"bufferView":18,
			"componentType":5126,
			"count":198,
			"type":"VEC4"
		},
		{
			"bufferView":19,
			"componentType":5123,
			"count":960,
			"type":"SCALAR"
		},
		{
			"bufferView":20,
			"componentType":5126,
			"count":296,
			"max":[
				24.96632194519043,
				50.00001525878906,
				24.963394165039062
			],
			"min":[
				-24.966320037841797,
				0,
				-24.963394165039062
			],
			"type":"VEC3"
		},
		{
			"bufferView":21,
			"componentType":5126,
			"count":296,
			"type":"VEC3"
		},
		{
			"bufferView":22,
			"componentType":5126,
			"count":296,
			"type":"VEC2"
		},
		{
			"bufferView":23,
			"componentType":5126,
			"count":296,
			"type":"VEC4"
		},
		{
			"bufferView":24,
			"componentType":5123,
			"count":1512,
			"type":"SCALAR"
		}
	],
	"bufferViews":[
		{
			"buffer":0,
			"byteLength":2220,
			"byteOffset":0,
			"target":34962
		},
		{
			"buffer":0,
			"byteLength":2220,
			"byteOffset":2220,
			"target":34962
		},
		{
			"buffer":0,
			"byteLength":1480,
			"byteOffset":4440,
			"target":34962
		},
		{
			"buffer":0,
			"byteLength":2960,
			"byteOffset":5920,
			"target":34962
		},
		{
			"buffer":0,
			"byteLength":1728,
			"byteOffset":8880,
			"target":34963
		},
		{
			"buffer":0,
			"byteLength":1332,
			"byteOffset":10608,
			"target":34962
		},
		{
			"buffer":0,
			"byteLength":1332,
			"byteOffset":11940,
			"target":34962
		},
		{
			"buffer":0,
			"byteLength":888,
			"byteOffset":13272,
			"target":34962
		},
		{
			"buffer":0,
			"byteLength":1776,
			"byteOffset":14160,
			"target":34962
		},
		{
			"buffer":0,
			"byteLength":864,
			"byteOffset":15936,
			"target":34963
		},
		{
			"buffer":0,
			"byteLength":444,
			"byteOffset":16800,
			"target":34962
		},
		{
			"buffer":0,
			"byteLength":444,
			"byteOffset":17244,
			"target":34962
		},
		{
			"buffer":0,
			"byteLength":296,
			"byteOffset":17688,
			"target":34962
		},
		{
			"buffer":0,
			"byteLength":592,
			"byteOffset":17984,
			"target":34962
		},
		{
			"buffer":0,
			"byteLength":216,
			"byteOffset":18576,
			"target":34963
		},
		{
			"buffer":0,
			"byteLength":2376,
			"byteOffset":18792,
			"target":34962
		},
		{
			"buffer":0,
			"byteLength":2376,
			"byteOffset":21168,
			"target":34962
		},
		{
			"buffer":0,
			"byteLength":1584,
			"byteOffset":23544,
			"target":34962
		},
		{
			"buffer":0,
			"byteLength":3168,
			"byteOffset":25128,
			"target":34962
		},
		{
			"buffer":0,
			"byteLength":1920,
			"byteOffset":28296,
			"target":34963
		},
		{
			"buffer":0,
			"byteLength":3552,
			"byteOffset":30216,
			"target":34962
		},
		{
			"buffer":0,
			"byteLength":3552,
			"byteOffset":33768,
			"target":34962
		},
		{
			"buffer":0,
			"byteLength":2368,
			"byteOffset":37320,
			"target":34962
		},
		{
			"buffer":0,
			"byteLength":4736,
			"byteOffset":39688,
			"target":34962
		},
		{
			"buffer":0,
			"byteLength":3024,
			"byteOffset":44424,
			"target":34963
		}
	],
	"samplers":[
		{
			"magFilter":9729,
			"minFilter":9987,
			"wrapS":33071,
			"wrapT":33071
		},
		{
			"magFilter":9729,
			"minFilter":9987
		}
	],
	"buffers":[
		{
			"byteLength":47448,
			"uri":"WaterSpout_FINAL_GLTF.bin"
		}
	]
}
