{
	"asset":{
		"generator":"Khronos glTF Blender I/O v4.5.47",
		"version":"2.0"
	},
	"scene":0,
	"scenes":[
		{
			"name":"Scene",
			"nodes":[
				0,
				1
			]
		}
	],
	"nodes":[
		{
			"mesh":0,
			"name":"EN_Arena_Floor_Plane2-water",
			"translation":[
				-0.42410513758659363,
				16.10599708557129,
				-17.93736457824707
			]
		},
		{
			"mesh":1,
			"name":"EN_Arena_Floor_Plane2-foam",
			"translation":[
				-0.42410513758659363,
				16.913454055786133,
				-17.93736457824707
			]
		}
	],
	"materials":[
		{
			"alphaMode":"BLEND",
			"doubleSided":true,
			"name":"m_water",
			"pbrMetallicRoughness":{
				"baseColorTexture":{
					"index":0
				},
				"metallicFactor":0
			}
		},
		{
			"alphaMode":"BLEND",
			"doubleSided":true,
			"name":"m_water_foam",
			"pbrMetallicRoughness":{
				"baseColorTexture":{
					"index":1
				},
				"metallicFactor":0
			}
		}
	],
	"meshes":[
		{
			"name":"Plane.001",
			"primitives":[
				{
					"attributes":{
						"POSITION":0,
						"NORMAL":1,
						"TEXCOORD_0":2,
						"TANGENT":3
					},
					"indices":4,
					"material":0
				}
			]
		},
		{
			"name":"Plane.030",
			"primitives":[
				{
					"attributes":{
						"POSITION":5,
						"NORMAL":6,
						"TEXCOORD_0":7,
						"TANGENT":8
					},
					"indices":9,
					"material":1
				}
			]
		}
	],
	"textures":[
		{
			"sampler":0,
			"source":0
		},
		{
			"sampler":0,
			"source":1
		}
	],
	"images":[
		{
			"mimeType":"image/png",
			"name":"backdrop_2",
			"uri":"backdrop_2.png"
		},
		{
			"mimeType":"image/png",
			"name":"foam_2",
			"uri":"foam_2.png"
		}
	],
	"accessors":[
		{
			"bufferView":0,
			"componentType":5126,
			"count":184,
			"max":[
				33.70807647705078,
				0.6589886546134949,
				70.37322235107422
			],
			"min":[
				-23.614469528198242,
				0.503048837184906,
				-31.49607276916504
			],
			"type":"VEC3"
		},
		{
			"bufferView":1,
			"componentType":5126,
			"count":184,
			"type":"VEC3"
		},
		{
			"bufferView":2,
			"componentType":5126,
			"count":184,
			"type":"VEC2"
		},
		{
			"bufferView":3,
			"componentType":5126,
			"count":184,
			"type":"VEC4"
		},
		{
			"bufferView":4,
			"componentType":5123,
			"count":660,
			"type":"SCALAR"
		},
		{
			"bufferView":5,
			"componentType":5126,
			"count":184,
			"max":[
				33.70807647705078,
				0.6589886546134949,
				70.37322235107422
			],
			"min":[
				-23.614469528198242,
				0.503048837184906,
				-31.49607276916504
			],
			"type":"VEC3"
		},
		{
			"bufferView":6,
			"componentType":5126,
			"count":184,
			"type":"VEC3"
		},
		{
			"bufferView":7,
			"componentType":5126,
			"count":184,
			"type":"VEC2"
		},
		{
			"bufferView":8,
			"componentType":5126,
			"count":184,
			"type":"VEC4"
		},
		{
			"bufferView":9,
			"componentType":5123,
			"count":660,
			"type":"SCALAR"
		}
	],
	"bufferViews":[
		{
			"buffer":0,
			"byteLength":2208,
			"byteOffset":0,
			"target":34962
		},
		{
			"buffer":0,
			"byteLength":2208,
			"byteOffset":2208,
			"target":34962
		},
		{
			"buffer":0,
			"byteLength":1472,
			"byteOffset":4416,
			"target":34962
		},
		{
			"buffer":0,
			"byteLength":2944,
			"byteOffset":5888,
			"target":34962
		},
		{
			"buffer":0,
			"byteLength":1320,
			"byteOffset":8832,
			"target":34963
		},
		{
			"buffer":0,
			"byteLength":2208,
			"byteOffset":10152,
			"target":34962
		},
		{
			"buffer":0,
			"byteLength":2208,
			"byteOffset":12360,
			"target":34962
		},
		{
			"buffer":0,
			"byteLength":1472,
			"byteOffset":14568,
			"target":34962
		},
		{
			"buffer":0,
			"byteLength":2944,
			"byteOffset":16040,
			"target":34962
		},
		{
			"buffer":0,
			"byteLength":1320,
			"byteOffset":18984,
			"target":34963
		}
	],
	"samplers":[
		{
			"magFilter":9729,
			"minFilter":9987
		}
	],
	"buffers":[
		{
			"byteLength":20304,
			"uri":"Water_Boss.bin"
		}
	]
}
