{
	"asset":{
		"generator":"Khronos glTF Blender I/O v4.5.47",
		"version":"2.0"
	},
	"extensionsUsed":[
		"KHR_materials_emissive_strength"
	],
	"scene":0,
	"scenes":[
		{
			"name":"Scene",
			"nodes":[
				0,
				1,
				2,
				3,
				4,
				5,
				6,
				7
			]
		}
	],
	"nodes":[
		{
			"mesh":0,
			"name":"waterfall_foam",
			"rotation":[
				0,
				-0.7071068286895752,
				-0.7071068286895752,
				5.338509012631221e-08
			],
			"scale":[
				0.5,
				0.5,
				0.5
			],
			"translation":[
				0,
				0.5,
				0.09095238149166107
			]
		},
		{
			"mesh":1,
			"name":"waterfall_backdrop",
			"rotation":[
				0,
				-0.7071068286895752,
				-0.7071068286895752,
				5.338509012631221e-08
			],
			"scale":[
				0.5,
				0.5,
				0.5
			],
			"translation":[
				0,
				0.5,
				0.047259751707315445
			]
		},
		{
			"mesh":2,
			"name":"waterfall_highlights",
			"rotation":[
				0,
				-0.7071068286895752,
				-0.7071068286895752,
				5.338509012631221e-08
			],
			"scale":[
				0.5,
				0.5,
				0.5
			],
			"translation":[
				0,
				0.5,
				0.15940646827220917
			]
		},
		{
			"mesh":3,
			"name":"watefall_bottom_backdrop",
			"translation":[
				0,
				0.003808986395597458,
				1.3388969898223877
			]
		},
		{
			"mesh":4,
			"name":"watefall_bottom_voronoi",
			"translation":[
				0,
				0.047259751707315445,
				1.3388969898223877
			]
		},
		{
			"mesh":5,
			"name":"waterfall_voronoi",
			"rotation":[
				0,
				-0.7071068286895752,
				-0.7071068286895752,
				5.338509012631221e-08
			],
			"scale":[
				0.5,
				0.5,
				0.5
			],
			"translation":[
				0,
				0.5,
				0.09302458167076111
			]
		},
		{
			"mesh":6,
			"name":"watefall_bottom_foam",
			"translation":[
				0,
				0.080426424741745,
				1.3388969898223877
			]
		},
		{
			"mesh":7,
			"name":"waterfall_foam_2",
			"rotation":[
				0,
				-0.7071068286895752,
				-0.7071068286895752,
				5.338509012631221e-08
			],
			"scale":[
				0.5,
				0.5,
				0.5
			],
			"translation":[
				0,
				0.5,
				0.09095238149166107
			]
		}
	],
	"animations":[
		{
			"channels":[
				{
					"sampler":0,
					"target":{
						"node":1,
						"path":"translation"
					}
				}
			],
			"name":"waterfall_backdropAction",
			"samplers":[
				{
					"input":28,
					"interpolation":"LINEAR",
					"output":29
				}
			]
		},
		{
			"channels":[
				{
					"sampler":0,
					"target":{
						"node":3,
						"path":"translation"
					}
				}
			],
			"name":"bottom_backdropAction",
			"samplers":[
				{
					"input":28,
					"interpolation":"LINEAR",
					"output":30
				}
			]
		},
		{
			"channels":[
				{
					"sampler":0,
					"target":{
						"node":4,
						"path":"translation"
					}
				}
			],
			"name":"bottom_voronoiAction",
			"samplers":[
				{
					"input":28,
					"interpolation":"LINEAR",
					"output":31
				}
			]
		},
		{
			"channels":[
				{
					"sampler":0,
					"target":{
						"node":6,
						"path":"translation"
					}
				}
			],
			"name":"Plane.002Action.001",
			"samplers":[
				{
					"input":28,
					"interpolation":"LINEAR",
					"output":32
				}
			]
		}
	],
	"materials":[
		{
			"alphaMode":"BLEND",
			"doubleSided":true,
			"emissiveFactor":[
				1,
				1,
				1
			],
			"emissiveTexture":{
				"index":0
			},
			"name":"m_waterfall_foam",
			"pbrMetallicRoughness":{
				"baseColorFactor":[
					0,
					0,
					0,
					1
				],
				"baseColorTexture":{
					"index":1
				},
				"metallicFactor":0
			}
		},
		{
			"doubleSided":true,
			"emissiveFactor":[
				1,
				1,
				1
			],
			"emissiveTexture":{
				"index":2
			},
			"name":"m_waterfall_backdrop",
			"pbrMetallicRoughness":{
				"baseColorFactor":[
					0,
					0,
					0,
					1
				],
				"metallicFactor":0
			}
		},
		{
			"alphaMode":"BLEND",
			"doubleSided":true,
			"emissiveFactor":[
				1,
				1,
				1
			],
			"name":"m_waterfall_highlight",
			"pbrMetallicRoughness":{
				"baseColorFactor":[
					0,
					0,
					0,
					1
				],
				"baseColorTexture":{
					"index":3
				},
				"metallicFactor":0
			}
		},
		{
			"doubleSided":true,
			"emissiveFactor":[
				1,
				1,
				1
			],
			"emissiveTexture":{
				"index":4
			},
			"name":"m_watefall_bottom_backdrop",
			"pbrMetallicRoughness":{
				"baseColorFactor":[
					0,
					0,
					0,
					1
				],
				"metallicFactor":0
			}
		},
		{
			"alphaMode":"BLEND",
			"doubleSided":true,
			"emissiveFactor":[
				1,
				1,
				1
			],
			"emissiveTexture":{
				"index":5
			},
			"extensions":{
				"KHR_materials_emissive_strength":{
					"emissiveStrength":7.09999942779541
				}
			},
			"name":"m_watefall_bottom_voronoi",
			"pbrMetallicRoughness":{
				"baseColorFactor":[
					0,
					0,
					0,
					1
				],
				"baseColorTexture":{
					"index":6
				},
				"metallicFactor":0
			}
		},
		{
			"alphaMode":"BLEND",
			"doubleSided":true,
			"emissiveFactor":[
				1,
				1,
				1
			],
			"emissiveTexture":{
				"index":7
			},
			"extensions":{
				"KHR_materials_emissive_strength":{
					"emissiveStrength":7.799999713897705
				}
			},
			"name":"m_waterfall_voronoi",
			"pbrMetallicRoughness":{
				"baseColorFactor":[
					0,
					0,
					0,
					1
				],
				"baseColorTexture":{
					"index":8
				},
				"metallicFactor":0
			}
		},
		{
			"alphaMode":"BLEND",
			"doubleSided":true,
			"emissiveFactor":[
				1,
				1,
				1
			],
			"emissiveTexture":{
				"index":9
			},
			"name":"m_watefall_bottom_foam",
			"pbrMetallicRoughness":{
				"baseColorFactor":[
					0,
					0,
					0,
					1
				],
				"baseColorTexture":{
					"index":10
				},
				"metallicFactor":0
			}
		},
		{
			"alphaMode":"BLEND",
			"doubleSided":true,
			"emissiveFactor":[
				1,
				1,
				1
			],
			"emissiveTexture":{
				"index":11
			},
			"name":"m_waterfall_foam_2",
			"pbrMetallicRoughness":{
				"baseColorFactor":[
					0,
					0,
					0,
					1
				],
				"baseColorTexture":{
					"index":12
				},
				"metallicFactor":0
			}
		}
	],
	"meshes":[
		{
			"name":"Plane",
			"primitives":[
				{
					"attributes":{
						"POSITION":0,
						"NORMAL":1,
						"TEXCOORD_0":2
					},
					"indices":3,
					"material":0
				}
			]
		},
		{
			"name":"Plane.001",
			"primitives":[
				{
					"attributes":{
						"POSITION":4,
						"NORMAL":5,
						"TEXCOORD_0":6
					},
					"indices":3,
					"material":1
				}
			]
		},
		{
			"name":"Plane.003",
			"primitives":[
				{
					"attributes":{
						"POSITION":7,
						"NORMAL":8,
						"TEXCOORD_0":9
					},
					"indices":10,
					"material":2
				}
			]
		},
		{
			"name":"Plane.004",
			"primitives":[
				{
					"attributes":{
						"POSITION":11,
						"NORMAL":12,
						"TEXCOORD_0":13
					},
					"indices":14,
					"material":3
				}
			]
		},
		{
			"name":"Plane.005",
			"primitives":[
				{
					"attributes":{
						"POSITION":15,
						"NORMAL":16,
						"TEXCOORD_0":17
					},
					"indices":14,
					"material":4
				}
			]
		},
		{
			"name":"Plane.006",
			"primitives":[
				{
					"attributes":{
						"POSITION":18,
						"NORMAL":19,
						"TEXCOORD_0":20
					},
					"indices":3,
					"material":5
				}
			]
		},
		{
			"name":"Plane.009",
			"primitives":[
				{
					"attributes":{
						"POSITION":21,
						"NORMAL":22,
						"TEXCOORD_0":23
					},
					"indices":24,
					"material":6
				}
			]
		},
		{
			"name":"Plane.016",
			"primitives":[
				{
					"attributes":{
						"POSITION":25,
						"NORMAL":26,
						"TEXCOORD_0":27
					},
					"indices":3,
					"material":7
				}
			]
		}
	],
	"textures":[
		{
			"sampler":0,
			"source":0
		},
		{
			"sampler":0,
			"source":1
		},
		{
			"sampler":0,
			"source":2
		},
		{
			"sampler":0,
			"source":3
		},
		{
			"sampler":0,
			"source":2
		},
		{
			"sampler":0,
			"source":4
		},
		{
			"sampler":0,
			"source":5
		},
		{
			"sampler":0,
			"source":4
		},
		{
			"sampler":0,
			"source":5
		},
		{
			"sampler":0,
			"source":0
		},
		{
			"sampler":0,
			"source":1
		},
		{
			"sampler":0,
			"source":0
		},
		{
			"sampler":0,
			"source":1
		}
	],
	"images":[
		{
			"mimeType":"image/png",
			"name":"tx_waterfall_foam",
			"uri":"tx_waterfall_foam.png"
		},
		{
			"mimeType":"image/png",
			"name":"tx_waterfall_foam",
			"uri":"tx_waterfall_foam-1.png"
		},
		{
			"mimeType":"image/png",
			"name":"tx_waterfall_backdrop",
			"uri":"tx_waterfall_backdrop.png"
		},
		{
			"mimeType":"image/png",
			"name":"tx_waterfall_highlight",
			"uri":"tx_waterfall_highlight.png"
		},
		{
			"mimeType":"image/png",
			"name":"tx_waterfall_voronoi",
			"uri":"tx_waterfall_voronoi.png"
		},
		{
			"mimeType":"image/png",
			"name":"tx_waterfall_voronoi",
			"uri":"tx_waterfall_voronoi-1.png"
		}
	],
	"accessors":[
		{
			"bufferView":0,
			"componentType":5126,
			"count":128,
			"max":[
				1.1528350114822388,
				1.0619637966156006,
				6.686657905578613
			],
			"min":[
				-1.1529107093811035,
				-0.37482476234436035,
				-0.9999995231628418
			],
			"type":"VEC3"
		},
		{
			"bufferView":1,
			"componentType":5126,
			"count":128,
			"type":"VEC3"
		},
		{
			"bufferView":2,
			"componentType":5126,
			"count":128,
			"type":"VEC2"
		},
		{
			"bufferView":3,
			"componentType":5123,
			"count":630,
			"type":"SCALAR"
		},
		{
			"bufferView":4,
			"componentType":5126,
			"count":128,
			"max":[
				1,
				1.0619637966156006,
				6.686657905578613
			],
			"min":[
				-1,
				-0.37482479214668274,
				-0.9999995231628418
			],
			"type":"VEC3"
		},
		{
			"bufferView":5,
			"componentType":5126,
			"count":128,
			"type":"VEC3"
		},
		{
			"bufferView":6,
			"componentType":5126,
			"count":128,
			"type":"VEC2"
		},
		{
			"bufferView":7,
			"componentType":5126,
			"count":360,
			"max":[
				0.9999999403953552,
				0.09774777293205261,
				6.626019477844238
			],
			"min":[
				-1.000001072883606,
				-0.40779152512550354,
				5.833198070526123
			],
			"type":"VEC3"
		},
		{
			"bufferView":8,
			"componentType":5126,
			"count":360,
			"type":"VEC3"
		},
		{
			"bufferView":9,
			"componentType":5126,
			"count":360,
			"type":"VEC2"
		},
		{
			"bufferView":10,
			"componentType":5123,
			"count":540,
			"type":"SCALAR"
		},
		{
			"bufferView":11,
			"componentType":5126,
			"count":122,
			"max":[
				1.8001407384872437,
				0.0013105040416121483,
				0.7656918168067932
			],
			"min":[
				-1.793550729751587,
				-0.038104500621557236,
				-1.02817702293396
			],
			"type":"VEC3"
		},
		{
			"bufferView":12,
			"componentType":5126,
			"count":122,
			"type":"VEC3"
		},
		{
			"bufferView":13,
			"componentType":5126,
			"count":122,
			"type":"VEC2"
		},
		{
			"bufferView":14,
			"componentType":5123,
			"count":216,
			"type":"SCALAR"
		},
		{
			"bufferView":15,
			"componentType":5126,
			"count":122,
			"max":[
				1.8001407384872437,
				0.0013105040416121483,
				0.7656918168067932
			],
			"min":[
				-1.793550729751587,
				-0.038104500621557236,
				-1.02817702293396
			],
			"type":"VEC3"
		},
		{
			"bufferView":16,
			"componentType":5126,
			"count":122,
			"type":"VEC3"
		},
		{
			"bufferView":17,
			"componentType":5126,
			"count":122,
			"type":"VEC2"
		},
		{
			"bufferView":18,
			"componentType":5126,
			"count":128,
			"max":[
				1,
				1.0619637966156006,
				6.686657905578613
			],
			"min":[
				-1,
				-0.37482479214668274,
				-0.9999995231628418
			],
			"type":"VEC3"
		},
		{
			"bufferView":19,
			"componentType":5126,
			"count":128,
			"type":"VEC3"
		},
		{
			"bufferView":20,
			"componentType":5126,
			"count":128,
			"type":"VEC2"
		},
		{
			"bufferView":21,
			"componentType":5126,
			"count":87,
			"max":[
				1.800140619277954,
				0,
				0.7656917572021484
			],
			"min":[
				-1.793550729751587,
				-0.0016089975833892822,
				-1.02817702293396
			],
			"type":"VEC3"
		},
		{
			"bufferView":22,
			"componentType":5126,
			"count":87,
			"type":"VEC3"
		},
		{
			"bufferView":23,
			"componentType":5126,
			"count":87,
			"type":"VEC2"
		},
		{
			"bufferView":24,
			"componentType":5123,
			"count":216,
			"type":"SCALAR"
		},
		{
			"bufferView":25,
			"componentType":5126,
			"count":128,
			"max":[
				1.1528350114822388,
				1.0619637966156006,
				6.686657905578613
			],
			"min":[
				-1.1529107093811035,
				-0.37482476234436035,
				-0.9999995231628418
			],
			"type":"VEC3"
		},
		{
			"bufferView":26,
			"componentType":5126,
			"count":128,
			"type":"VEC3"
		},
		{
			"bufferView":27,
			"componentType":5126,
			"count":128,
			"type":"VEC2"
		},
		{
			"bufferView":28,
			"componentType":5126,
			"count":1,
			"max":[
				0.08333333333333333
			],
			"min":[
				0.08333333333333333
			],
			"type":"SCALAR"
		},
		{
			"bufferView":29,
			"componentType":5126,
			"count":1,
			"type":"VEC3"
		},
		{
			"bufferView":30,
			"componentType":5126,
			"count":1,
			"type":"VEC3"
		},
		{
			"bufferView":31,
			"componentType":5126,
			"count":1,
			"type":"VEC3"
		},
		{
			"bufferView":32,
			"componentType":5126,
			"count":1,
			"type":"VEC3"
		}
	],
	"bufferViews":[
		{
			"buffer":0,
			"byteLength":1536,
			"byteOffset":0,
			"target":34962
		},
		{
			"buffer":0,
			"byteLength":1536,
			"byteOffset":1536,
			"target":34962
		},
		{
			"buffer":0,
			"byteLength":1024,
			"byteOffset":3072,
			"target":34962
		},
		{
			"buffer":0,
			"byteLength":1260,
			"byteOffset":4096,
			"target":34963
		},
		{
			"buffer":0,
			"byteLength":1536,
			"byteOffset":5356,
			"target":34962
		},
		{
			"buffer":0,
			"byteLength":1536,
			"byteOffset":6892,
			"target":34962
		},
		{
			"buffer":0,
			"byteLength":1024,
			"byteOffset":8428,
			"target":34962
		},
		{
			"buffer":0,
			"byteLength":4320,
			"byteOffset":9452,
			"target":34962
		},
		{
			"buffer":0,
			"byteLength":4320,
			"byteOffset":13772,
			"target":34962
		},
		{
			"buffer":0,
			"byteLength":2880,
			"byteOffset":18092,
			"target":34962
		},
		{
			"buffer":0,
			"byteLength":1080,
			"byteOffset":20972,
			"target":34963
		},
		{
			"buffer":0,
			"byteLength":1464,
			"byteOffset":22052,
			"target":34962
		},
		{
			"buffer":0,
			"byteLength":1464,
			"byteOffset":23516,
			"target":34962
		},
		{
			"buffer":0,
			"byteLength":976,
			"byteOffset":24980,
			"target":34962
		},
		{
			"buffer":0,
			"byteLength":432,
			"byteOffset":25956,
			"target":34963
		},
		{
			"buffer":0,
			"byteLength":1464,
			"byteOffset":26388,
			"target":34962
		},
		{
			"buffer":0,
			"byteLength":1464,
			"byteOffset":27852,
			"target":34962
		},
		{
			"buffer":0,
			"byteLength":976,
			"byteOffset":29316,
			"target":34962
		},
		{
			"buffer":0,
			"byteLength":1536,
			"byteOffset":30292,
			"target":34962
		},
		{
			"buffer":0,
			"byteLength":1536,
			"byteOffset":31828,
			"target":34962
		},
		{
			"buffer":0,
			"byteLength":1024,
			"byteOffset":33364,
			"target":34962
		},
		{
			"buffer":0,
			"byteLength":1044,
			"byteOffset":34388,
			"target":34962
		},
		{
			"buffer":0,
			"byteLength":1044,
			"byteOffset":35432,
			"target":34962
		},
		{
			"buffer":0,
			"byteLength":696,
			"byteOffset":36476,
			"target":34962
		},
		{
			"buffer":0,
			"byteLength":432,
			"byteOffset":37172,
			"target":34963
		},
		{
			"buffer":0,
			"byteLength":1536,
			"byteOffset":37604,
			"target":34962
		},
		{
			"buffer":0,
			"byteLength":1536,
			"byteOffset":39140,
			"target":34962
		},
		{
			"buffer":0,
			"byteLength":1024,
			"byteOffset":40676,
			"target":34962
		},
		{
			"buffer":0,
			"byteLength":4,
			"byteOffset":41700
		},
		{
			"buffer":0,
			"byteLength":12,
			"byteOffset":41704
		},
		{
			"buffer":0,
			"byteLength":12,
			"byteOffset":41716
		},
		{
			"buffer":0,
			"byteLength":12,
			"byteOffset":41728
		},
		{
			"buffer":0,
			"byteLength":12,
			"byteOffset":41740
		}
	],
	"samplers":[
		{
			"magFilter":9729,
			"minFilter":9987
		}
	],
	"buffers":[
		{
			"byteLength":41752,
			"uri":"waterfall.bin"
		}
	]
}
