{
	"asset":{
		"generator":"Khronos glTF Blender I/O v4.2.69",
		"version":"2.0"
	},
	"extensionsUsed":[
		"KHR_materials_emissive_strength"
	],
	"scene":0,
	"scenes":[
		{
			"name":"Scene",
			"nodes":[
				2
			]
		}
	],
	"nodes":[
		{
			"mesh":0,
			"name":"WP_Shield.004",
			"scale":[
				0.009999999776482582,
				0.009999999776482582,
				0.009999999776482582
			]
		},
		{
			"name":"Bone",
			"rotation":[
				0.6956992149353027,
				2.568960439930379e-07,
				2.4880145588213054e-07,
				0.7183332443237305
			],
			"scale":[
				1,
				1,
				1.000000238418579
			],
			"translation":[
				0,
				1.2696025371551514,
				-1.587652325630188
			]
		},
		{
			"children":[
				0,
				1
			],
			"name":"Armature",
			"scale":[
				1,
				1,
				0.7641317844390869
			],
			"translation":[
				0,
				0,
				-0.02191000059247017
			]
		}
	],
	"animations":[
		{
			"channels":[
				{
					"sampler":0,
					"target":{
						"node":1,
						"path":"translation"
					}
				},
				{
					"sampler":1,
					"target":{
						"node":1,
						"path":"rotation"
					}
				},
				{
					"sampler":2,
					"target":{
						"node":1,
						"path":"scale"
					}
				},
				{
					"sampler":3,
					"target":{
						"node":2,
						"path":"translation"
					}
				},
				{
					"sampler":4,
					"target":{
						"node":2,
						"path":"rotation"
					}
				},
				{
					"sampler":5,
					"target":{
						"node":2,
						"path":"scale"
					}
				}
			],
			"name":"ArmatureAction",
			"samplers":[
				{
					"input":6,
					"interpolation":"STEP",
					"output":7
				},
				{
					"input":6,
					"interpolation":"STEP",
					"output":8
				},
				{
					"input":6,
					"interpolation":"STEP",
					"output":9
				},
				{
					"input":6,
					"interpolation":"STEP",
					"output":10
				},
				{
					"input":11,
					"interpolation":"LINEAR",
					"output":12
				},
				{
					"input":6,
					"interpolation":"STEP",
					"output":13
				}
			]
		},
		{
			"channels":[
				{
					"sampler":0,
					"target":{
						"node":1,
						"path":"translation"
					}
				},
				{
					"sampler":1,
					"target":{
						"node":1,
						"path":"rotation"
					}
				},
				{
					"sampler":2,
					"target":{
						"node":1,
						"path":"scale"
					}
				}
			],
			"name":"cw|Take 001|BaseLayer",
			"samplers":[
				{
					"input":14,
					"interpolation":"STEP",
					"output":15
				},
				{
					"input":14,
					"interpolation":"STEP",
					"output":16
				},
				{
					"input":14,
					"interpolation":"STEP",
					"output":17
				}
			]
		}
	],
	"materials":[
		{
			"alphaMode":"BLEND",
			"doubleSided":true,
			"emissiveFactor":[
				1,
				1,
				1
			],
			"emissiveTexture":{
				"index":0
			},
			"extensions":{
				"KHR_materials_emissive_strength":{
					"emissiveStrength":6.799999713897705
				}
			},
			"name":"standardSurface1",
			"pbrMetallicRoughness":{
				"baseColorTexture":{
					"index":1
				},
				"metallicFactor":0,
				"roughnessFactor":0.5527864098548889
			}
		}
	],
	"meshes":[
		{
			"name":"Mesh.002",
			"primitives":[
				{
					"attributes":{
						"POSITION":0,
						"NORMAL":1,
						"TEXCOORD_0":2,
						"JOINTS_0":3,
						"WEIGHTS_0":4
					},
					"indices":5,
					"material":0
				}
			]
		}
	],
	"textures":[
		{
			"sampler":0,
			"source":0
		},
		{
			"sampler":0,
			"source":1
		}
	],
	"images":[
		{
			"mimeType":"image/png",
			"name":"shield_texture_bluev02_emission",
			"uri":"shield_texture_bluev02_emission.png"
		},
		{
			"mimeType":"image/png",
			"name":"shield_texture_blue",
			"uri":"shield_texture_blue.png"
		}
	],
	"accessors":[
		{
			"bufferView":0,
			"componentType":5126,
			"count":2136,
			"max":[
				0.6255429983139038,
				2.526787281036377,
				1.580804705619812
			],
			"min":[
				-0.5721307396888733,
				0.43048086762428284,
				-1.4993070363998413
			],
			"type":"VEC3"
		},
		{
			"bufferView":1,
			"componentType":5126,
			"count":2136,
			"type":"VEC3"
		},
		{
			"bufferView":2,
			"componentType":5126,
			"count":2136,
			"type":"VEC2"
		},
		{
			"bufferView":3,
			"componentType":5121,
			"count":2136,
			"type":"VEC4"
		},
		{
			"bufferView":4,
			"componentType":5126,
			"count":2136,
			"type":"VEC4"
		},
		{
			"bufferView":5,
			"componentType":5123,
			"count":7308,
			"type":"SCALAR"
		},
		{
			"bufferView":6,
			"componentType":5126,
			"count":2,
			"max":[
				3.8666666666666667
			],
			"min":[
				0.03333333333333333
			],
			"type":"SCALAR"
		},
		{
			"bufferView":7,
			"componentType":5126,
			"count":2,
			"type":"VEC3"
		},
		{
			"bufferView":8,
			"componentType":5126,
			"count":2,
			"type":"VEC4"
		},
		{
			"bufferView":9,
			"componentType":5126,
			"count":2,
			"type":"VEC3"
		},
		{
			"bufferView":10,
			"componentType":5126,
			"count":2,
			"type":"VEC3"
		},
		{
			"bufferView":11,
			"componentType":5126,
			"count":116,
			"max":[
				3.8666666666666667
			],
			"min":[
				0.03333333333333333
			],
			"type":"SCALAR"
		},
		{
			"bufferView":12,
			"componentType":5126,
			"count":116,
			"type":"VEC4"
		},
		{
			"bufferView":13,
			"componentType":5126,
			"count":2,
			"type":"VEC3"
		},
		{
			"bufferView":14,
			"componentType":5126,
			"count":2,
			"max":[
				3.4
			],
			"min":[
				0
			],
			"type":"SCALAR"
		},
		{
			"bufferView":15,
			"componentType":5126,
			"count":2,
			"type":"VEC3"
		},
		{
			"bufferView":16,
			"componentType":5126,
			"count":2,
			"type":"VEC4"
		},
		{
			"bufferView":17,
			"componentType":5126,
			"count":2,
			"type":"VEC3"
		}
	],
	"bufferViews":[
		{
			"buffer":0,
			"byteLength":25632,
			"byteOffset":0,
			"target":34962
		},
		{
			"buffer":0,
			"byteLength":25632,
			"byteOffset":25632,
			"target":34962
		},
		{
			"buffer":0,
			"byteLength":17088,
			"byteOffset":51264,
			"target":34962
		},
		{
			"buffer":0,
			"byteLength":8544,
			"byteOffset":68352,
			"target":34962
		},
		{
			"buffer":0,
			"byteLength":34176,
			"byteOffset":76896,
			"target":34962
		},
		{
			"buffer":0,
			"byteLength":14616,
			"byteOffset":111072,
			"target":34963
		},
		{
			"buffer":0,
			"byteLength":8,
			"byteOffset":125688
		},
		{
			"buffer":0,
			"byteLength":24,
			"byteOffset":125696
		},
		{
			"buffer":0,
			"byteLength":32,
			"byteOffset":125720
		},
		{
			"buffer":0,
			"byteLength":24,
			"byteOffset":125752
		},
		{
			"buffer":0,
			"byteLength":24,
			"byteOffset":125776
		},
		{
			"buffer":0,
			"byteLength":464,
			"byteOffset":125800
		},
		{
			"buffer":0,
			"byteLength":1856,
			"byteOffset":126264
		},
		{
			"buffer":0,
			"byteLength":24,
			"byteOffset":128120
		},
		{
			"buffer":0,
			"byteLength":8,
			"byteOffset":128144
		},
		{
			"buffer":0,
			"byteLength":24,
			"byteOffset":128152
		},
		{
			"buffer":0,
			"byteLength":32,
			"byteOffset":128176
		},
		{
			"buffer":0,
			"byteLength":24,
			"byteOffset":128208
		}
	],
	"samplers":[
		{
			"magFilter":9729,
			"minFilter":9987
		}
	],
	"buffers":[
		{
			"byteLength":128232,
			"uri":"WP_Shield_InvulnerableAnimation_VFX.bin"
		}
	]
}
